<?xml version="1.0" encoding="us-ascii" standalone="no"?><svg xmlns="http://www.w3.org/2000/svg" xmlns:xlink="http://www.w3.org/1999/xlink" contentStyleType="text/css" height="426px" preserveAspectRatio="none" style="width:584px;height:426px;background:#FFFFFF;" version="1.1" viewBox="0 0 584 426" width="584px" zoomAndPan="magnify"><defs/><g><rect fill="#FFFFFF" height="23.291" style="stroke:#181818;stroke-width:1.0;" width="10" x="40" y="48.6211"/><rect fill="#FFFFFF" height="31.291" style="stroke:#181818;stroke-width:1.0;" width="10" x="40" y="103.2031"/><rect fill="#FFFFFF" height="125.2129" style="stroke:#181818;stroke-width:1.0;" width="10" x="40" y="254.6582"/><rect fill="#FFFFFF" height="16" style="stroke:#181818;stroke-width:1.0;" width="10" x="45" y="363.8711"/><rect fill="#FFFFFF" height="31.291" style="stroke:#181818;stroke-width:1.0;" width="10" x="247" y="71.9121"/><rect fill="#FFFFFF" height="31.291" style="stroke:#181818;stroke-width:1.0;" width="10" x="247" y="134.4941"/><rect fill="#FFFFFF" height="87.582" style="stroke:#181818;stroke-width:1.0;" width="10" x="247" y="197.0762"/><rect fill="#FFFFFF" height="31.291" style="stroke:#181818;stroke-width:1.0;" width="10" x="247" y="332.5801"/><rect fill="#FFFFFF" height="31.291" style="stroke:#181818;stroke-width:1.0;" width="10" x="536" y="165.7852"/><rect fill="none" height="159.7949" style="stroke:#000000;stroke-width:1.5;" width="280" x="10" y="212.0762"/><line style="stroke:#181818;stroke-width:0.5;stroke-dasharray:5.0,5.0;" x1="45" x2="45" y1="38.6211" y2="388.8711"/><line style="stroke:#181818;stroke-width:0.5;stroke-dasharray:5.0,5.0;" x1="252" x2="252" y1="38.6211" y2="388.8711"/><line style="stroke:#181818;stroke-width:0.5;stroke-dasharray:5.0,5.0;" x1="540.5" x2="540.5" y1="38.6211" y2="388.8711"/><rect fill="#E2E2F0" height="32.6211" rx="2.5" ry="2.5" style="stroke:#181818;stroke-width:0.5;" width="50" x="20" y="5"/><text fill="#000000" font-family="sans-serif" font-size="14" lengthAdjust="spacing" textLength="36" x="27" y="27.1074">Client</text><rect fill="#E2E2F0" height="32.6211" rx="2.5" ry="2.5" style="stroke:#181818;stroke-width:0.5;" width="50" x="20" y="387.8711"/><text fill="#000000" font-family="sans-serif" font-size="14" lengthAdjust="spacing" textLength="36" x="27" y="409.9785">Client</text><rect fill="#E2E2F0" height="32.6211" rx="2.5" ry="2.5" style="stroke:#181818;stroke-width:0.5;" width="56" x="224" y="5"/><text fill="#000000" font-family="sans-serif" font-size="14" lengthAdjust="spacing" textLength="42" x="231" y="27.1074">Server</text><rect fill="#E2E2F0" height="32.6211" rx="2.5" ry="2.5" style="stroke:#181818;stroke-width:0.5;" width="56" x="224" y="387.8711"/><text fill="#000000" font-family="sans-serif" font-size="14" lengthAdjust="spacing" textLength="42" x="231" y="409.9785">Server</text><rect fill="#E2E2F0" height="32.6211" rx="2.5" ry="2.5" style="stroke:#181818;stroke-width:0.5;" width="75" x="503.5" y="5"/><text fill="#000000" font-family="sans-serif" font-size="14" lengthAdjust="spacing" textLength="61" x="510.5" y="27.1074">Database</text><rect fill="#E2E2F0" height="32.6211" rx="2.5" ry="2.5" style="stroke:#181818;stroke-width:0.5;" width="75" x="503.5" y="387.8711"/><text fill="#000000" font-family="sans-serif" font-size="14" lengthAdjust="spacing" textLength="61" x="510.5" y="409.9785">Database</text><rect fill="#FFFFFF" height="23.291" style="stroke:#181818;stroke-width:1.0;" width="10" x="40" y="48.6211"/><rect fill="#FFFFFF" height="31.291" style="stroke:#181818;stroke-width:1.0;" width="10" x="40" y="103.2031"/><rect fill="#FFFFFF" height="125.2129" style="stroke:#181818;stroke-width:1.0;" width="10" x="40" y="254.6582"/><rect fill="#FFFFFF" height="16" style="stroke:#181818;stroke-width:1.0;" width="10" x="45" y="363.8711"/><rect fill="#FFFFFF" height="31.291" style="stroke:#181818;stroke-width:1.0;" width="10" x="247" y="71.9121"/><rect fill="#FFFFFF" height="31.291" style="stroke:#181818;stroke-width:1.0;" width="10" x="247" y="134.4941"/><rect fill="#FFFFFF" height="87.582" style="stroke:#181818;stroke-width:1.0;" width="10" x="247" y="197.0762"/><rect fill="#FFFFFF" height="31.291" style="stroke:#181818;stroke-width:1.0;" width="10" x="247" y="332.5801"/><rect fill="#FFFFFF" height="31.291" style="stroke:#181818;stroke-width:1.0;" width="10" x="536" y="165.7852"/><polygon fill="#181818" points="235,67.9121,245,71.9121,235,75.9121,239,71.9121" style="stroke:#181818;stroke-width:1.0;"/><line style="stroke:#181818;stroke-width:1.0;" x1="45" x2="241" y1="71.9121" y2="71.9121"/><text fill="#000000" font-family="sans-serif" font-size="13" font-weight="bold" lengthAdjust="spacing" textLength="7" x="52" y="66.6494">1</text><text fill="#000000" font-family="sans-serif" font-size="13" lengthAdjust="spacing" textLength="117" x="63" y="66.6494">requests connection</text><polygon fill="#181818" points="61,99.2031,51,103.2031,61,107.2031,57,103.2031" style="stroke:#181818;stroke-width:1.0;"/><line style="stroke:#181818;stroke-width:1.0;stroke-dasharray:2.0,2.0;" x1="55" x2="251" y1="103.2031" y2="103.2031"/><text fill="#000000" font-family="sans-serif" font-size="13" font-weight="bold" lengthAdjust="spacing" textLength="7" x="67" y="97.9404">2</text><text fill="#000000" font-family="sans-serif" font-size="13" lengthAdjust="spacing" textLength="113" x="78" y="97.9404">accepts connection</text><polygon fill="#181818" points="235,130.4941,245,134.4941,235,138.4941,239,134.4941" style="stroke:#181818;stroke-width:1.0;"/><line style="stroke:#181818;stroke-width:1.0;" x1="45" x2="241" y1="134.4941" y2="134.4941"/><text fill="#000000" font-family="sans-serif" font-size="13" font-weight="bold" lengthAdjust="spacing" textLength="7" x="52" y="129.2314">3</text><text fill="#000000" font-family="sans-serif" font-size="13" lengthAdjust="spacing" textLength="167" x="63" y="129.2314">sends authentication request</text><polygon fill="#181818" points="524,161.7852,534,165.7852,524,169.7852,528,165.7852" style="stroke:#181818;stroke-width:1.0;"/><line style="stroke:#181818;stroke-width:1.0;" x1="252" x2="530" y1="165.7852" y2="165.7852"/><text fill="#000000" font-family="sans-serif" font-size="13" font-weight="bold" lengthAdjust="spacing" textLength="7" x="259" y="160.5225">4</text><text fill="#000000" font-family="sans-serif" font-size="13" lengthAdjust="spacing" textLength="249" x="270" y="160.5225">queries database for information about user</text><polygon fill="#181818" points="268,193.0762,258,197.0762,268,201.0762,264,197.0762" style="stroke:#181818;stroke-width:1.0;"/><line style="stroke:#181818;stroke-width:1.0;stroke-dasharray:2.0,2.0;" x1="262" x2="540" y1="197.0762" y2="197.0762"/><text fill="#000000" font-family="sans-serif" font-size="13" font-weight="bold" lengthAdjust="spacing" textLength="7" x="274" y="191.8135">5</text><text fill="#000000" font-family="sans-serif" font-size="13" lengthAdjust="spacing" textLength="63" x="285" y="191.8135">information</text><path d="M10,212.0762 L71,212.0762 L71,221.3672 L61,231.3672 L10,231.3672 L10,212.0762 " fill="#EEEEEE" style="stroke:#000000;stroke-width:1.5;"/><rect fill="none" height="159.7949" style="stroke:#000000;stroke-width:1.5;" width="280" x="10" y="212.0762"/><text fill="#000000" font-family="sans-serif" font-size="13" font-weight="bold" lengthAdjust="spacing" textLength="16" x="25" y="227.1045">alt</text><text fill="#000000" font-family="sans-serif" font-size="11" font-weight="bold" lengthAdjust="spacing" textLength="160" x="86" y="225.9463">[if authentication successful]</text><polygon fill="#181818" points="61,250.6582,51,254.6582,61,258.6582,57,254.6582" style="stroke:#181818;stroke-width:1.0;"/><line style="stroke:#181818;stroke-width:1.0;stroke-dasharray:2.0,2.0;" x1="55" x2="246" y1="254.6582" y2="254.6582"/><text fill="#000000" font-family="sans-serif" font-size="13" font-weight="bold" lengthAdjust="spacing" textLength="7" x="67" y="249.3955">6</text><text fill="#000000" font-family="sans-serif" font-size="13" lengthAdjust="spacing" textLength="88" x="78" y="249.3955">sends success</text><line style="stroke:#000000;stroke-width:1.0;stroke-dasharray:2.0,2.0;" x1="10" x2="290" y1="293.6582" y2="293.6582"/><text fill="#000000" font-family="sans-serif" font-size="11" font-weight="bold" lengthAdjust="spacing" textLength="181" x="15" y="305.5283">[if authentication not successful]</text><polygon fill="#181818" points="61,328.5801,51,332.5801,61,336.5801,57,332.5801" style="stroke:#181818;stroke-width:1.0;"/><line style="stroke:#181818;stroke-width:1.0;stroke-dasharray:2.0,2.0;" x1="55" x2="246" y1="332.5801" y2="332.5801"/><text fill="#000000" font-family="sans-serif" font-size="13" font-weight="bold" lengthAdjust="spacing" textLength="7" x="67" y="327.3174">7</text><text fill="#000000" font-family="sans-serif" font-size="13" lengthAdjust="spacing" textLength="130" x="78" y="327.3174">sends failure message</text><polygon fill="#181818" points="66,359.8711,56,363.8711,66,367.8711,62,363.8711" style="stroke:#181818;stroke-width:1.0;"/><line style="stroke:#181818;stroke-width:1.0;stroke-dasharray:2.0,2.0;" x1="60" x2="251" y1="363.8711" y2="363.8711"/><text fill="#000000" font-family="sans-serif" font-size="13" font-weight="bold" lengthAdjust="spacing" textLength="7" x="72" y="358.6084">8</text><text fill="#000000" font-family="sans-serif" font-size="13" lengthAdjust="spacing" textLength="81" x="83" y="358.6084">closes socket</text><!--SRC=[bP9DSeCm38NtFeLsNL7sBB9fRz0J22CIJ_r3BJddZp8OXf8qGpSm2BtlFR_nsqLaugvj9uzHIl3lDeMMwQTGjDGC3iyPWp5O9CKIUih6J9Z5MJUf03wyeoY_Hb-Khxgs7NsYO8zCoh7YhYYq2ESNDASgWmxotPo5mQOOIVTJD0FjXUjtjQloHacLsG5QIzEVe2eya8Wf3WnQmKN_E8jtqXBp7z5EQm_AL75sn30iep5bS56VOUPZduf0OGMy2BqskwARRV8DS4jPLNkkGI_WnlrPkMYJp6FnJtkU-wbB3uK-fZVaDUWJdvXaw_N2R4JdIoO8kefdEdGTh4-iZNEotoG7Re9H9sFC3G00]--></g></svg>