<?xml version="1.0" encoding="UTF-8" standalone="no"?><svg xmlns="http://www.w3.org/2000/svg" xmlns:xlink="http://www.w3.org/1999/xlink" contentStyleType="text/css" height="464px" preserveAspectRatio="none" style="width:1494px;height:464px;background:#FFFFFF;" version="1.1" viewBox="0 0 1494 464" width="1494px" zoomAndPan="magnify"><defs/><g><text fill="#000000" font-family="sans-serif" font-size="14" font-weight="bold" lengthAdjust="spacing" textLength="294" x="596.25" y="29.5332">UG007 - Register User Authorization (SSD)</text><rect fill="#FFFFFF" height="89.4688" style="stroke:#181818;stroke-width:1.0;" width="10" x="126" y="124.9219"/><rect fill="#FFFFFF" height="67.3125" style="stroke:#181818;stroke-width:1.0;" width="10" x="126" y="228.3906"/><rect fill="#FFFFFF" height="39.1563" style="stroke:#181818;stroke-width:1.0;" width="10" x="126" y="363.0156"/><rect fill="#FFFFFF" height="14" style="stroke:#181818;stroke-width:1.0;" width="10" x="870" y="214.3906"/><rect fill="#FFFFFF" height="67.3125" style="stroke:#181818;stroke-width:1.0;" width="10" x="1092.5" y="295.7031"/><line style="stroke:#181818;stroke-width:0.5;stroke-dasharray:5.0,5.0;" x1="130.5" x2="130.5" y1="83.7656" y2="420.1719"/><line style="stroke:#181818;stroke-width:0.5;stroke-dasharray:5.0,5.0;" x1="874.5" x2="874.5" y1="83.7656" y2="420.1719"/><line style="stroke:#181818;stroke-width:0.5;stroke-dasharray:5.0,5.0;" x1="1097.5" x2="1097.5" y1="83.7656" y2="420.1719"/><rect fill="#E3E3E3" height="39.1563" rx="2.5" ry="2.5" style="stroke:#181818;stroke-width:0.5;" width="175" x="43.5" y="43.6094"/><text fill="#000000" font-family="sans-serif" font-size="20" lengthAdjust="spacing" textLength="161" x="50.5" y="71.3711">AddUserController</text><rect fill="#E3E3E3" height="39.1563" rx="2.5" ry="2.5" style="stroke:#181818;stroke-width:0.5;" width="175" x="43.5" y="419.1719"/><text fill="#000000" font-family="sans-serif" font-size="20" lengthAdjust="spacing" textLength="161" x="50.5" y="446.9336">AddUserController</text><rect fill="#E3E3E3" height="39.1563" rx="2.5" ry="2.5" style="stroke:#181818;stroke-width:0.5;" width="191" x="779.5" y="43.6094"/><text fill="#000000" font-family="sans-serif" font-size="20" lengthAdjust="spacing" textLength="177" x="786.5" y="71.3711">AuthorizationService</text><rect fill="#E3E3E3" height="39.1563" rx="2.5" ry="2.5" style="stroke:#181818;stroke-width:0.5;" width="191" x="779.5" y="419.1719"/><text fill="#000000" font-family="sans-serif" font-size="20" lengthAdjust="spacing" textLength="177" x="786.5" y="446.9336">AuthorizationService</text><rect fill="#E3E3E3" height="39.1563" rx="2.5" ry="2.5" style="stroke:#181818;stroke-width:0.5;" width="234" x="980.5" y="43.6094"/><text fill="#000000" font-family="sans-serif" font-size="20" lengthAdjust="spacing" textLength="220" x="987.5" y="71.3711">UserManagementService</text><rect fill="#E3E3E3" height="39.1563" rx="2.5" ry="2.5" style="stroke:#181818;stroke-width:0.5;" width="234" x="980.5" y="419.1719"/><text fill="#000000" font-family="sans-serif" font-size="20" lengthAdjust="spacing" textLength="220" x="987.5" y="446.9336">UserManagementService</text><rect fill="#FFFFFF" height="89.4688" style="stroke:#181818;stroke-width:1.0;" width="10" x="126" y="124.9219"/><rect fill="#FFFFFF" height="67.3125" style="stroke:#181818;stroke-width:1.0;" width="10" x="126" y="228.3906"/><rect fill="#FFFFFF" height="39.1563" style="stroke:#181818;stroke-width:1.0;" width="10" x="126" y="363.0156"/><rect fill="#FFFFFF" height="14" style="stroke:#181818;stroke-width:1.0;" width="10" x="870" y="214.3906"/><rect fill="#FFFFFF" height="67.3125" style="stroke:#181818;stroke-width:1.0;" width="10" x="1092.5" y="295.7031"/><polygon fill="#181818" points="114,120.9219,124,124.9219,114,128.9219,118,124.9219" style="stroke:#181818;stroke-width:1.0;"/><line style="stroke:#181818;stroke-width:1.0;" x1="0" x2="120" y1="124.9219" y2="124.9219"/><text fill="#000000" font-family="sans-serif" font-size="20" lengthAdjust="spacing" textLength="18" x="7" y="118.5273">...</text><polygon fill="#181818" points="858,210.3906,868,214.3906,858,218.3906,862,214.3906" style="stroke:#181818;stroke-width:1.0;"/><line style="stroke:#181818;stroke-width:1.0;" x1="131" x2="864" y1="214.3906" y2="214.3906"/><text fill="#000000" font-family="sans-serif" font-size="20" lengthAdjust="spacing" textLength="709" x="138" y="157.6836">ensureAuthenticatedUserHasAnyOf(BaseRoles.ADMIN, BaseRoles.OPERATOR,</text><text fill="#000000" font-family="sans-serif" font-size="20" lengthAdjust="spacing" textLength="662" x="138" y="182.8398">BaseRoles.CUSTOMER_MANAGER, BaseRoles.LANGUAGE_ENGINEER,</text><text fill="#000000" font-family="sans-serif" font-size="20" lengthAdjust="spacing" textLength="445" x="144" y="207.9961">BaseRoles.CANDIDATE, BaseRoles.CUSTOMER)</text><path d="M880,147.5 L880,207.5 L1462,207.5 L1462,157.5 L1452,147.5 L880,147.5 " fill="#FAFAFA" style="stroke:#181818;stroke-width:0.5;"/><path d="M1452,147.5 L1452,157.5 L1462,157.5 L1452,147.5 " fill="#FAFAFA" style="stroke:#181818;stroke-width:0.5;"/><text fill="#000000" font-family="sans-serif" font-size="20" lengthAdjust="spacing" textLength="555" x="886" y="173.2617">The class is responsible for verifying if the user has a valid role,</text><text fill="#000000" font-family="sans-serif" font-size="20" lengthAdjust="spacing" textLength="467" x="886" y="198.418">if they do not it throws an UnauthenticatedException()</text><polygon fill="#181818" points="147,224.3906,137,228.3906,147,232.3906,143,228.3906" style="stroke:#181818;stroke-width:1.0;"/><line style="stroke:#181818;stroke-width:1.0;stroke-dasharray:2.0,2.0;" x1="141" x2="874" y1="228.3906" y2="228.3906"/><polygon fill="#181818" points="1080.5,291.7031,1090.5,295.7031,1080.5,299.7031,1084.5,295.7031" style="stroke:#181818;stroke-width:1.0;"/><line style="stroke:#181818;stroke-width:1.0;" x1="131" x2="1086.5" y1="295.7031" y2="295.7031"/><text fill="#000000" font-family="sans-serif" font-size="20" lengthAdjust="spacing" textLength="713" x="138" y="289.3086">registerNewUser(email, password, firstName, lastName, email, roles, createdOn)</text><path d="M1107,241.3906 L1107,326.3906 L1487,326.3906 L1487,251.3906 L1477,241.3906 L1107,241.3906 " fill="#FAFAFA" style="stroke:#181818;stroke-width:0.5;"/><path d="M1477,241.3906 L1477,251.3906 L1487,251.3906 L1477,241.3906 " fill="#FAFAFA" style="stroke:#181818;stroke-width:0.5;"/><text fill="#000000" font-family="sans-serif" font-size="20" lengthAdjust="spacing" textLength="359" x="1113" y="267.1523">The class will perform more authorization</text><text fill="#000000" font-family="sans-serif" font-size="20" lengthAdjust="spacing" textLength="336" x="1119" y="292.3086">actions according to the configurations</text><text fill="#000000" font-family="sans-serif" font-size="20" lengthAdjust="spacing" textLength="312" x="1119" y="317.4648">set in the BackOffice class on boot.</text><polygon fill="#181818" points="147,359.0156,137,363.0156,147,367.0156,143,363.0156" style="stroke:#181818;stroke-width:1.0;"/><line style="stroke:#181818;stroke-width:1.0;stroke-dasharray:2.0,2.0;" x1="141" x2="1096.5" y1="363.0156" y2="363.0156"/><text fill="#000000" font-family="sans-serif" font-size="20" lengthAdjust="spacing" textLength="107" x="153" y="356.6211">SystemUser</text><polygon fill="#181818" points="11,398.1719,1,402.1719,11,406.1719,7,402.1719" style="stroke:#181818;stroke-width:1.0;"/><line style="stroke:#181818;stroke-width:1.0;stroke-dasharray:2.0,2.0;" x1="5" x2="130" y1="402.1719" y2="402.1719"/><text fill="#000000" font-family="sans-serif" font-size="20" lengthAdjust="spacing" textLength="107" x="17" y="395.7773">SystemUser</text><!--SRC=[XLHDZzem4BtdLupsn4g0K2-LggfI5bAAL98gWTjAAwypIImSEx8TAFlhEsRPtRGOUic7typpp7jZsvrG7JEibPhli8GIAzPBzrqhLuWNX4-poBw5GAkLvetHBO8pFGwGZl4Tgx5mHubWa3kcQZaCi0qhzK6e6YecBKQH4uv2jylPx3DC8CTQM8S6jfOUSUyQRSGBSq8h61N5uZwA8Y9oWekEAGTtSLdwq3dLQRIKQEw0MRXO_ITfo5kWsGkEhta1uEzKJxjcYdfiaQGPv0OHAdVoxR8S-0BJwJHYt8azSnYezpB5ymJA8ofKjZVeGTfOS28yvVvWDbR7h1ezC8kvbcYdyMAzIiVmiP3zIl9ua-LZU5GVg_DjiSdMIVwqZjDucUJ3Z9znkjpIubEIBbTfGk2Z6i3pE5si5l4c6UQyyTr79TxeUQ17o8T8QOACg1j7JMyQ12wPjI0iJPhjjBBYcKQfqWRsQ4Hrz5CcAY1PeFVZr91B3FPCYX9eI_HDl-97A3KGFGX7lqOVA531Lh6XfiblZfqlQ4HJUEdFryaaNFUmvn1-Iv7m70H7ZJGnvzEJui67ZB1bGexfK5fxqAOSGoMCTIbhgNMIxlnrZlAAs35mWxxPJFt7h7VeojnVCUiWf8GE3Rdaxn63m8QQq2nvOlAItfngzXuwVVAGQrM9kZUdG4kH5iamTS8UwDx9gihByBeFtHVFMhlf5QEkALWSIR_MeyFkmotUykqq385J7-OF4Fm1]--></g></svg>