<?xml version="1.0" encoding="us-ascii" standalone="no"?><svg xmlns="http://www.w3.org/2000/svg" xmlns:xlink="http://www.w3.org/1999/xlink" contentStyleType="text/css" height="467px" preserveAspectRatio="none" style="width:399px;height:467px;background:#FFFFFF;" version="1.1" viewBox="0 0 399 467" width="399px" zoomAndPan="magnify"><defs/><g><text fill="#000000" font-family="sans-serif" font-size="14" font-weight="bold" lengthAdjust="spacing" textLength="293" x="52" y="27.9951">System Sequence Diagram - US 1017</text><rect fill="#FFFFFF" height="240.1953" style="stroke:#181818;stroke-width:1.0;" width="10" x="69" y="128.5938"/><rect fill="#FFFFFF" height="44.2656" style="stroke:#181818;stroke-width:1.0;" width="10" x="341" y="149.7266"/><rect fill="#FFFFFF" height="29.1328" style="stroke:#181818;stroke-width:1.0;" width="10" x="341" y="223.125"/><rect fill="#FFFFFF" height="29.1328" style="stroke:#181818;stroke-width:1.0;" width="10" x="341" y="281.3906"/><rect fill="#FFFFFF" height="29.1328" style="stroke:#181818;stroke-width:1.0;" width="10" x="341" y="339.6563"/><line style="stroke:#181818;stroke-width:0.5;stroke-dasharray:5.0,5.0;" x1="74" x2="74" y1="118.5938" y2="386.7891"/><line style="stroke:#181818;stroke-width:0.5;stroke-dasharray:5.0,5.0;" x1="346" x2="346" y1="118.5938" y2="386.7891"/><text fill="#000000" font-family="sans-serif" font-size="14" lengthAdjust="spacing" textLength="132" x="5" y="115.292">Customer Manager</text><ellipse cx="74" cy="50.7969" fill="#E2E2F0" rx="8" ry="8" style="stroke:#181818;stroke-width:0.5;"/><path d="M74,58.7969 L74,85.7969 M61,66.7969 L87,66.7969 M74,85.7969 L61,100.7969 M74,85.7969 L87,100.7969 " fill="none" style="stroke:#181818;stroke-width:0.5;"/><text fill="#000000" font-family="sans-serif" font-size="14" lengthAdjust="spacing" textLength="132" x="5" y="398.7842">Customer Manager</text><ellipse cx="74" cy="410.5859" fill="#E2E2F0" rx="8" ry="8" style="stroke:#181818;stroke-width:0.5;"/><path d="M74,418.5859 L74,445.5859 M61,426.5859 L87,426.5859 M74,445.5859 L61,460.5859 M74,445.5859 L87,460.5859 " fill="none" style="stroke:#181818;stroke-width:0.5;"/><rect fill="#E2E2F0" height="30.2969" rx="2.5" ry="2.5" style="stroke:#181818;stroke-width:0.5;" width="94" x="299" y="87.2969"/><text fill="#000000" font-family="sans-serif" font-size="14" lengthAdjust="spacing" textLength="80" x="306" y="107.292">:Application</text><rect fill="#E2E2F0" height="30.2969" rx="2.5" ry="2.5" style="stroke:#181818;stroke-width:0.5;" width="94" x="299" y="385.7891"/><text fill="#000000" font-family="sans-serif" font-size="14" lengthAdjust="spacing" textLength="80" x="306" y="405.7842">:Application</text><rect fill="#FFFFFF" height="240.1953" style="stroke:#181818;stroke-width:1.0;" width="10" x="69" y="128.5938"/><rect fill="#FFFFFF" height="44.2656" style="stroke:#181818;stroke-width:1.0;" width="10" x="341" y="149.7266"/><rect fill="#FFFFFF" height="29.1328" style="stroke:#181818;stroke-width:1.0;" width="10" x="341" y="223.125"/><rect fill="#FFFFFF" height="29.1328" style="stroke:#181818;stroke-width:1.0;" width="10" x="341" y="281.3906"/><rect fill="#FFFFFF" height="29.1328" style="stroke:#181818;stroke-width:1.0;" width="10" x="341" y="339.6563"/><polygon fill="#181818" points="329,145.7266,339,149.7266,329,153.7266,333,149.7266" style="stroke:#181818;stroke-width:1.0;"/><line style="stroke:#181818;stroke-width:1.0;" x1="79" x2="335" y1="149.7266" y2="149.7266"/><text fill="#000000" font-family="sans-serif" font-size="13" font-weight="bold" lengthAdjust="spacing" textLength="9" x="86" y="144.6606">1</text><text fill="#000000" font-family="sans-serif" font-size="13" lengthAdjust="spacing" textLength="230" x="99" y="144.6606">asks to upload candidate responses</text><polygon fill="#181818" points="90,189.9922,80,193.9922,90,197.9922,86,193.9922" style="stroke:#181818;stroke-width:1.0;"/><line style="stroke:#181818;stroke-width:1.0;stroke-dasharray:2.0,2.0;" x1="84" x2="345" y1="193.9922" y2="193.9922"/><text fill="#000000" font-family="sans-serif" font-size="13" font-weight="bold" lengthAdjust="spacing" textLength="9" x="96" y="181.3599">2</text><text fill="#000000" font-family="sans-serif" font-size="13" lengthAdjust="spacing" textLength="225" x="109" y="173.7935">shows a list of job offers associated</text><text fill="#000000" font-family="sans-serif" font-size="13" lengthAdjust="spacing" textLength="182" x="109" y="188.9263">with that Customer Manager</text><polygon fill="#181818" points="329,219.125,339,223.125,329,227.125,333,223.125" style="stroke:#181818;stroke-width:1.0;"/><line style="stroke:#181818;stroke-width:1.0;" x1="79" x2="335" y1="223.125" y2="223.125"/><text fill="#000000" font-family="sans-serif" font-size="13" font-weight="bold" lengthAdjust="spacing" textLength="9" x="86" y="218.0591">3</text><text fill="#000000" font-family="sans-serif" font-size="13" lengthAdjust="spacing" textLength="60" x="99" y="218.0591">picks one</text><polygon fill="#181818" points="90,248.2578,80,252.2578,90,256.2578,86,252.2578" style="stroke:#181818;stroke-width:1.0;"/><line style="stroke:#181818;stroke-width:1.0;stroke-dasharray:2.0,2.0;" x1="84" x2="345" y1="252.2578" y2="252.2578"/><text fill="#000000" font-family="sans-serif" font-size="13" font-weight="bold" lengthAdjust="spacing" textLength="9" x="96" y="247.1919">4</text><text fill="#000000" font-family="sans-serif" font-size="13" lengthAdjust="spacing" textLength="134" x="109" y="247.1919">request reponses file</text><polygon fill="#181818" points="329,277.3906,339,281.3906,329,285.3906,333,281.3906" style="stroke:#181818;stroke-width:1.0;"/><line style="stroke:#181818;stroke-width:1.0;" x1="79" x2="335" y1="281.3906" y2="281.3906"/><text fill="#000000" font-family="sans-serif" font-size="13" font-weight="bold" lengthAdjust="spacing" textLength="9" x="86" y="276.3247">5</text><text fill="#000000" font-family="sans-serif" font-size="13" lengthAdjust="spacing" textLength="113" x="99" y="276.3247">enters path to file</text><polygon fill="#181818" points="90,306.5234,80,310.5234,90,314.5234,86,310.5234" style="stroke:#181818;stroke-width:1.0;"/><line style="stroke:#181818;stroke-width:1.0;stroke-dasharray:2.0,2.0;" x1="84" x2="345" y1="310.5234" y2="310.5234"/><text fill="#000000" font-family="sans-serif" font-size="13" font-weight="bold" lengthAdjust="spacing" textLength="9" x="96" y="305.4575">6</text><text fill="#000000" font-family="sans-serif" font-size="13" lengthAdjust="spacing" textLength="222" x="109" y="305.4575">shows applications to that job offer</text><polygon fill="#181818" points="329,335.6563,339,339.6563,329,343.6563,333,339.6563" style="stroke:#181818;stroke-width:1.0;"/><line style="stroke:#181818;stroke-width:1.0;" x1="79" x2="335" y1="339.6563" y2="339.6563"/><text fill="#000000" font-family="sans-serif" font-size="13" font-weight="bold" lengthAdjust="spacing" textLength="9" x="86" y="334.5903">7</text><text fill="#000000" font-family="sans-serif" font-size="13" lengthAdjust="spacing" textLength="60" x="99" y="334.5903">picks one</text><polygon fill="#181818" points="85,364.7891,75,368.7891,85,372.7891,81,368.7891" style="stroke:#181818;stroke-width:1.0;"/><line style="stroke:#181818;stroke-width:1.0;stroke-dasharray:2.0,2.0;" x1="79" x2="345" y1="368.7891" y2="368.7891"/><text fill="#000000" font-family="sans-serif" font-size="13" font-weight="bold" lengthAdjust="spacing" textLength="9" x="91" y="363.7231">8</text><text fill="#000000" font-family="sans-serif" font-size="13" lengthAdjust="spacing" textLength="110" x="104" y="363.7231">confirms success</text><!--SRC=[hL6zJiCm49xZfpXbhqGdf0n825Qcg1lBrRaq1udF-CvKl3rsGALb00OcMxxlzsniCq7_faOBzFIIANY2UyP3mWKsiEjXUxMzTWwpISZBdbAvUvC4xLrMauKIF6300wKMKC4lBc8ozXmn6BJTROmpUpIMi08mnbM1Nz6embtZYzDD7K1N4CyA9f3ZB3Y0np3mK969D4fGKjUSs5MhQIfnKmIAJ0SwoR6OmCng82CyoRuS8wNog2gU2szu34Us2Mn2W-yjN3FGXS5bliY-19H0FyT8TPKbGQAFq33oJBz8Kx0QCsAD9f-CFtJzMl2wkRNLgVR_rF4IHawBWcRlIVLSrRapX_AVxm00]--></g></svg>