<?xml version="1.0" encoding="us-ascii" standalone="no"?><svg xmlns="http://www.w3.org/2000/svg" xmlns:xlink="http://www.w3.org/1999/xlink" contentStyleType="text/css" height="1387px" preserveAspectRatio="none" style="width:2571px;height:1387px;background:#FFFFFF;" version="1.1" viewBox="0 0 2571 1387" width="2571px" zoomAndPan="magnify"><defs/><g><text fill="#000000" font-family="sans-serif" font-size="14" font-weight="bold" lengthAdjust="spacing" textLength="193" x="1182.25" y="22.9951">Class Diagram - US 1017</text><!--class MainMenu--><g id="elem_MainMenu"><rect codeLine="5" fill="#F1F1F1" height="48" id="MainMenu" rx="2.5" ry="2.5" style="stroke:#181818;stroke-width:0.5;" width="103" x="1239.5" y="44.2969"/><ellipse cx="1254.5" cy="60.2969" fill="#ADD1B2" rx="11" ry="11" style="stroke:#181818;stroke-width:1.0;"/><path d="M1257.4688,65.9375 Q1256.8906,66.2344 1256.25,66.375 Q1255.6094,66.5313 1254.9063,66.5313 Q1252.4063,66.5313 1251.0781,64.8906 Q1249.7656,63.2344 1249.7656,60.1094 Q1249.7656,56.9844 1251.0781,55.3281 Q1252.4063,53.6719 1254.9063,53.6719 Q1255.6094,53.6719 1256.25,53.8281 Q1256.9063,53.9844 1257.4688,54.2813 L1257.4688,57 Q1256.8438,56.4219 1256.25,56.1563 Q1255.6563,55.875 1255.0313,55.875 Q1253.6875,55.875 1253,56.9531 Q1252.3125,58.0156 1252.3125,60.1094 Q1252.3125,62.2031 1253,63.2813 Q1253.6875,64.3438 1255.0313,64.3438 Q1255.6563,64.3438 1256.25,64.0781 Q1256.8438,63.7969 1257.4688,63.2188 L1257.4688,65.9375 Z " fill="#000000"/><text fill="#000000" font-family="sans-serif" font-size="14" lengthAdjust="spacing" textLength="71" x="1268.5" y="65.1436">MainMenu</text><line style="stroke:#181818;stroke-width:0.5;" x1="1240.5" x2="1341.5" y1="76.2969" y2="76.2969"/><line style="stroke:#181818;stroke-width:0.5;" x1="1240.5" x2="1341.5" y1="84.2969" y2="84.2969"/></g><!--class SaveResponsesUI--><g id="elem_SaveResponsesUI"><rect codeLine="8" fill="#F1F1F1" height="64.2969" id="SaveResponsesUI" rx="2.5" ry="2.5" style="stroke:#181818;stroke-width:0.5;" width="157" x="1212.5" y="169.2969"/><ellipse cx="1227.5" cy="185.2969" fill="#ADD1B2" rx="11" ry="11" style="stroke:#181818;stroke-width:1.0;"/><path d="M1230.4688,190.9375 Q1229.8906,191.2344 1229.25,191.375 Q1228.6094,191.5313 1227.9063,191.5313 Q1225.4063,191.5313 1224.0781,189.8906 Q1222.7656,188.2344 1222.7656,185.1094 Q1222.7656,181.9844 1224.0781,180.3281 Q1225.4063,178.6719 1227.9063,178.6719 Q1228.6094,178.6719 1229.25,178.8281 Q1229.9063,178.9844 1230.4688,179.2813 L1230.4688,182 Q1229.8438,181.4219 1229.25,181.1563 Q1228.6563,180.875 1228.0313,180.875 Q1226.6875,180.875 1226,181.9531 Q1225.3125,183.0156 1225.3125,185.1094 Q1225.3125,187.2031 1226,188.2813 Q1226.6875,189.3438 1228.0313,189.3438 Q1228.6563,189.3438 1229.25,189.0781 Q1229.8438,188.7969 1230.4688,188.2188 L1230.4688,190.9375 Z " fill="#000000"/><text fill="#000000" font-family="sans-serif" font-size="14" lengthAdjust="spacing" textLength="125" x="1241.5" y="190.1436">SaveResponsesUI</text><line style="stroke:#181818;stroke-width:0.5;" x1="1213.5" x2="1368.5" y1="201.2969" y2="201.2969"/><line style="stroke:#181818;stroke-width:0.5;" x1="1213.5" x2="1368.5" y1="209.2969" y2="209.2969"/><ellipse cx="1223.5" cy="222.9453" fill="#84BE84" rx="3" ry="3" style="stroke:#038048;stroke-width:1.0;"/><text fill="#000000" font-family="sans-serif" font-size="14" lengthAdjust="spacing" textLength="47" x="1232.5" y="226.292">show()</text></g><!--class SaveResponsesController--><g id="elem_SaveResponsesController"><rect codeLine="12" fill="#F1F1F1" height="194.6719" id="SaveResponsesController" rx="2.5" ry="2.5" style="stroke:#181818;stroke-width:0.5;" width="508" x="1037" y="310.2969"/><ellipse cx="1197.25" cy="326.2969" fill="#ADD1B2" rx="11" ry="11" style="stroke:#181818;stroke-width:1.0;"/><path d="M1200.2188,331.9375 Q1199.6406,332.2344 1199,332.375 Q1198.3594,332.5313 1197.6563,332.5313 Q1195.1563,332.5313 1193.8281,330.8906 Q1192.5156,329.2344 1192.5156,326.1094 Q1192.5156,322.9844 1193.8281,321.3281 Q1195.1563,319.6719 1197.6563,319.6719 Q1198.3594,319.6719 1199,319.8281 Q1199.6563,319.9844 1200.2188,320.2813 L1200.2188,323 Q1199.5938,322.4219 1199,322.1563 Q1198.4063,321.875 1197.7813,321.875 Q1196.4375,321.875 1195.75,322.9531 Q1195.0625,324.0156 1195.0625,326.1094 Q1195.0625,328.2031 1195.75,329.2813 Q1196.4375,330.3438 1197.7813,330.3438 Q1198.4063,330.3438 1199,330.0781 Q1199.5938,329.7969 1200.2188,329.2188 L1200.2188,331.9375 Z " fill="#000000"/><text fill="#000000" font-family="sans-serif" font-size="14" lengthAdjust="spacing" textLength="179" x="1217.75" y="331.1436">SaveResponsesController</text><line style="stroke:#181818;stroke-width:0.5;" x1="1038" x2="1544" y1="342.2969" y2="342.2969"/><line style="stroke:#181818;stroke-width:0.5;" x1="1038" x2="1544" y1="350.2969" y2="350.2969"/><ellipse cx="1048" cy="363.9453" fill="#84BE84" rx="3" ry="3" style="stroke:#038048;stroke-width:1.0;"/><text fill="#000000" font-family="sans-serif" font-size="14" lengthAdjust="spacing" textLength="54" x="1057" y="367.292">create()</text><ellipse cx="1048" cy="380.2422" fill="#84BE84" rx="3" ry="3" style="stroke:#038048;stroke-width:1.0;"/><text fill="#000000" font-family="sans-serif" font-size="14" lengthAdjust="spacing" textLength="268" x="1057" y="383.5889">getJobOffers() : Iterable&lt;JobOfferDTO&gt;</text><ellipse cx="1048" cy="396.5391" fill="#84BE84" rx="3" ry="3" style="stroke:#038048;stroke-width:1.0;"/><text fill="#000000" font-family="sans-serif" font-size="14" lengthAdjust="spacing" textLength="333" x="1057" y="399.8857">checkInterview(JobOfferDTO offerDTO) : boolean</text><ellipse cx="1048" cy="412.8359" fill="#84BE84" rx="3" ry="3" style="stroke:#038048;stroke-width:1.0;"/><text fill="#000000" font-family="sans-serif" font-size="14" lengthAdjust="spacing" textLength="304" x="1057" y="416.1826">validateResponses(String filePath) : boolean</text><ellipse cx="1048" cy="429.1328" fill="#84BE84" rx="3" ry="3" style="stroke:#038048;stroke-width:1.0;"/><text fill="#000000" font-family="sans-serif" font-size="14" lengthAdjust="spacing" textLength="482" x="1057" y="432.4795">getJobApplications(JobOfferDTO offerDTO) : Iterable&lt;ApplicationDTO&gt;</text><ellipse cx="1048" cy="445.4297" fill="#84BE84" rx="3" ry="3" style="stroke:#038048;stroke-width:1.0;"/><text fill="#000000" font-family="sans-serif" font-size="14" lengthAdjust="spacing" textLength="405" x="1057" y="448.7764">getJobApplicationByDTO(ApplicationDTO appdto) : boolean</text><ellipse cx="1048" cy="461.7266" fill="#84BE84" rx="3" ry="3" style="stroke:#038048;stroke-width:1.0;"/><text fill="#000000" font-family="sans-serif" font-size="14" lengthAdjust="spacing" textLength="421" x="1057" y="465.0732">checkAnswerAlreadyExists(ApplicationDTO appdto) : boolean</text><ellipse cx="1048" cy="478.0234" fill="#84BE84" rx="3" ry="3" style="stroke:#038048;stroke-width:1.0;"/><text fill="#000000" font-family="sans-serif" font-size="14" lengthAdjust="spacing" textLength="364" x="1057" y="481.3701">deleteOldAnswers(ApplicationDTO appdto) : boolean</text><ellipse cx="1048" cy="494.3203" fill="#84BE84" rx="3" ry="3" style="stroke:#038048;stroke-width:1.0;"/><text fill="#000000" font-family="sans-serif" font-size="14" lengthAdjust="spacing" textLength="284" x="1057" y="497.667">saveResponses(applicationDTO, filePath)</text></g><!--class PersistenceContext--><g id="elem_PersistenceContext"><rect codeLine="24" fill="#F1F1F1" height="48" id="PersistenceContext" rx="2.5" ry="2.5" style="stroke:#181818;stroke-width:0.5;" width="168" x="7" y="582.7969"/><ellipse cx="22" cy="598.7969" fill="#ADD1B2" rx="11" ry="11" style="stroke:#181818;stroke-width:1.0;"/><path d="M24.9688,604.4375 Q24.3906,604.7344 23.75,604.875 Q23.1094,605.0313 22.4063,605.0313 Q19.9063,605.0313 18.5781,603.3906 Q17.2656,601.7344 17.2656,598.6094 Q17.2656,595.4844 18.5781,593.8281 Q19.9063,592.1719 22.4063,592.1719 Q23.1094,592.1719 23.75,592.3281 Q24.4063,592.4844 24.9688,592.7813 L24.9688,595.5 Q24.3438,594.9219 23.75,594.6563 Q23.1563,594.375 22.5313,594.375 Q21.1875,594.375 20.5,595.4531 Q19.8125,596.5156 19.8125,598.6094 Q19.8125,600.7031 20.5,601.7813 Q21.1875,602.8438 22.5313,602.8438 Q23.1563,602.8438 23.75,602.5781 Q24.3438,602.2969 24.9688,601.7188 L24.9688,604.4375 Z " fill="#000000"/><text fill="#000000" font-family="sans-serif" font-size="14" lengthAdjust="spacing" textLength="136" x="36" y="603.6436">PersistenceContext</text><line style="stroke:#181818;stroke-width:0.5;" x1="8" x2="174" y1="614.7969" y2="614.7969"/><line style="stroke:#181818;stroke-width:0.5;" x1="8" x2="174" y1="622.7969" y2="622.7969"/></g><!--class RepositoryFactory--><g id="elem_RepositoryFactory"><rect codeLine="26" fill="#F1F1F1" height="48" id="RepositoryFactory" rx="2.5" ry="2.5" style="stroke:#181818;stroke-width:0.5;" width="156" x="13" y="740.7969"/><ellipse cx="28" cy="756.7969" fill="#ADD1B2" rx="11" ry="11" style="stroke:#181818;stroke-width:1.0;"/><path d="M30.9688,762.4375 Q30.3906,762.7344 29.75,762.875 Q29.1094,763.0313 28.4063,763.0313 Q25.9063,763.0313 24.5781,761.3906 Q23.2656,759.7344 23.2656,756.6094 Q23.2656,753.4844 24.5781,751.8281 Q25.9063,750.1719 28.4063,750.1719 Q29.1094,750.1719 29.75,750.3281 Q30.4063,750.4844 30.9688,750.7813 L30.9688,753.5 Q30.3438,752.9219 29.75,752.6563 Q29.1563,752.375 28.5313,752.375 Q27.1875,752.375 26.5,753.4531 Q25.8125,754.5156 25.8125,756.6094 Q25.8125,758.7031 26.5,759.7813 Q27.1875,760.8438 28.5313,760.8438 Q29.1563,760.8438 29.75,760.5781 Q30.3438,760.2969 30.9688,759.7188 L30.9688,762.4375 Z " fill="#000000"/><text fill="#000000" font-family="sans-serif" font-size="14" lengthAdjust="spacing" textLength="124" x="42" y="761.6436">RepositoryFactory</text><line style="stroke:#181818;stroke-width:0.5;" x1="14" x2="168" y1="772.7969" y2="772.7969"/><line style="stroke:#181818;stroke-width:0.5;" x1="14" x2="168" y1="780.7969" y2="780.7969"/></g><!--class ListJobOfferService--><g id="elem_ListJobOfferService"><rect codeLine="28" fill="#F1F1F1" height="64.2969" id="ListJobOfferService" rx="2.5" ry="2.5" style="stroke:#181818;stroke-width:0.5;" width="517" x="210.5" y="574.7969"/><ellipse cx="401.25" cy="590.7969" fill="#ADD1B2" rx="11" ry="11" style="stroke:#181818;stroke-width:1.0;"/><path d="M404.2188,596.4375 Q403.6406,596.7344 403,596.875 Q402.3594,597.0313 401.6563,597.0313 Q399.1563,597.0313 397.8281,595.3906 Q396.5156,593.7344 396.5156,590.6094 Q396.5156,587.4844 397.8281,585.8281 Q399.1563,584.1719 401.6563,584.1719 Q402.3594,584.1719 403,584.3281 Q403.6563,584.4844 404.2188,584.7813 L404.2188,587.5 Q403.5938,586.9219 403,586.6563 Q402.4063,586.375 401.7813,586.375 Q400.4375,586.375 399.75,587.4531 Q399.0625,588.5156 399.0625,590.6094 Q399.0625,592.7031 399.75,593.7813 Q400.4375,594.8438 401.7813,594.8438 Q402.4063,594.8438 403,594.5781 Q403.5938,594.2969 404.2188,593.7188 L404.2188,596.4375 Z " fill="#000000"/><text fill="#000000" font-family="sans-serif" font-size="14" lengthAdjust="spacing" textLength="127" x="421.75" y="595.6436">ListJobOfferService</text><line style="stroke:#181818;stroke-width:0.5;" x1="211.5" x2="726.5" y1="606.7969" y2="606.7969"/><line style="stroke:#181818;stroke-width:0.5;" x1="211.5" x2="726.5" y1="614.7969" y2="614.7969"/><ellipse cx="221.5" cy="628.4453" fill="#84BE84" rx="3" ry="3" style="stroke:#038048;stroke-width:1.0;"/><text fill="#000000" font-family="sans-serif" font-size="14" lengthAdjust="spacing" textLength="491" x="230.5" y="631.792">getJobOffersOfManager(SystemUser manager) : Iterable&lt;JobOfferDTO&gt;</text></g><!--class JobOfferRepository--><g id="elem_JobOfferRepository"><rect codeLine="32" fill="#F1F1F1" height="64.2969" id="JobOfferRepository" rx="2.5" ry="2.5" style="stroke:#181818;stroke-width:0.5;" width="482" x="308" y="732.7969"/><ellipse cx="480.75" cy="748.7969" fill="#ADD1B2" rx="11" ry="11" style="stroke:#181818;stroke-width:1.0;"/><path d="M483.7188,754.4375 Q483.1406,754.7344 482.5,754.875 Q481.8594,755.0313 481.1563,755.0313 Q478.6563,755.0313 477.3281,753.3906 Q476.0156,751.7344 476.0156,748.6094 Q476.0156,745.4844 477.3281,743.8281 Q478.6563,742.1719 481.1563,742.1719 Q481.8594,742.1719 482.5,742.3281 Q483.1563,742.4844 483.7188,742.7813 L483.7188,745.5 Q483.0938,744.9219 482.5,744.6563 Q481.9063,744.375 481.2813,744.375 Q479.9375,744.375 479.25,745.4531 Q478.5625,746.5156 478.5625,748.6094 Q478.5625,750.7031 479.25,751.7813 Q479.9375,752.8438 481.2813,752.8438 Q481.9063,752.8438 482.5,752.5781 Q483.0938,752.2969 483.7188,751.7188 L483.7188,754.4375 Z " fill="#000000"/><text fill="#000000" font-family="sans-serif" font-size="14" lengthAdjust="spacing" textLength="128" x="501.25" y="753.6436">JobOfferRepository</text><line style="stroke:#181818;stroke-width:0.5;" x1="309" x2="789" y1="764.7969" y2="764.7969"/><line style="stroke:#181818;stroke-width:0.5;" x1="309" x2="789" y1="772.7969" y2="772.7969"/><ellipse cx="319" cy="786.4453" fill="#84BE84" rx="3" ry="3" style="stroke:#038048;stroke-width:1.0;"/><text fill="#000000" font-family="sans-serif" font-size="14" lengthAdjust="spacing" textLength="456" x="328" y="789.792">findAllOffersOfManager(SystemUser manager) : Iterable&lt;JobOffer&gt;</text></g><!--class JobOffer--><g id="elem_JobOffer"><rect codeLine="36" fill="#F1F1F1" height="64.2969" id="JobOffer" rx="2.5" ry="2.5" style="stroke:#181818;stroke-width:0.5;" width="179" x="660.5" y="963.7969"/><ellipse cx="718.75" cy="979.7969" fill="#ADD1B2" rx="11" ry="11" style="stroke:#181818;stroke-width:1.0;"/><path d="M721.7188,985.4375 Q721.1406,985.7344 720.5,985.875 Q719.8594,986.0313 719.1563,986.0313 Q716.6563,986.0313 715.3281,984.3906 Q714.0156,982.7344 714.0156,979.6094 Q714.0156,976.4844 715.3281,974.8281 Q716.6563,973.1719 719.1563,973.1719 Q719.8594,973.1719 720.5,973.3281 Q721.1563,973.4844 721.7188,973.7813 L721.7188,976.5 Q721.0938,975.9219 720.5,975.6563 Q719.9063,975.375 719.2813,975.375 Q717.9375,975.375 717.25,976.4531 Q716.5625,977.5156 716.5625,979.6094 Q716.5625,981.7031 717.25,982.7813 Q717.9375,983.8438 719.2813,983.8438 Q719.9063,983.8438 720.5,983.5781 Q721.0938,983.2969 721.7188,982.7188 L721.7188,985.4375 Z " fill="#000000"/><text fill="#000000" font-family="sans-serif" font-size="14" lengthAdjust="spacing" textLength="54" x="739.25" y="984.6436">JobOffer</text><line style="stroke:#181818;stroke-width:0.5;" x1="661.5" x2="838.5" y1="995.7969" y2="995.7969"/><line style="stroke:#181818;stroke-width:0.5;" x1="661.5" x2="838.5" y1="1003.7969" y2="1003.7969"/><ellipse cx="671.5" cy="1017.4453" fill="#84BE84" rx="3" ry="3" style="stroke:#038048;stroke-width:1.0;"/><text fill="#000000" font-family="sans-serif" font-size="14" lengthAdjust="spacing" textLength="153" x="680.5" y="1020.792">toDTO() : JobOfferDTO</text></g><!--class ListJobApplicationService--><g id="elem_ListJobApplicationService"><rect codeLine="40" fill="#F1F1F1" height="80.5938" id="ListJobApplicationService" rx="2.5" ry="2.5" style="stroke:#181818;stroke-width:0.5;" width="500" x="1229" y="566.2969"/><ellipse cx="1390.25" cy="582.2969" fill="#ADD1B2" rx="11" ry="11" style="stroke:#181818;stroke-width:1.0;"/><path d="M1393.2188,587.9375 Q1392.6406,588.2344 1392,588.375 Q1391.3594,588.5313 1390.6563,588.5313 Q1388.1563,588.5313 1386.8281,586.8906 Q1385.5156,585.2344 1385.5156,582.1094 Q1385.5156,578.9844 1386.8281,577.3281 Q1388.1563,575.6719 1390.6563,575.6719 Q1391.3594,575.6719 1392,575.8281 Q1392.6563,575.9844 1393.2188,576.2813 L1393.2188,579 Q1392.5938,578.4219 1392,578.1563 Q1391.4063,577.875 1390.7813,577.875 Q1389.4375,577.875 1388.75,578.9531 Q1388.0625,580.0156 1388.0625,582.1094 Q1388.0625,584.2031 1388.75,585.2813 Q1389.4375,586.3438 1390.7813,586.3438 Q1391.4063,586.3438 1392,586.0781 Q1392.5938,585.7969 1393.2188,585.2188 L1393.2188,587.9375 Z " fill="#000000"/><text fill="#000000" font-family="sans-serif" font-size="14" lengthAdjust="spacing" textLength="169" x="1410.75" y="587.1436">ListJobApplicationService</text><line style="stroke:#181818;stroke-width:0.5;" x1="1230" x2="1728" y1="598.2969" y2="598.2969"/><line style="stroke:#181818;stroke-width:0.5;" x1="1230" x2="1728" y1="606.2969" y2="606.2969"/><ellipse cx="1240" cy="619.9453" fill="#84BE84" rx="3" ry="3" style="stroke:#038048;stroke-width:1.0;"/><text fill="#000000" font-family="sans-serif" font-size="14" lengthAdjust="spacing" textLength="474" x="1249" y="623.292">getJobApplications(JobRefCode jobCode) : Iterable&lt;ApplicationDTO&gt;</text><ellipse cx="1240" cy="636.2422" fill="#84BE84" rx="3" ry="3" style="stroke:#038048;stroke-width:1.0;"/><text fill="#000000" font-family="sans-serif" font-size="14" lengthAdjust="spacing" textLength="405" x="1249" y="639.5889">findByRef(JobRefCode refCode) : Optional&lt;JobApplication&gt;</text></g><!--class JobApplicationManagementService--><g id="elem_JobApplicationManagementService"><rect codeLine="45" fill="#F1F1F1" height="80.5938" id="JobApplicationManagementService" rx="2.5" ry="2.5" style="stroke:#181818;stroke-width:0.5;" width="431" x="762.5" y="566.2969"/><ellipse cx="855.25" cy="582.2969" fill="#ADD1B2" rx="11" ry="11" style="stroke:#181818;stroke-width:1.0;"/><path d="M858.2188,587.9375 Q857.6406,588.2344 857,588.375 Q856.3594,588.5313 855.6563,588.5313 Q853.1563,588.5313 851.8281,586.8906 Q850.5156,585.2344 850.5156,582.1094 Q850.5156,578.9844 851.8281,577.3281 Q853.1563,575.6719 855.6563,575.6719 Q856.3594,575.6719 857,575.8281 Q857.6563,575.9844 858.2188,576.2813 L858.2188,579 Q857.5938,578.4219 857,578.1563 Q856.4063,577.875 855.7813,577.875 Q854.4375,577.875 853.75,578.9531 Q853.0625,580.0156 853.0625,582.1094 Q853.0625,584.2031 853.75,585.2813 Q854.4375,586.3438 855.7813,586.3438 Q856.4063,586.3438 857,586.0781 Q857.5938,585.7969 858.2188,585.2188 L858.2188,587.9375 Z " fill="#000000"/><text fill="#000000" font-family="sans-serif" font-size="14" lengthAdjust="spacing" textLength="237" x="875.75" y="587.1436">JobApplicationManagementService</text><line style="stroke:#181818;stroke-width:0.5;" x1="763.5" x2="1192.5" y1="598.2969" y2="598.2969"/><line style="stroke:#181818;stroke-width:0.5;" x1="763.5" x2="1192.5" y1="606.2969" y2="606.2969"/><ellipse cx="773.5" cy="619.9453" fill="#84BE84" rx="3" ry="3" style="stroke:#038048;stroke-width:1.0;"/><text fill="#000000" font-family="sans-serif" font-size="14" lengthAdjust="spacing" textLength="405" x="782.5" y="623.292">findByRef(JobRefCode refCode) : Optional&lt;JobApplication&gt;</text><ellipse cx="773.5" cy="636.2422" fill="#84BE84" rx="3" ry="3" style="stroke:#038048;stroke-width:1.0;"/><text fill="#000000" font-family="sans-serif" font-size="14" lengthAdjust="spacing" textLength="397" x="782.5" y="639.5889">saveResponses(JobApplication application, String filePath)</text></g><!--class JobApplicationRepository--><g id="elem_JobApplicationRepository"><rect codeLine="50" fill="#F1F1F1" height="64.2969" id="JobApplicationRepository" rx="2.5" ry="2.5" style="stroke:#181818;stroke-width:0.5;" width="486" x="825" y="732.7969"/><ellipse cx="978.75" cy="748.7969" fill="#ADD1B2" rx="11" ry="11" style="stroke:#181818;stroke-width:1.0;"/><path d="M981.7188,754.4375 Q981.1406,754.7344 980.5,754.875 Q979.8594,755.0313 979.1563,755.0313 Q976.6563,755.0313 975.3281,753.3906 Q974.0156,751.7344 974.0156,748.6094 Q974.0156,745.4844 975.3281,743.8281 Q976.6563,742.1719 979.1563,742.1719 Q979.8594,742.1719 980.5,742.3281 Q981.1563,742.4844 981.7188,742.7813 L981.7188,745.5 Q981.0938,744.9219 980.5,744.6563 Q979.9063,744.375 979.2813,744.375 Q977.9375,744.375 977.25,745.4531 Q976.5625,746.5156 976.5625,748.6094 Q976.5625,750.7031 977.25,751.7813 Q977.9375,752.8438 979.2813,752.8438 Q979.9063,752.8438 980.5,752.5781 Q981.0938,752.2969 981.7188,751.7188 L981.7188,754.4375 Z " fill="#000000"/><text fill="#000000" font-family="sans-serif" font-size="14" lengthAdjust="spacing" textLength="170" x="999.25" y="753.6436">JobApplicationRepository</text><line style="stroke:#181818;stroke-width:0.5;" x1="826" x2="1310" y1="764.7969" y2="764.7969"/><line style="stroke:#181818;stroke-width:0.5;" x1="826" x2="1310" y1="772.7969" y2="772.7969"/><ellipse cx="836" cy="786.4453" fill="#84BE84" rx="3" ry="3" style="stroke:#038048;stroke-width:1.0;"/><text fill="#000000" font-family="sans-serif" font-size="14" lengthAdjust="spacing" textLength="460" x="845" y="789.792">findApplicationsOfJobOffer(JobOffer offer) : Iterable&lt;JobApplication&gt;</text></g><!--class JobApplication--><g id="elem_JobApplication"><rect codeLine="54" fill="#F1F1F1" height="80.5938" id="JobApplication" rx="2.5" ry="2.5" style="stroke:#181818;stroke-width:0.5;" width="200" x="1346" y="724.2969"/><ellipse cx="1393.75" cy="740.2969" fill="#ADD1B2" rx="11" ry="11" style="stroke:#181818;stroke-width:1.0;"/><path d="M1396.7188,745.9375 Q1396.1406,746.2344 1395.5,746.375 Q1394.8594,746.5313 1394.1563,746.5313 Q1391.6563,746.5313 1390.3281,744.8906 Q1389.0156,743.2344 1389.0156,740.1094 Q1389.0156,736.9844 1390.3281,735.3281 Q1391.6563,733.6719 1394.1563,733.6719 Q1394.8594,733.6719 1395.5,733.8281 Q1396.1563,733.9844 1396.7188,734.2813 L1396.7188,737 Q1396.0938,736.4219 1395.5,736.1563 Q1394.9063,735.875 1394.2813,735.875 Q1392.9375,735.875 1392.25,736.9531 Q1391.5625,738.0156 1391.5625,740.1094 Q1391.5625,742.2031 1392.25,743.2813 Q1392.9375,744.3438 1394.2813,744.3438 Q1394.9063,744.3438 1395.5,744.0781 Q1396.0938,743.7969 1396.7188,743.2188 L1396.7188,745.9375 Z " fill="#000000"/><text fill="#000000" font-family="sans-serif" font-size="14" lengthAdjust="spacing" textLength="96" x="1414.25" y="745.1436">JobApplication</text><line style="stroke:#181818;stroke-width:0.5;" x1="1347" x2="1545" y1="756.2969" y2="756.2969"/><line style="stroke:#181818;stroke-width:0.5;" x1="1347" x2="1545" y1="764.2969" y2="764.2969"/><ellipse cx="1357" cy="777.9453" fill="#84BE84" rx="3" ry="3" style="stroke:#038048;stroke-width:1.0;"/><text fill="#000000" font-family="sans-serif" font-size="14" lengthAdjust="spacing" textLength="174" x="1366" y="781.292">toDTO() : ApplicationDTO</text><ellipse cx="1357" cy="794.2422" fill="#84BE84" rx="3" ry="3" style="stroke:#038048;stroke-width:1.0;"/><text fill="#000000" font-family="sans-serif" font-size="14" lengthAdjust="spacing" textLength="145" x="1366" y="797.5889">addFileRef(String file)</text></g><!--class PluginHandlerService--><g id="elem_PluginHandlerService"><rect codeLine="59" fill="#F1F1F1" height="64.2969" id="PluginHandlerService" rx="2.5" ry="2.5" style="stroke:#181818;stroke-width:0.5;" width="370" x="1764" y="574.7969"/><ellipse cx="1872.25" cy="590.7969" fill="#ADD1B2" rx="11" ry="11" style="stroke:#181818;stroke-width:1.0;"/><path d="M1875.2188,596.4375 Q1874.6406,596.7344 1874,596.875 Q1873.3594,597.0313 1872.6563,597.0313 Q1870.1563,597.0313 1868.8281,595.3906 Q1867.5156,593.7344 1867.5156,590.6094 Q1867.5156,587.4844 1868.8281,585.8281 Q1870.1563,584.1719 1872.6563,584.1719 Q1873.3594,584.1719 1874,584.3281 Q1874.6563,584.4844 1875.2188,584.7813 L1875.2188,587.5 Q1874.5938,586.9219 1874,586.6563 Q1873.4063,586.375 1872.7813,586.375 Q1871.4375,586.375 1870.75,587.4531 Q1870.0625,588.5156 1870.0625,590.6094 Q1870.0625,592.7031 1870.75,593.7813 Q1871.4375,594.8438 1872.7813,594.8438 Q1873.4063,594.8438 1874,594.5781 Q1874.5938,594.2969 1875.2188,593.7188 L1875.2188,596.4375 Z " fill="#000000"/><text fill="#000000" font-family="sans-serif" font-size="14" lengthAdjust="spacing" textLength="145" x="1892.75" y="595.6436">PluginHandlerService</text><line style="stroke:#181818;stroke-width:0.5;" x1="1765" x2="2133" y1="606.7969" y2="606.7969"/><line style="stroke:#181818;stroke-width:0.5;" x1="1765" x2="2133" y1="614.7969" y2="614.7969"/><ellipse cx="1775" cy="628.4453" fill="#84BE84" rx="3" ry="3" style="stroke:#038048;stroke-width:1.0;"/><text fill="#000000" font-family="sans-serif" font-size="14" lengthAdjust="spacing" textLength="344" x="1784" y="631.792">activateCheckerFunction(String filePath) : boolean</text></g><!--class ImportFileService--><g id="elem_ImportFileService"><rect codeLine="63" fill="#F1F1F1" height="80.5938" id="ImportFileService" rx="2.5" ry="2.5" style="stroke:#181818;stroke-width:0.5;" width="395" x="2169.5" y="566.2969"/><ellipse cx="2304.25" cy="582.2969" fill="#ADD1B2" rx="11" ry="11" style="stroke:#181818;stroke-width:1.0;"/><path d="M2307.2188,587.9375 Q2306.6406,588.2344 2306,588.375 Q2305.3594,588.5313 2304.6563,588.5313 Q2302.1563,588.5313 2300.8281,586.8906 Q2299.5156,585.2344 2299.5156,582.1094 Q2299.5156,578.9844 2300.8281,577.3281 Q2302.1563,575.6719 2304.6563,575.6719 Q2305.3594,575.6719 2306,575.8281 Q2306.6563,575.9844 2307.2188,576.2813 L2307.2188,579 Q2306.5938,578.4219 2306,578.1563 Q2305.4063,577.875 2304.7813,577.875 Q2303.4375,577.875 2302.75,578.9531 Q2302.0625,580.0156 2302.0625,582.1094 Q2302.0625,584.2031 2302.75,585.2813 Q2303.4375,586.3438 2304.7813,586.3438 Q2305.4063,586.3438 2306,586.0781 Q2306.5938,585.7969 2307.2188,585.2188 L2307.2188,587.9375 Z " fill="#000000"/><text fill="#000000" font-family="sans-serif" font-size="14" lengthAdjust="spacing" textLength="117" x="2324.75" y="587.1436">ImportFileService</text><line style="stroke:#181818;stroke-width:0.5;" x1="2170.5" x2="2563.5" y1="598.2969" y2="598.2969"/><line style="stroke:#181818;stroke-width:0.5;" x1="2170.5" x2="2563.5" y1="606.2969" y2="606.2969"/><ellipse cx="2180.5" cy="619.9453" fill="#84BE84" rx="3" ry="3" style="stroke:#038048;stroke-width:1.0;"/><text fill="#000000" font-family="sans-serif" font-size="14" lengthAdjust="spacing" textLength="369" x="2189.5" y="623.292">importApplicantAnswers(String srcFile, String dstPath)</text><ellipse cx="2180.5" cy="636.2422" fill="#84BE84" rx="3" ry="3" style="stroke:#038048;stroke-width:1.0;"/><text fill="#000000" font-family="sans-serif" font-size="14" lengthAdjust="spacing" textLength="231" x="2189.5" y="639.5889">removeFile(String path, String file)</text></g><!--class RegisteredPlugin--><g id="elem_RegisteredPlugin"><rect codeLine="68" fill="#F1F1F1" height="48" id="RegisteredPlugin" rx="2.5" ry="2.5" style="stroke:#181818;stroke-width:0.5;" width="150" x="572" y="1259.7969"/><ellipse cx="587" cy="1275.7969" fill="#ADD1B2" rx="11" ry="11" style="stroke:#181818;stroke-width:1.0;"/><path d="M589.9688,1281.4375 Q589.3906,1281.7344 588.75,1281.875 Q588.1094,1282.0313 587.4063,1282.0313 Q584.9063,1282.0313 583.5781,1280.3906 Q582.2656,1278.7344 582.2656,1275.6094 Q582.2656,1272.4844 583.5781,1270.8281 Q584.9063,1269.1719 587.4063,1269.1719 Q588.1094,1269.1719 588.75,1269.3281 Q589.4063,1269.4844 589.9688,1269.7813 L589.9688,1272.5 Q589.3438,1271.9219 588.75,1271.6563 Q588.1563,1271.375 587.5313,1271.375 Q586.1875,1271.375 585.5,1272.4531 Q584.8125,1273.5156 584.8125,1275.6094 Q584.8125,1277.7031 585.5,1278.7813 Q586.1875,1279.8438 587.5313,1279.8438 Q588.1563,1279.8438 588.75,1279.5781 Q589.3438,1279.2969 589.9688,1278.7188 L589.9688,1281.4375 Z " fill="#000000"/><text fill="#000000" font-family="sans-serif" font-size="14" lengthAdjust="spacing" textLength="118" x="601" y="1280.6436">RegisteredPlugin</text><line style="stroke:#181818;stroke-width:0.5;" x1="573" x2="721" y1="1291.7969" y2="1291.7969"/><line style="stroke:#181818;stroke-width:0.5;" x1="573" x2="721" y1="1299.7969" y2="1299.7969"/></g><!--class ApplicationDTO--><g id="elem_ApplicationDTO"><rect codeLine="70" fill="#F1F1F1" height="227.2656" id="ApplicationDTO" rx="2.5" ry="2.5" style="stroke:#181818;stroke-width:0.5;" width="154" x="1369" y="882.2969"/><ellipse cx="1391.2" cy="898.2969" fill="#ADD1B2" rx="11" ry="11" style="stroke:#181818;stroke-width:1.0;"/><path d="M1394.1688,903.9375 Q1393.5906,904.2344 1392.95,904.375 Q1392.3094,904.5313 1391.6063,904.5313 Q1389.1063,904.5313 1387.7781,902.8906 Q1386.4656,901.2344 1386.4656,898.1094 Q1386.4656,894.9844 1387.7781,893.3281 Q1389.1063,891.6719 1391.6063,891.6719 Q1392.3094,891.6719 1392.95,891.8281 Q1393.6063,891.9844 1394.1688,892.2813 L1394.1688,895 Q1393.5438,894.4219 1392.95,894.1563 Q1392.3563,893.875 1391.7313,893.875 Q1390.3875,893.875 1389.7,894.9531 Q1389.0125,896.0156 1389.0125,898.1094 Q1389.0125,900.2031 1389.7,901.2813 Q1390.3875,902.3438 1391.7313,902.3438 Q1392.3563,902.3438 1392.95,902.0781 Q1393.5438,901.7969 1394.1688,901.2188 L1394.1688,903.9375 Z " fill="#000000"/><text fill="#000000" font-family="sans-serif" font-size="14" lengthAdjust="spacing" textLength="106" x="1406.8" y="903.1436">ApplicationDTO</text><line style="stroke:#181818;stroke-width:0.5;" x1="1370" x2="1522" y1="914.2969" y2="914.2969"/><rect fill="none" height="6" style="stroke:#C82930;stroke-width:1.0;" width="6" x="1377" y="924.9453"/><text fill="#000000" font-family="sans-serif" font-size="14" lengthAdjust="spacing" textLength="80" x="1389" y="931.292">String email</text><rect fill="none" height="6" style="stroke:#C82930;stroke-width:1.0;" width="6" x="1377" y="941.2422"/><text fill="#000000" font-family="sans-serif" font-size="14" lengthAdjust="spacing" textLength="102" x="1389" y="947.5889">String filesPath</text><rect fill="none" height="6" style="stroke:#C82930;stroke-width:1.0;" width="6" x="1377" y="957.5391"/><text fill="#000000" font-family="sans-serif" font-size="14" lengthAdjust="spacing" textLength="128" x="1389" y="963.8857">String attachedFile</text><rect fill="none" height="6" style="stroke:#C82930;stroke-width:1.0;" width="6" x="1377" y="973.8359"/><text fill="#000000" font-family="sans-serif" font-size="14" lengthAdjust="spacing" textLength="102" x="1389" y="980.1826">int jobRefCode</text><rect fill="none" height="6" style="stroke:#C82930;stroke-width:1.0;" width="6" x="1377" y="990.1328"/><text fill="#000000" font-family="sans-serif" font-size="14" lengthAdjust="spacing" textLength="112" x="1389" y="996.4795">String candidate</text><line style="stroke:#181818;stroke-width:0.5;" x1="1370" x2="1522" y1="1003.7813" y2="1003.7813"/><ellipse cx="1380" cy="1017.4297" fill="#84BE84" rx="3" ry="3" style="stroke:#038048;stroke-width:1.0;"/><text fill="#000000" font-family="sans-serif" font-size="14" lengthAdjust="spacing" textLength="64" x="1389" y="1020.7764">toString()</text><ellipse cx="1380" cy="1033.7266" fill="#84BE84" rx="3" ry="3" style="stroke:#038048;stroke-width:1.0;"/><text fill="#000000" font-family="sans-serif" font-size="14" lengthAdjust="spacing" textLength="69" x="1389" y="1037.0732">getEmail()</text><ellipse cx="1380" cy="1050.0234" fill="#84BE84" rx="3" ry="3" style="stroke:#038048;stroke-width:1.0;"/><text fill="#000000" font-family="sans-serif" font-size="14" lengthAdjust="spacing" textLength="95" x="1389" y="1053.3701">getFilesPath()</text><ellipse cx="1380" cy="1066.3203" fill="#84BE84" rx="3" ry="3" style="stroke:#038048;stroke-width:1.0;"/><text fill="#000000" font-family="sans-serif" font-size="14" lengthAdjust="spacing" textLength="118" x="1389" y="1069.667">getAttachedFile()</text><ellipse cx="1380" cy="1082.6172" fill="#84BE84" rx="3" ry="3" style="stroke:#038048;stroke-width:1.0;"/><text fill="#000000" font-family="sans-serif" font-size="14" lengthAdjust="spacing" textLength="114" x="1389" y="1085.9639">getJobRefCode()</text><ellipse cx="1380" cy="1098.9141" fill="#84BE84" rx="3" ry="3" style="stroke:#038048;stroke-width:1.0;"/><text fill="#000000" font-family="sans-serif" font-size="14" lengthAdjust="spacing" textLength="103" x="1389" y="1102.2607">getCandidate()</text></g><!--class JobOfferDTO--><g id="elem_JobOfferDTO"><rect codeLine="84" fill="#F1F1F1" height="194.6719" id="JobOfferDTO" rx="2.5" ry="2.5" style="stroke:#181818;stroke-width:0.5;" width="194" x="757" y="1186.2969"/><ellipse cx="807.25" cy="1202.2969" fill="#ADD1B2" rx="11" ry="11" style="stroke:#181818;stroke-width:1.0;"/><path d="M810.2188,1207.9375 Q809.6406,1208.2344 809,1208.375 Q808.3594,1208.5313 807.6563,1208.5313 Q805.1563,1208.5313 803.8281,1206.8906 Q802.5156,1205.2344 802.5156,1202.1094 Q802.5156,1198.9844 803.8281,1197.3281 Q805.1563,1195.6719 807.6563,1195.6719 Q808.3594,1195.6719 809,1195.8281 Q809.6563,1195.9844 810.2188,1196.2813 L810.2188,1199 Q809.5938,1198.4219 809,1198.1563 Q808.4063,1197.875 807.7813,1197.875 Q806.4375,1197.875 805.75,1198.9531 Q805.0625,1200.0156 805.0625,1202.1094 Q805.0625,1204.2031 805.75,1205.2813 Q806.4375,1206.3438 807.7813,1206.3438 Q808.4063,1206.3438 809,1206.0781 Q809.5938,1205.7969 810.2188,1205.2188 L810.2188,1207.9375 Z " fill="#000000"/><text fill="#000000" font-family="sans-serif" font-size="14" lengthAdjust="spacing" textLength="85" x="827.75" y="1207.1436">JobOfferDTO</text><line style="stroke:#181818;stroke-width:0.5;" x1="758" x2="950" y1="1218.2969" y2="1218.2969"/><rect fill="none" height="6" style="stroke:#C82930;stroke-width:1.0;" width="6" x="765" y="1228.9453"/><text fill="#000000" font-family="sans-serif" font-size="14" lengthAdjust="spacing" textLength="99" x="777" y="1235.292">String refCode</text><rect fill="none" height="6" style="stroke:#C82930;stroke-width:1.0;" width="6" x="765" y="1245.2422"/><text fill="#000000" font-family="sans-serif" font-size="14" lengthAdjust="spacing" textLength="69" x="777" y="1251.5889">String title</text><rect fill="none" height="6" style="stroke:#C82930;stroke-width:1.0;" width="6" x="765" y="1261.5391"/><text fill="#000000" font-family="sans-serif" font-size="14" lengthAdjust="spacing" textLength="104" x="777" y="1267.8857">String jobMode</text><rect fill="none" height="6" style="stroke:#C82930;stroke-width:1.0;" width="6" x="765" y="1277.8359"/><text fill="#000000" font-family="sans-serif" font-size="14" lengthAdjust="spacing" textLength="168" x="777" y="1284.1826">String numberVacancies</text><line style="stroke:#181818;stroke-width:0.5;" x1="758" x2="950" y1="1291.4844" y2="1291.4844"/><ellipse cx="768" cy="1305.1328" fill="#84BE84" rx="3" ry="3" style="stroke:#038048;stroke-width:1.0;"/><text fill="#000000" font-family="sans-serif" font-size="14" lengthAdjust="spacing" textLength="64" x="777" y="1308.4795">toString()</text><ellipse cx="768" cy="1321.4297" fill="#84BE84" rx="3" ry="3" style="stroke:#038048;stroke-width:1.0;"/><text fill="#000000" font-family="sans-serif" font-size="14" lengthAdjust="spacing" textLength="93" x="777" y="1324.7764">getRefCode()</text><ellipse cx="768" cy="1337.7266" fill="#84BE84" rx="3" ry="3" style="stroke:#038048;stroke-width:1.0;"/><text fill="#000000" font-family="sans-serif" font-size="14" lengthAdjust="spacing" textLength="62" x="777" y="1341.0732">getTitle()</text><ellipse cx="768" cy="1354.0234" fill="#84BE84" rx="3" ry="3" style="stroke:#038048;stroke-width:1.0;"/><text fill="#000000" font-family="sans-serif" font-size="14" lengthAdjust="spacing" textLength="93" x="777" y="1357.3701">getJobMode()</text><ellipse cx="768" cy="1370.3203" fill="#84BE84" rx="3" ry="3" style="stroke:#038048;stroke-width:1.0;"/><text fill="#000000" font-family="sans-serif" font-size="14" lengthAdjust="spacing" textLength="158" x="777" y="1373.667">getNumberVacancies()</text></g><!--link MainMenu to SaveResponsesUI--><g id="link_MainMenu_SaveResponsesUI"><path codeLine="96" d="M1291,92.4169 C1291,113.7169 1291,139.4969 1291,163.0569 " fill="none" id="MainMenu-to-SaveResponsesUI" style="stroke:#181818;stroke-width:1.0;stroke-dasharray:7.0,7.0;"/><polygon fill="#181818" points="1291,169.0569,1295,160.0569,1291,164.0569,1287,160.0569,1291,169.0569" style="stroke:#181818;stroke-width:1.0;"/><text fill="#000000" font-family="sans-serif" font-size="13" lengthAdjust="spacing" textLength="42" x="1292" y="135.3638">show()</text></g><!--link SaveResponsesUI to SaveResponsesController--><g id="link_SaveResponsesUI_SaveResponsesController"><path codeLine="97" d="M1291,233.3569 C1291,254.0269 1291,276.4069 1291,304.2169 " fill="none" id="SaveResponsesUI-to-SaveResponsesController" style="stroke:#181818;stroke-width:1.0;stroke-dasharray:7.0,7.0;"/><polygon fill="#181818" points="1291,310.2169,1295,301.2169,1291,305.2169,1287,301.2169,1291,310.2169" style="stroke:#181818;stroke-width:1.0;"/><text fill="#000000" font-family="sans-serif" font-size="13" lengthAdjust="spacing" textLength="51" x="1292" y="276.3638">create()</text></g><!--link SaveResponsesController to PersistenceContext--><g id="link_SaveResponsesController_PersistenceContext"><path codeLine="98" d="M1036.74,428.7769 C812.09,450.3169 476.99,491.9769 193,566.2969 C176.65,570.5769 164.9282,574.4724 149.2982,580.5824 " fill="none" id="SaveResponsesController-to-PersistenceContext" style="stroke:#181818;stroke-width:1.0;stroke-dasharray:7.0,7.0;"/><polygon fill="#181818" points="143.71,582.7669,153.5486,583.2156,148.3668,580.9465,150.636,575.7646,143.71,582.7669" style="stroke:#181818;stroke-width:1.0;"/></g><!--link SaveResponsesController to ListJobOfferService--><g id="link_SaveResponsesController_ListJobOfferService"><path codeLine="99" d="M1036.82,469.7169 C891.58,504.5169 721.4348,545.2987 604.2548,573.3787 " fill="none" id="SaveResponsesController-to-ListJobOfferService" style="stroke:#181818;stroke-width:1.0;stroke-dasharray:7.0,7.0;"/><polygon fill="#181818" points="598.42,574.7769,608.1044,576.5694,603.2823,573.6117,606.2401,568.7897,598.42,574.7769" style="stroke:#181818;stroke-width:1.0;"/></g><!--link SaveResponsesController to PluginHandlerService--><g id="link_SaveResponsesController_PluginHandlerService"><path codeLine="100" d="M1545.4,484.9669 C1649.73,516.1969 1758.882,548.8762 1839.322,572.9562 " fill="none" id="SaveResponsesController-to-PluginHandlerService" style="stroke:#181818;stroke-width:1.0;stroke-dasharray:7.0,7.0;"/><polygon fill="#181818" points="1845.07,574.6769,1837.5951,568.2639,1840.28,573.243,1835.3009,575.9278,1845.07,574.6769" style="stroke:#181818;stroke-width:1.0;"/></g><!--link SaveResponsesController to ListJobApplicationService--><g id="link_SaveResponsesController_ListJobApplicationService"><path codeLine="101" d="M1383.35,505.5669 C1403.78,526.9769 1420.1673,544.1466 1436.9473,561.7266 " fill="none" id="SaveResponsesController-to-ListJobApplicationService" style="stroke:#181818;stroke-width:1.0;stroke-dasharray:7.0,7.0;"/><polygon fill="#181818" points="1441.09,566.0669,1437.7694,556.7947,1437.6377,562.45,1431.9824,562.3183,1441.09,566.0669" style="stroke:#181818;stroke-width:1.0;"/></g><!--link SaveResponsesController to JobApplicationManagementService--><g id="link_SaveResponsesController_JobApplicationManagementService"><path codeLine="102" d="M1137.25,505.5669 C1103.24,526.9769 1074.1279,545.2907 1046.1979,562.8707 " fill="none" id="SaveResponsesController-to-JobApplicationManagementService" style="stroke:#181818;stroke-width:1.0;stroke-dasharray:7.0,7.0;"/><polygon fill="#181818" points="1041.12,566.0669,1050.8675,564.6579,1045.3515,563.4034,1046.606,557.8874,1041.12,566.0669" style="stroke:#181818;stroke-width:1.0;"/></g><!--link SaveResponsesController to ImportFileService--><g id="link_SaveResponsesController_ImportFileService"><path codeLine="103" d="M1545.32,455.3569 C1736.24,490.3169 1988.0181,536.4061 2163.5781,568.5561 " fill="none" id="SaveResponsesController-to-ImportFileService" style="stroke:#181818;stroke-width:1.0;stroke-dasharray:7.0,7.0;"/><polygon fill="#181818" points="2169.48,569.6369,2161.3478,564.0811,2164.5618,568.7362,2159.9067,571.9502,2169.48,569.6369" style="stroke:#181818;stroke-width:1.0;"/></g><!--link PersistenceContext to RepositoryFactory--><g id="link_PersistenceContext_RepositoryFactory"><path codeLine="104" d="M91,630.8169 C91,660.3069 91,705.1469 91,734.6869 " fill="none" id="PersistenceContext-to-RepositoryFactory" style="stroke:#181818;stroke-width:1.0;stroke-dasharray:7.0,7.0;"/><polygon fill="#181818" points="91,740.6869,95,731.6869,91,735.6869,87,731.6869,91,740.6869" style="stroke:#181818;stroke-width:1.0;"/><text fill="#000000" font-family="sans-serif" font-size="13" lengthAdjust="spacing" textLength="51" x="92" y="690.3638">create()</text></g><!--link ListJobOfferService to JobOfferRepository--><g id="link_ListJobOfferService_JobOfferRepository"><path codeLine="105" d="M485,638.9869 C498.95,666.1969 516.3527,700.1277 530.2927,727.3177 " fill="none" id="ListJobOfferService-to-JobOfferRepository" style="stroke:#181818;stroke-width:1.0;stroke-dasharray:7.0,7.0;"/><polygon fill="#181818" points="533.03,732.6569,532.4834,722.8232,530.7489,728.2075,525.3645,726.473,533.03,732.6569" style="stroke:#181818;stroke-width:1.0;"/></g><!--link ListJobOfferService to JobOffer--><g id="link_ListJobOfferService_JobOffer"><path codeLine="106" d="M388.15,638.8569 C351.19,657.6069 311.03,685.5069 290,724.2969 C272.84,755.9469 269.97,775.3869 290,805.2969 C372.53,928.5569 545.4267,970.9041 654.2067,985.9641 " fill="none" id="ListJobOfferService-to-JobOffer" style="stroke:#181818;stroke-width:1.0;stroke-dasharray:7.0,7.0;"/><polygon fill="#181818" points="660.15,986.7869,651.7836,981.5904,655.1972,986.1012,650.6865,989.5149,660.15,986.7869" style="stroke:#181818;stroke-width:1.0;"/></g><!--link JobOffer to JobOfferDTO--><g id="link_JobOffer_JobOfferDTO"><path codeLine="107" d="M761.33,1027.9469 C775.04,1065.6669 796.7397,1125.3281 816.7597,1180.3881 " fill="none" id="JobOffer-to-JobOfferDTO" style="stroke:#181818;stroke-width:1.0;stroke-dasharray:7.0,7.0;"/><polygon fill="#181818" points="818.81,1186.0269,819.4938,1176.2018,817.1014,1181.3279,811.9753,1178.9355,818.81,1186.0269" style="stroke:#181818;stroke-width:1.0;"/><text fill="#000000" font-family="sans-serif" font-size="13" lengthAdjust="spacing" textLength="41" x="807" y="1152.3638">create</text></g><!--link JobOffer to RegisteredPlugin--><g id="link_JobOffer_RegisteredPlugin"><path codeLine="108" d="M738.78,1027.9469 C717.98,1085.7169 675.8929,1202.5718 657.4329,1253.8318 " fill="none" id="JobOffer-to-RegisteredPlugin" style="stroke:#181818;stroke-width:1.0;stroke-dasharray:7.0,7.0;"/><polygon fill="#181818" points="655.4,1259.4769,662.2128,1252.3645,657.0941,1254.7726,654.686,1249.6539,655.4,1259.4769" style="stroke:#181818;stroke-width:1.0;"/></g><!--link ListJobApplicationService to JobApplicationRepository--><g id="link_ListJobApplicationService_JobApplicationRepository"><path codeLine="109" d="M1374.76,647.3669 C1304.96,673.8569 1219.9895,706.1077 1155.3895,730.6277 " fill="none" id="ListJobApplicationService-to-JobApplicationRepository" style="stroke:#181818;stroke-width:1.0;stroke-dasharray:7.0,7.0;"/><polygon fill="#181818" points="1149.78,732.7569,1159.6137,733.3028,1154.4546,730.9826,1156.7748,725.8234,1149.78,732.7569" style="stroke:#181818;stroke-width:1.0;"/></g><!--link ListJobApplicationService to JobApplication--><g id="link_ListJobApplicationService_JobApplication"><path codeLine="110" d="M1470.59,647.5669 C1465.62,671.0369 1460.6016,694.7767 1455.6416,718.2267 " fill="none" id="ListJobApplicationService-to-JobApplication" style="stroke:#181818;stroke-width:1.0;stroke-dasharray:7.0,7.0;"/><polygon fill="#181818" points="1454.4,724.0969,1460.1758,716.1194,1455.4347,719.2051,1452.349,714.4639,1454.4,724.0969" style="stroke:#181818;stroke-width:1.0;"/></g><!--link JobApplication to ApplicationDTO--><g id="link_JobApplication_ApplicationDTO"><path codeLine="111" d="M1446,805.4269 C1446,826.8069 1446,848.3769 1446,875.8469 " fill="none" id="JobApplication-to-ApplicationDTO" style="stroke:#181818;stroke-width:1.0;stroke-dasharray:7.0,7.0;"/><polygon fill="#181818" points="1446,881.8469,1450,872.8469,1446,876.8469,1442,872.8469,1446,881.8469" style="stroke:#181818;stroke-width:1.0;"/><text fill="#000000" font-family="sans-serif" font-size="13" lengthAdjust="spacing" textLength="41" x="1447" y="848.3638">create</text></g><!--link JobApplication to JobOffer--><g id="link_JobApplication_JobOffer"><path codeLine="112" d="M1345.91,799.3469 C1339.85,801.3669 1333.84,803.3569 1328,805.2969 C1155.33,862.5069 959.0443,926.6566 845.3743,963.7266 " fill="none" id="JobApplication-to-JobOffer" style="stroke:#181818;stroke-width:1.0;stroke-dasharray:7.0,7.0;"/><polygon fill="#181818" points="839.67,965.5869,849.4667,966.5993,844.4236,964.0366,846.9863,958.9936,839.67,965.5869" style="stroke:#181818;stroke-width:1.0;"/></g><!--link JobApplicationManagementService to JobApplicationRepository--><g id="link_JobApplicationManagementService_JobApplicationRepository"><path codeLine="113" d="M1000.94,647.5669 C1016.2,674.0169 1032.961,703.0602 1047.071,727.5102 " fill="none" id="JobApplicationManagementService-to-JobApplicationRepository" style="stroke:#181818;stroke-width:1.0;stroke-dasharray:7.0,7.0;"/><polygon fill="#181818" points="1050.07,732.7069,1049.036,722.9124,1047.5708,728.3763,1042.107,726.9111,1050.07,732.7069" style="stroke:#181818;stroke-width:1.0;"/></g><!--link JobApplicationManagementService to JobApplication--><g id="link_JobApplicationManagementService_JobApplication"><path codeLine="114" d="M1097.08,647.3769 C1164.79,669.8969 1251.16,698.6469 1328,724.2969 C1333.84,726.2469 1334.1507,726.3411 1340.2107,728.3711 " fill="none" id="JobApplicationManagementService-to-JobApplication" style="stroke:#181818;stroke-width:1.0;stroke-dasharray:7.0,7.0;"/><polygon fill="#181818" points="1345.9,730.2769,1338.6366,723.6253,1341.1589,728.6887,1336.0955,731.211,1345.9,730.2769" style="stroke:#181818;stroke-width:1.0;"/></g><!--SRC=[dLLRRzem57vUVeNVbcgbNPyceQeIfKMZ6gE2TkycEO0tnuviGukg_VVPCGad3abPyvBaNBzp_xms9jVzoykSKs4s6Rz8P7QPSAfrBsLqfMWMHOOP3cJeYEJE4qcFFC_9rTUhRr5KI9C9PM82OaFUehybRKwtC0ETIw51FuyjwzCNejVo9Jvh4HfAOPJa79GNJXHG0rRSVg_0FCZ5TBa4fUCpqYTZ0uekE5oNvBkdwKsXjORaprXOzfR1IupOHEu_dFv2IWvKE8qjvIordYeWyTme9bPaoJWyKhCEv3sMGPvpbb33h4ghbmebaYw1DipSxYmhhaiIckUfaGW1gO8S2Fq2Qi1jcjBT_IlJHf-cdG870rEUUWidQcbSgvZMLCuFkJeKzz6Qjg109E1A2w-6l5NC6UHICoFLRaGJzqAy7rQhpEZSrJ41tn6u2wRB2HLq1IgUxwoJx5dRliaygRL1o05TIJu0yJwMJAG3pZ_ev9W7RzT8LrsdX015OSoe4aSY3tjk1ikXJ87ybWltxkeuKiPskxDQM5dvjrEUvawSykkwhvjQJ8ZXavE1C3Mm7tRJwBAw045DTqx28Mq3URJ0A97JPLcGQepz38S5nb19cxUmsFKoE1vDqv75xDA3Gi1pmpSh9hvJaVAW_-saiAtTL4Ct_g166v4umrtxgh8wpdAfZFDSCyaAyXwbCEL6s5lKAd4QLR9JRNokhQQ2J6x1iKlftB9gTK51pM3bTe62r8U7nZtOFXPMhpG26MKS_JkZsY50D6eCjVkmIAeZCs7SGEpx3WdQ-D9YqViAUMfrNkwTg-flL3ggA0Fa1j-alP-AD2ozn6VDLH36fneWYtkB_cqaaxg4s6GBKB-e3ITXe8DWY7qA70TS5Ud9sSQ41sySatxMhViWglj-qRjf7FP-UTL3HaCO7VZ-uRgtYJZrvWdf53zoEBhD7vcqKnmqjtIdrZjBirEtCRRHaRFg19i75UNus4NT8mkEuBkYKRKaCTKrTkclBX4EVjH-wPgvQk8wIIqAThAJ2BOC1XkAub0xhrqduFzNZlu1]--></g></svg>