<?xml version="1.0" encoding="us-ascii" standalone="no"?><svg xmlns="http://www.w3.org/2000/svg" xmlns:xlink="http://www.w3.org/1999/xlink" contentStyleType="text/css" height="712px" preserveAspectRatio="none" style="width:1130px;height:712px;background:#FFFFFF;" version="1.1" viewBox="0 0 1130 712" width="1130px" zoomAndPan="magnify"><defs/><g><!--cluster Plugin Folder--><g id="cluster_Plugin Folder"><path d="M215,433 L310,433 A3.75,3.75 0 0 1 312.5,435.5 L319.5,457.6211 L863,457.6211 A2.5,2.5 0 0 1 865.5,460.1211 L865.5,703 A2.5,2.5 0 0 1 863,705.5 L215,705.5 A2.5,2.5 0 0 1 212.5,703 L212.5,435.5 A2.5,2.5 0 0 1 215,433 " fill="none" style="stroke:#000000;stroke-width:1.5;"/><line style="stroke:#000000;stroke-width:1.5;" x1="212.5" x2="319.5" y1="457.6211" y2="457.6211"/><text fill="#000000" font-family="sans-serif" font-size="14" font-weight="bold" lengthAdjust="spacing" textLength="94" x="216.5" y="450.1074">Plugin Folder</text></g><!--cluster Job Requirement Plugin (Example)--><g id="cluster_Job Requirement Plugin (Example)"><polygon fill="none" points="523.5,488,533.5,478,841.5,478,841.5,671.5,831.5,681.5,523.5,681.5,523.5,488" style="stroke:#181818;stroke-width:1.0;"/><line style="stroke:#181818;stroke-width:1.0;" x1="831.5" x2="841.5" y1="488" y2="478"/><line style="stroke:#181818;stroke-width:1.0;" x1="523.5" x2="831.5" y1="488" y2="488"/><line style="stroke:#181818;stroke-width:1.0;" x1="831.5" x2="831.5" y1="488" y2="681.5"/><text fill="#000000" font-family="sans-serif" font-size="14" font-weight="bold" lengthAdjust="spacing" textLength="242" x="557.5" y="506.1074">Job Requirement Plugin (Example)</text></g><!--cluster Interview Plugin (Example)--><g id="cluster_Interview Plugin (Example)"><polygon fill="none" points="236.5,488,246.5,478,499.5,478,499.5,575,489.5,585,236.5,585,236.5,488" style="stroke:#181818;stroke-width:1.0;"/><line style="stroke:#181818;stroke-width:1.0;" x1="489.5" x2="499.5" y1="488" y2="478"/><line style="stroke:#181818;stroke-width:1.0;" x1="236.5" x2="489.5" y1="488" y2="488"/><line style="stroke:#181818;stroke-width:1.0;" x1="489.5" x2="489.5" y1="488" y2="585"/><text fill="#000000" font-family="sans-serif" font-size="14" font-weight="bold" lengthAdjust="spacing" textLength="187" x="270.5" y="506.1074">Interview Plugin (Example)</text></g><!--cluster Jobs4u Application--><g id="cluster_Jobs4u Application"><path d="M682,66 L816,66 A3.75,3.75 0 0 1 818.5,68.5 L825.5,90.6211 L845,90.6211 A2.5,2.5 0 0 1 847.5,93.1211 L847.5,165.5 A2.5,2.5 0 0 1 845,168 L682,168 A2.5,2.5 0 0 1 679.5,165.5 L679.5,68.5 A2.5,2.5 0 0 1 682,66 " fill="none" style="stroke:#000000;stroke-width:1.5;"/><line style="stroke:#000000;stroke-width:1.5;" x1="679.5" x2="825.5" y1="90.6211" y2="90.6211"/><text fill="#000000" font-family="sans-serif" font-size="14" font-weight="bold" lengthAdjust="spacing" textLength="133" x="683.5" y="83.1074">Jobs4u Application</text></g><!--cluster Database--><g id="cluster_Database"><path d="M871.5,16 C871.5,6 992.5,6 992.5,6 C992.5,6 1113.5,6 1113.5,16 L1113.5,182 C1113.5,192 992.5,192 992.5,192 C992.5,192 871.5,192 871.5,182 L871.5,16 " fill="none" style="stroke:#181818;stroke-width:1.0;"/><path d="M871.5,16 C871.5,26 992.5,26 992.5,26 C992.5,26 1113.5,26 1113.5,16 " fill="none" style="stroke:#181818;stroke-width:1.0;"/><text fill="#000000" font-family="sans-serif" font-size="14" font-weight="bold" lengthAdjust="spacing" textLength="65" x="960" y="43.1074">Database</text></g><!--cluster Plugins--><g id="cluster_Plugins"><rect fill="none" height="102" rx="2.5" ry="2.5" style="stroke:#181818;stroke-width:1.0;" width="194" x="895.5" y="66"/><path d="M957.5,66 L957.5,77.6211 L947.5,87.6211 L895.5,87.6211 " fill="none" style="stroke:#181818;stroke-width:1.0;"/><text fill="#000000" font-family="sans-serif" font-size="14" font-weight="bold" lengthAdjust="spacing" textLength="52" x="898.5" y="82.1074">Plugins</text></g><!--entity Request_Template_Service--><g id="elem_Request_Template_Service"><ellipse cx="620.5" cy="656.5" fill="#F1F1F1" rx="8" ry="8" style="stroke:#181818;stroke-width:0.5;"/><text fill="#000000" font-family="sans-serif" font-size="14" lengthAdjust="spacing" textLength="175" x="533" y="688.6074">Request_Template_Service</text></g><!--entity Evaluate_File_Service--><g id="elem_Evaluate_File_Service"><ellipse cx="789.5" cy="544.5" fill="#F1F1F1" rx="8" ry="8" style="stroke:#181818;stroke-width:0.5;"/><text fill="#000000" font-family="sans-serif" font-size="14" lengthAdjust="spacing" textLength="141" x="719" y="576.6074">Evaluate_File_Service</text></g><!--entity JR_Library / .g4 file--><g id="elem_JR_Library / .g4 file"><rect fill="#F1F1F1" height="48.6211" rx="2.5" ry="2.5" style="stroke:#181818;stroke-width:0.5;" width="162" x="539.5" y="520"/><rect fill="#F1F1F1" height="10" style="stroke:#181818;stroke-width:0.5;" width="15" x="681.5" y="525"/><rect fill="#F1F1F1" height="2" style="stroke:#181818;stroke-width:0.5;" width="4" x="679.5" y="527"/><rect fill="#F1F1F1" height="2" style="stroke:#181818;stroke-width:0.5;" width="4" x="679.5" y="531"/><text fill="#000000" font-family="sans-serif" font-size="14" lengthAdjust="spacing" textLength="122" x="554.5" y="555.1074">JR_Library / .g4 file</text></g><!--entity I_Library / .g4 file--><g id="elem_I_Library / .g4 file"><rect fill="#F1F1F1" height="48.6211" rx="2.5" ry="2.5" style="stroke:#181818;stroke-width:0.5;" width="149" x="293" y="520"/><rect fill="#F1F1F1" height="10" style="stroke:#181818;stroke-width:0.5;" width="15" x="422" y="525"/><rect fill="#F1F1F1" height="2" style="stroke:#181818;stroke-width:0.5;" width="4" x="420" y="527"/><rect fill="#F1F1F1" height="2" style="stroke:#181818;stroke-width:0.5;" width="4" x="420" y="531"/><text fill="#000000" font-family="sans-serif" font-size="14" lengthAdjust="spacing" textLength="109" x="308" y="555.1074">I_Library / .g4 file</text></g><!--entity Plugin_Handler--><g id="elem_Plugin_Handler"><rect fill="#F1F1F1" height="48.6211" rx="2.5" ry="2.5" style="stroke:#181818;stroke-width:0.5;" width="136" x="695.5" y="103"/><rect fill="#F1F1F1" height="10" style="stroke:#181818;stroke-width:0.5;" width="15" x="811.5" y="108"/><rect fill="#F1F1F1" height="2" style="stroke:#181818;stroke-width:0.5;" width="4" x="809.5" y="110"/><rect fill="#F1F1F1" height="2" style="stroke:#181818;stroke-width:0.5;" width="4" x="809.5" y="114"/><text fill="#000000" font-family="sans-serif" font-size="14" lengthAdjust="spacing" textLength="96" x="710.5" y="138.1074">Plugin_Handler</text></g><!--entity Plugins_Repository--><g id="elem_Plugins_Repository"><rect fill="#F1F1F1" height="48.6211" rx="2.5" ry="2.5" style="stroke:#181818;stroke-width:0.5;" width="162" x="911.5" y="103"/><rect fill="#F1F1F1" height="10" style="stroke:#181818;stroke-width:0.5;" width="15" x="1053.5" y="108"/><rect fill="#F1F1F1" height="2" style="stroke:#181818;stroke-width:0.5;" width="4" x="1051.5" y="110"/><rect fill="#F1F1F1" height="2" style="stroke:#181818;stroke-width:0.5;" width="4" x="1051.5" y="114"/><text fill="#000000" font-family="sans-serif" font-size="14" lengthAdjust="spacing" textLength="122" x="926.5" y="138.1074">Plugins_Repository</text></g><!--entity User--><g id="elem_User"><ellipse cx="489.5" cy="127.5" fill="#F1F1F1" rx="8" ry="8" style="stroke:#181818;stroke-width:0.5;"/><text fill="#000000" font-family="sans-serif" font-size="14" lengthAdjust="spacing" textLength="29" x="475" y="159.6074">User</text></g><!--entity Questions_Template.txt--><g id="elem_Questions_Template.txt"><rect fill="#F1F1F1" height="48.6211" rx="2.5" ry="2.5" style="stroke:#181818;stroke-width:0.5;" width="189" x="7" y="632"/><rect fill="#F1F1F1" height="10" style="stroke:#181818;stroke-width:0.5;" width="15" x="176" y="637"/><rect fill="#F1F1F1" height="2" style="stroke:#181818;stroke-width:0.5;" width="4" x="174" y="639"/><rect fill="#F1F1F1" height="2" style="stroke:#181818;stroke-width:0.5;" width="4" x="174" y="643"/><text fill="#000000" font-family="sans-serif" font-size="14" lengthAdjust="spacing" textLength="149" x="22" y="667.1074">Questions_Template.txt</text></g><!--entity Candidate_Answers.txt--><g id="elem_Candidate_Answers.txt"><rect fill="#F1F1F1" height="48.6211" rx="2.5" ry="2.5" style="stroke:#181818;stroke-width:0.5;" width="184" x="397.5" y="239"/><rect fill="#F1F1F1" height="10" style="stroke:#181818;stroke-width:0.5;" width="15" x="561.5" y="244"/><rect fill="#F1F1F1" height="2" style="stroke:#181818;stroke-width:0.5;" width="4" x="559.5" y="246"/><rect fill="#F1F1F1" height="2" style="stroke:#181818;stroke-width:0.5;" width="4" x="559.5" y="250"/><text fill="#000000" font-family="sans-serif" font-size="14" lengthAdjust="spacing" textLength="144" x="412.5" y="274.1074">Candidate_Answers.txt</text></g><!--link Request_Template_Service to JR_Library / .g4 file--><g id="link_Request_Template_Service_JR_Library / .g4 file"><path d="M620.5,647.31 C620.5,630.96 620.5,593.72 620.5,569.1 " fill="none" id="Request_Template_Service-JR_Library / .g4 file" style="stroke:#181818;stroke-width:1.0;"/></g><!--link JR_Library / .g4 file to Request_Template_Service--><g id="link_JR_Library / .g4 file_Request_Template_Service"><path d="M598.5,569.1 C590.68,594.7 593.65,633.97 607.43,649.18 " fill="none" id="JR_Library / .g4 file-to-Request_Template_Service" style="stroke:#181818;stroke-width:1.0;stroke-dasharray:7.0,7.0;"/><polygon fill="#181818" points="611.17,652.5,607.1199,643.5224,607.4401,649.1702,601.7923,649.4903,611.17,652.5" style="stroke:#181818;stroke-width:1.0;"/></g><!--reverse link JR_Library / .g4 file to Request_Template_Service--><g id="link_JR_Library / .g4 file_Request_Template_Service"><path d="M643.86,574.14 C650.45,601.9 645.77,641.41 629.83,652.5 " fill="none" id="JR_Library / .g4 file-backto-Request_Template_Service" style="stroke:#181818;stroke-width:1.0;stroke-dasharray:7.0,7.0;"/><polygon fill="#181818" points="642.5,569.1,640.9773,578.8304,643.7999,573.9281,648.7022,576.7506,642.5,569.1" style="stroke:#181818;stroke-width:1.0;"/></g><!--link JR_Library / .g4 file to Evaluate_File_Service--><g id="link_JR_Library / .g4 file_Evaluate_File_Service"><path d="M701.54,544.5 C733.05,544.5 765.2,544.5 780.43,544.5 " fill="none" id="JR_Library / .g4 file-Evaluate_File_Service" style="stroke:#181818;stroke-width:1.0;"/><text fill="#000000" font-family="sans-serif" font-size="13" lengthAdjust="spacing" textLength="42" x="720" y="537.5283">______</text></g><!--reverse link JR_Library / .g4 file to Evaluate_File_Service--><g id="link_JR_Library / .g4 file_Evaluate_File_Service"><path d="M706.66,524.34 C730.08,520.38 752.01,518.53 763,522.5 C770.2,525.1 776.82,530.6 781.65,535.45 " fill="none" id="JR_Library / .g4 file-backto-Evaluate_File_Service" style="stroke:#181818;stroke-width:1.0;stroke-dasharray:7.0,7.0;"/><polygon fill="#181818" points="701.64,525.21,711.1923,527.6088,706.5661,524.3533,709.8215,519.7271,701.64,525.21" style="stroke:#181818;stroke-width:1.0;"/><text fill="#000000" font-family="sans-serif" font-size="13" lengthAdjust="spacing" textLength="4" x="739" y="512.5283">.</text></g><!--link JR_Library / .g4 file to Evaluate_File_Service--><g id="link_JR_Library / .g4 file_Evaluate_File_Service"><path d="M701.78,568.31 C715.9,569.79 730.41,569.61 744,566.5 C755.26,563.92 766.97,558.18 775.69,553.21 " fill="none" id="JR_Library / .g4 file-to-Evaluate_File_Service" style="stroke:#181818;stroke-width:1.0;stroke-dasharray:7.0,7.0;"/><polygon fill="#181818" points="780.2,550.55,770.4143,551.664,775.89,553.0845,774.4695,558.5601,780.2,550.55" style="stroke:#181818;stroke-width:1.0;"/><text fill="#000000" font-family="sans-serif" font-size="13" lengthAdjust="spacing" textLength="4" x="739" y="562.5283">.</text></g><!--link User to Plugin_Handler--><g id="link_User_Plugin_Handler"><path d="M498.81,132.55 C509.39,137.98 527.37,146.27 544,149.5 C592.23,158.87 647.24,153.32 690.13,145.46 " fill="none" id="User-to-Plugin_Handler" style="stroke:#181818;stroke-width:1.0;"/><polygon fill="#181818" points="695.3,144.49,685.7138,142.2306,690.3869,145.4183,687.1992,150.0915,695.3,144.49" style="stroke:#181818;stroke-width:1.0;"/><text fill="#000000" font-family="sans-serif" font-size="13" lengthAdjust="spacing" textLength="104" x="545" y="145.5283">requests template</text></g><!--link User to Plugin_Handler--><g id="link_User_Plugin_Handler"><path d="M498.62,127.5 C528.03,127.5 622.43,127.5 690.15,127.5 " fill="none" id="User-to-Plugin_Handler-1" style="stroke:#181818;stroke-width:1.0;"/><polygon fill="#181818" points="695.38,127.5,686.38,123.5,690.38,127.5,686.38,131.5,695.38,127.5" style="stroke:#181818;stroke-width:1.0;"/><text fill="#000000" font-family="sans-serif" font-size="13" lengthAdjust="spacing" textLength="160" x="517" y="120.5283">commits a file with answers</text></g><!--link User to Plugin_Handler--><g id="link_User_Plugin_Handler"><path d="M497.35,118.45 C502.18,113.6 508.8,108.1 516,105.5 C532.93,99.39 660.14,103.24 678,105.5 C681.96,106 685.99,106.63 690.05,107.35 " fill="none" id="User-to-Plugin_Handler-2" style="stroke:#181818;stroke-width:1.0;"/><polygon fill="#181818" points="695.19,108.31,687.0735,102.7313,690.2743,107.3955,685.6102,110.5963,695.19,108.31" style="stroke:#181818;stroke-width:1.0;"/><text fill="#000000" font-family="sans-serif" font-size="13" lengthAdjust="spacing" textLength="92" x="551" y="95.5283">imports a plugin</text></g><!--link Plugin_Handler to Request_Template_Service--><g id="link_Plugin_Handler_Request_Template_Service"><path d="M821.83,152.13 C864.7,173.78 915.5,210.43 915.5,262.5 C915.5,262.5 915.5,262.5 915.5,545.5 C915.5,606.13 693.97,644.28 634.85,653.39 " fill="none" id="Plugin_Handler-to-Request_Template_Service" style="stroke:#181818;stroke-width:1.0;"/><polygon fill="#181818" points="629.65,654.18,639.1508,656.7753,634.5927,653.4251,637.9429,648.867,629.65,654.18" style="stroke:#181818;stroke-width:1.0;"/><text fill="#000000" font-family="sans-serif" font-size="13" lengthAdjust="spacing" textLength="164" x="916.5" y="382.0283">requests questions template</text></g><!--link Request_Template_Service to Questions_Template.txt--><g id="link_Request_Template_Service_Questions_Template.txt"><path d="M611.49,656.5 C563.54,656.5 335.6,656.5 201.23,656.5 " fill="none" id="Request_Template_Service-to-Questions_Template.txt" style="stroke:#181818;stroke-width:1.0;"/><polygon fill="#181818" points="196.09,656.5,205.09,660.5,201.09,656.5,205.09,652.5,196.09,656.5" style="stroke:#181818;stroke-width:1.0;"/><text fill="#000000" font-family="sans-serif" font-size="13" lengthAdjust="spacing" textLength="57" x="375.25" y="649.5283">generates</text></g><!--reverse link User to Questions_Template.txt--><g id="link_User_Questions_Template.txt"><path d="M475.11,130.75 C409.34,141.44 140.5,189.59 140.5,262.5 C140.5,262.5 140.5,262.5 140.5,545.5 C140.5,576.7 126.39,610.17 115.14,631.89 " fill="none" id="User-backto-Questions_Template.txt" style="stroke:#181818;stroke-width:1.0;stroke-dasharray:7.0,7.0;"/><polygon fill="#181818" points="480.17,129.94,470.6454,127.4337,475.2346,130.7411,471.9272,135.3303,480.17,129.94" style="stroke:#181818;stroke-width:1.0;"/></g><!--link Plugin_Handler to Evaluate_File_Service--><g id="link_Plugin_Handler_Evaluate_File_Service"><path d="M730.1,152.02 C681.84,189.15 601.5,264.57 631.5,337 C652.67,388.1 685.61,381.29 719.5,425 C747.13,460.64 772.07,508.13 783.26,530.63 " fill="none" id="Plugin_Handler-to-Evaluate_File_Service" style="stroke:#181818;stroke-width:1.0;"/><polygon fill="#181818" points="785.56,535.29,785.1631,525.4491,783.3468,530.8065,777.9895,528.9903,785.56,535.29" style="stroke:#181818;stroke-width:1.0;"/><text fill="#000000" font-family="sans-serif" font-size="13" lengthAdjust="spacing" textLength="113" x="632.5" y="333.0283">links file to evaluate</text></g><!--reverse link Plugin_Handler to Evaluate_File_Service--><g id="link_Plugin_Handler_Evaluate_File_Service"><path d="M765.29,157.09 C770.59,241.59 785.98,487.25 788.99,535.29 " fill="none" id="Plugin_Handler-backto-Evaluate_File_Service" style="stroke:#181818;stroke-width:1.0;"/><polygon fill="#181818" points="764.97,152,761.5441,161.2338,765.2846,156.9901,769.5283,160.7305,764.97,152" style="stroke:#181818;stroke-width:1.0;"/><text fill="#000000" font-family="sans-serif" font-size="13" lengthAdjust="spacing" textLength="101" x="777.5" y="333.0283">returns evaluation</text></g><!--link Candidate_Answers.txt to Evaluate_File_Service--><g id="link_Candidate_Answers.txt_Evaluate_File_Service"><path d="M500.06,288.15 C517.18,323.29 554.57,388.23 608.5,417 C630.32,428.64 698.48,411.98 719.5,425 C758.95,449.43 778.83,504.98 786.13,530.38 " fill="none" id="Candidate_Answers.txt-to-Evaluate_File_Service" style="stroke:#181818;stroke-width:1.0;stroke-dasharray:7.0,7.0;"/><polygon fill="#181818" points="787.5,535.32,788.9691,525.5813,786.1736,530.4992,781.2557,527.7036,787.5,535.32" style="stroke:#181818;stroke-width:1.0;"/></g><!--link User to Candidate_Answers.txt--><g id="link_User_Candidate_Answers.txt"><path d="M489.5,136.88 C489.5,156.94 489.5,208.27 489.5,238.75 " fill="none" id="User-Candidate_Answers.txt" style="stroke:#181818;stroke-width:1.0;stroke-dasharray:7.0,7.0;"/></g><!--link Plugin_Handler to Plugins_Repository--><g id="link_Plugin_Handler_Plugins_Repository"><path d="M831.59,127.5 C854.97,127.5 881.47,127.5 906.11,127.5 " fill="none" id="Plugin_Handler-to-Plugins_Repository" style="stroke:#181818;stroke-width:1.0;"/><polygon fill="#181818" points="911.34,127.5,902.34,123.5,906.34,127.5,902.34,131.5,911.34,127.5" style="stroke:#181818;stroke-width:1.0;"/><text fill="#000000" font-family="sans-serif" font-size="13" lengthAdjust="spacing" textLength="36" x="853.5" y="120.5283">stores</text></g><!--SRC=[ZLJ1Rjim3BthAuYSaeFLIqyz12Ys5cknmvPjfo0mb9XnXSgIAibDYw7_FafMZ6onkl8aY-GZzHxf-G9-UNIChR_tw8CqsjS_iRDA1EJX9Mp8yqdeHZPqKLzhVq3disDlL8CEPjzKtqeDj-bp1hyPa6dJ8CpkpHPM-DHBXntg03bqVlCYg0OkZj7HveiKIbsC7TG_q3tB7Px6t3mBrKVVhLJd0IK4g1fpq1MixrVrLxbrmht21V3s4lO4indp9z6XKhWFnMIuWZePIp1lx8I0EnqY1XxUVNgqzTsxZRqnmhLYzoZQWLT_sSErjKhkH9Hjbj3MGvNw2qccq6rY4Yadji9JrkTy6c9XxqI7H_bylim8lbwXDLu6urutR6mWpWfKJhOFeLgULICYtC2_Xv05O6T1WnBBibGdA4_7eJp1AuZ08omlmx9YFTvRoYjDHdcYHXeAgqCFQL6ZeszVtAzSVLZ2_zAxCrqdYHUHceE330yWXgMS89fiMPZeAr1IF_e19XZ075NQzf7UwVLBZNCEfN_5T1CyhbMPUcgIb-LEBF7o-tYXQDNRqkY6tj6aPIf8gWy88ZjhN1B49j-42lza_xLPXE3fGFFn1m00]--></g></svg>