<?xml version="1.0" encoding="us-ascii" standalone="no"?><svg xmlns="http://www.w3.org/2000/svg" xmlns:xlink="http://www.w3.org/1999/xlink" contentStyleType="text/css" height="927px" preserveAspectRatio="none" style="width:860px;height:927px;background:#FFFFFF;" version="1.1" viewBox="0 0 860 927" width="860px" zoomAndPan="magnify"><defs/><g><!--class LanguageEngineerUI--><g id="elem_LanguageEngineerUI"><rect codeLine="2" fill="#F1F1F1" height="103.8633" id="LanguageEngineerUI" rx="2.5" ry="2.5" style="stroke:#181818;stroke-width:0.5;" width="165" x="284" y="7"/><ellipse cx="299" cy="23" fill="#ADD1B2" rx="11" ry="11" style="stroke:#181818;stroke-width:1.0;"/><path d="M301.7656,18.875 Q301.9219,18.6563 302.1094,18.5469 Q302.2969,18.4375 302.5156,18.4375 Q302.8906,18.4375 303.125,18.7031 Q303.3594,18.9531 303.3594,19.5625 L303.3594,21.0156 Q303.3594,21.625 303.125,21.8906 Q302.8906,22.1563 302.5156,22.1563 Q302.1719,22.1563 301.9688,21.9531 Q301.7656,21.7656 301.6563,21.25 Q301.6094,20.8906 301.4219,20.7031 Q301.0938,20.3281 300.4844,20.1094 Q299.875,19.8906 299.25,19.8906 Q298.4844,19.8906 297.8438,20.2188 Q297.2188,20.5469 296.7188,21.2969 Q296.2344,22.0469 296.2344,23.0781 L296.2344,24.1719 Q296.2344,25.4063 297.125,26.2344 Q298.0156,27.0469 299.6094,27.0469 Q300.5469,27.0469 301.2031,26.7969 Q301.5938,26.6406 302.0156,26.2031 Q302.2813,25.9375 302.4219,25.8594 Q302.5781,25.7813 302.7813,25.7813 Q303.1094,25.7813 303.3594,26.0469 Q303.625,26.2969 303.625,26.6406 Q303.625,26.9844 303.2813,27.3906 Q302.7813,27.9688 301.9844,28.2969 Q300.9063,28.75 299.6094,28.75 Q298.0938,28.75 296.8906,28.125 Q295.9063,27.625 295.2188,26.5625 Q294.5313,25.4844 294.5313,24.2031 L294.5313,23.0469 Q294.5313,21.7188 295.1406,20.5781 Q295.7656,19.4219 296.8594,18.8125 Q297.9531,18.1875 299.1875,18.1875 Q299.9219,18.1875 300.5625,18.3594 Q301.2188,18.5156 301.7656,18.875 Z " fill="#000000"/><text fill="#000000" font-family="sans-serif" font-size="14" lengthAdjust="spacing" textLength="133" x="313" y="28.7969">LanguageEngineerUI</text><line style="stroke:#181818;stroke-width:0.5;" x1="285" x2="448" y1="39" y2="39"/><line style="stroke:#181818;stroke-width:0.5;" x1="285" x2="448" y1="47" y2="47"/><ellipse cx="295" cy="61.8105" fill="#84BE84" rx="3" ry="3" style="stroke:#038048;stroke-width:1.0;"/><text fill="#000000" font-family="sans-serif" font-size="14" lengthAdjust="spacing" textLength="119" x="304" y="66.1074">registerCustomer()</text><ellipse cx="295" cy="80.4316" fill="#84BE84" rx="3" ry="3" style="stroke:#038048;stroke-width:1.0;"/><text fill="#000000" font-family="sans-serif" font-size="14" lengthAdjust="spacing" textLength="108" x="304" y="84.7285">exportTemplate()</text><ellipse cx="295" cy="99.0527" fill="#84BE84" rx="3" ry="3" style="stroke:#038048;stroke-width:1.0;"/><text fill="#000000" font-family="sans-serif" font-size="14" lengthAdjust="spacing" textLength="117" x="304" y="103.3496">evaluateAnswers()</text></g><!--class RegisterPluginUI--><g id="elem_RegisterPluginUI"><rect codeLine="8" fill="#F1F1F1" height="48" id="RegisterPluginUI" rx="2.5" ry="2.5" style="stroke:#181818;stroke-width:0.5;" width="136" x="502.5" y="172"/><ellipse cx="517.5" cy="188" fill="#ADD1B2" rx="11" ry="11" style="stroke:#181818;stroke-width:1.0;"/><path d="M520.2656,183.875 Q520.4219,183.6563 520.6094,183.5469 Q520.7969,183.4375 521.0156,183.4375 Q521.3906,183.4375 521.625,183.7031 Q521.8594,183.9531 521.8594,184.5625 L521.8594,186.0156 Q521.8594,186.625 521.625,186.8906 Q521.3906,187.1563 521.0156,187.1563 Q520.6719,187.1563 520.4688,186.9531 Q520.2656,186.7656 520.1563,186.25 Q520.1094,185.8906 519.9219,185.7031 Q519.5938,185.3281 518.9844,185.1094 Q518.375,184.8906 517.75,184.8906 Q516.9844,184.8906 516.3438,185.2188 Q515.7188,185.5469 515.2188,186.2969 Q514.7344,187.0469 514.7344,188.0781 L514.7344,189.1719 Q514.7344,190.4063 515.625,191.2344 Q516.5156,192.0469 518.1094,192.0469 Q519.0469,192.0469 519.7031,191.7969 Q520.0938,191.6406 520.5156,191.2031 Q520.7813,190.9375 520.9219,190.8594 Q521.0781,190.7813 521.2813,190.7813 Q521.6094,190.7813 521.8594,191.0469 Q522.125,191.2969 522.125,191.6406 Q522.125,191.9844 521.7813,192.3906 Q521.2813,192.9688 520.4844,193.2969 Q519.4063,193.75 518.1094,193.75 Q516.5938,193.75 515.3906,193.125 Q514.4063,192.625 513.7188,191.5625 Q513.0313,190.4844 513.0313,189.2031 L513.0313,188.0469 Q513.0313,186.7188 513.6406,185.5781 Q514.2656,184.4219 515.3594,183.8125 Q516.4531,183.1875 517.6875,183.1875 Q518.4219,183.1875 519.0625,183.3594 Q519.7188,183.5156 520.2656,183.875 Z " fill="#000000"/><text fill="#000000" font-family="sans-serif" font-size="14" lengthAdjust="spacing" textLength="104" x="531.5" y="193.7969">RegisterPluginUI</text><line style="stroke:#181818;stroke-width:0.5;" x1="503.5" x2="637.5" y1="204" y2="204"/><line style="stroke:#181818;stroke-width:0.5;" x1="503.5" x2="637.5" y1="212" y2="212"/></g><!--class RegisterPluginController--><g id="elem_RegisterPluginController"><rect codeLine="12" fill="#F1F1F1" height="66.6211" id="RegisterPluginController" rx="2.5" ry="2.5" style="stroke:#181818;stroke-width:0.5;" width="186" x="502.5" y="290"/><ellipse cx="517.5" cy="306" fill="#ADD1B2" rx="11" ry="11" style="stroke:#181818;stroke-width:1.0;"/><path d="M520.2656,301.875 Q520.4219,301.6563 520.6094,301.5469 Q520.7969,301.4375 521.0156,301.4375 Q521.3906,301.4375 521.625,301.7031 Q521.8594,301.9531 521.8594,302.5625 L521.8594,304.0156 Q521.8594,304.625 521.625,304.8906 Q521.3906,305.1563 521.0156,305.1563 Q520.6719,305.1563 520.4688,304.9531 Q520.2656,304.7656 520.1563,304.25 Q520.1094,303.8906 519.9219,303.7031 Q519.5938,303.3281 518.9844,303.1094 Q518.375,302.8906 517.75,302.8906 Q516.9844,302.8906 516.3438,303.2188 Q515.7188,303.5469 515.2188,304.2969 Q514.7344,305.0469 514.7344,306.0781 L514.7344,307.1719 Q514.7344,308.4063 515.625,309.2344 Q516.5156,310.0469 518.1094,310.0469 Q519.0469,310.0469 519.7031,309.7969 Q520.0938,309.6406 520.5156,309.2031 Q520.7813,308.9375 520.9219,308.8594 Q521.0781,308.7813 521.2813,308.7813 Q521.6094,308.7813 521.8594,309.0469 Q522.125,309.2969 522.125,309.6406 Q522.125,309.9844 521.7813,310.3906 Q521.2813,310.9688 520.4844,311.2969 Q519.4063,311.75 518.1094,311.75 Q516.5938,311.75 515.3906,311.125 Q514.4063,310.625 513.7188,309.5625 Q513.0313,308.4844 513.0313,307.2031 L513.0313,306.0469 Q513.0313,304.7188 513.6406,303.5781 Q514.2656,302.4219 515.3594,301.8125 Q516.4531,301.1875 517.6875,301.1875 Q518.4219,301.1875 519.0625,301.3594 Q519.7188,301.5156 520.2656,301.875 Z " fill="#000000"/><text fill="#000000" font-family="sans-serif" font-size="14" lengthAdjust="spacing" textLength="154" x="531.5" y="311.7969">RegisterPluginController</text><line style="stroke:#181818;stroke-width:0.5;" x1="503.5" x2="687.5" y1="322" y2="322"/><line style="stroke:#181818;stroke-width:0.5;" x1="503.5" x2="687.5" y1="330" y2="330"/><ellipse cx="513.5" cy="344.8105" fill="#84BE84" rx="3" ry="3" style="stroke:#038048;stroke-width:1.0;"/><text fill="#000000" font-family="sans-serif" font-size="14" lengthAdjust="spacing" textLength="97" x="522.5" y="349.1074">registerPlugin()</text></g><!--class PersistenceContext--><g id="elem_PersistenceContext"><rect codeLine="16" fill="#F1F1F1" height="66.6211" id="PersistenceContext" rx="2.5" ry="2.5" style="stroke:#181818;stroke-width:0.5;" width="154" x="422.5" y="516"/><ellipse cx="437.5" cy="532" fill="#ADD1B2" rx="11" ry="11" style="stroke:#181818;stroke-width:1.0;"/><path d="M440.2656,527.875 Q440.4219,527.6563 440.6094,527.5469 Q440.7969,527.4375 441.0156,527.4375 Q441.3906,527.4375 441.625,527.7031 Q441.8594,527.9531 441.8594,528.5625 L441.8594,530.0156 Q441.8594,530.625 441.625,530.8906 Q441.3906,531.1563 441.0156,531.1563 Q440.6719,531.1563 440.4688,530.9531 Q440.2656,530.7656 440.1563,530.25 Q440.1094,529.8906 439.9219,529.7031 Q439.5938,529.3281 438.9844,529.1094 Q438.375,528.8906 437.75,528.8906 Q436.9844,528.8906 436.3438,529.2188 Q435.7188,529.5469 435.2188,530.2969 Q434.7344,531.0469 434.7344,532.0781 L434.7344,533.1719 Q434.7344,534.4063 435.625,535.2344 Q436.5156,536.0469 438.1094,536.0469 Q439.0469,536.0469 439.7031,535.7969 Q440.0938,535.6406 440.5156,535.2031 Q440.7813,534.9375 440.9219,534.8594 Q441.0781,534.7813 441.2813,534.7813 Q441.6094,534.7813 441.8594,535.0469 Q442.125,535.2969 442.125,535.6406 Q442.125,535.9844 441.7813,536.3906 Q441.2813,536.9688 440.4844,537.2969 Q439.4063,537.75 438.1094,537.75 Q436.5938,537.75 435.3906,537.125 Q434.4063,536.625 433.7188,535.5625 Q433.0313,534.4844 433.0313,533.2031 L433.0313,532.0469 Q433.0313,530.7188 433.6406,529.5781 Q434.2656,528.4219 435.3594,527.8125 Q436.4531,527.1875 437.6875,527.1875 Q438.4219,527.1875 439.0625,527.3594 Q439.7188,527.5156 440.2656,527.875 Z " fill="#000000"/><text fill="#000000" font-family="sans-serif" font-size="14" lengthAdjust="spacing" textLength="122" x="451.5" y="537.7969">PersistenceContext</text><line style="stroke:#181818;stroke-width:0.5;" x1="423.5" x2="575.5" y1="548" y2="548"/><line style="stroke:#181818;stroke-width:0.5;" x1="423.5" x2="575.5" y1="556" y2="556"/><ellipse cx="433.5" cy="570.8105" fill="#84BE84" rx="3" ry="3" style="stroke:#038048;stroke-width:1.0;"/><text fill="#000000" font-family="sans-serif" font-size="14" lengthAdjust="spacing" textLength="84" x="442.5" y="575.1074">repositories()</text></g><!--class RepositoryFactory--><g id="elem_RepositoryFactory"><rect codeLine="20" fill="#F1F1F1" height="103.8633" id="RepositoryFactory" rx="2.5" ry="2.5" style="stroke:#181818;stroke-width:0.5;" width="266" x="587.5" y="671"/><ellipse cx="658.25" cy="687" fill="#ADD1B2" rx="11" ry="11" style="stroke:#181818;stroke-width:1.0;"/><path d="M661.0156,682.875 Q661.1719,682.6563 661.3594,682.5469 Q661.5469,682.4375 661.7656,682.4375 Q662.1406,682.4375 662.375,682.7031 Q662.6094,682.9531 662.6094,683.5625 L662.6094,685.0156 Q662.6094,685.625 662.375,685.8906 Q662.1406,686.1563 661.7656,686.1563 Q661.4219,686.1563 661.2188,685.9531 Q661.0156,685.7656 660.9063,685.25 Q660.8594,684.8906 660.6719,684.7031 Q660.3438,684.3281 659.7344,684.1094 Q659.125,683.8906 658.5,683.8906 Q657.7344,683.8906 657.0938,684.2188 Q656.4688,684.5469 655.9688,685.2969 Q655.4844,686.0469 655.4844,687.0781 L655.4844,688.1719 Q655.4844,689.4063 656.375,690.2344 Q657.2656,691.0469 658.8594,691.0469 Q659.7969,691.0469 660.4531,690.7969 Q660.8438,690.6406 661.2656,690.2031 Q661.5313,689.9375 661.6719,689.8594 Q661.8281,689.7813 662.0313,689.7813 Q662.3594,689.7813 662.6094,690.0469 Q662.875,690.2969 662.875,690.6406 Q662.875,690.9844 662.5313,691.3906 Q662.0313,691.9688 661.2344,692.2969 Q660.1563,692.75 658.8594,692.75 Q657.3438,692.75 656.1406,692.125 Q655.1563,691.625 654.4688,690.5625 Q653.7813,689.4844 653.7813,688.2031 L653.7813,687.0469 Q653.7813,685.7188 654.3906,684.5781 Q655.0156,683.4219 656.1094,682.8125 Q657.2031,682.1875 658.4375,682.1875 Q659.1719,682.1875 659.8125,682.3594 Q660.4688,682.5156 661.0156,682.875 Z " fill="#000000"/><text fill="#000000" font-family="sans-serif" font-size="14" lengthAdjust="spacing" textLength="116" x="678.75" y="692.7969">RepositoryFactory</text><line style="stroke:#181818;stroke-width:0.5;" x1="588.5" x2="852.5" y1="703" y2="703"/><line style="stroke:#181818;stroke-width:0.5;" x1="588.5" x2="852.5" y1="711" y2="711"/><ellipse cx="598.5" cy="725.8105" fill="#84BE84" rx="3" ry="3" style="stroke:#038048;stroke-width:1.0;"/><text fill="#000000" font-family="sans-serif" font-size="14" lengthAdjust="spacing" textLength="173" x="607.5" y="730.1074">newTransactionalContext();</text><ellipse cx="598.5" cy="744.4316" fill="#84BE84" rx="3" ry="3" style="stroke:#038048;stroke-width:1.0;"/><text fill="#000000" font-family="sans-serif" font-size="14" lengthAdjust="spacing" textLength="240" x="607.5" y="748.7285">plugins(TransactionalContext autoTx);</text><ellipse cx="598.5" cy="763.0527" fill="#84BE84" rx="3" ry="3" style="stroke:#038048;stroke-width:1.0;"/><text fill="#000000" font-family="sans-serif" font-size="14" lengthAdjust="spacing" textLength="59" x="607.5" y="767.3496">plugins();</text></g><!--class PluginHandler--><g id="elem_PluginHandler"><rect codeLine="27" fill="#F1F1F1" height="85.2422" id="PluginHandler" rx="2.5" ry="2.5" style="stroke:#181818;stroke-width:0.5;" width="206" x="84.5" y="507"/><ellipse cx="139.25" cy="523" fill="#ADD1B2" rx="11" ry="11" style="stroke:#181818;stroke-width:1.0;"/><path d="M142.0156,518.875 Q142.1719,518.6563 142.3594,518.5469 Q142.5469,518.4375 142.7656,518.4375 Q143.1406,518.4375 143.375,518.7031 Q143.6094,518.9531 143.6094,519.5625 L143.6094,521.0156 Q143.6094,521.625 143.375,521.8906 Q143.1406,522.1563 142.7656,522.1563 Q142.4219,522.1563 142.2188,521.9531 Q142.0156,521.7656 141.9063,521.25 Q141.8594,520.8906 141.6719,520.7031 Q141.3438,520.3281 140.7344,520.1094 Q140.125,519.8906 139.5,519.8906 Q138.7344,519.8906 138.0938,520.2188 Q137.4688,520.5469 136.9688,521.2969 Q136.4844,522.0469 136.4844,523.0781 L136.4844,524.1719 Q136.4844,525.4063 137.375,526.2344 Q138.2656,527.0469 139.8594,527.0469 Q140.7969,527.0469 141.4531,526.7969 Q141.8438,526.6406 142.2656,526.2031 Q142.5313,525.9375 142.6719,525.8594 Q142.8281,525.7813 143.0313,525.7813 Q143.3594,525.7813 143.6094,526.0469 Q143.875,526.2969 143.875,526.6406 Q143.875,526.9844 143.5313,527.3906 Q143.0313,527.9688 142.2344,528.2969 Q141.1563,528.75 139.8594,528.75 Q138.3438,528.75 137.1406,528.125 Q136.1563,527.625 135.4688,526.5625 Q134.7813,525.4844 134.7813,524.2031 L134.7813,523.0469 Q134.7813,521.7188 135.3906,520.5781 Q136.0156,519.4219 137.1094,518.8125 Q138.2031,518.1875 139.4375,518.1875 Q140.1719,518.1875 140.8125,518.3594 Q141.4688,518.5156 142.0156,518.875 Z " fill="#000000"/><text fill="#000000" font-family="sans-serif" font-size="14" lengthAdjust="spacing" textLength="88" x="159.75" y="528.7969">PluginHandler</text><line style="stroke:#181818;stroke-width:0.5;" x1="85.5" x2="289.5" y1="539" y2="539"/><line style="stroke:#181818;stroke-width:0.5;" x1="85.5" x2="289.5" y1="547" y2="547"/><ellipse cx="95.5" cy="561.8105" fill="#84BE84" rx="3" ry="3" style="stroke:#038048;stroke-width:1.0;"/><text fill="#000000" font-family="sans-serif" font-size="14" lengthAdjust="spacing" textLength="173" x="104.5" y="566.1074">activateTemplateFunction()</text><ellipse cx="95.5" cy="580.4316" fill="#84BE84" rx="3" ry="3" style="stroke:#038048;stroke-width:1.0;"/><text fill="#000000" font-family="sans-serif" font-size="14" lengthAdjust="spacing" textLength="180" x="104.5" y="584.7285">activateEvaluationFunction()</text></g><!--class ManagePluginService--><g id="elem_ManagePluginService"><rect codeLine="32" fill="#F1F1F1" height="103.8633" id="ManagePluginService" rx="2.5" ry="2.5" style="stroke:#181818;stroke-width:0.5;" width="388" x="164.5" y="671"/><ellipse cx="285.75" cy="687" fill="#ADD1B2" rx="11" ry="11" style="stroke:#181818;stroke-width:1.0;"/><path d="M288.5156,682.875 Q288.6719,682.6563 288.8594,682.5469 Q289.0469,682.4375 289.2656,682.4375 Q289.6406,682.4375 289.875,682.7031 Q290.1094,682.9531 290.1094,683.5625 L290.1094,685.0156 Q290.1094,685.625 289.875,685.8906 Q289.6406,686.1563 289.2656,686.1563 Q288.9219,686.1563 288.7188,685.9531 Q288.5156,685.7656 288.4063,685.25 Q288.3594,684.8906 288.1719,684.7031 Q287.8438,684.3281 287.2344,684.1094 Q286.625,683.8906 286,683.8906 Q285.2344,683.8906 284.5938,684.2188 Q283.9688,684.5469 283.4688,685.2969 Q282.9844,686.0469 282.9844,687.0781 L282.9844,688.1719 Q282.9844,689.4063 283.875,690.2344 Q284.7656,691.0469 286.3594,691.0469 Q287.2969,691.0469 287.9531,690.7969 Q288.3438,690.6406 288.7656,690.2031 Q289.0313,689.9375 289.1719,689.8594 Q289.3281,689.7813 289.5313,689.7813 Q289.8594,689.7813 290.1094,690.0469 Q290.375,690.2969 290.375,690.6406 Q290.375,690.9844 290.0313,691.3906 Q289.5313,691.9688 288.7344,692.2969 Q287.6563,692.75 286.3594,692.75 Q284.8438,692.75 283.6406,692.125 Q282.6563,691.625 281.9688,690.5625 Q281.2813,689.4844 281.2813,688.2031 L281.2813,687.0469 Q281.2813,685.7188 281.8906,684.5781 Q282.5156,683.4219 283.6094,682.8125 Q284.7031,682.1875 285.9375,682.1875 Q286.6719,682.1875 287.3125,682.3594 Q287.9688,682.5156 288.5156,682.875 Z " fill="#000000"/><text fill="#000000" font-family="sans-serif" font-size="14" lengthAdjust="spacing" textLength="137" x="306.25" y="692.7969">ManagePluginService</text><line style="stroke:#181818;stroke-width:0.5;" x1="165.5" x2="551.5" y1="703" y2="703"/><rect fill="none" height="6" style="stroke:#C82930;stroke-width:1.0;" width="6" x="172.5" y="714.8105"/><text fill="#000000" font-family="sans-serif" font-size="14" lengthAdjust="spacing" textLength="362" x="184.5" y="722.1074">registeredPluginRepository: RegisteredPluginsRepository</text><line style="stroke:#181818;stroke-width:0.5;" x1="165.5" x2="551.5" y1="729.6211" y2="729.6211"/><ellipse cx="175.5" cy="744.4316" fill="#84BE84" rx="3" ry="3" style="stroke:#038048;stroke-width:1.0;"/><text fill="#000000" font-family="sans-serif" font-size="14" lengthAdjust="spacing" textLength="113" x="184.5" y="748.7285">registerNewUser()</text><ellipse cx="175.5" cy="763.0527" fill="#84BE84" rx="3" ry="3" style="stroke:#038048;stroke-width:1.0;"/><text fill="#000000" font-family="sans-serif" font-size="14" lengthAdjust="spacing" textLength="48" x="184.5" y="767.3496">findAll()</text></g><!--class RegisteredPluginFactory--><g id="elem_RegisteredPluginFactory"><rect codeLine="38" fill="#F1F1F1" height="66.6211" id="RegisteredPluginFactory" rx="2.5" ry="2.5" style="stroke:#181818;stroke-width:0.5;" width="188" x="264.5" y="854"/><ellipse cx="279.5" cy="870" fill="#ADD1B2" rx="11" ry="11" style="stroke:#181818;stroke-width:1.0;"/><path d="M282.2656,865.875 Q282.4219,865.6563 282.6094,865.5469 Q282.7969,865.4375 283.0156,865.4375 Q283.3906,865.4375 283.625,865.7031 Q283.8594,865.9531 283.8594,866.5625 L283.8594,868.0156 Q283.8594,868.625 283.625,868.8906 Q283.3906,869.1563 283.0156,869.1563 Q282.6719,869.1563 282.4688,868.9531 Q282.2656,868.7656 282.1563,868.25 Q282.1094,867.8906 281.9219,867.7031 Q281.5938,867.3281 280.9844,867.1094 Q280.375,866.8906 279.75,866.8906 Q278.9844,866.8906 278.3438,867.2188 Q277.7188,867.5469 277.2188,868.2969 Q276.7344,869.0469 276.7344,870.0781 L276.7344,871.1719 Q276.7344,872.4063 277.625,873.2344 Q278.5156,874.0469 280.1094,874.0469 Q281.0469,874.0469 281.7031,873.7969 Q282.0938,873.6406 282.5156,873.2031 Q282.7813,872.9375 282.9219,872.8594 Q283.0781,872.7813 283.2813,872.7813 Q283.6094,872.7813 283.8594,873.0469 Q284.125,873.2969 284.125,873.6406 Q284.125,873.9844 283.7813,874.3906 Q283.2813,874.9688 282.4844,875.2969 Q281.4063,875.75 280.1094,875.75 Q278.5938,875.75 277.3906,875.125 Q276.4063,874.625 275.7188,873.5625 Q275.0313,872.4844 275.0313,871.2031 L275.0313,870.0469 Q275.0313,868.7188 275.6406,867.5781 Q276.2656,866.4219 277.3594,865.8125 Q278.4531,865.1875 279.6875,865.1875 Q280.4219,865.1875 281.0625,865.3594 Q281.7188,865.5156 282.2656,865.875 Z " fill="#000000"/><text fill="#000000" font-family="sans-serif" font-size="14" lengthAdjust="spacing" textLength="156" x="293.5" y="875.7969">RegisteredPluginFactory</text><line style="stroke:#181818;stroke-width:0.5;" x1="265.5" x2="451.5" y1="886" y2="886"/><ellipse cx="275.5" cy="900.8105" fill="none" rx="3" ry="3" style="stroke:#038048;stroke-width:1.0;"/><text fill="#000000" font-family="sans-serif" font-size="14" lengthAdjust="spacing" textLength="87" x="284.5" y="905.1074">registerPlugin</text><line style="stroke:#181818;stroke-width:0.5;" x1="265.5" x2="451.5" y1="912.6211" y2="912.6211"/></g><!--class RegisteredPluginsRepository--><g id="elem_RegisteredPluginsRepository"><rect codeLine="42" fill="#F1F1F1" height="48" id="RegisteredPluginsRepository" rx="2.5" ry="2.5" style="stroke:#181818;stroke-width:0.5;" width="215" x="550" y="863.5"/><ellipse cx="565" cy="879.5" fill="#ADD1B2" rx="11" ry="11" style="stroke:#181818;stroke-width:1.0;"/><path d="M567.7656,875.375 Q567.9219,875.1563 568.1094,875.0469 Q568.2969,874.9375 568.5156,874.9375 Q568.8906,874.9375 569.125,875.2031 Q569.3594,875.4531 569.3594,876.0625 L569.3594,877.5156 Q569.3594,878.125 569.125,878.3906 Q568.8906,878.6563 568.5156,878.6563 Q568.1719,878.6563 567.9688,878.4531 Q567.7656,878.2656 567.6563,877.75 Q567.6094,877.3906 567.4219,877.2031 Q567.0938,876.8281 566.4844,876.6094 Q565.875,876.3906 565.25,876.3906 Q564.4844,876.3906 563.8438,876.7188 Q563.2188,877.0469 562.7188,877.7969 Q562.2344,878.5469 562.2344,879.5781 L562.2344,880.6719 Q562.2344,881.9063 563.125,882.7344 Q564.0156,883.5469 565.6094,883.5469 Q566.5469,883.5469 567.2031,883.2969 Q567.5938,883.1406 568.0156,882.7031 Q568.2813,882.4375 568.4219,882.3594 Q568.5781,882.2813 568.7813,882.2813 Q569.1094,882.2813 569.3594,882.5469 Q569.625,882.7969 569.625,883.1406 Q569.625,883.4844 569.2813,883.8906 Q568.7813,884.4688 567.9844,884.7969 Q566.9063,885.25 565.6094,885.25 Q564.0938,885.25 562.8906,884.625 Q561.9063,884.125 561.2188,883.0625 Q560.5313,881.9844 560.5313,880.7031 L560.5313,879.5469 Q560.5313,878.2188 561.1406,877.0781 Q561.7656,875.9219 562.8594,875.3125 Q563.9531,874.6875 565.1875,874.6875 Q565.9219,874.6875 566.5625,874.8594 Q567.2188,875.0156 567.7656,875.375 Z " fill="#000000"/><text fill="#000000" font-family="sans-serif" font-size="14" lengthAdjust="spacing" textLength="183" x="579" y="885.2969">RegisteredPluginsRepository</text><line style="stroke:#181818;stroke-width:0.5;" x1="551" x2="764" y1="895.5" y2="895.5"/><line style="stroke:#181818;stroke-width:0.5;" x1="551" x2="764" y1="903.5" y2="903.5"/></g><!--class ExportTemplateUI--><g id="elem_ExportTemplateUI"><rect codeLine="64" fill="#F1F1F1" height="48" id="ExportTemplateUI" rx="2.5" ry="2.5" style="stroke:#181818;stroke-width:0.5;" width="143" x="100" y="172"/><ellipse cx="115" cy="188" fill="#ADD1B2" rx="11" ry="11" style="stroke:#181818;stroke-width:1.0;"/><path d="M117.7656,183.875 Q117.9219,183.6563 118.1094,183.5469 Q118.2969,183.4375 118.5156,183.4375 Q118.8906,183.4375 119.125,183.7031 Q119.3594,183.9531 119.3594,184.5625 L119.3594,186.0156 Q119.3594,186.625 119.125,186.8906 Q118.8906,187.1563 118.5156,187.1563 Q118.1719,187.1563 117.9688,186.9531 Q117.7656,186.7656 117.6563,186.25 Q117.6094,185.8906 117.4219,185.7031 Q117.0938,185.3281 116.4844,185.1094 Q115.875,184.8906 115.25,184.8906 Q114.4844,184.8906 113.8438,185.2188 Q113.2188,185.5469 112.7188,186.2969 Q112.2344,187.0469 112.2344,188.0781 L112.2344,189.1719 Q112.2344,190.4063 113.125,191.2344 Q114.0156,192.0469 115.6094,192.0469 Q116.5469,192.0469 117.2031,191.7969 Q117.5938,191.6406 118.0156,191.2031 Q118.2813,190.9375 118.4219,190.8594 Q118.5781,190.7813 118.7813,190.7813 Q119.1094,190.7813 119.3594,191.0469 Q119.625,191.2969 119.625,191.6406 Q119.625,191.9844 119.2813,192.3906 Q118.7813,192.9688 117.9844,193.2969 Q116.9063,193.75 115.6094,193.75 Q114.0938,193.75 112.8906,193.125 Q111.9063,192.625 111.2188,191.5625 Q110.5313,190.4844 110.5313,189.2031 L110.5313,188.0469 Q110.5313,186.7188 111.1406,185.5781 Q111.7656,184.4219 112.8594,183.8125 Q113.9531,183.1875 115.1875,183.1875 Q115.9219,183.1875 116.5625,183.3594 Q117.2188,183.5156 117.7656,183.875 Z " fill="#000000"/><text fill="#000000" font-family="sans-serif" font-size="14" lengthAdjust="spacing" textLength="111" x="129" y="193.7969">ExportTemplateUI</text><line style="stroke:#181818;stroke-width:0.5;" x1="101" x2="242" y1="204" y2="204"/><line style="stroke:#181818;stroke-width:0.5;" x1="101" x2="242" y1="212" y2="212"/></g><!--class ExportTemplateController--><g id="elem_ExportTemplateController"><rect codeLine="66" fill="#F1F1F1" height="85.2422" id="ExportTemplateController" rx="2.5" ry="2.5" style="stroke:#181818;stroke-width:0.5;" width="193" x="7" y="281"/><ellipse cx="22" cy="297" fill="#ADD1B2" rx="11" ry="11" style="stroke:#181818;stroke-width:1.0;"/><path d="M24.7656,292.875 Q24.9219,292.6563 25.1094,292.5469 Q25.2969,292.4375 25.5156,292.4375 Q25.8906,292.4375 26.125,292.7031 Q26.3594,292.9531 26.3594,293.5625 L26.3594,295.0156 Q26.3594,295.625 26.125,295.8906 Q25.8906,296.1563 25.5156,296.1563 Q25.1719,296.1563 24.9688,295.9531 Q24.7656,295.7656 24.6563,295.25 Q24.6094,294.8906 24.4219,294.7031 Q24.0938,294.3281 23.4844,294.1094 Q22.875,293.8906 22.25,293.8906 Q21.4844,293.8906 20.8438,294.2188 Q20.2188,294.5469 19.7188,295.2969 Q19.2344,296.0469 19.2344,297.0781 L19.2344,298.1719 Q19.2344,299.4063 20.125,300.2344 Q21.0156,301.0469 22.6094,301.0469 Q23.5469,301.0469 24.2031,300.7969 Q24.5938,300.6406 25.0156,300.2031 Q25.2813,299.9375 25.4219,299.8594 Q25.5781,299.7813 25.7813,299.7813 Q26.1094,299.7813 26.3594,300.0469 Q26.625,300.2969 26.625,300.6406 Q26.625,300.9844 26.2813,301.3906 Q25.7813,301.9688 24.9844,302.2969 Q23.9063,302.75 22.6094,302.75 Q21.0938,302.75 19.8906,302.125 Q18.9063,301.625 18.2188,300.5625 Q17.5313,299.4844 17.5313,298.2031 L17.5313,297.0469 Q17.5313,295.7188 18.1406,294.5781 Q18.7656,293.4219 19.8594,292.8125 Q20.9531,292.1875 22.1875,292.1875 Q22.9219,292.1875 23.5625,292.3594 Q24.2188,292.5156 24.7656,292.875 Z " fill="#000000"/><text fill="#000000" font-family="sans-serif" font-size="14" lengthAdjust="spacing" textLength="161" x="36" y="302.7969">ExportTemplateController</text><line style="stroke:#181818;stroke-width:0.5;" x1="8" x2="199" y1="313" y2="313"/><line style="stroke:#181818;stroke-width:0.5;" x1="8" x2="199" y1="321" y2="321"/><ellipse cx="18" cy="335.8105" fill="#84BE84" rx="3" ry="3" style="stroke:#038048;stroke-width:1.0;"/><text fill="#000000" font-family="sans-serif" font-size="14" lengthAdjust="spacing" textLength="91" x="27" y="340.1074">getAllPlugins()</text><ellipse cx="18" cy="354.4316" fill="#84BE84" rx="3" ry="3" style="stroke:#038048;stroke-width:1.0;"/><text fill="#000000" font-family="sans-serif" font-size="14" lengthAdjust="spacing" textLength="126" x="27" y="358.7285">generateTemplate()</text></g><!--class EvaluateAnswersUI--><g id="elem_EvaluateAnswersUI"><rect codeLine="79" fill="#F1F1F1" height="48" id="EvaluateAnswersUI" rx="2.5" ry="2.5" style="stroke:#181818;stroke-width:0.5;" width="152" x="290.5" y="172"/><ellipse cx="305.5" cy="188" fill="#ADD1B2" rx="11" ry="11" style="stroke:#181818;stroke-width:1.0;"/><path d="M308.2656,183.875 Q308.4219,183.6563 308.6094,183.5469 Q308.7969,183.4375 309.0156,183.4375 Q309.3906,183.4375 309.625,183.7031 Q309.8594,183.9531 309.8594,184.5625 L309.8594,186.0156 Q309.8594,186.625 309.625,186.8906 Q309.3906,187.1563 309.0156,187.1563 Q308.6719,187.1563 308.4688,186.9531 Q308.2656,186.7656 308.1563,186.25 Q308.1094,185.8906 307.9219,185.7031 Q307.5938,185.3281 306.9844,185.1094 Q306.375,184.8906 305.75,184.8906 Q304.9844,184.8906 304.3438,185.2188 Q303.7188,185.5469 303.2188,186.2969 Q302.7344,187.0469 302.7344,188.0781 L302.7344,189.1719 Q302.7344,190.4063 303.625,191.2344 Q304.5156,192.0469 306.1094,192.0469 Q307.0469,192.0469 307.7031,191.7969 Q308.0938,191.6406 308.5156,191.2031 Q308.7813,190.9375 308.9219,190.8594 Q309.0781,190.7813 309.2813,190.7813 Q309.6094,190.7813 309.8594,191.0469 Q310.125,191.2969 310.125,191.6406 Q310.125,191.9844 309.7813,192.3906 Q309.2813,192.9688 308.4844,193.2969 Q307.4063,193.75 306.1094,193.75 Q304.5938,193.75 303.3906,193.125 Q302.4063,192.625 301.7188,191.5625 Q301.0313,190.4844 301.0313,189.2031 L301.0313,188.0469 Q301.0313,186.7188 301.6406,185.5781 Q302.2656,184.4219 303.3594,183.8125 Q304.4531,183.1875 305.6875,183.1875 Q306.4219,183.1875 307.0625,183.3594 Q307.7188,183.5156 308.2656,183.875 Z " fill="#000000"/><text fill="#000000" font-family="sans-serif" font-size="14" lengthAdjust="spacing" textLength="120" x="319.5" y="193.7969">EvaluateAnswersUI</text><line style="stroke:#181818;stroke-width:0.5;" x1="291.5" x2="441.5" y1="204" y2="204"/><line style="stroke:#181818;stroke-width:0.5;" x1="291.5" x2="441.5" y1="212" y2="212"/></g><!--class EvaluateAnswersController--><g id="elem_EvaluateAnswersController"><rect codeLine="81" fill="#F1F1F1" height="85.2422" id="EvaluateAnswersController" rx="2.5" ry="2.5" style="stroke:#181818;stroke-width:0.5;" width="202" x="265.5" y="281"/><ellipse cx="280.5" cy="297" fill="#ADD1B2" rx="11" ry="11" style="stroke:#181818;stroke-width:1.0;"/><path d="M283.2656,292.875 Q283.4219,292.6563 283.6094,292.5469 Q283.7969,292.4375 284.0156,292.4375 Q284.3906,292.4375 284.625,292.7031 Q284.8594,292.9531 284.8594,293.5625 L284.8594,295.0156 Q284.8594,295.625 284.625,295.8906 Q284.3906,296.1563 284.0156,296.1563 Q283.6719,296.1563 283.4688,295.9531 Q283.2656,295.7656 283.1563,295.25 Q283.1094,294.8906 282.9219,294.7031 Q282.5938,294.3281 281.9844,294.1094 Q281.375,293.8906 280.75,293.8906 Q279.9844,293.8906 279.3438,294.2188 Q278.7188,294.5469 278.2188,295.2969 Q277.7344,296.0469 277.7344,297.0781 L277.7344,298.1719 Q277.7344,299.4063 278.625,300.2344 Q279.5156,301.0469 281.1094,301.0469 Q282.0469,301.0469 282.7031,300.7969 Q283.0938,300.6406 283.5156,300.2031 Q283.7813,299.9375 283.9219,299.8594 Q284.0781,299.7813 284.2813,299.7813 Q284.6094,299.7813 284.8594,300.0469 Q285.125,300.2969 285.125,300.6406 Q285.125,300.9844 284.7813,301.3906 Q284.2813,301.9688 283.4844,302.2969 Q282.4063,302.75 281.1094,302.75 Q279.5938,302.75 278.3906,302.125 Q277.4063,301.625 276.7188,300.5625 Q276.0313,299.4844 276.0313,298.2031 L276.0313,297.0469 Q276.0313,295.7188 276.6406,294.5781 Q277.2656,293.4219 278.3594,292.8125 Q279.4531,292.1875 280.6875,292.1875 Q281.4219,292.1875 282.0625,292.3594 Q282.7188,292.5156 283.2656,292.875 Z " fill="#000000"/><text fill="#000000" font-family="sans-serif" font-size="14" lengthAdjust="spacing" textLength="170" x="294.5" y="302.7969">EvaluateAnswersController</text><line style="stroke:#181818;stroke-width:0.5;" x1="266.5" x2="466.5" y1="313" y2="313"/><line style="stroke:#181818;stroke-width:0.5;" x1="266.5" x2="466.5" y1="321" y2="321"/><ellipse cx="276.5" cy="335.8105" fill="#84BE84" rx="3" ry="3" style="stroke:#038048;stroke-width:1.0;"/><text fill="#000000" font-family="sans-serif" font-size="14" lengthAdjust="spacing" textLength="91" x="285.5" y="340.1074">getAllPlugins()</text><ellipse cx="276.5" cy="354.4316" fill="#84BE84" rx="3" ry="3" style="stroke:#038048;stroke-width:1.0;"/><text fill="#000000" font-family="sans-serif" font-size="14" lengthAdjust="spacing" textLength="133" x="285.5" y="358.7285">generateEvaluation()</text></g><!--link LanguageEngineerUI to RegisterPluginUI--><g id="link_LanguageEngineerUI_RegisterPluginUI"><path codeLine="47" d="M443.62,111.04 C473.6,130.87 506.62,152.73 531.46,169.16 " fill="none" id="LanguageEngineerUI-to-RegisterPluginUI" style="stroke:#181818;stroke-width:1.0;stroke-dasharray:7.0,7.0;"/><polygon fill="#181818" points="535.69,171.96,530.3874,163.6604,531.5188,169.203,525.9762,170.3344,535.69,171.96" style="stroke:#181818;stroke-width:1.0;"/></g><!--link RegisterPluginUI to RegisterPluginController--><g id="link_RegisterPluginUI_RegisterPluginController"><path codeLine="49" d="M575.09,220.02 C578.69,238.1 583.78,263.66 587.98,284.73 " fill="none" id="RegisterPluginUI-to-RegisterPluginController" style="stroke:#181818;stroke-width:1.0;stroke-dasharray:7.0,7.0;"/><polygon fill="#181818" points="588.97,289.7,591.1219,280.0891,587.9867,284.7976,583.2781,281.6624,588.97,289.7" style="stroke:#181818;stroke-width:1.0;"/></g><!--link RegisterPluginController to PersistenceContext--><g id="link_RegisterPluginController_PersistenceContext"><path codeLine="51" d="M583.21,357.21 C573.81,381.8 560.34,416.22 547.5,446 C538.1,467.79 526.89,491.83 517.67,511.15 " fill="none" id="RegisterPluginController-to-PersistenceContext" style="stroke:#181818;stroke-width:1.0;stroke-dasharray:7.0,7.0;"/><polygon fill="#181818" points="515.37,515.96,522.8674,509.5733,517.5313,511.4513,515.6534,506.1152,515.37,515.96" style="stroke:#181818;stroke-width:1.0;"/><text fill="#000000" font-family="sans-serif" font-size="13" lengthAdjust="spacing" textLength="79" x="555.5" y="442.0283">repositories ()</text></g><!--link RegisterPluginController to ManagePluginService--><g id="link_RegisterPluginController_ManagePluginService"><path codeLine="53" d="M599.4,357.15 C606.21,419.61 617.49,553.26 594.5,592 C575.2,624.53 544.54,649.48 511.63,668.4 " fill="none" id="RegisterPluginController-to-ManagePluginService" style="stroke:#181818;stroke-width:1.0;stroke-dasharray:7.0,7.0;"/><polygon fill="#181818" points="507.18,670.91,516.9829,669.9595,511.5317,668.4478,513.0434,662.9967,507.18,670.91" style="stroke:#181818;stroke-width:1.0;"/></g><!--link ManagePluginService to RegisteredPluginFactory--><g id="link_ManagePluginService_RegisteredPluginFactory"><path codeLine="55" d="M358.5,775.42 C358.5,799.17 358.5,826.89 358.5,848.69 " fill="none" id="ManagePluginService-to-RegisteredPluginFactory" style="stroke:#181818;stroke-width:1.0;stroke-dasharray:7.0,7.0;"/><polygon fill="#181818" points="358.5,853.81,362.5,844.81,358.5,848.81,354.5,844.81,358.5,853.81" style="stroke:#181818;stroke-width:1.0;"/></g><!--link ManagePluginService to RegisteredPluginsRepository--><g id="link_ManagePluginService_RegisteredPluginsRepository"><path codeLine="56" d="M452.7,775.19 C505.22,803.74 568.34,838.04 610.49,860.95 " fill="none" id="ManagePluginService-to-RegisteredPluginsRepository" style="stroke:#181818;stroke-width:1.0;"/><polygon fill="#181818" points="615.02,863.41,609.0254,855.5956,610.6278,861.0208,605.2026,862.6231,615.02,863.41" style="stroke:#181818;stroke-width:1.0;"/><text fill="#000000" font-family="sans-serif" font-size="13" lengthAdjust="spacing" textLength="34" x="535.5" y="820.0283">save()</text></g><!--link PersistenceContext to RepositoryFactory--><g id="link_PersistenceContext_RepositoryFactory"><path codeLine="59" d="M541.59,583.16 C572.28,606.98 614.57,639.8 650.33,667.55 " fill="none" id="PersistenceContext-to-RepositoryFactory" style="stroke:#181818;stroke-width:1.0;"/><polygon fill="#181818" points="654.66,670.91,649.9985,662.2341,650.7086,667.8462,645.0965,668.5564,654.66,670.91" style="stroke:#181818;stroke-width:1.0;"/><text fill="#000000" font-family="sans-serif" font-size="13" lengthAdjust="spacing" textLength="44" x="610.5" y="637.0283">create()</text></g><!--link RepositoryFactory to RegisteredPluginsRepository--><g id="link_RepositoryFactory_RegisteredPluginsRepository"><path codeLine="61" d="M700.57,775.42 C689.86,803.02 677.09,835.96 668.25,858.77 " fill="none" id="RepositoryFactory-to-RegisteredPluginsRepository" style="stroke:#181818;stroke-width:1.0;"/><polygon fill="#181818" points="666.43,863.48,673.417,856.5386,668.2402,858.8192,665.9596,853.6424,666.43,863.48" style="stroke:#181818;stroke-width:1.0;"/><text fill="#000000" font-family="sans-serif" font-size="13" lengthAdjust="spacing" textLength="44" x="689.5" y="820.0283">create()</text></g><!--link LanguageEngineerUI to ExportTemplateUI--><g id="link_LanguageEngineerUI_ExportTemplateUI"><path codeLine="72" d="M292.78,111.04 C264.25,130.79 232.82,152.54 209.11,168.96 " fill="none" id="LanguageEngineerUI-to-ExportTemplateUI" style="stroke:#181818;stroke-width:1.0;stroke-dasharray:7.0,7.0;"/><polygon fill="#181818" points="204.78,171.96,214.4552,170.1189,208.8889,169.111,209.8968,163.5446,204.78,171.96" style="stroke:#181818;stroke-width:1.0;"/></g><!--link ExportTemplateUI to ExportTemplateController--><g id="link_ExportTemplateUI_ExportTemplateController"><path codeLine="73" d="M159.03,220.02 C150.54,235.68 139.02,256.94 128.68,276.04 " fill="none" id="ExportTemplateUI-to-ExportTemplateController" style="stroke:#181818;stroke-width:1.0;stroke-dasharray:7.0,7.0;"/><polygon fill="#181818" points="126.07,280.84,133.8844,274.8454,128.4592,276.4478,126.8569,271.0226,126.07,280.84" style="stroke:#181818;stroke-width:1.0;"/></g><!--link ExportTemplateController to PluginHandler--><g id="link_ExportTemplateController_PluginHandler"><path codeLine="75" d="M106,366.13 C108.34,389.99 112.84,420.23 121.5,446 C126.51,460.89 130.27,463.61 138.5,477 C143.62,485.33 149.3,494.04 154.92,502.39 " fill="none" id="ExportTemplateController-to-PluginHandler" style="stroke:#181818;stroke-width:1.0;stroke-dasharray:7.0,7.0;"/><polygon fill="#181818" points="158.03,506.99,156.3044,497.2935,155.2302,502.8474,149.6763,501.7732,158.03,506.99" style="stroke:#181818;stroke-width:1.0;"/></g><!--link ExportTemplateController to PersistenceContext--><g id="link_ExportTemplateController_PersistenceContext"><path codeLine="76" d="M177.06,366.11 C251.91,408.45 366.66,473.36 437.18,513.25 " fill="none" id="ExportTemplateController-to-PersistenceContext" style="stroke:#181818;stroke-width:1.0;stroke-dasharray:7.0,7.0;"/><polygon fill="#181818" points="441.76,515.84,435.8966,507.9267,437.4083,513.3778,431.9571,514.8895,441.76,515.84" style="stroke:#181818;stroke-width:1.0;"/><text fill="#000000" font-family="sans-serif" font-size="13" lengthAdjust="spacing" textLength="79" x="316.5" y="442.0283">repositories ()</text></g><!--link LanguageEngineerUI to EvaluateAnswersUI--><g id="link_LanguageEngineerUI_EvaluateAnswersUI"><path codeLine="87" d="M366.5,111.04 C366.5,129.82 366.5,150.42 366.5,166.51 " fill="none" id="LanguageEngineerUI-to-EvaluateAnswersUI" style="stroke:#181818;stroke-width:1.0;stroke-dasharray:7.0,7.0;"/><polygon fill="#181818" points="366.5,171.78,370.5,162.78,366.5,166.78,362.5,162.78,366.5,171.78" style="stroke:#181818;stroke-width:1.0;"/></g><!--link EvaluateAnswersUI to EvaluateAnswersController--><g id="link_EvaluateAnswersUI_EvaluateAnswersController"><path codeLine="88" d="M366.5,220.02 C366.5,235.54 366.5,256.58 366.5,275.55 " fill="none" id="EvaluateAnswersUI-to-EvaluateAnswersController" style="stroke:#181818;stroke-width:1.0;stroke-dasharray:7.0,7.0;"/><polygon fill="#181818" points="366.5,280.84,370.5,271.84,366.5,275.84,362.5,271.84,366.5,280.84" style="stroke:#181818;stroke-width:1.0;"/></g><!--link EvaluateAnswersController to PluginHandler--><g id="link_EvaluateAnswersController_PluginHandler"><path codeLine="90" d="M333.25,366.11 C302.33,404.81 256.34,462.36 224.32,502.43 " fill="none" id="EvaluateAnswersController-to-PluginHandler" style="stroke:#181818;stroke-width:1.0;stroke-dasharray:7.0,7.0;"/><polygon fill="#181818" points="220.87,506.74,229.6117,502.2031,223.99,502.8329,223.3603,497.2112,220.87,506.74" style="stroke:#181818;stroke-width:1.0;"/></g><!--link EvaluateAnswersController to PersistenceContext--><g id="link_EvaluateAnswersController_PersistenceContext"><path codeLine="91" d="M391.2,366.11 C415.89,407.69 453.51,471.04 477.28,511.08 " fill="none" id="EvaluateAnswersController-to-PersistenceContext" style="stroke:#181818;stroke-width:1.0;stroke-dasharray:7.0,7.0;"/><polygon fill="#181818" points="480.11,515.84,478.9719,506.0571,477.5649,511.5362,472.0858,510.1293,480.11,515.84" style="stroke:#181818;stroke-width:1.0;"/><text fill="#000000" font-family="sans-serif" font-size="13" lengthAdjust="spacing" textLength="79" x="437.5" y="442.0283">repositories ()</text></g><!--link ExportTemplateController to ManagePluginService--><g id="link_ExportTemplateController_ManagePluginService"><path codeLine="93" d="M81.75,366.27 C55.9,422.31 21.56,522.8 66.5,592 C88.94,626.55 122.91,651.99 159.85,670.7 " fill="none" id="ExportTemplateController-to-ManagePluginService" style="stroke:#181818;stroke-width:1.0;stroke-dasharray:7.0,7.0;"/><polygon fill="#181818" points="164.37,672.95,158.0993,665.3554,159.895,670.7197,154.5307,672.5154,164.37,672.95" style="stroke:#181818;stroke-width:1.0;"/></g><!--link EvaluateAnswersController to ManagePluginService--><g id="link_EvaluateAnswersController_ManagePluginService"><path codeLine="94" d="M365.66,366.29 C364.21,438.07 361.26,584.83 359.64,665.6 " fill="none" id="EvaluateAnswersController-to-ManagePluginService" style="stroke:#181818;stroke-width:1.0;stroke-dasharray:7.0,7.0;"/><polygon fill="#181818" points="359.53,670.82,363.7092,661.9018,359.63,665.821,355.7108,661.7418,359.53,670.82" style="stroke:#181818;stroke-width:1.0;"/></g><!--SRC=[dLJjQi8m5FsVfyY_AKCVe6E2Y39X6xBf0uHwLmenAKbQ7UAxBstJDatJLjS_uZtdVkJSauIKI8dV2OjI4i6QHJ4348SjlYAilsS1KImLY5Kg5J-1c4pBE5mIBjGUJWab2kfeHcYg_o-PF8EGEdn3A2nQV9b2Evhg7aM3Fd35cHASKX3k52LkbztfDZd4GiZJuAAQd8JBM74HWpE8YVzkI9Z_L0aCpdj1cDJHc3D2JRt9zAN4SL9qbnCV2vDKyVsbmzK1QzWY-4ROqJeRpYjbMhHAp4tAYjgLg3LXNQgh8OjI5_yWJ6-mRF4D8ej3C2rckD8FZYNUQ13KsbUOR43Jlyh-XFD1DXR0Fp4xBYdrRRagvaZStcD_cZM3yGdoM7G-NtHiXL37Q5rQOp2NRbbldkTvx1LWsrbOdtweniAt5uHyoxBdTFJpycUBGTq2B4cMtqo4FAUO5TdkJGXmAA2ypwYBpaOxDjbFhmzznWVhrgjos5vhXxIHHcBjZjAC4IZjnLrrxUee0s7TBGFSUltaJe3SW8TbswaFCNQo7u0nxbtMU_gNpErdkgLp6tfOwEQD6fVQdG9r8ZvUI-q-o2lt2FaklOTsrdFP1_lsvFm1]--></g></svg>