<?xml version="1.0" encoding="us-ascii" standalone="no"?><svg xmlns="http://www.w3.org/2000/svg" xmlns:xlink="http://www.w3.org/1999/xlink" contentStyleType="text/css" height="273px" preserveAspectRatio="none" style="width:500px;height:273px;background:#FFFFFF;" version="1.1" viewBox="0 0 500 273" width="500px" zoomAndPan="magnify"><defs/><g><!--cluster PluginAggregate--><g id="cluster_PluginAggregate"><path d="M8.5,6.0137 L126.5,6.0137 A3.75,3.75 0 0 1 129,8.5137 L136,30.6348 L490.5,30.6348 A2.5,2.5 0 0 1 493,33.1348 L493,263.5137 A2.5,2.5 0 0 1 490.5,266.0137 L8.5,266.0137 A2.5,2.5 0 0 1 6,263.5137 L6,8.5137 A2.5,2.5 0 0 1 8.5,6.0137 " fill="none" style="stroke:#000000;stroke-width:1.5;"/><line style="stroke:#000000;stroke-width:1.5;" x1="6" x2="136" y1="30.6348" y2="30.6348"/><text fill="#000000" font-family="sans-serif" font-size="14" font-weight="bold" lengthAdjust="spacing" textLength="117" x="10" y="23.1211">PluginAggregate</text></g><!--class RegisteredPlugin--><g id="elem_RegisteredPlugin"><rect codeLine="4" fill="#F1F1F1" height="66.6211" id="RegisteredPlugin" rx="2.5" ry="2.5" style="stroke:#181818;stroke-width:0.5;" width="140" x="205" y="43.0137"/><ellipse cx="220" cy="59.0137" fill="#ADD1B2" rx="11" ry="11" style="stroke:#181818;stroke-width:1.0;"/><path d="M218.8594,59.8105 L218.8594,62.3105 L223.1875,62.3105 L223.1875,61.3887 Q223.1875,60.7793 223.4219,60.5137 Q223.6719,60.248 224.0469,60.248 Q224.4219,60.248 224.6563,60.5137 Q224.8906,60.7793 224.8906,61.3887 L224.8906,64.0137 L216.8906,64.0137 Q216.2656,64.0137 216,63.7793 Q215.75,63.5449 215.75,63.1543 Q215.75,62.7793 216.0156,62.5449 Q216.2813,62.3105 216.8906,62.3105 L217.1563,62.3105 L217.1563,55.6543 L216.8906,55.6543 Q216.2656,55.6543 216,55.4199 Q215.75,55.1855 215.75,54.7949 Q215.75,54.4199 216,54.1855 Q216.2656,53.9512 216.8906,53.9512 L224.5156,53.9512 L224.5156,56.5449 Q224.5156,57.1543 224.2813,57.4199 Q224.0625,57.6699 223.6719,57.6699 Q223.2969,57.6699 223.0625,57.4199 Q222.8281,57.1543 222.8281,56.5449 L222.8281,55.6543 L218.8594,55.6543 L218.8594,58.1074 L220.3438,58.1074 Q220.3438,57.4512 220.4688,57.2637 Q220.7344,56.8574 221.2031,56.8574 Q221.5781,56.8574 221.8125,57.123 Q222.0469,57.373 222.0469,57.9824 L222.0469,59.9512 Q222.0469,60.498 221.9219,60.6855 Q221.6563,61.0762 221.2031,61.0762 Q220.7344,61.0762 220.4688,60.6699 Q220.3438,60.4824 220.3438,59.8105 L218.8594,59.8105 Z " fill="#000000"/><text fill="#000000" font-family="sans-serif" font-size="14" lengthAdjust="spacing" textLength="108" x="234" y="64.8105">RegisteredPlugin</text><line style="stroke:#181818;stroke-width:0.5;" x1="206" x2="344" y1="75.0137" y2="75.0137"/><text fill="#000000" font-family="sans-serif" font-size="14" lengthAdjust="spacing" textLength="79" x="211" y="94.1211">&#171;root entity&#187;</text><line style="stroke:#181818;stroke-width:0.5;" x1="206" x2="344" y1="101.6348" y2="101.6348"/></g><!--class PluginFileName--><g id="elem_PluginFileName"><rect codeLine="8" fill="#F1F1F1" height="60.582" id="PluginFileName" rx="2.5" ry="2.5" style="stroke:#181818;stroke-width:0.5;" width="162" x="22" y="189.0137"/><ellipse cx="37" cy="211.3047" fill="#F09000" rx="11" ry="11" style="stroke:#181818;stroke-width:1.0;"/><path d="M37.5938,214.5703 L40.0625,208.6953 L39.6719,208.6953 Q39.0625,208.6953 38.7969,208.4609 Q38.5313,208.2266 38.5313,207.8359 Q38.5313,207.4609 38.7969,207.2266 Q39.0625,206.9922 39.6719,206.9922 L41.9531,206.9922 Q42.5625,206.9922 42.8281,207.2266 Q43.0938,207.4609 43.0938,207.8359 Q43.0938,208.3047 42.6875,208.5703 Q42.5,208.6953 41.9063,208.6953 L38.4219,217.0547 L36.7813,217.0547 L33.2969,208.6953 Q32.7031,208.6953 32.5156,208.5703 Q32.1094,208.3047 32.1094,207.8359 Q32.1094,207.4609 32.375,207.2266 Q32.6406,206.9922 33.25,206.9922 L35.5469,206.9922 Q36.1563,206.9922 36.4063,207.2266 Q36.6719,207.4609 36.6719,207.8359 Q36.6719,208.2266 36.4063,208.4609 Q36.1563,208.6953 35.5469,208.6953 L35.1406,208.6953 L37.5938,214.5703 Z " fill="#000000"/><text fill="#000000" font-family="sans-serif" font-size="12" font-style="italic" lengthAdjust="spacing" textLength="134" x="49" y="206.9629">&#171;Identifier value Object&#187;</text><text fill="#000000" font-family="sans-serif" font-size="14" lengthAdjust="spacing" textLength="98" x="67" y="225.082">PluginFileName</text><line style="stroke:#181818;stroke-width:0.5;" x1="23" x2="183" y1="233.5957" y2="233.5957"/><line style="stroke:#181818;stroke-width:0.5;" x1="23" x2="183" y1="241.5957" y2="241.5957"/></g><!--class PluginName--><g id="elem_PluginName"><rect codeLine="12" fill="#F1F1F1" height="60.582" id="PluginName" rx="2.5" ry="2.5" style="stroke:#181818;stroke-width:0.5;" width="111" x="219.5" y="189.0137"/><ellipse cx="234.5" cy="211.3047" fill="#F04800" rx="11" ry="11" style="stroke:#181818;stroke-width:1.0;"/><path d="M235.0938,214.5703 L237.5625,208.6953 L237.1719,208.6953 Q236.5625,208.6953 236.2969,208.4609 Q236.0313,208.2266 236.0313,207.8359 Q236.0313,207.4609 236.2969,207.2266 Q236.5625,206.9922 237.1719,206.9922 L239.4531,206.9922 Q240.0625,206.9922 240.3281,207.2266 Q240.5938,207.4609 240.5938,207.8359 Q240.5938,208.3047 240.1875,208.5703 Q240,208.6953 239.4063,208.6953 L235.9219,217.0547 L234.2813,217.0547 L230.7969,208.6953 Q230.2031,208.6953 230.0156,208.5703 Q229.6094,208.3047 229.6094,207.8359 Q229.6094,207.4609 229.875,207.2266 Q230.1406,206.9922 230.75,206.9922 L233.0469,206.9922 Q233.6563,206.9922 233.9063,207.2266 Q234.1719,207.4609 234.1719,207.8359 Q234.1719,208.2266 233.9063,208.4609 Q233.6563,208.6953 233.0469,208.6953 L232.6406,208.6953 L235.0938,214.5703 Z " fill="#000000"/><text fill="#000000" font-family="sans-serif" font-size="12" font-style="italic" lengthAdjust="spacing" textLength="83" x="246.5" y="206.9629">&#171;value Object&#187;</text><text fill="#000000" font-family="sans-serif" font-size="14" lengthAdjust="spacing" textLength="75" x="250.5" y="225.082">PluginName</text><line style="stroke:#181818;stroke-width:0.5;" x1="220.5" x2="329.5" y1="233.5957" y2="233.5957"/><line style="stroke:#181818;stroke-width:0.5;" x1="220.5" x2="329.5" y1="241.5957" y2="241.5957"/></g><!--class PluginType--><g id="elem_PluginType"><rect codeLine="16" fill="#F1F1F1" height="60.582" id="PluginType" rx="2.5" ry="2.5" style="stroke:#181818;stroke-width:0.5;" width="111" x="365.5" y="189.0137"/><ellipse cx="380.5" cy="211.3047" fill="#F04800" rx="11" ry="11" style="stroke:#181818;stroke-width:1.0;"/><path d="M381.0938,214.5703 L383.5625,208.6953 L383.1719,208.6953 Q382.5625,208.6953 382.2969,208.4609 Q382.0313,208.2266 382.0313,207.8359 Q382.0313,207.4609 382.2969,207.2266 Q382.5625,206.9922 383.1719,206.9922 L385.4531,206.9922 Q386.0625,206.9922 386.3281,207.2266 Q386.5938,207.4609 386.5938,207.8359 Q386.5938,208.3047 386.1875,208.5703 Q386,208.6953 385.4063,208.6953 L381.9219,217.0547 L380.2813,217.0547 L376.7969,208.6953 Q376.2031,208.6953 376.0156,208.5703 Q375.6094,208.3047 375.6094,207.8359 Q375.6094,207.4609 375.875,207.2266 Q376.1406,206.9922 376.75,206.9922 L379.0469,206.9922 Q379.6563,206.9922 379.9063,207.2266 Q380.1719,207.4609 380.1719,207.8359 Q380.1719,208.2266 379.9063,208.4609 Q379.6563,208.6953 379.0469,208.6953 L378.6406,208.6953 L381.0938,214.5703 Z " fill="#000000"/><text fill="#000000" font-family="sans-serif" font-size="12" font-style="italic" lengthAdjust="spacing" textLength="83" x="392.5" y="206.9629">&#171;value Object&#187;</text><text fill="#000000" font-family="sans-serif" font-size="14" lengthAdjust="spacing" textLength="71" x="398.5" y="225.082">PluginType</text><line style="stroke:#181818;stroke-width:0.5;" x1="366.5" x2="475.5" y1="233.5957" y2="233.5957"/><line style="stroke:#181818;stroke-width:0.5;" x1="366.5" x2="475.5" y1="241.5957" y2="241.5957"/></g><!--link RegisteredPlugin to PluginFileName--><g id="link_RegisteredPlugin_PluginFileName"><path codeLine="21" d="M235.11,110.2137 C206.13,133.9737 167.24,165.8537 139.16,188.8737 " fill="none" id="RegisteredPlugin-PluginFileName" style="stroke:#181818;stroke-width:1.0;"/><polygon fill="#000000" points="202.8667,146.4892,194.0085,149.9509,197.735,154.4965,202.8667,146.4892" style="stroke:#000000;stroke-width:1.0;"/><text fill="#000000" font-family="sans-serif" font-size="13" lengthAdjust="spacing" textLength="42" x="208" y="155.042">locates</text></g><!--link RegisteredPlugin to PluginName--><g id="link_RegisteredPlugin_PluginName"><path codeLine="22" d="M275,110.2137 C275,133.9737 275,165.8537 275,188.8737 " fill="none" id="RegisteredPlugin-PluginName" style="stroke:#181818;stroke-width:1.0;"/><polygon fill="#000000" points="280,144.6592,277.0611,153.7043,282.9389,153.7043,280,144.6592" style="stroke:#000000;stroke-width:1.0;"/><text fill="#000000" font-family="sans-serif" font-size="13" lengthAdjust="spacing" textLength="51" x="289" y="155.042">identifies</text></g><!--link RegisteredPlugin to PluginType--><g id="link_RegisteredPlugin_PluginType"><path codeLine="23" d="M315.37,110.0237 C326.52,119.4137 338.45,129.8837 349,140.0137 C365.14,155.5137 382.11,173.8937 395.52,188.9737 " fill="none" id="RegisteredPlugin-PluginType" style="stroke:#181818;stroke-width:1.0;"/><polygon fill="#000000" points="368.4379,146.1504,372.8194,154.5916,376.9442,150.4041,368.4379,146.1504" style="stroke:#000000;stroke-width:1.0;"/><text fill="#000000" font-family="sans-serif" font-size="13" lengthAdjust="spacing" textLength="54" x="381" y="155.042">classifies</text></g><!--SRC=[bP7BQiCm44Nt-eg1BDf0N7lHHMACeOG4kcb22TbFvR6gHduWZGiczDyhAmzeKWAPZK0wEdSqUlXaRbqQnwt1chlAFCccYgL1vw92ex9O2R56kKD5i3QTqlMBKfOKCkq5-5hKhBc7TrBQCLag3XJ0uNYeBBDDmq21pFEm_oF2CX-IZkAbDlI65Nd-SJiPbSaiIP8nl1R3nLAJXMyq7S7guuiavxbFE4VyR_nZUvuEjdiLcxwzK-4bLyE8eiitfc0QwOVe8Bk17r5z6i5jElIQGlYz4or-0G00]--></g></svg>