<?xml version="1.0" encoding="us-ascii" standalone="no"?><svg xmlns="http://www.w3.org/2000/svg" xmlns:xlink="http://www.w3.org/1999/xlink" contentStyleType="text/css" height="375.6px" preserveAspectRatio="none" style="width:1134px;height:375px;background:#FFFFFF;" version="1.1" viewBox="0 0 1134 375" width="1134.6px" zoomAndPan="magnify"><defs/><g><!--cluster RankingAggregate--><g id="cluster_RankingAggregate"><path d="M691.5,38.412 L770.1,38.412 A2.25,2.25 0 0 1 771.6,39.912 L775.8,53.1847 L890.1,53.1847 A1.5,1.5 0 0 1 891.6,54.6847 L891.6,108.912 A1.5,1.5 0 0 1 890.1,110.412 L691.5,110.412 A1.5,1.5 0 0 1 690,108.912 L690,39.912 A1.5,1.5 0 0 1 691.5,38.412 " fill="none" style="stroke:#000000;stroke-width:0.8999999999999999;"/><line style="stroke:#000000;stroke-width:0.8999999999999999;" x1="690" x2="775.8" y1="53.1847" y2="53.1847"/><text fill="#000000" font-family="sans-serif" font-size="8.4" font-weight="bold" lengthAdjust="spacing" textLength="78" x="692.4" y="48.6765">RankingAggregate</text></g><!--cluster JobOfferAggregate--><g id="cluster_JobOfferAggregate"><path d="M629.7,141.012 L711.3,141.012 A2.25,2.25 0 0 1 712.8,142.512 L717,155.7847 L1128.9,155.7847 A1.5,1.5 0 0 1 1130.4,157.2847 L1130.4,369.912 A1.5,1.5 0 0 1 1128.9,371.412 L629.7,371.412 A1.5,1.5 0 0 1 628.2,369.912 L628.2,142.512 A1.5,1.5 0 0 1 629.7,141.012 " fill="none" style="stroke:#000000;stroke-width:0.8999999999999999;"/><line style="stroke:#000000;stroke-width:0.8999999999999999;" x1="628.2" x2="717" y1="155.7847" y2="155.7847"/><text fill="#000000" font-family="sans-serif" font-size="8.4" font-weight="bold" lengthAdjust="spacing" textLength="81" x="630.6" y="151.2765">JobOfferAggregate</text></g><!--cluster ApplicationAggregate--><g id="cluster_ApplicationAggregate"><path d="M5.1,38.412 L96.3,38.412 A2.25,2.25 0 0 1 97.8,39.912 L102,53.1847 L612.3,53.1847 A1.5,1.5 0 0 1 613.8,54.6847 L613.8,209.712 A1.5,1.5 0 0 1 612.3,211.212 L5.1,211.212 A1.5,1.5 0 0 1 3.6,209.712 L3.6,39.912 A1.5,1.5 0 0 1 5.1,38.412 " fill="none" style="stroke:#000000;stroke-width:0.8999999999999999;"/><line style="stroke:#000000;stroke-width:0.8999999999999999;" x1="3.6" x2="102" y1="53.1847" y2="53.1847"/><text fill="#000000" font-family="sans-serif" font-size="8.4" font-weight="bold" lengthAdjust="spacing" textLength="90.6" x="6" y="48.6765">ApplicationAggregate</text></g><!--class Ranking--><g id="elem_Ranking"><rect codeLine="5" fill="#F1F1F1" height="39.9727" id="Ranking" rx="1.5" ry="1.5" style="stroke:#181818;stroke-width:0.3;" width="54.6" x="699.9" y="60.612"/><ellipse cx="710.79" cy="70.212" fill="#ADD1B2" rx="6.6" ry="6.6" style="stroke:#181818;stroke-width:0.6;"/><path d="M710.1056,70.6901 L710.1056,72.1901 L712.7025,72.1901 L712.7025,71.637 Q712.7025,71.2714 712.8431,71.112 Q712.9931,70.9526 713.2181,70.9526 Q713.4431,70.9526 713.5838,71.112 Q713.7244,71.2714 713.7244,71.637 L713.7244,73.212 L708.9244,73.212 Q708.5494,73.212 708.39,73.0714 Q708.24,72.9307 708.24,72.6964 Q708.24,72.4714 708.3994,72.3307 Q708.5588,72.1901 708.9244,72.1901 L709.0838,72.1901 L709.0838,68.1964 L708.9244,68.1964 Q708.5494,68.1964 708.39,68.0557 Q708.24,67.9151 708.24,67.6807 Q708.24,67.4557 708.39,67.3151 Q708.5494,67.1745 708.9244,67.1745 L713.4994,67.1745 L713.4994,68.7307 Q713.4994,69.0964 713.3588,69.2557 Q713.2275,69.4057 712.9931,69.4057 Q712.7681,69.4057 712.6275,69.2557 Q712.4869,69.0964 712.4869,68.7307 L712.4869,68.1964 L710.1056,68.1964 L710.1056,69.6682 L710.9963,69.6682 Q710.9963,69.2745 711.0713,69.162 Q711.2306,68.9182 711.5119,68.9182 Q711.7369,68.9182 711.8775,69.0776 Q712.0181,69.2276 712.0181,69.5932 L712.0181,70.7745 Q712.0181,71.1026 711.9431,71.2151 Q711.7838,71.4495 711.5119,71.4495 Q711.2306,71.4495 711.0713,71.2057 Q710.9963,71.0932 710.9963,70.6901 L710.1056,70.6901 Z " fill="#000000"/><text fill="#000000" font-family="sans-serif" font-size="8.4" lengthAdjust="spacing" textLength="31.2" x="719.61" y="73.6901">Ranking</text><line style="stroke:#181818;stroke-width:0.3;" x1="700.5" x2="753.9" y1="79.812" y2="79.812"/><text fill="#000000" font-family="sans-serif" font-size="8.4" lengthAdjust="spacing" textLength="47.4" x="703.5" y="91.2765">&#171;root entity&#187;</text><line style="stroke:#181818;stroke-width:0.3;" x1="700.5" x2="753.9" y1="95.7847" y2="95.7847"/></g><!--class Rank--><g id="elem_Rank"><rect codeLine="8" fill="#F1F1F1" height="36.3492" id="Rank" rx="1.5" ry="1.5" style="stroke:#181818;stroke-width:0.3;" width="66.6" x="815.1" y="62.412"/><ellipse cx="824.1" cy="75.7866" fill="#F04800" rx="6.6" ry="6.6" style="stroke:#181818;stroke-width:0.6;"/><path d="M824.4563,77.746 L825.9375,74.221 L825.7031,74.221 Q825.3375,74.221 825.1781,74.0804 Q825.0188,73.9397 825.0188,73.7054 Q825.0188,73.4804 825.1781,73.3397 Q825.3375,73.1991 825.7031,73.1991 L827.0719,73.1991 Q827.4375,73.1991 827.5969,73.3397 Q827.7563,73.4804 827.7563,73.7054 Q827.7563,73.9866 827.5125,74.146 Q827.4,74.221 827.0437,74.221 L824.9531,79.2366 L823.9688,79.2366 L821.8781,74.221 Q821.5219,74.221 821.4094,74.146 Q821.1656,73.9866 821.1656,73.7054 Q821.1656,73.4804 821.325,73.3397 Q821.4844,73.1991 821.85,73.1991 L823.2281,73.1991 Q823.5938,73.1991 823.7438,73.3397 Q823.9031,73.4804 823.9031,73.7054 Q823.9031,73.9397 823.7438,74.0804 Q823.5938,74.221 823.2281,74.221 L822.9844,74.221 L824.4563,77.746 Z " fill="#000000"/><text fill="#000000" font-family="sans-serif" font-size="7.2" font-style="italic" lengthAdjust="spacing" textLength="49.8" x="831.3" y="73.1815">&#171;value Object&#187;</text><text fill="#000000" font-family="sans-serif" font-size="8.4" lengthAdjust="spacing" textLength="19.8" x="846.3" y="84.053">Rank</text><line style="stroke:#181818;stroke-width:0.3;" x1="815.7" x2="881.1" y1="89.1612" y2="89.1612"/><line style="stroke:#181818;stroke-width:0.3;" x1="815.7" x2="881.1" y1="93.9612" y2="93.9612"/></g><!--class JobOffer--><g id="elem_JobOffer"><rect codeLine="13" fill="#F1F1F1" height="39.9727" id="JobOffer" rx="1.5" ry="1.5" style="stroke:#181818;stroke-width:0.3;" width="54.6" x="762.3" y="163.212"/><ellipse cx="772.65" cy="172.812" fill="#ADD1B2" rx="6.6" ry="6.6" style="stroke:#181818;stroke-width:0.6;"/><path d="M771.9656,173.2901 L771.9656,174.7901 L774.5625,174.7901 L774.5625,174.237 Q774.5625,173.8714 774.7031,173.712 Q774.8531,173.5526 775.0781,173.5526 Q775.3031,173.5526 775.4438,173.712 Q775.5844,173.8714 775.5844,174.237 L775.5844,175.812 L770.7844,175.812 Q770.4094,175.812 770.25,175.6714 Q770.1,175.5307 770.1,175.2964 Q770.1,175.0714 770.2594,174.9308 Q770.4187,174.7901 770.7844,174.7901 L770.9438,174.7901 L770.9438,170.7964 L770.7844,170.7964 Q770.4094,170.7964 770.25,170.6557 Q770.1,170.5151 770.1,170.2807 Q770.1,170.0558 770.25,169.9151 Q770.4094,169.7745 770.7844,169.7745 L775.3594,169.7745 L775.3594,171.3308 Q775.3594,171.6964 775.2188,171.8557 Q775.0875,172.0057 774.8531,172.0057 Q774.6281,172.0057 774.4875,171.8557 Q774.3469,171.6964 774.3469,171.3308 L774.3469,170.7964 L771.9656,170.7964 L771.9656,172.2683 L772.8562,172.2683 Q772.8562,171.8745 772.9313,171.762 Q773.0906,171.5183 773.3719,171.5183 Q773.5969,171.5183 773.7375,171.6776 Q773.8781,171.8276 773.8781,172.1932 L773.8781,173.3745 Q773.8781,173.7026 773.8031,173.8151 Q773.6438,174.0495 773.3719,174.0495 Q773.0906,174.0495 772.9313,173.8058 Q772.8562,173.6932 772.8562,173.2901 L771.9656,173.2901 Z " fill="#000000"/><text fill="#000000" font-family="sans-serif" font-size="8.4" lengthAdjust="spacing" textLength="32.4" x="781.35" y="176.2901">JobOffer</text><line style="stroke:#181818;stroke-width:0.3;" x1="762.9" x2="816.3" y1="182.412" y2="182.412"/><text fill="#000000" font-family="sans-serif" font-size="8.4" lengthAdjust="spacing" textLength="47.4" x="765.9" y="193.8765">&#171;root entity&#187;</text><line style="stroke:#181818;stroke-width:0.3;" x1="762.9" x2="816.3" y1="198.3847" y2="198.3847"/></g><!--class JobRefCode--><g id="elem_JobRefCode"><rect codeLine="17" fill="#F1F1F1" height="36.3492" id="JobRefCode" rx="1.5" ry="1.5" style="stroke:#181818;stroke-width:0.3;" width="97.2" x="637.8" y="325.212"/><ellipse cx="646.8" cy="338.5866" fill="#F09000" rx="6.6" ry="6.6" style="stroke:#181818;stroke-width:0.6;"/><path d="M647.1563,340.546 L648.6375,337.021 L648.4031,337.021 Q648.0375,337.021 647.8781,336.8804 Q647.7188,336.7397 647.7188,336.5054 Q647.7188,336.2804 647.8781,336.1397 Q648.0375,335.9991 648.4031,335.9991 L649.7719,335.9991 Q650.1375,335.9991 650.2969,336.1397 Q650.4563,336.2804 650.4563,336.5054 Q650.4563,336.7866 650.2125,336.946 Q650.1,337.021 649.7438,337.021 L647.6531,342.0366 L646.6687,342.0366 L644.5781,337.021 Q644.2219,337.021 644.1094,336.946 Q643.8656,336.7866 643.8656,336.5054 Q643.8656,336.2804 644.025,336.1397 Q644.1844,335.9991 644.55,335.9991 L645.9281,335.9991 Q646.2937,335.9991 646.4438,336.1397 Q646.6031,336.2804 646.6031,336.5054 Q646.6031,336.7397 646.4438,336.8804 Q646.2937,337.021 645.9281,337.021 L645.6844,337.021 L647.1563,340.546 Z " fill="#000000"/><text fill="#000000" font-family="sans-serif" font-size="7.2" font-style="italic" lengthAdjust="spacing" textLength="80.4" x="654" y="335.9815">&#171;Identifier value Object&#187;</text><text fill="#000000" font-family="sans-serif" font-size="8.4" lengthAdjust="spacing" textLength="46.8" x="670.8" y="346.853">JobRefCode</text><line style="stroke:#181818;stroke-width:0.3;" x1="638.4" x2="734.4" y1="351.9612" y2="351.9612"/><line style="stroke:#181818;stroke-width:0.3;" x1="638.4" x2="734.4" y1="356.7612" y2="356.7612"/></g><!--class JobTitle--><g id="elem_JobTitle"><rect codeLine="18" fill="#F1F1F1" height="36.3492" id="JobTitle" rx="1.5" ry="1.5" style="stroke:#181818;stroke-width:0.3;" width="66.6" x="756.3" y="325.212"/><ellipse cx="765.3" cy="338.5866" fill="#F04800" rx="6.6" ry="6.6" style="stroke:#181818;stroke-width:0.6;"/><path d="M765.6563,340.546 L767.1375,337.021 L766.9031,337.021 Q766.5375,337.021 766.3781,336.8804 Q766.2188,336.7397 766.2188,336.5054 Q766.2188,336.2804 766.3781,336.1397 Q766.5375,335.9991 766.9031,335.9991 L768.2719,335.9991 Q768.6375,335.9991 768.7969,336.1397 Q768.9563,336.2804 768.9563,336.5054 Q768.9563,336.7866 768.7125,336.946 Q768.6,337.021 768.2438,337.021 L766.1531,342.0366 L765.1687,342.0366 L763.0781,337.021 Q762.7219,337.021 762.6094,336.946 Q762.3656,336.7866 762.3656,336.5054 Q762.3656,336.2804 762.525,336.1397 Q762.6844,335.9991 763.05,335.9991 L764.4281,335.9991 Q764.7937,335.9991 764.9438,336.1397 Q765.1031,336.2804 765.1031,336.5054 Q765.1031,336.7397 764.9438,336.8804 Q764.7937,337.021 764.4281,337.021 L764.1844,337.021 L765.6563,340.546 Z " fill="#000000"/><text fill="#000000" font-family="sans-serif" font-size="7.2" font-style="italic" lengthAdjust="spacing" textLength="49.8" x="772.5" y="335.9815">&#171;value Object&#187;</text><text fill="#000000" font-family="sans-serif" font-size="8.4" lengthAdjust="spacing" textLength="29.4" x="782.7" y="346.853">JobTitle</text><line style="stroke:#181818;stroke-width:0.3;" x1="756.9" x2="822.3" y1="351.9612" y2="351.9612"/><line style="stroke:#181818;stroke-width:0.3;" x1="756.9" x2="822.3" y1="356.7612" y2="356.7612"/></g><!--class ContractType--><g id="elem_ContractType"><rect codeLine="19" fill="#F1F1F1" height="36.3492" id="ContractType" rx="1.5" ry="1.5" style="stroke:#181818;stroke-width:0.3;" width="70.8" x="844.2" y="325.212"/><ellipse cx="853.2" cy="338.5866" fill="#F04800" rx="6.6" ry="6.6" style="stroke:#181818;stroke-width:0.6;"/><path d="M853.5563,340.546 L855.0375,337.021 L854.8031,337.021 Q854.4375,337.021 854.2781,336.8804 Q854.1188,336.7397 854.1188,336.5054 Q854.1188,336.2804 854.2781,336.1397 Q854.4375,335.9991 854.8031,335.9991 L856.1719,335.9991 Q856.5375,335.9991 856.6969,336.1397 Q856.8562,336.2804 856.8562,336.5054 Q856.8562,336.7866 856.6125,336.946 Q856.5,337.021 856.1438,337.021 L854.0531,342.0366 L853.0688,342.0366 L850.9781,337.021 Q850.6219,337.021 850.5094,336.946 Q850.2656,336.7866 850.2656,336.5054 Q850.2656,336.2804 850.425,336.1397 Q850.5844,335.9991 850.95,335.9991 L852.3281,335.9991 Q852.6938,335.9991 852.8438,336.1397 Q853.0031,336.2804 853.0031,336.5054 Q853.0031,336.7397 852.8438,336.8804 Q852.6938,337.021 852.3281,337.021 L852.0844,337.021 L853.5563,340.546 Z " fill="#000000"/><text fill="#000000" font-family="sans-serif" font-size="7.2" font-style="italic" lengthAdjust="spacing" textLength="49.8" x="862.5" y="335.9815">&#171;value Object&#187;</text><text fill="#000000" font-family="sans-serif" font-size="8.4" lengthAdjust="spacing" textLength="51.6" x="861.6" y="346.853">ContractType</text><line style="stroke:#181818;stroke-width:0.3;" x1="844.8" x2="914.4" y1="351.9612" y2="351.9612"/><line style="stroke:#181818;stroke-width:0.3;" x1="844.8" x2="914.4" y1="356.7612" y2="356.7612"/></g><!--class JobMode--><g id="elem_JobMode"><rect codeLine="20" fill="#F1F1F1" height="36.3492" id="JobMode" rx="1.5" ry="1.5" style="stroke:#181818;stroke-width:0.3;" width="66.6" x="936.3" y="325.212"/><ellipse cx="945.3" cy="338.5866" fill="#F04800" rx="6.6" ry="6.6" style="stroke:#181818;stroke-width:0.6;"/><path d="M945.6563,340.546 L947.1375,337.021 L946.9031,337.021 Q946.5375,337.021 946.3781,336.8804 Q946.2188,336.7397 946.2188,336.5054 Q946.2188,336.2804 946.3781,336.1397 Q946.5375,335.9991 946.9031,335.9991 L948.2719,335.9991 Q948.6375,335.9991 948.7969,336.1397 Q948.9563,336.2804 948.9563,336.5054 Q948.9563,336.7866 948.7125,336.946 Q948.6,337.021 948.2438,337.021 L946.1531,342.0366 L945.1687,342.0366 L943.0781,337.021 Q942.7219,337.021 942.6094,336.946 Q942.3656,336.7866 942.3656,336.5054 Q942.3656,336.2804 942.525,336.1397 Q942.6844,335.9991 943.05,335.9991 L944.4281,335.9991 Q944.7937,335.9991 944.9437,336.1397 Q945.1031,336.2804 945.1031,336.5054 Q945.1031,336.7397 944.9437,336.8804 Q944.7937,337.021 944.4281,337.021 L944.1844,337.021 L945.6563,340.546 Z " fill="#000000"/><text fill="#000000" font-family="sans-serif" font-size="7.2" font-style="italic" lengthAdjust="spacing" textLength="49.8" x="952.5" y="335.9815">&#171;value Object&#187;</text><text fill="#000000" font-family="sans-serif" font-size="8.4" lengthAdjust="spacing" textLength="34.2" x="960.3" y="346.853">JobMode</text><line style="stroke:#181818;stroke-width:0.3;" x1="936.9" x2="1002.3" y1="351.9612" y2="351.9612"/><line style="stroke:#181818;stroke-width:0.3;" x1="936.9" x2="1002.3" y1="356.7612" y2="356.7612"/></g><!--class NumberOfVacancies--><g id="elem_NumberOfVacancies"><rect codeLine="21" fill="#F1F1F1" height="36.3492" id="NumberOfVacancies" rx="1.5" ry="1.5" style="stroke:#181818;stroke-width:0.3;" width="96.6" x="1023.9" y="325.212"/><ellipse cx="1032.9" cy="338.5866" fill="#F04800" rx="6.6" ry="6.6" style="stroke:#181818;stroke-width:0.6;"/><path d="M1033.2563,340.546 L1034.7375,337.021 L1034.5031,337.021 Q1034.1375,337.021 1033.9781,336.8804 Q1033.8188,336.7397 1033.8188,336.5054 Q1033.8188,336.2804 1033.9781,336.1397 Q1034.1375,335.9991 1034.5031,335.9991 L1035.8719,335.9991 Q1036.2375,335.9991 1036.3969,336.1397 Q1036.5562,336.2804 1036.5562,336.5054 Q1036.5562,336.7866 1036.3125,336.946 Q1036.2,337.021 1035.8438,337.021 L1033.7531,342.0366 L1032.7688,342.0366 L1030.6781,337.021 Q1030.3219,337.021 1030.2094,336.946 Q1029.9656,336.7866 1029.9656,336.5054 Q1029.9656,336.2804 1030.125,336.1397 Q1030.2844,335.9991 1030.65,335.9991 L1032.0281,335.9991 Q1032.3938,335.9991 1032.5438,336.1397 Q1032.7031,336.2804 1032.7031,336.5054 Q1032.7031,336.7397 1032.5438,336.8804 Q1032.3938,337.021 1032.0281,337.021 L1031.7844,337.021 L1033.2563,340.546 Z " fill="#000000"/><text fill="#000000" font-family="sans-serif" font-size="7.2" font-style="italic" lengthAdjust="spacing" textLength="49.8" x="1055.1" y="335.9815">&#171;value Object&#187;</text><text fill="#000000" font-family="sans-serif" font-size="8.4" lengthAdjust="spacing" textLength="77.4" x="1041.3" y="346.853">NumberOfVacancies</text><line style="stroke:#181818;stroke-width:0.3;" x1="1024.5" x2="1119.9" y1="351.9612" y2="351.9612"/><line style="stroke:#181818;stroke-width:0.3;" x1="1024.5" x2="1119.9" y1="356.7612" y2="356.7612"/></g><!--class Application--><g id="elem_Application"><rect codeLine="26" fill="#F1F1F1" height="39.9727" id="Application" rx="1.5" ry="1.5" style="stroke:#181818;stroke-width:0.3;" width="60.6" x="402.9" y="60.612"/><ellipse cx="411.9" cy="70.212" fill="#ADD1B2" rx="6.6" ry="6.6" style="stroke:#181818;stroke-width:0.6;"/><path d="M411.2156,70.6901 L411.2156,72.1901 L413.8125,72.1901 L413.8125,71.637 Q413.8125,71.2714 413.9531,71.112 Q414.1031,70.9526 414.3281,70.9526 Q414.5531,70.9526 414.6937,71.112 Q414.8344,71.2714 414.8344,71.637 L414.8344,73.212 L410.0344,73.212 Q409.6594,73.212 409.5,73.0714 Q409.35,72.9307 409.35,72.6964 Q409.35,72.4714 409.5094,72.3307 Q409.6688,72.1901 410.0344,72.1901 L410.1937,72.1901 L410.1937,68.1964 L410.0344,68.1964 Q409.6594,68.1964 409.5,68.0557 Q409.35,67.9151 409.35,67.6807 Q409.35,67.4557 409.5,67.3151 Q409.6594,67.1745 410.0344,67.1745 L414.6094,67.1745 L414.6094,68.7307 Q414.6094,69.0964 414.4688,69.2557 Q414.3375,69.4057 414.1031,69.4057 Q413.8781,69.4057 413.7375,69.2557 Q413.5969,69.0964 413.5969,68.7307 L413.5969,68.1964 L411.2156,68.1964 L411.2156,69.6682 L412.1063,69.6682 Q412.1063,69.2745 412.1813,69.162 Q412.3406,68.9182 412.6219,68.9182 Q412.8469,68.9182 412.9875,69.0776 Q413.1281,69.2276 413.1281,69.5932 L413.1281,70.7745 Q413.1281,71.1026 413.0531,71.2151 Q412.8938,71.4495 412.6219,71.4495 Q412.3406,71.4495 412.1813,71.2057 Q412.1063,71.0932 412.1063,70.6901 L411.2156,70.6901 Z " fill="#000000"/><text fill="#000000" font-family="sans-serif" font-size="8.4" lengthAdjust="spacing" textLength="41.4" x="420.3" y="73.6901">Application</text><line style="stroke:#181818;stroke-width:0.3;" x1="403.5" x2="462.9" y1="79.812" y2="79.812"/><text fill="#000000" font-family="sans-serif" font-size="8.4" lengthAdjust="spacing" textLength="47.4" x="406.5" y="91.2765">&#171;root entity&#187;</text><line style="stroke:#181818;stroke-width:0.3;" x1="403.5" x2="462.9" y1="95.7847" y2="95.7847"/></g><!--class ApplicationAttachedFile--><g id="elem_ApplicationAttachedFile"><rect codeLine="30" fill="#F1F1F1" height="36.3492" id="ApplicationAttachedFile" rx="1.5" ry="1.5" style="stroke:#181818;stroke-width:0.3;" width="108" x="13.2" y="165.012"/><ellipse cx="22.2" cy="178.3866" fill="#F04800" rx="6.6" ry="6.6" style="stroke:#181818;stroke-width:0.6;"/><path d="M22.5563,180.346 L24.0375,176.821 L23.8031,176.821 Q23.4375,176.821 23.2781,176.6804 Q23.1188,176.5397 23.1188,176.3054 Q23.1188,176.0804 23.2781,175.9397 Q23.4375,175.7991 23.8031,175.7991 L25.1719,175.7991 Q25.5375,175.7991 25.6969,175.9397 Q25.8563,176.0804 25.8563,176.3054 Q25.8563,176.5866 25.6125,176.746 Q25.5,176.821 25.1438,176.821 L23.0531,181.8366 L22.0687,181.8366 L19.9781,176.821 Q19.6219,176.821 19.5094,176.746 Q19.2656,176.5866 19.2656,176.3054 Q19.2656,176.0804 19.425,175.9397 Q19.5844,175.7991 19.95,175.7991 L21.3281,175.7991 Q21.6937,175.7991 21.8438,175.9397 Q22.0031,176.0804 22.0031,176.3054 Q22.0031,176.5397 21.8438,176.6804 Q21.6937,176.821 21.3281,176.821 L21.0844,176.821 L22.5563,180.346 Z " fill="#000000"/><text fill="#000000" font-family="sans-serif" font-size="7.2" font-style="italic" lengthAdjust="spacing" textLength="49.8" x="50.1" y="175.7815">&#171;value Object&#187;</text><text fill="#000000" font-family="sans-serif" font-size="8.4" lengthAdjust="spacing" textLength="88.8" x="30.6" y="186.653">ApplicationAttachedFile</text><line style="stroke:#181818;stroke-width:0.3;" x1="13.8" x2="120.6" y1="191.7612" y2="191.7612"/><line style="stroke:#181818;stroke-width:0.3;" x1="13.8" x2="120.6" y1="196.5612" y2="196.5612"/></g><!--class ApplicationRefCode--><g id="elem_ApplicationRefCode"><rect codeLine="31" fill="#F1F1F1" height="36.3492" id="ApplicationRefCode" rx="1.5" ry="1.5" style="stroke:#181818;stroke-width:0.3;" width="97.2" x="142.2" y="165.012"/><ellipse cx="151.2" cy="178.3866" fill="#F09000" rx="6.6" ry="6.6" style="stroke:#181818;stroke-width:0.6;"/><path d="M151.5563,180.346 L153.0375,176.821 L152.8031,176.821 Q152.4375,176.821 152.2781,176.6804 Q152.1188,176.5397 152.1188,176.3054 Q152.1188,176.0804 152.2781,175.9397 Q152.4375,175.7991 152.8031,175.7991 L154.1719,175.7991 Q154.5375,175.7991 154.6969,175.9397 Q154.8563,176.0804 154.8563,176.3054 Q154.8563,176.5866 154.6125,176.746 Q154.5,176.821 154.1437,176.821 L152.0531,181.8366 L151.0688,181.8366 L148.9781,176.821 Q148.6219,176.821 148.5094,176.746 Q148.2656,176.5866 148.2656,176.3054 Q148.2656,176.0804 148.425,175.9397 Q148.5844,175.7991 148.95,175.7991 L150.3281,175.7991 Q150.6938,175.7991 150.8438,175.9397 Q151.0031,176.0804 151.0031,176.3054 Q151.0031,176.5397 150.8438,176.6804 Q150.6938,176.821 150.3281,176.821 L150.0844,176.821 L151.5563,180.346 Z " fill="#000000"/><text fill="#000000" font-family="sans-serif" font-size="7.2" font-style="italic" lengthAdjust="spacing" textLength="80.4" x="158.4" y="175.7815">&#171;Identifier value Object&#187;</text><text fill="#000000" font-family="sans-serif" font-size="8.4" lengthAdjust="spacing" textLength="75" x="161.1" y="186.653">ApplicationRefCode</text><line style="stroke:#181818;stroke-width:0.3;" x1="142.8" x2="238.8" y1="191.7612" y2="191.7612"/><line style="stroke:#181818;stroke-width:0.3;" x1="142.8" x2="238.8" y1="196.5612" y2="196.5612"/></g><!--class ApplicationAttachedFilesLocation--><g id="elem_ApplicationAttachedFilesLocation"><rect codeLine="32" fill="#F1F1F1" height="36.3492" id="ApplicationAttachedFilesLocation" rx="1.5" ry="1.5" style="stroke:#181818;stroke-width:0.3;" width="144.6" x="260.7" y="165.012"/><ellipse cx="269.7" cy="178.3866" fill="#F04800" rx="6.6" ry="6.6" style="stroke:#181818;stroke-width:0.6;"/><path d="M270.0563,180.346 L271.5375,176.821 L271.3031,176.821 Q270.9375,176.821 270.7781,176.6804 Q270.6188,176.5397 270.6188,176.3054 Q270.6188,176.0804 270.7781,175.9397 Q270.9375,175.7991 271.3031,175.7991 L272.6719,175.7991 Q273.0375,175.7991 273.1969,175.9397 Q273.3563,176.0804 273.3563,176.3054 Q273.3563,176.5866 273.1125,176.746 Q273,176.821 272.6438,176.821 L270.5531,181.8366 L269.5687,181.8366 L267.4781,176.821 Q267.1219,176.821 267.0094,176.746 Q266.7656,176.5866 266.7656,176.3054 Q266.7656,176.0804 266.925,175.9397 Q267.0844,175.7991 267.45,175.7991 L268.8281,175.7991 Q269.1937,175.7991 269.3438,175.9397 Q269.5031,176.0804 269.5031,176.3054 Q269.5031,176.5397 269.3438,176.6804 Q269.1937,176.821 268.8281,176.821 L268.5844,176.821 L270.0563,180.346 Z " fill="#000000"/><text fill="#000000" font-family="sans-serif" font-size="7.2" font-style="italic" lengthAdjust="spacing" textLength="49.8" x="315.9" y="175.7815">&#171;value Object&#187;</text><text fill="#000000" font-family="sans-serif" font-size="8.4" lengthAdjust="spacing" textLength="125.4" x="278.1" y="186.653">ApplicationAttachedFilesLocation</text><line style="stroke:#181818;stroke-width:0.3;" x1="261.3" x2="404.7" y1="191.7612" y2="191.7612"/><line style="stroke:#181818;stroke-width:0.3;" x1="261.3" x2="404.7" y1="196.5612" y2="196.5612"/></g><!--class InterviewGrade--><g id="elem_InterviewGrade"><rect codeLine="33" fill="#F1F1F1" height="36.3492" id="InterviewGrade" rx="1.5" ry="1.5" style="stroke:#181818;stroke-width:0.3;" width="76.2" x="426.3" y="165.012"/><ellipse cx="435.3" cy="178.3866" fill="#F04800" rx="6.6" ry="6.6" style="stroke:#181818;stroke-width:0.6;"/><path d="M435.6563,180.346 L437.1375,176.821 L436.9031,176.821 Q436.5375,176.821 436.3781,176.6804 Q436.2188,176.5397 436.2188,176.3054 Q436.2188,176.0804 436.3781,175.9397 Q436.5375,175.7991 436.9031,175.7991 L438.2719,175.7991 Q438.6375,175.7991 438.7969,175.9397 Q438.9563,176.0804 438.9563,176.3054 Q438.9563,176.5866 438.7125,176.746 Q438.6,176.821 438.2438,176.821 L436.1531,181.8366 L435.1688,181.8366 L433.0781,176.821 Q432.7219,176.821 432.6094,176.746 Q432.3656,176.5866 432.3656,176.3054 Q432.3656,176.0804 432.525,175.9397 Q432.6844,175.7991 433.05,175.7991 L434.4281,175.7991 Q434.7938,175.7991 434.9437,175.9397 Q435.1031,176.0804 435.1031,176.3054 Q435.1031,176.5397 434.9437,176.6804 Q434.7938,176.821 434.4281,176.821 L434.1844,176.821 L435.6563,180.346 Z " fill="#000000"/><text fill="#000000" font-family="sans-serif" font-size="7.2" font-style="italic" lengthAdjust="spacing" textLength="49.8" x="447.3" y="175.7815">&#171;value Object&#187;</text><text fill="#000000" font-family="sans-serif" font-size="8.4" lengthAdjust="spacing" textLength="57" x="443.7" y="186.653">InterviewGrade</text><line style="stroke:#181818;stroke-width:0.3;" x1="426.9" x2="501.9" y1="191.7612" y2="191.7612"/><line style="stroke:#181818;stroke-width:0.3;" x1="426.9" x2="501.9" y1="196.5612" y2="196.5612"/></g><!--class ApplicationState--><g id="elem_ApplicationState"><rect codeLine="34" fill="#F1F1F1" height="36.3492" id="ApplicationState" rx="1.5" ry="1.5" style="stroke:#181818;stroke-width:0.3;" width="80.4" x="523.8" y="165.012"/><ellipse cx="532.8" cy="178.3866" fill="#F04800" rx="6.6" ry="6.6" style="stroke:#181818;stroke-width:0.6;"/><path d="M533.1563,180.346 L534.6375,176.821 L534.4031,176.821 Q534.0375,176.821 533.8781,176.6804 Q533.7188,176.5397 533.7188,176.3054 Q533.7188,176.0804 533.8781,175.9397 Q534.0375,175.7991 534.4031,175.7991 L535.7719,175.7991 Q536.1375,175.7991 536.2969,175.9397 Q536.4563,176.0804 536.4563,176.3054 Q536.4563,176.5866 536.2125,176.746 Q536.1,176.821 535.7438,176.821 L533.6531,181.8366 L532.6687,181.8366 L530.5781,176.821 Q530.2219,176.821 530.1094,176.746 Q529.8656,176.5866 529.8656,176.3054 Q529.8656,176.0804 530.025,175.9397 Q530.1844,175.7991 530.55,175.7991 L531.9281,175.7991 Q532.2937,175.7991 532.4438,175.9397 Q532.6031,176.0804 532.6031,176.3054 Q532.6031,176.5397 532.4438,176.6804 Q532.2937,176.821 531.9281,176.821 L531.6844,176.821 L533.1563,180.346 Z " fill="#000000"/><text fill="#000000" font-family="sans-serif" font-size="7.2" font-style="italic" lengthAdjust="spacing" textLength="49.8" x="546.9" y="175.7815">&#171;value Object&#187;</text><text fill="#000000" font-family="sans-serif" font-size="8.4" lengthAdjust="spacing" textLength="61.2" x="541.2" y="186.653">ApplicationState</text><line style="stroke:#181818;stroke-width:0.3;" x1="524.4" x2="603.6" y1="191.7612" y2="191.7612"/><line style="stroke:#181818;stroke-width:0.3;" x1="524.4" x2="603.6" y1="196.5612" y2="196.5612"/></g><!--class ApplicationEmail--><g id="elem_ApplicationEmail"><rect codeLine="35" fill="#F1F1F1" height="36.3492" id="ApplicationEmail" rx="1.5" ry="1.5" style="stroke:#181818;stroke-width:0.3;" width="81" x="522.9" y="62.412"/><ellipse cx="531.9" cy="75.7866" fill="#F04800" rx="6.6" ry="6.6" style="stroke:#181818;stroke-width:0.6;"/><path d="M532.2563,77.746 L533.7375,74.221 L533.5031,74.221 Q533.1375,74.221 532.9781,74.0804 Q532.8188,73.9397 532.8188,73.7054 Q532.8188,73.4804 532.9781,73.3397 Q533.1375,73.1991 533.5031,73.1991 L534.8719,73.1991 Q535.2375,73.1991 535.3969,73.3397 Q535.5563,73.4804 535.5563,73.7054 Q535.5563,73.9866 535.3125,74.146 Q535.2,74.221 534.8438,74.221 L532.7531,79.2366 L531.7688,79.2366 L529.6781,74.221 Q529.3219,74.221 529.2094,74.146 Q528.9656,73.9866 528.9656,73.7054 Q528.9656,73.4804 529.125,73.3397 Q529.2844,73.1991 529.65,73.1991 L531.0281,73.1991 Q531.3938,73.1991 531.5437,73.3397 Q531.7031,73.4804 531.7031,73.7054 Q531.7031,73.9397 531.5437,74.0804 Q531.3938,74.221 531.0281,74.221 L530.7844,74.221 L532.2563,77.746 Z " fill="#000000"/><text fill="#000000" font-family="sans-serif" font-size="7.2" font-style="italic" lengthAdjust="spacing" textLength="49.8" x="546.3" y="73.1815">&#171;value Object&#187;</text><text fill="#000000" font-family="sans-serif" font-size="8.4" lengthAdjust="spacing" textLength="61.8" x="540.3" y="84.053">ApplicationEmail</text><line style="stroke:#181818;stroke-width:0.3;" x1="523.5" x2="603.3" y1="89.1612" y2="89.1612"/><line style="stroke:#181818;stroke-width:0.3;" x1="523.5" x2="603.3" y1="93.9612" y2="93.9612"/></g><!--link Application to JobOffer--><g id="link_Application_JobOffer"><path codeLine="39" d="M463.518,96.642 C477.978,103.338 495.732,110.682 512.4,115.212 C528.744,119.652 533.562,116.85 550.2,120.012 C628.074,134.814 714.6046,159.8042 758.7886,173.1902 " fill="none" id="Application-to-JobOffer" style="stroke:#181818;stroke-width:0.6;"/><polygon fill="#181818" points="762.234,174.234,757.7618,170.3714,759.3629,173.3642,756.3701,174.9652,762.234,174.234" style="stroke:#181818;stroke-width:0.6;"/><polygon fill="#000000" points="609.504,126.5522,604.6931,123.4833,603.8081,126.8972,609.504,126.5522" style="stroke:#000000;stroke-width:0.6;"/><text fill="#000000" font-family="sans-serif" font-size="7.8" lengthAdjust="spacing" textLength="36.6" x="612" y="129.029">pertains to</text><text fill="#000000" font-family="sans-serif" font-size="7.8" lengthAdjust="spacing" textLength="3" x="468.3901" y="96.5481">*</text><text fill="#000000" font-family="sans-serif" font-size="7.8" lengthAdjust="spacing" textLength="4.2" x="753.3379" y="170.2234">1</text></g><!--link Application to ApplicationEmail--><g id="link_Application_ApplicationEmail"><path codeLine="40" d="M463.56,80.712 C481.218,80.712 503.7,80.712 522.858,80.712 " fill="none" id="Application-ApplicationEmail" style="stroke:#181818;stroke-width:0.6;"/><polygon fill="#000000" points="480,73.2993,474.5729,71.5359,474.5729,75.0627,480,73.2993" style="stroke:#000000;stroke-width:0.6;"/><text fill="#000000" font-family="sans-serif" font-size="7.8" lengthAdjust="spacing" textLength="29.4" x="482.4" y="76.529">contains</text><text fill="#000000" font-family="sans-serif" font-size="7.8" lengthAdjust="spacing" textLength="4.2" x="468.3276" y="78.2094">1</text><text fill="#000000" font-family="sans-serif" font-size="7.8" lengthAdjust="spacing" textLength="4.2" x="513.994" y="78.3944">1</text></g><!--link Application to ApplicationRefCode--><g id="link_Application_ApplicationRefCode"><path codeLine="41" d="M402.894,86.79 C365.49,94.35 300.642,110.094 250.2,136.212 C235.548,143.802 220.926,155.184 209.862,164.79 " fill="none" id="Application-ApplicationRefCode" style="stroke:#181818;stroke-width:0.6;"/><polygon fill="#000000" points="289.5815,124.6754,283.8891,125.0737,285.2104,128.3435,289.5815,124.6754" style="stroke:#000000;stroke-width:0.6;"/><text fill="#000000" font-family="sans-serif" font-size="7.8" lengthAdjust="spacing" textLength="33.6" x="292.2" y="129.029">describes</text><text fill="#000000" font-family="sans-serif" font-size="7.8" lengthAdjust="spacing" textLength="4.2" x="393.9344" y="96.8783">1</text><text fill="#000000" font-family="sans-serif" font-size="7.8" lengthAdjust="spacing" textLength="4.2" x="209.1604" y="158.1788">1</text></g><!--link Application to ApplicationAttachedFile--><g id="link_Application_ApplicationAttachedFile"><path codeLine="42" d="M402.804,82.41 C346.908,85.374 224.952,96.282 131.4,136.212 C115.074,143.178 98.898,154.932 86.868,164.88 " fill="none" id="Application-ApplicationAttachedFile" style="stroke:#181818;stroke-width:0.6;"/><polygon fill="#000000" points="170.4973,126.557,176.1937,126.8925,175.303,123.4801,170.4973,126.557" style="stroke:#000000;stroke-width:0.6;"/><text fill="#000000" font-family="sans-serif" font-size="7.8" lengthAdjust="spacing" textLength="29.4" x="178.8" y="129.029">contains</text><text fill="#000000" font-family="sans-serif" font-size="7.8" lengthAdjust="spacing" textLength="4.2" x="393.8312" y="80.1568">1</text><text fill="#000000" font-family="sans-serif" font-size="7.8" lengthAdjust="spacing" textLength="3" x="87.6152" y="158.2874">*</text></g><!--link Application to ApplicationAttachedFilesLocation--><g id="link_Application_ApplicationAttachedFilesLocation"><path codeLine="43" d="M413.88,100.86 C395.568,119.394 368.298,146.988 350.58,164.916 " fill="none" id="Application-ApplicationAttachedFilesLocation" style="stroke:#181818;stroke-width:0.6;"/><polygon fill="#000000" points="393.2913,127.9332,398.3602,125.3124,395.8517,122.8335,393.2913,127.9332" style="stroke:#000000;stroke-width:0.6;"/><text fill="#000000" font-family="sans-serif" font-size="7.8" lengthAdjust="spacing" textLength="29.4" x="400.8" y="129.029">contains</text><text fill="#000000" font-family="sans-serif" font-size="7.8" lengthAdjust="spacing" textLength="4.2" x="405.8646" y="113.8101">1</text><text fill="#000000" font-family="sans-serif" font-size="7.8" lengthAdjust="spacing" textLength="4.2" x="349.5727" y="158.3308">1</text></g><!--link Application to ApplicationState--><g id="link_Application_ApplicationState"><path codeLine="44" d="M463.674,100.44 C478.95,110.478 497.454,123.348 513,136.212 C523.986,145.302 535.776,155.988 545.25,164.826 " fill="none" id="Application-ApplicationState" style="stroke:#181818;stroke-width:0.6;"/><polygon fill="#000000" points="512.3549,127.658,509.1874,122.9115,507.0024,125.6798,512.3549,127.658" style="stroke:#000000;stroke-width:0.6;"/><text fill="#000000" font-family="sans-serif" font-size="7.8" lengthAdjust="spacing" textLength="29.4" x="515.4" y="129.029">contains</text><text fill="#000000" font-family="sans-serif" font-size="7.8" lengthAdjust="spacing" textLength="4.2" x="465.0601" y="113.7846">1</text><text fill="#000000" font-family="sans-serif" font-size="7.8" lengthAdjust="spacing" textLength="4.2" x="536.7497" y="158.2222">1</text></g><!--link Application to InterviewGrade--><g id="link_Application_InterviewGrade"><path codeLine="45" d="M439.218,100.86 C444.918,119.394 453.408,146.988 458.928,164.916 " fill="none" id="Application-InterviewGrade" style="stroke:#181818;stroke-width:0.6;"/><polygon fill="#000000" points="452.0823,128.6666,452.1716,122.961,448.8008,123.9982,452.0823,128.6666" style="stroke:#000000;stroke-width:0.6;"/><text fill="#000000" font-family="sans-serif" font-size="7.8" lengthAdjust="spacing" textLength="29.4" x="456.6" y="129.029">contains</text><text fill="#000000" font-family="sans-serif" font-size="7.8" lengthAdjust="spacing" textLength="4.2" x="435.7159" y="113.8101">1</text><text fill="#000000" font-family="sans-serif" font-size="7.8" lengthAdjust="spacing" textLength="4.2" x="453.1663" y="158.3308">1</text></g><!--link JobOffer to JobRefCode--><g id="link_JobOffer_JobRefCode"><path codeLine="47" d="M776.844,203.568 C756.618,234.726 717.504,294.99 698.016,325.014 " fill="none" id="JobOffer-JobRefCode" style="stroke:#181818;stroke-width:0.6;"/><polygon fill="#000000" points="745.0333,261.8829,740.5995,265.4751,743.5577,267.3952,745.0333,261.8829" style="stroke:#000000;stroke-width:0.6;"/><text fill="#000000" font-family="sans-serif" font-size="7.8" lengthAdjust="spacing" textLength="30.6" x="748.8" y="267.629">identifies</text><text fill="#000000" font-family="sans-serif" font-size="7.8" lengthAdjust="spacing" textLength="4.2" x="770.0906" y="216.3776">1</text><text fill="#000000" font-family="sans-serif" font-size="7.8" lengthAdjust="spacing" textLength="4.2" x="695.7787" y="318.4078">1</text></g><!--link JobOffer to JobTitle--><g id="link_JobOffer_JobTitle"><path codeLine="48" d="M789.6,203.568 C789.6,234.726 789.6,294.99 789.6,325.014 " fill="none" id="JobOffer-JobTitle" style="stroke:#181818;stroke-width:0.6;"/><polygon fill="#000000" points="792.6,261.3993,790.8366,266.8264,794.3634,266.8264,792.6,261.3993" style="stroke:#000000;stroke-width:0.6;"/><text fill="#000000" font-family="sans-serif" font-size="7.8" lengthAdjust="spacing" textLength="33.6" x="798" y="267.629">describes</text><text fill="#000000" font-family="sans-serif" font-size="7.8" lengthAdjust="spacing" textLength="4.2" x="785.0391" y="216.3776">1</text><text fill="#000000" font-family="sans-serif" font-size="7.8" lengthAdjust="spacing" textLength="4.2" x="784.9669" y="318.4078">1</text></g><!--link JobOffer to ContractType--><g id="link_JobOffer_ContractType"><path codeLine="49" d="M802.812,203.562 C812.634,218.442 826.152,239.514 837,258.612 C849.756,281.07 862.944,307.8 871.2,325.05 " fill="none" id="JobOffer-ContractType" style="stroke:#181818;stroke-width:0.6;"/><polygon fill="#000000" points="844.5284,261.785,845.6539,267.3793,848.7272,265.6493,844.5284,261.785" style="stroke:#000000;stroke-width:0.6;"/><text fill="#000000" font-family="sans-serif" font-size="7.8" lengthAdjust="spacing" textLength="33.6" x="851.4" y="267.629">describes</text><text fill="#000000" font-family="sans-serif" font-size="7.8" lengthAdjust="spacing" textLength="4.2" x="800.5219" y="216.3706">1</text><text fill="#000000" font-family="sans-serif" font-size="7.8" lengthAdjust="spacing" textLength="4.2" x="864.8344" y="318.4512">1</text></g><!--link JobOffer to JobMode--><g id="link_JobOffer_JobMode"><path codeLine="50" d="M816.93,202.17 C837.804,216.588 866.886,237.69 890.4,258.612 C914.328,279.906 939.186,307.386 954.522,325.086 " fill="none" id="JobOffer-JobMode" style="stroke:#181818;stroke-width:0.6;"/><polygon fill="#000000" points="902.5627,262.4007,905.4352,267.3313,907.7848,264.7012,902.5627,262.4007" style="stroke:#000000;stroke-width:0.6;"/><text fill="#000000" font-family="sans-serif" font-size="7.8" lengthAdjust="spacing" textLength="33.6" x="910.2" y="267.629">describes</text><text fill="#000000" font-family="sans-serif" font-size="7.8" lengthAdjust="spacing" textLength="4.2" x="821.6204" y="214.4373">1</text><text fill="#000000" font-family="sans-serif" font-size="7.8" lengthAdjust="spacing" textLength="4.2" x="946.779" y="318.4946">1</text></g><!--link JobOffer to NumberOfVacancies--><g id="link_JobOffer_NumberOfVacancies"><path codeLine="51" d="M817.104,195.162 C849.462,208.764 904.446,233.028 949.2,258.612 C985.272,279.234 1024.464,307.134 1048.68,325.08 " fill="none" id="JobOffer-NumberOfVacancies" style="stroke:#181818;stroke-width:0.6;"/><polygon fill="#000000" points="968.1836,262.9315,972.0539,267.1247,973.7795,264.0489,968.1836,262.9315" style="stroke:#000000;stroke-width:0.6;"/><text fill="#000000" font-family="sans-serif" font-size="7.8" lengthAdjust="spacing" textLength="33.6" x="976.2" y="267.629">describes</text><text fill="#000000" font-family="sans-serif" font-size="7.8" lengthAdjust="spacing" textLength="4.2" x="821.6371" y="194.4434">1</text><text fill="#000000" font-family="sans-serif" font-size="7.8" lengthAdjust="spacing" textLength="4.2" x="1039.1959" y="318.4874">1</text></g><!--link Ranking to Rank--><g id="link_Ranking_Rank"><path codeLine="53" d="M754.548,80.712 C772.422,80.712 795.888,80.712 814.878,80.712 " fill="none" id="Ranking-Rank" style="stroke:#181818;stroke-width:0.6;"/><text fill="#000000" font-family="sans-serif" font-size="7.8" lengthAdjust="spacing" textLength="38.4" x="765.6" y="76.529">&lt;describes</text></g><!--link Ranking to JobOffer--><g id="link_Ranking_JobOffer"><path codeLine="55" d="M739.23,100.86 C750.246,118.764 764.5775,142.0499 775.6115,159.9839 " fill="none" id="Ranking-to-JobOffer" style="stroke:#181818;stroke-width:0.6;"/><polygon fill="#181818" points="777.498,163.05,776.7124,157.1931,775.9259,160.4949,772.6242,159.7084,777.498,163.05" style="stroke:#181818;stroke-width:0.6;"/></g><!--link Ranking to Application--><g id="link_Ranking_Application"><path codeLine="56" d="M699.774,62.472 C661.128,39.096 588.432,3.6 526.398,21.612 C500.274,29.196 477.2904,44.3344 459.4764,58.2844 " fill="none" id="Ranking-to-Application" style="stroke:#181818;stroke-width:0.6;"/><polygon fill="#181818" points="456.642,60.504,462.3732,59.0642,459.004,58.6544,459.4138,55.2851,456.642,60.504" style="stroke:#181818;stroke-width:0.6;"/></g><!--SRC=[dPLHRvim4CVV_IbEx65RDPPCsiE68gGgwgPEsp9rLTylvg1UmKRcqgcgyjrdGWbc41NgXmZX-vt__jznUNtBN5RHOb7cg7bNvE-bAHOonweAmqHXPh4GGln2UOSPmHNgEwMpyoopb27Jem2tBZGhVcWt0PgtxLgjh34CT0YAu-FU_l2qheywe2xmpSsxL-douwVbyYtSOxuZs6p_aEGuVjmBiUzqV3FRJPgI7HVIxdf2naIuV9q2nrnHkZO9DJh02Vcyh8LS9ZMLAfTleAd7NolEwRbRTCJQQBOe-VgX99YEkOD-75LE0NxkYYtPJNg34hLKL3s7UZwVbsMk9B8oshFQzzgBW3b- -vcPKTvIyaNDiSzBq2lSpBgTq55zDq-NcYpeKZFPUqL_lrfCNdQHt-pyVH5vKQ3A9nHM-FKApW88mnY23q7tpKGGGqcMKUaAsFG15nWUVWT7rvXq7LrZGsO0jIMB8A5AMhMjstAKEmjEzihCCyVhEpD9Kw8fq7_zq4F4qUu6U4Ay8HI1QlktTkPaV3Dq-ZQE1_VcpHIWdJHJOeT3fa-9ziyXR6Pz1AlZjhVfch7DtxsCVVz5lVu1]--></g></svg>