<?xml version="1.0" encoding="us-ascii" standalone="no"?><svg xmlns="http://www.w3.org/2000/svg" xmlns:xlink="http://www.w3.org/1999/xlink" contentStyleType="text/css" height="334px" preserveAspectRatio="none" style="width:576px;height:334px;background:#FFFFFF;" version="1.1" viewBox="0 0 576 334" width="576px" zoomAndPan="magnify"><defs/><g><rect fill="#FFFFFF" height="74.873" style="stroke:#181818;stroke-width:1.0;" width="10" x="173" y="71.9121"/><rect fill="#FFFFFF" height="31.291" style="stroke:#181818;stroke-width:1.0;" width="10" x="173" y="178.0762"/><rect fill="#FFFFFF" height="47.291" style="stroke:#181818;stroke-width:1.0;" width="10" x="173" y="240.6582"/><rect fill="#FFFFFF" height="31.291" style="stroke:#181818;stroke-width:1.0;" width="10" x="509" y="146.7852"/><rect fill="#FFFFFF" height="31.291" style="stroke:#181818;stroke-width:1.0;" width="10" x="509" y="209.3672"/><rect fill="none" height="161.7461" style="stroke:#000000;stroke-width:1.5;" width="469" x="101" y="86.9121"/><line style="stroke:#181818;stroke-width:0.5;stroke-dasharray:5.0,5.0;" x1="178" x2="178" y1="38.6211" y2="296.9492"/><line style="stroke:#181818;stroke-width:0.5;stroke-dasharray:5.0,5.0;" x1="514" x2="514" y1="38.6211" y2="296.9492"/><rect fill="#E2E2F0" height="32.6211" rx="2.5" ry="2.5" style="stroke:#181818;stroke-width:0.5;" width="134" x="111" y="5"/><text fill="#000000" font-family="sans-serif" font-size="14" lengthAdjust="spacing" textLength="120" x="118" y="27.1074">RankingRepository</text><rect fill="#E2E2F0" height="32.6211" rx="2.5" ry="2.5" style="stroke:#181818;stroke-width:0.5;" width="134" x="111" y="295.9492"/><text fill="#000000" font-family="sans-serif" font-size="14" lengthAdjust="spacing" textLength="120" x="118" y="318.0566">RankingRepository</text><rect fill="#E2E2F0" height="32.6211" rx="2.5" ry="2.5" style="stroke:#181818;stroke-width:0.5;" width="92" x="468" y="5"/><text fill="#000000" font-family="sans-serif" font-size="14" lengthAdjust="spacing" textLength="78" x="475" y="27.1074">H2Database</text><rect fill="#E2E2F0" height="32.6211" rx="2.5" ry="2.5" style="stroke:#181818;stroke-width:0.5;" width="92" x="468" y="295.9492"/><text fill="#000000" font-family="sans-serif" font-size="14" lengthAdjust="spacing" textLength="78" x="475" y="318.0566">H2Database</text><rect fill="#FFFFFF" height="74.873" style="stroke:#181818;stroke-width:1.0;" width="10" x="173" y="71.9121"/><rect fill="#FFFFFF" height="31.291" style="stroke:#181818;stroke-width:1.0;" width="10" x="173" y="178.0762"/><rect fill="#FFFFFF" height="47.291" style="stroke:#181818;stroke-width:1.0;" width="10" x="173" y="240.6582"/><rect fill="#FFFFFF" height="31.291" style="stroke:#181818;stroke-width:1.0;" width="10" x="509" y="146.7852"/><rect fill="#FFFFFF" height="31.291" style="stroke:#181818;stroke-width:1.0;" width="10" x="509" y="209.3672"/><polygon fill="#181818" points="161,67.9121,171,71.9121,161,75.9121,165,71.9121" style="stroke:#181818;stroke-width:1.0;"/><line style="stroke:#181818;stroke-width:1.0;" x1="0" x2="167" y1="71.9121" y2="71.9121"/><text fill="#000000" font-family="sans-serif" font-size="13" font-weight="bold" lengthAdjust="spacing" textLength="7" x="7" y="66.6494">1</text><text fill="#000000" font-family="sans-serif" font-size="13" lengthAdjust="spacing" textLength="143" x="18" y="66.6494">updateRanking(rankings)</text><path d="M101,86.9121 L174,86.9121 L174,96.2031 L164,106.2031 L101,106.2031 L101,86.9121 " fill="#EEEEEE" style="stroke:#000000;stroke-width:1.5;"/><rect fill="none" height="161.7461" style="stroke:#000000;stroke-width:1.5;" width="469" x="101" y="86.9121"/><text fill="#000000" font-family="sans-serif" font-size="13" font-weight="bold" lengthAdjust="spacing" textLength="28" x="116" y="101.9404">loop</text><text fill="#000000" font-family="sans-serif" font-size="11" font-weight="bold" lengthAdjust="spacing" textLength="98" x="189" y="100.7822">[for each ranking]</text><polygon fill="#181818" points="497,142.7852,507,146.7852,497,150.7852,501,146.7852" style="stroke:#181818;stroke-width:1.0;"/><line style="stroke:#181818;stroke-width:1.0;" x1="178" x2="503" y1="146.7852" y2="146.7852"/><text fill="#000000" font-family="sans-serif" font-size="13" font-weight="bold" lengthAdjust="spacing" textLength="7" x="185" y="132.877">2</text><text fill="#000000" font-family="sans-serif" font-size="13" lengthAdjust="spacing" textLength="219" x="196" y="124.2314">query database for ranking object with</text><text fill="#000000" font-family="sans-serif" font-size="13" lengthAdjust="spacing" textLength="292" x="200" y="141.5225">jobOfferRefCode and applicationRefCode from DTO</text><polygon fill="#181818" points="194,174.0762,184,178.0762,194,182.0762,190,178.0762" style="stroke:#181818;stroke-width:1.0;"/><line style="stroke:#181818;stroke-width:1.0;stroke-dasharray:2.0,2.0;" x1="188" x2="513" y1="178.0762" y2="178.0762"/><text fill="#000000" font-family="sans-serif" font-size="13" font-weight="bold" lengthAdjust="spacing" textLength="7" x="200" y="172.8135">3</text><text fill="#000000" font-family="sans-serif" font-size="13" lengthAdjust="spacing" textLength="42" x="211" y="172.8135">ranking</text><polygon fill="#181818" points="497,205.3672,507,209.3672,497,213.3672,501,209.3672" style="stroke:#181818;stroke-width:1.0;"/><line style="stroke:#181818;stroke-width:1.0;" x1="178" x2="503" y1="209.3672" y2="209.3672"/><text fill="#000000" font-family="sans-serif" font-size="13" font-weight="bold" lengthAdjust="spacing" textLength="7" x="185" y="204.1045">4</text><text fill="#000000" font-family="sans-serif" font-size="13" lengthAdjust="spacing" textLength="127" x="196" y="204.1045">save(updatedRanking)</text><polygon fill="#181818" points="194,236.6582,184,240.6582,194,244.6582,190,240.6582" style="stroke:#181818;stroke-width:1.0;"/><line style="stroke:#181818;stroke-width:1.0;stroke-dasharray:2.0,2.0;" x1="188" x2="513" y1="240.6582" y2="240.6582"/><text fill="#000000" font-family="sans-serif" font-size="13" font-weight="bold" lengthAdjust="spacing" textLength="7" x="200" y="235.3955">5</text><text fill="#000000" font-family="sans-serif" font-size="13" lengthAdjust="spacing" textLength="42" x="211" y="235.3955">ranking</text><polygon fill="#181818" points="11,274.9492,1,278.9492,11,282.9492,7,278.9492" style="stroke:#181818;stroke-width:1.0;"/><line style="stroke:#181818;stroke-width:1.0;stroke-dasharray:2.0,2.0;" x1="5" x2="172" y1="278.9492" y2="278.9492"/><text fill="#000000" font-family="sans-serif" font-size="13" font-weight="bold" lengthAdjust="spacing" textLength="7" x="17" y="273.6865">6</text><text fill="#000000" font-family="sans-serif" font-size="13" lengthAdjust="spacing" textLength="49" x="28" y="273.6865">rankings</text><!--SRC=[jL2xRiCm3Dpv5ToQ3Aw1ZaRHfHcw1J0wTg4UZfNQeYhH2VBtbHlRY06ldGGTZxp7KoiIKbMMeIClGzyzQ-vBtL5AXN5qYjG300t2VkYLZG21eZZjGgPZJVxR-LDj0oSd76z82MC6HsJ5_7Wva92YP4UAKG35syB42eTWIEnqRnVlRze364jQt2KF_xQMpwBoG5Wmw9W3DXmn3rkSpi6YbxMDmYpxCzXisipMnes9ZApELWjUdRHV7i-iZarZOssRTpOvX3T88NHEapZsCzn4xl7mUTnqzHWaonVh1cQJwy0RsTOfAanqiRjxVsOgSF-F-ZOd7-k5rwBOs4_m2m00]--></g></svg>