<?xml version="1.0" encoding="us-ascii" standalone="no"?><svg xmlns="http://www.w3.org/2000/svg" xmlns:xlink="http://www.w3.org/1999/xlink" contentStyleType="text/css" height="1377px" preserveAspectRatio="none" style="width:1602px;height:1377px;background:#FFFFFF;" version="1.1" viewBox="0 0 1602 1377" width="1602px" zoomAndPan="magnify"><defs/><g><rect fill="#FFFFFF" height="23.291" style="stroke:#181818;stroke-width:1.0;" width="10" x="76.5" y="93.6211"/><rect fill="#FFFFFF" height="31.291" style="stroke:#181818;stroke-width:1.0;" width="10" x="76.5" y="476.1133"/><rect fill="#FFFFFF" height="57.582" style="stroke:#181818;stroke-width:1.0;" width="10" x="76.5" y="804.0234"/><rect fill="#FFFFFF" height="38.291" style="stroke:#181818;stroke-width:1.0;" width="10" x="76.5" y="892.8965"/><rect fill="#FFFFFF" height="9" style="stroke:#181818;stroke-width:1.0;" width="10" x="76.5" y="1276.0586"/><rect fill="#FFFFFF" height="31.291" style="stroke:#181818;stroke-width:1.0;" width="10" x="326.5" y="116.9121"/><rect fill="#FFFFFF" height="31.291" style="stroke:#181818;stroke-width:1.0;" width="10" x="326.5" y="444.8223"/><rect fill="#FFFFFF" height="31.291" style="stroke:#181818;stroke-width:1.0;" width="10" x="326.5" y="507.4043"/><rect fill="#FFFFFF" height="31.291" style="stroke:#181818;stroke-width:1.0;" width="10" x="326.5" y="772.7324"/><rect fill="#FFFFFF" height="31.291" style="stroke:#181818;stroke-width:1.0;" width="10" x="326.5" y="861.6055"/><rect fill="#FFFFFF" height="31.291" style="stroke:#181818;stroke-width:1.0;" width="10" x="326.5" y="931.1875"/><rect fill="#FFFFFF" height="31.291" style="stroke:#181818;stroke-width:1.0;" width="10" x="326.5" y="1244.7676"/><rect fill="#FFFFFF" height="31.291" style="stroke:#181818;stroke-width:1.0;" width="10" x="551.5" y="148.2031"/><rect fill="#FFFFFF" height="31.291" style="stroke:#181818;stroke-width:1.0;" width="10" x="551.5" y="413.5313"/><rect fill="#FFFFFF" height="31.291" style="stroke:#181818;stroke-width:1.0;" width="10" x="551.5" y="538.6953"/><rect fill="#FFFFFF" height="31.291" style="stroke:#181818;stroke-width:1.0;" width="10" x="551.5" y="741.4414"/><rect fill="#FFFFFF" height="31.291" style="stroke:#181818;stroke-width:1.0;" width="10" x="551.5" y="962.4785"/><rect fill="#FFFFFF" height="31.291" style="stroke:#181818;stroke-width:1.0;" width="10" x="551.5" y="1213.4766"/><rect fill="#FFFFFF" height="31.291" style="stroke:#181818;stroke-width:1.0;" width="10" x="776.5" y="179.4941"/><rect fill="#FFFFFF" height="31.291" style="stroke:#181818;stroke-width:1.0;" width="10" x="776.5" y="242.0762"/><rect fill="#FFFFFF" height="108.873" style="stroke:#181818;stroke-width:1.0;" width="10" x="776.5" y="304.6582"/><rect fill="#FFFFFF" height="31.291" style="stroke:#181818;stroke-width:1.0;" width="10" x="776.5" y="569.9863"/><rect fill="#FFFFFF" height="108.873" style="stroke:#181818;stroke-width:1.0;" width="10" x="776.5" y="632.5684"/><rect fill="#FFFFFF" height="31.291" style="stroke:#181818;stroke-width:1.0;" width="10" x="776.5" y="993.7695"/><rect fill="#FFFFFF" height="108.873" style="stroke:#181818;stroke-width:1.0;" width="10" x="776.5" y="1104.6035"/><rect fill="#FFFFFF" height="31.291" style="stroke:#181818;stroke-width:1.0;" width="10" x="1226" y="210.7852"/><rect fill="#FFFFFF" height="31.291" style="stroke:#181818;stroke-width:1.0;" width="10" x="1375.5" y="273.3672"/><rect fill="#FFFFFF" height="31.291" style="stroke:#181818;stroke-width:1.0;" width="10" x="1375.5" y="601.2773"/><rect fill="#FFFFFF" height="79.543" style="stroke:#181818;stroke-width:1.0;" width="10" x="1520.5" y="1025.0605"/><rect fill="none" height="63.582" style="stroke:#000000;stroke-width:1.5;" width="223" x="689.5" y="319.6582"/><rect fill="none" height="63.582" style="stroke:#000000;stroke-width:1.5;" width="225" x="689.5" y="647.5684"/><rect fill="none" height="81.873" style="stroke:#000000;stroke-width:1.5;" width="396" x="10" y="819.0234"/><rect fill="none" height="63.582" style="stroke:#000000;stroke-width:1.5;" width="225" x="689.5" y="1119.6035"/><line style="stroke:#181818;stroke-width:0.5;stroke-dasharray:5.0,5.0;" x1="81" x2="81" y1="83.6211" y2="1294.0586"/><line style="stroke:#181818;stroke-width:0.5;stroke-dasharray:5.0,5.0;" x1="331" x2="331" y1="83.6211" y2="1294.0586"/><line style="stroke:#181818;stroke-width:0.5;stroke-dasharray:5.0,5.0;" x1="556" x2="556" y1="83.6211" y2="1294.0586"/><line style="stroke:#181818;stroke-width:0.5;stroke-dasharray:5.0,5.0;" x1="781.5" x2="781.5" y1="83.6211" y2="1294.0586"/><line style="stroke:#181818;stroke-width:0.5;stroke-dasharray:5.0,5.0;" x1="941.5" x2="941.5" y1="83.6211" y2="1294.0586"/><line style="stroke:#181818;stroke-width:0.5;stroke-dasharray:5.0,5.0;" x1="1084.5" x2="1084.5" y1="83.6211" y2="1294.0586"/><line style="stroke:#181818;stroke-width:0.5;stroke-dasharray:5.0,5.0;" x1="1230.5" x2="1230.5" y1="83.6211" y2="1294.0586"/><line style="stroke:#181818;stroke-width:0.5;stroke-dasharray:5.0,5.0;" x1="1380.5" x2="1380.5" y1="83.6211" y2="1294.0586"/><line style="stroke:#181818;stroke-width:0.5;stroke-dasharray:5.0,5.0;" x1="1525.5" x2="1525.5" y1="83.6211" y2="1294.0586"/><text fill="#000000" font-family="sans-serif" font-size="14" lengthAdjust="spacing" textLength="117" x="20" y="80.1074">CustomerManager</text><ellipse cx="81.5" cy="13.5" fill="#E2E2F0" rx="8" ry="8" style="stroke:#181818;stroke-width:0.5;"/><path d="M81.5,21.5 L81.5,48.5 M68.5,29.5 L94.5,29.5 M81.5,48.5 L68.5,63.5 M81.5,48.5 L94.5,63.5 " fill="none" style="stroke:#181818;stroke-width:0.5;"/><text fill="#000000" font-family="sans-serif" font-size="14" lengthAdjust="spacing" textLength="117" x="20" y="1308.166">CustomerManager</text><ellipse cx="81.5" cy="1320.1797" fill="#E2E2F0" rx="8" ry="8" style="stroke:#181818;stroke-width:0.5;"/><path d="M81.5,1328.1797 L81.5,1355.1797 M68.5,1336.1797 L94.5,1336.1797 M81.5,1355.1797 L68.5,1370.1797 M81.5,1355.1797 L94.5,1370.1797 " fill="none" style="stroke:#181818;stroke-width:0.5;"/><rect fill="#E2E2F0" height="32.6211" rx="2.5" ry="2.5" style="stroke:#181818;stroke-width:0.5;" width="129" x="267" y="50"/><text fill="#000000" font-family="sans-serif" font-size="14" lengthAdjust="spacing" textLength="115" x="274" y="72.1074">ManageRankingUI</text><rect fill="#E2E2F0" height="32.6211" rx="2.5" ry="2.5" style="stroke:#181818;stroke-width:0.5;" width="129" x="267" y="1293.0586"/><text fill="#000000" font-family="sans-serif" font-size="14" lengthAdjust="spacing" textLength="115" x="274" y="1315.166">ManageRankingUI</text><rect fill="#E2E2F0" height="32.6211" rx="2.5" ry="2.5" style="stroke:#181818;stroke-width:0.5;" width="179" x="467" y="50"/><text fill="#000000" font-family="sans-serif" font-size="14" lengthAdjust="spacing" textLength="165" x="474" y="72.1074">ManageRankingController</text><rect fill="#E2E2F0" height="32.6211" rx="2.5" ry="2.5" style="stroke:#181818;stroke-width:0.5;" width="179" x="467" y="1293.0586"/><text fill="#000000" font-family="sans-serif" font-size="14" lengthAdjust="spacing" textLength="165" x="474" y="1315.166">ManageRankingController</text><rect fill="#E2E2F0" height="32.6211" rx="2.5" ry="2.5" style="stroke:#181818;stroke-width:0.5;" width="164" x="699.5" y="50"/><text fill="#000000" font-family="sans-serif" font-size="14" lengthAdjust="spacing" textLength="150" x="706.5" y="72.1074">ManageRankingService</text><rect fill="#E2E2F0" height="32.6211" rx="2.5" ry="2.5" style="stroke:#181818;stroke-width:0.5;" width="164" x="699.5" y="1293.0586"/><text fill="#000000" font-family="sans-serif" font-size="14" lengthAdjust="spacing" textLength="150" x="706.5" y="1315.166">ManageRankingService</text><rect fill="#E2E2F0" height="32.6211" rx="2.5" ry="2.5" style="stroke:#181818;stroke-width:0.5;" width="136" x="873.5" y="50"/><text fill="#000000" font-family="sans-serif" font-size="14" lengthAdjust="spacing" textLength="122" x="880.5" y="72.1074">PersistenceContext</text><rect fill="#E2E2F0" height="32.6211" rx="2.5" ry="2.5" style="stroke:#181818;stroke-width:0.5;" width="136" x="873.5" y="1293.0586"/><text fill="#000000" font-family="sans-serif" font-size="14" lengthAdjust="spacing" textLength="122" x="880.5" y="1315.166">PersistenceContext</text><rect fill="#E2E2F0" height="32.6211" rx="2.5" ry="2.5" style="stroke:#181818;stroke-width:0.5;" width="130" x="1019.5" y="50"/><text fill="#000000" font-family="sans-serif" font-size="14" lengthAdjust="spacing" textLength="116" x="1026.5" y="72.1074">RepositoryFactory</text><rect fill="#E2E2F0" height="32.6211" rx="2.5" ry="2.5" style="stroke:#181818;stroke-width:0.5;" width="130" x="1019.5" y="1293.0586"/><text fill="#000000" font-family="sans-serif" font-size="14" lengthAdjust="spacing" textLength="116" x="1026.5" y="1315.166">RepositoryFactory</text><rect fill="#E2E2F0" height="32.6211" rx="2.5" ry="2.5" style="stroke:#181818;stroke-width:0.5;" width="143" x="1159.5" y="50"/><text fill="#000000" font-family="sans-serif" font-size="14" lengthAdjust="spacing" textLength="129" x="1166.5" y="72.1074">AuthorizationService</text><rect fill="#E2E2F0" height="32.6211" rx="2.5" ry="2.5" style="stroke:#181818;stroke-width:0.5;" width="143" x="1159.5" y="1293.0586"/><text fill="#000000" font-family="sans-serif" font-size="14" lengthAdjust="spacing" textLength="129" x="1166.5" y="1315.166">AuthorizationService</text><rect fill="#E2E2F0" height="32.6211" rx="2.5" ry="2.5" style="stroke:#181818;stroke-width:0.5;" width="136" x="1312.5" y="50"/><text fill="#000000" font-family="sans-serif" font-size="14" lengthAdjust="spacing" textLength="122" x="1319.5" y="72.1074">JobOfferRepository</text><rect fill="#E2E2F0" height="32.6211" rx="2.5" ry="2.5" style="stroke:#181818;stroke-width:0.5;" width="136" x="1312.5" y="1293.0586"/><text fill="#000000" font-family="sans-serif" font-size="14" lengthAdjust="spacing" textLength="122" x="1319.5" y="1315.166">JobOfferRepository</text><rect fill="#E2E2F0" height="32.6211" rx="2.5" ry="2.5" style="stroke:#181818;stroke-width:0.5;" width="134" x="1458.5" y="50"/><text fill="#000000" font-family="sans-serif" font-size="14" lengthAdjust="spacing" textLength="120" x="1465.5" y="72.1074">RankingRepository</text><rect fill="#E2E2F0" height="32.6211" rx="2.5" ry="2.5" style="stroke:#181818;stroke-width:0.5;" width="134" x="1458.5" y="1293.0586"/><text fill="#000000" font-family="sans-serif" font-size="14" lengthAdjust="spacing" textLength="120" x="1465.5" y="1315.166">RankingRepository</text><rect fill="#FFFFFF" height="23.291" style="stroke:#181818;stroke-width:1.0;" width="10" x="76.5" y="93.6211"/><rect fill="#FFFFFF" height="31.291" style="stroke:#181818;stroke-width:1.0;" width="10" x="76.5" y="476.1133"/><rect fill="#FFFFFF" height="57.582" style="stroke:#181818;stroke-width:1.0;" width="10" x="76.5" y="804.0234"/><rect fill="#FFFFFF" height="38.291" style="stroke:#181818;stroke-width:1.0;" width="10" x="76.5" y="892.8965"/><rect fill="#FFFFFF" height="9" style="stroke:#181818;stroke-width:1.0;" width="10" x="76.5" y="1276.0586"/><rect fill="#FFFFFF" height="31.291" style="stroke:#181818;stroke-width:1.0;" width="10" x="326.5" y="116.9121"/><rect fill="#FFFFFF" height="31.291" style="stroke:#181818;stroke-width:1.0;" width="10" x="326.5" y="444.8223"/><rect fill="#FFFFFF" height="31.291" style="stroke:#181818;stroke-width:1.0;" width="10" x="326.5" y="507.4043"/><rect fill="#FFFFFF" height="31.291" style="stroke:#181818;stroke-width:1.0;" width="10" x="326.5" y="772.7324"/><rect fill="#FFFFFF" height="31.291" style="stroke:#181818;stroke-width:1.0;" width="10" x="326.5" y="861.6055"/><rect fill="#FFFFFF" height="31.291" style="stroke:#181818;stroke-width:1.0;" width="10" x="326.5" y="931.1875"/><rect fill="#FFFFFF" height="31.291" style="stroke:#181818;stroke-width:1.0;" width="10" x="326.5" y="1244.7676"/><rect fill="#FFFFFF" height="31.291" style="stroke:#181818;stroke-width:1.0;" width="10" x="551.5" y="148.2031"/><rect fill="#FFFFFF" height="31.291" style="stroke:#181818;stroke-width:1.0;" width="10" x="551.5" y="413.5313"/><rect fill="#FFFFFF" height="31.291" style="stroke:#181818;stroke-width:1.0;" width="10" x="551.5" y="538.6953"/><rect fill="#FFFFFF" height="31.291" style="stroke:#181818;stroke-width:1.0;" width="10" x="551.5" y="741.4414"/><rect fill="#FFFFFF" height="31.291" style="stroke:#181818;stroke-width:1.0;" width="10" x="551.5" y="962.4785"/><rect fill="#FFFFFF" height="31.291" style="stroke:#181818;stroke-width:1.0;" width="10" x="551.5" y="1213.4766"/><rect fill="#FFFFFF" height="31.291" style="stroke:#181818;stroke-width:1.0;" width="10" x="776.5" y="179.4941"/><rect fill="#FFFFFF" height="31.291" style="stroke:#181818;stroke-width:1.0;" width="10" x="776.5" y="242.0762"/><rect fill="#FFFFFF" height="108.873" style="stroke:#181818;stroke-width:1.0;" width="10" x="776.5" y="304.6582"/><rect fill="#FFFFFF" height="31.291" style="stroke:#181818;stroke-width:1.0;" width="10" x="776.5" y="569.9863"/><rect fill="#FFFFFF" height="108.873" style="stroke:#181818;stroke-width:1.0;" width="10" x="776.5" y="632.5684"/><rect fill="#FFFFFF" height="31.291" style="stroke:#181818;stroke-width:1.0;" width="10" x="776.5" y="993.7695"/><rect fill="#FFFFFF" height="108.873" style="stroke:#181818;stroke-width:1.0;" width="10" x="776.5" y="1104.6035"/><rect fill="#FFFFFF" height="31.291" style="stroke:#181818;stroke-width:1.0;" width="10" x="1226" y="210.7852"/><rect fill="#FFFFFF" height="31.291" style="stroke:#181818;stroke-width:1.0;" width="10" x="1375.5" y="273.3672"/><rect fill="#FFFFFF" height="31.291" style="stroke:#181818;stroke-width:1.0;" width="10" x="1375.5" y="601.2773"/><rect fill="#FFFFFF" height="79.543" style="stroke:#181818;stroke-width:1.0;" width="10" x="1520.5" y="1025.0605"/><polygon fill="#181818" points="314.5,112.9121,324.5,116.9121,314.5,120.9121,318.5,116.9121" style="stroke:#181818;stroke-width:1.0;"/><line style="stroke:#181818;stroke-width:1.0;" x1="81.5" x2="320.5" y1="116.9121" y2="116.9121"/><text fill="#000000" font-family="sans-serif" font-size="13" font-weight="bold" lengthAdjust="spacing" textLength="7" x="88.5" y="111.6494">1</text><text fill="#000000" font-family="sans-serif" font-size="13" lengthAdjust="spacing" textLength="136" x="99.5" y="111.6494">requests to rank clients</text><polygon fill="#181818" points="539.5,144.2031,549.5,148.2031,539.5,152.2031,543.5,148.2031" style="stroke:#181818;stroke-width:1.0;"/><line style="stroke:#181818;stroke-width:1.0;" x1="331.5" x2="545.5" y1="148.2031" y2="148.2031"/><text fill="#000000" font-family="sans-serif" font-size="13" font-weight="bold" lengthAdjust="spacing" textLength="7" x="338.5" y="142.9404">2</text><text fill="#000000" font-family="sans-serif" font-size="13" lengthAdjust="spacing" textLength="121" x="349.5" y="142.9404">retrieveMyJobOffers()</text><polygon fill="#181818" points="764.5,175.4941,774.5,179.4941,764.5,183.4941,768.5,179.4941" style="stroke:#181818;stroke-width:1.0;"/><line style="stroke:#181818;stroke-width:1.0;" x1="556.5" x2="770.5" y1="179.4941" y2="179.4941"/><text fill="#000000" font-family="sans-serif" font-size="13" font-weight="bold" lengthAdjust="spacing" textLength="7" x="563.5" y="174.2314">3</text><text fill="#000000" font-family="sans-serif" font-size="13" lengthAdjust="spacing" textLength="121" x="574.5" y="174.2314">retrieveMyJobOffers()</text><polygon fill="#181818" points="1214,206.7852,1224,210.7852,1214,214.7852,1218,210.7852" style="stroke:#181818;stroke-width:1.0;"/><line style="stroke:#181818;stroke-width:1.0;" x1="781.5" x2="1220" y1="210.7852" y2="210.7852"/><text fill="#000000" font-family="sans-serif" font-size="13" font-weight="bold" lengthAdjust="spacing" textLength="7" x="788.5" y="205.5225">4</text><text fill="#000000" font-family="sans-serif" font-size="13" lengthAdjust="spacing" textLength="381" x="799.5" y="205.5225">loggInUserWithPermissions(BaseRoles.CUSTOMER_MANAGER)</text><polygon fill="#181818" points="797.5,238.0762,787.5,242.0762,797.5,246.0762,793.5,242.0762" style="stroke:#181818;stroke-width:1.0;"/><line style="stroke:#181818;stroke-width:1.0;stroke-dasharray:2.0,2.0;" x1="791.5" x2="1230" y1="242.0762" y2="242.0762"/><text fill="#000000" font-family="sans-serif" font-size="13" font-weight="bold" lengthAdjust="spacing" textLength="7" x="803.5" y="236.8135">5</text><text fill="#000000" font-family="sans-serif" font-size="13" lengthAdjust="spacing" textLength="25" x="814.5" y="236.8135">user</text><polygon fill="#181818" points="1363.5,269.3672,1373.5,273.3672,1363.5,277.3672,1367.5,273.3672" style="stroke:#181818;stroke-width:1.0;"/><line style="stroke:#181818;stroke-width:1.0;" x1="781.5" x2="1369.5" y1="273.3672" y2="273.3672"/><text fill="#000000" font-family="sans-serif" font-size="13" font-weight="bold" lengthAdjust="spacing" textLength="7" x="788.5" y="268.1045">6</text><text fill="#000000" font-family="sans-serif" font-size="13" lengthAdjust="spacing" textLength="224" x="799.5" y="268.1045">getJobOffersOfCustomerManager(user)</text><polygon fill="#181818" points="797.5,300.6582,787.5,304.6582,797.5,308.6582,793.5,304.6582" style="stroke:#181818;stroke-width:1.0;"/><line style="stroke:#181818;stroke-width:1.0;stroke-dasharray:2.0,2.0;" x1="791.5" x2="1379.5" y1="304.6582" y2="304.6582"/><text fill="#000000" font-family="sans-serif" font-size="13" font-weight="bold" lengthAdjust="spacing" textLength="7" x="803.5" y="299.3955">7</text><text fill="#000000" font-family="sans-serif" font-size="13" lengthAdjust="spacing" textLength="51" x="814.5" y="299.3955">jobOffers</text><path d="M689.5,319.6582 L762.5,319.6582 L762.5,328.9492 L752.5,338.9492 L689.5,338.9492 L689.5,319.6582 " fill="#EEEEEE" style="stroke:#000000;stroke-width:1.5;"/><rect fill="none" height="63.582" style="stroke:#000000;stroke-width:1.5;" width="223" x="689.5" y="319.6582"/><text fill="#000000" font-family="sans-serif" font-size="13" font-weight="bold" lengthAdjust="spacing" textLength="28" x="704.5" y="334.6865">loop</text><text fill="#000000" font-family="sans-serif" font-size="11" font-weight="bold" lengthAdjust="spacing" textLength="103" x="777.5" y="333.5283">[for each job offer]</text><line style="stroke:#181818;stroke-width:1.0;" x1="786.5" x2="828.5" y1="362.2402" y2="362.2402"/><line style="stroke:#181818;stroke-width:1.0;" x1="828.5" x2="828.5" y1="362.2402" y2="375.2402"/><line style="stroke:#181818;stroke-width:1.0;" x1="787.5" x2="828.5" y1="375.2402" y2="375.2402"/><polygon fill="#181818" points="797.5,371.2402,787.5,375.2402,797.5,379.2402,793.5,375.2402" style="stroke:#181818;stroke-width:1.0;"/><text fill="#000000" font-family="sans-serif" font-size="13" font-weight="bold" lengthAdjust="spacing" textLength="7" x="793.5" y="356.9775">8</text><text fill="#000000" font-family="sans-serif" font-size="13" lengthAdjust="spacing" textLength="96" x="804.5" y="356.9775">jobOfffer.toDTO()</text><polygon fill="#181818" points="572.5,409.5313,562.5,413.5313,572.5,417.5313,568.5,413.5313" style="stroke:#181818;stroke-width:1.0;"/><line style="stroke:#181818;stroke-width:1.0;stroke-dasharray:2.0,2.0;" x1="566.5" x2="780.5" y1="413.5313" y2="413.5313"/><text fill="#000000" font-family="sans-serif" font-size="13" font-weight="bold" lengthAdjust="spacing" textLength="7" x="578.5" y="408.2686">9</text><text fill="#000000" font-family="sans-serif" font-size="13" lengthAdjust="spacing" textLength="58" x="589.5" y="408.2686">jobsOffers</text><polygon fill="#181818" points="347.5,440.8223,337.5,444.8223,347.5,448.8223,343.5,444.8223" style="stroke:#181818;stroke-width:1.0;"/><line style="stroke:#181818;stroke-width:1.0;stroke-dasharray:2.0,2.0;" x1="341.5" x2="555.5" y1="444.8223" y2="444.8223"/><text fill="#000000" font-family="sans-serif" font-size="13" font-weight="bold" lengthAdjust="spacing" textLength="14" x="353.5" y="439.5596">10</text><text fill="#000000" font-family="sans-serif" font-size="13" lengthAdjust="spacing" textLength="51" x="371.5" y="439.5596">jobOffers</text><polygon fill="#181818" points="97.5,472.1133,87.5,476.1133,97.5,480.1133,93.5,476.1133" style="stroke:#181818;stroke-width:1.0;"/><line style="stroke:#181818;stroke-width:1.0;stroke-dasharray:2.0,2.0;" x1="91.5" x2="330.5" y1="476.1133" y2="476.1133"/><text fill="#000000" font-family="sans-serif" font-size="13" font-weight="bold" lengthAdjust="spacing" textLength="14" x="103.5" y="470.8506">11</text><text fill="#000000" font-family="sans-serif" font-size="13" lengthAdjust="spacing" textLength="120" x="121.5" y="470.8506">presents job offer list</text><polygon fill="#181818" points="314.5,503.4043,324.5,507.4043,314.5,511.4043,318.5,507.4043" style="stroke:#181818;stroke-width:1.0;"/><line style="stroke:#181818;stroke-width:1.0;" x1="81.5" x2="320.5" y1="507.4043" y2="507.4043"/><text fill="#000000" font-family="sans-serif" font-size="13" font-weight="bold" lengthAdjust="spacing" textLength="14" x="88.5" y="502.1416">12</text><text fill="#000000" font-family="sans-serif" font-size="13" lengthAdjust="spacing" textLength="91" x="106.5" y="502.1416">selects job offer</text><polygon fill="#181818" points="539.5,534.6953,549.5,538.6953,539.5,542.6953,543.5,538.6953" style="stroke:#181818;stroke-width:1.0;"/><line style="stroke:#181818;stroke-width:1.0;" x1="331.5" x2="545.5" y1="538.6953" y2="538.6953"/><text fill="#000000" font-family="sans-serif" font-size="13" font-weight="bold" lengthAdjust="spacing" textLength="14" x="338.5" y="533.4326">13</text><text fill="#000000" font-family="sans-serif" font-size="13" lengthAdjust="spacing" textLength="178" x="356.5" y="533.4326">retrieveJobOfferRanking(option)</text><polygon fill="#181818" points="764.5,565.9863,774.5,569.9863,764.5,573.9863,768.5,569.9863" style="stroke:#181818;stroke-width:1.0;"/><line style="stroke:#181818;stroke-width:1.0;" x1="556.5" x2="770.5" y1="569.9863" y2="569.9863"/><text fill="#000000" font-family="sans-serif" font-size="13" font-weight="bold" lengthAdjust="spacing" textLength="14" x="563.5" y="564.7236">14</text><text fill="#000000" font-family="sans-serif" font-size="13" lengthAdjust="spacing" textLength="178" x="581.5" y="564.7236">retrieveJobOfferRanking(option)</text><polygon fill="#181818" points="1363.5,597.2773,1373.5,601.2773,1363.5,605.2773,1367.5,601.2773" style="stroke:#181818;stroke-width:1.0;"/><line style="stroke:#181818;stroke-width:1.0;" x1="781.5" x2="1369.5" y1="601.2773" y2="601.2773"/><text fill="#000000" font-family="sans-serif" font-size="13" font-weight="bold" lengthAdjust="spacing" textLength="14" x="788.5" y="596.0146">15</text><text fill="#000000" font-family="sans-serif" font-size="13" lengthAdjust="spacing" textLength="206" x="806.5" y="596.0146">getRankingsOfJobOffer(jobRefCode)</text><polygon fill="#181818" points="797.5,628.5684,787.5,632.5684,797.5,636.5684,793.5,632.5684" style="stroke:#181818;stroke-width:1.0;"/><line style="stroke:#181818;stroke-width:1.0;stroke-dasharray:2.0,2.0;" x1="791.5" x2="1379.5" y1="632.5684" y2="632.5684"/><text fill="#000000" font-family="sans-serif" font-size="13" font-weight="bold" lengthAdjust="spacing" textLength="14" x="803.5" y="627.3057">16</text><text fill="#000000" font-family="sans-serif" font-size="13" lengthAdjust="spacing" textLength="49" x="821.5" y="627.3057">rankings</text><path d="M689.5,647.5684 L762.5,647.5684 L762.5,656.8594 L752.5,666.8594 L689.5,666.8594 L689.5,647.5684 " fill="#EEEEEE" style="stroke:#000000;stroke-width:1.5;"/><rect fill="none" height="63.582" style="stroke:#000000;stroke-width:1.5;" width="225" x="689.5" y="647.5684"/><text fill="#000000" font-family="sans-serif" font-size="13" font-weight="bold" lengthAdjust="spacing" textLength="28" x="704.5" y="662.5967">loop</text><text fill="#000000" font-family="sans-serif" font-size="11" font-weight="bold" lengthAdjust="spacing" textLength="98" x="777.5" y="661.4385">[for each ranking]</text><line style="stroke:#181818;stroke-width:1.0;" x1="786.5" x2="828.5" y1="690.1504" y2="690.1504"/><line style="stroke:#181818;stroke-width:1.0;" x1="828.5" x2="828.5" y1="690.1504" y2="703.1504"/><line style="stroke:#181818;stroke-width:1.0;" x1="787.5" x2="828.5" y1="703.1504" y2="703.1504"/><polygon fill="#181818" points="797.5,699.1504,787.5,703.1504,797.5,707.1504,793.5,703.1504" style="stroke:#181818;stroke-width:1.0;"/><text fill="#000000" font-family="sans-serif" font-size="13" font-weight="bold" lengthAdjust="spacing" textLength="14" x="793.5" y="684.8877">17</text><text fill="#000000" font-family="sans-serif" font-size="13" lengthAdjust="spacing" textLength="91" x="811.5" y="684.8877">ranking.toDTO()</text><polygon fill="#181818" points="572.5,737.4414,562.5,741.4414,572.5,745.4414,568.5,741.4414" style="stroke:#181818;stroke-width:1.0;"/><line style="stroke:#181818;stroke-width:1.0;stroke-dasharray:2.0,2.0;" x1="566.5" x2="780.5" y1="741.4414" y2="741.4414"/><text fill="#000000" font-family="sans-serif" font-size="13" font-weight="bold" lengthAdjust="spacing" textLength="14" x="578.5" y="736.1787">18</text><text fill="#000000" font-family="sans-serif" font-size="13" lengthAdjust="spacing" textLength="49" x="596.5" y="736.1787">rankings</text><polygon fill="#181818" points="347.5,768.7324,337.5,772.7324,347.5,776.7324,343.5,772.7324" style="stroke:#181818;stroke-width:1.0;"/><line style="stroke:#181818;stroke-width:1.0;stroke-dasharray:2.0,2.0;" x1="341.5" x2="555.5" y1="772.7324" y2="772.7324"/><text fill="#000000" font-family="sans-serif" font-size="13" font-weight="bold" lengthAdjust="spacing" textLength="14" x="353.5" y="767.4697">19</text><text fill="#000000" font-family="sans-serif" font-size="13" lengthAdjust="spacing" textLength="49" x="371.5" y="767.4697">rankings</text><polygon fill="#181818" points="97.5,800.0234,87.5,804.0234,97.5,808.0234,93.5,804.0234" style="stroke:#181818;stroke-width:1.0;"/><line style="stroke:#181818;stroke-width:1.0;stroke-dasharray:2.0,2.0;" x1="91.5" x2="330.5" y1="804.0234" y2="804.0234"/><text fill="#000000" font-family="sans-serif" font-size="13" font-weight="bold" lengthAdjust="spacing" textLength="14" x="103.5" y="798.7607">20</text><text fill="#000000" font-family="sans-serif" font-size="13" lengthAdjust="spacing" textLength="94" x="121.5" y="798.7607">presents current</text><path d="M10,819.0234 L83,819.0234 L83,828.3145 L73,838.3145 L10,838.3145 L10,819.0234 " fill="#EEEEEE" style="stroke:#000000;stroke-width:1.5;"/><rect fill="none" height="81.873" style="stroke:#000000;stroke-width:1.5;" width="396" x="10" y="819.0234"/><text fill="#000000" font-family="sans-serif" font-size="13" font-weight="bold" lengthAdjust="spacing" textLength="28" x="25" y="834.0518">loop</text><text fill="#000000" font-family="sans-serif" font-size="11" font-weight="bold" lengthAdjust="spacing" textLength="212" x="98" y="832.8936">[for every candidate position changed]</text><polygon fill="#181818" points="314.5,857.6055,324.5,861.6055,314.5,865.6055,318.5,861.6055" style="stroke:#181818;stroke-width:1.0;"/><line style="stroke:#181818;stroke-width:1.0;" x1="81.5" x2="320.5" y1="861.6055" y2="861.6055"/><text fill="#000000" font-family="sans-serif" font-size="13" font-weight="bold" lengthAdjust="spacing" textLength="14" x="88.5" y="856.3428">21</text><text fill="#000000" font-family="sans-serif" font-size="13" lengthAdjust="spacing" textLength="203" x="106.5" y="856.3428">picks candidates to swap positions</text><polygon fill="#181818" points="97.5,888.8965,87.5,892.8965,97.5,896.8965,93.5,892.8965" style="stroke:#181818;stroke-width:1.0;"/><line style="stroke:#181818;stroke-width:1.0;stroke-dasharray:2.0,2.0;" x1="91.5" x2="330.5" y1="892.8965" y2="892.8965"/><text fill="#000000" font-family="sans-serif" font-size="13" font-weight="bold" lengthAdjust="spacing" textLength="14" x="103.5" y="887.6338">22</text><text fill="#000000" font-family="sans-serif" font-size="13" lengthAdjust="spacing" textLength="113" x="121.5" y="887.6338">returns new ranking</text><polygon fill="#181818" points="314.5,927.1875,324.5,931.1875,314.5,935.1875,318.5,931.1875" style="stroke:#181818;stroke-width:1.0;"/><line style="stroke:#181818;stroke-width:1.0;" x1="81.5" x2="320.5" y1="931.1875" y2="931.1875"/><text fill="#000000" font-family="sans-serif" font-size="13" font-weight="bold" lengthAdjust="spacing" textLength="14" x="88.5" y="925.9248">23</text><text fill="#000000" font-family="sans-serif" font-size="13" lengthAdjust="spacing" textLength="95" x="106.5" y="925.9248">confirms ranking</text><polygon fill="#181818" points="539.5,958.4785,549.5,962.4785,539.5,966.4785,543.5,962.4785" style="stroke:#181818;stroke-width:1.0;"/><line style="stroke:#181818;stroke-width:1.0;" x1="331.5" x2="545.5" y1="962.4785" y2="962.4785"/><text fill="#000000" font-family="sans-serif" font-size="13" font-weight="bold" lengthAdjust="spacing" textLength="14" x="338.5" y="957.2158">24</text><text fill="#000000" font-family="sans-serif" font-size="13" lengthAdjust="spacing" textLength="143" x="356.5" y="957.2158">updateRanking(rankings)</text><polygon fill="#181818" points="764.5,989.7695,774.5,993.7695,764.5,997.7695,768.5,993.7695" style="stroke:#181818;stroke-width:1.0;"/><line style="stroke:#181818;stroke-width:1.0;" x1="556.5" x2="770.5" y1="993.7695" y2="993.7695"/><text fill="#000000" font-family="sans-serif" font-size="13" font-weight="bold" lengthAdjust="spacing" textLength="14" x="563.5" y="988.5068">25</text><text fill="#000000" font-family="sans-serif" font-size="13" lengthAdjust="spacing" textLength="143" x="581.5" y="988.5068">updateRanking(rankings)</text><polygon fill="#181818" points="1508.5,1021.0605,1518.5,1025.0605,1508.5,1029.0605,1512.5,1025.0605" style="stroke:#181818;stroke-width:1.0;"/><line style="stroke:#181818;stroke-width:1.0;" x1="781.5" x2="1514.5" y1="1025.0605" y2="1025.0605"/><text fill="#000000" font-family="sans-serif" font-size="13" font-weight="bold" lengthAdjust="spacing" textLength="14" x="788.5" y="1019.7979">26</text><text fill="#000000" font-family="sans-serif" font-size="13" lengthAdjust="spacing" textLength="83" x="806.5" y="1019.7979">save(rankings)</text><rect fill="none" height="43.252" style="stroke:#000000;stroke-width:1.5;" width="141" x="1455.5" y="1033.0605"/><path d="M1455.5,1033.0605 L1517.5,1033.0605 L1517.5,1042.0605 L1507.5,1052.0605 L1455.5,1052.0605 L1455.5,1033.0605 " fill="#EEEEEE" style="stroke:#000000;stroke-width:2.0;"/><text fill="#000000" font-family="sans-serif" font-size="13" font-weight="bold" lengthAdjust="spacing" textLength="17" x="1468.5" y="1049.0889">ref</text><text fill="#000000" font-family="sans-serif" font-size="12" lengthAdjust="spacing" textLength="133" x="1459.5" y="1069.0098">See US-1013-REPO-SD</text><polygon fill="#181818" points="797.5,1100.6035,787.5,1104.6035,797.5,1108.6035,793.5,1104.6035" style="stroke:#181818;stroke-width:1.0;"/><line style="stroke:#181818;stroke-width:1.0;stroke-dasharray:2.0,2.0;" x1="791.5" x2="1524.5" y1="1104.6035" y2="1104.6035"/><text fill="#000000" font-family="sans-serif" font-size="13" font-weight="bold" lengthAdjust="spacing" textLength="14" x="803.5" y="1099.3408">27</text><text fill="#000000" font-family="sans-serif" font-size="13" lengthAdjust="spacing" textLength="49" x="821.5" y="1099.3408">rankings</text><path d="M689.5,1119.6035 L762.5,1119.6035 L762.5,1128.8945 L752.5,1138.8945 L689.5,1138.8945 L689.5,1119.6035 " fill="#EEEEEE" style="stroke:#000000;stroke-width:1.5;"/><rect fill="none" height="63.582" style="stroke:#000000;stroke-width:1.5;" width="225" x="689.5" y="1119.6035"/><text fill="#000000" font-family="sans-serif" font-size="13" font-weight="bold" lengthAdjust="spacing" textLength="28" x="704.5" y="1134.6318">loop</text><text fill="#000000" font-family="sans-serif" font-size="11" font-weight="bold" lengthAdjust="spacing" textLength="98" x="777.5" y="1133.4736">[for each ranking]</text><line style="stroke:#181818;stroke-width:1.0;" x1="786.5" x2="828.5" y1="1162.1855" y2="1162.1855"/><line style="stroke:#181818;stroke-width:1.0;" x1="828.5" x2="828.5" y1="1162.1855" y2="1175.1855"/><line style="stroke:#181818;stroke-width:1.0;" x1="787.5" x2="828.5" y1="1175.1855" y2="1175.1855"/><polygon fill="#181818" points="797.5,1171.1855,787.5,1175.1855,797.5,1179.1855,793.5,1175.1855" style="stroke:#181818;stroke-width:1.0;"/><text fill="#000000" font-family="sans-serif" font-size="13" font-weight="bold" lengthAdjust="spacing" textLength="14" x="793.5" y="1156.9229">28</text><text fill="#000000" font-family="sans-serif" font-size="13" lengthAdjust="spacing" textLength="91" x="811.5" y="1156.9229">ranking.toDTO()</text><polygon fill="#181818" points="572.5,1209.4766,562.5,1213.4766,572.5,1217.4766,568.5,1213.4766" style="stroke:#181818;stroke-width:1.0;"/><line style="stroke:#181818;stroke-width:1.0;stroke-dasharray:2.0,2.0;" x1="566.5" x2="780.5" y1="1213.4766" y2="1213.4766"/><text fill="#000000" font-family="sans-serif" font-size="13" font-weight="bold" lengthAdjust="spacing" textLength="14" x="578.5" y="1208.2139">29</text><text fill="#000000" font-family="sans-serif" font-size="13" lengthAdjust="spacing" textLength="49" x="596.5" y="1208.2139">rankings</text><polygon fill="#181818" points="347.5,1240.7676,337.5,1244.7676,347.5,1248.7676,343.5,1244.7676" style="stroke:#181818;stroke-width:1.0;"/><line style="stroke:#181818;stroke-width:1.0;" x1="341.5" x2="555.5" y1="1244.7676" y2="1244.7676"/><text fill="#000000" font-family="sans-serif" font-size="13" font-weight="bold" lengthAdjust="spacing" textLength="14" x="353.5" y="1239.5049">30</text><text fill="#000000" font-family="sans-serif" font-size="13" lengthAdjust="spacing" textLength="49" x="371.5" y="1239.5049">rankings</text><polygon fill="#181818" points="97.5,1272.0586,87.5,1276.0586,97.5,1280.0586,93.5,1276.0586" style="stroke:#181818;stroke-width:1.0;"/><line style="stroke:#181818;stroke-width:1.0;" x1="91.5" x2="330.5" y1="1276.0586" y2="1276.0586"/><text fill="#000000" font-family="sans-serif" font-size="13" font-weight="bold" lengthAdjust="spacing" textLength="14" x="103.5" y="1270.7959">31</text><text fill="#000000" font-family="sans-serif" font-size="13" lengthAdjust="spacing" textLength="163" x="121.5" y="1270.7959">operation success message</text><!--SRC=[nLR1Sjem4BtxAtGhFH2QwIs7pgI4Tj8PIWR2z9XHvBLHOakkLYPDlxuhOyaMmOJaKXyOsthlxMhthSo7ZRKLNamcLS6LhSlYJEXo8WgEE4ubpmqlauJNLgkwl0T3zy9gmwOrMbs2cNF5Sp2C8nDbKd5ZfP0LAR7TofAhHwdozRL3r78OCTNA6bqKhPOrnJ1s1MOh1JWWRaM4km634Yqe0KuH_jXeUGcLHaaRUFxMxECvMhsixKOR-PTRgLKl26r_izeBz4FVBx8CJAVea0_wths8O-wIZe66NZR8vg9Sv9PRS3KK9Hj_eLAn2sRWTmreaLdT49We92YBIGfzHhYd-YP49BghNoDWZOGjp9zzkZZws6SJerDoDM-8941rFONVSCAJQuOZ4hyj6MaKEi-lrHh1_99sG_qf9IBL5qTVES9I5u1dq_NgTZ6VBU_cbpylly-MKGod6XvyAxp-EEHQKuG-BI0FPDUsYLWvsB2rHRRdwf7J7Cx5DzkhTRayUCa-ryCZiQJGkc8PJHG1Dmx3j6FwJFjwzFhCwglR1VK0LCeSDTa1kvOJ55_6ZlBkDTexxM32SNF9AivRBb99ZCe0EYzsARE21c_GN96n4GeGVUunHmzuEWpWRhn6kd9J-nvtdw0qwFF8IQq0rTzBZfhrRAfJU8-FJ2luketsVDGIOnUrBr_tqA6mhpde4EU5WNRNGHk9sXYwEUAVReTRe4DKS9NArAqrvofrZ8aDLpcaITzgbHIFs86RinIVU1LOnqxJVgRabjeeP0gUGdc7atN5ZV8GMcNIb7Y8U_GChokNj_UcB_DRV7w2mg2__NVA3ItVGe-T6CYOfbPqtp96rmg0hLVZyq_ddyVBsSrYlBfgZ4RePDzFNSGW4U8T7uA0_-zJ46hzXYbe-rioOkWAJFD_Ws4j122oadxewtFCNEtr3m00]--></g></svg>