<?xml version="1.0" encoding="us-ascii" standalone="no"?><svg xmlns="http://www.w3.org/2000/svg" xmlns:xlink="http://www.w3.org/1999/xlink" contentStyleType="text/css" height="1421px" preserveAspectRatio="none" style="width:3154px;height:1421px;background:#FFFFFF;" version="1.1" viewBox="0 0 3154 1421" width="3154px" zoomAndPan="magnify"><defs/><g><!--cluster UserAggregate--><g id="cluster_UserAggregate"><path d="M1342.5,6.0137 L1449.5,6.0137 A3.75,3.75 0 0 1 1452,8.5137 L1459,30.6348 L2116.5,30.6348 A2.5,2.5 0 0 1 2119,33.1348 L2119,768.5137 A2.5,2.5 0 0 1 2116.5,771.0137 L1342.5,771.0137 A2.5,2.5 0 0 1 1340,768.5137 L1340,8.5137 A2.5,2.5 0 0 1 1342.5,6.0137 " fill="none" style="stroke:#000000;stroke-width:1.5;"/><line style="stroke:#000000;stroke-width:1.5;" x1="1340" x2="1459" y1="30.6348" y2="30.6348"/><text fill="#000000" font-family="sans-serif" font-size="14" font-weight="bold" lengthAdjust="spacing" textLength="106" x="1344" y="23.1211">UserAggregate</text></g><!--cluster JobOfferAggregate--><g id="cluster_JobOfferAggregate"><path d="M2145.5,529.0137 L2281.5,529.0137 A3.75,3.75 0 0 1 2284,531.5137 L2291,553.6348 L3144.5,553.6348 A2.5,2.5 0 0 1 3147,556.1348 L3147,1099.5137 A2.5,2.5 0 0 1 3144.5,1102.0137 L2145.5,1102.0137 A2.5,2.5 0 0 1 2143,1099.5137 L2143,531.5137 A2.5,2.5 0 0 1 2145.5,529.0137 " fill="none" style="stroke:#000000;stroke-width:1.5;"/><line style="stroke:#000000;stroke-width:1.5;" x1="2143" x2="2291" y1="553.6348" y2="553.6348"/><text fill="#000000" font-family="sans-serif" font-size="14" font-weight="bold" lengthAdjust="spacing" textLength="135" x="2147" y="546.1211">JobOfferAggregate</text></g><!--cluster RequirementsSpecification--><g id="cluster_RequirementsSpecification"><path d="M8.5,822.0137 L199.5,822.0137 A3.75,3.75 0 0 1 202,824.5137 L209,846.6348 L584.5,846.6348 A2.5,2.5 0 0 1 587,849.1348 L587,1268.5137 A2.5,2.5 0 0 1 584.5,1271.0137 L8.5,1271.0137 A2.5,2.5 0 0 1 6,1268.5137 L6,824.5137 A2.5,2.5 0 0 1 8.5,822.0137 " fill="none" style="stroke:#000000;stroke-width:1.5;"/><line style="stroke:#000000;stroke-width:1.5;" x1="6" x2="209" y1="846.6348" y2="846.6348"/><text fill="#000000" font-family="sans-serif" font-size="14" font-weight="bold" lengthAdjust="spacing" textLength="190" x="10" y="839.1211">RequirementsSpecification</text></g><!--cluster InterviewAggregate--><g id="cluster_InterviewAggregate"><path d="M1124.5,985.0137 L1264.5,985.0137 A3.75,3.75 0 0 1 1267,987.5137 L1274,1009.6348 L2116.5,1009.6348 A2.5,2.5 0 0 1 2119,1012.1348 L2119,1411.5137 A2.5,2.5 0 0 1 2116.5,1414.0137 L1124.5,1414.0137 A2.5,2.5 0 0 1 1122,1411.5137 L1122,987.5137 A2.5,2.5 0 0 1 1124.5,985.0137 " fill="none" style="stroke:#000000;stroke-width:1.5;"/><line style="stroke:#000000;stroke-width:1.5;" x1="1122" x2="1274" y1="1009.6348" y2="1009.6348"/><text fill="#000000" font-family="sans-serif" font-size="14" font-weight="bold" lengthAdjust="spacing" textLength="139" x="1126" y="1002.1211">InterviewAggregate</text></g><!--cluster PluginAggregate--><g id="cluster_PluginAggregate"><path d="M613.5,1154.0137 L731.5,1154.0137 A3.75,3.75 0 0 1 734,1156.5137 L741,1178.6348 L1095.5,1178.6348 A2.5,2.5 0 0 1 1098,1181.1348 L1098,1411.5137 A2.5,2.5 0 0 1 1095.5,1414.0137 L613.5,1414.0137 A2.5,2.5 0 0 1 611,1411.5137 L611,1156.5137 A2.5,2.5 0 0 1 613.5,1154.0137 " fill="none" style="stroke:#000000;stroke-width:1.5;"/><line style="stroke:#000000;stroke-width:1.5;" x1="611" x2="741" y1="1178.6348" y2="1178.6348"/><text fill="#000000" font-family="sans-serif" font-size="14" font-weight="bold" lengthAdjust="spacing" textLength="117" x="615" y="1171.1211">PluginAggregate</text></g><!--class CustomerManager--><g id="elem_CustomerManager"><rect codeLine="4" fill="#F1F1F1" height="66.6211" id="CustomerManager" rx="2.5" ry="2.5" style="stroke:#181818;stroke-width:0.5;" width="149" x="1826.5" y="43.0137"/><ellipse cx="1841.5" cy="59.0137" fill="#ADD1B2" rx="11" ry="11" style="stroke:#181818;stroke-width:1.0;"/><path d="M1840.3594,59.8105 L1840.3594,62.3105 L1844.6875,62.3105 L1844.6875,61.3887 Q1844.6875,60.7793 1844.9219,60.5137 Q1845.1719,60.248 1845.5469,60.248 Q1845.9219,60.248 1846.1563,60.5137 Q1846.3906,60.7793 1846.3906,61.3887 L1846.3906,64.0137 L1838.3906,64.0137 Q1837.7656,64.0137 1837.5,63.7793 Q1837.25,63.5449 1837.25,63.1543 Q1837.25,62.7793 1837.5156,62.5449 Q1837.7813,62.3105 1838.3906,62.3105 L1838.6563,62.3105 L1838.6563,55.6543 L1838.3906,55.6543 Q1837.7656,55.6543 1837.5,55.4199 Q1837.25,55.1855 1837.25,54.7949 Q1837.25,54.4199 1837.5,54.1855 Q1837.7656,53.9512 1838.3906,53.9512 L1846.0156,53.9512 L1846.0156,56.5449 Q1846.0156,57.1543 1845.7813,57.4199 Q1845.5625,57.6699 1845.1719,57.6699 Q1844.7969,57.6699 1844.5625,57.4199 Q1844.3281,57.1543 1844.3281,56.5449 L1844.3281,55.6543 L1840.3594,55.6543 L1840.3594,58.1074 L1841.8438,58.1074 Q1841.8438,57.4512 1841.9688,57.2637 Q1842.2344,56.8574 1842.7031,56.8574 Q1843.0781,56.8574 1843.3125,57.123 Q1843.5469,57.373 1843.5469,57.9824 L1843.5469,59.9512 Q1843.5469,60.498 1843.4219,60.6855 Q1843.1563,61.0762 1842.7031,61.0762 Q1842.2344,61.0762 1841.9688,60.6699 Q1841.8438,60.4824 1841.8438,59.8105 L1840.3594,59.8105 Z " fill="#000000"/><text fill="#000000" font-family="sans-serif" font-size="14" lengthAdjust="spacing" textLength="117" x="1855.5" y="64.8105">CustomerManager</text><line style="stroke:#181818;stroke-width:0.5;" x1="1827.5" x2="1974.5" y1="75.0137" y2="75.0137"/><text fill="#000000" font-family="sans-serif" font-size="14" lengthAdjust="spacing" textLength="50" x="1832.5" y="94.1211">&#171;entity&#187;</text><line style="stroke:#181818;stroke-width:0.5;" x1="1827.5" x2="1974.5" y1="101.6348" y2="101.6348"/></g><!--class Customer--><g id="elem_Customer"><rect codeLine="8" fill="#F1F1F1" height="66.6211" id="Customer" rx="2.5" ry="2.5" style="stroke:#181818;stroke-width:0.5;" width="93" x="1973.5" y="171.0137"/><ellipse cx="1988.5" cy="187.0137" fill="#ADD1B2" rx="11" ry="11" style="stroke:#181818;stroke-width:1.0;"/><path d="M1987.3594,187.8105 L1987.3594,190.3105 L1991.6875,190.3105 L1991.6875,189.3887 Q1991.6875,188.7793 1991.9219,188.5137 Q1992.1719,188.248 1992.5469,188.248 Q1992.9219,188.248 1993.1563,188.5137 Q1993.3906,188.7793 1993.3906,189.3887 L1993.3906,192.0137 L1985.3906,192.0137 Q1984.7656,192.0137 1984.5,191.7793 Q1984.25,191.5449 1984.25,191.1543 Q1984.25,190.7793 1984.5156,190.5449 Q1984.7813,190.3105 1985.3906,190.3105 L1985.6563,190.3105 L1985.6563,183.6543 L1985.3906,183.6543 Q1984.7656,183.6543 1984.5,183.4199 Q1984.25,183.1855 1984.25,182.7949 Q1984.25,182.4199 1984.5,182.1855 Q1984.7656,181.9512 1985.3906,181.9512 L1993.0156,181.9512 L1993.0156,184.5449 Q1993.0156,185.1543 1992.7813,185.4199 Q1992.5625,185.6699 1992.1719,185.6699 Q1991.7969,185.6699 1991.5625,185.4199 Q1991.3281,185.1543 1991.3281,184.5449 L1991.3281,183.6543 L1987.3594,183.6543 L1987.3594,186.1074 L1988.8438,186.1074 Q1988.8438,185.4512 1988.9688,185.2637 Q1989.2344,184.8574 1989.7031,184.8574 Q1990.0781,184.8574 1990.3125,185.123 Q1990.5469,185.373 1990.5469,185.9824 L1990.5469,187.9512 Q1990.5469,188.498 1990.4219,188.6855 Q1990.1563,189.0762 1989.7031,189.0762 Q1989.2344,189.0762 1988.9688,188.6699 Q1988.8438,188.4824 1988.8438,187.8105 L1987.3594,187.8105 Z " fill="#000000"/><text fill="#000000" font-family="sans-serif" font-size="14" lengthAdjust="spacing" textLength="61" x="2002.5" y="192.8105">Customer</text><line style="stroke:#181818;stroke-width:0.5;" x1="1974.5" x2="2065.5" y1="203.0137" y2="203.0137"/><text fill="#000000" font-family="sans-serif" font-size="14" lengthAdjust="spacing" textLength="50" x="1979.5" y="222.1211">&#171;entity&#187;</text><line style="stroke:#181818;stroke-width:0.5;" x1="1974.5" x2="2065.5" y1="229.6348" y2="229.6348"/></g><!--class EmailAddress--><g id="elem_EmailAddress"><rect codeLine="12" fill="#F1F1F1" height="60.582" id="EmailAddress" rx="2.5" ry="2.5" style="stroke:#181818;stroke-width:0.5;" width="162" x="1356" y="694.0137"/><ellipse cx="1371" cy="716.3047" fill="#F09000" rx="11" ry="11" style="stroke:#181818;stroke-width:1.0;"/><path d="M1371.5938,719.5703 L1374.0625,713.6953 L1373.6719,713.6953 Q1373.0625,713.6953 1372.7969,713.4609 Q1372.5313,713.2266 1372.5313,712.8359 Q1372.5313,712.4609 1372.7969,712.2266 Q1373.0625,711.9922 1373.6719,711.9922 L1375.9531,711.9922 Q1376.5625,711.9922 1376.8281,712.2266 Q1377.0938,712.4609 1377.0938,712.8359 Q1377.0938,713.3047 1376.6875,713.5703 Q1376.5,713.6953 1375.9063,713.6953 L1372.4219,722.0547 L1370.7813,722.0547 L1367.2969,713.6953 Q1366.7031,713.6953 1366.5156,713.5703 Q1366.1094,713.3047 1366.1094,712.8359 Q1366.1094,712.4609 1366.375,712.2266 Q1366.6406,711.9922 1367.25,711.9922 L1369.5469,711.9922 Q1370.1563,711.9922 1370.4063,712.2266 Q1370.6719,712.4609 1370.6719,712.8359 Q1370.6719,713.2266 1370.4063,713.4609 Q1370.1563,713.6953 1369.5469,713.6953 L1369.1406,713.6953 L1371.5938,719.5703 Z " fill="#000000"/><text fill="#000000" font-family="sans-serif" font-size="12" font-style="italic" lengthAdjust="spacing" textLength="134" x="1383" y="711.9629">&#171;Identifier value Object&#187;</text><text fill="#000000" font-family="sans-serif" font-size="14" lengthAdjust="spacing" textLength="86" x="1407" y="730.082">EmailAddress</text><line style="stroke:#181818;stroke-width:0.5;" x1="1357" x2="1517" y1="738.5957" y2="738.5957"/><line style="stroke:#181818;stroke-width:0.5;" x1="1357" x2="1517" y1="746.5957" y2="746.5957"/></g><!--class User--><g id="elem_User"><rect codeLine="13" fill="#F1F1F1" height="66.6211" id="User" rx="2.5" ry="2.5" style="stroke:#181818;stroke-width:0.5;" width="91" x="1855.5" y="299.0137"/><ellipse cx="1884" cy="315.0137" fill="#ADD1B2" rx="11" ry="11" style="stroke:#181818;stroke-width:1.0;"/><path d="M1882.8594,315.8105 L1882.8594,318.3105 L1887.1875,318.3105 L1887.1875,317.3887 Q1887.1875,316.7793 1887.4219,316.5137 Q1887.6719,316.248 1888.0469,316.248 Q1888.4219,316.248 1888.6563,316.5137 Q1888.8906,316.7793 1888.8906,317.3887 L1888.8906,320.0137 L1880.8906,320.0137 Q1880.2656,320.0137 1880,319.7793 Q1879.75,319.5449 1879.75,319.1543 Q1879.75,318.7793 1880.0156,318.5449 Q1880.2813,318.3105 1880.8906,318.3105 L1881.1563,318.3105 L1881.1563,311.6543 L1880.8906,311.6543 Q1880.2656,311.6543 1880,311.4199 Q1879.75,311.1855 1879.75,310.7949 Q1879.75,310.4199 1880,310.1855 Q1880.2656,309.9512 1880.8906,309.9512 L1888.5156,309.9512 L1888.5156,312.5449 Q1888.5156,313.1543 1888.2813,313.4199 Q1888.0625,313.6699 1887.6719,313.6699 Q1887.2969,313.6699 1887.0625,313.4199 Q1886.8281,313.1543 1886.8281,312.5449 L1886.8281,311.6543 L1882.8594,311.6543 L1882.8594,314.1074 L1884.3438,314.1074 Q1884.3438,313.4512 1884.4688,313.2637 Q1884.7344,312.8574 1885.2031,312.8574 Q1885.5781,312.8574 1885.8125,313.123 Q1886.0469,313.373 1886.0469,313.9824 L1886.0469,315.9512 Q1886.0469,316.498 1885.9219,316.6855 Q1885.6563,317.0762 1885.2031,317.0762 Q1884.7344,317.0762 1884.4688,316.6699 Q1884.3438,316.4824 1884.3438,315.8105 L1882.8594,315.8105 Z " fill="#000000"/><text fill="#000000" font-family="sans-serif" font-size="14" lengthAdjust="spacing" textLength="29" x="1901" y="320.8105">User</text><line style="stroke:#181818;stroke-width:0.5;" x1="1856.5" x2="1945.5" y1="331.0137" y2="331.0137"/><text fill="#000000" font-family="sans-serif" font-size="14" lengthAdjust="spacing" textLength="79" x="1861.5" y="350.1211">&#171;root entity&#187;</text><line style="stroke:#181818;stroke-width:0.5;" x1="1856.5" x2="1945.5" y1="357.6348" y2="357.6348"/></g><!--class Password--><g id="elem_Password"><rect codeLine="17" fill="#F1F1F1" height="60.582" id="Password" rx="2.5" ry="2.5" style="stroke:#181818;stroke-width:0.5;" width="111" x="1553.5" y="694.0137"/><ellipse cx="1568.5" cy="716.3047" fill="#F04800" rx="11" ry="11" style="stroke:#181818;stroke-width:1.0;"/><path d="M1569.0938,719.5703 L1571.5625,713.6953 L1571.1719,713.6953 Q1570.5625,713.6953 1570.2969,713.4609 Q1570.0313,713.2266 1570.0313,712.8359 Q1570.0313,712.4609 1570.2969,712.2266 Q1570.5625,711.9922 1571.1719,711.9922 L1573.4531,711.9922 Q1574.0625,711.9922 1574.3281,712.2266 Q1574.5938,712.4609 1574.5938,712.8359 Q1574.5938,713.3047 1574.1875,713.5703 Q1574,713.6953 1573.4063,713.6953 L1569.9219,722.0547 L1568.2813,722.0547 L1564.7969,713.6953 Q1564.2031,713.6953 1564.0156,713.5703 Q1563.6094,713.3047 1563.6094,712.8359 Q1563.6094,712.4609 1563.875,712.2266 Q1564.1406,711.9922 1564.75,711.9922 L1567.0469,711.9922 Q1567.6563,711.9922 1567.9063,712.2266 Q1568.1719,712.4609 1568.1719,712.8359 Q1568.1719,713.2266 1567.9063,713.4609 Q1567.6563,713.6953 1567.0469,713.6953 L1566.6406,713.6953 L1569.0938,719.5703 Z " fill="#000000"/><text fill="#000000" font-family="sans-serif" font-size="12" font-style="italic" lengthAdjust="spacing" textLength="83" x="1580.5" y="711.9629">&#171;value Object&#187;</text><text fill="#000000" font-family="sans-serif" font-size="14" lengthAdjust="spacing" textLength="61" x="1591.5" y="730.082">Password</text><line style="stroke:#181818;stroke-width:0.5;" x1="1554.5" x2="1663.5" y1="738.5957" y2="738.5957"/><line style="stroke:#181818;stroke-width:0.5;" x1="1554.5" x2="1663.5" y1="746.5957" y2="746.5957"/></g><!--class Role--><g id="elem_Role"><rect codeLine="18" fill="#F1F1F1" height="60.582" id="Role" rx="2.5" ry="2.5" style="stroke:#181818;stroke-width:0.5;" width="111" x="1699.5" y="694.0137"/><ellipse cx="1714.5" cy="716.3047" fill="#F04800" rx="11" ry="11" style="stroke:#181818;stroke-width:1.0;"/><path d="M1715.0938,719.5703 L1717.5625,713.6953 L1717.1719,713.6953 Q1716.5625,713.6953 1716.2969,713.4609 Q1716.0313,713.2266 1716.0313,712.8359 Q1716.0313,712.4609 1716.2969,712.2266 Q1716.5625,711.9922 1717.1719,711.9922 L1719.4531,711.9922 Q1720.0625,711.9922 1720.3281,712.2266 Q1720.5938,712.4609 1720.5938,712.8359 Q1720.5938,713.3047 1720.1875,713.5703 Q1720,713.6953 1719.4063,713.6953 L1715.9219,722.0547 L1714.2813,722.0547 L1710.7969,713.6953 Q1710.2031,713.6953 1710.0156,713.5703 Q1709.6094,713.3047 1709.6094,712.8359 Q1709.6094,712.4609 1709.875,712.2266 Q1710.1406,711.9922 1710.75,711.9922 L1713.0469,711.9922 Q1713.6563,711.9922 1713.9063,712.2266 Q1714.1719,712.4609 1714.1719,712.8359 Q1714.1719,713.2266 1713.9063,713.4609 Q1713.6563,713.6953 1713.0469,713.6953 L1712.6406,713.6953 L1715.0938,719.5703 Z " fill="#000000"/><text fill="#000000" font-family="sans-serif" font-size="12" font-style="italic" lengthAdjust="spacing" textLength="83" x="1726.5" y="711.9629">&#171;value Object&#187;</text><text fill="#000000" font-family="sans-serif" font-size="14" lengthAdjust="spacing" textLength="29" x="1753.5" y="730.082">Role</text><line style="stroke:#181818;stroke-width:0.5;" x1="1700.5" x2="1809.5" y1="738.5957" y2="738.5957"/><line style="stroke:#181818;stroke-width:0.5;" x1="1700.5" x2="1809.5" y1="746.5957" y2="746.5957"/></g><!--class Name--><g id="elem_Name"><rect codeLine="19" fill="#F1F1F1" height="60.582" id="Name" rx="2.5" ry="2.5" style="stroke:#181818;stroke-width:0.5;" width="111" x="1845.5" y="694.0137"/><ellipse cx="1860.5" cy="716.3047" fill="#F04800" rx="11" ry="11" style="stroke:#181818;stroke-width:1.0;"/><path d="M1861.0938,719.5703 L1863.5625,713.6953 L1863.1719,713.6953 Q1862.5625,713.6953 1862.2969,713.4609 Q1862.0313,713.2266 1862.0313,712.8359 Q1862.0313,712.4609 1862.2969,712.2266 Q1862.5625,711.9922 1863.1719,711.9922 L1865.4531,711.9922 Q1866.0625,711.9922 1866.3281,712.2266 Q1866.5938,712.4609 1866.5938,712.8359 Q1866.5938,713.3047 1866.1875,713.5703 Q1866,713.6953 1865.4063,713.6953 L1861.9219,722.0547 L1860.2813,722.0547 L1856.7969,713.6953 Q1856.2031,713.6953 1856.0156,713.5703 Q1855.6094,713.3047 1855.6094,712.8359 Q1855.6094,712.4609 1855.875,712.2266 Q1856.1406,711.9922 1856.75,711.9922 L1859.0469,711.9922 Q1859.6563,711.9922 1859.9063,712.2266 Q1860.1719,712.4609 1860.1719,712.8359 Q1860.1719,713.2266 1859.9063,713.4609 Q1859.6563,713.6953 1859.0469,713.6953 L1858.6406,713.6953 L1861.0938,719.5703 Z " fill="#000000"/><text fill="#000000" font-family="sans-serif" font-size="12" font-style="italic" lengthAdjust="spacing" textLength="83" x="1872.5" y="711.9629">&#171;value Object&#187;</text><text fill="#000000" font-family="sans-serif" font-size="14" lengthAdjust="spacing" textLength="36" x="1896" y="730.082">Name</text><line style="stroke:#181818;stroke-width:0.5;" x1="1846.5" x2="1955.5" y1="738.5957" y2="738.5957"/><line style="stroke:#181818;stroke-width:0.5;" x1="1846.5" x2="1955.5" y1="746.5957" y2="746.5957"/></g><!--class Address--><g id="elem_Address"><rect codeLine="20" fill="#F1F1F1" height="60.582" id="Address" rx="2.5" ry="2.5" style="stroke:#181818;stroke-width:0.5;" width="111" x="1991.5" y="694.0137"/><ellipse cx="2006.5" cy="716.3047" fill="#F04800" rx="11" ry="11" style="stroke:#181818;stroke-width:1.0;"/><path d="M2007.0938,719.5703 L2009.5625,713.6953 L2009.1719,713.6953 Q2008.5625,713.6953 2008.2969,713.4609 Q2008.0313,713.2266 2008.0313,712.8359 Q2008.0313,712.4609 2008.2969,712.2266 Q2008.5625,711.9922 2009.1719,711.9922 L2011.4531,711.9922 Q2012.0625,711.9922 2012.3281,712.2266 Q2012.5938,712.4609 2012.5938,712.8359 Q2012.5938,713.3047 2012.1875,713.5703 Q2012,713.6953 2011.4063,713.6953 L2007.9219,722.0547 L2006.2813,722.0547 L2002.7969,713.6953 Q2002.2031,713.6953 2002.0156,713.5703 Q2001.6094,713.3047 2001.6094,712.8359 Q2001.6094,712.4609 2001.875,712.2266 Q2002.1406,711.9922 2002.75,711.9922 L2005.0469,711.9922 Q2005.6563,711.9922 2005.9063,712.2266 Q2006.1719,712.4609 2006.1719,712.8359 Q2006.1719,713.2266 2005.9063,713.4609 Q2005.6563,713.6953 2005.0469,713.6953 L2004.6406,713.6953 L2007.0938,719.5703 Z " fill="#000000"/><text fill="#000000" font-family="sans-serif" font-size="12" font-style="italic" lengthAdjust="spacing" textLength="83" x="2018.5" y="711.9629">&#171;value Object&#187;</text><text fill="#000000" font-family="sans-serif" font-size="14" lengthAdjust="spacing" textLength="52" x="2034" y="730.082">Address</text><line style="stroke:#181818;stroke-width:0.5;" x1="1992.5" x2="2101.5" y1="738.5957" y2="738.5957"/><line style="stroke:#181818;stroke-width:0.5;" x1="1992.5" x2="2101.5" y1="746.5957" y2="746.5957"/></g><!--class JobOffer--><g id="elem_JobOffer"><rect codeLine="24" fill="#F1F1F1" height="66.6211" id="JobOffer" rx="2.5" ry="2.5" style="stroke:#181818;stroke-width:0.5;" width="91" x="2336.5" y="566.0137"/><ellipse cx="2353.75" cy="582.0137" fill="#ADD1B2" rx="11" ry="11" style="stroke:#181818;stroke-width:1.0;"/><path d="M2352.6094,582.8105 L2352.6094,585.3105 L2356.9375,585.3105 L2356.9375,584.3887 Q2356.9375,583.7793 2357.1719,583.5137 Q2357.4219,583.248 2357.7969,583.248 Q2358.1719,583.248 2358.4063,583.5137 Q2358.6406,583.7793 2358.6406,584.3887 L2358.6406,587.0137 L2350.6406,587.0137 Q2350.0156,587.0137 2349.75,586.7793 Q2349.5,586.5449 2349.5,586.1543 Q2349.5,585.7793 2349.7656,585.5449 Q2350.0313,585.3105 2350.6406,585.3105 L2350.9063,585.3105 L2350.9063,578.6543 L2350.6406,578.6543 Q2350.0156,578.6543 2349.75,578.4199 Q2349.5,578.1855 2349.5,577.7949 Q2349.5,577.4199 2349.75,577.1855 Q2350.0156,576.9512 2350.6406,576.9512 L2358.2656,576.9512 L2358.2656,579.5449 Q2358.2656,580.1543 2358.0313,580.4199 Q2357.8125,580.6699 2357.4219,580.6699 Q2357.0469,580.6699 2356.8125,580.4199 Q2356.5781,580.1543 2356.5781,579.5449 L2356.5781,578.6543 L2352.6094,578.6543 L2352.6094,581.1074 L2354.0938,581.1074 Q2354.0938,580.4512 2354.2188,580.2637 Q2354.4844,579.8574 2354.9531,579.8574 Q2355.3281,579.8574 2355.5625,580.123 Q2355.7969,580.373 2355.7969,580.9824 L2355.7969,582.9512 Q2355.7969,583.498 2355.6719,583.6855 Q2355.4063,584.0762 2354.9531,584.0762 Q2354.4844,584.0762 2354.2188,583.6699 Q2354.0938,583.4824 2354.0938,582.8105 L2352.6094,582.8105 Z " fill="#000000"/><text fill="#000000" font-family="sans-serif" font-size="14" lengthAdjust="spacing" textLength="54" x="2368.25" y="587.8105">JobOffer</text><line style="stroke:#181818;stroke-width:0.5;" x1="2337.5" x2="2426.5" y1="598.0137" y2="598.0137"/><text fill="#000000" font-family="sans-serif" font-size="14" lengthAdjust="spacing" textLength="79" x="2342.5" y="617.1211">&#171;root entity&#187;</text><line style="stroke:#181818;stroke-width:0.5;" x1="2337.5" x2="2426.5" y1="624.6348" y2="624.6348"/></g><!--class JobRefCode--><g id="elem_JobRefCode"><rect codeLine="28" fill="#F1F1F1" height="60.582" id="JobRefCode" rx="2.5" ry="2.5" style="stroke:#181818;stroke-width:0.5;" width="162" x="2159" y="1025.0137"/><ellipse cx="2174" cy="1047.3047" fill="#F09000" rx="11" ry="11" style="stroke:#181818;stroke-width:1.0;"/><path d="M2174.5938,1050.5703 L2177.0625,1044.6953 L2176.6719,1044.6953 Q2176.0625,1044.6953 2175.7969,1044.4609 Q2175.5313,1044.2266 2175.5313,1043.8359 Q2175.5313,1043.4609 2175.7969,1043.2266 Q2176.0625,1042.9922 2176.6719,1042.9922 L2178.9531,1042.9922 Q2179.5625,1042.9922 2179.8281,1043.2266 Q2180.0938,1043.4609 2180.0938,1043.8359 Q2180.0938,1044.3047 2179.6875,1044.5703 Q2179.5,1044.6953 2178.9063,1044.6953 L2175.4219,1053.0547 L2173.7813,1053.0547 L2170.2969,1044.6953 Q2169.7031,1044.6953 2169.5156,1044.5703 Q2169.1094,1044.3047 2169.1094,1043.8359 Q2169.1094,1043.4609 2169.375,1043.2266 Q2169.6406,1042.9922 2170.25,1042.9922 L2172.5469,1042.9922 Q2173.1563,1042.9922 2173.4063,1043.2266 Q2173.6719,1043.4609 2173.6719,1043.8359 Q2173.6719,1044.2266 2173.4063,1044.4609 Q2173.1563,1044.6953 2172.5469,1044.6953 L2172.1406,1044.6953 L2174.5938,1050.5703 Z " fill="#000000"/><text fill="#000000" font-family="sans-serif" font-size="12" font-style="italic" lengthAdjust="spacing" textLength="134" x="2186" y="1042.9629">&#171;Identifier value Object&#187;</text><text fill="#000000" font-family="sans-serif" font-size="14" lengthAdjust="spacing" textLength="78" x="2214" y="1061.082">JobRefCode</text><line style="stroke:#181818;stroke-width:0.5;" x1="2160" x2="2320" y1="1069.5957" y2="1069.5957"/><line style="stroke:#181818;stroke-width:0.5;" x1="2160" x2="2320" y1="1077.5957" y2="1077.5957"/></g><!--class JobTitle--><g id="elem_JobTitle"><rect codeLine="29" fill="#F1F1F1" height="60.582" id="JobTitle" rx="2.5" ry="2.5" style="stroke:#181818;stroke-width:0.5;" width="111" x="2356.5" y="1025.0137"/><ellipse cx="2371.5" cy="1047.3047" fill="#F04800" rx="11" ry="11" style="stroke:#181818;stroke-width:1.0;"/><path d="M2372.0938,1050.5703 L2374.5625,1044.6953 L2374.1719,1044.6953 Q2373.5625,1044.6953 2373.2969,1044.4609 Q2373.0313,1044.2266 2373.0313,1043.8359 Q2373.0313,1043.4609 2373.2969,1043.2266 Q2373.5625,1042.9922 2374.1719,1042.9922 L2376.4531,1042.9922 Q2377.0625,1042.9922 2377.3281,1043.2266 Q2377.5938,1043.4609 2377.5938,1043.8359 Q2377.5938,1044.3047 2377.1875,1044.5703 Q2377,1044.6953 2376.4063,1044.6953 L2372.9219,1053.0547 L2371.2813,1053.0547 L2367.7969,1044.6953 Q2367.2031,1044.6953 2367.0156,1044.5703 Q2366.6094,1044.3047 2366.6094,1043.8359 Q2366.6094,1043.4609 2366.875,1043.2266 Q2367.1406,1042.9922 2367.75,1042.9922 L2370.0469,1042.9922 Q2370.6563,1042.9922 2370.9063,1043.2266 Q2371.1719,1043.4609 2371.1719,1043.8359 Q2371.1719,1044.2266 2370.9063,1044.4609 Q2370.6563,1044.6953 2370.0469,1044.6953 L2369.6406,1044.6953 L2372.0938,1050.5703 Z " fill="#000000"/><text fill="#000000" font-family="sans-serif" font-size="12" font-style="italic" lengthAdjust="spacing" textLength="83" x="2383.5" y="1042.9629">&#171;value Object&#187;</text><text fill="#000000" font-family="sans-serif" font-size="14" lengthAdjust="spacing" textLength="49" x="2400.5" y="1061.082">JobTitle</text><line style="stroke:#181818;stroke-width:0.5;" x1="2357.5" x2="2466.5" y1="1069.5957" y2="1069.5957"/><line style="stroke:#181818;stroke-width:0.5;" x1="2357.5" x2="2466.5" y1="1077.5957" y2="1077.5957"/></g><!--class ContractType--><g id="elem_ContractType"><rect codeLine="30" fill="#F1F1F1" height="60.582" id="ContractType" rx="2.5" ry="2.5" style="stroke:#181818;stroke-width:0.5;" width="118" x="2503" y="1025.0137"/><ellipse cx="2518" cy="1047.3047" fill="#F04800" rx="11" ry="11" style="stroke:#181818;stroke-width:1.0;"/><path d="M2518.5938,1050.5703 L2521.0625,1044.6953 L2520.6719,1044.6953 Q2520.0625,1044.6953 2519.7969,1044.4609 Q2519.5313,1044.2266 2519.5313,1043.8359 Q2519.5313,1043.4609 2519.7969,1043.2266 Q2520.0625,1042.9922 2520.6719,1042.9922 L2522.9531,1042.9922 Q2523.5625,1042.9922 2523.8281,1043.2266 Q2524.0938,1043.4609 2524.0938,1043.8359 Q2524.0938,1044.3047 2523.6875,1044.5703 Q2523.5,1044.6953 2522.9063,1044.6953 L2519.4219,1053.0547 L2517.7813,1053.0547 L2514.2969,1044.6953 Q2513.7031,1044.6953 2513.5156,1044.5703 Q2513.1094,1044.3047 2513.1094,1043.8359 Q2513.1094,1043.4609 2513.375,1043.2266 Q2513.6406,1042.9922 2514.25,1042.9922 L2516.5469,1042.9922 Q2517.1563,1042.9922 2517.4063,1043.2266 Q2517.6719,1043.4609 2517.6719,1043.8359 Q2517.6719,1044.2266 2517.4063,1044.4609 Q2517.1563,1044.6953 2516.5469,1044.6953 L2516.1406,1044.6953 L2518.5938,1050.5703 Z " fill="#000000"/><text fill="#000000" font-family="sans-serif" font-size="12" font-style="italic" lengthAdjust="spacing" textLength="83" x="2533.5" y="1042.9629">&#171;value Object&#187;</text><text fill="#000000" font-family="sans-serif" font-size="14" lengthAdjust="spacing" textLength="86" x="2532" y="1061.082">ContractType</text><line style="stroke:#181818;stroke-width:0.5;" x1="2504" x2="2620" y1="1069.5957" y2="1069.5957"/><line style="stroke:#181818;stroke-width:0.5;" x1="2504" x2="2620" y1="1077.5957" y2="1077.5957"/></g><!--class JobMode--><g id="elem_JobMode"><rect codeLine="31" fill="#F1F1F1" height="60.582" id="JobMode" rx="2.5" ry="2.5" style="stroke:#181818;stroke-width:0.5;" width="111" x="2656.5" y="1025.0137"/><ellipse cx="2671.5" cy="1047.3047" fill="#F04800" rx="11" ry="11" style="stroke:#181818;stroke-width:1.0;"/><path d="M2672.0938,1050.5703 L2674.5625,1044.6953 L2674.1719,1044.6953 Q2673.5625,1044.6953 2673.2969,1044.4609 Q2673.0313,1044.2266 2673.0313,1043.8359 Q2673.0313,1043.4609 2673.2969,1043.2266 Q2673.5625,1042.9922 2674.1719,1042.9922 L2676.4531,1042.9922 Q2677.0625,1042.9922 2677.3281,1043.2266 Q2677.5938,1043.4609 2677.5938,1043.8359 Q2677.5938,1044.3047 2677.1875,1044.5703 Q2677,1044.6953 2676.4063,1044.6953 L2672.9219,1053.0547 L2671.2813,1053.0547 L2667.7969,1044.6953 Q2667.2031,1044.6953 2667.0156,1044.5703 Q2666.6094,1044.3047 2666.6094,1043.8359 Q2666.6094,1043.4609 2666.875,1043.2266 Q2667.1406,1042.9922 2667.75,1042.9922 L2670.0469,1042.9922 Q2670.6563,1042.9922 2670.9063,1043.2266 Q2671.1719,1043.4609 2671.1719,1043.8359 Q2671.1719,1044.2266 2670.9063,1044.4609 Q2670.6563,1044.6953 2670.0469,1044.6953 L2669.6406,1044.6953 L2672.0938,1050.5703 Z " fill="#000000"/><text fill="#000000" font-family="sans-serif" font-size="12" font-style="italic" lengthAdjust="spacing" textLength="83" x="2683.5" y="1042.9629">&#171;value Object&#187;</text><text fill="#000000" font-family="sans-serif" font-size="14" lengthAdjust="spacing" textLength="57" x="2696.5" y="1061.082">JobMode</text><line style="stroke:#181818;stroke-width:0.5;" x1="2657.5" x2="2766.5" y1="1069.5957" y2="1069.5957"/><line style="stroke:#181818;stroke-width:0.5;" x1="2657.5" x2="2766.5" y1="1077.5957" y2="1077.5957"/></g><!--class NumberOfVacancies--><g id="elem_NumberOfVacancies"><rect codeLine="32" fill="#F1F1F1" height="60.582" id="NumberOfVacancies" rx="2.5" ry="2.5" style="stroke:#181818;stroke-width:0.5;" width="161" x="2802.5" y="1025.0137"/><ellipse cx="2817.5" cy="1047.3047" fill="#F04800" rx="11" ry="11" style="stroke:#181818;stroke-width:1.0;"/><path d="M2818.0938,1050.5703 L2820.5625,1044.6953 L2820.1719,1044.6953 Q2819.5625,1044.6953 2819.2969,1044.4609 Q2819.0313,1044.2266 2819.0313,1043.8359 Q2819.0313,1043.4609 2819.2969,1043.2266 Q2819.5625,1042.9922 2820.1719,1042.9922 L2822.4531,1042.9922 Q2823.0625,1042.9922 2823.3281,1043.2266 Q2823.5938,1043.4609 2823.5938,1043.8359 Q2823.5938,1044.3047 2823.1875,1044.5703 Q2823,1044.6953 2822.4063,1044.6953 L2818.9219,1053.0547 L2817.2813,1053.0547 L2813.7969,1044.6953 Q2813.2031,1044.6953 2813.0156,1044.5703 Q2812.6094,1044.3047 2812.6094,1043.8359 Q2812.6094,1043.4609 2812.875,1043.2266 Q2813.1406,1042.9922 2813.75,1042.9922 L2816.0469,1042.9922 Q2816.6563,1042.9922 2816.9063,1043.2266 Q2817.1719,1043.4609 2817.1719,1043.8359 Q2817.1719,1044.2266 2816.9063,1044.4609 Q2816.6563,1044.6953 2816.0469,1044.6953 L2815.6406,1044.6953 L2818.0938,1050.5703 Z " fill="#000000"/><text fill="#000000" font-family="sans-serif" font-size="12" font-style="italic" lengthAdjust="spacing" textLength="83" x="2854.5" y="1042.9629">&#171;value Object&#187;</text><text fill="#000000" font-family="sans-serif" font-size="14" lengthAdjust="spacing" textLength="129" x="2831.5" y="1061.082">NumberOfVacancies</text><line style="stroke:#181818;stroke-width:0.5;" x1="2803.5" x2="2962.5" y1="1069.5957" y2="1069.5957"/><line style="stroke:#181818;stroke-width:0.5;" x1="2803.5" x2="2962.5" y1="1077.5957" y2="1077.5957"/></g><!--class JobsDescription--><g id="elem_JobsDescription"><rect codeLine="33" fill="#F1F1F1" height="60.582" id="JobsDescription" rx="2.5" ry="2.5" style="stroke:#181818;stroke-width:0.5;" width="132" x="2999" y="1025.0137"/><ellipse cx="3014" cy="1047.3047" fill="#F04800" rx="11" ry="11" style="stroke:#181818;stroke-width:1.0;"/><path d="M3014.5938,1050.5703 L3017.0625,1044.6953 L3016.6719,1044.6953 Q3016.0625,1044.6953 3015.7969,1044.4609 Q3015.5313,1044.2266 3015.5313,1043.8359 Q3015.5313,1043.4609 3015.7969,1043.2266 Q3016.0625,1042.9922 3016.6719,1042.9922 L3018.9531,1042.9922 Q3019.5625,1042.9922 3019.8281,1043.2266 Q3020.0938,1043.4609 3020.0938,1043.8359 Q3020.0938,1044.3047 3019.6875,1044.5703 Q3019.5,1044.6953 3018.9063,1044.6953 L3015.4219,1053.0547 L3013.7813,1053.0547 L3010.2969,1044.6953 Q3009.7031,1044.6953 3009.5156,1044.5703 Q3009.1094,1044.3047 3009.1094,1043.8359 Q3009.1094,1043.4609 3009.375,1043.2266 Q3009.6406,1042.9922 3010.25,1042.9922 L3012.5469,1042.9922 Q3013.1563,1042.9922 3013.4063,1043.2266 Q3013.6719,1043.4609 3013.6719,1043.8359 Q3013.6719,1044.2266 3013.4063,1044.4609 Q3013.1563,1044.6953 3012.5469,1044.6953 L3012.1406,1044.6953 L3014.5938,1050.5703 Z " fill="#000000"/><text fill="#000000" font-family="sans-serif" font-size="12" font-style="italic" lengthAdjust="spacing" textLength="83" x="3036.5" y="1042.9629">&#171;value Object&#187;</text><text fill="#000000" font-family="sans-serif" font-size="14" lengthAdjust="spacing" textLength="100" x="3028" y="1061.082">JobsDescription</text><line style="stroke:#181818;stroke-width:0.5;" x1="3000" x2="3130" y1="1069.5957" y2="1069.5957"/><line style="stroke:#181818;stroke-width:0.5;" x1="3000" x2="3130" y1="1077.5957" y2="1077.5957"/></g><!--class RequirementSpecification--><g id="elem_RequirementSpecification"><rect codeLine="38" fill="#F1F1F1" height="66.6211" id="RequirementSpecification" rx="2.5" ry="2.5" style="stroke:#181818;stroke-width:0.5;" width="193" x="352.5" y="1022.0137"/><ellipse cx="367.5" cy="1038.0137" fill="#ADD1B2" rx="11" ry="11" style="stroke:#181818;stroke-width:1.0;"/><path d="M366.3594,1038.8105 L366.3594,1041.3105 L370.6875,1041.3105 L370.6875,1040.3887 Q370.6875,1039.7793 370.9219,1039.5137 Q371.1719,1039.248 371.5469,1039.248 Q371.9219,1039.248 372.1563,1039.5137 Q372.3906,1039.7793 372.3906,1040.3887 L372.3906,1043.0137 L364.3906,1043.0137 Q363.7656,1043.0137 363.5,1042.7793 Q363.25,1042.5449 363.25,1042.1543 Q363.25,1041.7793 363.5156,1041.5449 Q363.7813,1041.3105 364.3906,1041.3105 L364.6563,1041.3105 L364.6563,1034.6543 L364.3906,1034.6543 Q363.7656,1034.6543 363.5,1034.4199 Q363.25,1034.1855 363.25,1033.7949 Q363.25,1033.4199 363.5,1033.1855 Q363.7656,1032.9512 364.3906,1032.9512 L372.0156,1032.9512 L372.0156,1035.5449 Q372.0156,1036.1543 371.7813,1036.4199 Q371.5625,1036.6699 371.1719,1036.6699 Q370.7969,1036.6699 370.5625,1036.4199 Q370.3281,1036.1543 370.3281,1035.5449 L370.3281,1034.6543 L366.3594,1034.6543 L366.3594,1037.1074 L367.8438,1037.1074 Q367.8438,1036.4512 367.9688,1036.2637 Q368.2344,1035.8574 368.7031,1035.8574 Q369.0781,1035.8574 369.3125,1036.123 Q369.5469,1036.373 369.5469,1036.9824 L369.5469,1038.9512 Q369.5469,1039.498 369.4219,1039.6855 Q369.1563,1040.0762 368.7031,1040.0762 Q368.2344,1040.0762 367.9688,1039.6699 Q367.8438,1039.4824 367.8438,1038.8105 L366.3594,1038.8105 Z " fill="#000000"/><text fill="#000000" font-family="sans-serif" font-size="14" lengthAdjust="spacing" textLength="161" x="381.5" y="1043.8105">RequirementSpecification</text><line style="stroke:#181818;stroke-width:0.5;" x1="353.5" x2="544.5" y1="1054.0137" y2="1054.0137"/><text fill="#000000" font-family="sans-serif" font-size="14" lengthAdjust="spacing" textLength="79" x="358.5" y="1073.1211">&#171;root entity&#187;</text><line style="stroke:#181818;stroke-width:0.5;" x1="353.5" x2="544.5" y1="1080.6348" y2="1080.6348"/></g><!--class RequirementSpecificationDescription--><g id="elem_RequirementSpecificationDescription"><rect codeLine="42" fill="#F1F1F1" height="60.582" id="RequirementSpecificationDescription" rx="2.5" ry="2.5" style="stroke:#181818;stroke-width:0.5;" width="264" x="22" y="1194.0137"/><ellipse cx="37" cy="1216.3047" fill="#F04800" rx="11" ry="11" style="stroke:#181818;stroke-width:1.0;"/><path d="M37.5938,1219.5703 L40.0625,1213.6953 L39.6719,1213.6953 Q39.0625,1213.6953 38.7969,1213.4609 Q38.5313,1213.2266 38.5313,1212.8359 Q38.5313,1212.4609 38.7969,1212.2266 Q39.0625,1211.9922 39.6719,1211.9922 L41.9531,1211.9922 Q42.5625,1211.9922 42.8281,1212.2266 Q43.0938,1212.4609 43.0938,1212.8359 Q43.0938,1213.3047 42.6875,1213.5703 Q42.5,1213.6953 41.9063,1213.6953 L38.4219,1222.0547 L36.7813,1222.0547 L33.2969,1213.6953 Q32.7031,1213.6953 32.5156,1213.5703 Q32.1094,1213.3047 32.1094,1212.8359 Q32.1094,1212.4609 32.375,1212.2266 Q32.6406,1211.9922 33.25,1211.9922 L35.5469,1211.9922 Q36.1563,1211.9922 36.4063,1212.2266 Q36.6719,1212.4609 36.6719,1212.8359 Q36.6719,1213.2266 36.4063,1213.4609 Q36.1563,1213.6953 35.5469,1213.6953 L35.1406,1213.6953 L37.5938,1219.5703 Z " fill="#000000"/><text fill="#000000" font-family="sans-serif" font-size="12" font-style="italic" lengthAdjust="spacing" textLength="83" x="125.5" y="1211.9629">&#171;value Object&#187;</text><text fill="#000000" font-family="sans-serif" font-size="14" lengthAdjust="spacing" textLength="232" x="51" y="1230.082">RequirementSpecificationDescription</text><line style="stroke:#181818;stroke-width:0.5;" x1="23" x2="285" y1="1238.5957" y2="1238.5957"/><line style="stroke:#181818;stroke-width:0.5;" x1="23" x2="285" y1="1246.5957" y2="1246.5957"/></g><!--class RequirementSpecificationAnswer--><g id="elem_RequirementSpecificationAnswer"><rect codeLine="43" fill="#F1F1F1" height="60.582" id="RequirementSpecificationAnswer" rx="2.5" ry="2.5" style="stroke:#181818;stroke-width:0.5;" width="239" x="329.5" y="859.0137"/><ellipse cx="344.5" cy="881.3047" fill="#F04800" rx="11" ry="11" style="stroke:#181818;stroke-width:1.0;"/><path d="M345.0938,884.5703 L347.5625,878.6953 L347.1719,878.6953 Q346.5625,878.6953 346.2969,878.4609 Q346.0313,878.2266 346.0313,877.8359 Q346.0313,877.4609 346.2969,877.2266 Q346.5625,876.9922 347.1719,876.9922 L349.4531,876.9922 Q350.0625,876.9922 350.3281,877.2266 Q350.5938,877.4609 350.5938,877.8359 Q350.5938,878.3047 350.1875,878.5703 Q350,878.6953 349.4063,878.6953 L345.9219,887.0547 L344.2813,887.0547 L340.7969,878.6953 Q340.2031,878.6953 340.0156,878.5703 Q339.6094,878.3047 339.6094,877.8359 Q339.6094,877.4609 339.875,877.2266 Q340.1406,876.9922 340.75,876.9922 L343.0469,876.9922 Q343.6563,876.9922 343.9063,877.2266 Q344.1719,877.4609 344.1719,877.8359 Q344.1719,878.2266 343.9063,878.4609 Q343.6563,878.6953 343.0469,878.6953 L342.6406,878.6953 L345.0938,884.5703 Z " fill="#000000"/><text fill="#000000" font-family="sans-serif" font-size="12" font-style="italic" lengthAdjust="spacing" textLength="83" x="420.5" y="876.9629">&#171;value Object&#187;</text><text fill="#000000" font-family="sans-serif" font-size="14" lengthAdjust="spacing" textLength="207" x="358.5" y="895.082">RequirementSpecificationAnswer</text><line style="stroke:#181818;stroke-width:0.5;" x1="330.5" x2="567.5" y1="903.5957" y2="903.5957"/><line style="stroke:#181818;stroke-width:0.5;" x1="330.5" x2="567.5" y1="911.5957" y2="911.5957"/></g><!--class RequirementSpecificationRefCode--><g id="elem_RequirementSpecificationRefCode"><rect codeLine="44" fill="#F1F1F1" height="60.582" id="RequirementSpecificationRefCode" rx="2.5" ry="2.5" style="stroke:#181818;stroke-width:0.5;" width="249" x="321.5" y="1194.0137"/><ellipse cx="336.5" cy="1216.3047" fill="#F09000" rx="11" ry="11" style="stroke:#181818;stroke-width:1.0;"/><path d="M337.0938,1219.5703 L339.5625,1213.6953 L339.1719,1213.6953 Q338.5625,1213.6953 338.2969,1213.4609 Q338.0313,1213.2266 338.0313,1212.8359 Q338.0313,1212.4609 338.2969,1212.2266 Q338.5625,1211.9922 339.1719,1211.9922 L341.4531,1211.9922 Q342.0625,1211.9922 342.3281,1212.2266 Q342.5938,1212.4609 342.5938,1212.8359 Q342.5938,1213.3047 342.1875,1213.5703 Q342,1213.6953 341.4063,1213.6953 L337.9219,1222.0547 L336.2813,1222.0547 L332.7969,1213.6953 Q332.2031,1213.6953 332.0156,1213.5703 Q331.6094,1213.3047 331.6094,1212.8359 Q331.6094,1212.4609 331.875,1212.2266 Q332.1406,1211.9922 332.75,1211.9922 L335.0469,1211.9922 Q335.6563,1211.9922 335.9063,1212.2266 Q336.1719,1212.4609 336.1719,1212.8359 Q336.1719,1213.2266 335.9063,1213.4609 Q335.6563,1213.6953 335.0469,1213.6953 L334.6406,1213.6953 L337.0938,1219.5703 Z " fill="#000000"/><text fill="#000000" font-family="sans-serif" font-size="12" font-style="italic" lengthAdjust="spacing" textLength="134" x="392" y="1211.9629">&#171;Identifier value Object&#187;</text><text fill="#000000" font-family="sans-serif" font-size="14" lengthAdjust="spacing" textLength="217" x="350.5" y="1230.082">RequirementSpecificationRefCode</text><line style="stroke:#181818;stroke-width:0.5;" x1="322.5" x2="569.5" y1="1238.5957" y2="1238.5957"/><line style="stroke:#181818;stroke-width:0.5;" x1="322.5" x2="569.5" y1="1246.5957" y2="1246.5957"/></g><!--class InterviewModel--><g id="elem_InterviewModel"><rect codeLine="48" fill="#F1F1F1" height="66.6211" id="InterviewModel" rx="2.5" ry="2.5" style="stroke:#181818;stroke-width:0.5;" width="125" x="1649.5" y="1022.0137"/><ellipse cx="1664.5" cy="1038.0137" fill="#ADD1B2" rx="11" ry="11" style="stroke:#181818;stroke-width:1.0;"/><path d="M1663.3594,1038.8105 L1663.3594,1041.3105 L1667.6875,1041.3105 L1667.6875,1040.3887 Q1667.6875,1039.7793 1667.9219,1039.5137 Q1668.1719,1039.248 1668.5469,1039.248 Q1668.9219,1039.248 1669.1563,1039.5137 Q1669.3906,1039.7793 1669.3906,1040.3887 L1669.3906,1043.0137 L1661.3906,1043.0137 Q1660.7656,1043.0137 1660.5,1042.7793 Q1660.25,1042.5449 1660.25,1042.1543 Q1660.25,1041.7793 1660.5156,1041.5449 Q1660.7813,1041.3105 1661.3906,1041.3105 L1661.6563,1041.3105 L1661.6563,1034.6543 L1661.3906,1034.6543 Q1660.7656,1034.6543 1660.5,1034.4199 Q1660.25,1034.1855 1660.25,1033.7949 Q1660.25,1033.4199 1660.5,1033.1855 Q1660.7656,1032.9512 1661.3906,1032.9512 L1669.0156,1032.9512 L1669.0156,1035.5449 Q1669.0156,1036.1543 1668.7813,1036.4199 Q1668.5625,1036.6699 1668.1719,1036.6699 Q1667.7969,1036.6699 1667.5625,1036.4199 Q1667.3281,1036.1543 1667.3281,1035.5449 L1667.3281,1034.6543 L1663.3594,1034.6543 L1663.3594,1037.1074 L1664.8438,1037.1074 Q1664.8438,1036.4512 1664.9688,1036.2637 Q1665.2344,1035.8574 1665.7031,1035.8574 Q1666.0781,1035.8574 1666.3125,1036.123 Q1666.5469,1036.373 1666.5469,1036.9824 L1666.5469,1038.9512 Q1666.5469,1039.498 1666.4219,1039.6855 Q1666.1563,1040.0762 1665.7031,1040.0762 Q1665.2344,1040.0762 1664.9688,1039.6699 Q1664.8438,1039.4824 1664.8438,1038.8105 L1663.3594,1038.8105 Z " fill="#000000"/><text fill="#000000" font-family="sans-serif" font-size="14" lengthAdjust="spacing" textLength="93" x="1678.5" y="1043.8105">InterviewModel</text><line style="stroke:#181818;stroke-width:0.5;" x1="1650.5" x2="1773.5" y1="1054.0137" y2="1054.0137"/><text fill="#000000" font-family="sans-serif" font-size="14" lengthAdjust="spacing" textLength="79" x="1655.5" y="1073.1211">&#171;root entity&#187;</text><line style="stroke:#181818;stroke-width:0.5;" x1="1650.5" x2="1773.5" y1="1080.6348" y2="1080.6348"/></g><!--class InterviewModelRefCode--><g id="elem_InterviewModelRefCode"><rect codeLine="52" fill="#F1F1F1" height="60.582" id="InterviewModelRefCode" rx="2.5" ry="2.5" style="stroke:#181818;stroke-width:0.5;" width="181" x="1518.5" y="1194.0137"/><ellipse cx="1533.5" cy="1216.3047" fill="#F09000" rx="11" ry="11" style="stroke:#181818;stroke-width:1.0;"/><path d="M1534.0938,1219.5703 L1536.5625,1213.6953 L1536.1719,1213.6953 Q1535.5625,1213.6953 1535.2969,1213.4609 Q1535.0313,1213.2266 1535.0313,1212.8359 Q1535.0313,1212.4609 1535.2969,1212.2266 Q1535.5625,1211.9922 1536.1719,1211.9922 L1538.4531,1211.9922 Q1539.0625,1211.9922 1539.3281,1212.2266 Q1539.5938,1212.4609 1539.5938,1212.8359 Q1539.5938,1213.3047 1539.1875,1213.5703 Q1539,1213.6953 1538.4063,1213.6953 L1534.9219,1222.0547 L1533.2813,1222.0547 L1529.7969,1213.6953 Q1529.2031,1213.6953 1529.0156,1213.5703 Q1528.6094,1213.3047 1528.6094,1212.8359 Q1528.6094,1212.4609 1528.875,1212.2266 Q1529.1406,1211.9922 1529.75,1211.9922 L1532.0469,1211.9922 Q1532.6563,1211.9922 1532.9063,1212.2266 Q1533.1719,1212.4609 1533.1719,1212.8359 Q1533.1719,1213.2266 1532.9063,1213.4609 Q1532.6563,1213.6953 1532.0469,1213.6953 L1531.6406,1213.6953 L1534.0938,1219.5703 Z " fill="#000000"/><text fill="#000000" font-family="sans-serif" font-size="12" font-style="italic" lengthAdjust="spacing" textLength="134" x="1555" y="1211.9629">&#171;Identifier value Object&#187;</text><text fill="#000000" font-family="sans-serif" font-size="14" lengthAdjust="spacing" textLength="149" x="1547.5" y="1230.082">InterviewModelRefCode</text><line style="stroke:#181818;stroke-width:0.5;" x1="1519.5" x2="1698.5" y1="1238.5957" y2="1238.5957"/><line style="stroke:#181818;stroke-width:0.5;" x1="1519.5" x2="1698.5" y1="1246.5957" y2="1246.5957"/></g><!--class InterviewTimeFrame--><g id="elem_InterviewTimeFrame"><rect codeLine="53" fill="#F1F1F1" height="60.582" id="InterviewTimeFrame" rx="2.5" ry="2.5" style="stroke:#181818;stroke-width:0.5;" width="159" x="1734.5" y="1194.0137"/><ellipse cx="1749.5" cy="1216.3047" fill="#F04800" rx="11" ry="11" style="stroke:#181818;stroke-width:1.0;"/><path d="M1750.0938,1219.5703 L1752.5625,1213.6953 L1752.1719,1213.6953 Q1751.5625,1213.6953 1751.2969,1213.4609 Q1751.0313,1213.2266 1751.0313,1212.8359 Q1751.0313,1212.4609 1751.2969,1212.2266 Q1751.5625,1211.9922 1752.1719,1211.9922 L1754.4531,1211.9922 Q1755.0625,1211.9922 1755.3281,1212.2266 Q1755.5938,1212.4609 1755.5938,1212.8359 Q1755.5938,1213.3047 1755.1875,1213.5703 Q1755,1213.6953 1754.4063,1213.6953 L1750.9219,1222.0547 L1749.2813,1222.0547 L1745.7969,1213.6953 Q1745.2031,1213.6953 1745.0156,1213.5703 Q1744.6094,1213.3047 1744.6094,1212.8359 Q1744.6094,1212.4609 1744.875,1212.2266 Q1745.1406,1211.9922 1745.75,1211.9922 L1748.0469,1211.9922 Q1748.6563,1211.9922 1748.9063,1212.2266 Q1749.1719,1212.4609 1749.1719,1212.8359 Q1749.1719,1213.2266 1748.9063,1213.4609 Q1748.6563,1213.6953 1748.0469,1213.6953 L1747.6406,1213.6953 L1750.0938,1219.5703 Z " fill="#000000"/><text fill="#000000" font-family="sans-serif" font-size="12" font-style="italic" lengthAdjust="spacing" textLength="83" x="1785.5" y="1211.9629">&#171;value Object&#187;</text><text fill="#000000" font-family="sans-serif" font-size="14" lengthAdjust="spacing" textLength="127" x="1763.5" y="1230.082">InterviewTimeFrame</text><line style="stroke:#181818;stroke-width:0.5;" x1="1735.5" x2="1892.5" y1="1238.5957" y2="1238.5957"/><line style="stroke:#181818;stroke-width:0.5;" x1="1735.5" x2="1892.5" y1="1246.5957" y2="1246.5957"/></g><!--class InterviewSpecifications--><g id="elem_InterviewSpecifications"><rect codeLine="54" fill="#F1F1F1" height="60.582" id="InterviewSpecifications" rx="2.5" ry="2.5" style="stroke:#181818;stroke-width:0.5;" width="174" x="1929" y="1194.0137"/><ellipse cx="1944" cy="1216.3047" fill="#F04800" rx="11" ry="11" style="stroke:#181818;stroke-width:1.0;"/><path d="M1944.5938,1219.5703 L1947.0625,1213.6953 L1946.6719,1213.6953 Q1946.0625,1213.6953 1945.7969,1213.4609 Q1945.5313,1213.2266 1945.5313,1212.8359 Q1945.5313,1212.4609 1945.7969,1212.2266 Q1946.0625,1211.9922 1946.6719,1211.9922 L1948.9531,1211.9922 Q1949.5625,1211.9922 1949.8281,1212.2266 Q1950.0938,1212.4609 1950.0938,1212.8359 Q1950.0938,1213.3047 1949.6875,1213.5703 Q1949.5,1213.6953 1948.9063,1213.6953 L1945.4219,1222.0547 L1943.7813,1222.0547 L1940.2969,1213.6953 Q1939.7031,1213.6953 1939.5156,1213.5703 Q1939.1094,1213.3047 1939.1094,1212.8359 Q1939.1094,1212.4609 1939.375,1212.2266 Q1939.6406,1211.9922 1940.25,1211.9922 L1942.5469,1211.9922 Q1943.1563,1211.9922 1943.4063,1212.2266 Q1943.6719,1212.4609 1943.6719,1212.8359 Q1943.6719,1213.2266 1943.4063,1213.4609 Q1943.1563,1213.6953 1942.5469,1213.6953 L1942.1406,1213.6953 L1944.5938,1219.5703 Z " fill="#000000"/><text fill="#000000" font-family="sans-serif" font-size="12" font-style="italic" lengthAdjust="spacing" textLength="83" x="1987.5" y="1211.9629">&#171;value Object&#187;</text><text fill="#000000" font-family="sans-serif" font-size="14" lengthAdjust="spacing" textLength="142" x="1958" y="1230.082">InterviewSpecifications</text><line style="stroke:#181818;stroke-width:0.5;" x1="1930" x2="2102" y1="1238.5957" y2="1238.5957"/><line style="stroke:#181818;stroke-width:0.5;" x1="1930" x2="2102" y1="1246.5957" y2="1246.5957"/></g><!--class InterviewQuestion--><g id="elem_InterviewQuestion"><rect codeLine="55" fill="#F1F1F1" height="60.582" id="InterviewQuestion" rx="2.5" ry="2.5" style="stroke:#181818;stroke-width:0.5;" width="144" x="1138" y="1194.0137"/><ellipse cx="1153" cy="1216.3047" fill="#F04800" rx="11" ry="11" style="stroke:#181818;stroke-width:1.0;"/><path d="M1153.5938,1219.5703 L1156.0625,1213.6953 L1155.6719,1213.6953 Q1155.0625,1213.6953 1154.7969,1213.4609 Q1154.5313,1213.2266 1154.5313,1212.8359 Q1154.5313,1212.4609 1154.7969,1212.2266 Q1155.0625,1211.9922 1155.6719,1211.9922 L1157.9531,1211.9922 Q1158.5625,1211.9922 1158.8281,1212.2266 Q1159.0938,1212.4609 1159.0938,1212.8359 Q1159.0938,1213.3047 1158.6875,1213.5703 Q1158.5,1213.6953 1157.9063,1213.6953 L1154.4219,1222.0547 L1152.7813,1222.0547 L1149.2969,1213.6953 Q1148.7031,1213.6953 1148.5156,1213.5703 Q1148.1094,1213.3047 1148.1094,1212.8359 Q1148.1094,1212.4609 1148.375,1212.2266 Q1148.6406,1211.9922 1149.25,1211.9922 L1151.5469,1211.9922 Q1152.1563,1211.9922 1152.4063,1212.2266 Q1152.6719,1212.4609 1152.6719,1212.8359 Q1152.6719,1213.2266 1152.4063,1213.4609 Q1152.1563,1213.6953 1151.5469,1213.6953 L1151.1406,1213.6953 L1153.5938,1219.5703 Z " fill="#000000"/><text fill="#000000" font-family="sans-serif" font-size="12" font-style="italic" lengthAdjust="spacing" textLength="83" x="1181.5" y="1211.9629">&#171;value Object&#187;</text><text fill="#000000" font-family="sans-serif" font-size="14" lengthAdjust="spacing" textLength="112" x="1167" y="1230.082">InterviewQuestion</text><line style="stroke:#181818;stroke-width:0.5;" x1="1139" x2="1281" y1="1238.5957" y2="1238.5957"/><line style="stroke:#181818;stroke-width:0.5;" x1="1139" x2="1281" y1="1246.5957" y2="1246.5957"/></g><!--class InterviewAnswer--><g id="elem_InterviewAnswer"><rect codeLine="56" fill="#F1F1F1" height="60.582" id="InterviewAnswer" rx="2.5" ry="2.5" style="stroke:#181818;stroke-width:0.5;" width="133" x="1350.5" y="1194.0137"/><ellipse cx="1365.5" cy="1216.3047" fill="#F04800" rx="11" ry="11" style="stroke:#181818;stroke-width:1.0;"/><path d="M1366.0938,1219.5703 L1368.5625,1213.6953 L1368.1719,1213.6953 Q1367.5625,1213.6953 1367.2969,1213.4609 Q1367.0313,1213.2266 1367.0313,1212.8359 Q1367.0313,1212.4609 1367.2969,1212.2266 Q1367.5625,1211.9922 1368.1719,1211.9922 L1370.4531,1211.9922 Q1371.0625,1211.9922 1371.3281,1212.2266 Q1371.5938,1212.4609 1371.5938,1212.8359 Q1371.5938,1213.3047 1371.1875,1213.5703 Q1371,1213.6953 1370.4063,1213.6953 L1366.9219,1222.0547 L1365.2813,1222.0547 L1361.7969,1213.6953 Q1361.2031,1213.6953 1361.0156,1213.5703 Q1360.6094,1213.3047 1360.6094,1212.8359 Q1360.6094,1212.4609 1360.875,1212.2266 Q1361.1406,1211.9922 1361.75,1211.9922 L1364.0469,1211.9922 Q1364.6563,1211.9922 1364.9063,1212.2266 Q1365.1719,1212.4609 1365.1719,1212.8359 Q1365.1719,1213.2266 1364.9063,1213.4609 Q1364.6563,1213.6953 1364.0469,1213.6953 L1363.6406,1213.6953 L1366.0938,1219.5703 Z " fill="#000000"/><text fill="#000000" font-family="sans-serif" font-size="12" font-style="italic" lengthAdjust="spacing" textLength="83" x="1388.5" y="1211.9629">&#171;value Object&#187;</text><text fill="#000000" font-family="sans-serif" font-size="14" lengthAdjust="spacing" textLength="101" x="1379.5" y="1230.082">InterviewAnswer</text><line style="stroke:#181818;stroke-width:0.5;" x1="1351.5" x2="1482.5" y1="1238.5957" y2="1238.5957"/><line style="stroke:#181818;stroke-width:0.5;" x1="1351.5" x2="1482.5" y1="1246.5957" y2="1246.5957"/></g><!--class AnswerRatings--><g id="elem_AnswerRatings"><rect codeLine="57" fill="#F1F1F1" height="60.582" id="AnswerRatings" rx="2.5" ry="2.5" style="stroke:#181818;stroke-width:0.5;" width="126" x="1147" y="1337.0137"/><ellipse cx="1162" cy="1359.3047" fill="#F04800" rx="11" ry="11" style="stroke:#181818;stroke-width:1.0;"/><path d="M1162.5938,1362.5703 L1165.0625,1356.6953 L1164.6719,1356.6953 Q1164.0625,1356.6953 1163.7969,1356.4609 Q1163.5313,1356.2266 1163.5313,1355.8359 Q1163.5313,1355.4609 1163.7969,1355.2266 Q1164.0625,1354.9922 1164.6719,1354.9922 L1166.9531,1354.9922 Q1167.5625,1354.9922 1167.8281,1355.2266 Q1168.0938,1355.4609 1168.0938,1355.8359 Q1168.0938,1356.3047 1167.6875,1356.5703 Q1167.5,1356.6953 1166.9063,1356.6953 L1163.4219,1365.0547 L1161.7813,1365.0547 L1158.2969,1356.6953 Q1157.7031,1356.6953 1157.5156,1356.5703 Q1157.1094,1356.3047 1157.1094,1355.8359 Q1157.1094,1355.4609 1157.375,1355.2266 Q1157.6406,1354.9922 1158.25,1354.9922 L1160.5469,1354.9922 Q1161.1563,1354.9922 1161.4063,1355.2266 Q1161.6719,1355.4609 1161.6719,1355.8359 Q1161.6719,1356.2266 1161.4063,1356.4609 Q1161.1563,1356.6953 1160.5469,1356.6953 L1160.1406,1356.6953 L1162.5938,1362.5703 Z " fill="#000000"/><text fill="#000000" font-family="sans-serif" font-size="12" font-style="italic" lengthAdjust="spacing" textLength="83" x="1181.5" y="1354.9629">&#171;value Object&#187;</text><text fill="#000000" font-family="sans-serif" font-size="14" lengthAdjust="spacing" textLength="94" x="1176" y="1373.082">AnswerRatings</text><line style="stroke:#181818;stroke-width:0.5;" x1="1148" x2="1272" y1="1381.5957" y2="1381.5957"/><line style="stroke:#181818;stroke-width:0.5;" x1="1148" x2="1272" y1="1389.5957" y2="1389.5957"/></g><!--class RegisteredPlugin--><g id="elem_RegisteredPlugin"><rect codeLine="62" fill="#F1F1F1" height="66.6211" id="RegisteredPlugin" rx="2.5" ry="2.5" style="stroke:#181818;stroke-width:0.5;" width="140" x="810" y="1191.0137"/><ellipse cx="825" cy="1207.0137" fill="#ADD1B2" rx="11" ry="11" style="stroke:#181818;stroke-width:1.0;"/><path d="M823.8594,1207.8105 L823.8594,1210.3105 L828.1875,1210.3105 L828.1875,1209.3887 Q828.1875,1208.7793 828.4219,1208.5137 Q828.6719,1208.248 829.0469,1208.248 Q829.4219,1208.248 829.6563,1208.5137 Q829.8906,1208.7793 829.8906,1209.3887 L829.8906,1212.0137 L821.8906,1212.0137 Q821.2656,1212.0137 821,1211.7793 Q820.75,1211.5449 820.75,1211.1543 Q820.75,1210.7793 821.0156,1210.5449 Q821.2813,1210.3105 821.8906,1210.3105 L822.1563,1210.3105 L822.1563,1203.6543 L821.8906,1203.6543 Q821.2656,1203.6543 821,1203.4199 Q820.75,1203.1855 820.75,1202.7949 Q820.75,1202.4199 821,1202.1855 Q821.2656,1201.9512 821.8906,1201.9512 L829.5156,1201.9512 L829.5156,1204.5449 Q829.5156,1205.1543 829.2813,1205.4199 Q829.0625,1205.6699 828.6719,1205.6699 Q828.2969,1205.6699 828.0625,1205.4199 Q827.8281,1205.1543 827.8281,1204.5449 L827.8281,1203.6543 L823.8594,1203.6543 L823.8594,1206.1074 L825.3438,1206.1074 Q825.3438,1205.4512 825.4688,1205.2637 Q825.7344,1204.8574 826.2031,1204.8574 Q826.5781,1204.8574 826.8125,1205.123 Q827.0469,1205.373 827.0469,1205.9824 L827.0469,1207.9512 Q827.0469,1208.498 826.9219,1208.6855 Q826.6563,1209.0762 826.2031,1209.0762 Q825.7344,1209.0762 825.4688,1208.6699 Q825.3438,1208.4824 825.3438,1207.8105 L823.8594,1207.8105 Z " fill="#000000"/><text fill="#000000" font-family="sans-serif" font-size="14" lengthAdjust="spacing" textLength="108" x="839" y="1212.8105">RegisteredPlugin</text><line style="stroke:#181818;stroke-width:0.5;" x1="811" x2="949" y1="1223.0137" y2="1223.0137"/><text fill="#000000" font-family="sans-serif" font-size="14" lengthAdjust="spacing" textLength="79" x="816" y="1242.1211">&#171;root entity&#187;</text><line style="stroke:#181818;stroke-width:0.5;" x1="811" x2="949" y1="1249.6348" y2="1249.6348"/></g><!--class PluginFileName--><g id="elem_PluginFileName"><rect codeLine="66" fill="#F1F1F1" height="60.582" id="PluginFileName" rx="2.5" ry="2.5" style="stroke:#181818;stroke-width:0.5;" width="162" x="627" y="1337.0137"/><ellipse cx="642" cy="1359.3047" fill="#F09000" rx="11" ry="11" style="stroke:#181818;stroke-width:1.0;"/><path d="M642.5938,1362.5703 L645.0625,1356.6953 L644.6719,1356.6953 Q644.0625,1356.6953 643.7969,1356.4609 Q643.5313,1356.2266 643.5313,1355.8359 Q643.5313,1355.4609 643.7969,1355.2266 Q644.0625,1354.9922 644.6719,1354.9922 L646.9531,1354.9922 Q647.5625,1354.9922 647.8281,1355.2266 Q648.0938,1355.4609 648.0938,1355.8359 Q648.0938,1356.3047 647.6875,1356.5703 Q647.5,1356.6953 646.9063,1356.6953 L643.4219,1365.0547 L641.7813,1365.0547 L638.2969,1356.6953 Q637.7031,1356.6953 637.5156,1356.5703 Q637.1094,1356.3047 637.1094,1355.8359 Q637.1094,1355.4609 637.375,1355.2266 Q637.6406,1354.9922 638.25,1354.9922 L640.5469,1354.9922 Q641.1563,1354.9922 641.4063,1355.2266 Q641.6719,1355.4609 641.6719,1355.8359 Q641.6719,1356.2266 641.4063,1356.4609 Q641.1563,1356.6953 640.5469,1356.6953 L640.1406,1356.6953 L642.5938,1362.5703 Z " fill="#000000"/><text fill="#000000" font-family="sans-serif" font-size="12" font-style="italic" lengthAdjust="spacing" textLength="134" x="654" y="1354.9629">&#171;Identifier value Object&#187;</text><text fill="#000000" font-family="sans-serif" font-size="14" lengthAdjust="spacing" textLength="98" x="672" y="1373.082">PluginFileName</text><line style="stroke:#181818;stroke-width:0.5;" x1="628" x2="788" y1="1381.5957" y2="1381.5957"/><line style="stroke:#181818;stroke-width:0.5;" x1="628" x2="788" y1="1389.5957" y2="1389.5957"/></g><!--class PluginName--><g id="elem_PluginName"><rect codeLine="67" fill="#F1F1F1" height="60.582" id="PluginName" rx="2.5" ry="2.5" style="stroke:#181818;stroke-width:0.5;" width="111" x="824.5" y="1337.0137"/><ellipse cx="839.5" cy="1359.3047" fill="#F04800" rx="11" ry="11" style="stroke:#181818;stroke-width:1.0;"/><path d="M840.0938,1362.5703 L842.5625,1356.6953 L842.1719,1356.6953 Q841.5625,1356.6953 841.2969,1356.4609 Q841.0313,1356.2266 841.0313,1355.8359 Q841.0313,1355.4609 841.2969,1355.2266 Q841.5625,1354.9922 842.1719,1354.9922 L844.4531,1354.9922 Q845.0625,1354.9922 845.3281,1355.2266 Q845.5938,1355.4609 845.5938,1355.8359 Q845.5938,1356.3047 845.1875,1356.5703 Q845,1356.6953 844.4063,1356.6953 L840.9219,1365.0547 L839.2813,1365.0547 L835.7969,1356.6953 Q835.2031,1356.6953 835.0156,1356.5703 Q834.6094,1356.3047 834.6094,1355.8359 Q834.6094,1355.4609 834.875,1355.2266 Q835.1406,1354.9922 835.75,1354.9922 L838.0469,1354.9922 Q838.6563,1354.9922 838.9063,1355.2266 Q839.1719,1355.4609 839.1719,1355.8359 Q839.1719,1356.2266 838.9063,1356.4609 Q838.6563,1356.6953 838.0469,1356.6953 L837.6406,1356.6953 L840.0938,1362.5703 Z " fill="#000000"/><text fill="#000000" font-family="sans-serif" font-size="12" font-style="italic" lengthAdjust="spacing" textLength="83" x="851.5" y="1354.9629">&#171;value Object&#187;</text><text fill="#000000" font-family="sans-serif" font-size="14" lengthAdjust="spacing" textLength="75" x="855.5" y="1373.082">PluginName</text><line style="stroke:#181818;stroke-width:0.5;" x1="825.5" x2="934.5" y1="1381.5957" y2="1381.5957"/><line style="stroke:#181818;stroke-width:0.5;" x1="825.5" x2="934.5" y1="1389.5957" y2="1389.5957"/></g><!--class PluginType--><g id="elem_PluginType"><rect codeLine="68" fill="#F1F1F1" height="60.582" id="PluginType" rx="2.5" ry="2.5" style="stroke:#181818;stroke-width:0.5;" width="111" x="970.5" y="1337.0137"/><ellipse cx="985.5" cy="1359.3047" fill="#F04800" rx="11" ry="11" style="stroke:#181818;stroke-width:1.0;"/><path d="M986.0938,1362.5703 L988.5625,1356.6953 L988.1719,1356.6953 Q987.5625,1356.6953 987.2969,1356.4609 Q987.0313,1356.2266 987.0313,1355.8359 Q987.0313,1355.4609 987.2969,1355.2266 Q987.5625,1354.9922 988.1719,1354.9922 L990.4531,1354.9922 Q991.0625,1354.9922 991.3281,1355.2266 Q991.5938,1355.4609 991.5938,1355.8359 Q991.5938,1356.3047 991.1875,1356.5703 Q991,1356.6953 990.4063,1356.6953 L986.9219,1365.0547 L985.2813,1365.0547 L981.7969,1356.6953 Q981.2031,1356.6953 981.0156,1356.5703 Q980.6094,1356.3047 980.6094,1355.8359 Q980.6094,1355.4609 980.875,1355.2266 Q981.1406,1354.9922 981.75,1354.9922 L984.0469,1354.9922 Q984.6563,1354.9922 984.9063,1355.2266 Q985.1719,1355.4609 985.1719,1355.8359 Q985.1719,1356.2266 984.9063,1356.4609 Q984.6563,1356.6953 984.0469,1356.6953 L983.6406,1356.6953 L986.0938,1362.5703 Z " fill="#000000"/><text fill="#000000" font-family="sans-serif" font-size="12" font-style="italic" lengthAdjust="spacing" textLength="83" x="997.5" y="1354.9629">&#171;value Object&#187;</text><text fill="#000000" font-family="sans-serif" font-size="14" lengthAdjust="spacing" textLength="71" x="1003.5" y="1373.082">PluginType</text><line style="stroke:#181818;stroke-width:0.5;" x1="971.5" x2="1080.5" y1="1381.5957" y2="1381.5957"/><line style="stroke:#181818;stroke-width:0.5;" x1="971.5" x2="1080.5" y1="1389.5957" y2="1389.5957"/></g><!--link User to EmailAddress--><g id="link_User_EmailAddress"><path codeLine="71" d="M1855.35,361.8237 C1838.26,372.4737 1818.7,384.7437 1801,396.0137 C1733.52,438.9937 1711.23,442.5237 1650,494.0137 C1573.86,558.0337 1497.73,647.8037 1460.51,693.7937 " fill="none" id="User-EmailAddress" style="stroke:#181818;stroke-width:1.0;"/><polygon fill="#000000" points="1658.8271,500.4415,1650.0125,504.0128,1653.7951,508.5118,1658.8271,500.4415" style="stroke:#000000;stroke-width:1.0;"/><text fill="#000000" font-family="sans-serif" font-size="13" lengthAdjust="spacing" textLength="51" x="1664" y="509.042">identifies</text><text fill="#000000" font-family="sans-serif" font-size="13" lengthAdjust="spacing" textLength="7" x="1840.5167" y="362.222">1</text><text fill="#000000" font-family="sans-serif" font-size="13" lengthAdjust="spacing" textLength="7" x="1457.6371" y="682.806">1</text></g><!--link User to Address--><g id="link_User_Address"><path codeLine="72" d="M1919.22,366.2637 C1936.46,398.1737 1962.28,448.4237 1980,494.0137 C2007.22,564.0337 2029.44,649.7737 2040.13,693.9937 " fill="none" id="User-Address" style="stroke:#181818;stroke-width:1.0;"/><polygon fill="#000000" points="1989.2694,498.9682,1989.6428,508.4715,1995.1574,506.437,1989.2694,498.9682" style="stroke:#000000;stroke-width:1.0;"/><text fill="#000000" font-family="sans-serif" font-size="13" lengthAdjust="spacing" textLength="56" x="2000" y="509.042">describes</text><text fill="#000000" font-family="sans-serif" font-size="13" lengthAdjust="spacing" textLength="7" x="1914.75" y="387.6113">1</text><text fill="#000000" font-family="sans-serif" font-size="13" lengthAdjust="spacing" textLength="7" x="2030.8616" y="682.5639">1</text></g><!--link User to Role--><g id="link_User_Role"><path codeLine="73" d="M1883.54,366.0537 C1866.84,398.0137 1841.64,448.4837 1824,494.0137 C1796.87,564.0337 1773.69,649.4137 1762.38,693.6737 " fill="none" id="User-Role" style="stroke:#181818;stroke-width:1.0;"/><polygon fill="#000000" points="1830.7343,498.9696,1824.8405,506.4337,1830.3534,508.4725,1830.7343,498.9696" style="stroke:#000000;stroke-width:1.0;"/><text fill="#000000" font-family="sans-serif" font-size="13" lengthAdjust="spacing" textLength="54" x="1838" y="509.042">classifies</text><text fill="#000000" font-family="sans-serif" font-size="13" lengthAdjust="spacing" textLength="7" x="1872.8065" y="387.63">1</text><text fill="#000000" font-family="sans-serif" font-size="13" lengthAdjust="spacing" textLength="7" x="1756.1803" y="682.6612">1</text></g><!--link User to Name--><g id="link_User_Name"><path codeLine="74" d="M1901,366.0937 C1901,440.6037 1901,622.5037 1901,693.9837 " fill="none" id="User-Name" style="stroke:#181818;stroke-width:1.0;"/><polygon fill="#000000" points="1906,498.6592,1903.0611,507.7043,1908.9389,507.7043,1906,498.6592" style="stroke:#000000;stroke-width:1.0;"/><text fill="#000000" font-family="sans-serif" font-size="13" lengthAdjust="spacing" textLength="56" x="1915" y="509.042">describes</text><text fill="#000000" font-family="sans-serif" font-size="13" lengthAdjust="spacing" textLength="7" x="1893.3766" y="387.6772">1</text><text fill="#000000" font-family="sans-serif" font-size="13" lengthAdjust="spacing" textLength="7" x="1893.2344" y="682.5517">1</text></g><!--link User to Password--><g id="link_User_Password"><path codeLine="75" d="M1861.72,366.1337 C1826.37,396.7737 1774.37,445.1037 1737,494.0137 C1686.45,560.1737 1642.92,648.6337 1622.09,693.9837 " fill="none" id="User-Password" style="stroke:#181818;stroke-width:1.0;"/><polygon fill="#000000" points="1744.9505,499.6225,1737.2403,505.1907,1741.9857,508.6592,1744.9505,499.6225" style="stroke:#000000;stroke-width:1.0;"/><text fill="#000000" font-family="sans-serif" font-size="13" lengthAdjust="spacing" textLength="56" x="1751" y="509.042">describes</text><text fill="#000000" font-family="sans-serif" font-size="13" lengthAdjust="spacing" textLength="7" x="1847.0998" y="387.7243">1</text><text fill="#000000" font-family="sans-serif" font-size="13" lengthAdjust="spacing" textLength="7" x="1617.1878" y="682.5517">1</text></g><!--link User to JobOffer--><g id="link_User_JobOffer"><path codeLine="77" d="M1946.54,354.3837 C1971.67,366.1537 2003.32,381.4037 2031,396.0137 C2142.52,454.8837 2269.95,530.5937 2336.34,570.6937 " fill="none" id="User-JobOffer" style="stroke:#181818;stroke-width:1.0;"/><polygon fill="#000000" points="2159.372,457.0853,2152.889,450.1266,2150.037,455.2662,2159.372,457.0853" style="stroke:#000000;stroke-width:1.0;"/><text fill="#000000" font-family="sans-serif" font-size="13" lengthAdjust="spacing" textLength="50" x="2164" y="460.042">registers</text><text fill="#000000" font-family="sans-serif" font-size="13" lengthAdjust="spacing" textLength="7" x="1954.3558" y="353.5962">1</text><text fill="#000000" font-family="sans-serif" font-size="13" lengthAdjust="spacing" textLength="5" x="2323.3635" y="561.5963">*</text></g><!--link CustomerManager to User--><g id="link_CustomerManager_User"><path codeLine="78" d="M1901,110.2037 C1901,158.9737 1901,232.2537 1901,280.9537 " fill="none" id="CustomerManager-to-User" style="stroke:#181818;stroke-width:1.0;"/><polygon fill="none" points="1901,298.9537,1907,280.9537,1895,280.9537,1901,298.9537" style="stroke:#181818;stroke-width:1.0;"/></g><!--reverse link Customer to JobOffer--><g id="link_Customer_JobOffer"><path codeLine="79" d="M2054.3051,242.7567 C2122.5351,316.8267 2283.7,491.7937 2351.85,565.7737 " fill="none" id="Customer-backto-JobOffer" style="stroke:#181818;stroke-width:1.0;"/><polygon fill="#181818" points="2050.24,238.3437,2053.3956,247.6733,2053.6276,242.0212,2059.2797,242.2532,2050.24,238.3437" style="stroke:#181818;stroke-width:1.0;"/><polygon fill="#000000" points="2210.6124,401.9816,2214.579,410.6255,2218.9022,406.6432,2210.6124,401.9816" style="stroke:#000000;stroke-width:1.0;"/><text fill="#000000" font-family="sans-serif" font-size="13" lengthAdjust="spacing" textLength="100" x="2223" y="411.042">requests creation</text></g><!--link Customer to User--><g id="link_Customer_User"><path codeLine="80" d="M1989.04,238.2937 C1971.42,256.9537 1961.7576,267.1759 1944.1576,285.8159 " fill="none" id="Customer-to-User" style="stroke:#181818;stroke-width:1.0;"/><polygon fill="none" points="1931.8,298.9037,1948.5202,289.9351,1939.795,281.6967,1931.8,298.9037" style="stroke:#181818;stroke-width:1.0;"/></g><!--link JobOffer to JobRefCode--><g id="link_JobOffer_JobRefCode"><path codeLine="82" d="M2370.44,633.3437 C2357.53,670.4537 2336.3,732.7737 2320,787.0137 C2295.89,867.2337 2296.19,889.1237 2271,969.0137 C2265.11,987.6837 2257.66,1008.3337 2251.53,1024.6537 " fill="none" id="JobOffer-JobRefCode" style="stroke:#181818;stroke-width:1.0;"/><polygon fill="#000000" points="2326.4537,791.8752,2321.0119,799.675,2326.6359,801.384,2326.4537,791.8752" style="stroke:#000000;stroke-width:1.0;"/><text fill="#000000" font-family="sans-serif" font-size="13" lengthAdjust="spacing" textLength="51" x="2334" y="802.042">identifies</text><text fill="#000000" font-family="sans-serif" font-size="13" lengthAdjust="spacing" textLength="7" x="2360.8516" y="654.705">1</text><text fill="#000000" font-family="sans-serif" font-size="13" lengthAdjust="spacing" textLength="7" x="2246.1862" y="1013.6371">1</text></g><!--link JobOffer to JobTitle--><g id="link_JobOffer_JobTitle"><path codeLine="83" d="M2384.16,633.1637 C2389.75,717.8437 2404.67,943.5837 2410.04,1024.8437 " fill="none" id="JobOffer-JobTitle" style="stroke:#181818;stroke-width:1.0;"/><polygon fill="#000000" points="2399.6703,791.6701,2397.3342,800.8892,2403.1992,800.5017,2399.6703,791.6701" style="stroke:#000000;stroke-width:1.0;"/><text fill="#000000" font-family="sans-serif" font-size="13" lengthAdjust="spacing" textLength="56" x="2409" y="802.042">describes</text><text fill="#000000" font-family="sans-serif" font-size="13" lengthAdjust="spacing" textLength="7" x="2376.9213" y="654.7596">1</text><text fill="#000000" font-family="sans-serif" font-size="13" lengthAdjust="spacing" textLength="7" x="2401.9139" y="1013.8663">1</text></g><!--link JobOffer to ContractType--><g id="link_JobOffer_ContractType"><path codeLine="84" d="M2399.89,633.2237 C2419.56,669.9637 2451.39,731.7037 2474,787.0137 C2508.5,871.4137 2539.44,974.8137 2553.69,1024.7337 " fill="none" id="JobOffer-ContractType" style="stroke:#181818;stroke-width:1.0;"/><polygon fill="#000000" points="2484.1718,792.0054,2484.7436,801.4988,2490.2145,799.3496,2484.1718,792.0054" style="stroke:#000000;stroke-width:1.0;"/><text fill="#000000" font-family="sans-serif" font-size="13" lengthAdjust="spacing" textLength="56" x="2495" y="802.042">describes</text><text fill="#000000" font-family="sans-serif" font-size="13" lengthAdjust="spacing" textLength="7" x="2395.3633" y="654.5644">1</text><text fill="#000000" font-family="sans-serif" font-size="13" lengthAdjust="spacing" textLength="7" x="2544.2542" y="1013.7336">1</text></g><!--link JobOffer to JobMode--><g id="link_JobOffer_JobMode"><path codeLine="85" d="M2418.17,633.2937 C2456.21,668.8637 2516.47,728.4737 2560,787.0137 C2619.92,867.5937 2673.81,974.0837 2698.21,1024.9737 " fill="none" id="JobOffer-JobMode" style="stroke:#181818;stroke-width:1.0;"/><polygon fill="#000000" points="2575.092,792.5918,2577.9619,801.659,2582.7434,798.2404,2575.092,792.5918" style="stroke:#000000;stroke-width:1.0;"/><text fill="#000000" font-family="sans-serif" font-size="13" lengthAdjust="spacing" textLength="56" x="2587" y="802.042">describes</text><text fill="#000000" font-family="sans-serif" font-size="13" lengthAdjust="spacing" textLength="7" x="2416.7852" y="654.6464">1</text><text fill="#000000" font-family="sans-serif" font-size="13" lengthAdjust="spacing" textLength="7" x="2687.4278" y="1013.5395">1</text></g><!--link JobOffer to NumberOfVacancies--><g id="link_JobOffer_NumberOfVacancies"><path codeLine="86" d="M2427.54,629.0937 C2456.1,647.2637 2493.53,671.5237 2526,694.0137 C2583.21,733.6537 2600.94,739.7137 2652,787.0137 C2736.85,865.6137 2821.99,973.4937 2860.99,1024.9237 " fill="none" id="JobOffer-NumberOfVacancies" style="stroke:#181818;stroke-width:1.0;"/><polygon fill="#000000" points="2671.3079,793.2875,2676.0052,801.5571,2679.9688,797.2167,2671.3079,793.2875" style="stroke:#000000;stroke-width:1.0;"/><text fill="#000000" font-family="sans-serif" font-size="13" lengthAdjust="spacing" textLength="56" x="2684" y="802.042">describes</text><text fill="#000000" font-family="sans-serif" font-size="13" lengthAdjust="spacing" textLength="7" x="2435.3558" y="649.2444">1</text><text fill="#000000" font-family="sans-serif" font-size="13" lengthAdjust="spacing" textLength="7" x="2848.7286" y="1013.9628">1</text></g><!--link JobOffer to JobsDescription--><g id="link_JobOffer_JobsDescription"><path codeLine="87" d="M2427.61,618.8537 C2470.85,636.6737 2537.3,665.2037 2593,694.0137 C2782.58,792.0737 2819.93,836.9637 2981,977.0137 C2998.82,992.5037 3018.22,1010.3437 3033.89,1024.9937 " fill="none" id="JobOffer-JobsDescription" style="stroke:#181818;stroke-width:1.0;"/><polygon fill="#000000" points="2777.8459,793.8764,2783.725,801.3522,2786.9964,796.4688,2777.8459,793.8764" style="stroke:#000000;stroke-width:1.0;"/><text fill="#000000" font-family="sans-serif" font-size="13" lengthAdjust="spacing" textLength="66" x="2791" y="802.042">"describes"</text><text fill="#000000" font-family="sans-serif" font-size="13" lengthAdjust="spacing" textLength="7" x="2435.4369" y="617.663">1</text><text fill="#000000" font-family="sans-serif" font-size="13" lengthAdjust="spacing" textLength="7" x="3019.3191" y="1013.5639">1</text></g><!--link JobOffer to RequirementSpecification--><g id="link_JobOffer_RequirementSpecification"><path codeLine="89" d="M2345.37,633.1137 C2297.11,674.1437 2207.92,743.5137 2119,779.0137 C1827,895.6037 856.21,1009.7837 545.52,1044.1137 " fill="none" id="JobOffer-RequirementSpecification" style="stroke:#181818;stroke-width:1.0;"/><polygon fill="#000000" points="2102.8745,795.4006,2093.4022,794.549,2094.7107,800.2794,2102.8745,795.4006" style="stroke:#000000;stroke-width:1.0;"/><text fill="#000000" font-family="sans-serif" font-size="13" lengthAdjust="spacing" textLength="7" x="2331.2218" y="654.7007">1</text><text fill="#000000" font-family="sans-serif" font-size="13" lengthAdjust="spacing" textLength="7" x="553.4903" y="1039.5829">1</text></g><!--link JobOffer to InterviewModel--><g id="link_JobOffer_InterviewModel"><path codeLine="90" d="M2355.61,633.0837 C2342.18,650.5337 2326.17,672.7637 2314,694.0137 C2247.73,809.7337 2299.55,887.5237 2194,969.0137 C2175.84,983.0337 2165.63,973.2037 2143,977.0137 C2011.8,999.0937 1858.57,1027.2037 1774.74,1042.7837 " fill="none" id="JobOffer-InterviewModel" style="stroke:#181818;stroke-width:1.0;"/><polygon fill="#000000" points="2287.0859,793.6318,2278.0005,796.4435,2281.3884,801.2468,2287.0859,793.6318" style="stroke:#000000;stroke-width:1.0;"/><text fill="#000000" font-family="sans-serif" font-size="13" lengthAdjust="spacing" textLength="7" x="2343.2858" y="654.6654">1</text><text fill="#000000" font-family="sans-serif" font-size="13" lengthAdjust="spacing" textLength="7" x="1782.399" y="1037.396">1</text></g><!--link InterviewModel to InterviewSpecifications--><g id="link_InterviewModel_InterviewSpecifications"><path codeLine="92" d="M1774.65,1080.6537 C1814.71,1097.0637 1867.18,1120.3837 1911,1146.0137 C1935.06,1160.0837 1960.23,1178.5237 1979.9,1193.8837 " fill="none" id="InterviewModel-InterviewSpecifications" style="stroke:#181818;stroke-width:1.0;"/><polygon fill="#000000" points="1904.378,1131.0744,1897.8778,1124.1319,1895.0385,1129.2786,1904.378,1131.0744" style="stroke:#000000;stroke-width:1.0;"/><text fill="#000000" font-family="sans-serif" font-size="13" lengthAdjust="spacing" textLength="49" x="1909" y="1134.042">contains</text><text fill="#000000" font-family="sans-serif" font-size="13" lengthAdjust="spacing" textLength="7" x="1782.2986" y="1079.6447">1</text><text fill="#000000" font-family="sans-serif" font-size="13" lengthAdjust="spacing" textLength="7" x="1964.7325" y="1182.9145">1</text></g><!--link InterviewModel to InterviewTimeFrame--><g id="link_InterviewModel_InterviewTimeFrame"><path codeLine="93" d="M1731.91,1089.1137 C1750.46,1119.4837 1777.89,1164.3937 1795.85,1193.8037 " fill="none" id="InterviewModel-InterviewTimeFrame" style="stroke:#181818;stroke-width:1.0;"/><polygon fill="#000000" points="1766.6061,1132.9263,1764.3997,1123.6752,1759.3835,1126.7389,1766.6061,1132.9263" style="stroke:#000000;stroke-width:1.0;"/><text fill="#000000" font-family="sans-serif" font-size="13" lengthAdjust="spacing" textLength="49" x="1773" y="1134.042">contains</text><text fill="#000000" font-family="sans-serif" font-size="13" lengthAdjust="spacing" textLength="7" x="1727.833" y="1110.7007">1</text><text fill="#000000" font-family="sans-serif" font-size="13" lengthAdjust="spacing" textLength="7" x="1784.3847" y="1182.818">1</text></g><!--link InterviewModel to InterviewQuestion--><g id="link_InterviewModel_InterviewQuestion"><path codeLine="94" d="M1649.32,1064.8237 C1572.51,1076.4637 1439.46,1101.3737 1333,1146.0137 C1303.32,1158.4537 1272.7,1177.7337 1249.43,1193.9437 " fill="none" id="InterviewModel-InterviewQuestion" style="stroke:#181818;stroke-width:1.0;"/><polygon fill="#000000" points="1411.7581,1127.1228,1402.2476,1127.1054,1404.0536,1132.6989,1411.7581,1127.1228" style="stroke:#000000;stroke-width:1.0;"/><text fill="#000000" font-family="sans-serif" font-size="13" lengthAdjust="spacing" textLength="56" x="1416" y="1134.042">describes</text><text fill="#000000" font-family="sans-serif" font-size="13" lengthAdjust="spacing" textLength="7" x="1634.6679" y="1080.95">1</text><text fill="#000000" font-family="sans-serif" font-size="13" lengthAdjust="spacing" textLength="5" x="1252.0468" y="1182.9869">*</text></g><!--link InterviewModel to InterviewModelRefCode--><g id="link_InterviewModel_InterviewModelRefCode"><path codeLine="95" d="M1691.9,1089.1137 C1673.16,1119.4837 1645.46,1164.3937 1627.33,1193.8037 " fill="none" id="InterviewModel-InterviewModelRefCode" style="stroke:#181818;stroke-width:1.0;"/><polygon fill="#000000" points="1679.6248,1124.4035,1672.3751,1130.5593,1677.3779,1133.6449,1679.6248,1124.4035" style="stroke:#000000;stroke-width:1.0;"/><text fill="#000000" font-family="sans-serif" font-size="13" lengthAdjust="spacing" textLength="51" x="1686" y="1134.042">identifies</text><text fill="#000000" font-family="sans-serif" font-size="13" lengthAdjust="spacing" textLength="7" x="1680.6963" y="1110.7007">1</text><text fill="#000000" font-family="sans-serif" font-size="13" lengthAdjust="spacing" textLength="5" x="1625.5949" y="1182.818">*</text></g><!--link InterviewModel to RegisteredPlugin--><g id="link_InterviewModel_RegisteredPlugin"><path codeLine="96" d="M1649.22,1062.0937 C1540.57,1072.6337 1310.95,1098.7337 1122,1146.0137 C1063.37,1160.6837 998.18,1181.8437 950.25,1198.3537 " fill="none" id="InterviewModel-RegisteredPlugin" style="stroke:#181818;stroke-width:1.0;"/><polygon fill="#000000" points="1242.9076,1127.7025,1233.4673,1126.5485,1234.592,1132.3178,1242.9076,1127.7025" style="stroke:#000000;stroke-width:1.0;"/><text fill="#000000" font-family="sans-serif" font-size="13" lengthAdjust="spacing" textLength="69" x="1247" y="1134.042">"configures"</text><text fill="#000000" font-family="sans-serif" font-size="13" lengthAdjust="spacing" textLength="7" x="1634.5564" y="1058.9387">1</text><text fill="#000000" font-family="sans-serif" font-size="13" lengthAdjust="spacing" textLength="7" x="957.8555" y="1191.8422">1</text></g><!--link InterviewQuestion to InterviewAnswer--><g id="link_InterviewQuestion_InterviewAnswer"><path codeLine="97" d="M1282.11,1224.5137 C1304.28,1224.5137 1328.57,1224.5137 1350.35,1224.5137 " fill="none" id="InterviewQuestion-InterviewAnswer" style="stroke:#181818;stroke-width:1.0;"/><polygon fill="#000000" points="1299.25,1212.1592,1308.2951,1215.0981,1308.2951,1209.2203,1299.25,1212.1592" style="stroke:#000000;stroke-width:1.0;"/><text fill="#000000" font-family="sans-serif" font-size="13" lengthAdjust="spacing" textLength="19" x="1313.25" y="1217.542">fills</text></g><!--link InterviewQuestion to AnswerRatings--><g id="link_InterviewQuestion_AnswerRatings"><path codeLine="98" d="M1210,1255.0737 C1210,1279.1337 1210,1312.9437 1210,1336.9937 " fill="none" id="InterviewQuestion-AnswerRatings" style="stroke:#181818;stroke-width:1.0;"/><polygon fill="#000000" points="1215,1302.6592,1217.9389,1293.6141,1212.0611,1293.6141,1215,1302.6592" style="stroke:#000000;stroke-width:1.0;"/><text fill="#000000" font-family="sans-serif" font-size="13" lengthAdjust="spacing" textLength="39" x="1224" y="1303.042">grades</text></g><!--link RequirementSpecification to RequirementSpecificationDescription--><g id="link_RequirementSpecification_RequirementSpecificationDescription"><path codeLine="100" d="M391.42,1089.1137 C337.76,1119.4837 258.44,1164.3937 206.49,1193.8037 " fill="none" id="RequirementSpecification-RequirementSpecificationDescription" style="stroke:#181818;stroke-width:1.0;"/><polygon fill="#000000" points="346.3512,1126.196,337.032,1128.0944,339.9277,1133.2095,346.3512,1126.196" style="stroke:#000000;stroke-width:1.0;"/><text fill="#000000" font-family="sans-serif" font-size="13" lengthAdjust="spacing" textLength="66" x="351" y="1134.042">"describes"</text><text fill="#000000" font-family="sans-serif" font-size="13" lengthAdjust="spacing" textLength="7" x="373.5401" y="1110.7007">1</text><text fill="#000000" font-family="sans-serif" font-size="13" lengthAdjust="spacing" textLength="7" x="209.5942" y="1182.818">1</text></g><!--link RequirementSpecification to RequirementSpecificationRefCode--><g id="link_RequirementSpecification_RequirementSpecificationRefCode"><path codeLine="101" d="M448.41,1089.1137 C447.87,1119.4837 447.06,1164.3937 446.53,1193.8037 " fill="none" id="RequirementSpecification-RequirementSpecificationRefCode" style="stroke:#181818;stroke-width:1.0;"/><polygon fill="#000000" points="453.0898,1123.66,449.9889,1132.6508,455.8658,1132.7564,453.0898,1123.66" style="stroke:#000000;stroke-width:1.0;"/><text fill="#000000" font-family="sans-serif" font-size="13" lengthAdjust="spacing" textLength="61" x="462" y="1134.042">"identifies"</text><text fill="#000000" font-family="sans-serif" font-size="13" lengthAdjust="spacing" textLength="7" x="440.6815" y="1110.7007">1</text><text fill="#000000" font-family="sans-serif" font-size="13" lengthAdjust="spacing" textLength="7" x="438.9174" y="1182.818">1</text></g><!--link RequirementSpecificationAnswer to RequirementSpecification--><g id="link_RequirementSpecificationAnswer_RequirementSpecification"><path codeLine="102" d="M449,920.2137 C449,948.9237 449,992.3037 449,1021.9437 " fill="none" id="RequirementSpecificationAnswer-RequirementSpecification" style="stroke:#181818;stroke-width:1.0;"/><polygon fill="#000000" points="454,964.6592,456.9389,955.6141,451.0611,955.6141,454,964.6592" style="stroke:#000000;stroke-width:1.0;"/><text fill="#000000" font-family="sans-serif" font-size="13" lengthAdjust="spacing" textLength="66" x="463" y="965.042">"describes"</text><text fill="#000000" font-family="sans-serif" font-size="13" lengthAdjust="spacing" textLength="5" x="443.5391" y="941.5349">*</text><text fill="#000000" font-family="sans-serif" font-size="13" lengthAdjust="spacing" textLength="7" x="441.3109" y="1010.7554">1</text></g><!--link RequirementSpecification to RegisteredPlugin--><g id="link_RequirementSpecification_RegisteredPlugin"><path codeLine="103" d="M533.12,1089.1137 C613.84,1120.3837 734.33,1167.0737 809.97,1196.3837 " fill="none" id="RequirementSpecification-RegisteredPlugin" style="stroke:#181818;stroke-width:1.0;"/><polygon fill="#000000" points="651.3377,1126.8527,658.71,1132.8611,660.8337,1127.3802,651.3377,1126.8527" style="stroke:#000000;stroke-width:1.0;"/><text fill="#000000" font-family="sans-serif" font-size="13" lengthAdjust="spacing" textLength="69" x="665" y="1134.042">"configures"</text><text fill="#000000" font-family="sans-serif" font-size="13" lengthAdjust="spacing" textLength="7" x="540.4804" y="1110.7007">1</text><text fill="#000000" font-family="sans-serif" font-size="13" lengthAdjust="spacing" textLength="7" x="794.9277" y="1189.4422">1</text></g><!--link RegisteredPlugin to PluginFileName--><g id="link_RegisteredPlugin_PluginFileName"><path codeLine="105" d="M840.11,1258.2137 C811.13,1281.9737 772.24,1313.8537 744.16,1336.8737 " fill="none" id="RegisteredPlugin-PluginFileName" style="stroke:#181818;stroke-width:1.0;"/><polygon fill="#000000" points="807.8667,1294.4892,799.0085,1297.9509,802.735,1302.4965,807.8667,1294.4892" style="stroke:#000000;stroke-width:1.0;"/><text fill="#000000" font-family="sans-serif" font-size="13" lengthAdjust="spacing" textLength="42" x="813" y="1303.042">locates</text></g><!--link RegisteredPlugin to PluginName--><g id="link_RegisteredPlugin_PluginName"><path codeLine="106" d="M880,1258.2137 C880,1281.9737 880,1313.8537 880,1336.8737 " fill="none" id="RegisteredPlugin-PluginName" style="stroke:#181818;stroke-width:1.0;"/><polygon fill="#000000" points="885,1292.6592,882.0611,1301.7043,887.9389,1301.7043,885,1292.6592" style="stroke:#000000;stroke-width:1.0;"/><text fill="#000000" font-family="sans-serif" font-size="13" lengthAdjust="spacing" textLength="51" x="894" y="1303.042">identifies</text></g><!--link RegisteredPlugin to PluginType--><g id="link_RegisteredPlugin_PluginType"><path codeLine="107" d="M920.37,1258.0237 C931.52,1267.4137 943.45,1277.8837 954,1288.0137 C970.14,1303.5137 987.11,1321.8937 1000.52,1336.9737 " fill="none" id="RegisteredPlugin-PluginType" style="stroke:#181818;stroke-width:1.0;"/><polygon fill="#000000" points="973.4379,1294.1504,977.8194,1302.5916,981.9442,1298.4041,973.4379,1294.1504" style="stroke:#000000;stroke-width:1.0;"/><text fill="#000000" font-family="sans-serif" font-size="13" lengthAdjust="spacing" textLength="54" x="986" y="1303.042">classifies</text></g><!--SRC=[fLPHRvim47xdLrZiOLkrh9cqXmr5I5NMIftK9ikwlZjmC6y6KjiqghByzzac0KoWs2qFKHA-xxlpVSSTRtyBiU71-Vc6uboK6VqO5TbvH37davZWbE7CypOu-ejJGByui8iqPP1Y0JiFoUio5qGyeNd9HP41ky6v139KtLJNR0OQ4eRwhxtNHnl5wuJGPOO9lOXZ1lB7RFRk_iERPFfrEfs-HzUneYL4QZrYMW9QhFz09C8GxVRjYEe8HZHM50BrXPpha4lviIrON8Vx_4M5wuzHKLO5XMVX1leMP-0WtZtz46FVkFQzM2-IPCYvursNeaZE2f9v4HyoH_Osr09tH52NWy-BN30SYRkd3I3xyif8DtMULe5kosmDR97SumZd4G7km9NH-3VW4ICRGOhSngNbmQKLF9I4GIRhntzk8995ZB0IsHbFJ0jce92BVqCYBgcFgrtaV2lxuFL2Hg_PjLghiDUv0FP8ODlV__LjrIRKgOmczGLPzaZTaGokcDjCgCb6rVXB57wKm1tjR-hhwdT5MCbiytGysxQdIrgc9EytT0KfuJ8bY2kKawKLvOfGCEQoavULXkDShqXwk5aC3Rt5_4y-ciXBVp5MOu38CLLPrnvq0upr8xyUmEbL5bJRTrXD7tLCgbwa9h2DHFwPt-oZ08M87RpaNlS5Gyh-2_Kshs-XcGxM4fX9WGVLqHn53FHJqQ0R0Q-c61ctjbode8FuQgcP9-m76-lCXd1SP3ROqnLc6S5ONW7oQvAlhEgd3MwaO31IP-OgeDVvxzWHRNHdlAa6YMGPCScv3RqPhJRCCxzdAggMgcjYmpGsWs8tVVHCoYSZJ5eXyqr8MhBAYzFK9YU3E409ePJteoUTwHiW-QelZuP2pnjqr4Xn_1MYsq2lqMrgw3SbV4xqK0JbndYZjlCCBVCSiyWxWKXgPxy4Y1PIMp-Km_03r1X1m-Z3H35czdy0]--></g></svg>