<?xml version="1.0" encoding="us-ascii" standalone="no"?><svg xmlns="http://www.w3.org/2000/svg" xmlns:xlink="http://www.w3.org/1999/xlink" contentStyleType="text/css" height="1406px" preserveAspectRatio="none" style="width:1248px;height:1406px;background:#FFFFFF;" version="1.1" viewBox="0 0 1248 1406" width="1248px" zoomAndPan="magnify"><defs/><g><!--class CustomerManagerUI--><g id="elem_CustomerManagerUI"><rect codeLine="3" fill="#F1F1F1" height="66.6211" id="CustomerManagerUI" rx="2.5" ry="2.5" style="stroke:#181818;stroke-width:0.5;" width="161" x="526" y="7"/><ellipse cx="541" cy="23" fill="#ADD1B2" rx="11" ry="11" style="stroke:#181818;stroke-width:1.0;"/><path d="M543.7656,18.875 Q543.9219,18.6563 544.1094,18.5469 Q544.2969,18.4375 544.5156,18.4375 Q544.8906,18.4375 545.125,18.7031 Q545.3594,18.9531 545.3594,19.5625 L545.3594,21.0156 Q545.3594,21.625 545.125,21.8906 Q544.8906,22.1563 544.5156,22.1563 Q544.1719,22.1563 543.9688,21.9531 Q543.7656,21.7656 543.6563,21.25 Q543.6094,20.8906 543.4219,20.7031 Q543.0938,20.3281 542.4844,20.1094 Q541.875,19.8906 541.25,19.8906 Q540.4844,19.8906 539.8438,20.2188 Q539.2188,20.5469 538.7188,21.2969 Q538.2344,22.0469 538.2344,23.0781 L538.2344,24.1719 Q538.2344,25.4063 539.125,26.2344 Q540.0156,27.0469 541.6094,27.0469 Q542.5469,27.0469 543.2031,26.7969 Q543.5938,26.6406 544.0156,26.2031 Q544.2813,25.9375 544.4219,25.8594 Q544.5781,25.7813 544.7813,25.7813 Q545.1094,25.7813 545.3594,26.0469 Q545.625,26.2969 545.625,26.6406 Q545.625,26.9844 545.2813,27.3906 Q544.7813,27.9688 543.9844,28.2969 Q542.9063,28.75 541.6094,28.75 Q540.0938,28.75 538.8906,28.125 Q537.9063,27.625 537.2188,26.5625 Q536.5313,25.4844 536.5313,24.2031 L536.5313,23.0469 Q536.5313,21.7188 537.1406,20.5781 Q537.7656,19.4219 538.8594,18.8125 Q539.9531,18.1875 541.1875,18.1875 Q541.9219,18.1875 542.5625,18.3594 Q543.2188,18.5156 543.7656,18.875 Z " fill="#000000"/><text fill="#000000" font-family="sans-serif" font-size="14" lengthAdjust="spacing" textLength="129" x="555" y="28.7969">CustomerManagerUI</text><line style="stroke:#181818;stroke-width:0.5;" x1="527" x2="686" y1="39" y2="39"/><line style="stroke:#181818;stroke-width:0.5;" x1="527" x2="686" y1="47" y2="47"/><ellipse cx="537" cy="61.8105" fill="#84BE84" rx="3" ry="3" style="stroke:#038048;stroke-width:1.0;"/><text fill="#000000" font-family="sans-serif" font-size="14" lengthAdjust="spacing" textLength="112" x="546" y="66.1074">registerJobOffer()</text></g><!--class RegisterJobOfferUI--><g id="elem_RegisterJobOfferUI"><rect codeLine="7" fill="#F1F1F1" height="178.3477" id="RegisterJobOfferUI" rx="2.5" ry="2.5" style="stroke:#181818;stroke-width:0.5;" width="285" x="464" y="135"/><ellipse cx="542.75" cy="151" fill="#ADD1B2" rx="11" ry="11" style="stroke:#181818;stroke-width:1.0;"/><path d="M545.5156,146.875 Q545.6719,146.6563 545.8594,146.5469 Q546.0469,146.4375 546.2656,146.4375 Q546.6406,146.4375 546.875,146.7031 Q547.1094,146.9531 547.1094,147.5625 L547.1094,149.0156 Q547.1094,149.625 546.875,149.8906 Q546.6406,150.1563 546.2656,150.1563 Q545.9219,150.1563 545.7188,149.9531 Q545.5156,149.7656 545.4063,149.25 Q545.3594,148.8906 545.1719,148.7031 Q544.8438,148.3281 544.2344,148.1094 Q543.625,147.8906 543,147.8906 Q542.2344,147.8906 541.5938,148.2188 Q540.9688,148.5469 540.4688,149.2969 Q539.9844,150.0469 539.9844,151.0781 L539.9844,152.1719 Q539.9844,153.4063 540.875,154.2344 Q541.7656,155.0469 543.3594,155.0469 Q544.2969,155.0469 544.9531,154.7969 Q545.3438,154.6406 545.7656,154.2031 Q546.0313,153.9375 546.1719,153.8594 Q546.3281,153.7813 546.5313,153.7813 Q546.8594,153.7813 547.1094,154.0469 Q547.375,154.2969 547.375,154.6406 Q547.375,154.9844 547.0313,155.3906 Q546.5313,155.9688 545.7344,156.2969 Q544.6563,156.75 543.3594,156.75 Q541.8438,156.75 540.6406,156.125 Q539.6563,155.625 538.9688,154.5625 Q538.2813,153.4844 538.2813,152.2031 L538.2813,151.0469 Q538.2813,149.7188 538.8906,148.5781 Q539.5156,147.4219 540.6094,146.8125 Q541.7031,146.1875 542.9375,146.1875 Q543.6719,146.1875 544.3125,146.3594 Q544.9688,146.5156 545.5156,146.875 Z " fill="#000000"/><text fill="#000000" font-family="sans-serif" font-size="14" lengthAdjust="spacing" textLength="119" x="563.25" y="156.7969">RegisterJobOfferUI</text><line style="stroke:#181818;stroke-width:0.5;" x1="465" x2="748" y1="167" y2="167"/><rect fill="none" height="6" style="stroke:#C82930;stroke-width:1.0;" width="6" x="472" y="178.8105"/><text fill="#000000" font-family="sans-serif" font-size="14" lengthAdjust="spacing" textLength="259" x="484" y="186.1074">RegisterJobOfferController: theController</text><line style="stroke:#181818;stroke-width:0.5;" x1="465" x2="748" y1="193.6211" y2="193.6211"/><ellipse cx="475" cy="208.4316" fill="#84BE84" rx="3" ry="3" style="stroke:#038048;stroke-width:1.0;"/><text fill="#000000" font-family="sans-serif" font-size="14" lengthAdjust="spacing" textLength="60" x="484" y="212.7285">doShow()</text><ellipse cx="475" cy="227.0527" fill="#84BE84" rx="3" ry="3" style="stroke:#038048;stroke-width:1.0;"/><text fill="#000000" font-family="sans-serif" font-size="14" lengthAdjust="spacing" textLength="125" x="484" y="231.3496">showCustomerList()</text><ellipse cx="475" cy="245.6738" fill="#84BE84" rx="3" ry="3" style="stroke:#038048;stroke-width:1.0;"/><text fill="#000000" font-family="sans-serif" font-size="14" lengthAdjust="spacing" textLength="142" x="484" y="249.9707">showInterviewModels()</text><ellipse cx="475" cy="264.2949" fill="#84BE84" rx="3" ry="3" style="stroke:#038048;stroke-width:1.0;"/><text fill="#000000" font-family="sans-serif" font-size="14" lengthAdjust="spacing" textLength="152" x="484" y="268.5918">showRequirementsList()</text><ellipse cx="475" cy="282.916" fill="#84BE84" rx="3" ry="3" style="stroke:#038048;stroke-width:1.0;"/><text fill="#000000" font-family="sans-serif" font-size="14" lengthAdjust="spacing" textLength="106" x="484" y="287.2129">showJobModes()</text><ellipse cx="475" cy="301.5371" fill="#84BE84" rx="3" ry="3" style="stroke:#038048;stroke-width:1.0;"/><text fill="#000000" font-family="sans-serif" font-size="14" lengthAdjust="spacing" textLength="135" x="484" y="305.834">showContractTypes()</text></g><!--class RegisterJobOfferController--><g id="elem_RegisterJobOfferController"><rect codeLine="17" fill="#F1F1F1" height="178.3477" id="RegisterJobOfferController" rx="2.5" ry="2.5" style="stroke:#181818;stroke-width:0.5;" width="373" x="420" y="374"/><ellipse cx="517.75" cy="390" fill="#ADD1B2" rx="11" ry="11" style="stroke:#181818;stroke-width:1.0;"/><path d="M520.5156,385.875 Q520.6719,385.6563 520.8594,385.5469 Q521.0469,385.4375 521.2656,385.4375 Q521.6406,385.4375 521.875,385.7031 Q522.1094,385.9531 522.1094,386.5625 L522.1094,388.0156 Q522.1094,388.625 521.875,388.8906 Q521.6406,389.1563 521.2656,389.1563 Q520.9219,389.1563 520.7188,388.9531 Q520.5156,388.7656 520.4063,388.25 Q520.3594,387.8906 520.1719,387.7031 Q519.8438,387.3281 519.2344,387.1094 Q518.625,386.8906 518,386.8906 Q517.2344,386.8906 516.5938,387.2188 Q515.9688,387.5469 515.4688,388.2969 Q514.9844,389.0469 514.9844,390.0781 L514.9844,391.1719 Q514.9844,392.4063 515.875,393.2344 Q516.7656,394.0469 518.3594,394.0469 Q519.2969,394.0469 519.9531,393.7969 Q520.3438,393.6406 520.7656,393.2031 Q521.0313,392.9375 521.1719,392.8594 Q521.3281,392.7813 521.5313,392.7813 Q521.8594,392.7813 522.1094,393.0469 Q522.375,393.2969 522.375,393.6406 Q522.375,393.9844 522.0313,394.3906 Q521.5313,394.9688 520.7344,395.2969 Q519.6563,395.75 518.3594,395.75 Q516.8438,395.75 515.6406,395.125 Q514.6563,394.625 513.9688,393.5625 Q513.2813,392.4844 513.2813,391.2031 L513.2813,390.0469 Q513.2813,388.7188 513.8906,387.5781 Q514.5156,386.4219 515.6094,385.8125 Q516.7031,385.1875 517.9375,385.1875 Q518.6719,385.1875 519.3125,385.3594 Q519.9688,385.5156 520.5156,385.875 Z " fill="#000000"/><text fill="#000000" font-family="sans-serif" font-size="14" lengthAdjust="spacing" textLength="169" x="538.25" y="395.7969">RegisterJobOfferController</text><line style="stroke:#181818;stroke-width:0.5;" x1="421" x2="792" y1="406" y2="406"/><rect fill="none" height="6" style="stroke:#C82930;stroke-width:1.0;" width="6" x="428" y="417.8105"/><text fill="#000000" font-family="sans-serif" font-size="14" lengthAdjust="spacing" textLength="167" x="440" y="425.1074">AuthorizationService authz</text><rect fill="none" height="6" style="stroke:#C82930;stroke-width:1.0;" width="6" x="428" y="436.4316"/><text fill="#000000" font-family="sans-serif" font-size="14" lengthAdjust="spacing" textLength="347" x="440" y="443.7285">FilteredCustomerListingService customerListingService</text><rect fill="none" height="6" style="stroke:#C82930;stroke-width:1.0;" width="6" x="428" y="455.0527"/><text fill="#000000" font-family="sans-serif" font-size="14" lengthAdjust="spacing" textLength="226" x="440" y="462.3496">ManagePluginService pluginService</text><rect fill="none" height="6" style="stroke:#C82930;stroke-width:1.0;" width="6" x="428" y="473.6738"/><text fill="#000000" font-family="sans-serif" font-size="14" lengthAdjust="spacing" textLength="260" x="440" y="480.9707">RegisterJobOfferService: jobOfferService</text><line style="stroke:#181818;stroke-width:0.5;" x1="421" x2="792" y1="488.4844" y2="488.4844"/><ellipse cx="431" cy="503.2949" fill="#84BE84" rx="3" ry="3" style="stroke:#038048;stroke-width:1.0;"/><text fill="#000000" font-family="sans-serif" font-size="14" lengthAdjust="spacing" textLength="104" x="440" y="507.5918">createJobOffer()</text><ellipse cx="431" cy="521.916" fill="#84BE84" rx="3" ry="3" style="stroke:#038048;stroke-width:1.0;"/><text fill="#000000" font-family="sans-serif" font-size="14" lengthAdjust="spacing" textLength="98" x="440" y="526.2129">getPluginsList()</text><ellipse cx="431" cy="540.5371" fill="#84BE84" rx="3" ry="3" style="stroke:#038048;stroke-width:1.0;"/><text fill="#000000" font-family="sans-serif" font-size="14" lengthAdjust="spacing" textLength="113" x="440" y="544.834">getCustomerList()</text></g><!--class RegisterJobOfferService--><g id="elem_RegisterJobOfferService"><rect codeLine="27" fill="#F1F1F1" height="141.1055" id="RegisterJobOfferService" rx="2.5" ry="2.5" style="stroke:#181818;stroke-width:0.5;" width="227" x="379" y="631"/><ellipse cx="412.45" cy="647" fill="#ADD1B2" rx="11" ry="11" style="stroke:#181818;stroke-width:1.0;"/><path d="M415.2156,642.875 Q415.3719,642.6563 415.5594,642.5469 Q415.7469,642.4375 415.9656,642.4375 Q416.3406,642.4375 416.575,642.7031 Q416.8094,642.9531 416.8094,643.5625 L416.8094,645.0156 Q416.8094,645.625 416.575,645.8906 Q416.3406,646.1563 415.9656,646.1563 Q415.6219,646.1563 415.4188,645.9531 Q415.2156,645.7656 415.1063,645.25 Q415.0594,644.8906 414.8719,644.7031 Q414.5438,644.3281 413.9344,644.1094 Q413.325,643.8906 412.7,643.8906 Q411.9344,643.8906 411.2938,644.2188 Q410.6688,644.5469 410.1688,645.2969 Q409.6844,646.0469 409.6844,647.0781 L409.6844,648.1719 Q409.6844,649.4063 410.575,650.2344 Q411.4656,651.0469 413.0594,651.0469 Q413.9969,651.0469 414.6531,650.7969 Q415.0438,650.6406 415.4656,650.2031 Q415.7313,649.9375 415.8719,649.8594 Q416.0281,649.7813 416.2313,649.7813 Q416.5594,649.7813 416.8094,650.0469 Q417.075,650.2969 417.075,650.6406 Q417.075,650.9844 416.7313,651.3906 Q416.2313,651.9688 415.4344,652.2969 Q414.3563,652.75 413.0594,652.75 Q411.5438,652.75 410.3406,652.125 Q409.3563,651.625 408.6688,650.5625 Q407.9813,649.4844 407.9813,648.2031 L407.9813,647.0469 Q407.9813,645.7188 408.5906,644.5781 Q409.2156,643.4219 410.3094,642.8125 Q411.4031,642.1875 412.6375,642.1875 Q413.3719,642.1875 414.0125,642.3594 Q414.6688,642.5156 415.2156,642.875 Z " fill="#000000"/><text fill="#000000" font-family="sans-serif" font-size="14" lengthAdjust="spacing" textLength="154" x="430.55" y="652.7969">RegisterJobOfferService</text><line style="stroke:#181818;stroke-width:0.5;" x1="380" x2="605" y1="663" y2="663"/><rect fill="none" height="6" style="stroke:#C82930;stroke-width:1.0;" width="6" x="387" y="674.8105"/><text fill="#000000" font-family="sans-serif" font-size="14" lengthAdjust="spacing" textLength="201" x="399" y="682.1074">JobOfferBuilder: jobOfferBuilder</text><rect fill="none" height="6" style="stroke:#C82930;stroke-width:1.0;" width="6" x="387" y="693.4316"/><text fill="#000000" font-family="sans-serif" font-size="14" lengthAdjust="spacing" textLength="159" x="399" y="700.7285">JobOfferRepository: repo</text><line style="stroke:#181818;stroke-width:0.5;" x1="380" x2="605" y1="708.2422" y2="708.2422"/><ellipse cx="390" cy="723.0527" fill="#84BE84" rx="3" ry="3" style="stroke:#038048;stroke-width:1.0;"/><text fill="#000000" font-family="sans-serif" font-size="14" lengthAdjust="spacing" textLength="88" x="399" y="727.3496">addJobOffer()</text><ellipse cx="390" cy="741.6738" fill="#84BE84" rx="3" ry="3" style="stroke:#038048;stroke-width:1.0;"/><text fill="#000000" font-family="sans-serif" font-size="14" lengthAdjust="spacing" textLength="69" x="399" y="745.9707">getOffers()</text><ellipse cx="390" cy="760.2949" fill="#84BE84" rx="3" ry="3" style="stroke:#038048;stroke-width:1.0;"/><text fill="#000000" font-family="sans-serif" font-size="14" lengthAdjust="spacing" textLength="71" x="399" y="764.5918">findByRef()</text></g><!--class FilteredCustomerListingService--><g id="elem_FilteredCustomerListingService"><rect codeLine="35" fill="#F1F1F1" height="85.2422" id="FilteredCustomerListingService" rx="2.5" ry="2.5" style="stroke:#181818;stroke-width:0.5;" width="337" x="7" y="659"/><ellipse cx="72.75" cy="675" fill="#ADD1B2" rx="11" ry="11" style="stroke:#181818;stroke-width:1.0;"/><path d="M75.5156,670.875 Q75.6719,670.6563 75.8594,670.5469 Q76.0469,670.4375 76.2656,670.4375 Q76.6406,670.4375 76.875,670.7031 Q77.1094,670.9531 77.1094,671.5625 L77.1094,673.0156 Q77.1094,673.625 76.875,673.8906 Q76.6406,674.1563 76.2656,674.1563 Q75.9219,674.1563 75.7188,673.9531 Q75.5156,673.7656 75.4063,673.25 Q75.3594,672.8906 75.1719,672.7031 Q74.8438,672.3281 74.2344,672.1094 Q73.625,671.8906 73,671.8906 Q72.2344,671.8906 71.5938,672.2188 Q70.9688,672.5469 70.4688,673.2969 Q69.9844,674.0469 69.9844,675.0781 L69.9844,676.1719 Q69.9844,677.4063 70.875,678.2344 Q71.7656,679.0469 73.3594,679.0469 Q74.2969,679.0469 74.9531,678.7969 Q75.3438,678.6406 75.7656,678.2031 Q76.0313,677.9375 76.1719,677.8594 Q76.3281,677.7813 76.5313,677.7813 Q76.8594,677.7813 77.1094,678.0469 Q77.375,678.2969 77.375,678.6406 Q77.375,678.9844 77.0313,679.3906 Q76.5313,679.9688 75.7344,680.2969 Q74.6563,680.75 73.3594,680.75 Q71.8438,680.75 70.6406,680.125 Q69.6563,679.625 68.9688,678.5625 Q68.2813,677.4844 68.2813,676.2031 L68.2813,675.0469 Q68.2813,673.7188 68.8906,672.5781 Q69.5156,671.4219 70.6094,670.8125 Q71.7031,670.1875 72.9375,670.1875 Q73.6719,670.1875 74.3125,670.3594 Q74.9688,670.5156 75.5156,670.875 Z " fill="#000000"/><text fill="#000000" font-family="sans-serif" font-size="14" lengthAdjust="spacing" textLength="197" x="93.25" y="680.7969">FilteredCustomerListingService</text><line style="stroke:#181818;stroke-width:0.5;" x1="8" x2="343" y1="691" y2="691"/><rect fill="none" height="6" style="stroke:#C82930;stroke-width:1.0;" width="6" x="15" y="702.8105"/><text fill="#000000" font-family="sans-serif" font-size="14" lengthAdjust="spacing" textLength="274" x="27" y="710.1074">RegisterCustomerService: customerService</text><line style="stroke:#181818;stroke-width:0.5;" x1="8" x2="343" y1="717.6211" y2="717.6211"/><ellipse cx="18" cy="732.4316" fill="#84BE84" rx="3" ry="3" style="stroke:#038048;stroke-width:1.0;"/><text fill="#000000" font-family="sans-serif" font-size="14" lengthAdjust="spacing" textLength="311" x="27" y="736.7285">allCustomersOfAManager(SystemUser: manager)</text></g><!--class RegisterCustomerService--><g id="elem_RegisterCustomerService"><rect codeLine="40" fill="#F1F1F1" height="85.2422" id="RegisterCustomerService" rx="2.5" ry="2.5" style="stroke:#181818;stroke-width:0.5;" width="193" x="79" y="1009.5"/><ellipse cx="94" cy="1025.5" fill="#ADD1B2" rx="11" ry="11" style="stroke:#181818;stroke-width:1.0;"/><path d="M96.7656,1021.375 Q96.9219,1021.1563 97.1094,1021.0469 Q97.2969,1020.9375 97.5156,1020.9375 Q97.8906,1020.9375 98.125,1021.2031 Q98.3594,1021.4531 98.3594,1022.0625 L98.3594,1023.5156 Q98.3594,1024.125 98.125,1024.3906 Q97.8906,1024.6563 97.5156,1024.6563 Q97.1719,1024.6563 96.9688,1024.4531 Q96.7656,1024.2656 96.6563,1023.75 Q96.6094,1023.3906 96.4219,1023.2031 Q96.0938,1022.8281 95.4844,1022.6094 Q94.875,1022.3906 94.25,1022.3906 Q93.4844,1022.3906 92.8438,1022.7188 Q92.2188,1023.0469 91.7188,1023.7969 Q91.2344,1024.5469 91.2344,1025.5781 L91.2344,1026.6719 Q91.2344,1027.9063 92.125,1028.7344 Q93.0156,1029.5469 94.6094,1029.5469 Q95.5469,1029.5469 96.2031,1029.2969 Q96.5938,1029.1406 97.0156,1028.7031 Q97.2813,1028.4375 97.4219,1028.3594 Q97.5781,1028.2813 97.7813,1028.2813 Q98.1094,1028.2813 98.3594,1028.5469 Q98.625,1028.7969 98.625,1029.1406 Q98.625,1029.4844 98.2813,1029.8906 Q97.7813,1030.4688 96.9844,1030.7969 Q95.9063,1031.25 94.6094,1031.25 Q93.0938,1031.25 91.8906,1030.625 Q90.9063,1030.125 90.2188,1029.0625 Q89.5313,1027.9844 89.5313,1026.7031 L89.5313,1025.5469 Q89.5313,1024.2188 90.1406,1023.0781 Q90.7656,1021.9219 91.8594,1021.3125 Q92.9531,1020.6875 94.1875,1020.6875 Q94.9219,1020.6875 95.5625,1020.8594 Q96.2188,1021.0156 96.7656,1021.375 Z " fill="#000000"/><text fill="#000000" font-family="sans-serif" font-size="14" lengthAdjust="spacing" textLength="161" x="108" y="1031.2969">RegisterCustomerService</text><line style="stroke:#181818;stroke-width:0.5;" x1="80" x2="271" y1="1041.5" y2="1041.5"/><rect fill="none" height="6" style="stroke:#C82930;stroke-width:1.0;" width="6" x="87" y="1053.3105"/><text fill="#000000" font-family="sans-serif" font-size="14" lengthAdjust="spacing" textLength="166" x="99" y="1060.6074">CustomerRepository: repo</text><line style="stroke:#181818;stroke-width:0.5;" x1="80" x2="271" y1="1068.1211" y2="1068.1211"/><ellipse cx="90" cy="1082.9316" fill="#84BE84" rx="3" ry="3" style="stroke:#038048;stroke-width:1.0;"/><text fill="#000000" font-family="sans-serif" font-size="14" lengthAdjust="spacing" textLength="60" x="99" y="1087.2285">allUsers()</text></g><!--class ManagePluginService--><g id="elem_ManagePluginService"><rect codeLine="45" fill="#F1F1F1" height="85.2422" id="ManagePluginService" rx="2.5" ry="2.5" style="stroke:#181818;stroke-width:0.5;" width="246" x="641.5" y="659"/><ellipse cx="691.75" cy="675" fill="#ADD1B2" rx="11" ry="11" style="stroke:#181818;stroke-width:1.0;"/><path d="M694.5156,670.875 Q694.6719,670.6563 694.8594,670.5469 Q695.0469,670.4375 695.2656,670.4375 Q695.6406,670.4375 695.875,670.7031 Q696.1094,670.9531 696.1094,671.5625 L696.1094,673.0156 Q696.1094,673.625 695.875,673.8906 Q695.6406,674.1563 695.2656,674.1563 Q694.9219,674.1563 694.7188,673.9531 Q694.5156,673.7656 694.4063,673.25 Q694.3594,672.8906 694.1719,672.7031 Q693.8438,672.3281 693.2344,672.1094 Q692.625,671.8906 692,671.8906 Q691.2344,671.8906 690.5938,672.2188 Q689.9688,672.5469 689.4688,673.2969 Q688.9844,674.0469 688.9844,675.0781 L688.9844,676.1719 Q688.9844,677.4063 689.875,678.2344 Q690.7656,679.0469 692.3594,679.0469 Q693.2969,679.0469 693.9531,678.7969 Q694.3438,678.6406 694.7656,678.2031 Q695.0313,677.9375 695.1719,677.8594 Q695.3281,677.7813 695.5313,677.7813 Q695.8594,677.7813 696.1094,678.0469 Q696.375,678.2969 696.375,678.6406 Q696.375,678.9844 696.0313,679.3906 Q695.5313,679.9688 694.7344,680.2969 Q693.6563,680.75 692.3594,680.75 Q690.8438,680.75 689.6406,680.125 Q688.6563,679.625 687.9688,678.5625 Q687.2813,677.4844 687.2813,676.2031 L687.2813,675.0469 Q687.2813,673.7188 687.8906,672.5781 Q688.5156,671.4219 689.6094,670.8125 Q690.7031,670.1875 691.9375,670.1875 Q692.6719,670.1875 693.3125,670.3594 Q693.9688,670.5156 694.5156,670.875 Z " fill="#000000"/><text fill="#000000" font-family="sans-serif" font-size="14" lengthAdjust="spacing" textLength="137" x="712.25" y="680.7969">ManagePluginService</text><line style="stroke:#181818;stroke-width:0.5;" x1="642.5" x2="886.5" y1="691" y2="691"/><rect fill="none" height="6" style="stroke:#C82930;stroke-width:1.0;" width="6" x="649.5" y="702.8105"/><text fill="#000000" font-family="sans-serif" font-size="14" lengthAdjust="spacing" textLength="220" x="661.5" y="710.1074">RegisteredPluginsRepository: repo</text><line style="stroke:#181818;stroke-width:0.5;" x1="642.5" x2="886.5" y1="717.6211" y2="717.6211"/><ellipse cx="652.5" cy="732.4316" fill="#84BE84" rx="3" ry="3" style="stroke:#038048;stroke-width:1.0;"/><text fill="#000000" font-family="sans-serif" font-size="14" lengthAdjust="spacing" textLength="98" x="661.5" y="736.7285">getPluginsList()</text></g><!--class JobOfferBuilder--><g id="elem_JobOfferBuilder"><rect codeLine="50" fill="#F1F1F1" height="401.8008" id="JobOfferBuilder" rx="2.5" ry="2.5" style="stroke:#181818;stroke-width:0.5;" width="298" x="307.5" y="851"/><ellipse cx="403.25" cy="867" fill="#ADD1B2" rx="11" ry="11" style="stroke:#181818;stroke-width:1.0;"/><path d="M406.0156,862.875 Q406.1719,862.6563 406.3594,862.5469 Q406.5469,862.4375 406.7656,862.4375 Q407.1406,862.4375 407.375,862.7031 Q407.6094,862.9531 407.6094,863.5625 L407.6094,865.0156 Q407.6094,865.625 407.375,865.8906 Q407.1406,866.1563 406.7656,866.1563 Q406.4219,866.1563 406.2188,865.9531 Q406.0156,865.7656 405.9063,865.25 Q405.8594,864.8906 405.6719,864.7031 Q405.3438,864.3281 404.7344,864.1094 Q404.125,863.8906 403.5,863.8906 Q402.7344,863.8906 402.0938,864.2188 Q401.4688,864.5469 400.9688,865.2969 Q400.4844,866.0469 400.4844,867.0781 L400.4844,868.1719 Q400.4844,869.4063 401.375,870.2344 Q402.2656,871.0469 403.8594,871.0469 Q404.7969,871.0469 405.4531,870.7969 Q405.8438,870.6406 406.2656,870.2031 Q406.5313,869.9375 406.6719,869.8594 Q406.8281,869.7813 407.0313,869.7813 Q407.3594,869.7813 407.6094,870.0469 Q407.875,870.2969 407.875,870.6406 Q407.875,870.9844 407.5313,871.3906 Q407.0313,871.9688 406.2344,872.2969 Q405.1563,872.75 403.8594,872.75 Q402.3438,872.75 401.1406,872.125 Q400.1563,871.625 399.4688,870.5625 Q398.7813,869.4844 398.7813,868.2031 L398.7813,867.0469 Q398.7813,865.7188 399.3906,864.5781 Q400.0156,863.4219 401.1094,862.8125 Q402.2031,862.1875 403.4375,862.1875 Q404.1719,862.1875 404.8125,862.3594 Q405.4688,862.5156 406.0156,862.875 Z " fill="#000000"/><text fill="#000000" font-family="sans-serif" font-size="14" lengthAdjust="spacing" textLength="98" x="423.75" y="872.7969">JobOfferBuilder</text><line style="stroke:#181818;stroke-width:0.5;" x1="308.5" x2="604.5" y1="883" y2="883"/><rect fill="none" height="6" style="stroke:#C82930;stroke-width:1.0;" width="6" x="315.5" y="894.8105"/><text fill="#000000" font-family="sans-serif" font-size="14" lengthAdjust="spacing" textLength="127" x="327.5" y="902.1074">Customer: customer</text><rect fill="none" height="6" style="stroke:#C82930;stroke-width:1.0;" width="6" x="315.5" y="913.4316"/><text fill="#000000" font-family="sans-serif" font-size="14" lengthAdjust="spacing" textLength="79" x="327.5" y="920.7285">JobTitle: title</text><rect fill="none" height="6" style="stroke:#C82930;stroke-width:1.0;" width="6" x="315.5" y="932.0527"/><text fill="#000000" font-family="sans-serif" font-size="14" lengthAdjust="spacing" textLength="145" x="327.5" y="939.3496">ContractType: contract</text><rect fill="none" height="6" style="stroke:#C82930;stroke-width:1.0;" width="6" x="315.5" y="950.6738"/><text fill="#000000" font-family="sans-serif" font-size="14" lengthAdjust="spacing" textLength="100" x="327.5" y="957.9707">JobMode: mode</text><rect fill="none" height="6" style="stroke:#C82930;stroke-width:1.0;" width="6" x="315.5" y="969.2949"/><text fill="#000000" font-family="sans-serif" font-size="14" lengthAdjust="spacing" textLength="200" x="327.5" y="976.5918">NumberOfVacancies: vacancies</text><rect fill="none" height="6" style="stroke:#C82930;stroke-width:1.0;" width="6" x="315.5" y="987.916"/><text fill="#000000" font-family="sans-serif" font-size="14" lengthAdjust="spacing" textLength="170" x="327.5" y="995.2129">JobDescription: description</text><rect fill="none" height="6" style="stroke:#C82930;stroke-width:1.0;" width="6" x="315.5" y="1006.5371"/><text fill="#000000" font-family="sans-serif" font-size="14" lengthAdjust="spacing" textLength="111" x="327.5" y="1013.834">Address: address</text><rect fill="none" height="6" style="stroke:#C82930;stroke-width:1.0;" width="6" x="315.5" y="1025.1582"/><text fill="#000000" font-family="sans-serif" font-size="14" lengthAdjust="spacing" textLength="209" x="327.5" y="1032.4551">RegisteredPlugin: interviewModel</text><rect fill="none" height="6" style="stroke:#C82930;stroke-width:1.0;" width="6" x="315.5" y="1043.7793"/><text fill="#000000" font-family="sans-serif" font-size="14" lengthAdjust="spacing" textLength="272" x="327.5" y="1051.0762">RegisteredPlugin: requirementSpecification</text><line style="stroke:#181818;stroke-width:0.5;" x1="308.5" x2="604.5" y1="1058.5898" y2="1058.5898"/><ellipse cx="318.5" cy="1073.4004" fill="#84BE84" rx="3" ry="3" style="stroke:#038048;stroke-width:1.0;"/><text fill="#000000" font-family="sans-serif" font-size="14" lengthAdjust="spacing" textLength="95" x="327.5" y="1077.6973">withCustomer()</text><ellipse cx="318.5" cy="1092.0215" fill="#84BE84" rx="3" ry="3" style="stroke:#038048;stroke-width:1.0;"/><text fill="#000000" font-family="sans-serif" font-size="14" lengthAdjust="spacing" textLength="83" x="327.5" y="1096.3184">withJobTitle()</text><ellipse cx="318.5" cy="1110.6426" fill="#84BE84" rx="3" ry="3" style="stroke:#038048;stroke-width:1.0;"/><text fill="#000000" font-family="sans-serif" font-size="14" lengthAdjust="spacing" textLength="120" x="327.5" y="1114.9395">withContractType()</text><ellipse cx="318.5" cy="1129.2637" fill="#84BE84" rx="3" ry="3" style="stroke:#038048;stroke-width:1.0;"/><text fill="#000000" font-family="sans-serif" font-size="14" lengthAdjust="spacing" textLength="91" x="327.5" y="1133.5605">withJobMode()</text><ellipse cx="318.5" cy="1147.8848" fill="#84BE84" rx="3" ry="3" style="stroke:#038048;stroke-width:1.0;"/><text fill="#000000" font-family="sans-serif" font-size="14" lengthAdjust="spacing" textLength="99" x="327.5" y="1152.1816">withVacancies()</text><ellipse cx="318.5" cy="1166.5059" fill="#84BE84" rx="3" ry="3" style="stroke:#038048;stroke-width:1.0;"/><text fill="#000000" font-family="sans-serif" font-size="14" lengthAdjust="spacing" textLength="105" x="327.5" y="1170.8027">withDescription()</text><ellipse cx="318.5" cy="1185.127" fill="#84BE84" rx="3" ry="3" style="stroke:#038048;stroke-width:1.0;"/><text fill="#000000" font-family="sans-serif" font-size="14" lengthAdjust="spacing" textLength="86" x="327.5" y="1189.4238">withAddress()</text><ellipse cx="318.5" cy="1203.748" fill="#84BE84" rx="3" ry="3" style="stroke:#038048;stroke-width:1.0;"/><text fill="#000000" font-family="sans-serif" font-size="14" lengthAdjust="spacing" textLength="127" x="327.5" y="1208.0449">withInterviewModel()</text><ellipse cx="318.5" cy="1222.3691" fill="#84BE84" rx="3" ry="3" style="stroke:#038048;stroke-width:1.0;"/><text fill="#000000" font-family="sans-serif" font-size="14" lengthAdjust="spacing" textLength="195" x="327.5" y="1226.666">withRequirementSpecification()</text><ellipse cx="318.5" cy="1240.9902" fill="#84BE84" rx="3" ry="3" style="stroke:#038048;stroke-width:1.0;"/><text fill="#000000" font-family="sans-serif" font-size="14" lengthAdjust="spacing" textLength="40" x="327.5" y="1245.2871">build()</text></g><!--class PersistenceContext--><g id="elem_PersistenceContext"><rect codeLine="71" fill="#F1F1F1" height="66.6211" id="PersistenceContext" rx="2.5" ry="2.5" style="stroke:#181818;stroke-width:0.5;" width="154" x="950.5" y="429.5"/><ellipse cx="965.5" cy="445.5" fill="#ADD1B2" rx="11" ry="11" style="stroke:#181818;stroke-width:1.0;"/><path d="M968.2656,441.375 Q968.4219,441.1563 968.6094,441.0469 Q968.7969,440.9375 969.0156,440.9375 Q969.3906,440.9375 969.625,441.2031 Q969.8594,441.4531 969.8594,442.0625 L969.8594,443.5156 Q969.8594,444.125 969.625,444.3906 Q969.3906,444.6563 969.0156,444.6563 Q968.6719,444.6563 968.4688,444.4531 Q968.2656,444.2656 968.1563,443.75 Q968.1094,443.3906 967.9219,443.2031 Q967.5938,442.8281 966.9844,442.6094 Q966.375,442.3906 965.75,442.3906 Q964.9844,442.3906 964.3438,442.7188 Q963.7188,443.0469 963.2188,443.7969 Q962.7344,444.5469 962.7344,445.5781 L962.7344,446.6719 Q962.7344,447.9063 963.625,448.7344 Q964.5156,449.5469 966.1094,449.5469 Q967.0469,449.5469 967.7031,449.2969 Q968.0938,449.1406 968.5156,448.7031 Q968.7813,448.4375 968.9219,448.3594 Q969.0781,448.2813 969.2813,448.2813 Q969.6094,448.2813 969.8594,448.5469 Q970.125,448.7969 970.125,449.1406 Q970.125,449.4844 969.7813,449.8906 Q969.2813,450.4688 968.4844,450.7969 Q967.4063,451.25 966.1094,451.25 Q964.5938,451.25 963.3906,450.625 Q962.4063,450.125 961.7188,449.0625 Q961.0313,447.9844 961.0313,446.7031 L961.0313,445.5469 Q961.0313,444.2188 961.6406,443.0781 Q962.2656,441.9219 963.3594,441.3125 Q964.4531,440.6875 965.6875,440.6875 Q966.4219,440.6875 967.0625,440.8594 Q967.7188,441.0156 968.2656,441.375 Z " fill="#000000"/><text fill="#000000" font-family="sans-serif" font-size="14" lengthAdjust="spacing" textLength="122" x="979.5" y="451.2969">PersistenceContext</text><line style="stroke:#181818;stroke-width:0.5;" x1="951.5" x2="1103.5" y1="461.5" y2="461.5"/><line style="stroke:#181818;stroke-width:0.5;" x1="951.5" x2="1103.5" y1="469.5" y2="469.5"/><ellipse cx="961.5" cy="484.3105" fill="#84BE84" rx="3" ry="3" style="stroke:#038048;stroke-width:1.0;"/><text fill="#000000" font-family="sans-serif" font-size="14" lengthAdjust="spacing" textLength="84" x="970.5" y="488.6074">repositories()</text></g><!--class RepositoryFactory--><g id="elem_RepositoryFactory"><rect codeLine="75" fill="#F1F1F1" height="85.2422" id="RepositoryFactory" rx="2.5" ry="2.5" style="stroke:#181818;stroke-width:0.5;" width="256" x="922.5" y="659"/><ellipse cx="988.25" cy="675" fill="#ADD1B2" rx="11" ry="11" style="stroke:#181818;stroke-width:1.0;"/><path d="M991.0156,670.875 Q991.1719,670.6563 991.3594,670.5469 Q991.5469,670.4375 991.7656,670.4375 Q992.1406,670.4375 992.375,670.7031 Q992.6094,670.9531 992.6094,671.5625 L992.6094,673.0156 Q992.6094,673.625 992.375,673.8906 Q992.1406,674.1563 991.7656,674.1563 Q991.4219,674.1563 991.2188,673.9531 Q991.0156,673.7656 990.9063,673.25 Q990.8594,672.8906 990.6719,672.7031 Q990.3438,672.3281 989.7344,672.1094 Q989.125,671.8906 988.5,671.8906 Q987.7344,671.8906 987.0938,672.2188 Q986.4688,672.5469 985.9688,673.2969 Q985.4844,674.0469 985.4844,675.0781 L985.4844,676.1719 Q985.4844,677.4063 986.375,678.2344 Q987.2656,679.0469 988.8594,679.0469 Q989.7969,679.0469 990.4531,678.7969 Q990.8438,678.6406 991.2656,678.2031 Q991.5313,677.9375 991.6719,677.8594 Q991.8281,677.7813 992.0313,677.7813 Q992.3594,677.7813 992.6094,678.0469 Q992.875,678.2969 992.875,678.6406 Q992.875,678.9844 992.5313,679.3906 Q992.0313,679.9688 991.2344,680.2969 Q990.1563,680.75 988.8594,680.75 Q987.3438,680.75 986.1406,680.125 Q985.1563,679.625 984.4688,678.5625 Q983.7813,677.4844 983.7813,676.2031 L983.7813,675.0469 Q983.7813,673.7188 984.3906,672.5781 Q985.0156,671.4219 986.1094,670.8125 Q987.2031,670.1875 988.4375,670.1875 Q989.1719,670.1875 989.8125,670.3594 Q990.4688,670.5156 991.0156,670.875 Z " fill="#000000"/><text fill="#000000" font-family="sans-serif" font-size="14" lengthAdjust="spacing" textLength="116" x="1008.75" y="680.7969">RepositoryFactory</text><line style="stroke:#181818;stroke-width:0.5;" x1="923.5" x2="1177.5" y1="691" y2="691"/><line style="stroke:#181818;stroke-width:0.5;" x1="923.5" x2="1177.5" y1="699" y2="699"/><ellipse cx="933.5" cy="713.8105" fill="#84BE84" rx="3" ry="3" style="stroke:#038048;stroke-width:1.0;"/><text fill="#000000" font-family="sans-serif" font-size="14" lengthAdjust="spacing" textLength="169" x="942.5" y="718.1074">newTransactionalContext()</text><ellipse cx="933.5" cy="732.4316" fill="#84BE84" rx="3" ry="3" style="stroke:#038048;stroke-width:1.0;"/><text fill="#000000" font-family="sans-serif" font-size="14" lengthAdjust="spacing" textLength="230" x="942.5" y="736.7285">JobOffer(TransactionalContext var1)</text></g><!--class JobOfferRepository--><g id="elem_JobOfferRepository"><rect codeLine="80" fill="#F1F1F1" height="85.2422" id="JobOfferRepository" rx="2.5" ry="2.5" style="stroke:#181818;stroke-width:0.5;" width="188" x="640.5" y="1009.5"/><ellipse cx="670.8" cy="1025.5" fill="#ADD1B2" rx="11" ry="11" style="stroke:#181818;stroke-width:1.0;"/><path d="M673.5656,1021.375 Q673.7219,1021.1563 673.9094,1021.0469 Q674.0969,1020.9375 674.3156,1020.9375 Q674.6906,1020.9375 674.925,1021.2031 Q675.1594,1021.4531 675.1594,1022.0625 L675.1594,1023.5156 Q675.1594,1024.125 674.925,1024.3906 Q674.6906,1024.6563 674.3156,1024.6563 Q673.9719,1024.6563 673.7688,1024.4531 Q673.5656,1024.2656 673.4563,1023.75 Q673.4094,1023.3906 673.2219,1023.2031 Q672.8938,1022.8281 672.2844,1022.6094 Q671.675,1022.3906 671.05,1022.3906 Q670.2844,1022.3906 669.6438,1022.7188 Q669.0188,1023.0469 668.5188,1023.7969 Q668.0344,1024.5469 668.0344,1025.5781 L668.0344,1026.6719 Q668.0344,1027.9063 668.925,1028.7344 Q669.8156,1029.5469 671.4094,1029.5469 Q672.3469,1029.5469 673.0031,1029.2969 Q673.3938,1029.1406 673.8156,1028.7031 Q674.0813,1028.4375 674.2219,1028.3594 Q674.3781,1028.2813 674.5813,1028.2813 Q674.9094,1028.2813 675.1594,1028.5469 Q675.425,1028.7969 675.425,1029.1406 Q675.425,1029.4844 675.0813,1029.8906 Q674.5813,1030.4688 673.7844,1030.7969 Q672.7063,1031.25 671.4094,1031.25 Q669.8938,1031.25 668.6906,1030.625 Q667.7063,1030.125 667.0188,1029.0625 Q666.3313,1027.9844 666.3313,1026.7031 L666.3313,1025.5469 Q666.3313,1024.2188 666.9406,1023.0781 Q667.5656,1021.9219 668.6594,1021.3125 Q669.7531,1020.6875 670.9875,1020.6875 Q671.7219,1020.6875 672.3625,1020.8594 Q673.0188,1021.0156 673.5656,1021.375 Z " fill="#000000"/><text fill="#000000" font-family="sans-serif" font-size="14" lengthAdjust="spacing" textLength="122" x="688.2" y="1031.2969">JobOfferRepository</text><line style="stroke:#181818;stroke-width:0.5;" x1="641.5" x2="827.5" y1="1041.5" y2="1041.5"/><line style="stroke:#181818;stroke-width:0.5;" x1="641.5" x2="827.5" y1="1049.5" y2="1049.5"/><ellipse cx="651.5" cy="1064.3105" fill="#84BE84" rx="3" ry="3" style="stroke:#038048;stroke-width:1.0;"/><text fill="#000000" font-family="sans-serif" font-size="14" lengthAdjust="spacing" textLength="162" x="660.5" y="1068.6074">findByRef(ref: Reference)</text><ellipse cx="651.5" cy="1082.9316" fill="#84BE84" rx="3" ry="3" style="stroke:#038048;stroke-width:1.0;"/><text fill="#000000" font-family="sans-serif" font-size="14" lengthAdjust="spacing" textLength="87" x="660.5" y="1087.2285">findAllOffers()</text></g><!--class RegisteredPluginsRepository--><g id="elem_RegisteredPluginsRepository"><rect codeLine="85" fill="#F1F1F1" height="85.2422" id="RegisteredPluginsRepository" rx="2.5" ry="2.5" style="stroke:#181818;stroke-width:0.5;" width="238" x="863.5" y="1009.5"/><ellipse cx="888.85" cy="1025.5" fill="#ADD1B2" rx="11" ry="11" style="stroke:#181818;stroke-width:1.0;"/><path d="M891.6156,1021.375 Q891.7719,1021.1563 891.9594,1021.0469 Q892.1469,1020.9375 892.3656,1020.9375 Q892.7406,1020.9375 892.975,1021.2031 Q893.2094,1021.4531 893.2094,1022.0625 L893.2094,1023.5156 Q893.2094,1024.125 892.975,1024.3906 Q892.7406,1024.6563 892.3656,1024.6563 Q892.0219,1024.6563 891.8188,1024.4531 Q891.6156,1024.2656 891.5063,1023.75 Q891.4594,1023.3906 891.2719,1023.2031 Q890.9438,1022.8281 890.3344,1022.6094 Q889.725,1022.3906 889.1,1022.3906 Q888.3344,1022.3906 887.6938,1022.7188 Q887.0688,1023.0469 886.5688,1023.7969 Q886.0844,1024.5469 886.0844,1025.5781 L886.0844,1026.6719 Q886.0844,1027.9063 886.975,1028.7344 Q887.8656,1029.5469 889.4594,1029.5469 Q890.3969,1029.5469 891.0531,1029.2969 Q891.4438,1029.1406 891.8656,1028.7031 Q892.1313,1028.4375 892.2719,1028.3594 Q892.4281,1028.2813 892.6313,1028.2813 Q892.9594,1028.2813 893.2094,1028.5469 Q893.475,1028.7969 893.475,1029.1406 Q893.475,1029.4844 893.1313,1029.8906 Q892.6313,1030.4688 891.8344,1030.7969 Q890.7563,1031.25 889.4594,1031.25 Q887.9438,1031.25 886.7406,1030.625 Q885.7563,1030.125 885.0688,1029.0625 Q884.3813,1027.9844 884.3813,1026.7031 L884.3813,1025.5469 Q884.3813,1024.2188 884.9906,1023.0781 Q885.6156,1021.9219 886.7094,1021.3125 Q887.8031,1020.6875 889.0375,1020.6875 Q889.7719,1020.6875 890.4125,1020.8594 Q891.0688,1021.0156 891.6156,1021.375 Z " fill="#000000"/><text fill="#000000" font-family="sans-serif" font-size="14" lengthAdjust="spacing" textLength="183" x="905.15" y="1031.2969">RegisteredPluginsRepository</text><line style="stroke:#181818;stroke-width:0.5;" x1="864.5" x2="1100.5" y1="1041.5" y2="1041.5"/><line style="stroke:#181818;stroke-width:0.5;" x1="864.5" x2="1100.5" y1="1049.5" y2="1049.5"/><ellipse cx="874.5" cy="1064.3105" fill="#84BE84" rx="3" ry="3" style="stroke:#038048;stroke-width:1.0;"/><text fill="#000000" font-family="sans-serif" font-size="14" lengthAdjust="spacing" textLength="212" x="883.5" y="1068.6074">findByRef(PluginFileName name);</text><ellipse cx="874.5" cy="1082.9316" fill="#84BE84" rx="3" ry="3" style="stroke:#038048;stroke-width:1.0;"/><text fill="#000000" font-family="sans-serif" font-size="14" lengthAdjust="spacing" textLength="94" x="883.5" y="1087.2285">findAllPlugins()</text></g><!--class CustomerRepository--><g id="elem_CustomerRepository"><rect codeLine="90" fill="#F1F1F1" height="85.2422" id="CustomerRepository" rx="2.5" ry="2.5" style="stroke:#181818;stroke-width:0.5;" width="161" x="593" y="1314"/><ellipse cx="608" cy="1330" fill="#ADD1B2" rx="11" ry="11" style="stroke:#181818;stroke-width:1.0;"/><path d="M610.7656,1325.875 Q610.9219,1325.6563 611.1094,1325.5469 Q611.2969,1325.4375 611.5156,1325.4375 Q611.8906,1325.4375 612.125,1325.7031 Q612.3594,1325.9531 612.3594,1326.5625 L612.3594,1328.0156 Q612.3594,1328.625 612.125,1328.8906 Q611.8906,1329.1563 611.5156,1329.1563 Q611.1719,1329.1563 610.9688,1328.9531 Q610.7656,1328.7656 610.6563,1328.25 Q610.6094,1327.8906 610.4219,1327.7031 Q610.0938,1327.3281 609.4844,1327.1094 Q608.875,1326.8906 608.25,1326.8906 Q607.4844,1326.8906 606.8438,1327.2188 Q606.2188,1327.5469 605.7188,1328.2969 Q605.2344,1329.0469 605.2344,1330.0781 L605.2344,1331.1719 Q605.2344,1332.4063 606.125,1333.2344 Q607.0156,1334.0469 608.6094,1334.0469 Q609.5469,1334.0469 610.2031,1333.7969 Q610.5938,1333.6406 611.0156,1333.2031 Q611.2813,1332.9375 611.4219,1332.8594 Q611.5781,1332.7813 611.7813,1332.7813 Q612.1094,1332.7813 612.3594,1333.0469 Q612.625,1333.2969 612.625,1333.6406 Q612.625,1333.9844 612.2813,1334.3906 Q611.7813,1334.9688 610.9844,1335.2969 Q609.9063,1335.75 608.6094,1335.75 Q607.0938,1335.75 605.8906,1335.125 Q604.9063,1334.625 604.2188,1333.5625 Q603.5313,1332.4844 603.5313,1331.2031 L603.5313,1330.0469 Q603.5313,1328.7188 604.1406,1327.5781 Q604.7656,1326.4219 605.8594,1325.8125 Q606.9531,1325.1875 608.1875,1325.1875 Q608.9219,1325.1875 609.5625,1325.3594 Q610.2188,1325.5156 610.7656,1325.875 Z " fill="#000000"/><text fill="#000000" font-family="sans-serif" font-size="14" lengthAdjust="spacing" textLength="129" x="622" y="1335.7969">CustomerRepository</text><line style="stroke:#181818;stroke-width:0.5;" x1="594" x2="753" y1="1346" y2="1346"/><line style="stroke:#181818;stroke-width:0.5;" x1="594" x2="753" y1="1354" y2="1354"/><ellipse cx="604" cy="1368.8105" fill="#84BE84" rx="3" ry="3" style="stroke:#038048;stroke-width:1.0;"/><text fill="#000000" font-family="sans-serif" font-size="14" lengthAdjust="spacing" textLength="71" x="613" y="1373.1074">findByRef()</text><ellipse cx="604" cy="1387.4316" fill="#84BE84" rx="3" ry="3" style="stroke:#038048;stroke-width:1.0;"/><text fill="#000000" font-family="sans-serif" font-size="14" lengthAdjust="spacing" textLength="116" x="613" y="1391.7285">findAllCustomers()</text></g><!--link CustomerManagerUI to RegisterJobOfferUI--><g id="link_CustomerManagerUI_RegisterJobOfferUI"><path codeLine="95" d="M606.5,74.37 C606.5,91.43 606.5,107.17 606.5,128.73 " fill="none" id="CustomerManagerUI-to-RegisterJobOfferUI" style="stroke:#181818;stroke-width:1.0;stroke-dasharray:7.0,7.0;"/><polygon fill="#181818" points="606.5,134.73,610.5,125.73,606.5,129.73,602.5,125.73,606.5,134.73" style="stroke:#181818;stroke-width:1.0;"/></g><!--link RegisterJobOfferUI to RegisterJobOfferController--><g id="link_RegisterJobOfferUI_RegisterJobOfferController"><path codeLine="96" d="M606.5,313.25 C606.5,332.99 606.5,347.93 606.5,367.68 " fill="none" id="RegisterJobOfferUI-to-RegisterJobOfferController" style="stroke:#181818;stroke-width:1.0;stroke-dasharray:7.0,7.0;"/><polygon fill="#181818" points="606.5,373.68,610.5,364.68,606.5,368.68,602.5,364.68,606.5,373.68" style="stroke:#181818;stroke-width:1.0;"/></g><!--link RegisterJobOfferController to PersistenceContext--><g id="link_RegisterJobOfferController_PersistenceContext"><path codeLine="97" d="M793.3,463 C848.58,463 900.06,463 944.24,463 " fill="none" id="RegisterJobOfferController-to-PersistenceContext" style="stroke:#181818;stroke-width:1.0;"/><polygon fill="#181818" points="950.24,463,941.24,459,945.24,463,941.24,467,950.24,463" style="stroke:#181818;stroke-width:1.0;"/><text fill="#000000" font-family="sans-serif" font-size="13" lengthAdjust="spacing" textLength="75" x="834.25" y="456.0283">repositories()</text></g><!--link PersistenceContext to RepositoryFactory--><g id="link_PersistenceContext_RepositoryFactory"><path codeLine="98" d="M1030.7,496.88 C1034.81,539.15 1041.3692,606.5982 1045.8592,652.7682 " fill="none" id="PersistenceContext-to-RepositoryFactory" style="stroke:#181818;stroke-width:1.0;"/><polygon fill="#181818" points="1046.44,658.74,1049.5501,649.3951,1045.956,653.7635,1041.5876,650.1694,1046.44,658.74" style="stroke:#181818;stroke-width:1.0;"/><text fill="#000000" font-family="sans-serif" font-size="13" lengthAdjust="spacing" textLength="44" x="1040.5" y="597.0283">create()</text></g><!--link RepositoryFactory to JobOfferRepository--><g id="link_RepositoryFactory_JobOfferRepository"><path codeLine="100" d="M978.37,744.06 C936.32,770.78 884.31,808.41 846.5,851 C803.7,899.21 772.63,961.0053 753.81,1003.9153 " fill="none" id="RepositoryFactory-to-JobOfferRepository" style="stroke:#181818;stroke-width:1.0;"/><polygon fill="#181818" points="751.4,1009.41,758.6781,1002.7745,753.4083,1004.8311,751.3518,999.5613,751.4,1009.41" style="stroke:#181818;stroke-width:1.0;"/><text fill="#000000" font-family="sans-serif" font-size="13" lengthAdjust="spacing" textLength="44" x="896.5" y="817.0283">create()</text></g><!--link RepositoryFactory to CustomerRepository--><g id="link_RepositoryFactory_CustomerRepository"><path codeLine="101" d="M1074,744.22 C1126.83,844.14 1241.15,1100.22 1119.5,1253 C1074.71,1309.25 876.2704,1336.6051 760.3504,1348.1551 " fill="none" id="RepositoryFactory-to-CustomerRepository" style="stroke:#181818;stroke-width:1.0;"/><polygon fill="#181818" points="754.38,1348.75,763.7322,1351.838,759.3554,1348.2543,762.9391,1343.8774,754.38,1348.75" style="stroke:#181818;stroke-width:1.0;"/><text fill="#000000" font-family="sans-serif" font-size="13" lengthAdjust="spacing" textLength="44" x="1174.5" y="1057.5283">create()</text></g><!--link RepositoryFactory to RegisteredPluginsRepository--><g id="link_RepositoryFactory_RegisteredPluginsRepository"><path codeLine="102" d="M1042.37,744.19 C1029.29,811.22 1004.8795,936.3111 991.7895,1003.3711 " fill="none" id="RepositoryFactory-to-RegisteredPluginsRepository" style="stroke:#181818;stroke-width:1.0;"/><polygon fill="#181818" points="990.64,1009.26,996.2901,1001.193,991.5979,1004.3526,988.4383,999.6604,990.64,1009.26" style="stroke:#181818;stroke-width:1.0;"/><text fill="#000000" font-family="sans-serif" font-size="13" lengthAdjust="spacing" textLength="44" x="1030.5" y="817.0283">create()</text></g><!--link RegisterJobOfferController to RegisterJobOfferService--><g id="link_RegisterJobOfferController_RegisterJobOfferService"><path codeLine="104" d="M564.05,552.06 C551.52,578.07 540.5868,600.7559 528.6868,625.4259 " fill="none" id="RegisterJobOfferController-to-RegisterJobOfferService" style="stroke:#181818;stroke-width:1.0;"/><polygon fill="#181818" points="526.08,630.83,533.5929,624.4616,528.2523,626.3266,526.3874,620.9859,526.08,630.83" style="stroke:#181818;stroke-width:1.0;"/></g><!--link RegisterJobOfferController to ManagePluginService--><g id="link_RegisterJobOfferController_ManagePluginService"><path codeLine="105" d="M665.33,552.06 C689.72,588.57 713.5256,624.2119 733.2456,653.7119 " fill="none" id="RegisterJobOfferController-to-ManagePluginService" style="stroke:#181818;stroke-width:1.0;"/><polygon fill="#181818" points="736.58,658.7,734.9038,648.9948,733.8013,654.5432,728.2529,653.4408,736.58,658.7" style="stroke:#181818;stroke-width:1.0;"/></g><!--link RegisterJobOfferController to FilteredCustomerListingService--><g id="link_RegisterJobOfferController_FilteredCustomerListingService"><path codeLine="106" d="M446.01,552.06 C379.36,588.64 310.4402,626.4537 256.6402,655.9737 " fill="none" id="RegisterJobOfferController-to-FilteredCustomerListingService" style="stroke:#181818;stroke-width:1.0;"/><polygon fill="#181818" points="251.38,658.86,261.1944,658.0374,255.7635,656.4548,257.3461,651.0238,251.38,658.86" style="stroke:#181818;stroke-width:1.0;"/></g><!--link FilteredCustomerListingService to RegisterCustomerService--><g id="link_FilteredCustomerListingService_RegisterCustomerService"><path codeLine="107" d="M175.5,744.19 C175.5,811.22 175.5,936.2 175.5,1003.26 " fill="none" id="FilteredCustomerListingService-to-RegisterCustomerService" style="stroke:#181818;stroke-width:1.0;"/><polygon fill="#181818" points="175.5,1009.26,179.5,1000.26,175.5,1004.26,171.5,1000.26,175.5,1009.26" style="stroke:#181818;stroke-width:1.0;"/></g><!--link RegisterCustomerService to CustomerRepository--><g id="link_RegisterCustomerService_CustomerRepository"><path codeLine="108" d="M188.38,1094.76 C204.62,1140.42 236.96,1212.49 289.5,1253 C378.3,1321.46 503.1143,1343.7702 586.8043,1351.3302 " fill="none" id="RegisterCustomerService-to-CustomerRepository" style="stroke:#181818;stroke-width:1.0;"/><polygon fill="#181818" points="592.78,1351.87,584.1764,1347.0765,587.8003,1351.4202,583.4566,1355.0441,592.78,1351.87" style="stroke:#181818;stroke-width:1.0;"/></g><!--link ManagePluginService to RegisteredPluginsRepository--><g id="link_ManagePluginService_RegisteredPluginsRepository"><path codeLine="109" d="M790.58,744.19 C832.51,811.22 911.258,937.1133 953.208,1004.1733 " fill="none" id="ManagePluginService-to-RegisteredPluginsRepository" style="stroke:#181818;stroke-width:1.0;"/><polygon fill="#181818" points="956.39,1009.26,955.0081,999.5086,953.7383,1005.0211,948.2258,1003.7513,956.39,1009.26" style="stroke:#181818;stroke-width:1.0;"/></g><!--link RegisterJobOfferService to JobOfferBuilder--><g id="link_RegisterJobOfferService_JobOfferBuilder"><path codeLine="110" d="M485.3,772.19 C482.9,795.43 480.7059,816.6417 477.8059,844.7417 " fill="none" id="RegisterJobOfferService-to-JobOfferBuilder" style="stroke:#181818;stroke-width:1.0;"/><polygon fill="#181818" points="477.19,850.71,482.0928,842.1682,477.7033,845.7364,474.1351,841.3469,477.19,850.71" style="stroke:#181818;stroke-width:1.0;"/></g><!--link RegisterJobOfferService to JobOfferRepository--><g id="link_RegisterJobOfferService_JobOfferRepository"><path codeLine="111" d="M558.8,772.15 C580.26,796.24 603.43,823.99 622.5,851 C659.11,902.85 690.8957,962.364 711.6757,1003.904 " fill="none" id="RegisterJobOfferService-to-JobOfferRepository" style="stroke:#181818;stroke-width:1.0;"/><polygon fill="#181818" points="714.36,1009.27,713.9109,999.4314,712.1231,1004.7983,706.7562,1003.0105,714.36,1009.27" style="stroke:#181818;stroke-width:1.0;"/></g><!--SRC=[ZLR9Rjim4BthAtXhWi09UbM10ccA02cQ1NRIEqEDR0RKKfAAwmJzzuuaKXAtk3x8ukEiRuP3VTfftQhyug8LjDPT9SvPKrqmGPLQ5Pnk9QsoR5YIgqxffW9vIskw1VbqyvuH_9qH2LkkDCWVpVDzMO8yESt-MgMrjsUrLi7ELLDhsGW1CYTw1_FIU2cQpQxPe-rngN1X8_g9XfoDcneDltBOtpO52ENihU5tnoLKK6iLA68mlOghCOH2cNuyjCDEChavPflaPQTtZUHlLFEctlGnCI0KmJSZSCq56e1YcGgljrQKHM6ZEnRYGNHRFjbkbwi4qsOt9oykO59c4gY6HJ57U0jwTEMoXh1NXYGznetbniBVEYwAlkelBk29hQ5j5DUDFEJOSMrZ_DEYY8Kw07CPIruNtmvhA9VnVSoztwTMQcAFkO2DHmWhgUxBItDOJZO7j54zgJxFQiGYJ7a-R0WMJb4WH6_OQSr8R_W9GM7gcJ0R57moxbNE3tEcPYxX8zS2ETFzdnLV72jKCQjPfJ-8I1O-3NRNLSyWxyjVbD6QSL0vURMlizftK4pojZzmEIdcXJsHHI51eIeTNnAav8GxCoGf9kTnicc1yP8pEhax8tkkTvQNgHjxq7BYW4jAVEa-30URQ73GHVeERl9sC7TCEblhH5gJq7DV-w4fnfvum0RigQdPCBhXZvwl1zDUt9-UjkskCMNyimerx1ybhHMYw94AOszoFPttc1IsXFmSwTNPstim4oIKEOQ3KdtuovbnASGqIOBJ6Zb0eUrH14SDtD4AI8sFqo-k1sDbwI8yyU-HIUPOcQREQ2UuhSdvwclaEiv2A2gvk8_JMmGLmqOWkTy34PdLuDFh2DGSRoFKoSBTGIaiy58heHJo-nzA7zJT2pJDJuHPUtySKOjCz6Cg7rzmsP5lZsMitiMK9V04jrdiI-K8erc29gVczaiXAHjhZty0]--></g></svg>