<?xml version="1.0" encoding="us-ascii" standalone="no"?><svg xmlns="http://www.w3.org/2000/svg" xmlns:xlink="http://www.w3.org/1999/xlink" contentStyleType="text/css" height="1034.1px" preserveAspectRatio="none" style="width:1720px;height:1034px;background:#FFFFFF;" version="1.1" viewBox="0 0 1720 1034" width="1720.8px" zoomAndPan="magnify"><defs/><g><text fill="#000000" font-family="sans-serif" font-size="12.6" font-weight="bold" lengthAdjust="spacing" textLength="138.6" x="785.025" y="22.5967">US1016 Class Diagram</text><!--class CandidateNotificationUI--><g id="elem_CandidateNotificationUI"><rect codeLine="4" fill="#F1F1F1" height="143.7539" id="CandidateNotificationUI" rx="2.25" ry="2.25" style="stroke:#181818;stroke-width:0.45;" width="287.1" x="812.25" y="41.959"/><ellipse cx="886.275" cy="56.359" fill="#ADD1B2" rx="9.9" ry="9.9" style="stroke:#181818;stroke-width:0.9;"/><path d="M888.7641,52.6465 Q888.9047,52.4496 889.0734,52.3512 Q889.2422,52.2527 889.4391,52.2527 Q889.7766,52.2527 889.9875,52.4918 Q890.1984,52.7168 890.1984,53.2652 L890.1984,54.573 Q890.1984,55.1215 889.9875,55.3605 Q889.7766,55.5996 889.4391,55.5996 Q889.1297,55.5996 888.9469,55.4168 Q888.7641,55.248 888.6656,54.784 Q888.6234,54.4605 888.4547,54.2918 Q888.1594,53.9543 887.6109,53.7574 Q887.0625,53.5605 886.5,53.5605 Q885.8109,53.5605 885.2344,53.8559 Q884.6719,54.1512 884.2219,54.8262 Q883.7859,55.5012 883.7859,56.4293 L883.7859,57.4137 Q883.7859,58.5246 884.5875,59.2699 Q885.3891,60.0012 886.8234,60.0012 Q887.6672,60.0012 888.2578,59.7762 Q888.6094,59.6355 888.9891,59.2418 Q889.2281,59.0027 889.3547,58.9324 Q889.4953,58.8621 889.6781,58.8621 Q889.9734,58.8621 890.1984,59.1012 Q890.4375,59.3262 890.4375,59.6355 Q890.4375,59.9449 890.1281,60.3105 Q889.6781,60.8309 888.9609,61.1262 Q887.9906,61.534 886.8234,61.534 Q885.4594,61.534 884.3766,60.9715 Q883.4906,60.5215 882.8719,59.5652 Q882.2531,58.5949 882.2531,57.4418 L882.2531,56.4012 Q882.2531,55.2059 882.8016,54.1793 Q883.3641,53.1387 884.3484,52.5902 Q885.3328,52.0277 886.4438,52.0277 Q887.1047,52.0277 887.6813,52.1824 Q888.2719,52.323 888.7641,52.6465 Z " fill="#000000"/><text fill="#000000" font-family="sans-serif" font-size="12.6" lengthAdjust="spacing" textLength="131.4" x="904.725" y="61.5762">CandidateNotificationUI</text><line style="stroke:#181818;stroke-width:0.45;" x1="813.15" x2="1098.45" y1="70.759" y2="70.759"/><line style="stroke:#181818;stroke-width:0.45;" x1="813.15" x2="1098.45" y1="77.959" y2="77.959"/><ellipse cx="822.15" cy="91.2885" fill="#84BE84" rx="2.7" ry="2.7" style="stroke:#038048;stroke-width:0.9;"/><text fill="#000000" font-family="sans-serif" font-size="12.6" lengthAdjust="spacing" textLength="163.8" x="830.25" y="95.1557">requestsToNotifyCandidate()</text><ellipse cx="822.15" cy="108.0475" fill="#84BE84" rx="2.7" ry="2.7" style="stroke:#038048;stroke-width:0.9;"/><text fill="#000000" font-family="sans-serif" font-size="12.6" lengthAdjust="spacing" textLength="171" x="830.25" y="111.9146">displaysCandidatesAvailable()</text><ellipse cx="822.15" cy="124.8064" fill="#84BE84" rx="2.7" ry="2.7" style="stroke:#038048;stroke-width:0.9;"/><text fill="#000000" font-family="sans-serif" font-size="12.6" lengthAdjust="spacing" textLength="152.1" x="830.25" y="128.6736">requestsEmailInformation()</text><ellipse cx="822.15" cy="141.5654" fill="#84BE84" rx="2.7" ry="2.7" style="stroke:#038048;stroke-width:0.9;"/><text fill="#000000" font-family="sans-serif" font-size="12.6" lengthAdjust="spacing" textLength="187.2" x="830.25" y="145.4326">inputsEmailContent(body: String)</text><ellipse cx="822.15" cy="158.3244" fill="#84BE84" rx="2.7" ry="2.7" style="stroke:#038048;stroke-width:0.9;"/><text fill="#000000" font-family="sans-serif" font-size="12.6" lengthAdjust="spacing" textLength="263.7" x="830.25" y="162.1916">sendEmail(body: String, phoneNumber: String)</text><ellipse cx="822.15" cy="175.0834" fill="#84BE84" rx="2.7" ry="2.7" style="stroke:#038048;stroke-width:0.9;"/><text fill="#000000" font-family="sans-serif" font-size="12.6" lengthAdjust="spacing" textLength="153" x="830.25" y="178.9506">displayOperationSuccess()</text></g><!--class CandidateNotificationController--><g id="elem_CandidateNotificationController"><rect codeLine="13" fill="#F1F1F1" height="93.477" id="CandidateNotificationController" rx="2.25" ry="2.25" style="stroke:#181818;stroke-width:0.45;" width="342" x="784.8" y="274.159"/><ellipse cx="863.775" cy="288.559" fill="#ADD1B2" rx="9.9" ry="9.9" style="stroke:#181818;stroke-width:0.9;"/><path d="M866.2641,284.8465 Q866.4047,284.6496 866.5734,284.5512 Q866.7422,284.4527 866.9391,284.4527 Q867.2766,284.4527 867.4875,284.6918 Q867.6984,284.9168 867.6984,285.4652 L867.6984,286.773 Q867.6984,287.3215 867.4875,287.5605 Q867.2766,287.7996 866.9391,287.7996 Q866.6297,287.7996 866.4469,287.6168 Q866.2641,287.448 866.1656,286.984 Q866.1234,286.6605 865.9547,286.4918 Q865.6594,286.1543 865.1109,285.9574 Q864.5625,285.7605 864,285.7605 Q863.3109,285.7605 862.7344,286.0559 Q862.1719,286.3512 861.7219,287.0262 Q861.2859,287.7012 861.2859,288.6293 L861.2859,289.6137 Q861.2859,290.7246 862.0875,291.4699 Q862.8891,292.2012 864.3234,292.2012 Q865.1672,292.2012 865.7578,291.9762 Q866.1094,291.8355 866.4891,291.4418 Q866.7281,291.2027 866.8547,291.1324 Q866.9953,291.0621 867.1781,291.0621 Q867.4734,291.0621 867.6984,291.3012 Q867.9375,291.5262 867.9375,291.8355 Q867.9375,292.1449 867.6281,292.5105 Q867.1781,293.0309 866.4609,293.3262 Q865.4906,293.734 864.3234,293.734 Q862.9594,293.734 861.8766,293.1715 Q860.9906,292.7215 860.3719,291.7652 Q859.7531,290.7949 859.7531,289.6418 L859.7531,288.6012 Q859.7531,287.4059 860.3016,286.3793 Q860.8641,285.3387 861.8484,284.7902 Q862.8328,284.2277 863.9438,284.2277 Q864.6047,284.2277 865.1813,284.3824 Q865.7719,284.523 866.2641,284.8465 Z " fill="#000000"/><text fill="#000000" font-family="sans-serif" font-size="12.6" lengthAdjust="spacing" textLength="176.4" x="882.225" y="293.7762">CandidateNotificationController</text><line style="stroke:#181818;stroke-width:0.45;" x1="785.7" x2="1125.9" y1="302.959" y2="302.959"/><line style="stroke:#181818;stroke-width:0.45;" x1="785.7" x2="1125.9" y1="310.159" y2="310.159"/><ellipse cx="794.7" cy="323.4885" fill="#84BE84" rx="2.7" ry="2.7" style="stroke:#038048;stroke-width:0.9;"/><text fill="#000000" font-family="sans-serif" font-size="12.6" lengthAdjust="spacing" textLength="263.7" x="802.8" y="327.3557">sendEmail(body: String, phoneNumber: String)</text><ellipse cx="794.7" cy="340.2475" fill="#84BE84" rx="2.7" ry="2.7" style="stroke:#038048;stroke-width:0.9;"/><text fill="#000000" font-family="sans-serif" font-size="12.6" lengthAdjust="spacing" textLength="318.6" x="802.8" y="344.1146">getLoggedUserWithPermission(permission: String): User</text><ellipse cx="794.7" cy="357.0064" fill="#84BE84" rx="2.7" ry="2.7" style="stroke:#038048;stroke-width:0.9;"/><text fill="#000000" font-family="sans-serif" font-size="12.6" lengthAdjust="spacing" textLength="274.5" x="802.8" y="360.8736">findByNumber(phoneNumber: String): Candidate</text></g><!--class EmailNotificationHandler--><g id="elem_EmailNotificationHandler"><rect codeLine="19" fill="#F1F1F1" height="76.718" id="EmailNotificationHandler" rx="2.25" ry="2.25" style="stroke:#181818;stroke-width:0.45;" width="355.5" x="382.05" y="472.159"/><ellipse cx="487.575" cy="486.559" fill="#ADD1B2" rx="9.9" ry="9.9" style="stroke:#181818;stroke-width:0.9;"/><path d="M490.0641,482.8465 Q490.2047,482.6496 490.3734,482.5512 Q490.5422,482.4527 490.7391,482.4527 Q491.0766,482.4527 491.2875,482.6918 Q491.4984,482.9168 491.4984,483.4652 L491.4984,484.773 Q491.4984,485.3215 491.2875,485.5605 Q491.0766,485.7996 490.7391,485.7996 Q490.4297,485.7996 490.2469,485.6168 Q490.0641,485.448 489.9656,484.984 Q489.9234,484.6605 489.7547,484.4918 Q489.4594,484.1543 488.9109,483.9574 Q488.3625,483.7605 487.8,483.7605 Q487.1109,483.7605 486.5344,484.0559 Q485.9719,484.3512 485.5219,485.0262 Q485.0859,485.7012 485.0859,486.6293 L485.0859,487.6137 Q485.0859,488.7246 485.8875,489.4699 Q486.6891,490.2012 488.1234,490.2012 Q488.9672,490.2012 489.5578,489.9762 Q489.9094,489.8355 490.2891,489.4418 Q490.5281,489.2027 490.6547,489.1324 Q490.7953,489.0621 490.9781,489.0621 Q491.2734,489.0621 491.4984,489.3012 Q491.7375,489.5262 491.7375,489.8355 Q491.7375,490.1449 491.4281,490.5105 Q490.9781,491.0309 490.2609,491.3262 Q489.2906,491.734 488.1234,491.734 Q486.7594,491.734 485.6766,491.1715 Q484.7906,490.7215 484.1719,489.7652 Q483.5531,488.7949 483.5531,487.6418 L483.5531,486.6012 Q483.5531,485.4059 484.1016,484.3793 Q484.6641,483.3387 485.6484,482.7902 Q486.6328,482.2277 487.7438,482.2277 Q488.4047,482.2277 488.9813,482.3824 Q489.5719,482.523 490.0641,482.8465 Z " fill="#000000"/><text fill="#000000" font-family="sans-serif" font-size="12.6" lengthAdjust="spacing" textLength="136.8" x="506.025" y="491.7762">EmailNotificationHandler</text><line style="stroke:#181818;stroke-width:0.45;" x1="382.95" x2="736.65" y1="500.959" y2="500.959"/><line style="stroke:#181818;stroke-width:0.45;" x1="382.95" x2="736.65" y1="508.159" y2="508.159"/><ellipse cx="391.95" cy="521.4885" fill="#84BE84" rx="2.7" ry="2.7" style="stroke:#038048;stroke-width:0.9;"/><text fill="#000000" font-family="sans-serif" font-size="12.6" lengthAdjust="spacing" textLength="332.1" x="400.05" y="525.3557">sendEmail(candidate: Candidate, user: User, email: String)</text><ellipse cx="391.95" cy="538.2475" fill="#84BE84" rx="2.7" ry="2.7" style="stroke:#038048;stroke-width:0.9;"/><text fill="#000000" font-family="sans-serif" font-size="12.6" lengthAdjust="spacing" textLength="197.1" x="400.05" y="542.1146">establishConnectionAndSendInfo()</text></g><!--class FollowUpServer--><g id="elem_FollowUpServer"><rect codeLine="24" fill="#F1F1F1" height="43.2" id="FollowUpServer" rx="2.25" ry="2.25" style="stroke:#181818;stroke-width:0.45;" width="117.9" x="424.35" y="661.609"/><ellipse cx="437.85" cy="676.009" fill="#ADD1B2" rx="9.9" ry="9.9" style="stroke:#181818;stroke-width:0.9;"/><path d="M440.3391,672.2965 Q440.4797,672.0996 440.6484,672.0012 Q440.8172,671.9027 441.0141,671.9027 Q441.3516,671.9027 441.5625,672.1418 Q441.7734,672.3668 441.7734,672.9152 L441.7734,674.223 Q441.7734,674.7715 441.5625,675.0105 Q441.3516,675.2496 441.0141,675.2496 Q440.7047,675.2496 440.5219,675.0668 Q440.3391,674.898 440.2406,674.434 Q440.1984,674.1105 440.0297,673.9418 Q439.7344,673.6043 439.1859,673.4074 Q438.6375,673.2105 438.075,673.2105 Q437.3859,673.2105 436.8094,673.5059 Q436.2469,673.8012 435.7969,674.4762 Q435.3609,675.1512 435.3609,676.0793 L435.3609,677.0637 Q435.3609,678.1746 436.1625,678.9199 Q436.9641,679.6512 438.3984,679.6512 Q439.2422,679.6512 439.8328,679.4262 Q440.1844,679.2855 440.5641,678.8918 Q440.8031,678.6527 440.9297,678.5824 Q441.0703,678.5121 441.2531,678.5121 Q441.5484,678.5121 441.7734,678.7512 Q442.0125,678.9762 442.0125,679.2855 Q442.0125,679.5949 441.7031,679.9605 Q441.2531,680.4809 440.5359,680.7762 Q439.5656,681.184 438.3984,681.184 Q437.0344,681.184 435.9516,680.6215 Q435.0656,680.1715 434.4469,679.2152 Q433.8281,678.2449 433.8281,677.0918 L433.8281,676.0512 Q433.8281,674.8559 434.3766,673.8293 Q434.9391,672.7887 435.9234,672.2402 Q436.9078,671.6777 438.0188,671.6777 Q438.6797,671.6777 439.2563,671.8324 Q439.8469,671.973 440.3391,672.2965 Z " fill="#000000"/><text fill="#000000" font-family="sans-serif" font-size="12.6" lengthAdjust="spacing" textLength="89.1" x="450.45" y="681.2262">FollowUpServer</text><line style="stroke:#181818;stroke-width:0.45;" x1="425.25" x2="541.35" y1="690.409" y2="690.409"/><line style="stroke:#181818;stroke-width:0.45;" x1="425.25" x2="541.35" y1="697.609" y2="697.609"/></g><!--class AuthorizationService--><g id="elem_AuthorizationService"><rect codeLine="28" fill="#F1F1F1" height="59.959" id="AuthorizationService" rx="2.25" ry="2.25" style="stroke:#181818;stroke-width:0.45;" width="342" x="1098.9" y="480.259"/><ellipse cx="1208.025" cy="494.659" fill="#ADD1B2" rx="9.9" ry="9.9" style="stroke:#181818;stroke-width:0.9;"/><path d="M1210.5141,490.9465 Q1210.6547,490.7496 1210.8234,490.6512 Q1210.9922,490.5527 1211.1891,490.5527 Q1211.5266,490.5527 1211.7375,490.7918 Q1211.9484,491.0168 1211.9484,491.5652 L1211.9484,492.873 Q1211.9484,493.4215 1211.7375,493.6605 Q1211.5266,493.8996 1211.1891,493.8996 Q1210.8797,493.8996 1210.6969,493.7168 Q1210.5141,493.548 1210.4156,493.084 Q1210.3734,492.7605 1210.2047,492.5918 Q1209.9094,492.2543 1209.3609,492.0574 Q1208.8125,491.8605 1208.25,491.8605 Q1207.5609,491.8605 1206.9844,492.1559 Q1206.4219,492.4512 1205.9719,493.1262 Q1205.5359,493.8012 1205.5359,494.7293 L1205.5359,495.7137 Q1205.5359,496.8246 1206.3375,497.5699 Q1207.1391,498.3012 1208.5734,498.3012 Q1209.4172,498.3012 1210.0078,498.0762 Q1210.3594,497.9355 1210.7391,497.5418 Q1210.9781,497.3027 1211.1047,497.2324 Q1211.2453,497.1621 1211.4281,497.1621 Q1211.7234,497.1621 1211.9484,497.4012 Q1212.1875,497.6262 1212.1875,497.9355 Q1212.1875,498.2449 1211.8781,498.6105 Q1211.4281,499.1309 1210.7109,499.4262 Q1209.7406,499.834 1208.5734,499.834 Q1207.2094,499.834 1206.1266,499.2715 Q1205.2406,498.8215 1204.6219,497.8652 Q1204.0031,496.8949 1204.0031,495.7418 L1204.0031,494.7012 Q1204.0031,493.5059 1204.5516,492.4793 Q1205.1141,491.4387 1206.0984,490.8902 Q1207.0828,490.3277 1208.1938,490.3277 Q1208.8547,490.3277 1209.4313,490.4824 Q1210.0219,490.623 1210.5141,490.9465 Z " fill="#000000"/><text fill="#000000" font-family="sans-serif" font-size="12.6" lengthAdjust="spacing" textLength="116.1" x="1226.475" y="499.8762">AuthorizationService</text><line style="stroke:#181818;stroke-width:0.45;" x1="1099.8" x2="1440" y1="509.059" y2="509.059"/><line style="stroke:#181818;stroke-width:0.45;" x1="1099.8" x2="1440" y1="516.259" y2="516.259"/><ellipse cx="1108.8" cy="529.5885" fill="#84BE84" rx="2.7" ry="2.7" style="stroke:#038048;stroke-width:0.9;"/><text fill="#000000" font-family="sans-serif" font-size="12.6" lengthAdjust="spacing" textLength="318.6" x="1116.9" y="533.4557">getLoggedUserWithPermission(permission: String): User</text></g><!--class UserManagementService--><g id="elem_UserManagementService"><rect codeLine="32" fill="#F1F1F1" height="59.959" id="UserManagementService" rx="2.25" ry="2.25" style="stroke:#181818;stroke-width:0.45;" width="297.9" x="769.05" y="480.259"/><ellipse cx="843.075" cy="494.659" fill="#ADD1B2" rx="9.9" ry="9.9" style="stroke:#181818;stroke-width:0.9;"/><path d="M845.5641,490.9465 Q845.7047,490.7496 845.8734,490.6512 Q846.0422,490.5527 846.2391,490.5527 Q846.5766,490.5527 846.7875,490.7918 Q846.9984,491.0168 846.9984,491.5652 L846.9984,492.873 Q846.9984,493.4215 846.7875,493.6605 Q846.5766,493.8996 846.2391,493.8996 Q845.9297,493.8996 845.7469,493.7168 Q845.5641,493.548 845.4656,493.084 Q845.4234,492.7605 845.2547,492.5918 Q844.9594,492.2543 844.4109,492.0574 Q843.8625,491.8605 843.3,491.8605 Q842.6109,491.8605 842.0344,492.1559 Q841.4719,492.4512 841.0219,493.1262 Q840.5859,493.8012 840.5859,494.7293 L840.5859,495.7137 Q840.5859,496.8246 841.3875,497.5699 Q842.1891,498.3012 843.6234,498.3012 Q844.4672,498.3012 845.0578,498.0762 Q845.4094,497.9355 845.7891,497.5418 Q846.0281,497.3027 846.1547,497.2324 Q846.2953,497.1621 846.4781,497.1621 Q846.7734,497.1621 846.9984,497.4012 Q847.2375,497.6262 847.2375,497.9355 Q847.2375,498.2449 846.9281,498.6105 Q846.4781,499.1309 845.7609,499.4262 Q844.7906,499.834 843.6234,499.834 Q842.2594,499.834 841.1766,499.2715 Q840.2906,498.8215 839.6719,497.8652 Q839.0531,496.8949 839.0531,495.7418 L839.0531,494.7012 Q839.0531,493.5059 839.6016,492.4793 Q840.1641,491.4387 841.1484,490.8902 Q842.1328,490.3277 843.2438,490.3277 Q843.9047,490.3277 844.4813,490.4824 Q845.0719,490.623 845.5641,490.9465 Z " fill="#000000"/><text fill="#000000" font-family="sans-serif" font-size="12.6" lengthAdjust="spacing" textLength="142.2" x="861.525" y="499.8762">UserManagementService</text><line style="stroke:#181818;stroke-width:0.45;" x1="769.95" x2="1066.05" y1="509.059" y2="509.059"/><line style="stroke:#181818;stroke-width:0.45;" x1="769.95" x2="1066.05" y1="516.259" y2="516.259"/><ellipse cx="778.95" cy="529.5885" fill="#84BE84" rx="2.7" ry="2.7" style="stroke:#038048;stroke-width:0.9;"/><text fill="#000000" font-family="sans-serif" font-size="12.6" lengthAdjust="spacing" textLength="274.5" x="787.05" y="533.4557">findByNumber(phoneNumber: String): Candidate</text></g><!--class MessageDTO--><g id="elem_MessageDTO"><rect codeLine="36" fill="#F1F1F1" height="93.477" id="MessageDTO" rx="2.25" ry="2.25" style="stroke:#181818;stroke-width:0.45;" width="112.5" x="573.75" y="636.409"/><ellipse cx="589.68" cy="650.809" fill="#ADD1B2" rx="9.9" ry="9.9" style="stroke:#181818;stroke-width:0.9;"/><path d="M592.1691,647.0965 Q592.3097,646.8996 592.4784,646.8012 Q592.6472,646.7027 592.8441,646.7027 Q593.1816,646.7027 593.3925,646.9418 Q593.6034,647.1668 593.6034,647.7152 L593.6034,649.023 Q593.6034,649.5715 593.3925,649.8105 Q593.1816,650.0496 592.8441,650.0496 Q592.5347,650.0496 592.3519,649.8668 Q592.1691,649.698 592.0706,649.234 Q592.0284,648.9105 591.8597,648.7418 Q591.5644,648.4043 591.0159,648.2074 Q590.4675,648.0105 589.905,648.0105 Q589.2159,648.0105 588.6394,648.3059 Q588.0769,648.6012 587.6269,649.2762 Q587.1909,649.9512 587.1909,650.8793 L587.1909,651.8637 Q587.1909,652.9746 587.9925,653.7199 Q588.7941,654.4512 590.2284,654.4512 Q591.0722,654.4512 591.6628,654.2262 Q592.0144,654.0855 592.3941,653.6918 Q592.6331,653.4527 592.7597,653.3824 Q592.9003,653.3121 593.0831,653.3121 Q593.3784,653.3121 593.6034,653.5512 Q593.8425,653.7762 593.8425,654.0855 Q593.8425,654.3949 593.5331,654.7605 Q593.0831,655.2809 592.3659,655.5762 Q591.3956,655.984 590.2284,655.984 Q588.8644,655.984 587.7816,655.4215 Q586.8956,654.9715 586.2769,654.0152 Q585.6581,653.0449 585.6581,651.8918 L585.6581,650.8512 Q585.6581,649.6559 586.2066,648.6293 Q586.7691,647.5887 587.7534,647.0402 Q588.7378,646.4777 589.8488,646.4777 Q590.5097,646.4777 591.0863,646.6324 Q591.6769,646.773 592.1691,647.0965 Z " fill="#000000"/><text fill="#000000" font-family="sans-serif" font-size="12.6" lengthAdjust="spacing" textLength="78.3" x="602.82" y="656.0262">MessageDTO</text><line style="stroke:#181818;stroke-width:0.45;" x1="574.65" x2="685.35" y1="665.209" y2="665.209"/><ellipse cx="583.65" cy="678.5385" fill="none" rx="2.7" ry="2.7" style="stroke:#038048;stroke-width:0.9;"/><text fill="#000000" font-family="sans-serif" font-size="12.6" lengthAdjust="spacing" textLength="69.3" x="591.75" y="682.4057">data : String</text><text fill="#000000" font-family="sans-serif" font-size="12.6" lengthAdjust="spacing" textLength="3.6" x="591.75" y="699.1646">&#160;</text><ellipse cx="583.65" cy="712.0564" fill="none" rx="2.7" ry="2.7" style="stroke:#038048;stroke-width:0.9;"/><text fill="#000000" font-family="sans-serif" font-size="12.6" lengthAdjust="spacing" textLength="89.1" x="591.75" y="715.9236">getData : String</text><line style="stroke:#181818;stroke-width:0.45;" x1="574.65" x2="685.35" y1="722.6859" y2="722.6859"/></g><!--class SystemUser--><g id="elem_SystemUser"><rect codeLine="43" fill="#F1F1F1" height="210.7898" id="SystemUser" rx="2.25" ry="2.25" style="stroke:#181818;stroke-width:0.45;" width="162" x="1188.9" y="817.759"/><ellipse cx="1232.325" cy="832.159" fill="#ADD1B2" rx="9.9" ry="9.9" style="stroke:#181818;stroke-width:0.9;"/><path d="M1234.8141,828.4465 Q1234.9547,828.2496 1235.1234,828.1512 Q1235.2922,828.0527 1235.4891,828.0527 Q1235.8266,828.0527 1236.0375,828.2918 Q1236.2484,828.5168 1236.2484,829.0652 L1236.2484,830.373 Q1236.2484,830.9215 1236.0375,831.1605 Q1235.8266,831.3996 1235.4891,831.3996 Q1235.1797,831.3996 1234.9969,831.2168 Q1234.8141,831.048 1234.7156,830.584 Q1234.6734,830.2605 1234.5047,830.0918 Q1234.2094,829.7543 1233.6609,829.5574 Q1233.1125,829.3605 1232.55,829.3605 Q1231.8609,829.3605 1231.2844,829.6559 Q1230.7219,829.9512 1230.2719,830.6262 Q1229.8359,831.3012 1229.8359,832.2293 L1229.8359,833.2137 Q1229.8359,834.3246 1230.6375,835.0699 Q1231.4391,835.8012 1232.8734,835.8012 Q1233.7172,835.8012 1234.3078,835.5762 Q1234.6594,835.4355 1235.0391,835.0418 Q1235.2781,834.8027 1235.4047,834.7324 Q1235.5453,834.6621 1235.7281,834.6621 Q1236.0234,834.6621 1236.2484,834.9012 Q1236.4875,835.1262 1236.4875,835.4355 Q1236.4875,835.7449 1236.1781,836.1105 Q1235.7281,836.6309 1235.0109,836.9262 Q1234.0406,837.334 1232.8734,837.334 Q1231.5094,837.334 1230.4266,836.7715 Q1229.5406,836.3215 1228.9219,835.3652 Q1228.3031,834.3949 1228.3031,833.2418 L1228.3031,832.2012 Q1228.3031,831.0059 1228.8516,829.9793 Q1229.4141,828.9387 1230.3984,828.3902 Q1231.3828,827.8277 1232.4938,827.8277 Q1233.1547,827.8277 1233.7313,827.9824 Q1234.3219,828.123 1234.8141,828.4465 Z " fill="#000000"/><text fill="#000000" font-family="sans-serif" font-size="12.6" lengthAdjust="spacing" textLength="67.5" x="1250.775" y="837.3762">SystemUser</text><line style="stroke:#181818;stroke-width:0.45;" x1="1189.8" x2="1350" y1="846.559" y2="846.559"/><ellipse cx="1198.8" cy="859.8885" fill="none" rx="2.7" ry="2.7" style="stroke:#038048;stroke-width:0.9;"/><text fill="#000000" font-family="sans-serif" font-size="12.6" lengthAdjust="spacing" textLength="73.8" x="1206.9" y="863.7557">Long version</text><ellipse cx="1198.8" cy="876.6475" fill="none" rx="2.7" ry="2.7" style="stroke:#038048;stroke-width:0.9;"/><text fill="#000000" font-family="sans-serif" font-size="12.6" lengthAdjust="spacing" textLength="117.9" x="1206.9" y="880.5146">Username username</text><ellipse cx="1198.8" cy="893.4064" fill="none" rx="2.7" ry="2.7" style="stroke:#038048;stroke-width:0.9;"/><text fill="#000000" font-family="sans-serif" font-size="12.6" lengthAdjust="spacing" textLength="112.5" x="1206.9" y="897.2736">Password password</text><ellipse cx="1198.8" cy="910.1654" fill="none" rx="2.7" ry="2.7" style="stroke:#038048;stroke-width:0.9;"/><text fill="#000000" font-family="sans-serif" font-size="12.6" lengthAdjust="spacing" textLength="67.5" x="1206.9" y="914.0326">Name name</text><ellipse cx="1198.8" cy="926.9244" fill="none" rx="2.7" ry="2.7" style="stroke:#038048;stroke-width:0.9;"/><text fill="#000000" font-family="sans-serif" font-size="12.6" lengthAdjust="spacing" textLength="110.7" x="1206.9" y="930.7916">EmailAddress email</text><ellipse cx="1198.8" cy="943.6834" fill="none" rx="2.7" ry="2.7" style="stroke:#038048;stroke-width:0.9;"/><text fill="#000000" font-family="sans-serif" font-size="12.6" lengthAdjust="spacing" textLength="76.5" x="1206.9" y="947.5506">RoleSet roles</text><ellipse cx="1198.8" cy="960.4424" fill="none" rx="2.7" ry="2.7" style="stroke:#038048;stroke-width:0.9;"/><text fill="#000000" font-family="sans-serif" font-size="12.6" lengthAdjust="spacing" textLength="116.1" x="1206.9" y="964.3096">Calendar createdOn</text><ellipse cx="1198.8" cy="977.2014" fill="none" rx="2.7" ry="2.7" style="stroke:#038048;stroke-width:0.9;"/><text fill="#000000" font-family="sans-serif" font-size="12.6" lengthAdjust="spacing" textLength="82.8" x="1206.9" y="981.0686">boolean active</text><ellipse cx="1198.8" cy="993.9604" fill="none" rx="2.7" ry="2.7" style="stroke:#038048;stroke-width:0.9;"/><text fill="#000000" font-family="sans-serif" font-size="12.6" lengthAdjust="spacing" textLength="138.6" x="1206.9" y="997.8275">Calendar deactivatedOn</text><ellipse cx="1198.8" cy="1010.7193" fill="none" rx="2.7" ry="2.7" style="stroke:#038048;stroke-width:0.9;"/><text fill="#000000" font-family="sans-serif" font-size="12.6" lengthAdjust="spacing" textLength="101.7" x="1206.9" y="1014.5865">String resetToken</text><line style="stroke:#181818;stroke-width:0.45;" x1="1189.8" x2="1350" y1="1021.3488" y2="1021.3488"/></g><!--class PersistenceContext--><g id="elem_PersistenceContext"><rect codeLine="56" fill="#F1F1F1" height="59.959" id="PersistenceContext" rx="2.25" ry="2.25" style="stroke:#181818;stroke-width:0.45;" width="138.6" x="1172.7" y="290.809"/><ellipse cx="1186.2" cy="305.209" fill="#ADD1B2" rx="9.9" ry="9.9" style="stroke:#181818;stroke-width:0.9;"/><path d="M1188.6891,301.4965 Q1188.8297,301.2996 1188.9984,301.2012 Q1189.1672,301.1027 1189.3641,301.1027 Q1189.7016,301.1027 1189.9125,301.3418 Q1190.1234,301.5668 1190.1234,302.1152 L1190.1234,303.423 Q1190.1234,303.9715 1189.9125,304.2105 Q1189.7016,304.4496 1189.3641,304.4496 Q1189.0547,304.4496 1188.8719,304.2668 Q1188.6891,304.098 1188.5906,303.634 Q1188.5484,303.3105 1188.3797,303.1418 Q1188.0844,302.8043 1187.5359,302.6074 Q1186.9875,302.4105 1186.425,302.4105 Q1185.7359,302.4105 1185.1594,302.7059 Q1184.5969,303.0012 1184.1469,303.6762 Q1183.7109,304.3512 1183.7109,305.2793 L1183.7109,306.2637 Q1183.7109,307.3746 1184.5125,308.1199 Q1185.3141,308.8512 1186.7484,308.8512 Q1187.5922,308.8512 1188.1828,308.6262 Q1188.5344,308.4855 1188.9141,308.0918 Q1189.1531,307.8527 1189.2797,307.7824 Q1189.4203,307.7121 1189.6031,307.7121 Q1189.8984,307.7121 1190.1234,307.9512 Q1190.3625,308.1762 1190.3625,308.4855 Q1190.3625,308.7949 1190.0531,309.1605 Q1189.6031,309.6809 1188.8859,309.9762 Q1187.9156,310.384 1186.7484,310.384 Q1185.3844,310.384 1184.3016,309.8215 Q1183.4156,309.3715 1182.7969,308.4152 Q1182.1781,307.4449 1182.1781,306.2918 L1182.1781,305.2512 Q1182.1781,304.0559 1182.7266,303.0293 Q1183.2891,301.9887 1184.2734,301.4402 Q1185.2578,300.8777 1186.3688,300.8777 Q1187.0297,300.8777 1187.6063,301.0324 Q1188.1969,301.173 1188.6891,301.4965 Z " fill="#000000"/><text fill="#000000" font-family="sans-serif" font-size="12.6" lengthAdjust="spacing" textLength="109.8" x="1198.8" y="310.4262">PersistenceContext</text><line style="stroke:#181818;stroke-width:0.45;" x1="1173.6" x2="1310.4" y1="319.609" y2="319.609"/><line style="stroke:#181818;stroke-width:0.45;" x1="1173.6" x2="1310.4" y1="326.809" y2="326.809"/><ellipse cx="1182.6" cy="340.1385" fill="#84BE84" rx="2.7" ry="2.7" style="stroke:#038048;stroke-width:0.9;"/><text fill="#000000" font-family="sans-serif" font-size="12.6" lengthAdjust="spacing" textLength="75.6" x="1190.7" y="344.0057">repositories()</text></g><!--class RepositoryFactory--><g id="elem_RepositoryFactory"><rect codeLine="60" fill="#F1F1F1" height="160.5129" id="RepositoryFactory" rx="2.25" ry="2.25" style="stroke:#181818;stroke-width:0.45;" width="277.2" x="1350" y="240.859"/><ellipse cx="1432.575" cy="255.259" fill="#ADD1B2" rx="9.9" ry="9.9" style="stroke:#181818;stroke-width:0.9;"/><path d="M1435.0641,251.5465 Q1435.2047,251.3496 1435.3734,251.2512 Q1435.5422,251.1527 1435.7391,251.1527 Q1436.0766,251.1527 1436.2875,251.3918 Q1436.4984,251.6168 1436.4984,252.1652 L1436.4984,253.473 Q1436.4984,254.0215 1436.2875,254.2605 Q1436.0766,254.4996 1435.7391,254.4996 Q1435.4297,254.4996 1435.2469,254.3168 Q1435.0641,254.148 1434.9656,253.684 Q1434.9234,253.3605 1434.7547,253.1918 Q1434.4594,252.8543 1433.9109,252.6574 Q1433.3625,252.4605 1432.8,252.4605 Q1432.1109,252.4605 1431.5344,252.7559 Q1430.9719,253.0512 1430.5219,253.7262 Q1430.0859,254.4012 1430.0859,255.3293 L1430.0859,256.3137 Q1430.0859,257.4246 1430.8875,258.1699 Q1431.6891,258.9012 1433.1234,258.9012 Q1433.9672,258.9012 1434.5578,258.6762 Q1434.9094,258.5355 1435.2891,258.1418 Q1435.5281,257.9027 1435.6547,257.8324 Q1435.7953,257.7621 1435.9781,257.7621 Q1436.2734,257.7621 1436.4984,258.0012 Q1436.7375,258.2262 1436.7375,258.5355 Q1436.7375,258.8449 1436.4281,259.2105 Q1435.9781,259.7309 1435.2609,260.0262 Q1434.2906,260.434 1433.1234,260.434 Q1431.7594,260.434 1430.6766,259.8715 Q1429.7906,259.4215 1429.1719,258.4652 Q1428.5531,257.4949 1428.5531,256.3418 L1428.5531,255.3012 Q1428.5531,254.1059 1429.1016,253.0793 Q1429.6641,252.0387 1430.6484,251.4902 Q1431.6328,250.9277 1432.7438,250.9277 Q1433.4047,250.9277 1433.9813,251.0824 Q1434.5719,251.223 1435.0641,251.5465 Z " fill="#000000"/><text fill="#000000" font-family="sans-serif" font-size="12.6" lengthAdjust="spacing" textLength="104.4" x="1451.025" y="260.4762">RepositoryFactory</text><line style="stroke:#181818;stroke-width:0.45;" x1="1350.9" x2="1626.3" y1="269.659" y2="269.659"/><line style="stroke:#181818;stroke-width:0.45;" x1="1350.9" x2="1626.3" y1="276.859" y2="276.859"/><ellipse cx="1359.9" cy="290.1885" fill="#84BE84" rx="2.7" ry="2.7" style="stroke:#038048;stroke-width:0.9;"/><text fill="#000000" font-family="sans-serif" font-size="12.6" lengthAdjust="spacing" textLength="155.7" x="1368" y="294.0557">newTransactionalContext();</text><ellipse cx="1359.9" cy="306.9475" fill="#84BE84" rx="2.7" ry="2.7" style="stroke:#038048;stroke-width:0.9;"/><text fill="#000000" font-family="sans-serif" font-size="12.6" lengthAdjust="spacing" textLength="193.5" x="1368" y="310.8146">users(TransactionalContext var1);</text><ellipse cx="1359.9" cy="323.7064" fill="#84BE84" rx="2.7" ry="2.7" style="stroke:#038048;stroke-width:0.9;"/><text fill="#000000" font-family="sans-serif" font-size="12.6" lengthAdjust="spacing" textLength="44.1" x="1368" y="327.5736">users();</text><ellipse cx="1359.9" cy="340.4654" fill="#84BE84" rx="2.7" ry="2.7" style="stroke:#038048;stroke-width:0.9;"/><text fill="#000000" font-family="sans-serif" font-size="12.6" lengthAdjust="spacing" textLength="224.1" x="1368" y="344.3326">clientUsers(TransactionalContext var1);</text><ellipse cx="1359.9" cy="357.2244" fill="#84BE84" rx="2.7" ry="2.7" style="stroke:#038048;stroke-width:0.9;"/><text fill="#000000" font-family="sans-serif" font-size="12.6" lengthAdjust="spacing" textLength="74.7" x="1368" y="361.0916">clientUsers();</text><ellipse cx="1359.9" cy="373.9834" fill="#84BE84" rx="2.7" ry="2.7" style="stroke:#038048;stroke-width:0.9;"/><text fill="#000000" font-family="sans-serif" font-size="12.6" lengthAdjust="spacing" textLength="253.8" x="1368" y="377.8506">signupRequests(TransactionalContext var1);</text><ellipse cx="1359.9" cy="390.7424" fill="#84BE84" rx="2.7" ry="2.7" style="stroke:#038048;stroke-width:0.9;"/><text fill="#000000" font-family="sans-serif" font-size="12.6" lengthAdjust="spacing" textLength="104.4" x="1368" y="394.6096">signupRequests();</text></g><!--class UserRepository--><g id="elem_UserRepository"><rect codeLine="72" fill="#F1F1F1" height="93.477" id="UserRepository" rx="2.25" ry="2.25" style="stroke:#181818;stroke-width:0.45;" width="134.1" x="1202.85" y="636.409"/><ellipse cx="1224.45" cy="650.809" fill="#ADD1B2" rx="9.9" ry="9.9" style="stroke:#181818;stroke-width:0.9;"/><path d="M1226.9391,647.0965 Q1227.0797,646.8996 1227.2484,646.8012 Q1227.4172,646.7027 1227.6141,646.7027 Q1227.9516,646.7027 1228.1625,646.9418 Q1228.3734,647.1668 1228.3734,647.7152 L1228.3734,649.023 Q1228.3734,649.5715 1228.1625,649.8105 Q1227.9516,650.0496 1227.6141,650.0496 Q1227.3047,650.0496 1227.1219,649.8668 Q1226.9391,649.698 1226.8406,649.234 Q1226.7984,648.9105 1226.6297,648.7418 Q1226.3344,648.4043 1225.7859,648.2074 Q1225.2375,648.0105 1224.675,648.0105 Q1223.9859,648.0105 1223.4094,648.3059 Q1222.8469,648.6012 1222.3969,649.2762 Q1221.9609,649.9512 1221.9609,650.8793 L1221.9609,651.8637 Q1221.9609,652.9746 1222.7625,653.7199 Q1223.5641,654.4512 1224.9984,654.4512 Q1225.8422,654.4512 1226.4328,654.2262 Q1226.7844,654.0855 1227.1641,653.6918 Q1227.4031,653.4527 1227.5297,653.3824 Q1227.6703,653.3121 1227.8531,653.3121 Q1228.1484,653.3121 1228.3734,653.5512 Q1228.6125,653.7762 1228.6125,654.0855 Q1228.6125,654.3949 1228.3031,654.7605 Q1227.8531,655.2809 1227.1359,655.5762 Q1226.1656,655.984 1224.9984,655.984 Q1223.6344,655.984 1222.5516,655.4215 Q1221.6656,654.9715 1221.0469,654.0152 Q1220.4281,653.0449 1220.4281,651.8918 L1220.4281,650.8512 Q1220.4281,649.6559 1220.9766,648.6293 Q1221.5391,647.5887 1222.5234,647.0402 Q1223.5078,646.4777 1224.6188,646.4777 Q1225.2797,646.4777 1225.8563,646.6324 Q1226.4469,646.773 1226.9391,647.0965 Z " fill="#000000"/><text fill="#000000" font-family="sans-serif" font-size="12.6" lengthAdjust="spacing" textLength="87.3" x="1238.85" y="656.0262">UserRepository</text><line style="stroke:#181818;stroke-width:0.45;" x1="1203.75" x2="1336.05" y1="665.209" y2="665.209"/><line style="stroke:#181818;stroke-width:0.45;" x1="1203.75" x2="1336.05" y1="672.409" y2="672.409"/><ellipse cx="1212.75" cy="685.7385" fill="#84BE84" rx="2.7" ry="2.7" style="stroke:#038048;stroke-width:0.9;"/><text fill="#000000" font-family="sans-serif" font-size="12.6" lengthAdjust="spacing" textLength="110.7" x="1220.85" y="689.6057">findById(username)</text><ellipse cx="1212.75" cy="702.4975" fill="#84BE84" rx="2.7" ry="2.7" style="stroke:#038048;stroke-width:0.9;"/><text fill="#000000" font-family="sans-serif" font-size="12.6" lengthAdjust="spacing" textLength="77.4" x="1220.85" y="706.3646">findAllActive()</text><ellipse cx="1212.75" cy="719.2564" fill="#84BE84" rx="2.7" ry="2.7" style="stroke:#038048;stroke-width:0.9;"/><text fill="#000000" font-family="sans-serif" font-size="12.6" lengthAdjust="spacing" textLength="43.2" x="1220.85" y="723.1236">findAll()</text></g><!--class NotificationRepository--><g id="elem_NotificationRepository"><rect codeLine="78" fill="#F1F1F1" height="76.718" id="NotificationRepository" rx="2.25" ry="2.25" style="stroke:#181818;stroke-width:0.45;" width="152.1" x="1536.75" y="472.159"/><ellipse cx="1550.25" cy="486.559" fill="#ADD1B2" rx="9.9" ry="9.9" style="stroke:#181818;stroke-width:0.9;"/><path d="M1552.7391,482.8465 Q1552.8797,482.6496 1553.0484,482.5512 Q1553.2172,482.4527 1553.4141,482.4527 Q1553.7516,482.4527 1553.9625,482.6918 Q1554.1734,482.9168 1554.1734,483.4652 L1554.1734,484.773 Q1554.1734,485.3215 1553.9625,485.5605 Q1553.7516,485.7996 1553.4141,485.7996 Q1553.1047,485.7996 1552.9219,485.6168 Q1552.7391,485.448 1552.6406,484.984 Q1552.5984,484.6605 1552.4297,484.4918 Q1552.1344,484.1543 1551.5859,483.9574 Q1551.0375,483.7605 1550.475,483.7605 Q1549.7859,483.7605 1549.2094,484.0559 Q1548.6469,484.3512 1548.1969,485.0262 Q1547.7609,485.7012 1547.7609,486.6293 L1547.7609,487.6137 Q1547.7609,488.7246 1548.5625,489.4699 Q1549.3641,490.2012 1550.7984,490.2012 Q1551.6422,490.2012 1552.2328,489.9762 Q1552.5844,489.8355 1552.9641,489.4418 Q1553.2031,489.2027 1553.3297,489.1324 Q1553.4703,489.0621 1553.6531,489.0621 Q1553.9484,489.0621 1554.1734,489.3012 Q1554.4125,489.5262 1554.4125,489.8355 Q1554.4125,490.1449 1554.1031,490.5105 Q1553.6531,491.0309 1552.9359,491.3262 Q1551.9656,491.734 1550.7984,491.734 Q1549.4344,491.734 1548.3516,491.1715 Q1547.4656,490.7215 1546.8469,489.7652 Q1546.2281,488.7949 1546.2281,487.6418 L1546.2281,486.6012 Q1546.2281,485.4059 1546.7766,484.3793 Q1547.3391,483.3387 1548.3234,482.7902 Q1549.3078,482.2277 1550.4188,482.2277 Q1551.0797,482.2277 1551.6563,482.3824 Q1552.2469,482.523 1552.7391,482.8465 Z " fill="#000000"/><text fill="#000000" font-family="sans-serif" font-size="12.6" lengthAdjust="spacing" textLength="123.3" x="1562.85" y="491.7762">NotificationRepository</text><line style="stroke:#181818;stroke-width:0.45;" x1="1537.65" x2="1687.95" y1="500.959" y2="500.959"/><line style="stroke:#181818;stroke-width:0.45;" x1="1537.65" x2="1687.95" y1="508.159" y2="508.159"/><ellipse cx="1546.65" cy="521.4885" fill="#84BE84" rx="2.7" ry="2.7" style="stroke:#038048;stroke-width:0.9;"/><text fill="#000000" font-family="sans-serif" font-size="12.6" lengthAdjust="spacing" textLength="63.9" x="1554.75" y="525.3557">findById(id)</text><ellipse cx="1546.65" cy="538.2475" fill="#84BE84" rx="2.7" ry="2.7" style="stroke:#038048;stroke-width:0.9;"/><text fill="#000000" font-family="sans-serif" font-size="12.6" lengthAdjust="spacing" textLength="43.2" x="1554.75" y="542.1146">findAll()</text></g><!--class Notification--><g id="elem_Notification"><rect codeLine="83" fill="#F1F1F1" height="126.9949" id="Notification" rx="2.25" ry="2.25" style="stroke:#181818;stroke-width:0.45;" width="204.3" x="1510.65" y="619.759"/><ellipse cx="1577.925" cy="634.159" fill="#ADD1B2" rx="9.9" ry="9.9" style="stroke:#181818;stroke-width:0.9;"/><path d="M1580.4141,630.4465 Q1580.5547,630.2496 1580.7234,630.1512 Q1580.8922,630.0527 1581.0891,630.0527 Q1581.4266,630.0527 1581.6375,630.2918 Q1581.8484,630.5168 1581.8484,631.0652 L1581.8484,632.373 Q1581.8484,632.9215 1581.6375,633.1605 Q1581.4266,633.3996 1581.0891,633.3996 Q1580.7797,633.3996 1580.5969,633.2168 Q1580.4141,633.048 1580.3156,632.584 Q1580.2734,632.2605 1580.1047,632.0918 Q1579.8094,631.7543 1579.2609,631.5574 Q1578.7125,631.3605 1578.15,631.3605 Q1577.4609,631.3605 1576.8844,631.6559 Q1576.3219,631.9512 1575.8719,632.6262 Q1575.4359,633.3012 1575.4359,634.2293 L1575.4359,635.2137 Q1575.4359,636.3246 1576.2375,637.0699 Q1577.0391,637.8012 1578.4734,637.8012 Q1579.3172,637.8012 1579.9078,637.5762 Q1580.2594,637.4355 1580.6391,637.0418 Q1580.8781,636.8027 1581.0047,636.7324 Q1581.1453,636.6621 1581.3281,636.6621 Q1581.6234,636.6621 1581.8484,636.9012 Q1582.0875,637.1262 1582.0875,637.4355 Q1582.0875,637.7449 1581.7781,638.1105 Q1581.3281,638.6309 1580.6109,638.9262 Q1579.6406,639.334 1578.4734,639.334 Q1577.1094,639.334 1576.0266,638.7715 Q1575.1406,638.3215 1574.5219,637.3652 Q1573.9031,636.3949 1573.9031,635.2418 L1573.9031,634.2012 Q1573.9031,633.0059 1574.4516,631.9793 Q1575.0141,630.9387 1575.9984,630.3902 Q1576.9828,629.8277 1578.0938,629.8277 Q1578.7547,629.8277 1579.3313,629.9824 Q1579.9219,630.123 1580.4141,630.4465 Z " fill="#000000"/><text fill="#000000" font-family="sans-serif" font-size="12.6" lengthAdjust="spacing" textLength="62.1" x="1596.375" y="639.3762">Notification</text><line style="stroke:#181818;stroke-width:0.45;" x1="1511.55" x2="1714.05" y1="648.559" y2="648.559"/><rect fill="none" height="5.4" style="stroke:#C82930;stroke-width:0.9;" width="5.4" x="1517.85" y="659.1885"/><text fill="#000000" font-family="sans-serif" font-size="12.6" lengthAdjust="spacing" textLength="134.1" x="1528.65" y="665.7557">candidate : SystemUser</text><rect fill="none" height="5.4" style="stroke:#C82930;stroke-width:0.9;" width="5.4" x="1517.85" y="675.9475"/><text fill="#000000" font-family="sans-serif" font-size="12.6" lengthAdjust="spacing" textLength="180.9" x="1528.65" y="682.5146">customerManager : SystemUser</text><rect fill="none" height="5.4" style="stroke:#C82930;stroke-width:0.9;" width="5.4" x="1517.85" y="692.7064"/><text fill="#000000" font-family="sans-serif" font-size="12.6" lengthAdjust="spacing" textLength="156.6" x="1528.65" y="699.2736">notifState : NotificationState</text><rect fill="none" height="5.4" style="stroke:#C82930;stroke-width:0.9;" width="5.4" x="1517.85" y="709.4654"/><text fill="#000000" font-family="sans-serif" font-size="12.6" lengthAdjust="spacing" textLength="180.9" x="1528.65" y="716.0326">notifInfo : NotificationInformation</text><rect fill="none" height="5.4" style="stroke:#C82930;stroke-width:0.9;" width="5.4" x="1517.85" y="726.2244"/><text fill="#000000" font-family="sans-serif" font-size="12.6" lengthAdjust="spacing" textLength="146.7" x="1528.65" y="732.7916">createdOn : CreationDate</text><line style="stroke:#181818;stroke-width:0.45;" x1="1511.55" x2="1714.05" y1="739.5539" y2="739.5539"/></g><g id="elem_GMN15"><path d="M5.4,655.309 L5.4,710.9947 A0,0 0 0 0 5.4,710.9947 L392.4,710.9947 A0,0 0 0 0 392.4,710.9947 L392.4,686.809 L424.053,683.209 L392.4,679.609 L392.4,664.309 L383.4,655.309 L5.4,655.309 A0,0 0 0 0 5.4,655.309 " fill="#FEFFDD" style="stroke:#181818;stroke-width:0.45;"/><path d="M383.4,655.309 L383.4,664.309 L392.4,664.309 L383.4,655.309 " fill="#FEFFDD" style="stroke:#181818;stroke-width:0.45;"/><text fill="#000000" font-family="sans-serif" font-size="11.7" lengthAdjust="spacing" textLength="3.6" x="10.8" y="672.4345">&#160;</text><text fill="#000000" font-family="sans-serif" font-size="11.7" lengthAdjust="spacing" textLength="368.1" x="10.8" y="687.9964">The behaviour of the server is outside of Customer Manager App Scope</text><text fill="#000000" font-family="sans-serif" font-size="11.7" lengthAdjust="spacing" textLength="3.6" x="10.8" y="703.5583">&#160;</text></g><!--link CandidateNotificationController to PersistenceContext--><g id="link_CandidateNotificationController_PersistenceContext"><path codeLine="102" d="M1126.845,320.959 C1141.992,320.959 1151.739,320.959 1166.877,320.959 " fill="none" id="CandidateNotificationController-to-PersistenceContext" style="stroke:#181818;stroke-width:0.9;stroke-dasharray:7.0,7.0;"/><polygon fill="#181818" points="1172.277,320.959,1164.177,317.359,1167.777,320.959,1164.177,324.559,1172.277,320.959" style="stroke:#181818;stroke-width:0.9;"/></g><!--link PersistenceContext to RepositoryFactory--><g id="link_PersistenceContext_RepositoryFactory"><path codeLine="103" d="M1311.354,320.959 C1324.161,320.959 1331.577,320.959 1344.384,320.959 " fill="none" id="PersistenceContext-to-RepositoryFactory" style="stroke:#181818;stroke-width:0.9;"/><polygon fill="#181818" points="1349.784,320.959,1341.684,317.359,1345.284,320.959,1341.684,324.559,1349.784,320.959" style="stroke:#181818;stroke-width:0.9;"/></g><!--link RepositoryFactory to UserRepository--><g id="link_RepositoryFactory_UserRepository"><path codeLine="104" d="M1492.65,401.275 C1491.48,447.319 1483.713,504.703 1457.1,548.659 C1429.182,594.775 1383.397,626.8474 1341.871,649.3024 " fill="none" id="RepositoryFactory-to-UserRepository" style="stroke:#181818;stroke-width:0.9;stroke-dasharray:7.0,7.0;"/><polygon fill="#181818" points="1337.121,651.871,1345.9584,651.1848,1341.0793,649.7305,1342.5336,644.8515,1337.121,651.871" style="stroke:#181818;stroke-width:0.9;"/></g><!--link RepositoryFactory to NotificationRepository--><g id="link_RepositoryFactory_NotificationRepository"><path codeLine="105" d="M1541.088,401.167 C1557.378,425.773 1571.5873,447.2441 1585.0513,467.5841 " fill="none" id="RepositoryFactory-to-NotificationRepository" style="stroke:#181818;stroke-width:0.9;stroke-dasharray:7.0,7.0;"/><polygon fill="#181818" points="1588.032,472.087,1586.5629,463.3456,1585.5481,468.3346,1580.5591,467.3198,1588.032,472.087" style="stroke:#181818;stroke-width:0.9;"/></g><!--link CandidateNotificationUI to CandidateNotificationController--><g id="link_CandidateNotificationUI_CandidateNotificationController"><path codeLine="106" d="M955.8,186.049 C955.8,215.218 955.8,248.14 955.8,274.051 " fill="none" id="CandidateNotificationUI-CandidateNotificationController" style="stroke:#181818;stroke-width:0.9;"/></g><!--link CandidateNotificationController to EmailNotificationHandler--><g id="link_CandidateNotificationController_EmailNotificationHandler"><path codeLine="107" d="M858.924,367.759 C791.262,399.826 702.063,442.09 638.73,472.105 " fill="none" id="CandidateNotificationController-EmailNotificationHandler" style="stroke:#181818;stroke-width:0.9;stroke-dasharray:7.0,7.0;"/><text fill="#000000" font-family="sans-serif" font-size="11.7" lengthAdjust="spacing" textLength="139.5" x="723.6" y="441.5845">delegates email sending to</text></g><!--link EmailNotificationHandler to FollowUpServer--><g id="link_EmailNotificationHandler_FollowUpServer"><path codeLine="108" d="M503.892,548.74 C495.927,556.642 488.871,565.669 484.2,575.659 C471.348,603.172 474.597,639.199 478.584,661.546 " fill="none" id="EmailNotificationHandler-FollowUpServer" style="stroke:#181818;stroke-width:0.9;stroke-dasharray:7.0,7.0;"/><text fill="#000000" font-family="sans-serif" font-size="11.7" lengthAdjust="spacing" textLength="101.7" x="485.1" y="589.1845">uses for connection</text></g><!--link EmailNotificationHandler to MessageDTO--><g id="link_EmailNotificationHandler_MessageDTO"><path codeLine="109" d="M581.76,548.848 C586.404,557.506 591.057,566.785 594.9,575.659 C603.306,595.063 610.893,617.185 616.842,636.22 " fill="none" id="EmailNotificationHandler-MessageDTO" style="stroke:#181818;stroke-width:0.9;stroke-dasharray:7.0,7.0;"/><text fill="#000000" font-family="sans-serif" font-size="11.7" lengthAdjust="spacing" textLength="172.8" x="603" y="589.1845">container for server data transfers</text></g><!--link CandidateNotificationController to AuthorizationService--><g id="link_CandidateNotificationController_AuthorizationService"><path codeLine="110" d="M1032.642,367.759 C1091.304,402.814 1170.378,450.046 1220.76,480.151 " fill="none" id="CandidateNotificationController-AuthorizationService" style="stroke:#181818;stroke-width:0.9;stroke-dasharray:7.0,7.0;"/><text fill="#000000" font-family="sans-serif" font-size="11.7" lengthAdjust="spacing" textLength="175.5" x="1160.1" y="441.5845">gets customer manager data from</text></g><!--link CandidateNotificationController to UserManagementService--><g id="link_CandidateNotificationController_UserManagementService"><path codeLine="111" d="M946.557,367.759 C939.492,402.814 929.979,450.046 923.913,480.151 " fill="none" id="CandidateNotificationController-UserManagementService" style="stroke:#181818;stroke-width:0.9;stroke-dasharray:7.0,7.0;"/><text fill="#000000" font-family="sans-serif" font-size="11.7" lengthAdjust="spacing" textLength="149.4" x="935.1" y="441.5845">retrieves candidate data from</text></g><!--link UserManagementService to UserRepository--><g id="link_UserManagementService_UserRepository"><path codeLine="112" d="M978.498,540.703 C1040.886,571.024 1133.1031,615.8327 1197.8491,647.2967 " fill="none" id="UserManagementService-to-UserRepository" style="stroke:#181818;stroke-width:0.9;stroke-dasharray:7.0,7.0;"/><polygon fill="#181818" points="1202.706,649.657,1196.9942,642.8787,1198.6586,647.6901,1193.8472,649.3545,1202.706,649.657" style="stroke:#181818;stroke-width:0.9;"/></g><!--link AuthorizationService to UserRepository--><g id="link_AuthorizationService_UserRepository"><path codeLine="113" d="M1269.9,540.703 C1269.9,566.965 1269.9,600.463 1269.9,630.856 " fill="none" id="AuthorizationService-to-UserRepository" style="stroke:#181818;stroke-width:0.9;stroke-dasharray:7.0,7.0;"/><polygon fill="#181818" points="1269.9,636.256,1273.5,628.156,1269.9,631.756,1266.3,628.156,1269.9,636.256" style="stroke:#181818;stroke-width:0.9;"/></g><!--link UserRepository to SystemUser--><g id="link_UserRepository_SystemUser"><path codeLine="114" d="M1269.9,730.288 C1269.9,755.236 1269.9,781.714 1269.9,812.296 " fill="none" id="UserRepository-to-SystemUser" style="stroke:#181818;stroke-width:0.9;stroke-dasharray:7.0,7.0;"/><polygon fill="#181818" points="1269.9,817.696,1273.5,809.596,1269.9,813.196,1266.3,809.596,1269.9,817.696" style="stroke:#181818;stroke-width:0.9;"/><text fill="#000000" font-family="sans-serif" font-size="11.7" lengthAdjust="spacing" textLength="32.4" x="1270.8" y="787.1845">stores</text></g><!--link NotificationRepository to Notification--><g id="link_NotificationRepository_Notification"><path codeLine="115" d="M1612.8,548.839 C1612.8,569.584 1612.8,590.491 1612.8,614.269 " fill="none" id="NotificationRepository-to-Notification" style="stroke:#181818;stroke-width:0.9;stroke-dasharray:7.0,7.0;"/><polygon fill="#181818" points="1612.8,619.669,1616.4,611.569,1612.8,615.169,1609.2,611.569,1612.8,619.669" style="stroke:#181818;stroke-width:0.9;"/><text fill="#000000" font-family="sans-serif" font-size="11.7" lengthAdjust="spacing" textLength="32.4" x="1613.7" y="589.1845">stores</text></g><!--SRC=[dLR9Rjim4BthA-Re877GN7fmWGAkqw01iY6oqJCjZcMY4gcIb5EtwBztI4dKOZbnuukbMTxiCxB2PWYh-Eh3rKTOPCmOk1OirIoFeYZnxmickU3CueEoOYCIPeMIgrlu4m7zpZN-BD5OirIUlm_YaxDAW0jJP6nl0iFCTqnaR9q5aGRZQqwCMxbHElTM6hwGHLbp5qfQb7QoLdm_WzXg8TDQog3aNgR7l81YgoG-bFaQzK2ZTksnGEtjnMMIe35azk-hqJidjCeor4qM_jzsYlPEfIdobK7zNTZj4-fS6EF2Bi9ZK9g1awjKDqBoB_iATJ9cOTQwtKRYtUj6yOraHaD86kKEpWMKnbbmNbm0Ehb1G5H0ggamMygEnCHPc4iU4wghQ3UdDvGwzR8gOjGxRxzbpKkxLLhyhif1V95Wu-3xCXQWtTizaop5d1feWFs-bDvJin3UzVAnXY4sWqOd2cvVzyb1FzuRYxbphFR3AzmfcG8bnaNJKfsKP3dwEhY7blL4M2zASoZgXvRru3Jwqhx6SyurELyLikKzgmnZj43DZQObBrX6PMGQ4esK0FxOyMkjI9P9O5Jn7OxeSFIieLwL320lq2xL3snP8JrFBWUK8PcW7_jVDkoSGXbXgL6mDwpF3Nr_GpRfZrhhNEBBKZDfc6z9bjLGaxDF5PXFg9cCoS2EwQk1N7XDCa5zj3fHkIiTY4QaiYoUw-rt0if0WUXHBsCElqr2hxTl-QJfdBEMFi-okI_Sf4_iPhMxCuw32tuQGgKt3Jl6pKKOWvfN6gloPbhrY8HqWB6jrBledjQHSQjd8DAvBxMvfgb9SE6UYNFjOFoaqe-G43BSM52RmVAAekKMOOrRjXEgr4x04i5KcqqOK7Iu14V7MDHXGHFNl2WWJbH1bcXKm9c9ehSEpgKMwTPEFuzCHtH80X8yc8heW0AN9DTldYD2uyqG7Vj8c4xVkg1l1pmzVhfcj5qoJDr7HRNAm5qnjrUiYevg4UBW1CtSS1kWne0aNAzN0ThLJygaOvcGn748TV7zBR1kf3TKbbF273r-Cw03Og2P2SZhvl7m6wtoKv37Rz-CjYzjOTnHwEqyji3ZMYEjCkhuY5p_rKjqJk0CA4Iw1z5uZnsqNr3u1m00]--></g></svg>