<?xml version="1.0" encoding="us-ascii" standalone="no"?><svg xmlns="http://www.w3.org/2000/svg" xmlns:xlink="http://www.w3.org/1999/xlink" contentStyleType="text/css" height="618.8px" preserveAspectRatio="none" style="width:730px;height:618px;background:#FFFFFF;" version="1.1" viewBox="0 0 730 618" width="730.1px" zoomAndPan="magnify"><defs/><g><!--cluster NotificationAggregate--><g id="cluster_NotificationAggregate"><path d="M5.95,289.1096 L113.75,289.1096 A2.625,2.625 0 0 1 115.5,290.8596 L120.4,306.3443 L263.55,306.3443 A1.75,1.75 0 0 1 265.3,308.0943 L265.3,469.3596 A1.75,1.75 0 0 1 263.55,471.1096 L5.95,471.1096 A1.75,1.75 0 0 1 4.2,469.3596 L4.2,290.8596 A1.75,1.75 0 0 1 5.95,289.1096 " fill="none" style="stroke:#000000;stroke-width:1.0499999999999998;"/><line style="stroke:#000000;stroke-width:1.0499999999999998;" x1="4.2" x2="120.4" y1="306.3443" y2="306.3443"/><text fill="#000000" font-family="sans-serif" font-size="9.8" font-weight="bold" lengthAdjust="spacing" textLength="107.1" x="7" y="301.0848">NotificationAggregate</text></g><!--cluster UserAggregate--><g id="cluster_UserAggregate"><path d="M283.85,4.2096 L358.75,4.2096 A2.625,2.625 0 0 1 360.5,5.9596 L365.4,21.4443 L723.45,21.4443 A1.75,1.75 0 0 1 725.2,23.1943 L725.2,612.1596 A1.75,1.75 0 0 1 723.45,613.9096 L283.85,613.9096 A1.75,1.75 0 0 1 282.1,612.1596 L282.1,5.9596 A1.75,1.75 0 0 1 283.85,4.2096 " fill="none" style="stroke:#000000;stroke-width:1.0499999999999998;"/><line style="stroke:#000000;stroke-width:1.0499999999999998;" x1="282.1" x2="365.4" y1="21.4443" y2="21.4443"/><text fill="#000000" font-family="sans-serif" font-size="9.8" font-weight="bold" lengthAdjust="spacing" textLength="74.2" x="284.9" y="16.1848">UserAggregate</text></g><!--class Notification--><g id="elem_Notification"><rect codeLine="4" fill="#F1F1F1" height="46.6348" id="Notification" rx="1.75" ry="1.75" style="stroke:#181818;stroke-width:0.3499999999999999;" width="70.7" x="15.75" y="315.0096"/><ellipse cx="26.25" cy="326.2096" fill="#ADD1B2" rx="7.7" ry="7.7" style="stroke:#181818;stroke-width:0.6999999999999998;"/><path d="M25.4516,326.7674 L25.4516,328.5174 L28.4812,328.5174 L28.4812,327.8721 Q28.4812,327.4455 28.6453,327.2596 Q28.8203,327.0736 29.0828,327.0736 Q29.3453,327.0736 29.5094,327.2596 Q29.6734,327.4455 29.6734,327.8721 L29.6734,329.7096 L24.0734,329.7096 Q23.6359,329.7096 23.45,329.5455 Q23.275,329.3814 23.275,329.108 Q23.275,328.8455 23.4609,328.6814 Q23.6469,328.5174 24.0734,328.5174 L24.2594,328.5174 L24.2594,323.858 L24.0734,323.858 Q23.6359,323.858 23.45,323.6939 Q23.275,323.5299 23.275,323.2564 Q23.275,322.9939 23.45,322.8299 Q23.6359,322.6658 24.0734,322.6658 L29.4109,322.6658 L29.4109,324.4814 Q29.4109,324.908 29.2469,325.0939 Q29.0937,325.2689 28.8203,325.2689 Q28.5578,325.2689 28.3937,325.0939 Q28.2297,324.908 28.2297,324.4814 L28.2297,323.858 L25.4516,323.858 L25.4516,325.5752 L26.4906,325.5752 Q26.4906,325.1158 26.5781,324.9846 Q26.7641,324.7002 27.0922,324.7002 Q27.3547,324.7002 27.5187,324.8861 Q27.6828,325.0611 27.6828,325.4877 L27.6828,326.8658 Q27.6828,327.2486 27.5953,327.3799 Q27.4094,327.6533 27.0922,327.6533 Q26.7641,327.6533 26.5781,327.3689 Q26.4906,327.2377 26.4906,326.7674 L25.4516,326.7674 Z " fill="#000000"/><text fill="#000000" font-family="sans-serif" font-size="9.8" lengthAdjust="spacing" textLength="48.3" x="36.05" y="330.2674">Notification</text><line style="stroke:#181818;stroke-width:0.3499999999999999;" x1="16.45" x2="85.75" y1="337.4096" y2="337.4096"/><text fill="#000000" font-family="sans-serif" font-size="9.8" lengthAdjust="spacing" textLength="55.3" x="19.95" y="350.7848">&#171;root entity&#187;</text><line style="stroke:#181818;stroke-width:0.3499999999999999;" x1="16.45" x2="85.75" y1="356.0443" y2="356.0443"/></g><!--class NotificationType--><g id="elem_NotificationType"><rect codeLine="7" fill="#F1F1F1" height="42.4074" id="NotificationType" rx="1.75" ry="1.75" style="stroke:#181818;stroke-width:0.3499999999999999;" width="93.1" x="160.65" y="317.1096"/><ellipse cx="171.15" cy="332.7133" fill="#F04800" rx="7.7" ry="7.7" style="stroke:#181818;stroke-width:0.6999999999999998;"/><path d="M171.5656,334.9992 L173.2937,330.8867 L173.0203,330.8867 Q172.5937,330.8867 172.4078,330.7227 Q172.2219,330.5586 172.2219,330.2852 Q172.2219,330.0227 172.4078,329.8586 Q172.5937,329.6945 173.0203,329.6945 L174.6172,329.6945 Q175.0437,329.6945 175.2297,329.8586 Q175.4156,330.0227 175.4156,330.2852 Q175.4156,330.6133 175.1312,330.7992 Q175,330.8867 174.5844,330.8867 L172.1453,336.7383 L170.9969,336.7383 L168.5578,330.8867 Q168.1422,330.8867 168.0109,330.7992 Q167.7266,330.6133 167.7266,330.2852 Q167.7266,330.0227 167.9125,329.8586 Q168.0984,329.6945 168.525,329.6945 L170.1328,329.6945 Q170.5594,329.6945 170.7344,329.8586 Q170.9203,330.0227 170.9203,330.2852 Q170.9203,330.5586 170.7344,330.7227 Q170.5594,330.8867 170.1328,330.8867 L169.8484,330.8867 L171.5656,334.9992 Z " fill="#000000"/><text fill="#000000" font-family="sans-serif" font-size="8.4" font-style="italic" lengthAdjust="spacing" textLength="58.1" x="187.25" y="329.674">&#171;value Object&#187;</text><text fill="#000000" font-family="sans-serif" font-size="9.8" lengthAdjust="spacing" textLength="70.7" x="180.95" y="342.3574">NotificationType</text><line style="stroke:#181818;stroke-width:0.3499999999999999;" x1="161.35" x2="253.05" y1="348.317" y2="348.317"/><line style="stroke:#181818;stroke-width:0.3499999999999999;" x1="161.35" x2="253.05" y1="353.917" y2="353.917"/></g><!--class CreationDate--><g id="elem_CreationDate"><rect codeLine="8" fill="#F1F1F1" height="42.4074" id="CreationDate" rx="1.75" ry="1.75" style="stroke:#181818;stroke-width:0.3499999999999999;" width="81.2" x="15.4" y="417.2096"/><ellipse cx="25.9" cy="432.8133" fill="#F04800" rx="7.7" ry="7.7" style="stroke:#181818;stroke-width:0.6999999999999998;"/><path d="M26.3156,435.0992 L28.0437,430.9867 L27.7703,430.9867 Q27.3437,430.9867 27.1578,430.8227 Q26.9719,430.6586 26.9719,430.3852 Q26.9719,430.1227 27.1578,429.9586 Q27.3437,429.7945 27.7703,429.7945 L29.3672,429.7945 Q29.7937,429.7945 29.9797,429.9586 Q30.1656,430.1227 30.1656,430.3852 Q30.1656,430.7133 29.8812,430.8992 Q29.75,430.9867 29.3344,430.9867 L26.8953,436.8383 L25.7469,436.8383 L23.3078,430.9867 Q22.8922,430.9867 22.7609,430.8992 Q22.4766,430.7133 22.4766,430.3852 Q22.4766,430.1227 22.6625,429.9586 Q22.8484,429.7945 23.275,429.7945 L24.8828,429.7945 Q25.3094,429.7945 25.4844,429.9586 Q25.6703,430.1227 25.6703,430.3852 Q25.6703,430.6586 25.4844,430.8227 Q25.3094,430.9867 24.8828,430.9867 L24.5984,430.9867 L26.3156,435.0992 Z " fill="#000000"/><text fill="#000000" font-family="sans-serif" font-size="8.4" font-style="italic" lengthAdjust="spacing" textLength="58.1" x="36.05" y="429.774">&#171;value Object&#187;</text><text fill="#000000" font-family="sans-serif" font-size="9.8" lengthAdjust="spacing" textLength="58.8" x="35.7" y="442.4574">CreationDate</text><line style="stroke:#181818;stroke-width:0.3499999999999999;" x1="16.1" x2="95.9" y1="448.417" y2="448.417"/><line style="stroke:#181818;stroke-width:0.3499999999999999;" x1="16.1" x2="95.9" y1="454.017" y2="454.017"/></g><!--class LanguageEngineer--><g id="elem_LanguageEngineer"><rect codeLine="13" fill="#F1F1F1" height="46.6348" id="LanguageEngineer" rx="1.75" ry="1.75" style="stroke:#181818;stroke-width:0.3499999999999999;" width="107.1" x="528.15" y="209.3096"/><ellipse cx="538.65" cy="220.5096" fill="#ADD1B2" rx="7.7" ry="7.7" style="stroke:#181818;stroke-width:0.6999999999999998;"/><path d="M537.8516,221.0674 L537.8516,222.8174 L540.8812,222.8174 L540.8812,222.1721 Q540.8812,221.7455 541.0453,221.5596 Q541.2203,221.3736 541.4828,221.3736 Q541.7453,221.3736 541.9094,221.5596 Q542.0734,221.7455 542.0734,222.1721 L542.0734,224.0096 L536.4734,224.0096 Q536.0359,224.0096 535.85,223.8455 Q535.675,223.6814 535.675,223.408 Q535.675,223.1455 535.8609,222.9814 Q536.0469,222.8174 536.4734,222.8174 L536.6594,222.8174 L536.6594,218.158 L536.4734,218.158 Q536.0359,218.158 535.85,217.9939 Q535.675,217.8299 535.675,217.5564 Q535.675,217.2939 535.85,217.1299 Q536.0359,216.9658 536.4734,216.9658 L541.8109,216.9658 L541.8109,218.7814 Q541.8109,219.208 541.6469,219.3939 Q541.4937,219.5689 541.2203,219.5689 Q540.9578,219.5689 540.7937,219.3939 Q540.6297,219.208 540.6297,218.7814 L540.6297,218.158 L537.8516,218.158 L537.8516,219.8752 L538.8906,219.8752 Q538.8906,219.4158 538.9781,219.2846 Q539.1641,219.0002 539.4922,219.0002 Q539.7547,219.0002 539.9187,219.1861 Q540.0828,219.3611 540.0828,219.7877 L540.0828,221.1658 Q540.0828,221.5486 539.9953,221.6799 Q539.8094,221.9533 539.4922,221.9533 Q539.1641,221.9533 538.9781,221.6689 Q538.8906,221.5377 538.8906,221.0674 L537.8516,221.0674 Z " fill="#000000"/><text fill="#000000" font-family="sans-serif" font-size="9.8" lengthAdjust="spacing" textLength="84.7" x="548.45" y="224.5674">LanguageEngineer</text><line style="stroke:#181818;stroke-width:0.3499999999999999;" x1="528.85" x2="634.55" y1="231.7096" y2="231.7096"/><text fill="#000000" font-family="sans-serif" font-size="9.8" lengthAdjust="spacing" textLength="35" x="532.35" y="245.0848">&#171;entity&#187;</text><line style="stroke:#181818;stroke-width:0.3499999999999999;" x1="528.85" x2="634.55" y1="250.3443" y2="250.3443"/></g><!--class Admin--><g id="elem_Admin"><rect codeLine="17" fill="#F1F1F1" height="46.6348" id="Admin" rx="1.75" ry="1.75" style="stroke:#181818;stroke-width:0.3499999999999999;" width="49.7" x="598.15" y="30.1096"/><ellipse cx="608.65" cy="41.3096" fill="#ADD1B2" rx="7.7" ry="7.7" style="stroke:#181818;stroke-width:0.6999999999999998;"/><path d="M607.8516,41.8674 L607.8516,43.6174 L610.8812,43.6174 L610.8812,42.9721 Q610.8812,42.5455 611.0453,42.3596 Q611.2203,42.1736 611.4828,42.1736 Q611.7453,42.1736 611.9094,42.3596 Q612.0734,42.5455 612.0734,42.9721 L612.0734,44.8096 L606.4734,44.8096 Q606.0359,44.8096 605.85,44.6455 Q605.675,44.4814 605.675,44.208 Q605.675,43.9455 605.8609,43.7814 Q606.0469,43.6174 606.4734,43.6174 L606.6594,43.6174 L606.6594,38.958 L606.4734,38.958 Q606.0359,38.958 605.85,38.7939 Q605.675,38.6299 605.675,38.3564 Q605.675,38.0939 605.85,37.9299 Q606.0359,37.7658 606.4734,37.7658 L611.8109,37.7658 L611.8109,39.5814 Q611.8109,40.008 611.6469,40.1939 Q611.4937,40.3689 611.2203,40.3689 Q610.9578,40.3689 610.7937,40.1939 Q610.6297,40.008 610.6297,39.5814 L610.6297,38.958 L607.8516,38.958 L607.8516,40.6752 L608.8906,40.6752 Q608.8906,40.2158 608.9781,40.0846 Q609.1641,39.8002 609.4922,39.8002 Q609.7547,39.8002 609.9187,39.9861 Q610.0828,40.1611 610.0828,40.5877 L610.0828,41.9658 Q610.0828,42.3486 609.9953,42.4799 Q609.8094,42.7533 609.4922,42.7533 Q609.1641,42.7533 608.9781,42.4689 Q608.8906,42.3377 608.8906,41.8674 L607.8516,41.8674 Z " fill="#000000"/><text fill="#000000" font-family="sans-serif" font-size="9.8" lengthAdjust="spacing" textLength="27.3" x="618.45" y="45.3674">Admin</text><line style="stroke:#181818;stroke-width:0.3499999999999999;" x1="598.85" x2="647.15" y1="52.5096" y2="52.5096"/><text fill="#000000" font-family="sans-serif" font-size="9.8" lengthAdjust="spacing" textLength="35" x="602.35" y="65.8848">&#171;entity&#187;</text><line style="stroke:#181818;stroke-width:0.3499999999999999;" x1="598.85" x2="647.15" y1="71.1443" y2="71.1443"/></g><!--class CustomerManager--><g id="elem_CustomerManager"><rect codeLine="21" fill="#F1F1F1" height="46.6348" id="CustomerManager" rx="1.75" ry="1.75" style="stroke:#181818;stroke-width:0.3499999999999999;" width="104.3" x="502.25" y="119.7096"/><ellipse cx="512.75" cy="130.9096" fill="#ADD1B2" rx="7.7" ry="7.7" style="stroke:#181818;stroke-width:0.6999999999999998;"/><path d="M511.9516,131.4674 L511.9516,133.2174 L514.9812,133.2174 L514.9812,132.5721 Q514.9812,132.1455 515.1453,131.9596 Q515.3203,131.7736 515.5828,131.7736 Q515.8453,131.7736 516.0094,131.9596 Q516.1734,132.1455 516.1734,132.5721 L516.1734,134.4096 L510.5734,134.4096 Q510.1359,134.4096 509.95,134.2455 Q509.775,134.0814 509.775,133.808 Q509.775,133.5455 509.9609,133.3814 Q510.1469,133.2174 510.5734,133.2174 L510.7594,133.2174 L510.7594,128.558 L510.5734,128.558 Q510.1359,128.558 509.95,128.3939 Q509.775,128.2299 509.775,127.9564 Q509.775,127.6939 509.95,127.5299 Q510.1359,127.3658 510.5734,127.3658 L515.9109,127.3658 L515.9109,129.1814 Q515.9109,129.608 515.7469,129.7939 Q515.5937,129.9689 515.3203,129.9689 Q515.0578,129.9689 514.8937,129.7939 Q514.7297,129.608 514.7297,129.1814 L514.7297,128.558 L511.9516,128.558 L511.9516,130.2752 L512.9906,130.2752 Q512.9906,129.8158 513.0781,129.6846 Q513.2641,129.4002 513.5922,129.4002 Q513.8547,129.4002 514.0187,129.5861 Q514.1828,129.7611 514.1828,130.1877 L514.1828,131.5658 Q514.1828,131.9486 514.0953,132.0799 Q513.9094,132.3533 513.5922,132.3533 Q513.2641,132.3533 513.0781,132.0689 Q512.9906,131.9377 512.9906,131.4674 L511.9516,131.4674 Z " fill="#000000"/><text fill="#000000" font-family="sans-serif" font-size="9.8" lengthAdjust="spacing" textLength="81.9" x="522.55" y="134.9674">CustomerManager</text><line style="stroke:#181818;stroke-width:0.3499999999999999;" x1="502.95" x2="605.85" y1="142.1096" y2="142.1096"/><text fill="#000000" font-family="sans-serif" font-size="9.8" lengthAdjust="spacing" textLength="35" x="506.45" y="155.4848">&#171;entity&#187;</text><line style="stroke:#181818;stroke-width:0.3499999999999999;" x1="502.95" x2="605.85" y1="160.7443" y2="160.7443"/></g><!--class Operator--><g id="elem_Operator"><rect codeLine="25" fill="#F1F1F1" height="46.6348" id="Operator" rx="1.75" ry="1.75" style="stroke:#181818;stroke-width:0.3499999999999999;" width="62.3" x="445.55" y="30.1096"/><ellipse cx="456.05" cy="41.3096" fill="#ADD1B2" rx="7.7" ry="7.7" style="stroke:#181818;stroke-width:0.6999999999999998;"/><path d="M455.2516,41.8674 L455.2516,43.6174 L458.2812,43.6174 L458.2812,42.9721 Q458.2812,42.5455 458.4453,42.3596 Q458.6203,42.1736 458.8828,42.1736 Q459.1453,42.1736 459.3094,42.3596 Q459.4734,42.5455 459.4734,42.9721 L459.4734,44.8096 L453.8734,44.8096 Q453.4359,44.8096 453.25,44.6455 Q453.075,44.4814 453.075,44.208 Q453.075,43.9455 453.2609,43.7814 Q453.4469,43.6174 453.8734,43.6174 L454.0594,43.6174 L454.0594,38.958 L453.8734,38.958 Q453.4359,38.958 453.25,38.7939 Q453.075,38.6299 453.075,38.3564 Q453.075,38.0939 453.25,37.9299 Q453.4359,37.7658 453.8734,37.7658 L459.2109,37.7658 L459.2109,39.5814 Q459.2109,40.008 459.0469,40.1939 Q458.8937,40.3689 458.6203,40.3689 Q458.3578,40.3689 458.1937,40.1939 Q458.0297,40.008 458.0297,39.5814 L458.0297,38.958 L455.2516,38.958 L455.2516,40.6752 L456.2906,40.6752 Q456.2906,40.2158 456.3781,40.0846 Q456.5641,39.8002 456.8922,39.8002 Q457.1547,39.8002 457.3187,39.9861 Q457.4828,40.1611 457.4828,40.5877 L457.4828,41.9658 Q457.4828,42.3486 457.3953,42.4799 Q457.2094,42.7533 456.8922,42.7533 Q456.5641,42.7533 456.3781,42.4689 Q456.2906,42.3377 456.2906,41.8674 L455.2516,41.8674 Z " fill="#000000"/><text fill="#000000" font-family="sans-serif" font-size="9.8" lengthAdjust="spacing" textLength="39.9" x="465.85" y="45.3674">Operator</text><line style="stroke:#181818;stroke-width:0.3499999999999999;" x1="446.25" x2="507.15" y1="52.5096" y2="52.5096"/><text fill="#000000" font-family="sans-serif" font-size="9.8" lengthAdjust="spacing" textLength="35" x="449.75" y="65.8848">&#171;entity&#187;</text><line style="stroke:#181818;stroke-width:0.3499999999999999;" x1="446.25" x2="507.15" y1="71.1443" y2="71.1443"/></g><!--class Customer--><g id="elem_Customer"><rect codeLine="29" fill="#F1F1F1" height="46.6348" id="Customer" rx="1.75" ry="1.75" style="stroke:#181818;stroke-width:0.3499999999999999;" width="65.1" x="386.05" y="209.3096"/><ellipse cx="396.55" cy="220.5096" fill="#ADD1B2" rx="7.7" ry="7.7" style="stroke:#181818;stroke-width:0.6999999999999998;"/><path d="M395.7516,221.0674 L395.7516,222.8174 L398.7812,222.8174 L398.7812,222.1721 Q398.7812,221.7455 398.9453,221.5596 Q399.1203,221.3736 399.3828,221.3736 Q399.6453,221.3736 399.8094,221.5596 Q399.9734,221.7455 399.9734,222.1721 L399.9734,224.0096 L394.3734,224.0096 Q393.9359,224.0096 393.75,223.8455 Q393.575,223.6814 393.575,223.408 Q393.575,223.1455 393.7609,222.9814 Q393.9469,222.8174 394.3734,222.8174 L394.5594,222.8174 L394.5594,218.158 L394.3734,218.158 Q393.9359,218.158 393.75,217.9939 Q393.575,217.8299 393.575,217.5564 Q393.575,217.2939 393.75,217.1299 Q393.9359,216.9658 394.3734,216.9658 L399.7109,216.9658 L399.7109,218.7814 Q399.7109,219.208 399.5469,219.3939 Q399.3937,219.5689 399.1203,219.5689 Q398.8578,219.5689 398.6937,219.3939 Q398.5297,219.208 398.5297,218.7814 L398.5297,218.158 L395.7516,218.158 L395.7516,219.8752 L396.7906,219.8752 Q396.7906,219.4158 396.8781,219.2846 Q397.0641,219.0002 397.3922,219.0002 Q397.6547,219.0002 397.8187,219.1861 Q397.9828,219.3611 397.9828,219.7877 L397.9828,221.1658 Q397.9828,221.5486 397.8953,221.6799 Q397.7094,221.9533 397.3922,221.9533 Q397.0641,221.9533 396.8781,221.6689 Q396.7906,221.5377 396.7906,221.0674 L395.7516,221.0674 Z " fill="#000000"/><text fill="#000000" font-family="sans-serif" font-size="9.8" lengthAdjust="spacing" textLength="42.7" x="406.35" y="224.5674">Customer</text><line style="stroke:#181818;stroke-width:0.3499999999999999;" x1="386.75" x2="450.45" y1="231.7096" y2="231.7096"/><text fill="#000000" font-family="sans-serif" font-size="9.8" lengthAdjust="spacing" textLength="35" x="390.25" y="245.0848">&#171;entity&#187;</text><line style="stroke:#181818;stroke-width:0.3499999999999999;" x1="386.75" x2="450.45" y1="250.3443" y2="250.3443"/></g><!--class User--><g id="elem_User"><rect codeLine="33" fill="#F1F1F1" height="46.6348" id="User" rx="1.75" ry="1.75" style="stroke:#181818;stroke-width:0.3499999999999999;" width="63.7" x="443.45" y="315.0096"/><ellipse cx="463.4" cy="326.2096" fill="#ADD1B2" rx="7.7" ry="7.7" style="stroke:#181818;stroke-width:0.6999999999999998;"/><path d="M462.6016,326.7674 L462.6016,328.5174 L465.6312,328.5174 L465.6312,327.8721 Q465.6312,327.4455 465.7953,327.2596 Q465.9703,327.0736 466.2328,327.0736 Q466.4953,327.0736 466.6594,327.2596 Q466.8234,327.4455 466.8234,327.8721 L466.8234,329.7096 L461.2234,329.7096 Q460.7859,329.7096 460.6,329.5455 Q460.425,329.3814 460.425,329.108 Q460.425,328.8455 460.6109,328.6814 Q460.7969,328.5174 461.2234,328.5174 L461.4094,328.5174 L461.4094,323.858 L461.2234,323.858 Q460.7859,323.858 460.6,323.6939 Q460.425,323.5299 460.425,323.2564 Q460.425,322.9939 460.6,322.8299 Q460.7859,322.6658 461.2234,322.6658 L466.5609,322.6658 L466.5609,324.4814 Q466.5609,324.908 466.3969,325.0939 Q466.2437,325.2689 465.9703,325.2689 Q465.7078,325.2689 465.5437,325.0939 Q465.3797,324.908 465.3797,324.4814 L465.3797,323.858 L462.6016,323.858 L462.6016,325.5752 L463.6406,325.5752 Q463.6406,325.1158 463.7281,324.9846 Q463.9141,324.7002 464.2422,324.7002 Q464.5047,324.7002 464.6687,324.8861 Q464.8328,325.0611 464.8328,325.4877 L464.8328,326.8658 Q464.8328,327.2486 464.7453,327.3799 Q464.5594,327.6533 464.2422,327.6533 Q463.9141,327.6533 463.7281,327.3689 Q463.6406,327.2377 463.6406,326.7674 L462.6016,326.7674 Z " fill="#000000"/><text fill="#000000" font-family="sans-serif" font-size="9.8" lengthAdjust="spacing" textLength="20.3" x="475.3" y="330.2674">User</text><line style="stroke:#181818;stroke-width:0.3499999999999999;" x1="444.15" x2="506.45" y1="337.4096" y2="337.4096"/><text fill="#000000" font-family="sans-serif" font-size="9.8" lengthAdjust="spacing" textLength="55.3" x="447.65" y="350.7848">&#171;root entity&#187;</text><line style="stroke:#181818;stroke-width:0.3499999999999999;" x1="444.15" x2="506.45" y1="356.0443" y2="356.0443"/></g><!--class EmailAddress--><g id="elem_EmailAddress"><rect codeLine="43" fill="#F1F1F1" height="42.4074" id="EmailAddress" rx="1.75" ry="1.75" style="stroke:#181818;stroke-width:0.3499999999999999;" width="113.4" x="293.3" y="560.0096"/><ellipse cx="303.8" cy="575.6133" fill="#F09000" rx="7.7" ry="7.7" style="stroke:#181818;stroke-width:0.6999999999999998;"/><path d="M304.2156,577.8992 L305.9437,573.7867 L305.6703,573.7867 Q305.2437,573.7867 305.0578,573.6227 Q304.8719,573.4586 304.8719,573.1852 Q304.8719,572.9227 305.0578,572.7586 Q305.2437,572.5945 305.6703,572.5945 L307.2672,572.5945 Q307.6937,572.5945 307.8797,572.7586 Q308.0656,572.9227 308.0656,573.1852 Q308.0656,573.5133 307.7812,573.6992 Q307.65,573.7867 307.2344,573.7867 L304.7953,579.6383 L303.6469,579.6383 L301.2078,573.7867 Q300.7922,573.7867 300.6609,573.6992 Q300.3766,573.5133 300.3766,573.1852 Q300.3766,572.9227 300.5625,572.7586 Q300.7484,572.5945 301.175,572.5945 L302.7828,572.5945 Q303.2094,572.5945 303.3844,572.7586 Q303.5703,572.9227 303.5703,573.1852 Q303.5703,573.4586 303.3844,573.6227 Q303.2094,573.7867 302.7828,573.7867 L302.4984,573.7867 L304.2156,577.8992 Z " fill="#000000"/><text fill="#000000" font-family="sans-serif" font-size="8.4" font-style="italic" lengthAdjust="spacing" textLength="93.8" x="312.2" y="572.574">&#171;Identifier value Object&#187;</text><text fill="#000000" font-family="sans-serif" font-size="9.8" lengthAdjust="spacing" textLength="60.2" x="329" y="585.2574">EmailAddress</text><line style="stroke:#181818;stroke-width:0.3499999999999999;" x1="294" x2="406" y1="591.217" y2="591.217"/><line style="stroke:#181818;stroke-width:0.3499999999999999;" x1="294" x2="406" y1="596.817" y2="596.817"/></g><!--class Password--><g id="elem_Password"><rect codeLine="44" fill="#F1F1F1" height="42.4074" id="Password" rx="1.75" ry="1.75" style="stroke:#181818;stroke-width:0.3499999999999999;" width="77.7" x="431.55" y="560.0096"/><ellipse cx="442.05" cy="575.6133" fill="#F04800" rx="7.7" ry="7.7" style="stroke:#181818;stroke-width:0.6999999999999998;"/><path d="M442.4656,577.8992 L444.1937,573.7867 L443.9203,573.7867 Q443.4937,573.7867 443.3078,573.6227 Q443.1219,573.4586 443.1219,573.1852 Q443.1219,572.9227 443.3078,572.7586 Q443.4937,572.5945 443.9203,572.5945 L445.5172,572.5945 Q445.9437,572.5945 446.1297,572.7586 Q446.3156,572.9227 446.3156,573.1852 Q446.3156,573.5133 446.0312,573.6992 Q445.9,573.7867 445.4844,573.7867 L443.0453,579.6383 L441.8969,579.6383 L439.4578,573.7867 Q439.0422,573.7867 438.9109,573.6992 Q438.6266,573.5133 438.6266,573.1852 Q438.6266,572.9227 438.8125,572.7586 Q438.9984,572.5945 439.425,572.5945 L441.0328,572.5945 Q441.4594,572.5945 441.6344,572.7586 Q441.8203,572.9227 441.8203,573.1852 Q441.8203,573.4586 441.6344,573.6227 Q441.4594,573.7867 441.0328,573.7867 L440.7484,573.7867 L442.4656,577.8992 Z " fill="#000000"/><text fill="#000000" font-family="sans-serif" font-size="8.4" font-style="italic" lengthAdjust="spacing" textLength="58.1" x="450.45" y="572.574">&#171;value Object&#187;</text><text fill="#000000" font-family="sans-serif" font-size="9.8" lengthAdjust="spacing" textLength="42.7" x="458.15" y="585.2574">Password</text><line style="stroke:#181818;stroke-width:0.3499999999999999;" x1="432.25" x2="508.55" y1="591.217" y2="591.217"/><line style="stroke:#181818;stroke-width:0.3499999999999999;" x1="432.25" x2="508.55" y1="596.817" y2="596.817"/></g><!--class Role--><g id="elem_Role"><rect codeLine="45" fill="#F1F1F1" height="42.4074" id="Role" rx="1.75" ry="1.75" style="stroke:#181818;stroke-width:0.3499999999999999;" width="77.7" x="533.75" y="560.0096"/><ellipse cx="544.25" cy="575.6133" fill="#F04800" rx="7.7" ry="7.7" style="stroke:#181818;stroke-width:0.6999999999999998;"/><path d="M544.6656,577.8992 L546.3937,573.7867 L546.1203,573.7867 Q545.6937,573.7867 545.5078,573.6227 Q545.3219,573.4586 545.3219,573.1852 Q545.3219,572.9227 545.5078,572.7586 Q545.6937,572.5945 546.1203,572.5945 L547.7172,572.5945 Q548.1437,572.5945 548.3297,572.7586 Q548.5156,572.9227 548.5156,573.1852 Q548.5156,573.5133 548.2312,573.6992 Q548.1,573.7867 547.6844,573.7867 L545.2453,579.6383 L544.0969,579.6383 L541.6578,573.7867 Q541.2422,573.7867 541.1109,573.6992 Q540.8266,573.5133 540.8266,573.1852 Q540.8266,572.9227 541.0125,572.7586 Q541.1984,572.5945 541.625,572.5945 L543.2328,572.5945 Q543.6594,572.5945 543.8344,572.7586 Q544.0203,572.9227 544.0203,573.1852 Q544.0203,573.4586 543.8344,573.6227 Q543.6594,573.7867 543.2328,573.7867 L542.9484,573.7867 L544.6656,577.8992 Z " fill="#000000"/><text fill="#000000" font-family="sans-serif" font-size="8.4" font-style="italic" lengthAdjust="spacing" textLength="58.1" x="552.65" y="572.574">&#171;value Object&#187;</text><text fill="#000000" font-family="sans-serif" font-size="9.8" lengthAdjust="spacing" textLength="20.3" x="571.55" y="585.2574">Role</text><line style="stroke:#181818;stroke-width:0.3499999999999999;" x1="534.45" x2="610.75" y1="591.217" y2="591.217"/><line style="stroke:#181818;stroke-width:0.3499999999999999;" x1="534.45" x2="610.75" y1="596.817" y2="596.817"/></g><!--class Name--><g id="elem_Name"><rect codeLine="46" fill="#F1F1F1" height="42.4074" id="Name" rx="1.75" ry="1.75" style="stroke:#181818;stroke-width:0.3499999999999999;" width="77.7" x="635.95" y="560.0096"/><ellipse cx="646.45" cy="575.6133" fill="#F04800" rx="7.7" ry="7.7" style="stroke:#181818;stroke-width:0.6999999999999998;"/><path d="M646.8656,577.8992 L648.5937,573.7867 L648.3203,573.7867 Q647.8937,573.7867 647.7078,573.6227 Q647.5219,573.4586 647.5219,573.1852 Q647.5219,572.9227 647.7078,572.7586 Q647.8937,572.5945 648.3203,572.5945 L649.9172,572.5945 Q650.3437,572.5945 650.5297,572.7586 Q650.7156,572.9227 650.7156,573.1852 Q650.7156,573.5133 650.4312,573.6992 Q650.3,573.7867 649.8844,573.7867 L647.4453,579.6383 L646.2969,579.6383 L643.8578,573.7867 Q643.4422,573.7867 643.3109,573.6992 Q643.0266,573.5133 643.0266,573.1852 Q643.0266,572.9227 643.2125,572.7586 Q643.3984,572.5945 643.825,572.5945 L645.4328,572.5945 Q645.8594,572.5945 646.0344,572.7586 Q646.2203,572.9227 646.2203,573.1852 Q646.2203,573.4586 646.0344,573.6227 Q645.8594,573.7867 645.4328,573.7867 L645.1484,573.7867 L646.8656,577.8992 Z " fill="#000000"/><text fill="#000000" font-family="sans-serif" font-size="8.4" font-style="italic" lengthAdjust="spacing" textLength="58.1" x="654.85" y="572.574">&#171;value Object&#187;</text><text fill="#000000" font-family="sans-serif" font-size="9.8" lengthAdjust="spacing" textLength="25.2" x="671.3" y="585.2574">Name</text><line style="stroke:#181818;stroke-width:0.3499999999999999;" x1="636.65" x2="712.95" y1="591.217" y2="591.217"/><line style="stroke:#181818;stroke-width:0.3499999999999999;" x1="636.65" x2="712.95" y1="596.817" y2="596.817"/></g><!--class Candidate--><g id="elem_Candidate"><rect fill="#F1F1F1" height="33.6" id="Candidate" rx="1.75" ry="1.75" style="stroke:#181818;stroke-width:0.3499999999999999;" width="67.9" x="293.65" y="215.9596"/><ellipse cx="304.15" cy="227.1596" fill="#ADD1B2" rx="7.7" ry="7.7" style="stroke:#181818;stroke-width:0.6999999999999998;"/><path d="M306.0859,224.2721 Q306.1953,224.1189 306.3266,224.0424 Q306.4578,223.9658 306.6109,223.9658 Q306.8734,223.9658 307.0375,224.1518 Q307.2016,224.3268 307.2016,224.7533 L307.2016,225.7705 Q307.2016,226.1971 307.0375,226.383 Q306.8734,226.5689 306.6109,226.5689 Q306.3703,226.5689 306.2281,226.4268 Q306.0859,226.2955 306.0094,225.9346 Q305.9766,225.683 305.8453,225.5518 Q305.6156,225.2893 305.1891,225.1361 Q304.7625,224.983 304.325,224.983 Q303.7891,224.983 303.3406,225.2127 Q302.9031,225.4424 302.5531,225.9674 Q302.2141,226.4924 302.2141,227.2143 L302.2141,227.9799 Q302.2141,228.8439 302.8375,229.4236 Q303.4609,229.9924 304.5766,229.9924 Q305.2328,229.9924 305.6922,229.8174 Q305.9656,229.708 306.2609,229.4018 Q306.4469,229.2158 306.5453,229.1611 Q306.6547,229.1064 306.7969,229.1064 Q307.0266,229.1064 307.2016,229.2924 Q307.3875,229.4674 307.3875,229.708 Q307.3875,229.9486 307.1469,230.233 Q306.7969,230.6377 306.2391,230.8674 Q305.4844,231.1846 304.5766,231.1846 Q303.5156,231.1846 302.6734,230.7471 Q301.9844,230.3971 301.5031,229.6533 Q301.0219,228.8986 301.0219,228.0018 L301.0219,227.1924 Q301.0219,226.2627 301.4484,225.4643 Q301.8859,224.6549 302.6516,224.2283 Q303.4172,223.7908 304.2812,223.7908 Q304.7953,223.7908 305.2437,223.9111 Q305.7031,224.0205 306.0859,224.2721 Z " fill="#000000"/><text fill="#000000" font-family="sans-serif" font-size="9.8" lengthAdjust="spacing" textLength="45.5" x="313.95" y="231.2174">Candidate</text><line style="stroke:#181818;stroke-width:0.3499999999999999;" x1="294.35" x2="360.85" y1="238.3596" y2="238.3596"/><line style="stroke:#181818;stroke-width:0.3499999999999999;" x1="294.35" x2="360.85" y1="243.9596" y2="243.9596"/></g><!--link Notification to CreationDate--><g id="link_Notification_CreationDate"><path codeLine="38" d="M52.234,362.0496 C53.06,378.6816 54.173,400.9976 54.971,417.1116 " fill="none" id="Notification-CreationDate" style="stroke:#181818;stroke-width:0.6999999999999998;"/><polygon fill="#000000" points="56.5262,386.1657,54.7859,392.5916,58.8953,392.3874,56.5262,386.1657" style="stroke:#000000;stroke-width:0.6999999999999998;"/><text fill="#000000" font-family="sans-serif" font-size="9.1" lengthAdjust="spacing" textLength="39.2" x="63" y="393.4294">describes</text></g><!--link Notification to NotificationType--><g id="link_Notification_NotificationType"><path codeLine="39" d="M86.52,338.4596 C108.381,338.4596 136.675,338.4596 160.37,338.4596 " fill="none" id="Notification-NotificationType" style="stroke:#181818;stroke-width:0.6999999999999998;"/><polygon fill="#000000" points="98.7,329.8114,105.0316,331.8687,105.0316,327.7542,98.7,329.8114" style="stroke:#000000;stroke-width:0.6999999999999998;"/><text fill="#000000" font-family="sans-serif" font-size="9.1" lengthAdjust="spacing" textLength="39.2" x="108.5" y="333.5794">describes</text></g><!--link Notification to User--><g id="link_Notification_User"><path codeLine="40" d="M78.701,314.9956 C99.666,298.8046 130.025,278.6586 160.65,269.8596 C262.479,240.6066 385.966,292.2526 443.247,321.0576 " fill="none" id="Notification-User" style="stroke:#181818;stroke-width:0.6999999999999998;"/></g><!--link User to EmailAddress--><g id="link_User_EmailAddress"><path codeLine="48" d="M463.4,362.0986 C439.089,408.9566 384.048,515.0346 360.745,559.9466 " fill="none" id="User-EmailAddress" style="stroke:#181818;stroke-width:0.6999999999999998;"/><polygon fill="#000000" points="405.5119,485.9547,400.7698,490.6273,404.422,492.5223,405.5119,485.9547" style="stroke:#000000;stroke-width:0.6999999999999998;"/><text fill="#000000" font-family="sans-serif" font-size="9.1" lengthAdjust="spacing" textLength="35.7" x="410.2" y="492.8294">identifies</text><text fill="#000000" font-family="sans-serif" font-size="9.1" lengthAdjust="spacing" textLength="4.9" x="456.0336" y="377.0443">1</text><text fill="#000000" font-family="sans-serif" font-size="9.1" lengthAdjust="spacing" textLength="4.9" x="357.5558" y="552.274">1</text></g><!--link User to Role--><g id="link_User_Role"><path codeLine="49" d="M484.54,362.0986 C503.419,408.9566 546.161,515.0346 564.256,559.9466 " fill="none" id="User-Role" style="stroke:#181818;stroke-width:0.6999999999999998;"/><polygon fill="#000000" points="539.792,485.815,540.25,492.4567,544.0664,490.919,539.792,485.815" style="stroke:#000000;stroke-width:0.6999999999999998;"/><text fill="#000000" font-family="sans-serif" font-size="9.1" lengthAdjust="spacing" textLength="37.8" x="547.4" y="492.8294">classifies</text><text fill="#000000" font-family="sans-serif" font-size="9.1" lengthAdjust="spacing" textLength="4.9" x="480.807" y="377.0443">1</text><text fill="#000000" font-family="sans-serif" font-size="9.1" lengthAdjust="spacing" textLength="4.9" x="557.1297" y="552.274">1</text></g><!--link User to Name--><g id="link_User_Name"><path codeLine="50" d="M494.249,362.0986 C532.959,408.9566 620.585,515.0346 657.692,559.9466 " fill="none" id="User-Name" style="stroke:#181818;stroke-width:0.6999999999999998;"/><polygon fill="#000000" points="604.6709,486.3631,607.1173,492.5547,610.2894,489.9342,604.6709,486.3631" style="stroke:#000000;stroke-width:0.6999999999999998;"/><text fill="#000000" font-family="sans-serif" font-size="9.1" lengthAdjust="spacing" textLength="39.2" x="613.2" y="492.8294">describes</text><text fill="#000000" font-family="sans-serif" font-size="9.1" lengthAdjust="spacing" textLength="4.9" x="492.1848" y="377.0443">1</text><text fill="#000000" font-family="sans-serif" font-size="9.1" lengthAdjust="spacing" textLength="4.9" x="648.7582" y="552.274">1</text></g><!--link User to Password--><g id="link_User_Password"><path codeLine="51" d="M474.838,362.0986 C473.886,408.9566 471.73,515.0346 470.82,559.9466 " fill="none" id="User-Password" style="stroke:#181818;stroke-width:0.6999999999999998;"/><polygon fill="#000000" points="475.3711,485.5621,473.1857,491.8506,477.2993,491.9342,475.3711,485.5621" style="stroke:#000000;stroke-width:0.6999999999999998;"/><text fill="#000000" font-family="sans-serif" font-size="9.1" lengthAdjust="spacing" textLength="39.2" x="481.6" y="492.8294">describes</text><text fill="#000000" font-family="sans-serif" font-size="9.1" lengthAdjust="spacing" textLength="4.9" x="469.4375" y="377.0443">1</text><text fill="#000000" font-family="sans-serif" font-size="9.1" lengthAdjust="spacing" textLength="4.9" x="465.5013" y="552.274">1</text></g><!--link LanguageEngineer to User--><g id="link_LanguageEngineer_User"><path codeLine="52" d="M558.348,256.3496 C540.61,273.7376 525.3162,288.7225 507.5922,306.1035 " fill="none" id="LanguageEngineer-to-User" style="stroke:#181818;stroke-width:0.6999999999999998;"/><polygon fill="none" points="498.596,314.9256,510.5329,309.1022,504.6515,303.1048,498.596,314.9256" style="stroke:#181818;stroke-width:0.6999999999999998;"/></g><!--link Customer to User--><g id="link_Customer_User"><path codeLine="53" d="M431.046,256.3496 C440.496,273.7376 447.4205,286.4749 456.8705,303.8559 " fill="none" id="Customer-to-User" style="stroke:#181818;stroke-width:0.6999999999999998;"/><polygon fill="none" points="462.889,314.9256,460.5603,301.8497,453.1806,305.8621,462.889,314.9256" style="stroke:#181818;stroke-width:0.6999999999999998;"/></g><!--link Operator to User--><g id="link_Operator_User"><path codeLine="54" d="M476.588,77.2196 C476.322,130.4756 475.7411,249.3007 475.4751,302.3817 " fill="none" id="Operator-to-User" style="stroke:#181818;stroke-width:0.6999999999999998;"/><polygon fill="none" points="475.412,314.9816,479.6751,302.4028,471.2752,302.3607,475.412,314.9816" style="stroke:#181818;stroke-width:0.6999999999999998;"/></g><!--link CustomerManager to User--><g id="link_CustomerManager_User"><path codeLine="55" d="M539.175,166.8056 C531.496,179.0626 522.445,194.6166 515.9,209.3096 C500.01,244.9886 490.7185,276.5782 483.9915,302.7162 " fill="none" id="CustomerManager-to-User" style="stroke:#181818;stroke-width:0.6999999999999998;"/><polygon fill="none" points="480.851,314.9186,488.0589,303.763,479.924,301.6694,480.851,314.9186" style="stroke:#181818;stroke-width:0.6999999999999998;"/></g><!--link Candidate to User--><g id="link_Candidate_User"><path codeLine="56" d="M350.679,249.7556 C375.585,267.3466 405.1363,288.2117 433.0523,307.9237 " fill="none" id="Candidate-to-User" style="stroke:#181818;stroke-width:0.6999999999999998;"/><polygon fill="none" points="443.345,315.1916,435.475,304.4929,430.6297,311.3546,443.345,315.1916" style="stroke:#181818;stroke-width:0.6999999999999998;"/></g><!--SRC=[bLDTJy8m57tVhsZmGKsSpCG7NSWIWZoOA12Zlb_MownkxMmx3K7-k-t8FWe8im_BrfxJUyyzPwTlMkSgxFVp5BWkilGo5bbVuMU1F4QVCaWaP9utW_W34YGJeTc2nQ2PuCCaaPY0nfL7p1fppVJIGH2oEQhMO225q0HBP1JLP-loRPI2KWx_UPcZ8PszNfmiWkkR83WdNv0MIARpTunr5AtQp974adLdMZh6yjQDfXU5Sh-M1-19OI1ZdZ2EA7VaE4hCbItka6QCjmW7mQD2QP6XV0Hkoickj6cE4hIG_otJ5Mydus1txJC4px7SzrqZGZ8W55KisHpL5dJNx8Desuufjt5xd05BXvHAD1-LsxU1TVkUsXONp3H_82upy_WMadOFs9D8aNI7Jo0xdiDonBshdfcRcPnzSOI5X5LYZCezwBAdaCIsuj-eifMmcUnUK3qG5xZp4_Z-JxJneivJirL7qbwxZQlYtJu2JXcrGMdsFEyN]--></g></svg>