<?xml version="1.0" encoding="us-ascii" standalone="no"?><svg xmlns="http://www.w3.org/2000/svg" xmlns:xlink="http://www.w3.org/1999/xlink" contentStyleType="text/css" height="328.5px" preserveAspectRatio="none" style="width:444px;height:328px;background:#FFFFFF;" version="1.1" viewBox="0 0 444 328" width="444.6px" zoomAndPan="magnify"><defs/><g><rect fill="#FFFFFF" height="20.9619" style="stroke:#181818;stroke-width:0.9;" width="9" x="88.2" y="43.759"/><rect fill="#FFFFFF" height="43.7238" style="stroke:#181818;stroke-width:0.9;" width="9" x="88.2" y="92.8828"/><rect fill="#FFFFFF" height="51.8238" style="stroke:#181818;stroke-width:0.9;" width="9" x="88.2" y="164.7686"/><rect fill="#FFFFFF" height="14.4" style="stroke:#181818;stroke-width:0.9;" width="9" x="88.2" y="272.9162"/><rect fill="#FFFFFF" height="28.1619" style="stroke:#181818;stroke-width:0.9;" width="9" x="261.9" y="64.7209"/><rect fill="#FFFFFF" height="28.1619" style="stroke:#181818;stroke-width:0.9;" width="9" x="261.9" y="136.6066"/><rect fill="#FFFFFF" height="56.3238" style="stroke:#181818;stroke-width:0.9;" width="9" x="261.9" y="216.5924"/><rect fill="none" height="101.8477" style="stroke:#000000;stroke-width:1.35;" width="430.2" x="9" y="178.2686"/><line style="stroke:#181818;stroke-width:0.45;stroke-dasharray:5.0,5.0;" x1="92.7" x2="92.7" y1="34.759" y2="295.4162"/><line style="stroke:#181818;stroke-width:0.45;stroke-dasharray:5.0,5.0;" x1="265.95" x2="265.95" y1="34.759" y2="295.4162"/><line style="stroke:#181818;stroke-width:0.45;stroke-dasharray:5.0,5.0;" x1="387.9" x2="387.9" y1="34.759" y2="295.4162"/><rect fill="#E2E2F0" height="29.359" rx="2.25" ry="2.25" style="stroke:#181818;stroke-width:0.45;" width="149.4" x="18" y="4.5"/><text fill="#000000" font-family="sans-serif" font-size="12.6" lengthAdjust="spacing" textLength="136.8" x="24.3" y="24.3967">EmailNotificationHandler</text><rect fill="#E2E2F0" height="29.359" rx="2.25" ry="2.25" style="stroke:#181818;stroke-width:0.45;" width="149.4" x="18" y="294.5162"/><text fill="#000000" font-family="sans-serif" font-size="12.6" lengthAdjust="spacing" textLength="136.8" x="24.3" y="314.4129">EmailNotificationHandler</text><rect fill="#E2E2F0" height="29.359" rx="2.25" ry="2.25" style="stroke:#181818;stroke-width:0.45;" width="101.7" x="215.55" y="4.5"/><text fill="#000000" font-family="sans-serif" font-size="12.6" lengthAdjust="spacing" textLength="89.1" x="221.85" y="24.3967">FollowUpServer</text><rect fill="#E2E2F0" height="29.359" rx="2.25" ry="2.25" style="stroke:#181818;stroke-width:0.45;" width="101.7" x="215.55" y="294.5162"/><text fill="#000000" font-family="sans-serif" font-size="12.6" lengthAdjust="spacing" textLength="89.1" x="221.85" y="314.4129">FollowUpServer</text><rect fill="#E2E2F0" height="29.359" rx="2.25" ry="2.25" style="stroke:#181818;stroke-width:0.45;" width="84.6" x="345.6" y="4.5"/><text fill="#000000" font-family="sans-serif" font-size="12.6" lengthAdjust="spacing" textLength="72" x="351.9" y="24.3967">SMTPServer</text><rect fill="#E2E2F0" height="29.359" rx="2.25" ry="2.25" style="stroke:#181818;stroke-width:0.45;" width="84.6" x="345.6" y="294.5162"/><text fill="#000000" font-family="sans-serif" font-size="12.6" lengthAdjust="spacing" textLength="72" x="351.9" y="314.4129">SMTPServer</text><rect fill="#FFFFFF" height="20.9619" style="stroke:#181818;stroke-width:0.9;" width="9" x="88.2" y="43.759"/><rect fill="#FFFFFF" height="43.7238" style="stroke:#181818;stroke-width:0.9;" width="9" x="88.2" y="92.8828"/><rect fill="#FFFFFF" height="51.8238" style="stroke:#181818;stroke-width:0.9;" width="9" x="88.2" y="164.7686"/><rect fill="#FFFFFF" height="14.4" style="stroke:#181818;stroke-width:0.9;" width="9" x="88.2" y="272.9162"/><rect fill="#FFFFFF" height="28.1619" style="stroke:#181818;stroke-width:0.9;" width="9" x="261.9" y="64.7209"/><rect fill="#FFFFFF" height="28.1619" style="stroke:#181818;stroke-width:0.9;" width="9" x="261.9" y="136.6066"/><rect fill="#FFFFFF" height="56.3238" style="stroke:#181818;stroke-width:0.9;" width="9" x="261.9" y="216.5924"/><polygon fill="#181818" points="251.1,61.1209,260.1,64.7209,251.1,68.3209,254.7,64.7209" style="stroke:#181818;stroke-width:0.9;"/><line style="stroke:#181818;stroke-width:0.9;" x1="92.7" x2="256.5" y1="64.7209" y2="64.7209"/><text fill="#000000" font-family="sans-serif" font-size="11.7" font-weight="bold" lengthAdjust="spacing" textLength="6.3" x="99" y="59.9845">1</text><text fill="#000000" font-family="sans-serif" font-size="11.7" lengthAdjust="spacing" textLength="68.4" x="108.9" y="59.9845">new Socket()</text><polygon fill="#181818" points="107.1,89.2828,98.1,92.8828,107.1,96.4828,103.5,92.8828" style="stroke:#181818;stroke-width:0.9;"/><line style="stroke:#181818;stroke-width:0.9;stroke-dasharray:2.0,2.0;" x1="101.7" x2="265.5" y1="92.8828" y2="92.8828"/><text fill="#000000" font-family="sans-serif" font-size="11.7" font-weight="bold" lengthAdjust="spacing" textLength="6.3" x="112.5" y="88.1464">2</text><text fill="#000000" font-family="sans-serif" font-size="11.7" lengthAdjust="spacing" textLength="42.3" x="122.4" y="88.1464">accept()</text><polygon fill="#181818" points="251.1,133.0066,260.1,136.6066,251.1,140.2066,254.7,136.6066" style="stroke:#181818;stroke-width:0.9;"/><line style="stroke:#181818;stroke-width:0.9;" x1="92.7" x2="256.5" y1="136.6066" y2="136.6066"/><text fill="#000000" font-family="sans-serif" font-size="11.7" font-weight="bold" lengthAdjust="spacing" textLength="6.3" x="99" y="124.0893">3</text><text fill="#000000" font-family="sans-serif" font-size="11.7" lengthAdjust="spacing" textLength="101.7" x="108.9" y="116.3083">send authentication</text><text fill="#000000" font-family="sans-serif" font-size="11.7" lengthAdjust="spacing" textLength="118.8" x="108.9" y="131.8702">information through tcp</text><polygon fill="#181818" points="107.1,161.1686,98.1,164.7686,107.1,168.3686,103.5,164.7686" style="stroke:#181818;stroke-width:0.9;"/><line style="stroke:#181818;stroke-width:0.9;stroke-dasharray:2.0,2.0;" x1="101.7" x2="265.5" y1="164.7686" y2="164.7686"/><text fill="#000000" font-family="sans-serif" font-size="11.7" font-weight="bold" lengthAdjust="spacing" textLength="6.3" x="112.5" y="160.0321">4</text><text fill="#000000" font-family="sans-serif" font-size="11.7" lengthAdjust="spacing" textLength="137.7" x="122.4" y="160.0321">send operation result code</text><path d="M9,178.2686 L63.9,178.2686 L63.9,186.6305 L54.9,195.6305 L9,195.6305 L9,178.2686 " fill="#EEEEEE" style="stroke:#000000;stroke-width:1.35;"/><rect fill="none" height="101.8477" style="stroke:#000000;stroke-width:1.35;" width="430.2" x="9" y="178.2686"/><text fill="#000000" font-family="sans-serif" font-size="11.7" font-weight="bold" lengthAdjust="spacing" textLength="14.4" x="22.5" y="191.794">alt</text><text fill="#000000" font-family="sans-serif" font-size="9.9" font-weight="bold" lengthAdjust="spacing" textLength="144" x="77.4" y="190.7517">[if authentication successful]</text><polygon fill="#181818" points="251.1,212.9924,260.1,216.5924,251.1,220.1924,254.7,216.5924" style="stroke:#181818;stroke-width:0.9;"/><line style="stroke:#181818;stroke-width:0.9;" x1="92.7" x2="256.5" y1="216.5924" y2="216.5924"/><text fill="#000000" font-family="sans-serif" font-size="11.7" font-weight="bold" lengthAdjust="spacing" textLength="6.3" x="99" y="211.856">5</text><text fill="#000000" font-family="sans-serif" font-size="11.7" lengthAdjust="spacing" textLength="123.3" x="108.9" y="211.856">sends email information</text><polygon fill="#181818" points="377.1,241.1543,386.1,244.7543,377.1,248.3543,380.7,244.7543" style="stroke:#181818;stroke-width:0.9;"/><line style="stroke:#181818;stroke-width:0.9;" x1="270.9" x2="382.5" y1="244.7543" y2="244.7543"/><text fill="#000000" font-family="sans-serif" font-size="11.7" font-weight="bold" lengthAdjust="spacing" textLength="6.3" x="277.2" y="240.0179">6</text><text fill="#000000" font-family="sans-serif" font-size="11.7" lengthAdjust="spacing" textLength="85.5" x="287.1" y="240.0179">forwards request</text><polygon fill="#181818" points="107.1,269.3162,98.1,272.9162,107.1,276.5162,103.5,272.9162" style="stroke:#181818;stroke-width:0.9;"/><line style="stroke:#181818;stroke-width:0.9;stroke-dasharray:2.0,2.0;" x1="101.7" x2="265.5" y1="272.9162" y2="272.9162"/><text fill="#000000" font-family="sans-serif" font-size="11.7" font-weight="bold" lengthAdjust="spacing" textLength="6.3" x="112.5" y="268.1798">7</text><text fill="#000000" font-family="sans-serif" font-size="11.7" lengthAdjust="spacing" textLength="3.6" x="122.4" y="268.1798">&#160;</text><!--SRC=[ZL8zJyCm4DtzAsu3Xf0zGpSG2mWfiB5SdKjZuI_iS_FtwoGcQakHClbilVVklJlV3Sm-DdNjDLfEHZzAP-f8FucifAfJU0XeXC34pYQpfo24ny1AAfy9y6HGwJV7gbSIMJdxWhRJ500Z34jvWNzsMhlnqxSKZWigpjK5g7tzU3y36FOYEv2iZiYqofOJgbtHW0OiZT0w-Kry_o0w-iDP7qhNGgoongzS0oWb-Ik1Wjza8fBj80zi8CjbAl1bbUrTCCkDX-3IOG2M_ePBs6PpRkCyXKKpK4oQGRgEjXWNcC6gl_OPKmuVOv-q-3TR19gs3cU9jinwJR6RLvh5Cdt4aFN2zDyYtyYvAOgO9g7wN8WJ]--></g></svg>