<?xml version="1.0" encoding="us-ascii" standalone="no"?><svg xmlns="http://www.w3.org/2000/svg" xmlns:xlink="http://www.w3.org/1999/xlink" contentStyleType="text/css" height="635.4px" preserveAspectRatio="none" style="width:1484px;height:635px;background:#FFFFFF;" version="1.1" viewBox="0 0 1484 635" width="1484.4px" zoomAndPan="magnify"><defs/><g><text fill="#000000" font-family="sans-serif" font-size="8.4" font-weight="bold" lengthAdjust="spacing" textLength="112.2" x="687.15" y="18.0645">US1016 Sequence Diagram</text><rect fill="#FFFFFF" height="13.9746" style="stroke:#181818;stroke-width:0.6;" width="6" x="23.1" y="52.9453"/><rect fill="#FFFFFF" height="18.7746" style="stroke:#181818;stroke-width:0.6;" width="6" x="23.1" y="214.1168"/><rect fill="#FFFFFF" height="18.7746" style="stroke:#181818;stroke-width:0.6;" width="6" x="23.1" y="251.666"/><rect fill="#FFFFFF" height="34.5492" style="stroke:#181818;stroke-width:0.6;" width="6" x="147.9" y="66.9199"/><rect fill="#FFFFFF" height="18.7746" style="stroke:#181818;stroke-width:0.6;" width="6" x="147.9" y="195.3422"/><rect fill="#FFFFFF" height="18.7746" style="stroke:#181818;stroke-width:0.6;" width="6" x="147.9" y="232.8914"/><rect fill="#FFFFFF" height="18.7746" style="stroke:#181818;stroke-width:0.6;" width="6" x="147.9" y="270.4406"/><rect fill="#FFFFFF" height="28.3746" style="stroke:#181818;stroke-width:0.6;" width="6" x="147.9" y="579.4324"/><rect fill="#FFFFFF" height="18.7746" style="stroke:#181818;stroke-width:0.6;" width="6" x="287.1" y="101.4691"/><rect fill="#FFFFFF" height="18.7746" style="stroke:#181818;stroke-width:0.6;" width="6" x="287.1" y="139.0184"/><rect fill="#FFFFFF" height="18.7746" style="stroke:#181818;stroke-width:0.6;" width="6" x="287.1" y="176.5676"/><rect fill="#FFFFFF" height="18.7746" style="stroke:#181818;stroke-width:0.6;" width="6" x="287.1" y="289.2152"/><rect fill="#FFFFFF" height="18.7746" style="stroke:#181818;stroke-width:0.6;" width="6" x="287.1" y="326.7645"/><rect fill="#FFFFFF" height="98.2711" style="stroke:#181818;stroke-width:0.6;" width="6" x="287.1" y="364.3137"/><rect fill="#FFFFFF" height="22.9746" style="stroke:#181818;stroke-width:0.6;" width="6" x="287.1" y="556.4578"/><rect fill="#FFFFFF" height="18.7746" style="stroke:#181818;stroke-width:0.6;" width="6" x="468.3" y="409.2609"/><rect fill="#FFFFFF" height="18.7746" style="stroke:#181818;stroke-width:0.6;" width="6" x="737.7" y="120.2437"/><rect fill="#FFFFFF" height="18.7746" style="stroke:#181818;stroke-width:0.6;" width="6" x="737.7" y="307.9898"/><rect fill="#FFFFFF" height="18.7746" style="stroke:#181818;stroke-width:0.6;" width="6" x="838.2" y="345.5391"/><rect fill="#FFFFFF" height="18.7746" style="stroke:#181818;stroke-width:0.6;" width="6" x="966" y="157.793"/><rect fill="#FFFFFF" height="18.7746" style="stroke:#181818;stroke-width:0.6;" width="6" x="1105.8" y="462.5848"/><rect fill="#FFFFFF" height="18.7746" style="stroke:#181818;stroke-width:0.6;" width="6" x="1105.8" y="500.134"/><rect fill="#FFFFFF" height="18.7746" style="stroke:#181818;stroke-width:0.6;" width="6" x="1105.8" y="537.6832"/><rect fill="#FFFFFF" height="18.7746" style="stroke:#181818;stroke-width:0.6;" width="6" x="1330.2" y="481.3594"/><rect fill="#FFFFFF" height="18.7746" style="stroke:#181818;stroke-width:0.6;" width="6" x="1420.8" y="518.9086"/><rect fill="none" height="527.0871" style="stroke:#000000;stroke-width:0.8999999999999999;" width="1475.1" x="6" y="75.9199"/><rect fill="none" height="124.2223" style="stroke:#000000;stroke-width:0.8999999999999999;" width="1254" x="221.1" y="437.0355"/><line style="stroke:#181818;stroke-width:0.3;stroke-dasharray:5.0,5.0;" x1="25.8" x2="25.8" y1="46.9453" y2="613.207"/><line style="stroke:#181818;stroke-width:0.3;stroke-dasharray:5.0,5.0;" x1="150.9" x2="150.9" y1="46.9453" y2="613.207"/><line style="stroke:#181818;stroke-width:0.3;stroke-dasharray:5.0,5.0;" x1="290.1" x2="290.1" y1="46.9453" y2="613.207"/><line style="stroke:#181818;stroke-width:0.3;stroke-dasharray:5.0,5.0;" x1="471.3" x2="471.3" y1="388.2" y2="613.207"/><line style="stroke:#181818;stroke-width:0.3;stroke-dasharray:5.0,5.0;" x1="657.6" x2="657.6" y1="46.9453" y2="613.207"/><line style="stroke:#181818;stroke-width:0.3;stroke-dasharray:5.0,5.0;" x1="740.4" x2="740.4" y1="46.9453" y2="613.207"/><line style="stroke:#181818;stroke-width:0.3;stroke-dasharray:5.0,5.0;" x1="841.2" x2="841.2" y1="46.9453" y2="613.207"/><line style="stroke:#181818;stroke-width:0.3;stroke-dasharray:5.0,5.0;" x1="969" x2="969" y1="46.9453" y2="613.207"/><line style="stroke:#181818;stroke-width:0.3;stroke-dasharray:5.0,5.0;" x1="1108.8" x2="1108.8" y1="46.9453" y2="613.207"/><line style="stroke:#181818;stroke-width:0.3;stroke-dasharray:5.0,5.0;" x1="1332.9" x2="1332.9" y1="46.9453" y2="613.207"/><line style="stroke:#181818;stroke-width:0.3;stroke-dasharray:5.0,5.0;" x1="1423.5" x2="1423.5" y1="46.9453" y2="613.207"/><rect fill="#E2E2F0" height="19.5727" rx="1.5" ry="1.5" style="stroke:#181818;stroke-width:0.3;" width="28.2" x="12" y="26.7727"/><text fill="#000000" font-family="sans-serif" font-size="8.4" lengthAdjust="spacing" textLength="19.8" x="16.2" y="40.0371">Actor</text><rect fill="#E2E2F0" height="19.5727" rx="1.5" ry="1.5" style="stroke:#181818;stroke-width:0.3;" width="28.2" x="12" y="612.607"/><text fill="#000000" font-family="sans-serif" font-size="8.4" lengthAdjust="spacing" textLength="19.8" x="16.2" y="625.8715">Actor</text><rect fill="#E2E2F0" height="19.5727" rx="1.5" ry="1.5" style="stroke:#181818;stroke-width:0.3;" width="96" x="102.9" y="26.7727"/><text fill="#000000" font-family="sans-serif" font-size="8.4" lengthAdjust="spacing" textLength="87.6" x="107.1" y="40.0371">CandidateNotificationUI</text><rect fill="#E2E2F0" height="19.5727" rx="1.5" ry="1.5" style="stroke:#181818;stroke-width:0.3;" width="96" x="102.9" y="612.607"/><text fill="#000000" font-family="sans-serif" font-size="8.4" lengthAdjust="spacing" textLength="87.6" x="107.1" y="625.8715">CandidateNotificationUI</text><rect fill="#E2E2F0" height="19.5727" rx="1.5" ry="1.5" style="stroke:#181818;stroke-width:0.3;" width="126" x="227.1" y="26.7727"/><text fill="#000000" font-family="sans-serif" font-size="8.4" lengthAdjust="spacing" textLength="117.6" x="231.3" y="40.0371">CandidateNotificationController</text><rect fill="#E2E2F0" height="19.5727" rx="1.5" ry="1.5" style="stroke:#181818;stroke-width:0.3;" width="126" x="227.1" y="612.607"/><text fill="#000000" font-family="sans-serif" font-size="8.4" lengthAdjust="spacing" textLength="117.6" x="231.3" y="625.8715">CandidateNotificationController</text><rect fill="#E2E2F0" height="19.5727" rx="1.5" ry="1.5" style="stroke:#181818;stroke-width:0.3;" width="99.6" x="421.5" y="612.607"/><text fill="#000000" font-family="sans-serif" font-size="8.4" lengthAdjust="spacing" textLength="91.2" x="425.7" y="625.8715">EmailNotificationHandler</text><rect fill="#E2E2F0" height="19.5727" rx="1.5" ry="1.5" style="stroke:#181818;stroke-width:0.3;" width="67.8" x="624" y="26.7727"/><text fill="#000000" font-family="sans-serif" font-size="8.4" lengthAdjust="spacing" textLength="59.4" x="628.2" y="40.0371">FollowUpServer</text><rect fill="#E2E2F0" height="19.5727" rx="1.5" ry="1.5" style="stroke:#181818;stroke-width:0.3;" width="67.8" x="624" y="612.607"/><text fill="#000000" font-family="sans-serif" font-size="8.4" lengthAdjust="spacing" textLength="59.4" x="628.2" y="625.8715">FollowUpServer</text><rect fill="#E2E2F0" height="19.5727" rx="1.5" ry="1.5" style="stroke:#181818;stroke-width:0.3;" width="85.8" x="697.8" y="26.7727"/><text fill="#000000" font-family="sans-serif" font-size="8.4" lengthAdjust="spacing" textLength="77.4" x="702" y="40.0371">AuthorizationService</text><rect fill="#E2E2F0" height="19.5727" rx="1.5" ry="1.5" style="stroke:#181818;stroke-width:0.3;" width="85.8" x="697.8" y="612.607"/><text fill="#000000" font-family="sans-serif" font-size="8.4" lengthAdjust="spacing" textLength="77.4" x="702" y="625.8715">AuthorizationService</text><rect fill="#E2E2F0" height="19.5727" rx="1.5" ry="1.5" style="stroke:#181818;stroke-width:0.3;" width="103.2" x="789.6" y="26.7727"/><text fill="#000000" font-family="sans-serif" font-size="8.4" lengthAdjust="spacing" textLength="94.8" x="793.8" y="40.0371">UserManagementService</text><rect fill="#E2E2F0" height="19.5727" rx="1.5" ry="1.5" style="stroke:#181818;stroke-width:0.3;" width="103.2" x="789.6" y="612.607"/><text fill="#000000" font-family="sans-serif" font-size="8.4" lengthAdjust="spacing" textLength="94.8" x="793.8" y="625.8715">UserManagementService</text><rect fill="#E2E2F0" height="19.5727" rx="1.5" ry="1.5" style="stroke:#181818;stroke-width:0.3;" width="140.4" x="898.8" y="26.7727"/><text fill="#000000" font-family="sans-serif" font-size="8.4" lengthAdjust="spacing" textLength="132" x="903" y="40.0371">JobApplicationManagementService</text><rect fill="#E2E2F0" height="19.5727" rx="1.5" ry="1.5" style="stroke:#181818;stroke-width:0.3;" width="140.4" x="898.8" y="612.607"/><text fill="#000000" font-family="sans-serif" font-size="8.4" lengthAdjust="spacing" textLength="132" x="903" y="625.8715">JobApplicationManagementService</text><rect fill="#E2E2F0" height="19.5727" rx="1.5" ry="1.5" style="stroke:#181818;stroke-width:0.3;" width="127.2" x="1045.2" y="26.7727"/><text fill="#000000" font-family="sans-serif" font-size="8.4" lengthAdjust="spacing" textLength="118.8" x="1049.4" y="40.0371">NotificationManagementService</text><rect fill="#E2E2F0" height="19.5727" rx="1.5" ry="1.5" style="stroke:#181818;stroke-width:0.3;" width="127.2" x="1045.2" y="612.607"/><text fill="#000000" font-family="sans-serif" font-size="8.4" lengthAdjust="spacing" textLength="118.8" x="1049.4" y="625.8715">NotificationManagementService</text><rect fill="#E2E2F0" height="19.5727" rx="1.5" ry="1.5" style="stroke:#181818;stroke-width:0.3;" width="78.6" x="1293.9" y="26.7727"/><text fill="#000000" font-family="sans-serif" font-size="8.4" lengthAdjust="spacing" textLength="70.2" x="1298.1" y="40.0371">NotificationFactory</text><rect fill="#E2E2F0" height="19.5727" rx="1.5" ry="1.5" style="stroke:#181818;stroke-width:0.3;" width="78.6" x="1293.9" y="612.607"/><text fill="#000000" font-family="sans-serif" font-size="8.4" lengthAdjust="spacing" textLength="70.2" x="1298.1" y="625.8715">NotificationFactory</text><rect fill="#E2E2F0" height="19.5727" rx="1.5" ry="1.5" style="stroke:#181818;stroke-width:0.3;" width="90.6" x="1378.5" y="26.7727"/><text fill="#000000" font-family="sans-serif" font-size="8.4" lengthAdjust="spacing" textLength="82.2" x="1382.7" y="40.0371">NotificationRepository</text><rect fill="#E2E2F0" height="19.5727" rx="1.5" ry="1.5" style="stroke:#181818;stroke-width:0.3;" width="90.6" x="1378.5" y="612.607"/><text fill="#000000" font-family="sans-serif" font-size="8.4" lengthAdjust="spacing" textLength="82.2" x="1382.7" y="625.8715">NotificationRepository</text><rect fill="#FFFFFF" height="13.9746" style="stroke:#181818;stroke-width:0.6;" width="6" x="23.1" y="52.9453"/><rect fill="#FFFFFF" height="18.7746" style="stroke:#181818;stroke-width:0.6;" width="6" x="23.1" y="214.1168"/><rect fill="#FFFFFF" height="18.7746" style="stroke:#181818;stroke-width:0.6;" width="6" x="23.1" y="251.666"/><rect fill="#FFFFFF" height="34.5492" style="stroke:#181818;stroke-width:0.6;" width="6" x="147.9" y="66.9199"/><rect fill="#FFFFFF" height="18.7746" style="stroke:#181818;stroke-width:0.6;" width="6" x="147.9" y="195.3422"/><rect fill="#FFFFFF" height="18.7746" style="stroke:#181818;stroke-width:0.6;" width="6" x="147.9" y="232.8914"/><rect fill="#FFFFFF" height="18.7746" style="stroke:#181818;stroke-width:0.6;" width="6" x="147.9" y="270.4406"/><rect fill="#FFFFFF" height="28.3746" style="stroke:#181818;stroke-width:0.6;" width="6" x="147.9" y="579.4324"/><rect fill="#FFFFFF" height="18.7746" style="stroke:#181818;stroke-width:0.6;" width="6" x="287.1" y="101.4691"/><rect fill="#FFFFFF" height="18.7746" style="stroke:#181818;stroke-width:0.6;" width="6" x="287.1" y="139.0184"/><rect fill="#FFFFFF" height="18.7746" style="stroke:#181818;stroke-width:0.6;" width="6" x="287.1" y="176.5676"/><rect fill="#FFFFFF" height="18.7746" style="stroke:#181818;stroke-width:0.6;" width="6" x="287.1" y="289.2152"/><rect fill="#FFFFFF" height="18.7746" style="stroke:#181818;stroke-width:0.6;" width="6" x="287.1" y="326.7645"/><rect fill="#FFFFFF" height="98.2711" style="stroke:#181818;stroke-width:0.6;" width="6" x="287.1" y="364.3137"/><rect fill="#FFFFFF" height="22.9746" style="stroke:#181818;stroke-width:0.6;" width="6" x="287.1" y="556.4578"/><rect fill="#FFFFFF" height="18.7746" style="stroke:#181818;stroke-width:0.6;" width="6" x="468.3" y="409.2609"/><rect fill="#FFFFFF" height="18.7746" style="stroke:#181818;stroke-width:0.6;" width="6" x="737.7" y="120.2437"/><rect fill="#FFFFFF" height="18.7746" style="stroke:#181818;stroke-width:0.6;" width="6" x="737.7" y="307.9898"/><rect fill="#FFFFFF" height="18.7746" style="stroke:#181818;stroke-width:0.6;" width="6" x="838.2" y="345.5391"/><rect fill="#FFFFFF" height="18.7746" style="stroke:#181818;stroke-width:0.6;" width="6" x="966" y="157.793"/><rect fill="#FFFFFF" height="18.7746" style="stroke:#181818;stroke-width:0.6;" width="6" x="1105.8" y="462.5848"/><rect fill="#FFFFFF" height="18.7746" style="stroke:#181818;stroke-width:0.6;" width="6" x="1105.8" y="500.134"/><rect fill="#FFFFFF" height="18.7746" style="stroke:#181818;stroke-width:0.6;" width="6" x="1105.8" y="537.6832"/><rect fill="#FFFFFF" height="18.7746" style="stroke:#181818;stroke-width:0.6;" width="6" x="1330.2" y="481.3594"/><rect fill="#FFFFFF" height="18.7746" style="stroke:#181818;stroke-width:0.6;" width="6" x="1420.8" y="518.9086"/><polygon fill="#181818" points="140.7,64.5199,146.7,66.9199,140.7,69.3199,143.1,66.9199" style="stroke:#181818;stroke-width:0.6;"/><line style="stroke:#181818;stroke-width:0.6;" x1="26.1" x2="144.3" y1="66.9199" y2="66.9199"/><text fill="#000000" font-family="sans-serif" font-size="7.8" font-weight="bold" lengthAdjust="spacing" textLength="4.2" x="30.3" y="63.7623">1</text><text fill="#000000" font-family="sans-serif" font-size="7.8" lengthAdjust="spacing" textLength="96" x="36.9" y="63.7623">requests to notify candidate</text><path d="M6,75.9199 L49.8,75.9199 L49.8,81.4945 L43.8,87.4945 L6,87.4945 L6,75.9199 " fill="#EEEEEE" style="stroke:#000000;stroke-width:0.8999999999999999;"/><rect fill="none" height="527.0871" style="stroke:#000000;stroke-width:0.8999999999999999;" width="1475.1" x="6" y="75.9199"/><text fill="#000000" font-family="sans-serif" font-size="7.8" font-weight="bold" lengthAdjust="spacing" textLength="16.8" x="15" y="84.9369">loop</text><text fill="#000000" font-family="sans-serif" font-size="6.6" font-weight="bold" lengthAdjust="spacing" textLength="65.4" x="58.8" y="84.242">[for each candidate]</text><polygon fill="#181818" points="279.9,99.0691,285.9,101.4691,279.9,103.8691,282.3,101.4691" style="stroke:#181818;stroke-width:0.6;"/><line style="stroke:#181818;stroke-width:0.6;" x1="150.9" x2="283.5" y1="101.4691" y2="101.4691"/><text fill="#000000" font-family="sans-serif" font-size="7.8" font-weight="bold" lengthAdjust="spacing" textLength="4.2" x="155.1" y="98.3115">2</text><text fill="#000000" font-family="sans-serif" font-size="7.8" lengthAdjust="spacing" textLength="65.4" x="161.7" y="98.3115">getMyCandidates()</text><polygon fill="#181818" points="730.5,117.8438,736.5,120.2437,730.5,122.6438,732.9,120.2437" style="stroke:#181818;stroke-width:0.6;"/><line style="stroke:#181818;stroke-width:0.6;" x1="290.1" x2="734.1" y1="120.2437" y2="120.2437"/><text fill="#000000" font-family="sans-serif" font-size="7.8" font-weight="bold" lengthAdjust="spacing" textLength="4.2" x="294.3" y="117.0861">3</text><text fill="#000000" font-family="sans-serif" font-size="7.8" lengthAdjust="spacing" textLength="240" x="300.9" y="117.0861">getLoggedUserWithPermission(BaseRoles.CUSTOMER_MANAGER)</text><polygon fill="#181818" points="299.7,136.6184,293.7,139.0184,299.7,141.4184,297.3,139.0184" style="stroke:#181818;stroke-width:0.6;"/><line style="stroke:#181818;stroke-width:0.6;stroke-dasharray:2.0,2.0;" x1="296.1" x2="740.1" y1="139.0184" y2="139.0184"/><text fill="#000000" font-family="sans-serif" font-size="7.8" font-weight="bold" lengthAdjust="spacing" textLength="4.2" x="303.3" y="135.8607">4</text><text fill="#000000" font-family="sans-serif" font-size="7.8" lengthAdjust="spacing" textLength="15" x="309.9" y="135.8607">user</text><polygon fill="#181818" points="958.8,155.393,964.8,157.793,958.8,160.193,961.2,157.793" style="stroke:#181818;stroke-width:0.6;"/><line style="stroke:#181818;stroke-width:0.6;" x1="290.1" x2="962.4" y1="157.793" y2="157.793"/><text fill="#000000" font-family="sans-serif" font-size="7.8" font-weight="bold" lengthAdjust="spacing" textLength="4.2" x="294.3" y="154.6354">5</text><text fill="#000000" font-family="sans-serif" font-size="7.8" lengthAdjust="spacing" textLength="80.4" x="300.9" y="154.6354">getMyCandidates(user)</text><polygon fill="#181818" points="299.7,174.1676,293.7,176.5676,299.7,178.9676,297.3,176.5676" style="stroke:#181818;stroke-width:0.6;"/><line style="stroke:#181818;stroke-width:0.6;stroke-dasharray:2.0,2.0;" x1="296.1" x2="968.4" y1="176.5676" y2="176.5676"/><text fill="#000000" font-family="sans-serif" font-size="7.8" font-weight="bold" lengthAdjust="spacing" textLength="4.2" x="303.3" y="173.41">6</text><text fill="#000000" font-family="sans-serif" font-size="7.8" lengthAdjust="spacing" textLength="37.8" x="309.9" y="173.41">candidates</text><polygon fill="#181818" points="160.5,192.9422,154.5,195.3422,160.5,197.7422,158.1,195.3422" style="stroke:#181818;stroke-width:0.6;"/><line style="stroke:#181818;stroke-width:0.6;stroke-dasharray:2.0,2.0;" x1="156.9" x2="289.5" y1="195.3422" y2="195.3422"/><text fill="#000000" font-family="sans-serif" font-size="7.8" font-weight="bold" lengthAdjust="spacing" textLength="4.2" x="164.1" y="192.1846">7</text><text fill="#000000" font-family="sans-serif" font-size="7.8" lengthAdjust="spacing" textLength="37.8" x="170.7" y="192.1846">candidates</text><polygon fill="#181818" points="35.7,211.7168,29.7,214.1168,35.7,216.5168,33.3,214.1168" style="stroke:#181818;stroke-width:0.6;"/><line style="stroke:#181818;stroke-width:0.6;stroke-dasharray:2.0,2.0;" x1="32.1" x2="150.3" y1="214.1168" y2="214.1168"/><text fill="#000000" font-family="sans-serif" font-size="7.8" font-weight="bold" lengthAdjust="spacing" textLength="4.2" x="39.3" y="210.9592">8</text><text fill="#000000" font-family="sans-serif" font-size="7.8" lengthAdjust="spacing" textLength="100.8" x="45.9" y="210.9592">displays candidates available</text><polygon fill="#181818" points="140.7,230.4914,146.7,232.8914,140.7,235.2914,143.1,232.8914" style="stroke:#181818;stroke-width:0.6;"/><line style="stroke:#181818;stroke-width:0.6;" x1="26.1" x2="144.3" y1="232.8914" y2="232.8914"/><text fill="#000000" font-family="sans-serif" font-size="7.8" font-weight="bold" lengthAdjust="spacing" textLength="4.2" x="30.3" y="229.7338">9</text><text fill="#000000" font-family="sans-serif" font-size="7.8" lengthAdjust="spacing" textLength="61.2" x="36.9" y="229.7338">selects candidate</text><polygon fill="#181818" points="35.7,249.266,29.7,251.666,35.7,254.066,33.3,251.666" style="stroke:#181818;stroke-width:0.6;"/><line style="stroke:#181818;stroke-width:0.6;stroke-dasharray:2.0,2.0;" x1="32.1" x2="150.3" y1="251.666" y2="251.666"/><text fill="#000000" font-family="sans-serif" font-size="7.8" font-weight="bold" lengthAdjust="spacing" textLength="8.4" x="39.3" y="248.5084">10</text><text fill="#000000" font-family="sans-serif" font-size="7.8" lengthAdjust="spacing" textLength="91.2" x="50.1" y="248.5084">requests email information</text><polygon fill="#181818" points="140.7,268.0406,146.7,270.4406,140.7,272.8406,143.1,270.4406" style="stroke:#181818;stroke-width:0.6;"/><line style="stroke:#181818;stroke-width:0.6;" x1="26.1" x2="144.3" y1="270.4406" y2="270.4406"/><text fill="#000000" font-family="sans-serif" font-size="7.8" font-weight="bold" lengthAdjust="spacing" textLength="8.4" x="30.3" y="267.283">11</text><text fill="#000000" font-family="sans-serif" font-size="7.8" lengthAdjust="spacing" textLength="94.2" x="41.1" y="267.283">inputs email content (body)</text><polygon fill="#181818" points="279.9,286.8152,285.9,289.2152,279.9,291.6152,282.3,289.2152" style="stroke:#181818;stroke-width:0.6;"/><line style="stroke:#181818;stroke-width:0.6;" x1="150.9" x2="283.5" y1="289.2152" y2="289.2152"/><text fill="#000000" font-family="sans-serif" font-size="7.8" font-weight="bold" lengthAdjust="spacing" textLength="8.4" x="155.1" y="286.0576">12</text><text fill="#000000" font-family="sans-serif" font-size="7.8" lengthAdjust="spacing" textLength="111" x="165.9" y="286.0576">sendEmail(body, phoneNumber)</text><polygon fill="#181818" points="730.5,305.5898,736.5,307.9898,730.5,310.3898,732.9,307.9898" style="stroke:#181818;stroke-width:0.6;"/><line style="stroke:#181818;stroke-width:0.6;" x1="290.1" x2="734.1" y1="307.9898" y2="307.9898"/><text fill="#000000" font-family="sans-serif" font-size="7.8" font-weight="bold" lengthAdjust="spacing" textLength="8.4" x="294.3" y="304.8322">13</text><text fill="#000000" font-family="sans-serif" font-size="7.8" lengthAdjust="spacing" textLength="240" x="305.1" y="304.8322">getLoggedUserWithPermission(BaseRoles.CUSTOMER_MANAGER)</text><polygon fill="#181818" points="299.7,324.3645,293.7,326.7645,299.7,329.1645,297.3,326.7645" style="stroke:#181818;stroke-width:0.6;"/><line style="stroke:#181818;stroke-width:0.6;stroke-dasharray:2.0,2.0;" x1="296.1" x2="740.1" y1="326.7645" y2="326.7645"/><text fill="#000000" font-family="sans-serif" font-size="7.8" font-weight="bold" lengthAdjust="spacing" textLength="8.4" x="303.3" y="323.6068">14</text><text fill="#000000" font-family="sans-serif" font-size="7.8" lengthAdjust="spacing" textLength="15" x="314.1" y="323.6068">user</text><polygon fill="#181818" points="831,343.1391,837,345.5391,831,347.9391,833.4,345.5391" style="stroke:#181818;stroke-width:0.6;"/><line style="stroke:#181818;stroke-width:0.6;" x1="290.1" x2="834.6" y1="345.5391" y2="345.5391"/><text fill="#000000" font-family="sans-serif" font-size="7.8" font-weight="bold" lengthAdjust="spacing" textLength="8.4" x="294.3" y="342.3814">15</text><text fill="#000000" font-family="sans-serif" font-size="7.8" lengthAdjust="spacing" textLength="101.4" x="305.1" y="342.3814">findByNumber(phoneNumber)</text><polygon fill="#181818" points="299.7,361.9137,293.7,364.3137,299.7,366.7137,297.3,364.3137" style="stroke:#181818;stroke-width:0.6;"/><line style="stroke:#181818;stroke-width:0.6;stroke-dasharray:2.0,2.0;" x1="296.1" x2="840.6" y1="364.3137" y2="364.3137"/><text fill="#000000" font-family="sans-serif" font-size="7.8" font-weight="bold" lengthAdjust="spacing" textLength="8.4" x="303.3" y="361.1561">16</text><text fill="#000000" font-family="sans-serif" font-size="7.8" lengthAdjust="spacing" textLength="33.6" x="314.1" y="361.1561">candidate</text><polygon fill="#181818" points="414.3,380.6883,420.3,383.0883,414.3,385.4883,416.7,383.0883" style="stroke:#181818;stroke-width:0.6;"/><line style="stroke:#181818;stroke-width:0.6;" x1="293.1" x2="417.9" y1="383.0883" y2="383.0883"/><text fill="#000000" font-family="sans-serif" font-size="7.8" font-weight="bold" lengthAdjust="spacing" textLength="8.4" x="297.3" y="379.9307">17</text><text fill="#000000" font-family="sans-serif" font-size="7.8" lengthAdjust="spacing" textLength="103.2" x="308.1" y="379.9307">create(candidate, user, email)</text><rect fill="#E2E2F0" height="19.5727" rx="1.5" ry="1.5" style="stroke:#181818;stroke-width:0.3;" width="99.6" x="421.5" y="369.1137"/><text fill="#000000" font-family="sans-serif" font-size="8.4" lengthAdjust="spacing" textLength="91.2" x="425.7" y="382.3781">EmailNotificationHandler</text><polygon fill="#181818" points="461.1,406.8609,467.1,409.2609,461.1,411.6609,463.5,409.2609" style="stroke:#181818;stroke-width:0.6;"/><line style="stroke:#181818;stroke-width:0.6;" x1="293.1" x2="464.7" y1="409.2609" y2="409.2609"/><text fill="#000000" font-family="sans-serif" font-size="7.8" font-weight="bold" lengthAdjust="spacing" textLength="8.4" x="297.3" y="406.1033">18</text><text fill="#000000" font-family="sans-serif" font-size="7.8" lengthAdjust="spacing" textLength="15.6" x="308.1" y="406.1033">run()</text><polygon fill="#181818" points="650.7,425.6355,656.7,428.0355,650.7,430.4355,653.1,428.0355" style="stroke:#181818;stroke-width:0.6;"/><line style="stroke:#181818;stroke-width:0.6;" x1="471.3" x2="654.3" y1="428.0355" y2="428.0355"/><text fill="#000000" font-family="sans-serif" font-size="7.8" font-weight="bold" lengthAdjust="spacing" textLength="8.4" x="475.5" y="424.8779">19</text><text fill="#000000" font-family="sans-serif" font-size="7.8" lengthAdjust="spacing" textLength="158.4" x="486.3" y="424.8779">establishes connection and sends information</text><path d="M221.1,437.0355 L257.7,437.0355 L257.7,442.6102 L251.7,448.6102 L221.1,448.6102 L221.1,437.0355 " fill="#EEEEEE" style="stroke:#000000;stroke-width:0.8999999999999999;"/><rect fill="none" height="124.2223" style="stroke:#000000;stroke-width:0.8999999999999999;" width="1254" x="221.1" y="437.0355"/><text fill="#000000" font-family="sans-serif" font-size="7.8" font-weight="bold" lengthAdjust="spacing" textLength="9.6" x="230.1" y="446.0525">alt</text><text fill="#000000" font-family="sans-serif" font-size="6.6" font-weight="bold" lengthAdjust="spacing" textLength="58.8" x="266.7" y="445.3576">[if email success]</text><polygon fill="#181818" points="1098.6,460.1848,1104.6,462.5848,1098.6,464.9848,1101,462.5848" style="stroke:#181818;stroke-width:0.6;"/><line style="stroke:#181818;stroke-width:0.6;" x1="290.1" x2="1102.2" y1="462.5848" y2="462.5848"/><text fill="#000000" font-family="sans-serif" font-size="7.8" font-weight="bold" lengthAdjust="spacing" textLength="8.4" x="294.3" y="459.4271">20</text><text fill="#000000" font-family="sans-serif" font-size="7.8" lengthAdjust="spacing" textLength="237" x="305.1" y="459.4271">registerNotification(user, candidate,notifInfo, NotificationType.EMAIL)</text><polygon fill="#181818" points="1323,478.9594,1329,481.3594,1323,483.7594,1325.4,481.3594" style="stroke:#181818;stroke-width:0.6;"/><line style="stroke:#181818;stroke-width:0.6;" x1="1108.8" x2="1326.6" y1="481.3594" y2="481.3594"/><text fill="#000000" font-family="sans-serif" font-size="7.8" font-weight="bold" lengthAdjust="spacing" textLength="8.4" x="1113" y="478.2018">21</text><text fill="#000000" font-family="sans-serif" font-size="7.8" lengthAdjust="spacing" textLength="196.2" x="1123.8" y="478.2018">newNotification(user, candidate, NotificationType.EMAIL)</text><polygon fill="#181818" points="1118.4,497.734,1112.4,500.134,1118.4,502.534,1116,500.134" style="stroke:#181818;stroke-width:0.6;"/><line style="stroke:#181818;stroke-width:0.6;stroke-dasharray:2.0,2.0;" x1="1114.8" x2="1332.6" y1="500.134" y2="500.134"/><text fill="#000000" font-family="sans-serif" font-size="7.8" font-weight="bold" lengthAdjust="spacing" textLength="8.4" x="1122" y="496.9764">22</text><text fill="#000000" font-family="sans-serif" font-size="7.8" lengthAdjust="spacing" textLength="37.2" x="1132.8" y="496.9764">notification</text><polygon fill="#181818" points="1413.6,516.5086,1419.6,518.9086,1413.6,521.3086,1416,518.9086" style="stroke:#181818;stroke-width:0.6;"/><line style="stroke:#181818;stroke-width:0.6;" x1="1108.8" x2="1417.2" y1="518.9086" y2="518.9086"/><text fill="#000000" font-family="sans-serif" font-size="7.8" font-weight="bold" lengthAdjust="spacing" textLength="8.4" x="1113" y="515.751">23</text><text fill="#000000" font-family="sans-serif" font-size="7.8" lengthAdjust="spacing" textLength="57.6" x="1123.8" y="515.751">save(notification)</text><polygon fill="#181818" points="1118.4,535.2832,1112.4,537.6832,1118.4,540.0832,1116,537.6832" style="stroke:#181818;stroke-width:0.6;"/><line style="stroke:#181818;stroke-width:0.6;stroke-dasharray:2.0,2.0;" x1="1114.8" x2="1423.2" y1="537.6832" y2="537.6832"/><text fill="#000000" font-family="sans-serif" font-size="7.8" font-weight="bold" lengthAdjust="spacing" textLength="8.4" x="1122" y="534.5256">24</text><text fill="#000000" font-family="sans-serif" font-size="7.8" lengthAdjust="spacing" textLength="37.2" x="1132.8" y="534.5256">notification</text><polygon fill="#181818" points="299.7,554.0578,293.7,556.4578,299.7,558.8578,297.3,556.4578" style="stroke:#181818;stroke-width:0.6;"/><line style="stroke:#181818;stroke-width:0.6;stroke-dasharray:2.0,2.0;" x1="296.1" x2="1108.2" y1="556.4578" y2="556.4578"/><text fill="#000000" font-family="sans-serif" font-size="7.8" font-weight="bold" lengthAdjust="spacing" textLength="8.4" x="303.3" y="553.3002">25</text><text fill="#000000" font-family="sans-serif" font-size="7.8" lengthAdjust="spacing" textLength="2.4" x="314.1" y="553.3002">&#160;</text><polygon fill="#181818" points="160.5,577.0324,154.5,579.4324,160.5,581.8324,158.1,579.4324" style="stroke:#181818;stroke-width:0.6;"/><line style="stroke:#181818;stroke-width:0.6;stroke-dasharray:2.0,2.0;" x1="156.9" x2="289.5" y1="579.4324" y2="579.4324"/><text fill="#000000" font-family="sans-serif" font-size="7.8" font-weight="bold" lengthAdjust="spacing" textLength="8.4" x="164.1" y="576.2748">26</text><text fill="#000000" font-family="sans-serif" font-size="7.8" lengthAdjust="spacing" textLength="2.4" x="174.9" y="576.2748">&#160;</text><polygon fill="#181818" points="32.7,595.807,26.7,598.207,32.7,600.607,30.3,598.207" style="stroke:#181818;stroke-width:0.6;"/><line style="stroke:#181818;stroke-width:0.6;stroke-dasharray:2.0,2.0;" x1="29.1" x2="147.3" y1="598.207" y2="598.207"/><text fill="#000000" font-family="sans-serif" font-size="7.8" font-weight="bold" lengthAdjust="spacing" textLength="8.4" x="36.3" y="595.0494">27</text><text fill="#000000" font-family="sans-serif" font-size="7.8" lengthAdjust="spacing" textLength="90.6" x="47.1" y="595.0494">display operation success</text><!--SRC=[rLLDRvj04BtpA_PM4jb9S-aXXqgEQxUfuhIoO_LOhM5iLe9ToYwEwA_lx0SBwsBY7cif4e7ttipm7hFlCgLAUNzxM-QKgxh8Rn9Ht4huLGDFO9eoUgXe4KMAgHp8TdFt_ku3sRZ7v5FxcDPAyBhOGHL59QqKIrY9UcIMA54HAWbDLF1WJddAKghWMIYsPmbLJF3jeuRMx6taN71LYJm78vweAWyuYuAol8__WY8EdDdB0Bz4AV6wBJTG7IrAcgjmbbfbecA_ZQ16Cdm3UZIylpac0NQB_1Nbz005SDK3r_ZW5FnLx6PbcRjM1sa9vQUi_dY37Au1OwmbrUuq7hiyDQaFNaCf90lm-bQ4FwIn8nfaJCO_Cls89f9xKkcSI2M94fRHw46icr4Afppx3zeVvKAKP8_9GKpMuw0gQckxKVq0QjNuTCZugY-9AlxQnCEGaEpSilmdSJX0gitwmLJs7Qg2IOd3nWzKmbha86_csytBjzLY_NCrUvvzNgo3AaQv6yC5eIqnxNhLjWSJjz317ftT0pDgdP4EN4mSlLVVlq8Pa2ryg8dMmZF4eAfsJ3kZtowwVqzI9d6TDBB79lI8doJTvN3E9Hs283qISaYKl30oGGC-UA0N0M4SirIO65zSdV6ozW89hXlyk4Yy4sbpzMOV_hLBuAdPHOOu8MKcE3oRFJcUrlyYhhv9jzIGk6SyVMZiXF6vQK_IupPYApAKsk1TEVoPNjnwlxxM_0eG47kPYI5FhAbNfnITcvhZ6l7AxL4HjGW4suC1iPWlZ3EJ6OORyy4ngsW5GQInNGQfyx_U85wTvegmlOkQh9C4fEm6QjUuYVM1IGLLVo_7TgHkHeD_nDgJO7-_D2NSB5QpnwSHB_oHuOks3IpjXyNXTRJu9ILzaV2EENswMjDmTDxJ_Kji6No5vuVG1vR-AkaHuhxW9UsPmwvJ-PVs37MiFPVuyIvip35Pc9N-aXxToqDhcOWIAjDf5xR8Akjp5o__0000]--></g></svg>