<?xml version="1.0" encoding="us-ascii" standalone="no"?><svg xmlns="http://www.w3.org/2000/svg" xmlns:xlink="http://www.w3.org/1999/xlink" contentStyleType="text/css" height="356px" preserveAspectRatio="none" style="width:365px;height:356px;background:#FFFFFF;" version="1.1" viewBox="0 0 365 356" width="365px" zoomAndPan="magnify"><defs/><g><text fill="#000000" font-family="sans-serif" font-size="14" font-weight="bold" lengthAdjust="spacing" textLength="241" x="63.75" y="30.1074">US1016 System Sequence Diagram</text><rect fill="#FFFFFF" height="23.291" style="stroke:#181818;stroke-width:1.0;" width="10" x="38.5" y="88.2422"/><rect fill="#FFFFFF" height="31.291" style="stroke:#181818;stroke-width:1.0;" width="10" x="38.5" y="169.1152"/><rect fill="#FFFFFF" height="31.291" style="stroke:#181818;stroke-width:1.0;" width="10" x="38.5" y="231.6973"/><rect fill="#FFFFFF" height="57.582" style="stroke:#181818;stroke-width:1.0;" width="10" x="314.5" y="111.5332"/><rect fill="#FFFFFF" height="31.291" style="stroke:#181818;stroke-width:1.0;" width="10" x="314.5" y="200.4063"/><rect fill="#FFFFFF" height="31.291" style="stroke:#181818;stroke-width:1.0;" width="10" x="314.5" y="262.9883"/><rect fill="none" height="175.7461" style="stroke:#000000;stroke-width:1.5;" width="349.5" x="10" y="126.5332"/><line style="stroke:#181818;stroke-width:0.5;stroke-dasharray:5.0,5.0;" x1="43" x2="43" y1="78.2422" y2="319.2793"/><line style="stroke:#181818;stroke-width:0.5;stroke-dasharray:5.0,5.0;" x1="319.5" x2="319.5" y1="78.2422" y2="319.2793"/><rect fill="#E2E2F0" height="32.6211" rx="2.5" ry="2.5" style="stroke:#181818;stroke-width:0.5;" width="47" x="20" y="44.6211"/><text fill="#000000" font-family="sans-serif" font-size="14" lengthAdjust="spacing" textLength="33" x="27" y="66.7285">Actor</text><rect fill="#E2E2F0" height="32.6211" rx="2.5" ry="2.5" style="stroke:#181818;stroke-width:0.5;" width="47" x="20" y="318.2793"/><text fill="#000000" font-family="sans-serif" font-size="14" lengthAdjust="spacing" textLength="33" x="27" y="340.3867">Actor</text><rect fill="#E2E2F0" height="32.6211" rx="2.5" ry="2.5" style="stroke:#181818;stroke-width:0.5;" width="60" x="289.5" y="44.6211"/><text fill="#000000" font-family="sans-serif" font-size="14" lengthAdjust="spacing" textLength="46" x="296.5" y="66.7285">System</text><rect fill="#E2E2F0" height="32.6211" rx="2.5" ry="2.5" style="stroke:#181818;stroke-width:0.5;" width="60" x="289.5" y="318.2793"/><text fill="#000000" font-family="sans-serif" font-size="14" lengthAdjust="spacing" textLength="46" x="296.5" y="340.3867">System</text><rect fill="#FFFFFF" height="23.291" style="stroke:#181818;stroke-width:1.0;" width="10" x="38.5" y="88.2422"/><rect fill="#FFFFFF" height="31.291" style="stroke:#181818;stroke-width:1.0;" width="10" x="38.5" y="169.1152"/><rect fill="#FFFFFF" height="31.291" style="stroke:#181818;stroke-width:1.0;" width="10" x="38.5" y="231.6973"/><rect fill="#FFFFFF" height="57.582" style="stroke:#181818;stroke-width:1.0;" width="10" x="314.5" y="111.5332"/><rect fill="#FFFFFF" height="31.291" style="stroke:#181818;stroke-width:1.0;" width="10" x="314.5" y="200.4063"/><rect fill="#FFFFFF" height="31.291" style="stroke:#181818;stroke-width:1.0;" width="10" x="314.5" y="262.9883"/><polygon fill="#181818" points="302.5,107.5332,312.5,111.5332,302.5,115.5332,306.5,111.5332" style="stroke:#181818;stroke-width:1.0;"/><line style="stroke:#181818;stroke-width:1.0;" x1="43.5" x2="308.5" y1="111.5332" y2="111.5332"/><text fill="#000000" font-family="sans-serif" font-size="13" font-weight="bold" lengthAdjust="spacing" textLength="7" x="50.5" y="106.2705">1</text><text fill="#000000" font-family="sans-serif" font-size="13" lengthAdjust="spacing" textLength="160" x="61.5" y="106.2705">requests to notify candidate</text><path d="M10,126.5332 L83,126.5332 L83,135.8242 L73,145.8242 L10,145.8242 L10,126.5332 " fill="#EEEEEE" style="stroke:#000000;stroke-width:1.5;"/><rect fill="none" height="175.7461" style="stroke:#000000;stroke-width:1.5;" width="349.5" x="10" y="126.5332"/><text fill="#000000" font-family="sans-serif" font-size="13" font-weight="bold" lengthAdjust="spacing" textLength="28" x="25" y="141.5615">loop</text><text fill="#000000" font-family="sans-serif" font-size="11" font-weight="bold" lengthAdjust="spacing" textLength="109" x="98" y="140.4033">[for each candidate]</text><polygon fill="#181818" points="59.5,165.1152,49.5,169.1152,59.5,173.1152,55.5,169.1152" style="stroke:#181818;stroke-width:1.0;"/><line style="stroke:#181818;stroke-width:1.0;stroke-dasharray:2.0,2.0;" x1="53.5" x2="318.5" y1="169.1152" y2="169.1152"/><text fill="#000000" font-family="sans-serif" font-size="13" font-weight="bold" lengthAdjust="spacing" textLength="7" x="65.5" y="163.8525">2</text><text fill="#000000" font-family="sans-serif" font-size="13" lengthAdjust="spacing" textLength="168" x="76.5" y="163.8525">displays candidates available</text><polygon fill="#181818" points="302.5,196.4063,312.5,200.4063,302.5,204.4063,306.5,200.4063" style="stroke:#181818;stroke-width:1.0;"/><line style="stroke:#181818;stroke-width:1.0;" x1="43.5" x2="308.5" y1="200.4063" y2="200.4063"/><text fill="#000000" font-family="sans-serif" font-size="13" font-weight="bold" lengthAdjust="spacing" textLength="7" x="50.5" y="195.1436">3</text><text fill="#000000" font-family="sans-serif" font-size="13" lengthAdjust="spacing" textLength="102" x="61.5" y="195.1436">selects candidate</text><polygon fill="#181818" points="59.5,227.6973,49.5,231.6973,59.5,235.6973,55.5,231.6973" style="stroke:#181818;stroke-width:1.0;"/><line style="stroke:#181818;stroke-width:1.0;stroke-dasharray:2.0,2.0;" x1="53.5" x2="318.5" y1="231.6973" y2="231.6973"/><text fill="#000000" font-family="sans-serif" font-size="13" font-weight="bold" lengthAdjust="spacing" textLength="7" x="65.5" y="226.4346">4</text><text fill="#000000" font-family="sans-serif" font-size="13" lengthAdjust="spacing" textLength="236" x="76.5" y="226.4346">requests email information and password</text><polygon fill="#181818" points="302.5,258.9883,312.5,262.9883,302.5,266.9883,306.5,262.9883" style="stroke:#181818;stroke-width:1.0;"/><line style="stroke:#181818;stroke-width:1.0;" x1="43.5" x2="308.5" y1="262.9883" y2="262.9883"/><text fill="#000000" font-family="sans-serif" font-size="13" font-weight="bold" lengthAdjust="spacing" textLength="7" x="50.5" y="257.7256">5</text><text fill="#000000" font-family="sans-serif" font-size="13" lengthAdjust="spacing" textLength="102" x="61.5" y="257.7256">inputs information</text><polygon fill="#181818" points="54.5,290.2793,44.5,294.2793,54.5,298.2793,50.5,294.2793" style="stroke:#181818;stroke-width:1.0;"/><line style="stroke:#181818;stroke-width:1.0;stroke-dasharray:2.0,2.0;" x1="48.5" x2="318.5" y1="294.2793" y2="294.2793"/><text fill="#000000" font-family="sans-serif" font-size="13" font-weight="bold" lengthAdjust="spacing" textLength="7" x="60.5" y="289.0166">6</text><text fill="#000000" font-family="sans-serif" font-size="13" lengthAdjust="spacing" textLength="141" x="71.5" y="289.0166">displays operation result</text><!--SRC=[bP0zRiCm34PtdO9R9zVDqi53WGAzWT43C1BJ2D1VHIg5RrygIOquKpCOiCLFxtlcqr6ay3IE9M2I5iEppN5a-cwKB0tEurV5Q8nu2GIVy-vbzmhpma8HvciAFlvIs2Id5lTKZIbOnLjV50llLd85P40hcy6Lf1DUs2Z0YZ-Xq3ce3mnlVG8Jr5x6mY0PKXP_MC1YSjvfsZYwltZvE4D3pWKEsg-XuysbpXsKtsicS9vr1Ngq1jJsX3xWFcmAEdFJjlLa2cI5_oktbLX_ag8sWq-g7L5yJg0uACZyawjxGCUdqfHtGth4PrrABbGl7fMu1RatC8RKhszQNty1]--></g></svg>