<?xml version="1.0" encoding="us-ascii" standalone="no"?><svg xmlns="http://www.w3.org/2000/svg" xmlns:xlink="http://www.w3.org/1999/xlink" contentStyleType="text/css" height="531.5px" preserveAspectRatio="none" style="width:863px;height:531px;background:#FFFFFF;" version="1.1" viewBox="0 0 863 531" width="863.5px" zoomAndPan="magnify"><defs/><g><!--cluster CandidateAggregate--><g id="cluster_CandidateAggregate"><path d="M131.25,3.0068 L203.75,3.0068 A1.875,1.875 0 0 1 205,4.2568 L208.5,15.3174 L238.75,15.3174 A1.25,1.25 0 0 1 240,16.5674 L240,131.7568 A1.25,1.25 0 0 1 238.75,133.0068 L131.25,133.0068 A1.25,1.25 0 0 1 130,131.7568 L130,4.2568 A1.25,1.25 0 0 1 131.25,3.0068 " fill="none" style="stroke:#000000;stroke-width:0.75;"/><line style="stroke:#000000;stroke-width:0.75;" x1="130" x2="208.5" y1="15.3174" y2="15.3174"/><text fill="#000000" font-family="sans-serif" font-size="7" font-weight="bold" lengthAdjust="spacing" textLength="72" x="132" y="11.5605">CandidateAggregate</text></g><!--cluster JobOfferAggregate--><g id="cluster_JobOfferAggregate"><path d="M359.25,336.0068 L427.25,336.0068 A1.875,1.875 0 0 1 428.5,337.2568 L432,348.3174 L858.75,348.3174 A1.25,1.25 0 0 1 860,349.5674 L860,526.7568 A1.25,1.25 0 0 1 858.75,528.0068 L359.25,528.0068 A1.25,1.25 0 0 1 358,526.7568 L358,337.2568 A1.25,1.25 0 0 1 359.25,336.0068 " fill="none" style="stroke:#000000;stroke-width:0.75;"/><line style="stroke:#000000;stroke-width:0.75;" x1="358" x2="432" y1="348.3174" y2="348.3174"/><text fill="#000000" font-family="sans-serif" font-size="7" font-weight="bold" lengthAdjust="spacing" textLength="67.5" x="360" y="344.5605">JobOfferAggregate</text></g><!--cluster ApplicationAggregate--><g id="cluster_ApplicationAggregate"><path d="M4.25,251.5068 L80.25,251.5068 A1.875,1.875 0 0 1 81.5,252.7568 L85,263.8174 L344.75,263.8174 A1.25,1.25 0 0 1 346,265.0674 L346,393.2568 A1.25,1.25 0 0 1 344.75,394.5068 L4.25,394.5068 A1.25,1.25 0 0 1 3,393.2568 L3,252.7568 A1.25,1.25 0 0 1 4.25,251.5068 " fill="none" style="stroke:#000000;stroke-width:0.75;"/><line style="stroke:#000000;stroke-width:0.75;" x1="3" x2="85" y1="263.8174" y2="263.8174"/><text fill="#000000" font-family="sans-serif" font-size="7" font-weight="bold" lengthAdjust="spacing" textLength="75.5" x="5" y="260.0605">ApplicationAggregate</text></g><!--class Candidate--><g id="elem_Candidate"><rect codeLine="14" fill="#F1F1F1" height="33.3105" id="Candidate" rx="1.25" ry="1.25" style="stroke:#181818;stroke-width:0.25;" width="48.5" x="160.75" y="91.5068"/><ellipse cx="168.25" cy="99.5068" fill="#ADD1B2" rx="5.5" ry="5.5" style="stroke:#181818;stroke-width:0.5;"/><path d="M167.6797,99.9053 L167.6797,101.1553 L169.8438,101.1553 L169.8438,100.6943 Q169.8438,100.3896 169.9609,100.2568 Q170.0859,100.124 170.2734,100.124 Q170.4609,100.124 170.5781,100.2568 Q170.6953,100.3896 170.6953,100.6943 L170.6953,102.0068 L166.6953,102.0068 Q166.3828,102.0068 166.25,101.8896 Q166.125,101.7725 166.125,101.5771 Q166.125,101.3896 166.2578,101.2725 Q166.3906,101.1553 166.6953,101.1553 L166.8281,101.1553 L166.8281,97.8271 L166.6953,97.8271 Q166.3828,97.8271 166.25,97.71 Q166.125,97.5928 166.125,97.3975 Q166.125,97.21 166.25,97.0928 Q166.3828,96.9756 166.6953,96.9756 L170.5078,96.9756 L170.5078,98.2725 Q170.5078,98.5771 170.3906,98.71 Q170.2813,98.835 170.0859,98.835 Q169.8984,98.835 169.7813,98.71 Q169.6641,98.5771 169.6641,98.2725 L169.6641,97.8271 L167.6797,97.8271 L167.6797,99.0537 L168.4219,99.0537 Q168.4219,98.7256 168.4844,98.6318 Q168.6172,98.4287 168.8516,98.4287 Q169.0391,98.4287 169.1563,98.5615 Q169.2734,98.6865 169.2734,98.9912 L169.2734,99.9756 Q169.2734,100.249 169.2109,100.3428 Q169.0781,100.5381 168.8516,100.5381 Q168.6172,100.5381 168.4844,100.335 Q168.4219,100.2412 168.4219,99.9053 L167.6797,99.9053 Z " fill="#000000"/><text fill="#000000" font-family="sans-serif" font-size="7" lengthAdjust="spacing" textLength="32.5" x="175.25" y="102.4053">Candidate</text><line style="stroke:#181818;stroke-width:0.25;" x1="161.25" x2="208.75" y1="107.5068" y2="107.5068"/><text fill="#000000" font-family="sans-serif" font-size="7" lengthAdjust="spacing" textLength="39.5" x="163.75" y="117.0605">&#171;root entity&#187;</text><line style="stroke:#181818;stroke-width:0.25;" x1="161.25" x2="208.75" y1="120.8174" y2="120.8174"/></g><!--class CandidatePhoneNumber--><g id="elem_CandidatePhoneNumber"><rect codeLine="17" fill="#F1F1F1" height="30.291" id="CandidatePhoneNumber" rx="1.25" ry="1.25" style="stroke:#181818;stroke-width:0.25;" width="93.5" x="138.25" y="21.5068"/><ellipse cx="145.75" cy="32.6523" fill="#F09000" rx="5.5" ry="5.5" style="stroke:#181818;stroke-width:0.5;"/><path d="M146.0469,34.2852 L147.2813,31.3477 L147.0859,31.3477 Q146.7813,31.3477 146.6484,31.2305 Q146.5156,31.1133 146.5156,30.918 Q146.5156,30.7305 146.6484,30.6133 Q146.7813,30.4961 147.0859,30.4961 L148.2266,30.4961 Q148.5313,30.4961 148.6641,30.6133 Q148.7969,30.7305 148.7969,30.918 Q148.7969,31.1523 148.5938,31.2852 Q148.5,31.3477 148.2031,31.3477 L146.4609,35.5273 L145.6406,35.5273 L143.8984,31.3477 Q143.6016,31.3477 143.5078,31.2852 Q143.3047,31.1523 143.3047,30.918 Q143.3047,30.7305 143.4375,30.6133 Q143.5703,30.4961 143.875,30.4961 L145.0234,30.4961 Q145.3281,30.4961 145.4531,30.6133 Q145.5859,30.7305 145.5859,30.918 Q145.5859,31.1133 145.4531,31.2305 Q145.3281,31.3477 145.0234,31.3477 L144.8203,31.3477 L146.0469,34.2852 Z " fill="#000000"/><text fill="#000000" font-family="sans-serif" font-size="6" font-style="italic" lengthAdjust="spacing" textLength="63" x="160" y="30.4814">&#171;Identity value Object&#187;</text><text fill="#000000" font-family="sans-serif" font-size="7" lengthAdjust="spacing" textLength="77.5" x="152.75" y="39.541">CandidatePhoneNumber</text><line style="stroke:#181818;stroke-width:0.25;" x1="138.75" x2="231.25" y1="43.7979" y2="43.7979"/><line style="stroke:#181818;stroke-width:0.25;" x1="138.75" x2="231.25" y1="47.7979" y2="47.7979"/></g><!--class JobOffer--><g id="elem_JobOffer"><rect codeLine="27" fill="#F1F1F1" height="33.3105" id="JobOffer" rx="1.25" ry="1.25" style="stroke:#181818;stroke-width:0.25;" width="45.5" x="544.75" y="354.5068"/><ellipse cx="553.375" cy="362.5068" fill="#ADD1B2" rx="5.5" ry="5.5" style="stroke:#181818;stroke-width:0.5;"/><path d="M552.8047,362.9053 L552.8047,364.1553 L554.9688,364.1553 L554.9688,363.6943 Q554.9688,363.3896 555.0859,363.2568 Q555.2109,363.124 555.3984,363.124 Q555.5859,363.124 555.7031,363.2568 Q555.8203,363.3896 555.8203,363.6943 L555.8203,365.0068 L551.8203,365.0068 Q551.5078,365.0068 551.375,364.8896 Q551.25,364.7725 551.25,364.5771 Q551.25,364.3896 551.3828,364.2725 Q551.5156,364.1553 551.8203,364.1553 L551.9531,364.1553 L551.9531,360.8271 L551.8203,360.8271 Q551.5078,360.8271 551.375,360.71 Q551.25,360.5928 551.25,360.3975 Q551.25,360.21 551.375,360.0928 Q551.5078,359.9756 551.8203,359.9756 L555.6328,359.9756 L555.6328,361.2725 Q555.6328,361.5771 555.5156,361.71 Q555.4063,361.835 555.2109,361.835 Q555.0234,361.835 554.9063,361.71 Q554.7891,361.5771 554.7891,361.2725 L554.7891,360.8271 L552.8047,360.8271 L552.8047,362.0537 L553.5469,362.0537 Q553.5469,361.7256 553.6094,361.6318 Q553.7422,361.4287 553.9766,361.4287 Q554.1641,361.4287 554.2813,361.5615 Q554.3984,361.6865 554.3984,361.9912 L554.3984,362.9756 Q554.3984,363.249 554.3359,363.3428 Q554.2031,363.5381 553.9766,363.5381 Q553.7422,363.5381 553.6094,363.335 Q553.5469,363.2412 553.5469,362.9053 L552.8047,362.9053 Z " fill="#000000"/><text fill="#000000" font-family="sans-serif" font-size="7" lengthAdjust="spacing" textLength="27" x="560.625" y="365.4053">JobOffer</text><line style="stroke:#181818;stroke-width:0.25;" x1="545.25" x2="589.75" y1="370.5068" y2="370.5068"/><text fill="#000000" font-family="sans-serif" font-size="7" lengthAdjust="spacing" textLength="39.5" x="547.75" y="380.0605">&#171;root entity&#187;</text><line style="stroke:#181818;stroke-width:0.25;" x1="545.25" x2="589.75" y1="383.8174" y2="383.8174"/></g><!--class Address--><g id="elem_Address"><rect codeLine="30" fill="#F1F1F1" height="30.291" id="Address" rx="1.25" ry="1.25" style="stroke:#181818;stroke-width:0.25;" width="55.5" x="643.25" y="356.0068"/><ellipse cx="650.75" cy="367.1523" fill="#F04800" rx="5.5" ry="5.5" style="stroke:#181818;stroke-width:0.5;"/><path d="M651.0469,368.7852 L652.2813,365.8477 L652.0859,365.8477 Q651.7813,365.8477 651.6484,365.7305 Q651.5156,365.6133 651.5156,365.418 Q651.5156,365.2305 651.6484,365.1133 Q651.7813,364.9961 652.0859,364.9961 L653.2266,364.9961 Q653.5313,364.9961 653.6641,365.1133 Q653.7969,365.2305 653.7969,365.418 Q653.7969,365.6523 653.5938,365.7852 Q653.5,365.8477 653.2031,365.8477 L651.4609,370.0273 L650.6406,370.0273 L648.8984,365.8477 Q648.6016,365.8477 648.5078,365.7852 Q648.3047,365.6523 648.3047,365.418 Q648.3047,365.2305 648.4375,365.1133 Q648.5703,364.9961 648.875,364.9961 L650.0234,364.9961 Q650.3281,364.9961 650.4531,365.1133 Q650.5859,365.2305 650.5859,365.418 Q650.5859,365.6133 650.4531,365.7305 Q650.3281,365.8477 650.0234,365.8477 L649.8203,365.8477 L651.0469,368.7852 Z " fill="#000000"/><text fill="#000000" font-family="sans-serif" font-size="6" font-style="italic" lengthAdjust="spacing" textLength="41.5" x="656.75" y="364.9814">&#171;value Object&#187;</text><text fill="#000000" font-family="sans-serif" font-size="7" lengthAdjust="spacing" textLength="26" x="664.5" y="374.041">Address</text><line style="stroke:#181818;stroke-width:0.25;" x1="643.75" x2="698.25" y1="378.2979" y2="378.2979"/><line style="stroke:#181818;stroke-width:0.25;" x1="643.75" x2="698.25" y1="382.2979" y2="382.2979"/></g><!--class JobRefCode--><g id="elem_JobRefCode"><rect codeLine="34" fill="#F1F1F1" height="30.291" id="JobRefCode" rx="1.25" ry="1.25" style="stroke:#181818;stroke-width:0.25;" width="81" x="366" y="489.5068"/><ellipse cx="373.5" cy="500.6523" fill="#F09000" rx="5.5" ry="5.5" style="stroke:#181818;stroke-width:0.5;"/><path d="M373.7969,502.2852 L375.0313,499.3477 L374.8359,499.3477 Q374.5313,499.3477 374.3984,499.2305 Q374.2656,499.1133 374.2656,498.918 Q374.2656,498.7305 374.3984,498.6133 Q374.5313,498.4961 374.8359,498.4961 L375.9766,498.4961 Q376.2813,498.4961 376.4141,498.6133 Q376.5469,498.7305 376.5469,498.918 Q376.5469,499.1523 376.3438,499.2852 Q376.25,499.3477 375.9531,499.3477 L374.2109,503.5273 L373.3906,503.5273 L371.6484,499.3477 Q371.3516,499.3477 371.2578,499.2852 Q371.0547,499.1523 371.0547,498.918 Q371.0547,498.7305 371.1875,498.6133 Q371.3203,498.4961 371.625,498.4961 L372.7734,498.4961 Q373.0781,498.4961 373.2031,498.6133 Q373.3359,498.7305 373.3359,498.918 Q373.3359,499.1133 373.2031,499.2305 Q373.0781,499.3477 372.7734,499.3477 L372.5703,499.3477 L373.7969,502.2852 Z " fill="#000000"/><text fill="#000000" font-family="sans-serif" font-size="6" font-style="italic" lengthAdjust="spacing" textLength="67" x="379.5" y="498.4814">&#171;Identifier value Object&#187;</text><text fill="#000000" font-family="sans-serif" font-size="7" lengthAdjust="spacing" textLength="39" x="393.5" y="507.541">JobRefCode</text><line style="stroke:#181818;stroke-width:0.25;" x1="366.5" x2="446.5" y1="511.7979" y2="511.7979"/><line style="stroke:#181818;stroke-width:0.25;" x1="366.5" x2="446.5" y1="515.7979" y2="515.7979"/></g><!--class JobTitle--><g id="elem_JobTitle"><rect codeLine="38" fill="#F1F1F1" height="30.291" id="JobTitle" rx="1.25" ry="1.25" style="stroke:#181818;stroke-width:0.25;" width="55.5" x="464.75" y="489.5068"/><ellipse cx="472.25" cy="500.6523" fill="#F04800" rx="5.5" ry="5.5" style="stroke:#181818;stroke-width:0.5;"/><path d="M472.5469,502.2852 L473.7813,499.3477 L473.5859,499.3477 Q473.2813,499.3477 473.1484,499.2305 Q473.0156,499.1133 473.0156,498.918 Q473.0156,498.7305 473.1484,498.6133 Q473.2813,498.4961 473.5859,498.4961 L474.7266,498.4961 Q475.0313,498.4961 475.1641,498.6133 Q475.2969,498.7305 475.2969,498.918 Q475.2969,499.1523 475.0938,499.2852 Q475,499.3477 474.7031,499.3477 L472.9609,503.5273 L472.1406,503.5273 L470.3984,499.3477 Q470.1016,499.3477 470.0078,499.2852 Q469.8047,499.1523 469.8047,498.918 Q469.8047,498.7305 469.9375,498.6133 Q470.0703,498.4961 470.375,498.4961 L471.5234,498.4961 Q471.8281,498.4961 471.9531,498.6133 Q472.0859,498.7305 472.0859,498.918 Q472.0859,499.1133 471.9531,499.2305 Q471.8281,499.3477 471.5234,499.3477 L471.3203,499.3477 L472.5469,502.2852 Z " fill="#000000"/><text fill="#000000" font-family="sans-serif" font-size="6" font-style="italic" lengthAdjust="spacing" textLength="41.5" x="478.25" y="498.4814">&#171;value Object&#187;</text><text fill="#000000" font-family="sans-serif" font-size="7" lengthAdjust="spacing" textLength="24.5" x="486.75" y="507.541">JobTitle</text><line style="stroke:#181818;stroke-width:0.25;" x1="465.25" x2="519.75" y1="511.7979" y2="511.7979"/><line style="stroke:#181818;stroke-width:0.25;" x1="465.25" x2="519.75" y1="515.7979" y2="515.7979"/></g><!--class ContractType--><g id="elem_ContractType"><rect codeLine="41" fill="#F1F1F1" height="30.291" id="ContractType" rx="1.25" ry="1.25" style="stroke:#181818;stroke-width:0.25;" width="59" x="538" y="489.5068"/><ellipse cx="545.5" cy="500.6523" fill="#F04800" rx="5.5" ry="5.5" style="stroke:#181818;stroke-width:0.5;"/><path d="M545.7969,502.2852 L547.0313,499.3477 L546.8359,499.3477 Q546.5313,499.3477 546.3984,499.2305 Q546.2656,499.1133 546.2656,498.918 Q546.2656,498.7305 546.3984,498.6133 Q546.5313,498.4961 546.8359,498.4961 L547.9766,498.4961 Q548.2813,498.4961 548.4141,498.6133 Q548.5469,498.7305 548.5469,498.918 Q548.5469,499.1523 548.3438,499.2852 Q548.25,499.3477 547.9531,499.3477 L546.2109,503.5273 L545.3906,503.5273 L543.6484,499.3477 Q543.3516,499.3477 543.2578,499.2852 Q543.0547,499.1523 543.0547,498.918 Q543.0547,498.7305 543.1875,498.6133 Q543.3203,498.4961 543.625,498.4961 L544.7734,498.4961 Q545.0781,498.4961 545.2031,498.6133 Q545.3359,498.7305 545.3359,498.918 Q545.3359,499.1133 545.2031,499.2305 Q545.0781,499.3477 544.7734,499.3477 L544.5703,499.3477 L545.7969,502.2852 Z " fill="#000000"/><text fill="#000000" font-family="sans-serif" font-size="6" font-style="italic" lengthAdjust="spacing" textLength="41.5" x="553.25" y="498.4814">&#171;value Object&#187;</text><text fill="#000000" font-family="sans-serif" font-size="7" lengthAdjust="spacing" textLength="43" x="552.5" y="507.541">ContractType</text><line style="stroke:#181818;stroke-width:0.25;" x1="538.5" x2="596.5" y1="511.7979" y2="511.7979"/><line style="stroke:#181818;stroke-width:0.25;" x1="538.5" x2="596.5" y1="515.7979" y2="515.7979"/></g><!--class JobMode--><g id="elem_JobMode"><rect codeLine="44" fill="#F1F1F1" height="30.291" id="JobMode" rx="1.25" ry="1.25" style="stroke:#181818;stroke-width:0.25;" width="55.5" x="614.75" y="489.5068"/><ellipse cx="622.25" cy="500.6523" fill="#F04800" rx="5.5" ry="5.5" style="stroke:#181818;stroke-width:0.5;"/><path d="M622.5469,502.2852 L623.7813,499.3477 L623.5859,499.3477 Q623.2813,499.3477 623.1484,499.2305 Q623.0156,499.1133 623.0156,498.918 Q623.0156,498.7305 623.1484,498.6133 Q623.2813,498.4961 623.5859,498.4961 L624.7266,498.4961 Q625.0313,498.4961 625.1641,498.6133 Q625.2969,498.7305 625.2969,498.918 Q625.2969,499.1523 625.0938,499.2852 Q625,499.3477 624.7031,499.3477 L622.9609,503.5273 L622.1406,503.5273 L620.3984,499.3477 Q620.1016,499.3477 620.0078,499.2852 Q619.8047,499.1523 619.8047,498.918 Q619.8047,498.7305 619.9375,498.6133 Q620.0703,498.4961 620.375,498.4961 L621.5234,498.4961 Q621.8281,498.4961 621.9531,498.6133 Q622.0859,498.7305 622.0859,498.918 Q622.0859,499.1133 621.9531,499.2305 Q621.8281,499.3477 621.5234,499.3477 L621.3203,499.3477 L622.5469,502.2852 Z " fill="#000000"/><text fill="#000000" font-family="sans-serif" font-size="6" font-style="italic" lengthAdjust="spacing" textLength="41.5" x="628.25" y="498.4814">&#171;value Object&#187;</text><text fill="#000000" font-family="sans-serif" font-size="7" lengthAdjust="spacing" textLength="28.5" x="634.75" y="507.541">JobMode</text><line style="stroke:#181818;stroke-width:0.25;" x1="615.25" x2="669.75" y1="511.7979" y2="511.7979"/><line style="stroke:#181818;stroke-width:0.25;" x1="615.25" x2="669.75" y1="515.7979" y2="515.7979"/></g><!--class NumberOfVacancies--><g id="elem_NumberOfVacancies"><rect codeLine="47" fill="#F1F1F1" height="30.291" id="NumberOfVacancies" rx="1.25" ry="1.25" style="stroke:#181818;stroke-width:0.25;" width="80.5" x="687.75" y="489.5068"/><ellipse cx="695.25" cy="500.6523" fill="#F04800" rx="5.5" ry="5.5" style="stroke:#181818;stroke-width:0.5;"/><path d="M695.5469,502.2852 L696.7813,499.3477 L696.5859,499.3477 Q696.2813,499.3477 696.1484,499.2305 Q696.0156,499.1133 696.0156,498.918 Q696.0156,498.7305 696.1484,498.6133 Q696.2813,498.4961 696.5859,498.4961 L697.7266,498.4961 Q698.0313,498.4961 698.1641,498.6133 Q698.2969,498.7305 698.2969,498.918 Q698.2969,499.1523 698.0938,499.2852 Q698,499.3477 697.7031,499.3477 L695.9609,503.5273 L695.1406,503.5273 L693.3984,499.3477 Q693.1016,499.3477 693.0078,499.2852 Q692.8047,499.1523 692.8047,498.918 Q692.8047,498.7305 692.9375,498.6133 Q693.0703,498.4961 693.375,498.4961 L694.5234,498.4961 Q694.8281,498.4961 694.9531,498.6133 Q695.0859,498.7305 695.0859,498.918 Q695.0859,499.1133 694.9531,499.2305 Q694.8281,499.3477 694.5234,499.3477 L694.3203,499.3477 L695.5469,502.2852 Z " fill="#000000"/><text fill="#000000" font-family="sans-serif" font-size="6" font-style="italic" lengthAdjust="spacing" textLength="41.5" x="713.75" y="498.4814">&#171;value Object&#187;</text><text fill="#000000" font-family="sans-serif" font-size="7" lengthAdjust="spacing" textLength="64.5" x="702.25" y="507.541">NumberOfVacancies</text><line style="stroke:#181818;stroke-width:0.25;" x1="688.25" x2="767.75" y1="511.7979" y2="511.7979"/><line style="stroke:#181818;stroke-width:0.25;" x1="688.25" x2="767.75" y1="515.7979" y2="515.7979"/></g><!--class JobsDescription--><g id="elem_JobsDescription"><rect codeLine="50" fill="#F1F1F1" height="30.291" id="JobsDescription" rx="1.25" ry="1.25" style="stroke:#181818;stroke-width:0.25;" width="66" x="786" y="489.5068"/><ellipse cx="793.5" cy="500.6523" fill="#F04800" rx="5.5" ry="5.5" style="stroke:#181818;stroke-width:0.5;"/><path d="M793.7969,502.2852 L795.0313,499.3477 L794.8359,499.3477 Q794.5313,499.3477 794.3984,499.2305 Q794.2656,499.1133 794.2656,498.918 Q794.2656,498.7305 794.3984,498.6133 Q794.5313,498.4961 794.8359,498.4961 L795.9766,498.4961 Q796.2813,498.4961 796.4141,498.6133 Q796.5469,498.7305 796.5469,498.918 Q796.5469,499.1523 796.3438,499.2852 Q796.25,499.3477 795.9531,499.3477 L794.2109,503.5273 L793.3906,503.5273 L791.6484,499.3477 Q791.3516,499.3477 791.2578,499.2852 Q791.0547,499.1523 791.0547,498.918 Q791.0547,498.7305 791.1875,498.6133 Q791.3203,498.4961 791.625,498.4961 L792.7734,498.4961 Q793.0781,498.4961 793.2031,498.6133 Q793.3359,498.7305 793.3359,498.918 Q793.3359,499.1133 793.2031,499.2305 Q793.0781,499.3477 792.7734,499.3477 L792.5703,499.3477 L793.7969,502.2852 Z " fill="#000000"/><text fill="#000000" font-family="sans-serif" font-size="6" font-style="italic" lengthAdjust="spacing" textLength="41.5" x="804.75" y="498.4814">&#171;value Object&#187;</text><text fill="#000000" font-family="sans-serif" font-size="7" lengthAdjust="spacing" textLength="50" x="800.5" y="507.541">JobsDescription</text><line style="stroke:#181818;stroke-width:0.25;" x1="786.5" x2="851.5" y1="511.7979" y2="511.7979"/><line style="stroke:#181818;stroke-width:0.25;" x1="786.5" x2="851.5" y1="515.7979" y2="515.7979"/></g><!--class Application--><g id="elem_Application"><rect codeLine="60" fill="#F1F1F1" height="33.3105" id="Application" rx="1.25" ry="1.25" style="stroke:#181818;stroke-width:0.25;" width="50.5" x="159.75" y="270.0068"/><ellipse cx="167.25" cy="278.0068" fill="#ADD1B2" rx="5.5" ry="5.5" style="stroke:#181818;stroke-width:0.5;"/><path d="M166.6797,278.4053 L166.6797,279.6553 L168.8438,279.6553 L168.8438,279.1943 Q168.8438,278.8896 168.9609,278.7568 Q169.0859,278.624 169.2734,278.624 Q169.4609,278.624 169.5781,278.7568 Q169.6953,278.8896 169.6953,279.1943 L169.6953,280.5068 L165.6953,280.5068 Q165.3828,280.5068 165.25,280.3896 Q165.125,280.2725 165.125,280.0771 Q165.125,279.8896 165.2578,279.7725 Q165.3906,279.6553 165.6953,279.6553 L165.8281,279.6553 L165.8281,276.3271 L165.6953,276.3271 Q165.3828,276.3271 165.25,276.21 Q165.125,276.0928 165.125,275.8975 Q165.125,275.71 165.25,275.5928 Q165.3828,275.4756 165.6953,275.4756 L169.5078,275.4756 L169.5078,276.7725 Q169.5078,277.0771 169.3906,277.21 Q169.2813,277.335 169.0859,277.335 Q168.8984,277.335 168.7813,277.21 Q168.6641,277.0771 168.6641,276.7725 L168.6641,276.3271 L166.6797,276.3271 L166.6797,277.5537 L167.4219,277.5537 Q167.4219,277.2256 167.4844,277.1318 Q167.6172,276.9287 167.8516,276.9287 Q168.0391,276.9287 168.1563,277.0615 Q168.2734,277.1865 168.2734,277.4912 L168.2734,278.4756 Q168.2734,278.749 168.2109,278.8428 Q168.0781,279.0381 167.8516,279.0381 Q167.6172,279.0381 167.4844,278.835 Q167.4219,278.7412 167.4219,278.4053 L166.6797,278.4053 Z " fill="#000000"/><text fill="#000000" font-family="sans-serif" font-size="7" lengthAdjust="spacing" textLength="34.5" x="174.25" y="280.9053">Application</text><line style="stroke:#181818;stroke-width:0.25;" x1="160.25" x2="209.75" y1="286.0068" y2="286.0068"/><text fill="#000000" font-family="sans-serif" font-size="7" lengthAdjust="spacing" textLength="39.5" x="162.75" y="295.5605">&#171;root entity&#187;</text><line style="stroke:#181818;stroke-width:0.25;" x1="160.25" x2="209.75" y1="299.3174" y2="299.3174"/></g><!--class ApplicationAttachedFile--><g id="elem_ApplicationAttachedFile"><rect codeLine="64" fill="#F1F1F1" height="30.291" id="ApplicationAttachedFile" rx="1.25" ry="1.25" style="stroke:#181818;stroke-width:0.25;" width="90" x="11" y="356.0068"/><ellipse cx="18.5" cy="367.1523" fill="#F04800" rx="5.5" ry="5.5" style="stroke:#181818;stroke-width:0.5;"/><path d="M18.7969,368.7852 L20.0313,365.8477 L19.8359,365.8477 Q19.5313,365.8477 19.3984,365.7305 Q19.2656,365.6133 19.2656,365.418 Q19.2656,365.2305 19.3984,365.1133 Q19.5313,364.9961 19.8359,364.9961 L20.9766,364.9961 Q21.2813,364.9961 21.4141,365.1133 Q21.5469,365.2305 21.5469,365.418 Q21.5469,365.6523 21.3438,365.7852 Q21.25,365.8477 20.9531,365.8477 L19.2109,370.0273 L18.3906,370.0273 L16.6484,365.8477 Q16.3516,365.8477 16.2578,365.7852 Q16.0547,365.6523 16.0547,365.418 Q16.0547,365.2305 16.1875,365.1133 Q16.3203,364.9961 16.625,364.9961 L17.7734,364.9961 Q18.0781,364.9961 18.2031,365.1133 Q18.3359,365.2305 18.3359,365.418 Q18.3359,365.6133 18.2031,365.7305 Q18.0781,365.8477 17.7734,365.8477 L17.5703,365.8477 L18.7969,368.7852 Z " fill="#000000"/><text fill="#000000" font-family="sans-serif" font-size="6" font-style="italic" lengthAdjust="spacing" textLength="41.5" x="41.75" y="364.9814">&#171;value Object&#187;</text><text fill="#000000" font-family="sans-serif" font-size="7" lengthAdjust="spacing" textLength="74" x="25.5" y="374.041">ApplicationAttachedFile</text><line style="stroke:#181818;stroke-width:0.25;" x1="11.5" x2="100.5" y1="378.2979" y2="378.2979"/><line style="stroke:#181818;stroke-width:0.25;" x1="11.5" x2="100.5" y1="382.2979" y2="382.2979"/></g><!--class ApplicationRefCode--><g id="elem_ApplicationRefCode"><rect codeLine="67" fill="#F1F1F1" height="30.291" id="ApplicationRefCode" rx="1.25" ry="1.25" style="stroke:#181818;stroke-width:0.25;" width="81" x="118.5" y="356.0068"/><ellipse cx="126" cy="367.1523" fill="#F09000" rx="5.5" ry="5.5" style="stroke:#181818;stroke-width:0.5;"/><path d="M126.2969,368.7852 L127.5313,365.8477 L127.3359,365.8477 Q127.0313,365.8477 126.8984,365.7305 Q126.7656,365.6133 126.7656,365.418 Q126.7656,365.2305 126.8984,365.1133 Q127.0313,364.9961 127.3359,364.9961 L128.4766,364.9961 Q128.7813,364.9961 128.9141,365.1133 Q129.0469,365.2305 129.0469,365.418 Q129.0469,365.6523 128.8438,365.7852 Q128.75,365.8477 128.4531,365.8477 L126.7109,370.0273 L125.8906,370.0273 L124.1484,365.8477 Q123.8516,365.8477 123.7578,365.7852 Q123.5547,365.6523 123.5547,365.418 Q123.5547,365.2305 123.6875,365.1133 Q123.8203,364.9961 124.125,364.9961 L125.2734,364.9961 Q125.5781,364.9961 125.7031,365.1133 Q125.8359,365.2305 125.8359,365.418 Q125.8359,365.6133 125.7031,365.7305 Q125.5781,365.8477 125.2734,365.8477 L125.0703,365.8477 L126.2969,368.7852 Z " fill="#000000"/><text fill="#000000" font-family="sans-serif" font-size="6" font-style="italic" lengthAdjust="spacing" textLength="67" x="132" y="364.9814">&#171;Identifier value Object&#187;</text><text fill="#000000" font-family="sans-serif" font-size="7" lengthAdjust="spacing" textLength="62.5" x="134.25" y="374.041">ApplicationRefCode</text><line style="stroke:#181818;stroke-width:0.25;" x1="119" x2="199" y1="378.2979" y2="378.2979"/><line style="stroke:#181818;stroke-width:0.25;" x1="119" x2="199" y1="382.2979" y2="382.2979"/></g><!--class ApplicationAttachedFilesLocation--><g id="elem_ApplicationAttachedFilesLocation"><rect codeLine="70" fill="#F1F1F1" height="30.291" id="ApplicationAttachedFilesLocation" rx="1.25" ry="1.25" style="stroke:#181818;stroke-width:0.25;" width="120.5" x="217.25" y="356.0068"/><ellipse cx="224.75" cy="367.1523" fill="#F04800" rx="5.5" ry="5.5" style="stroke:#181818;stroke-width:0.5;"/><path d="M225.0469,368.7852 L226.2813,365.8477 L226.0859,365.8477 Q225.7813,365.8477 225.6484,365.7305 Q225.5156,365.6133 225.5156,365.418 Q225.5156,365.2305 225.6484,365.1133 Q225.7813,364.9961 226.0859,364.9961 L227.2266,364.9961 Q227.5313,364.9961 227.6641,365.1133 Q227.7969,365.2305 227.7969,365.418 Q227.7969,365.6523 227.5938,365.7852 Q227.5,365.8477 227.2031,365.8477 L225.4609,370.0273 L224.6406,370.0273 L222.8984,365.8477 Q222.6016,365.8477 222.5078,365.7852 Q222.3047,365.6523 222.3047,365.418 Q222.3047,365.2305 222.4375,365.1133 Q222.5703,364.9961 222.875,364.9961 L224.0234,364.9961 Q224.3281,364.9961 224.4531,365.1133 Q224.5859,365.2305 224.5859,365.418 Q224.5859,365.6133 224.4531,365.7305 Q224.3281,365.8477 224.0234,365.8477 L223.8203,365.8477 L225.0469,368.7852 Z " fill="#000000"/><text fill="#000000" font-family="sans-serif" font-size="6" font-style="italic" lengthAdjust="spacing" textLength="41.5" x="263.25" y="364.9814">&#171;value Object&#187;</text><text fill="#000000" font-family="sans-serif" font-size="7" lengthAdjust="spacing" textLength="104.5" x="231.75" y="374.041">ApplicationAttachedFilesLocation</text><line style="stroke:#181818;stroke-width:0.25;" x1="217.75" x2="337.25" y1="378.2979" y2="378.2979"/><line style="stroke:#181818;stroke-width:0.25;" x1="217.75" x2="337.25" y1="382.2979" y2="382.2979"/></g><!--class ApplicationEmail--><g id="elem_ApplicationEmail"><rect codeLine="74" fill="#F1F1F1" height="30.291" id="ApplicationEmail" rx="1.25" ry="1.25" style="stroke:#181818;stroke-width:0.25;" width="67.5" x="259.75" y="271.5068"/><ellipse cx="267.25" cy="282.6523" fill="#F04800" rx="5.5" ry="5.5" style="stroke:#181818;stroke-width:0.5;"/><path d="M267.5469,284.2852 L268.7813,281.3477 L268.5859,281.3477 Q268.2813,281.3477 268.1484,281.2305 Q268.0156,281.1133 268.0156,280.918 Q268.0156,280.7305 268.1484,280.6133 Q268.2813,280.4961 268.5859,280.4961 L269.7266,280.4961 Q270.0313,280.4961 270.1641,280.6133 Q270.2969,280.7305 270.2969,280.918 Q270.2969,281.1523 270.0938,281.2852 Q270,281.3477 269.7031,281.3477 L267.9609,285.5273 L267.1406,285.5273 L265.3984,281.3477 Q265.1016,281.3477 265.0078,281.2852 Q264.8047,281.1523 264.8047,280.918 Q264.8047,280.7305 264.9375,280.6133 Q265.0703,280.4961 265.375,280.4961 L266.5234,280.4961 Q266.8281,280.4961 266.9531,280.6133 Q267.0859,280.7305 267.0859,280.918 Q267.0859,281.1133 266.9531,281.2305 Q266.8281,281.3477 266.5234,281.3477 L266.3203,281.3477 L267.5469,284.2852 Z " fill="#000000"/><text fill="#000000" font-family="sans-serif" font-size="6" font-style="italic" lengthAdjust="spacing" textLength="41.5" x="279.25" y="280.4814">&#171;value Object&#187;</text><text fill="#000000" font-family="sans-serif" font-size="7" lengthAdjust="spacing" textLength="51.5" x="274.25" y="289.541">ApplicationEmail</text><line style="stroke:#181818;stroke-width:0.25;" x1="260.25" x2="326.75" y1="293.7979" y2="293.7979"/><line style="stroke:#181818;stroke-width:0.25;" x1="260.25" x2="326.75" y1="297.7979" y2="297.7979"/></g><!--link CandidatePhoneNumber to Candidate--><g id="link_CandidatePhoneNumber_Candidate"><path codeLine="21" d="M185,52.0368 C185,63.5418 185,79.5068 185,91.3968 " fill="none" id="CandidatePhoneNumber-Candidate" style="stroke:#181818;stroke-width:0.5;stroke-dasharray:7.0,7.0;"/><polygon fill="#000000" points="187.5,74.3296,188.9695,69.807,186.0305,69.807,187.5,74.3296" style="stroke:#000000;stroke-width:0.5;"/><text fill="#000000" font-family="sans-serif" font-size="6.5" lengthAdjust="spacing" textLength="25.5" x="192" y="74.521">identifies</text></g><!--link JobOffer to Address--><g id="link_JobOffer_Address"><path codeLine="86" d="M590.34,371.2568 C605.94,371.2568 626.695,371.2568 643.245,371.2568 " fill="none" id="JobOffer-Address" style="stroke:#181818;stroke-width:0.5;"/><polygon fill="#000000" points="599,365.0796,603.5225,366.5491,603.5225,363.6101,599,365.0796" style="stroke:#000000;stroke-width:0.5;"/><text fill="#000000" font-family="sans-serif" font-size="6.5" lengthAdjust="spacing" textLength="28" x="606" y="367.771">descibres</text></g><!--link Application to JobOffer--><g id="link_Application_JobOffer"><path codeLine="88" d="M210.34,293.6968 C222.6,296.7618 237.545,300.4218 251,303.5068 C360.645,328.6468 489.4745,355.0124 541.6645,365.5624 " fill="none" id="Application-to-JobOffer" style="stroke:#181818;stroke-width:0.5;"/><polygon fill="#181818" points="544.605,366.1568,540.5905,363.3049,542.1546,365.6615,539.7979,367.2256,544.605,366.1568" style="stroke:#181818;stroke-width:0.5;"/><polygon fill="#000000" points="359.9432,323.8595,355.8349,321.4648,355.2119,324.3369,359.9432,323.8595" style="stroke:#000000;stroke-width:0.5;"/><text fill="#000000" font-family="sans-serif" font-size="6.5" lengthAdjust="spacing" textLength="30.5" x="362" y="326.021">pertains to</text><text fill="#000000" font-family="sans-serif" font-size="6.5" lengthAdjust="spacing" textLength="2.5" x="214.2454" y="292.6307">*</text><text fill="#000000" font-family="sans-serif" font-size="6.5" lengthAdjust="spacing" textLength="3.5" x="537.1772" y="363.2075">1</text></g><!--link Application to ApplicationEmail--><g id="link_Application_ApplicationEmail"><path codeLine="89" d="M210.3,286.7568 C225.015,286.7568 243.75,286.7568 259.715,286.7568 " fill="none" id="Application-ApplicationEmail" style="stroke:#181818;stroke-width:0.5;"/><polygon fill="#000000" points="224,280.5796,219.4775,279.1101,219.4775,282.0491,224,280.5796" style="stroke:#000000;stroke-width:0.5;"/><text fill="#000000" font-family="sans-serif" font-size="6.5" lengthAdjust="spacing" textLength="24.5" x="226" y="283.271">contains</text><text fill="#000000" font-family="sans-serif" font-size="6.5" lengthAdjust="spacing" textLength="3.5" x="214.273" y="284.6714">1</text><text fill="#000000" font-family="sans-serif" font-size="6.5" lengthAdjust="spacing" textLength="3.5" x="252.3284" y="284.8255">1</text></g><!--link Application to ApplicationRefCode--><g id="link_Application_ApplicationRefCode"><path codeLine="90" d="M179.925,303.5568 C175.195,318.7418 168.205,341.1968 163.625,355.9018 " fill="none" id="Application-ApplicationRefCode" style="stroke:#181818;stroke-width:0.5;"/><polygon fill="#000000" points="178.2433,320.9426,175.4957,324.8238,178.3017,325.6976,178.2433,320.9426" style="stroke:#000000;stroke-width:0.5;"/><text fill="#000000" font-family="sans-serif" font-size="6.5" lengthAdjust="spacing" textLength="28" x="182" y="326.021">describes</text><text fill="#000000" font-family="sans-serif" font-size="6.5" lengthAdjust="spacing" textLength="3.5" x="175.2093" y="314.3504">1</text><text fill="#000000" font-family="sans-serif" font-size="6.5" lengthAdjust="spacing" textLength="3.5" x="160.718" y="350.409">1</text></g><!--link Application to ApplicationAttachedFile--><g id="link_Application_ApplicationAttachedFile"><path codeLine="91" d="M159.675,301.6518 C144.98,310.1818 126.23,321.3668 110,332.0068 C98.42,339.5968 85.83,348.5868 75.725,355.9968 " fill="none" id="Application-ApplicationAttachedFile" style="stroke:#181818;stroke-width:0.5;"/><polygon fill="#000000" points="130.4014,324.6881,134.9964,323.464,133.3993,320.9969,130.4014,324.6881" style="stroke:#000000;stroke-width:0.5;"/><text fill="#000000" font-family="sans-serif" font-size="6.5" lengthAdjust="spacing" textLength="24.5" x="137" y="326.021">contains</text><text fill="#000000" font-family="sans-serif" font-size="6.5" lengthAdjust="spacing" textLength="3.5" x="152.1984" y="301.7541">1</text><text fill="#000000" font-family="sans-serif" font-size="6.5" lengthAdjust="spacing" textLength="2.5" x="77.2664" y="350.282">*</text></g><!--link Application to ApplicationAttachedFilesLocation--><g id="link_Application_ApplicationAttachedFilesLocation"><path codeLine="92" d="M203.055,303.5568 C219.88,318.7418 244.755,341.1968 261.045,355.9018 " fill="none" id="Application-ApplicationAttachedFilesLocation" style="stroke:#181818;stroke-width:0.5;"/><polygon fill="#000000" points="232.3558,325.0047,229.9833,320.8836,228.014,323.0652,232.3558,325.0047" style="stroke:#000000;stroke-width:0.5;"/><text fill="#000000" font-family="sans-serif" font-size="6.5" lengthAdjust="spacing" textLength="24.5" x="235" y="326.021">contains</text><text fill="#000000" font-family="sans-serif" font-size="6.5" lengthAdjust="spacing" textLength="3.5" x="202.4593" y="314.3504">1</text><text fill="#000000" font-family="sans-serif" font-size="6.5" lengthAdjust="spacing" textLength="3.5" x="253.7902" y="350.409">1</text></g><!--link Candidate to Application--><g id="link_Candidate_Application"><path codeLine="93" d="M185,125.1118 C185,134.3318 185,146.0618 185,156.5068 C185,156.5068 185,156.5068 185,228.0068 C185,242.1668 185,258.2568 185,269.9368 " fill="none" id="Candidate-Application" style="stroke:#181818;stroke-width:0.5;"/><polygon fill="#000000" points="187.5,194.8296,188.9695,190.307,186.0305,190.307,187.5,194.8296" style="stroke:#000000;stroke-width:0.5;"/><text fill="#000000" font-family="sans-serif" font-size="6.5" lengthAdjust="spacing" textLength="19.5" x="192" y="195.021">makes</text><text fill="#000000" font-family="sans-serif" font-size="6.5" lengthAdjust="spacing" textLength="3.5" x="181.1992" y="135.7822">1</text><text fill="#000000" font-family="sans-serif" font-size="6.5" lengthAdjust="spacing" textLength="2.5" x="182.2539" y="264.3358">*</text></g><!--link JobOffer to JobRefCode--><g id="link_JobOffer_JobRefCode"><path codeLine="96" d="M545.04,388.0768 C528.355,400.3768 505.175,417.8318 485.5,434.0068 C463.03,452.4818 438.1,475.0068 422.37,489.4868 " fill="none" id="JobOffer-JobRefCode" style="stroke:#181818;stroke-width:0.5;"/><polygon fill="#000000" points="489.9268,437.2367,485.5049,438.9857,487.3774,441.2508,489.9268,437.2367" style="stroke:#000000;stroke-width:0.5;"/><text fill="#000000" font-family="sans-serif" font-size="6.5" lengthAdjust="spacing" textLength="25.5" x="492.5" y="441.521">identifies</text><text fill="#000000" font-family="sans-serif" font-size="6.5" lengthAdjust="spacing" textLength="3.5" x="537.2276" y="398.8739">1</text><text fill="#000000" font-family="sans-serif" font-size="6.5" lengthAdjust="spacing" textLength="3.5" x="421.9588" y="483.7698">1</text></g><!--link JobOffer to JobTitle--><g id="link_JobOffer_JobTitle"><path codeLine="97" d="M556.49,388.1318 C548.305,400.5318 537.04,418.0918 528,434.0068 C517.37,452.7218 506.38,474.9968 499.5,489.3718 " fill="none" id="JobOffer-JobTitle" style="stroke:#181818;stroke-width:0.5;"/><polygon fill="#000000" points="531.7263,436.651,528.2273,439.8712,530.7884,441.3129,531.7263,436.651" style="stroke:#000000;stroke-width:0.5;"/><text fill="#000000" font-family="sans-serif" font-size="6.5" lengthAdjust="spacing" textLength="28" x="535" y="441.521">describes</text><text fill="#000000" font-family="sans-serif" font-size="6.5" lengthAdjust="spacing" textLength="3.5" x="550.7969" y="398.8056">1</text><text fill="#000000" font-family="sans-serif" font-size="6.5" lengthAdjust="spacing" textLength="3.5" x="497.0828" y="483.8728">1</text></g><!--link JobOffer to ContractType--><g id="link_JobOffer_ContractType"><path codeLine="98" d="M567.5,388.1368 C567.5,414.1018 567.5,464.3218 567.5,489.3418 " fill="none" id="JobOffer-ContractType" style="stroke:#181818;stroke-width:0.5;"/><polygon fill="#000000" points="570,436.3296,568.5305,440.8521,571.4695,440.8521,570,436.3296" style="stroke:#000000;stroke-width:0.5;"/><text fill="#000000" font-family="sans-serif" font-size="6.5" lengthAdjust="spacing" textLength="28" x="574.5" y="441.521">describes</text><text fill="#000000" font-family="sans-serif" font-size="6.5" lengthAdjust="spacing" textLength="3.5" x="563.6992" y="398.8115">1</text><text fill="#000000" font-family="sans-serif" font-size="6.5" lengthAdjust="spacing" textLength="3.5" x="563.6391" y="483.8366">1</text></g><!--link JobOffer to JobMode--><g id="link_JobOffer_JobMode"><path codeLine="99" d="M578.51,388.1318 C586.695,400.5318 597.96,418.0918 607,434.0068 C617.63,452.7218 628.62,474.9968 635.5,489.3718 " fill="none" id="JobOffer-JobMode" style="stroke:#181818;stroke-width:0.5;"/><polygon fill="#000000" points="613.2737,436.651,614.2116,441.3129,616.7727,439.8712,613.2737,436.651" style="stroke:#000000;stroke-width:0.5;"/><text fill="#000000" font-family="sans-serif" font-size="6.5" lengthAdjust="spacing" textLength="28" x="619" y="441.521">describes</text><text fill="#000000" font-family="sans-serif" font-size="6.5" lengthAdjust="spacing" textLength="3.5" x="576.6016" y="398.8056">1</text><text fill="#000000" font-family="sans-serif" font-size="6.5" lengthAdjust="spacing" textLength="3.5" x="630.1953" y="483.8728">1</text></g><!--link JobOffer to NumberOfVacancies--><g id="link_JobOffer_NumberOfVacancies"><path codeLine="100" d="M590.275,387.6468 C607.455,399.8718 631.415,417.4218 651.5,434.0068 C673.605,452.2618 697.765,474.9418 712.895,489.5068 " fill="none" id="JobOffer-NumberOfVacancies" style="stroke:#181818;stroke-width:0.5;"/><polygon fill="#000000" points="663.077,437.2321,665.6168,441.2523,667.4947,438.9916,663.077,437.2321" style="stroke:#000000;stroke-width:0.5;"/><text fill="#000000" font-family="sans-serif" font-size="6.5" lengthAdjust="spacing" textLength="28" x="669.5" y="441.521">describes</text><text fill="#000000" font-family="sans-serif" font-size="6.5" lengthAdjust="spacing" textLength="3.5" x="591.1114" y="398.9525">1</text><text fill="#000000" font-family="sans-serif" font-size="6.5" lengthAdjust="spacing" textLength="3.5" x="705.708" y="483.7941">1</text></g><!--link JobOffer to JobsDescription--><g id="link_JobOffer_JobsDescription"><path codeLine="101" d="M590.47,381.4918 C617.54,393.1668 663.685,413.7118 702,434.0068 C735.395,451.6968 772.595,474.6118 795.895,489.3768 " fill="none" id="JobOffer-JobsDescription" style="stroke:#181818;stroke-width:0.5;"/><polygon fill="#000000" points="718.7867,437.6672,722.1074,441.071,723.4739,438.469,718.7867,437.6672" style="stroke:#000000;stroke-width:0.5;"/><text fill="#000000" font-family="sans-serif" font-size="6.5" lengthAdjust="spacing" textLength="33" x="725.5" y="441.521">"describes"</text><text fill="#000000" font-family="sans-serif" font-size="6.5" lengthAdjust="spacing" textLength="3.5" x="594.2553" y="380.9481">1</text><text fill="#000000" font-family="sans-serif" font-size="6.5" lengthAdjust="spacing" textLength="3.5" x="787.2687" y="483.8789">1</text></g><!--SRC=[bLJRQjmm47ttLmZdeMs8irleGsiMmx9DeQNjXX3oBijZhnhRChAs48h_lIFPbg_RAWDxmPupSyxStfoKgkfmiwboMgfpaTyoKMnOJkiw219ECqaBRsJtb3tJ3CY1bWbFg89zbad8yCyVZw3TbOghb-4rQHzhs-sa48g0yOWYyxmntmUTRi3SdqG9Fyz53191RvzkhjBjf-rs-uvyJLeq-KtpCv1Z_0kOYY9COhCqNkEjHheDHgn24X5kWgKSQjHLTRg-YVYOfY17iZol4zM_wpJDzM1UesEV91BmrtB_y55pdrB6i8tN0J3k0wG7aK0B8JEzI56kA1xZ7xdAuPy9MqHNQL4gIPbwVAd0WQRDyiDIT4ZIblsOFb56IuPLTaPYflepr4poId5HEk3Cfn_DVLNbd54DdNIndv2kcoCtCfhIkQrDxTmQ6xoRW143fIWxGVA5E_J7XhiKRJ8cRbCoP-f2jFukki8uClv_7UuAolFNXslwksDtBx3x5P8TIN1CU2pr2e_xwL_x90WYuh_tXwtLEr-1L9INDL5Y2a37m7mlE6iOmuNHi2Lc0UfR51fkaiTwy5Tnr_x5GNbbplNUJO8CfwyD4ImP6411dyqzj5NhtVjQ3lg6-ua2B_gtbsbQZNNdoLLo0VGNoSLtUOqSCqmkKKXy2_8HXVON]--></g></svg>