<?xml version="1.0" encoding="us-ascii" standalone="no"?><svg xmlns="http://www.w3.org/2000/svg" xmlns:xlink="http://www.w3.org/1999/xlink" contentStyleType="text/css" height="742.2px" preserveAspectRatio="none" style="width:1126px;height:742px;background:#FFFFFF;" version="1.1" viewBox="0 0 1126 742" width="1126.2px" zoomAndPan="magnify"><defs/><g><rect fill="#FFFFFF" height="13.9746" style="stroke:#181818;stroke-width:0.6;" width="6" x="24.9" y="29.1727"/><rect fill="#FFFFFF" height="5.4" style="stroke:#181818;stroke-width:0.6;" width="6" x="24.9" y="709.084"/><rect fill="#FFFFFF" height="93.873" style="stroke:#181818;stroke-width:0.6;" width="6" x="107.7" y="43.1473"/><rect fill="#FFFFFF" height="61.1238" style="stroke:#181818;stroke-width:0.6;" width="6" x="107.7" y="327.7664"/><rect fill="#FFFFFF" height="49.5492" style="stroke:#181818;stroke-width:0.6;" width="6" x="107.7" y="445.2141"/><rect fill="#FFFFFF" height="18.7746" style="stroke:#181818;stroke-width:0.6;" width="6" x="107.7" y="690.3094"/><rect fill="#FFFFFF" height="18.7746" style="stroke:#181818;stroke-width:0.6;" width="6" x="317.1" y="61.9219"/><rect fill="#FFFFFF" height="18.7746" style="stroke:#181818;stroke-width:0.6;" width="6" x="317.1" y="137.0203"/><rect fill="#FFFFFF" height="18.7746" style="stroke:#181818;stroke-width:0.6;" width="6" x="317.1" y="308.9918"/><rect fill="#FFFFFF" height="18.7746" style="stroke:#181818;stroke-width:0.6;" width="6" x="317.1" y="388.8902"/><rect fill="#FFFFFF" height="18.7746" style="stroke:#181818;stroke-width:0.6;" width="6" x="317.1" y="426.4395"/><rect fill="#FFFFFF" height="18.7746" style="stroke:#181818;stroke-width:0.6;" width="6" x="317.1" y="494.7633"/><rect fill="#FFFFFF" height="18.7746" style="stroke:#181818;stroke-width:0.6;" width="6" x="317.1" y="671.5348"/><rect fill="#FFFFFF" height="18.7746" style="stroke:#181818;stroke-width:0.6;" width="6" x="423.3" y="80.6965"/><rect fill="#FFFFFF" height="18.7746" style="stroke:#181818;stroke-width:0.6;" width="6" x="509.1" y="99.4711"/><rect fill="#FFFFFF" height="18.7746" style="stroke:#181818;stroke-width:0.6;" width="6" x="624.3" y="155.7949"/><rect fill="#FFFFFF" height="18.7746" style="stroke:#181818;stroke-width:0.6;" width="6" x="624.3" y="193.3441"/><rect fill="#FFFFFF" height="78.0984" style="stroke:#181818;stroke-width:0.6;" width="6" x="624.3" y="230.8934"/><rect fill="#FFFFFF" height="18.7746" style="stroke:#181818;stroke-width:0.6;" width="6" x="624.3" y="513.5379"/><rect fill="#FFFFFF" height="18.7746" style="stroke:#181818;stroke-width:0.6;" width="6" x="624.3" y="551.0871"/><rect fill="#FFFFFF" height="18.7746" style="stroke:#181818;stroke-width:0.6;" width="6" x="624.3" y="588.6363"/><rect fill="#FFFFFF" height="18.7746" style="stroke:#181818;stroke-width:0.6;" width="6" x="624.3" y="652.7602"/><rect fill="#FFFFFF" height="45.3492" style="stroke:#181818;stroke-width:0.6;" width="6" x="773.1" y="607.4109"/><rect fill="#FFFFFF" height="18.7746" style="stroke:#181818;stroke-width:0.6;" width="6" x="865.2" y="174.5695"/><rect fill="#FFFFFF" height="18.7746" style="stroke:#181818;stroke-width:0.6;" width="6" x="865.2" y="569.8617"/><rect fill="#FFFFFF" height="18.7746" style="stroke:#181818;stroke-width:0.6;" width="6" x="956.1" y="212.1188"/><rect fill="#FFFFFF" height="18.7746" style="stroke:#181818;stroke-width:0.6;" width="6" x="956.1" y="532.3125"/><rect fill="#FFFFFF" height="18.7746" style="stroke:#181818;stroke-width:0.6;" width="6" x="1059.9" y="407.6648"/><rect fill="none" height="113.2477" style="stroke:#000000;stroke-width:0.8999999999999999;" width="1062.3" x="60.3" y="363.341"/><line style="stroke:#181818;stroke-width:0.3;stroke-dasharray:5.0,5.0;" x1="27.6" x2="27.6" y1="23.1727" y2="719.884"/><line style="stroke:#181818;stroke-width:0.3;stroke-dasharray:5.0,5.0;" x1="110.7" x2="110.7" y1="23.1727" y2="719.884"/><line style="stroke:#181818;stroke-width:0.3;stroke-dasharray:5.0,5.0;" x1="320.1" x2="320.1" y1="23.1727" y2="719.884"/><line style="stroke:#181818;stroke-width:0.3;stroke-dasharray:5.0,5.0;" x1="426.3" x2="426.3" y1="23.1727" y2="719.884"/><line style="stroke:#181818;stroke-width:0.3;stroke-dasharray:5.0,5.0;" x1="512.1" x2="512.1" y1="23.1727" y2="719.884"/><line style="stroke:#181818;stroke-width:0.3;stroke-dasharray:5.0,5.0;" x1="627.3" x2="627.3" y1="23.1727" y2="719.884"/><line style="stroke:#181818;stroke-width:0.3;stroke-dasharray:5.0,5.0;" x1="775.8" x2="775.8" y1="23.1727" y2="719.884"/><line style="stroke:#181818;stroke-width:0.3;stroke-dasharray:5.0,5.0;" x1="868.2" x2="868.2" y1="23.1727" y2="719.884"/><line style="stroke:#181818;stroke-width:0.3;stroke-dasharray:5.0,5.0;" x1="958.8" x2="958.8" y1="23.1727" y2="719.884"/><line style="stroke:#181818;stroke-width:0.3;stroke-dasharray:5.0,5.0;" x1="1062.6" x2="1062.6" y1="23.1727" y2="719.884"/><rect fill="#E2E2F0" height="19.5727" rx="1.5" ry="1.5" style="stroke:#181818;stroke-width:0.3;" width="49.8" x="3" y="3"/><text fill="#000000" font-family="sans-serif" font-size="8.4" lengthAdjust="spacing" textLength="41.4" x="7.2" y="16.2645">OperatorUI</text><rect fill="#E2E2F0" height="19.5727" rx="1.5" ry="1.5" style="stroke:#181818;stroke-width:0.3;" width="49.8" x="3" y="719.284"/><text fill="#000000" font-family="sans-serif" font-size="8.4" lengthAdjust="spacing" textLength="41.4" x="7.2" y="732.5484">OperatorUI</text><rect fill="#E2E2F0" height="19.5727" rx="1.5" ry="1.5" style="stroke:#181818;stroke-width:0.3;" width="88.8" x="66.3" y="3"/><text fill="#000000" font-family="sans-serif" font-size="8.4" lengthAdjust="spacing" textLength="80.4" x="70.5" y="16.2645">RegisterApplicationUI</text><rect fill="#E2E2F0" height="19.5727" rx="1.5" ry="1.5" style="stroke:#181818;stroke-width:0.3;" width="88.8" x="66.3" y="719.284"/><text fill="#000000" font-family="sans-serif" font-size="8.4" lengthAdjust="spacing" textLength="80.4" x="70.5" y="732.5484">RegisterApplicationUI</text><rect fill="#E2E2F0" height="19.5727" rx="1.5" ry="1.5" style="stroke:#181818;stroke-width:0.3;" width="118.8" x="260.7" y="3"/><text fill="#000000" font-family="sans-serif" font-size="8.4" lengthAdjust="spacing" textLength="110.4" x="264.9" y="16.2645">RegisterApplicationController</text><rect fill="#E2E2F0" height="19.5727" rx="1.5" ry="1.5" style="stroke:#181818;stroke-width:0.3;" width="118.8" x="260.7" y="719.284"/><text fill="#000000" font-family="sans-serif" font-size="8.4" lengthAdjust="spacing" textLength="110.4" x="264.9" y="732.5484">RegisterApplicationController</text><rect fill="#E2E2F0" height="19.5727" rx="1.5" ry="1.5" style="stroke:#181818;stroke-width:0.3;" width="81.6" x="385.5" y="3"/><text fill="#000000" font-family="sans-serif" font-size="8.4" lengthAdjust="spacing" textLength="73.2" x="389.7" y="16.2645">PersistenceContext</text><rect fill="#E2E2F0" height="19.5727" rx="1.5" ry="1.5" style="stroke:#181818;stroke-width:0.3;" width="81.6" x="385.5" y="719.284"/><text fill="#000000" font-family="sans-serif" font-size="8.4" lengthAdjust="spacing" textLength="73.2" x="389.7" y="732.5484">PersistenceContext</text><rect fill="#E2E2F0" height="19.5727" rx="1.5" ry="1.5" style="stroke:#181818;stroke-width:0.3;" width="78" x="473.1" y="3"/><text fill="#000000" font-family="sans-serif" font-size="8.4" lengthAdjust="spacing" textLength="69.6" x="477.3" y="16.2645">RepositoryFactory</text><rect fill="#E2E2F0" height="19.5727" rx="1.5" ry="1.5" style="stroke:#181818;stroke-width:0.3;" width="78" x="473.1" y="719.284"/><text fill="#000000" font-family="sans-serif" font-size="8.4" lengthAdjust="spacing" textLength="69.6" x="477.3" y="732.5484">RepositoryFactory</text><rect fill="#E2E2F0" height="19.5727" rx="1.5" ry="1.5" style="stroke:#181818;stroke-width:0.3;" width="140.4" x="557.1" y="3"/><text fill="#000000" font-family="sans-serif" font-size="8.4" lengthAdjust="spacing" textLength="132" x="561.3" y="16.2645">JobApplicationManagementService</text><rect fill="#E2E2F0" height="19.5727" rx="1.5" ry="1.5" style="stroke:#181818;stroke-width:0.3;" width="140.4" x="557.1" y="719.284"/><text fill="#000000" font-family="sans-serif" font-size="8.4" lengthAdjust="spacing" textLength="132" x="561.3" y="732.5484">JobApplicationManagementService</text><rect fill="#E2E2F0" height="19.5727" rx="1.5" ry="1.5" style="stroke:#181818;stroke-width:0.3;" width="90.6" x="730.8" y="3"/><text fill="#000000" font-family="sans-serif" font-size="8.4" lengthAdjust="spacing" textLength="82.2" x="735" y="16.2645">ApplicationRepository</text><rect fill="#E2E2F0" height="19.5727" rx="1.5" ry="1.5" style="stroke:#181818;stroke-width:0.3;" width="90.6" x="730.8" y="719.284"/><text fill="#000000" font-family="sans-serif" font-size="8.4" lengthAdjust="spacing" textLength="82.2" x="735" y="732.5484">ApplicationRepository</text><rect fill="#E2E2F0" height="19.5727" rx="1.5" ry="1.5" style="stroke:#181818;stroke-width:0.3;" width="81.6" x="827.4" y="3"/><text fill="#000000" font-family="sans-serif" font-size="8.4" lengthAdjust="spacing" textLength="73.2" x="831.6" y="16.2645">JobOfferRepository</text><rect fill="#E2E2F0" height="19.5727" rx="1.5" ry="1.5" style="stroke:#181818;stroke-width:0.3;" width="81.6" x="827.4" y="719.284"/><text fill="#000000" font-family="sans-serif" font-size="8.4" lengthAdjust="spacing" textLength="73.2" x="831.6" y="732.5484">JobOfferRepository</text><rect fill="#E2E2F0" height="19.5727" rx="1.5" ry="1.5" style="stroke:#181818;stroke-width:0.3;" width="88.2" x="915" y="3"/><text fill="#000000" font-family="sans-serif" font-size="8.4" lengthAdjust="spacing" textLength="79.8" x="919.2" y="16.2645">CandidateRepository</text><rect fill="#E2E2F0" height="19.5727" rx="1.5" ry="1.5" style="stroke:#181818;stroke-width:0.3;" width="88.2" x="915" y="719.284"/><text fill="#000000" font-family="sans-serif" font-size="8.4" lengthAdjust="spacing" textLength="79.8" x="919.2" y="732.5484">CandidateRepository</text><rect fill="#E2E2F0" height="19.5727" rx="1.5" ry="1.5" style="stroke:#181818;stroke-width:0.3;" width="107.4" x="1009.2" y="3"/><text fill="#000000" font-family="sans-serif" font-size="8.4" lengthAdjust="spacing" textLength="99" x="1013.4" y="16.2645">RegisterCandidateService</text><rect fill="#E2E2F0" height="19.5727" rx="1.5" ry="1.5" style="stroke:#181818;stroke-width:0.3;" width="107.4" x="1009.2" y="719.284"/><text fill="#000000" font-family="sans-serif" font-size="8.4" lengthAdjust="spacing" textLength="99" x="1013.4" y="732.5484">RegisterCandidateService</text><rect fill="#FFFFFF" height="13.9746" style="stroke:#181818;stroke-width:0.6;" width="6" x="24.9" y="29.1727"/><rect fill="#FFFFFF" height="5.4" style="stroke:#181818;stroke-width:0.6;" width="6" x="24.9" y="709.084"/><rect fill="#FFFFFF" height="93.873" style="stroke:#181818;stroke-width:0.6;" width="6" x="107.7" y="43.1473"/><rect fill="#FFFFFF" height="61.1238" style="stroke:#181818;stroke-width:0.6;" width="6" x="107.7" y="327.7664"/><rect fill="#FFFFFF" height="49.5492" style="stroke:#181818;stroke-width:0.6;" width="6" x="107.7" y="445.2141"/><rect fill="#FFFFFF" height="18.7746" style="stroke:#181818;stroke-width:0.6;" width="6" x="107.7" y="690.3094"/><rect fill="#FFFFFF" height="18.7746" style="stroke:#181818;stroke-width:0.6;" width="6" x="317.1" y="61.9219"/><rect fill="#FFFFFF" height="18.7746" style="stroke:#181818;stroke-width:0.6;" width="6" x="317.1" y="137.0203"/><rect fill="#FFFFFF" height="18.7746" style="stroke:#181818;stroke-width:0.6;" width="6" x="317.1" y="308.9918"/><rect fill="#FFFFFF" height="18.7746" style="stroke:#181818;stroke-width:0.6;" width="6" x="317.1" y="388.8902"/><rect fill="#FFFFFF" height="18.7746" style="stroke:#181818;stroke-width:0.6;" width="6" x="317.1" y="426.4395"/><rect fill="#FFFFFF" height="18.7746" style="stroke:#181818;stroke-width:0.6;" width="6" x="317.1" y="494.7633"/><rect fill="#FFFFFF" height="18.7746" style="stroke:#181818;stroke-width:0.6;" width="6" x="317.1" y="671.5348"/><rect fill="#FFFFFF" height="18.7746" style="stroke:#181818;stroke-width:0.6;" width="6" x="423.3" y="80.6965"/><rect fill="#FFFFFF" height="18.7746" style="stroke:#181818;stroke-width:0.6;" width="6" x="509.1" y="99.4711"/><rect fill="#FFFFFF" height="18.7746" style="stroke:#181818;stroke-width:0.6;" width="6" x="624.3" y="155.7949"/><rect fill="#FFFFFF" height="18.7746" style="stroke:#181818;stroke-width:0.6;" width="6" x="624.3" y="193.3441"/><rect fill="#FFFFFF" height="78.0984" style="stroke:#181818;stroke-width:0.6;" width="6" x="624.3" y="230.8934"/><rect fill="#FFFFFF" height="18.7746" style="stroke:#181818;stroke-width:0.6;" width="6" x="624.3" y="513.5379"/><rect fill="#FFFFFF" height="18.7746" style="stroke:#181818;stroke-width:0.6;" width="6" x="624.3" y="551.0871"/><rect fill="#FFFFFF" height="18.7746" style="stroke:#181818;stroke-width:0.6;" width="6" x="624.3" y="588.6363"/><rect fill="#FFFFFF" height="18.7746" style="stroke:#181818;stroke-width:0.6;" width="6" x="624.3" y="652.7602"/><rect fill="#FFFFFF" height="45.3492" style="stroke:#181818;stroke-width:0.6;" width="6" x="773.1" y="607.4109"/><rect fill="#FFFFFF" height="18.7746" style="stroke:#181818;stroke-width:0.6;" width="6" x="865.2" y="174.5695"/><rect fill="#FFFFFF" height="18.7746" style="stroke:#181818;stroke-width:0.6;" width="6" x="865.2" y="569.8617"/><rect fill="#FFFFFF" height="18.7746" style="stroke:#181818;stroke-width:0.6;" width="6" x="956.1" y="212.1188"/><rect fill="#FFFFFF" height="18.7746" style="stroke:#181818;stroke-width:0.6;" width="6" x="956.1" y="532.3125"/><rect fill="#FFFFFF" height="18.7746" style="stroke:#181818;stroke-width:0.6;" width="6" x="1059.9" y="407.6648"/><polygon fill="#181818" points="100.5,40.7473,106.5,43.1473,100.5,45.5473,102.9,43.1473" style="stroke:#181818;stroke-width:0.6;"/><line style="stroke:#181818;stroke-width:0.6;" x1="27.9" x2="104.1" y1="43.1473" y2="43.1473"/><text fill="#000000" font-family="sans-serif" font-size="7.8" font-weight="bold" lengthAdjust="spacing" textLength="4.2" x="32.1" y="39.9896">1</text><text fill="#000000" font-family="sans-serif" font-size="7.8" lengthAdjust="spacing" textLength="58.8" x="38.7" y="39.9896">registerJobOffer()</text><polygon fill="#181818" points="309.9,59.5219,315.9,61.9219,309.9,64.3219,312.3,61.9219" style="stroke:#181818;stroke-width:0.6;"/><line style="stroke:#181818;stroke-width:0.6;" x1="113.7" x2="313.5" y1="61.9219" y2="61.9219"/><text fill="#000000" font-family="sans-serif" font-size="7.8" font-weight="bold" lengthAdjust="spacing" textLength="4.2" x="117.9" y="58.7643">2</text><text fill="#000000" font-family="sans-serif" font-size="7.8" lengthAdjust="spacing" textLength="26.4" x="124.5" y="58.7643">create()</text><polygon fill="#181818" points="416.1,78.2965,422.1,80.6965,416.1,83.0965,418.5,80.6965" style="stroke:#181818;stroke-width:0.6;"/><line style="stroke:#181818;stroke-width:0.6;" x1="320.1" x2="419.7" y1="80.6965" y2="80.6965"/><text fill="#000000" font-family="sans-serif" font-size="7.8" font-weight="bold" lengthAdjust="spacing" textLength="4.2" x="324.3" y="77.5389">3</text><text fill="#000000" font-family="sans-serif" font-size="7.8" lengthAdjust="spacing" textLength="45" x="330.9" y="77.5389">repositories()</text><polygon fill="#181818" points="501.9,97.0711,507.9,99.4711,501.9,101.8711,504.3,99.4711" style="stroke:#181818;stroke-width:0.6;"/><line style="stroke:#181818;stroke-width:0.6;" x1="426.3" x2="505.5" y1="99.4711" y2="99.4711"/><text fill="#000000" font-family="sans-serif" font-size="7.8" font-weight="bold" lengthAdjust="spacing" textLength="4.2" x="430.5" y="96.3135">4</text><text fill="#000000" font-family="sans-serif" font-size="7.8" lengthAdjust="spacing" textLength="26.4" x="437.1" y="96.3135">create()</text><polygon fill="#181818" points="768.9,115.8457,774.9,118.2457,768.9,120.6457,771.3,118.2457" style="stroke:#181818;stroke-width:0.6;"/><line style="stroke:#181818;stroke-width:0.6;" x1="512.1" x2="772.5" y1="118.2457" y2="118.2457"/><text fill="#000000" font-family="sans-serif" font-size="7.8" font-weight="bold" lengthAdjust="spacing" textLength="4.2" x="516.3" y="115.0881">5</text><text fill="#000000" font-family="sans-serif" font-size="7.8" lengthAdjust="spacing" textLength="26.4" x="522.9" y="115.0881">create()</text><polygon fill="#181818" points="309.9,134.6203,315.9,137.0203,309.9,139.4203,312.3,137.0203" style="stroke:#181818;stroke-width:0.6;"/><line style="stroke:#181818;stroke-width:0.6;" x1="110.7" x2="313.5" y1="137.0203" y2="137.0203"/><text fill="#000000" font-family="sans-serif" font-size="7.8" font-weight="bold" lengthAdjust="spacing" textLength="4.2" x="114.9" y="133.8627">6</text><text fill="#000000" font-family="sans-serif" font-size="7.8" lengthAdjust="spacing" textLength="31.8" x="121.5" y="133.8627">getData()</text><polygon fill="#181818" points="617.1,153.3949,623.1,155.7949,617.1,158.1949,619.5,155.7949" style="stroke:#181818;stroke-width:0.6;"/><line style="stroke:#181818;stroke-width:0.6;" x1="320.1" x2="620.7" y1="155.7949" y2="155.7949"/><text fill="#000000" font-family="sans-serif" font-size="7.8" font-weight="bold" lengthAdjust="spacing" textLength="4.2" x="324.3" y="152.6373">7</text><text fill="#000000" font-family="sans-serif" font-size="7.8" lengthAdjust="spacing" textLength="30.6" x="330.9" y="152.6373">getdata()</text><polygon fill="#181818" points="858,172.1695,864,174.5695,858,176.9695,860.4,174.5695" style="stroke:#181818;stroke-width:0.6;"/><line style="stroke:#181818;stroke-width:0.6;" x1="627.3" x2="861.6" y1="174.5695" y2="174.5695"/><text fill="#000000" font-family="sans-serif" font-size="7.8" font-weight="bold" lengthAdjust="spacing" textLength="4.2" x="631.5" y="171.4119">8</text><text fill="#000000" font-family="sans-serif" font-size="7.8" lengthAdjust="spacing" textLength="25.8" x="638.1" y="171.4119">findAll()</text><polygon fill="#181818" points="636.9,190.9441,630.9,193.3441,636.9,195.7441,634.5,193.3441" style="stroke:#181818;stroke-width:0.6;"/><line style="stroke:#181818;stroke-width:0.6;stroke-dasharray:2.0,2.0;" x1="633.3" x2="867.6" y1="193.3441" y2="193.3441"/><text fill="#000000" font-family="sans-serif" font-size="7.8" font-weight="bold" lengthAdjust="spacing" textLength="4.2" x="640.5" y="190.1865">9</text><text fill="#000000" font-family="sans-serif" font-size="7.8" lengthAdjust="spacing" textLength="30.6" x="647.1" y="190.1865">jobOffers</text><polygon fill="#181818" points="948.9,209.7188,954.9,212.1188,948.9,214.5187,951.3,212.1188" style="stroke:#181818;stroke-width:0.6;"/><line style="stroke:#181818;stroke-width:0.6;" x1="627.3" x2="952.5" y1="212.1188" y2="212.1188"/><text fill="#000000" font-family="sans-serif" font-size="7.8" font-weight="bold" lengthAdjust="spacing" textLength="8.4" x="631.5" y="208.9611">10</text><text fill="#000000" font-family="sans-serif" font-size="7.8" lengthAdjust="spacing" textLength="25.8" x="642.3" y="208.9611">findAll()</text><polygon fill="#181818" points="636.9,228.4934,630.9,230.8934,636.9,233.2934,634.5,230.8934" style="stroke:#181818;stroke-width:0.6;"/><line style="stroke:#181818;stroke-width:0.6;stroke-dasharray:2.0,2.0;" x1="633.3" x2="958.5" y1="230.8934" y2="230.8934"/><text fill="#000000" font-family="sans-serif" font-size="7.8" font-weight="bold" lengthAdjust="spacing" textLength="8.4" x="640.5" y="227.7357">11</text><text fill="#000000" font-family="sans-serif" font-size="7.8" lengthAdjust="spacing" textLength="37.8" x="651.3" y="227.7357">candidates</text><line style="stroke:#181818;stroke-width:0.6;" x1="630.3" x2="655.5" y1="249.668" y2="249.668"/><line style="stroke:#181818;stroke-width:0.6;" x1="655.5" x2="655.5" y1="249.668" y2="257.468"/><line style="stroke:#181818;stroke-width:0.6;" x1="630.9" x2="655.5" y1="257.468" y2="257.468"/><polygon fill="#181818" points="636.9,255.068,630.9,257.468,636.9,259.868,634.5,257.468" style="stroke:#181818;stroke-width:0.6;"/><text fill="#000000" font-family="sans-serif" font-size="7.8" font-weight="bold" lengthAdjust="spacing" textLength="8.4" x="634.5" y="246.5104">12</text><text fill="#000000" font-family="sans-serif" font-size="7.8" lengthAdjust="spacing" textLength="67.2" x="645.3" y="246.5104">candidates.toDTO()</text><line style="stroke:#181818;stroke-width:0.6;" x1="630.3" x2="655.5" y1="279.3299" y2="279.3299"/><line style="stroke:#181818;stroke-width:0.6;" x1="655.5" x2="655.5" y1="279.3299" y2="287.1299"/><line style="stroke:#181818;stroke-width:0.6;" x1="630.9" x2="655.5" y1="287.1299" y2="287.1299"/><polygon fill="#181818" points="636.9,284.7299,630.9,287.1299,636.9,289.5299,634.5,287.1299" style="stroke:#181818;stroke-width:0.6;"/><text fill="#000000" font-family="sans-serif" font-size="7.8" font-weight="bold" lengthAdjust="spacing" textLength="8.4" x="634.5" y="276.1723">13</text><text fill="#000000" font-family="sans-serif" font-size="7.8" lengthAdjust="spacing" textLength="60" x="645.3" y="276.1723">jobOffers.toDTO()</text><path d="M712.2,265.268 L712.2,291.668 L1058.4,291.668 L1058.4,271.268 L1052.4,265.268 L712.2,265.268 " fill="#FEFFDD" style="stroke:#181818;stroke-width:0.3;"/><path d="M1052.4,265.268 L1052.4,271.268 L1058.4,271.268 L1052.4,265.268 " fill="#FEFFDD" style="stroke:#181818;stroke-width:0.3;"/><text fill="#000000" font-family="sans-serif" font-size="7.8" lengthAdjust="spacing" textLength="324.6" x="715.8" y="276.685">the classes "Candidate" and "JobOffer" implement the "DTOable" interface, their conversion to</text><text fill="#000000" font-family="sans-serif" font-size="7.8" lengthAdjust="spacing" textLength="333.6" x="715.8" y="287.0596">a DTO will be done using the interface method and will become easier to understand with the CD</text><polygon fill="#181818" points="329.7,306.5918,323.7,308.9918,329.7,311.3918,327.3,308.9918" style="stroke:#181818;stroke-width:0.6;"/><line style="stroke:#181818;stroke-width:0.6;stroke-dasharray:2.0,2.0;" x1="326.1" x2="626.7" y1="308.9918" y2="308.9918"/><text fill="#000000" font-family="sans-serif" font-size="7.8" font-weight="bold" lengthAdjust="spacing" textLength="8.4" x="333.3" y="305.8342">14</text><text fill="#000000" font-family="sans-serif" font-size="7.8" lengthAdjust="spacing" textLength="15" x="344.1" y="305.8342">data</text><polygon fill="#181818" points="120.3,325.3664,114.3,327.7664,120.3,330.1664,117.9,327.7664" style="stroke:#181818;stroke-width:0.6;"/><line style="stroke:#181818;stroke-width:0.6;stroke-dasharray:2.0,2.0;" x1="116.7" x2="319.5" y1="327.7664" y2="327.7664"/><text fill="#000000" font-family="sans-serif" font-size="7.8" font-weight="bold" lengthAdjust="spacing" textLength="8.4" x="123.9" y="324.6088">15</text><text fill="#000000" font-family="sans-serif" font-size="7.8" lengthAdjust="spacing" textLength="15" x="134.7" y="324.6088">data</text><line style="stroke:#181818;stroke-width:0.6;" x1="113.7" x2="138.9" y1="346.541" y2="346.541"/><line style="stroke:#181818;stroke-width:0.6;" x1="138.9" x2="138.9" y1="346.541" y2="354.341"/><line style="stroke:#181818;stroke-width:0.6;" x1="114.3" x2="138.9" y1="354.341" y2="354.341"/><polygon fill="#181818" points="120.3,351.941,114.3,354.341,120.3,356.741,117.9,354.341" style="stroke:#181818;stroke-width:0.6;"/><text fill="#000000" font-family="sans-serif" font-size="7.8" font-weight="bold" lengthAdjust="spacing" textLength="8.4" x="117.9" y="343.3834">16</text><text fill="#000000" font-family="sans-serif" font-size="7.8" lengthAdjust="spacing" textLength="32.4" x="128.7" y="343.3834">doShow()</text><path d="M60.3,363.341 L96.9,363.341 L96.9,368.9156 L90.9,374.9156 L60.3,374.9156 L60.3,363.341 " fill="#EEEEEE" style="stroke:#000000;stroke-width:0.8999999999999999;"/><rect fill="none" height="113.2477" style="stroke:#000000;stroke-width:0.8999999999999999;" width="1062.3" x="60.3" y="363.341"/><text fill="#000000" font-family="sans-serif" font-size="7.8" font-weight="bold" lengthAdjust="spacing" textLength="9.6" x="69.3" y="372.358">alt</text><text fill="#000000" font-family="sans-serif" font-size="6.6" font-weight="bold" lengthAdjust="spacing" textLength="102.6" x="105.9" y="371.6631">[if candidate not in the system]</text><polygon fill="#181818" points="309.9,386.4902,315.9,388.8902,309.9,391.2902,312.3,388.8902" style="stroke:#181818;stroke-width:0.6;"/><line style="stroke:#181818;stroke-width:0.6;" x1="110.7" x2="313.5" y1="388.8902" y2="388.8902"/><text fill="#000000" font-family="sans-serif" font-size="7.8" font-weight="bold" lengthAdjust="spacing" textLength="8.4" x="114.9" y="385.7326">17</text><text fill="#000000" font-family="sans-serif" font-size="7.8" lengthAdjust="spacing" textLength="139.8" x="125.7" y="385.7326">importCanidateInfo(firstName,LastName)</text><polygon fill="#181818" points="1052.7,405.2648,1058.7,407.6648,1052.7,410.0648,1055.1,407.6648" style="stroke:#181818;stroke-width:0.6;"/><line style="stroke:#181818;stroke-width:0.6;" x1="320.1" x2="1056.3" y1="407.6648" y2="407.6648"/><text fill="#000000" font-family="sans-serif" font-size="7.8" font-weight="bold" lengthAdjust="spacing" textLength="8.4" x="324.3" y="404.5072">18</text><text fill="#000000" font-family="sans-serif" font-size="7.8" lengthAdjust="spacing" textLength="82.8" x="335.1" y="404.5072">importCandidateInfo(file)</text><polygon fill="#181818" points="329.7,424.0395,323.7,426.4395,329.7,428.8395,327.3,426.4395" style="stroke:#181818;stroke-width:0.6;"/><line style="stroke:#181818;stroke-width:0.6;stroke-dasharray:2.0,2.0;" x1="326.1" x2="1062.3" y1="426.4395" y2="426.4395"/><text fill="#000000" font-family="sans-serif" font-size="7.8" font-weight="bold" lengthAdjust="spacing" textLength="8.4" x="333.3" y="423.2818">19</text><text fill="#000000" font-family="sans-serif" font-size="7.8" lengthAdjust="spacing" textLength="33.6" x="344.1" y="423.2818">candidate</text><polygon fill="#181818" points="120.3,442.8141,114.3,445.2141,120.3,447.6141,117.9,445.2141" style="stroke:#181818;stroke-width:0.6;"/><line style="stroke:#181818;stroke-width:0.6;stroke-dasharray:2.0,2.0;" x1="116.7" x2="319.5" y1="445.2141" y2="445.2141"/><text fill="#000000" font-family="sans-serif" font-size="7.8" font-weight="bold" lengthAdjust="spacing" textLength="8.4" x="123.9" y="442.0564">20</text><text fill="#000000" font-family="sans-serif" font-size="7.8" lengthAdjust="spacing" textLength="33.6" x="134.7" y="442.0564">candidate</text><line style="stroke:#181818;stroke-width:0.6;" x1="113.7" x2="138.9" y1="463.9887" y2="463.9887"/><line style="stroke:#181818;stroke-width:0.6;" x1="138.9" x2="138.9" y1="463.9887" y2="471.7887"/><line style="stroke:#181818;stroke-width:0.6;" x1="114.3" x2="138.9" y1="471.7887" y2="471.7887"/><polygon fill="#181818" points="120.3,469.3887,114.3,471.7887,120.3,474.1887,117.9,471.7887" style="stroke:#181818;stroke-width:0.6;"/><text fill="#000000" font-family="sans-serif" font-size="7.8" font-weight="bold" lengthAdjust="spacing" textLength="8.4" x="117.9" y="460.8311">21</text><text fill="#000000" font-family="sans-serif" font-size="7.8" lengthAdjust="spacing" textLength="32.4" x="128.7" y="460.8311">doShow()</text><polygon fill="#181818" points="309.9,492.3633,315.9,494.7633,309.9,497.1633,312.3,494.7633" style="stroke:#181818;stroke-width:0.6;"/><line style="stroke:#181818;stroke-width:0.6;" x1="110.7" x2="313.5" y1="494.7633" y2="494.7633"/><text fill="#000000" font-family="sans-serif" font-size="7.8" font-weight="bold" lengthAdjust="spacing" textLength="8.4" x="114.9" y="491.6057">22</text><text fill="#000000" font-family="sans-serif" font-size="7.8" lengthAdjust="spacing" textLength="181.2" x="125.7" y="491.6057">registerApplication(candidateOption, JobOfferOption)</text><polygon fill="#181818" points="617.1,511.1379,623.1,513.5379,617.1,515.9379,619.5,513.5379" style="stroke:#181818;stroke-width:0.6;"/><line style="stroke:#181818;stroke-width:0.6;" x1="320.1" x2="620.7" y1="513.5379" y2="513.5379"/><text fill="#000000" font-family="sans-serif" font-size="7.8" font-weight="bold" lengthAdjust="spacing" textLength="8.4" x="324.3" y="510.3803">23</text><text fill="#000000" font-family="sans-serif" font-size="7.8" lengthAdjust="spacing" textLength="181.2" x="335.1" y="510.3803">registerApplication(candidateOption, JobOfferOption)</text><polygon fill="#181818" points="948.9,529.9125,954.9,532.3125,948.9,534.7125,951.3,532.3125" style="stroke:#181818;stroke-width:0.6;"/><line style="stroke:#181818;stroke-width:0.6;" x1="627.3" x2="952.5" y1="532.3125" y2="532.3125"/><text fill="#000000" font-family="sans-serif" font-size="7.8" font-weight="bold" lengthAdjust="spacing" textLength="8.4" x="631.5" y="529.1549">24</text><text fill="#000000" font-family="sans-serif" font-size="7.8" lengthAdjust="spacing" textLength="137.4" x="642.3" y="529.1549">findByNumber(CandidatePhoneNumber)</text><polygon fill="#181818" points="636.9,548.6871,630.9,551.0871,636.9,553.4871,634.5,551.0871" style="stroke:#181818;stroke-width:0.6;"/><line style="stroke:#181818;stroke-width:0.6;stroke-dasharray:2.0,2.0;" x1="633.3" x2="958.5" y1="551.0871" y2="551.0871"/><text fill="#000000" font-family="sans-serif" font-size="7.8" font-weight="bold" lengthAdjust="spacing" textLength="8.4" x="640.5" y="547.9295">25</text><text fill="#000000" font-family="sans-serif" font-size="7.8" lengthAdjust="spacing" textLength="33.6" x="651.3" y="547.9295">candidate</text><polygon fill="#181818" points="858,567.4617,864,569.8617,858,572.2617,860.4,569.8617" style="stroke:#181818;stroke-width:0.6;"/><line style="stroke:#181818;stroke-width:0.6;" x1="627.3" x2="861.6" y1="569.8617" y2="569.8617"/><text fill="#000000" font-family="sans-serif" font-size="7.8" font-weight="bold" lengthAdjust="spacing" textLength="8.4" x="631.5" y="566.7041">26</text><text fill="#000000" font-family="sans-serif" font-size="7.8" lengthAdjust="spacing" textLength="111.6" x="642.3" y="566.7041">findWithRefCode(jobOfferOption)</text><polygon fill="#181818" points="636.9,586.2363,630.9,588.6363,636.9,591.0363,634.5,588.6363" style="stroke:#181818;stroke-width:0.6;"/><line style="stroke:#181818;stroke-width:0.6;stroke-dasharray:2.0,2.0;" x1="633.3" x2="867.6" y1="588.6363" y2="588.6363"/><text fill="#000000" font-family="sans-serif" font-size="7.8" font-weight="bold" lengthAdjust="spacing" textLength="8.4" x="640.5" y="585.4787">27</text><text fill="#000000" font-family="sans-serif" font-size="7.8" lengthAdjust="spacing" textLength="26.4" x="651.3" y="585.4787">jobOffer</text><polygon fill="#181818" points="765.9,605.0109,771.9,607.4109,765.9,609.8109,768.3,607.4109" style="stroke:#181818;stroke-width:0.6;"/><line style="stroke:#181818;stroke-width:0.6;" x1="627.3" x2="769.5" y1="607.4109" y2="607.4109"/><text fill="#000000" font-family="sans-serif" font-size="7.8" font-weight="bold" lengthAdjust="spacing" textLength="8.4" x="631.5" y="604.2533">28</text><text fill="#000000" font-family="sans-serif" font-size="7.8" lengthAdjust="spacing" textLength="120.6" x="642.3" y="604.2533">addApplication(jobOffer, candidate)</text><line style="stroke:#181818;stroke-width:0.6;stroke-dasharray:2.0,2.0;" x1="779.1" x2="804.3" y1="626.1855" y2="626.1855"/><line style="stroke:#181818;stroke-width:0.6;stroke-dasharray:2.0,2.0;" x1="804.3" x2="804.3" y1="626.1855" y2="633.9855"/><line style="stroke:#181818;stroke-width:0.6;stroke-dasharray:2.0,2.0;" x1="779.7" x2="804.3" y1="633.9855" y2="633.9855"/><polygon fill="#181818" points="785.7,631.5855,779.7,633.9855,785.7,636.3855,783.3,633.9855" style="stroke:#181818;stroke-width:0.6;"/><text fill="#000000" font-family="sans-serif" font-size="7.8" font-weight="bold" lengthAdjust="spacing" textLength="8.4" x="783.3" y="623.0279">29</text><text fill="#000000" font-family="sans-serif" font-size="7.8" lengthAdjust="spacing" textLength="20.4" x="794.1" y="623.0279">save()</text><polygon fill="#181818" points="636.9,650.3602,630.9,652.7602,636.9,655.1602,634.5,652.7602" style="stroke:#181818;stroke-width:0.6;"/><line style="stroke:#181818;stroke-width:0.6;stroke-dasharray:2.0,2.0;" x1="633.3" x2="775.5" y1="652.7602" y2="652.7602"/><text fill="#000000" font-family="sans-serif" font-size="7.8" font-weight="bold" lengthAdjust="spacing" textLength="8.4" x="640.5" y="649.6025">30</text><text fill="#000000" font-family="sans-serif" font-size="7.8" lengthAdjust="spacing" textLength="37.2" x="651.3" y="649.6025">application</text><polygon fill="#181818" points="329.7,669.1348,323.7,671.5348,329.7,673.9348,327.3,671.5348" style="stroke:#181818;stroke-width:0.6;"/><line style="stroke:#181818;stroke-width:0.6;stroke-dasharray:2.0,2.0;" x1="326.1" x2="626.7" y1="671.5348" y2="671.5348"/><text fill="#000000" font-family="sans-serif" font-size="7.8" font-weight="bold" lengthAdjust="spacing" textLength="8.4" x="333.3" y="668.3771">31</text><text fill="#000000" font-family="sans-serif" font-size="7.8" lengthAdjust="spacing" textLength="37.2" x="344.1" y="668.3771">application</text><polygon fill="#181818" points="120.3,687.9094,114.3,690.3094,120.3,692.7094,117.9,690.3094" style="stroke:#181818;stroke-width:0.6;"/><line style="stroke:#181818;stroke-width:0.6;stroke-dasharray:2.0,2.0;" x1="116.7" x2="319.5" y1="690.3094" y2="690.3094"/><text fill="#000000" font-family="sans-serif" font-size="7.8" font-weight="bold" lengthAdjust="spacing" textLength="8.4" x="123.9" y="687.1518">32</text><text fill="#000000" font-family="sans-serif" font-size="7.8" lengthAdjust="spacing" textLength="37.2" x="134.7" y="687.1518">application</text><polygon fill="#181818" points="37.5,706.684,31.5,709.084,37.5,711.484,35.1,709.084" style="stroke:#181818;stroke-width:0.6;"/><line style="stroke:#181818;stroke-width:0.6;stroke-dasharray:2.0,2.0;" x1="33.9" x2="110.1" y1="709.084" y2="709.084"/><text fill="#000000" font-family="sans-serif" font-size="7.8" font-weight="bold" lengthAdjust="spacing" textLength="8.4" x="41.1" y="705.9264">33</text><text fill="#000000" font-family="sans-serif" font-size="7.8" lengthAdjust="spacing" textLength="2.4" x="51.9" y="705.9264">&#160;</text><!--SRC=[pLZ1Sjem4BtxApHSIcOWt3bq9eN9J3fjo2JjzDABiDPO6Lbo9K6Ql-_Q1bisCdQ8avGBHbhjUtgxMgtv55kRclbibWegxJOHbw5APWR-R466C6MSRZHDWe1khPBRP0qw25AgBGzvYWl8AWLDhT8_Rsh3zx3XneA-IbF1GsgvajqM2oMjLa8WXcjv1zfafiWdiu2_jk4eLOOZXUTh6cPVjTclQkqWVAUIRY01QHz0xtW8DLl7i7BQzBQA8j0jqmig6MVKWZCV82c-mp5NgkgHJ3_xnI9pelVZ1zJnHS30vwuSyylkz-y7hcA0148Dw1LXJm4uKJlj3m6FGvblSoyM1rFVuccqqioJ81wWVB-DL77twE1w73gSckbsx1MXlBdK0kTpUMR4Dc2NrD9E6JkIvYKnxJXX1IdMXvGljbtdjmkz8DWujCWfuf9T2L7dr0Nc6ZRhW0TbsakTn_r2qs3I11XI4a-XUhKclkBdm-cdIdXOMPF5Xp5mglJcTMdLyiSAnHh4Rva5fLkfS4-QRs8x9pO64Wfg31WoAaKO4NmYeqEkZ0XFKf7xpHUCq0zT2pJZMCDqH4EOP1DSar39NLRZb2HMaT-I4hGbJrm8iWR2b0IoDLnkSZ_bQfA0ZHNBKVUss2m00MeurWBqj9KCtTh2mCRvyiMoMw4UbIsh86VbvQlAsudRkKcePq5x_HLTeAk7M3rbLxEmX4TLNXBC6mnPBhrvngL9GF1pzes2EQMqnPpBlT_8I8qZZZ6-fGbClj7YuIB7wBnoCgEUUhLmhbyz1uFoH5JdgQJDNDwY5zC6ZIFJ9boDx16NFibTHg-DdHToE2bF95edjHS8TvmDv-SzO8t1t3-_LTB7y-Doiwiq-pqfx-7Yzt1TLJ14N_K6EtYZ5gozt_ZoV9k_LOvBaxiOhvzYyBzgHDwv3_6thB_mLhs7QA4OZ1_R8_kXZUmxzh5jRrcKCVTG79XDgcYU9vV_7m8_Y-a9VeRkidV0zeNTQjDgsjsAd-5mclSeh2tCFhnXQ-7r5dqRid3-dkb_QJYBWdy0]--></g></svg>