<?xml version="1.0" encoding="us-ascii" standalone="no"?><svg xmlns="http://www.w3.org/2000/svg" xmlns:xlink="http://www.w3.org/1999/xlink" contentStyleType="text/css" height="777px" preserveAspectRatio="none" style="width:1432px;height:776px;background:#FFFFFF;" version="1.1" viewBox="0 0 1432 776" width="1432.9px" zoomAndPan="magnify"><defs/><g><!--class RegisterApplicationController--><g id="elem_RegisterApplicationController"><rect codeLine="4" fill="#F1F1F1" height="59.6695" id="RegisterApplicationController" rx="1.75" ry="1.75" style="stroke:#181818;stroke-width:0.3499999999999999;" width="252.7" x="590.45" y="4.9"/><ellipse cx="649.425" cy="16.1" fill="#ADD1B2" rx="7.7" ry="7.7" style="stroke:#181818;stroke-width:0.6999999999999998;"/><path d="M651.3609,13.2125 Q651.4703,13.0594 651.6016,12.9828 Q651.7328,12.9062 651.8859,12.9062 Q652.1484,12.9062 652.3125,13.0922 Q652.4766,13.2672 652.4766,13.6937 L652.4766,14.7109 Q652.4766,15.1375 652.3125,15.3234 Q652.1484,15.5094 651.8859,15.5094 Q651.6453,15.5094 651.5031,15.3672 Q651.3609,15.2359 651.2844,14.875 Q651.2516,14.6234 651.1203,14.4922 Q650.8906,14.2297 650.4641,14.0766 Q650.0375,13.9234 649.6,13.9234 Q649.0641,13.9234 648.6156,14.1531 Q648.1781,14.3828 647.8281,14.9078 Q647.4891,15.4328 647.4891,16.1547 L647.4891,16.9203 Q647.4891,17.7844 648.1125,18.3641 Q648.7359,18.9328 649.8516,18.9328 Q650.5078,18.9328 650.9672,18.7578 Q651.2406,18.6484 651.5359,18.3422 Q651.7219,18.1562 651.8203,18.1016 Q651.9297,18.0469 652.0719,18.0469 Q652.3016,18.0469 652.4766,18.2328 Q652.6625,18.4078 652.6625,18.6484 Q652.6625,18.8891 652.4219,19.1734 Q652.0719,19.5781 651.5141,19.8078 Q650.7594,20.125 649.8516,20.125 Q648.7906,20.125 647.9484,19.6875 Q647.2594,19.3375 646.7781,18.5937 Q646.2969,17.8391 646.2969,16.9422 L646.2969,16.1328 Q646.2969,15.2031 646.7234,14.4047 Q647.1609,13.5953 647.9266,13.1687 Q648.6922,12.7312 649.5562,12.7312 Q650.0703,12.7312 650.5187,12.8516 Q650.9781,12.9609 651.3609,13.2125 Z " fill="#000000"/><text fill="#000000" font-family="sans-serif" font-size="9.8" lengthAdjust="spacing" textLength="128.8" x="663.775" y="20.1578">RegisterApplicationController</text><line style="stroke:#181818;stroke-width:0.3499999999999999;" x1="591.15" x2="842.45" y1="27.3" y2="27.3"/><line style="stroke:#181818;stroke-width:0.3499999999999999;" x1="591.15" x2="842.45" y1="32.9" y2="32.9"/><ellipse cx="598.15" cy="43.2674" fill="#84BE84" rx="2.1" ry="2.1" style="stroke:#038048;stroke-width:0.6999999999999998;"/><text fill="#000000" font-family="sans-serif" font-size="9.8" lengthAdjust="spacing" textLength="42" x="604.45" y="46.2752">getData()</text><ellipse cx="598.15" cy="56.3021" fill="#84BE84" rx="2.1" ry="2.1" style="stroke:#038048;stroke-width:0.6999999999999998;"/><text fill="#000000" font-family="sans-serif" font-size="9.8" lengthAdjust="spacing" textLength="234.5" x="604.45" y="59.31">registerApplication(candidateOption, JobOfferOption)</text></g><!--class PersistenceContext--><g id="elem_PersistenceContext"><rect codeLine="9" fill="#F1F1F1" height="46.6348" id="PersistenceContext" rx="1.75" ry="1.75" style="stroke:#181818;stroke-width:0.3499999999999999;" width="107.8" x="257.6" y="138.95"/><ellipse cx="268.1" cy="150.15" fill="#ADD1B2" rx="7.7" ry="7.7" style="stroke:#181818;stroke-width:0.6999999999999998;"/><path d="M270.0359,147.2625 Q270.1453,147.1094 270.2766,147.0328 Q270.4078,146.9562 270.5609,146.9562 Q270.8234,146.9562 270.9875,147.1422 Q271.1516,147.3172 271.1516,147.7437 L271.1516,148.7609 Q271.1516,149.1875 270.9875,149.3734 Q270.8234,149.5594 270.5609,149.5594 Q270.3203,149.5594 270.1781,149.4172 Q270.0359,149.2859 269.9594,148.925 Q269.9266,148.6734 269.7953,148.5422 Q269.5656,148.2797 269.1391,148.1266 Q268.7125,147.9734 268.275,147.9734 Q267.7391,147.9734 267.2906,148.2031 Q266.8531,148.4328 266.5031,148.9578 Q266.1641,149.4828 266.1641,150.2047 L266.1641,150.9703 Q266.1641,151.8344 266.7875,152.4141 Q267.4109,152.9828 268.5266,152.9828 Q269.1828,152.9828 269.6422,152.8078 Q269.9156,152.6984 270.2109,152.3922 Q270.3969,152.2062 270.4953,152.1516 Q270.6047,152.0969 270.7469,152.0969 Q270.9766,152.0969 271.1516,152.2828 Q271.3375,152.4578 271.3375,152.6984 Q271.3375,152.9391 271.0969,153.2234 Q270.7469,153.6281 270.1891,153.8578 Q269.4344,154.175 268.5266,154.175 Q267.4656,154.175 266.6234,153.7375 Q265.9344,153.3875 265.4531,152.6437 Q264.9719,151.8891 264.9719,150.9922 L264.9719,150.1828 Q264.9719,149.2531 265.3984,148.4547 Q265.8359,147.6453 266.6016,147.2187 Q267.3672,146.7812 268.2312,146.7812 Q268.7453,146.7812 269.1937,146.9016 Q269.6531,147.0109 270.0359,147.2625 Z " fill="#000000"/><text fill="#000000" font-family="sans-serif" font-size="9.8" lengthAdjust="spacing" textLength="85.4" x="277.9" y="154.2078">PersistenceContext</text><line style="stroke:#181818;stroke-width:0.3499999999999999;" x1="258.3" x2="364.7" y1="161.35" y2="161.35"/><line style="stroke:#181818;stroke-width:0.3499999999999999;" x1="258.3" x2="364.7" y1="166.95" y2="166.95"/><ellipse cx="265.3" cy="177.3174" fill="#84BE84" rx="2.1" ry="2.1" style="stroke:#038048;stroke-width:0.6999999999999998;"/><text fill="#000000" font-family="sans-serif" font-size="9.8" lengthAdjust="spacing" textLength="58.8" x="271.6" y="180.3252">repositories()</text></g><!--class JobApplication--><g id="elem_JobApplication"><rect codeLine="13" fill="#F1F1F1" height="111.8086" id="JobApplication" rx="1.75" ry="1.75" style="stroke:#181818;stroke-width:0.3499999999999999;" width="147" x="532.7" y="260.4"/><ellipse cx="571.375" cy="271.6" fill="#ADD1B2" rx="7.7" ry="7.7" style="stroke:#181818;stroke-width:0.6999999999999998;"/><path d="M573.3109,268.7125 Q573.4203,268.5594 573.5516,268.4828 Q573.6828,268.4062 573.8359,268.4062 Q574.0984,268.4062 574.2625,268.5922 Q574.4266,268.7672 574.4266,269.1937 L574.4266,270.2109 Q574.4266,270.6375 574.2625,270.8234 Q574.0984,271.0094 573.8359,271.0094 Q573.5953,271.0094 573.4531,270.8672 Q573.3109,270.7359 573.2344,270.375 Q573.2016,270.1234 573.0703,269.9922 Q572.8406,269.7297 572.4141,269.5766 Q571.9875,269.4234 571.55,269.4234 Q571.0141,269.4234 570.5656,269.6531 Q570.1281,269.8828 569.7781,270.4078 Q569.4391,270.9328 569.4391,271.6547 L569.4391,272.4203 Q569.4391,273.2844 570.0625,273.8641 Q570.6859,274.4328 571.8016,274.4328 Q572.4578,274.4328 572.9172,274.2578 Q573.1906,274.1484 573.4859,273.8422 Q573.6719,273.6562 573.7703,273.6016 Q573.8797,273.5469 574.0219,273.5469 Q574.2516,273.5469 574.4266,273.7328 Q574.6125,273.9078 574.6125,274.1484 Q574.6125,274.3891 574.3719,274.6734 Q574.0219,275.0781 573.4641,275.3078 Q572.7094,275.625 571.8016,275.625 Q570.7406,275.625 569.8984,275.1875 Q569.2094,274.8375 568.7281,274.0937 Q568.2469,273.3391 568.2469,272.4422 L568.2469,271.6328 Q568.2469,270.7031 568.6734,269.9047 Q569.1109,269.0953 569.8766,268.6687 Q570.6422,268.2312 571.5062,268.2312 Q572.0203,268.2312 572.4687,268.3516 Q572.9281,268.4609 573.3109,268.7125 Z " fill="#000000"/><text fill="#000000" font-family="sans-serif" font-size="9.8" lengthAdjust="spacing" textLength="63.7" x="585.725" y="275.6578">JobApplication</text><line style="stroke:#181818;stroke-width:0.3499999999999999;" x1="533.4" x2="679" y1="282.8" y2="282.8"/><rect fill="none" height="4.2" style="stroke:#C82930;stroke-width:0.6999999999999998;" width="4.2" x="538.3" y="291.0674"/><text fill="#000000" font-family="sans-serif" font-size="9.8" lengthAdjust="spacing" textLength="87.5" x="546.7" y="296.1752">ApplicationRefCode</text><rect fill="none" height="4.2" style="stroke:#C82930;stroke-width:0.6999999999999998;" width="4.2" x="538.3" y="304.1021"/><text fill="#000000" font-family="sans-serif" font-size="9.8" lengthAdjust="spacing" textLength="128.8" x="546.7" y="309.21">ApplicationAttachedFilesPath</text><rect fill="none" height="4.2" style="stroke:#C82930;stroke-width:0.6999999999999998;" width="4.2" x="538.3" y="317.1369"/><text fill="#000000" font-family="sans-serif" font-size="9.8" lengthAdjust="spacing" textLength="72.1" x="546.7" y="322.2447">ApplicationEmail</text><rect fill="none" height="4.2" style="stroke:#C82930;stroke-width:0.6999999999999998;" width="4.2" x="538.3" y="330.1717"/><text fill="#000000" font-family="sans-serif" font-size="9.8" lengthAdjust="spacing" textLength="103.6" x="546.7" y="335.2795">ApplicationAttachedFile</text><rect fill="none" height="4.2" style="stroke:#C82930;stroke-width:0.6999999999999998;" width="4.2" x="538.3" y="343.2064"/><text fill="#000000" font-family="sans-serif" font-size="9.8" lengthAdjust="spacing" textLength="37.8" x="546.7" y="348.3143">JobOffer</text><rect fill="none" height="4.2" style="stroke:#C82930;stroke-width:0.6999999999999998;" width="4.2" x="538.3" y="356.2412"/><text fill="#000000" font-family="sans-serif" font-size="9.8" lengthAdjust="spacing" textLength="45.5" x="546.7" y="361.349">Candidate</text><line style="stroke:#181818;stroke-width:0.3499999999999999;" x1="533.4" x2="679" y1="366.6086" y2="366.6086"/></g><!--class CandidateDTO--><g id="elem_CandidateDTO"><rect codeLine="22" fill="#F1F1F1" height="85.7391" id="CandidateDTO" rx="1.75" ry="1.75" style="stroke:#181818;stroke-width:0.3499999999999999;" width="115.5" x="852.95" y="614.95"/><ellipse cx="875.42" cy="626.15" fill="#ADD1B2" rx="7.7" ry="7.7" style="stroke:#181818;stroke-width:0.6999999999999998;"/><path d="M877.3559,623.2625 Q877.4653,623.1094 877.5966,623.0328 Q877.7278,622.9562 877.8809,622.9562 Q878.1434,622.9562 878.3075,623.1422 Q878.4716,623.3172 878.4716,623.7437 L878.4716,624.7609 Q878.4716,625.1875 878.3075,625.3734 Q878.1434,625.5594 877.8809,625.5594 Q877.6403,625.5594 877.4981,625.4172 Q877.3559,625.2859 877.2794,624.925 Q877.2466,624.6734 877.1153,624.5422 Q876.8856,624.2797 876.4591,624.1266 Q876.0325,623.9734 875.595,623.9734 Q875.0591,623.9734 874.6106,624.2031 Q874.1731,624.4328 873.8231,624.9578 Q873.4841,625.4828 873.4841,626.2047 L873.4841,626.9703 Q873.4841,627.8344 874.1075,628.4141 Q874.7309,628.9828 875.8466,628.9828 Q876.5028,628.9828 876.9622,628.8078 Q877.2356,628.6984 877.5309,628.3922 Q877.7169,628.2062 877.8153,628.1516 Q877.9247,628.0969 878.0669,628.0969 Q878.2966,628.0969 878.4716,628.2828 Q878.6575,628.4578 878.6575,628.6984 Q878.6575,628.9391 878.4169,629.2234 Q878.0669,629.6281 877.5091,629.8578 Q876.7544,630.175 875.8466,630.175 Q874.7856,630.175 873.9434,629.7375 Q873.2544,629.3875 872.7731,628.6437 Q872.2919,627.8891 872.2919,626.9922 L872.2919,626.1828 Q872.2919,625.2531 872.7184,624.4547 Q873.1559,623.6453 873.9216,623.2187 Q874.6872,622.7812 875.5512,622.7812 Q876.0653,622.7812 876.5137,622.9016 Q876.9731,623.0109 877.3559,623.2625 Z " fill="#000000"/><text fill="#000000" font-family="sans-serif" font-size="9.8" lengthAdjust="spacing" textLength="66.5" x="887.88" y="630.2078">CandidateDTO</text><line style="stroke:#181818;stroke-width:0.3499999999999999;" x1="853.65" x2="967.75" y1="637.35" y2="637.35"/><rect fill="none" height="4.2" style="stroke:#C82930;stroke-width:0.6999999999999998;" width="4.2" x="858.55" y="645.6174"/><text fill="#000000" font-family="sans-serif" font-size="9.8" lengthAdjust="spacing" textLength="97.3" x="866.95" y="650.7252">PhoneNumber : String</text><rect fill="none" height="4.2" style="stroke:#C82930;stroke-width:0.6999999999999998;" width="4.2" x="858.55" y="658.6521"/><text fill="#000000" font-family="sans-serif" font-size="9.8" lengthAdjust="spacing" textLength="70.7" x="866.95" y="663.76">UserInfo : String</text><line style="stroke:#181818;stroke-width:0.3499999999999999;" x1="853.65" x2="967.75" y1="669.0195" y2="669.0195"/><ellipse cx="860.65" cy="679.3869" fill="#84BE84" rx="2.1" ry="2.1" style="stroke:#038048;stroke-width:0.6999999999999998;"/><text fill="#000000" font-family="sans-serif" font-size="9.8" lengthAdjust="spacing" textLength="84" x="866.95" y="682.3947">getPhoneNumber()</text><ellipse cx="860.65" cy="692.4217" fill="#84BE84" rx="2.1" ry="2.1" style="stroke:#038048;stroke-width:0.6999999999999998;"/><text fill="#000000" font-family="sans-serif" font-size="9.8" lengthAdjust="spacing" textLength="57.4" x="866.95" y="695.4295">getUserInfo()</text></g><!--class JobOfferDTO--><g id="elem_JobOfferDTO"><rect codeLine="31" fill="#F1F1F1" height="137.8781" id="JobOfferDTO" rx="1.75" ry="1.75" style="stroke:#181818;stroke-width:0.3499999999999999;" width="107.1" x="1321.25" y="588.7"/><ellipse cx="1343.405" cy="599.9" fill="#ADD1B2" rx="7.7" ry="7.7" style="stroke:#181818;stroke-width:0.6999999999999998;"/><path d="M1345.3409,597.0125 Q1345.4503,596.8594 1345.5816,596.7828 Q1345.7128,596.7062 1345.8659,596.7062 Q1346.1284,596.7062 1346.2925,596.8922 Q1346.4566,597.0672 1346.4566,597.4937 L1346.4566,598.5109 Q1346.4566,598.9375 1346.2925,599.1234 Q1346.1284,599.3094 1345.8659,599.3094 Q1345.6253,599.3094 1345.4831,599.1672 Q1345.3409,599.0359 1345.2644,598.675 Q1345.2316,598.4234 1345.1003,598.2922 Q1344.8706,598.0297 1344.4441,597.8766 Q1344.0175,597.7234 1343.58,597.7234 Q1343.0441,597.7234 1342.5956,597.9531 Q1342.1581,598.1828 1341.8081,598.7078 Q1341.4691,599.2328 1341.4691,599.9547 L1341.4691,600.7203 Q1341.4691,601.5844 1342.0925,602.1641 Q1342.7159,602.7328 1343.8316,602.7328 Q1344.4878,602.7328 1344.9472,602.5578 Q1345.2206,602.4484 1345.5159,602.1422 Q1345.7019,601.9562 1345.8003,601.9016 Q1345.9097,601.8469 1346.0519,601.8469 Q1346.2816,601.8469 1346.4566,602.0328 Q1346.6425,602.2078 1346.6425,602.4484 Q1346.6425,602.6891 1346.4019,602.9734 Q1346.0519,603.3781 1345.4941,603.6078 Q1344.7394,603.925 1343.8316,603.925 Q1342.7706,603.925 1341.9284,603.4875 Q1341.2394,603.1375 1340.7581,602.3937 Q1340.2769,601.6391 1340.2769,600.7422 L1340.2769,599.9328 Q1340.2769,599.0031 1340.7034,598.2047 Q1341.1409,597.3953 1341.9066,596.9687 Q1342.6722,596.5312 1343.5362,596.5312 Q1344.0503,596.5312 1344.4987,596.6516 Q1344.9581,596.7609 1345.3409,597.0125 Z " fill="#000000"/><text fill="#000000" font-family="sans-serif" font-size="9.8" lengthAdjust="spacing" textLength="58.8" x="1355.795" y="603.9578">JobOfferDTO</text><line style="stroke:#181818;stroke-width:0.3499999999999999;" x1="1321.95" x2="1427.65" y1="611.1" y2="611.1"/><rect fill="none" height="4.2" style="stroke:#C82930;stroke-width:0.6999999999999998;" width="4.2" x="1326.85" y="619.3674"/><text fill="#000000" font-family="sans-serif" font-size="9.8" lengthAdjust="spacing" textLength="67.9" x="1335.25" y="624.4752">refcode : String</text><rect fill="none" height="4.2" style="stroke:#C82930;stroke-width:0.6999999999999998;" width="4.2" x="1326.85" y="632.4021"/><text fill="#000000" font-family="sans-serif" font-size="9.8" lengthAdjust="spacing" textLength="66.5" x="1335.25" y="637.51">jobTitle : String</text><rect fill="none" height="4.2" style="stroke:#C82930;stroke-width:0.6999999999999998;" width="4.2" x="1326.85" y="645.4369"/><text fill="#000000" font-family="sans-serif" font-size="9.8" lengthAdjust="spacing" textLength="72.1" x="1335.25" y="650.5447">jobMode : String</text><rect fill="none" height="4.2" style="stroke:#C82930;stroke-width:0.6999999999999998;" width="4.2" x="1326.85" y="658.4717"/><text fill="#000000" font-family="sans-serif" font-size="9.8" lengthAdjust="spacing" textLength="88.9" x="1335.25" y="663.5795">nrVacancies : String</text><line style="stroke:#181818;stroke-width:0.3499999999999999;" x1="1321.95" x2="1427.65" y1="668.8391" y2="668.8391"/><ellipse cx="1328.95" cy="679.2064" fill="#84BE84" rx="2.1" ry="2.1" style="stroke:#038048;stroke-width:0.6999999999999998;"/><text fill="#000000" font-family="sans-serif" font-size="9.8" lengthAdjust="spacing" textLength="54.6" x="1335.25" y="682.2143">getrefcode()</text><ellipse cx="1328.95" cy="692.2412" fill="#84BE84" rx="2.1" ry="2.1" style="stroke:#038048;stroke-width:0.6999999999999998;"/><text fill="#000000" font-family="sans-serif" font-size="9.8" lengthAdjust="spacing" textLength="53.2" x="1335.25" y="695.249">getjobTitle()</text><ellipse cx="1328.95" cy="705.276" fill="#84BE84" rx="2.1" ry="2.1" style="stroke:#038048;stroke-width:0.6999999999999998;"/><text fill="#000000" font-family="sans-serif" font-size="9.8" lengthAdjust="spacing" textLength="58.8" x="1335.25" y="708.2838">getjobMode()</text><ellipse cx="1328.95" cy="718.3107" fill="#84BE84" rx="2.1" ry="2.1" style="stroke:#038048;stroke-width:0.6999999999999998;"/><text fill="#000000" font-family="sans-serif" font-size="9.8" lengthAdjust="spacing" textLength="75.6" x="1335.25" y="721.3186">getnrVacancies()</text></g><!--class RepositoryFactory--><g id="elem_RepositoryFactory"><rect codeLine="43" fill="#F1F1F1" height="98.7738" id="RepositoryFactory" rx="1.75" ry="1.75" style="stroke:#181818;stroke-width:0.3499999999999999;" width="212.8" x="4.9" y="267.05"/><ellipse cx="67.725" cy="278.25" fill="#ADD1B2" rx="7.7" ry="7.7" style="stroke:#181818;stroke-width:0.6999999999999998;"/><path d="M69.6609,275.3625 Q69.7703,275.2094 69.9016,275.1328 Q70.0328,275.0562 70.1859,275.0562 Q70.4484,275.0562 70.6125,275.2422 Q70.7766,275.4172 70.7766,275.8437 L70.7766,276.8609 Q70.7766,277.2875 70.6125,277.4734 Q70.4484,277.6594 70.1859,277.6594 Q69.9453,277.6594 69.8031,277.5172 Q69.6609,277.3859 69.5844,277.025 Q69.5516,276.7734 69.4203,276.6422 Q69.1906,276.3797 68.7641,276.2266 Q68.3375,276.0734 67.9,276.0734 Q67.3641,276.0734 66.9156,276.3031 Q66.4781,276.5328 66.1281,277.0578 Q65.7891,277.5828 65.7891,278.3047 L65.7891,279.0703 Q65.7891,279.9344 66.4125,280.5141 Q67.0359,281.0828 68.1516,281.0828 Q68.8078,281.0828 69.2672,280.9078 Q69.5406,280.7984 69.8359,280.4922 Q70.0219,280.3062 70.1203,280.2516 Q70.2297,280.1969 70.3719,280.1969 Q70.6016,280.1969 70.7766,280.3828 Q70.9625,280.5578 70.9625,280.7984 Q70.9625,281.0391 70.7219,281.3234 Q70.3719,281.7281 69.8141,281.9578 Q69.0594,282.275 68.1516,282.275 Q67.0906,282.275 66.2484,281.8375 Q65.5594,281.4875 65.0781,280.7437 Q64.5969,279.9891 64.5969,279.0922 L64.5969,278.2828 Q64.5969,277.3531 65.0234,276.5547 Q65.4609,275.7453 66.2266,275.3187 Q66.9922,274.8812 67.8562,274.8812 Q68.3703,274.8812 68.8187,275.0016 Q69.2781,275.1109 69.6609,275.3625 Z " fill="#000000"/><text fill="#000000" font-family="sans-serif" font-size="9.8" lengthAdjust="spacing" textLength="81.2" x="82.075" y="282.3078">RepositoryFactory</text><line style="stroke:#181818;stroke-width:0.3499999999999999;" x1="5.6" x2="217" y1="289.45" y2="289.45"/><line style="stroke:#181818;stroke-width:0.3499999999999999;" x1="5.6" x2="217" y1="295.05" y2="295.05"/><ellipse cx="12.6" cy="305.4174" fill="#84BE84" rx="2.1" ry="2.1" style="stroke:#038048;stroke-width:0.6999999999999998;"/><text fill="#000000" font-family="sans-serif" font-size="9.8" lengthAdjust="spacing" textLength="118.3" x="18.9" y="308.4252">newTransactionalContext()</text><ellipse cx="12.6" cy="318.4521" fill="#84BE84" rx="2.1" ry="2.1" style="stroke:#038048;stroke-width:0.6999999999999998;"/><text fill="#000000" font-family="sans-serif" font-size="9.8" lengthAdjust="spacing" textLength="147.7" x="18.9" y="321.46">users(TransactionalContext var1)</text><ellipse cx="12.6" cy="331.4869" fill="#84BE84" rx="2.1" ry="2.1" style="stroke:#038048;stroke-width:0.6999999999999998;"/><text fill="#000000" font-family="sans-serif" font-size="9.8" lengthAdjust="spacing" textLength="31.5" x="18.9" y="334.4947">users()</text><ellipse cx="12.6" cy="344.5217" fill="#84BE84" rx="2.1" ry="2.1" style="stroke:#038048;stroke-width:0.6999999999999998;"/><text fill="#000000" font-family="sans-serif" font-size="9.8" lengthAdjust="spacing" textLength="194.6" x="18.9" y="347.5295">signupRequests(TransactionalContext var1)</text><ellipse cx="12.6" cy="357.5564" fill="#84BE84" rx="2.1" ry="2.1" style="stroke:#038048;stroke-width:0.6999999999999998;"/><text fill="#000000" font-family="sans-serif" font-size="9.8" lengthAdjust="spacing" textLength="78.4" x="18.9" y="360.5643">signupRequests()</text></g><!--class CandidateRepository--><g id="elem_CandidateRepository"><rect codeLine="51" fill="#F1F1F1" height="72.7043" id="CandidateRepository" rx="1.75" ry="1.75" style="stroke:#181818;stroke-width:0.3499999999999999;" width="147.7" x="642.95" y="421.4"/><ellipse cx="667.94" cy="432.6" fill="#ADD1B2" rx="7.7" ry="7.7" style="stroke:#181818;stroke-width:0.6999999999999998;"/><path d="M669.8759,429.7125 Q669.9853,429.5594 670.1166,429.4828 Q670.2478,429.4062 670.4009,429.4062 Q670.6634,429.4062 670.8275,429.5922 Q670.9916,429.7672 670.9916,430.1937 L670.9916,431.2109 Q670.9916,431.6375 670.8275,431.8234 Q670.6634,432.0094 670.4009,432.0094 Q670.1603,432.0094 670.0181,431.8672 Q669.8759,431.7359 669.7994,431.375 Q669.7666,431.1234 669.6353,430.9922 Q669.4056,430.7297 668.9791,430.5766 Q668.5525,430.4234 668.115,430.4234 Q667.5791,430.4234 667.1306,430.6531 Q666.6931,430.8828 666.3431,431.4078 Q666.0041,431.9328 666.0041,432.6547 L666.0041,433.4203 Q666.0041,434.2844 666.6275,434.8641 Q667.2509,435.4328 668.3666,435.4328 Q669.0228,435.4328 669.4822,435.2578 Q669.7556,435.1484 670.0509,434.8422 Q670.2369,434.6562 670.3353,434.6016 Q670.4447,434.5469 670.5869,434.5469 Q670.8166,434.5469 670.9916,434.7328 Q671.1775,434.9078 671.1775,435.1484 Q671.1775,435.3891 670.9369,435.6734 Q670.5869,436.0781 670.0291,436.3078 Q669.2744,436.625 668.3666,436.625 Q667.3056,436.625 666.4634,436.1875 Q665.7744,435.8375 665.2931,435.0937 Q664.8119,434.3391 664.8119,433.4422 L664.8119,432.6328 Q664.8119,431.7031 665.2384,430.9047 Q665.6759,430.0953 666.4416,429.6687 Q667.2072,429.2312 668.0712,429.2312 Q668.5853,429.2312 669.0337,429.3516 Q669.4931,429.4609 669.8759,429.7125 Z " fill="#000000"/><text fill="#000000" font-family="sans-serif" font-size="9.8" lengthAdjust="spacing" textLength="93.1" x="680.96" y="436.6578">CandidateRepository</text><line style="stroke:#181818;stroke-width:0.3499999999999999;" x1="643.65" x2="789.95" y1="443.8" y2="443.8"/><rect fill="none" height="4.2" style="stroke:#C82930;stroke-width:0.6999999999999998;" width="4.2" x="648.55" y="452.0674"/><text fill="#000000" font-family="sans-serif" font-size="9.8" lengthAdjust="spacing" textLength="129.5" x="656.95" y="457.1752">autoTx: TransactionalContext</text><line style="stroke:#181818;stroke-width:0.3499999999999999;" x1="643.65" x2="789.95" y1="462.4348" y2="462.4348"/><ellipse cx="650.65" cy="472.8021" fill="#84BE84" rx="2.1" ry="2.1" style="stroke:#038048;stroke-width:0.6999999999999998;"/><text fill="#000000" font-family="sans-serif" font-size="9.8" lengthAdjust="spacing" textLength="33.6" x="656.95" y="475.81">findAll()</text><ellipse cx="650.65" cy="485.8369" fill="#84BE84" rx="2.1" ry="2.1" style="stroke:#038048;stroke-width:0.6999999999999998;"/><text fill="#000000" font-family="sans-serif" font-size="9.8" lengthAdjust="spacing" textLength="68.6" x="656.95" y="488.8447">findByNumber()</text></g><!--class JobOfferRepository--><g id="elem_JobOfferRepository"><rect codeLine="57" fill="#F1F1F1" height="85.7391" id="JobOfferRepository" rx="1.75" ry="1.75" style="stroke:#181818;stroke-width:0.3499999999999999;" width="255.5" x="1057.35" y="415.1"/><ellipse cx="1139.425" cy="426.3" fill="#ADD1B2" rx="7.7" ry="7.7" style="stroke:#181818;stroke-width:0.6999999999999998;"/><path d="M1141.3609,423.4125 Q1141.4703,423.2594 1141.6016,423.1828 Q1141.7328,423.1062 1141.8859,423.1062 Q1142.1484,423.1062 1142.3125,423.2922 Q1142.4766,423.4672 1142.4766,423.8937 L1142.4766,424.9109 Q1142.4766,425.3375 1142.3125,425.5234 Q1142.1484,425.7094 1141.8859,425.7094 Q1141.6453,425.7094 1141.5031,425.5672 Q1141.3609,425.4359 1141.2844,425.075 Q1141.2516,424.8234 1141.1203,424.6922 Q1140.8906,424.4297 1140.4641,424.2766 Q1140.0375,424.1234 1139.6,424.1234 Q1139.0641,424.1234 1138.6156,424.3531 Q1138.1781,424.5828 1137.8281,425.1078 Q1137.4891,425.6328 1137.4891,426.3547 L1137.4891,427.1203 Q1137.4891,427.9844 1138.1125,428.5641 Q1138.7359,429.1328 1139.8516,429.1328 Q1140.5078,429.1328 1140.9672,428.9578 Q1141.2406,428.8484 1141.5359,428.5422 Q1141.7219,428.3562 1141.8203,428.3016 Q1141.9297,428.2469 1142.0719,428.2469 Q1142.3016,428.2469 1142.4766,428.4328 Q1142.6625,428.6078 1142.6625,428.8484 Q1142.6625,429.0891 1142.4219,429.3734 Q1142.0719,429.7781 1141.5141,430.0078 Q1140.7594,430.325 1139.8516,430.325 Q1138.7906,430.325 1137.9484,429.8875 Q1137.2594,429.5375 1136.7781,428.7937 Q1136.2969,428.0391 1136.2969,427.1422 L1136.2969,426.3328 Q1136.2969,425.4031 1136.7234,424.6047 Q1137.1609,423.7953 1137.9266,423.3687 Q1138.6922,422.9312 1139.5562,422.9312 Q1140.0703,422.9312 1140.5187,423.0516 Q1140.9781,423.1609 1141.3609,423.4125 Z " fill="#000000"/><text fill="#000000" font-family="sans-serif" font-size="9.8" lengthAdjust="spacing" textLength="85.4" x="1153.775" y="430.3578">JobOfferRepository</text><line style="stroke:#181818;stroke-width:0.3499999999999999;" x1="1058.05" x2="1312.15" y1="437.5" y2="437.5"/><rect fill="none" height="4.2" style="stroke:#C82930;stroke-width:0.6999999999999998;" width="4.2" x="1062.95" y="445.7674"/><text fill="#000000" font-family="sans-serif" font-size="9.8" lengthAdjust="spacing" textLength="129.5" x="1071.35" y="450.8752">autoTx: TransactionalContext</text><line style="stroke:#181818;stroke-width:0.3499999999999999;" x1="1058.05" x2="1312.15" y1="456.1348" y2="456.1348"/><ellipse cx="1065.05" cy="466.5021" fill="#84BE84" rx="2.1" ry="2.1" style="stroke:#038048;stroke-width:0.6999999999999998;"/><text fill="#000000" font-family="sans-serif" font-size="9.8" lengthAdjust="spacing" textLength="237.3" x="1071.35" y="469.51">JpaJobOfferRepository(autoTx: TransactionalContext)</text><ellipse cx="1065.05" cy="479.5369" fill="#84BE84" rx="2.1" ry="2.1" style="stroke:#038048;stroke-width:0.6999999999999998;"/><text fill="#000000" font-family="sans-serif" font-size="9.8" lengthAdjust="spacing" textLength="113.4" x="1071.35" y="482.5447">findByRef(ref: Reference)</text><ellipse cx="1065.05" cy="492.5717" fill="#84BE84" rx="2.1" ry="2.1" style="stroke:#038048;stroke-width:0.6999999999999998;"/><text fill="#000000" font-family="sans-serif" font-size="9.8" lengthAdjust="spacing" textLength="147.7" x="1071.35" y="495.5795">findByCustomer(customer: name)</text></g><!--class CandidateService--><g id="elem_CandidateService"><rect codeLine="63" fill="#F1F1F1" height="85.7391" id="CandidateService" rx="1.75" ry="1.75" style="stroke:#181818;stroke-width:0.3499999999999999;" width="245.7" x="754.25" y="273.7"/><ellipse cx="834.925" cy="284.9" fill="#ADD1B2" rx="7.7" ry="7.7" style="stroke:#181818;stroke-width:0.6999999999999998;"/><path d="M836.8609,282.0125 Q836.9703,281.8594 837.1016,281.7828 Q837.2328,281.7062 837.3859,281.7062 Q837.6484,281.7062 837.8125,281.8922 Q837.9766,282.0672 837.9766,282.4937 L837.9766,283.5109 Q837.9766,283.9375 837.8125,284.1234 Q837.6484,284.3094 837.3859,284.3094 Q837.1453,284.3094 837.0031,284.1672 Q836.8609,284.0359 836.7844,283.675 Q836.7516,283.4234 836.6203,283.2922 Q836.3906,283.0297 835.9641,282.8766 Q835.5375,282.7234 835.1,282.7234 Q834.5641,282.7234 834.1156,282.9531 Q833.6781,283.1828 833.3281,283.7078 Q832.9891,284.2328 832.9891,284.9547 L832.9891,285.7203 Q832.9891,286.5844 833.6125,287.1641 Q834.2359,287.7328 835.3516,287.7328 Q836.0078,287.7328 836.4672,287.5578 Q836.7406,287.4484 837.0359,287.1422 Q837.2219,286.9562 837.3203,286.9016 Q837.4297,286.8469 837.5719,286.8469 Q837.8016,286.8469 837.9766,287.0328 Q838.1625,287.2078 838.1625,287.4484 Q838.1625,287.6891 837.9219,287.9734 Q837.5719,288.3781 837.0141,288.6078 Q836.2594,288.925 835.3516,288.925 Q834.2906,288.925 833.4484,288.4875 Q832.7594,288.1375 832.2781,287.3937 Q831.7969,286.6391 831.7969,285.7422 L831.7969,284.9328 Q831.7969,284.0031 832.2234,283.2047 Q832.6609,282.3953 833.4266,281.9687 Q834.1922,281.5312 835.0562,281.5312 Q835.5703,281.5312 836.0187,281.6516 Q836.4781,281.7609 836.8609,282.0125 Z " fill="#000000"/><text fill="#000000" font-family="sans-serif" font-size="9.8" lengthAdjust="spacing" textLength="78.4" x="849.275" y="288.9578">CandidateService</text><line style="stroke:#181818;stroke-width:0.3499999999999999;" x1="754.95" x2="999.25" y1="296.1" y2="296.1"/><rect fill="none" height="4.2" style="stroke:#C82930;stroke-width:0.6999999999999998;" width="4.2" x="759.85" y="304.3674"/><text fill="#000000" font-family="sans-serif" font-size="9.8" lengthAdjust="spacing" textLength="122.5" x="768.25" y="309.4752">authz : AuthorizationService</text><rect fill="none" height="4.2" style="stroke:#C82930;stroke-width:0.6999999999999998;" width="4.2" x="759.85" y="317.4021"/><text fill="#000000" font-family="sans-serif" font-size="9.8" lengthAdjust="spacing" textLength="121.8" x="768.25" y="322.51">repo : ClientUserRepository</text><ellipse cx="761.95" cy="332.5369" fill="none" rx="2.1" ry="2.1" style="stroke:#038048;stroke-width:0.6999999999999998;"/><text fill="#000000" font-family="sans-serif" font-size="9.8" lengthAdjust="spacing" textLength="227.5" x="768.25" y="335.5447">findClientUserByMecNumber : Optional&lt;ClientUser&gt;</text><ellipse cx="761.95" cy="345.5717" fill="none" rx="2.1" ry="2.1" style="stroke:#038048;stroke-width:0.6999999999999998;"/><text fill="#000000" font-family="sans-serif" font-size="9.8" lengthAdjust="spacing" textLength="219.8" x="768.25" y="348.5795">findClientUserByUsername : Optional&lt;ClientUser&gt;</text><line style="stroke:#181818;stroke-width:0.3499999999999999;" x1="754.95" x2="999.25" y1="353.8391" y2="353.8391"/></g><!--class JobApplicationManagementService--><g id="elem_JobApplicationManagementService"><rect codeLine="70" fill="#F1F1F1" height="85.7391" id="JobApplicationManagementService" rx="1.75" ry="1.75" style="stroke:#181818;stroke-width:0.3499999999999999;" width="252.7" x="590.45" y="119.7"/><ellipse cx="636.825" cy="130.9" fill="#ADD1B2" rx="7.7" ry="7.7" style="stroke:#181818;stroke-width:0.6999999999999998;"/><path d="M638.7609,128.0125 Q638.8703,127.8594 639.0016,127.7828 Q639.1328,127.7062 639.2859,127.7062 Q639.5484,127.7062 639.7125,127.8922 Q639.8766,128.0672 639.8766,128.4937 L639.8766,129.5109 Q639.8766,129.9375 639.7125,130.1234 Q639.5484,130.3094 639.2859,130.3094 Q639.0453,130.3094 638.9031,130.1672 Q638.7609,130.0359 638.6844,129.675 Q638.6516,129.4234 638.5203,129.2922 Q638.2906,129.0297 637.8641,128.8766 Q637.4375,128.7234 637,128.7234 Q636.4641,128.7234 636.0156,128.9531 Q635.5781,129.1828 635.2281,129.7078 Q634.8891,130.2328 634.8891,130.9547 L634.8891,131.7203 Q634.8891,132.5844 635.5125,133.1641 Q636.1359,133.7328 637.2516,133.7328 Q637.9078,133.7328 638.3672,133.5578 Q638.6406,133.4484 638.9359,133.1422 Q639.1219,132.9562 639.2203,132.9016 Q639.3297,132.8469 639.4719,132.8469 Q639.7016,132.8469 639.8766,133.0328 Q640.0625,133.2078 640.0625,133.4484 Q640.0625,133.6891 639.8219,133.9734 Q639.4719,134.3781 638.9141,134.6078 Q638.1594,134.925 637.2516,134.925 Q636.1906,134.925 635.3484,134.4875 Q634.6594,134.1375 634.1781,133.3937 Q633.6969,132.6391 633.6969,131.7422 L633.6969,130.9328 Q633.6969,130.0031 634.1234,129.2047 Q634.5609,128.3953 635.3266,127.9687 Q636.0922,127.5312 636.9562,127.5312 Q637.4703,127.5312 637.9187,127.6516 Q638.3781,127.7609 638.7609,128.0125 Z " fill="#000000"/><text fill="#000000" font-family="sans-serif" font-size="9.8" lengthAdjust="spacing" textLength="154" x="651.175" y="134.9578">JobApplicationManagementService</text><line style="stroke:#181818;stroke-width:0.3499999999999999;" x1="591.15" x2="842.45" y1="142.1" y2="142.1"/><rect fill="none" height="4.2" style="stroke:#C82930;stroke-width:0.6999999999999998;" width="4.2" x="596.05" y="150.3674"/><text fill="#000000" font-family="sans-serif" font-size="9.8" lengthAdjust="spacing" textLength="122.5" x="604.45" y="155.4752">authz : AuthorizationService</text><rect fill="none" height="4.2" style="stroke:#C82930;stroke-width:0.6999999999999998;" width="4.2" x="596.05" y="163.4021"/><text fill="#000000" font-family="sans-serif" font-size="9.8" lengthAdjust="spacing" textLength="124.6" x="604.45" y="168.51">repo : ApplicationRepository</text><line style="stroke:#181818;stroke-width:0.3499999999999999;" x1="591.15" x2="842.45" y1="173.7695" y2="173.7695"/><ellipse cx="598.15" cy="184.1369" fill="#84BE84" rx="2.1" ry="2.1" style="stroke:#038048;stroke-width:0.6999999999999998;"/><text fill="#000000" font-family="sans-serif" font-size="9.8" lengthAdjust="spacing" textLength="42" x="604.45" y="187.1447">getData()</text><ellipse cx="598.15" cy="197.1717" fill="#84BE84" rx="2.1" ry="2.1" style="stroke:#038048;stroke-width:0.6999999999999998;"/><text fill="#000000" font-family="sans-serif" font-size="9.8" lengthAdjust="spacing" textLength="234.5" x="604.45" y="200.1795">registerApplication(candidateOption, JobOfferOption)</text></g><!--class ApplicationRepository--><g id="elem_ApplicationRepository"><rect codeLine="77" fill="#F1F1F1" height="98.7738" id="ApplicationRepository" rx="1.75" ry="1.75" style="stroke:#181818;stroke-width:0.3499999999999999;" width="266" x="242.2" y="267.05"/><ellipse cx="324.275" cy="278.25" fill="#ADD1B2" rx="7.7" ry="7.7" style="stroke:#181818;stroke-width:0.6999999999999998;"/><path d="M326.2109,275.3625 Q326.3203,275.2094 326.4516,275.1328 Q326.5828,275.0562 326.7359,275.0562 Q326.9984,275.0562 327.1625,275.2422 Q327.3266,275.4172 327.3266,275.8437 L327.3266,276.8609 Q327.3266,277.2875 327.1625,277.4734 Q326.9984,277.6594 326.7359,277.6594 Q326.4953,277.6594 326.3531,277.5172 Q326.2109,277.3859 326.1344,277.025 Q326.1016,276.7734 325.9703,276.6422 Q325.7406,276.3797 325.3141,276.2266 Q324.8875,276.0734 324.45,276.0734 Q323.9141,276.0734 323.4656,276.3031 Q323.0281,276.5328 322.6781,277.0578 Q322.3391,277.5828 322.3391,278.3047 L322.3391,279.0703 Q322.3391,279.9344 322.9625,280.5141 Q323.5859,281.0828 324.7016,281.0828 Q325.3578,281.0828 325.8172,280.9078 Q326.0906,280.7984 326.3859,280.4922 Q326.5719,280.3062 326.6703,280.2516 Q326.7797,280.1969 326.9219,280.1969 Q327.1516,280.1969 327.3266,280.3828 Q327.5125,280.5578 327.5125,280.7984 Q327.5125,281.0391 327.2719,281.3234 Q326.9219,281.7281 326.3641,281.9578 Q325.6094,282.275 324.7016,282.275 Q323.6406,282.275 322.7984,281.8375 Q322.1094,281.4875 321.6281,280.7437 Q321.1469,279.9891 321.1469,279.0922 L321.1469,278.2828 Q321.1469,277.3531 321.5734,276.5547 Q322.0109,275.7453 322.7766,275.3187 Q323.5422,274.8812 324.4062,274.8812 Q324.9203,274.8812 325.3687,275.0016 Q325.8281,275.1109 326.2109,275.3625 Z " fill="#000000"/><text fill="#000000" font-family="sans-serif" font-size="9.8" lengthAdjust="spacing" textLength="95.9" x="338.625" y="282.3078">ApplicationRepository</text><line style="stroke:#181818;stroke-width:0.3499999999999999;" x1="242.9" x2="507.5" y1="289.45" y2="289.45"/><rect fill="none" height="4.2" style="stroke:#C82930;stroke-width:0.6999999999999998;" width="4.2" x="247.8" y="297.7174"/><text fill="#000000" font-family="sans-serif" font-size="9.8" lengthAdjust="spacing" textLength="129.5" x="256.2" y="302.8252">autoTx: TransactionalContext</text><line style="stroke:#181818;stroke-width:0.3499999999999999;" x1="242.9" x2="507.5" y1="308.0848" y2="308.0848"/><ellipse cx="249.9" cy="318.4521" fill="#84BE84" rx="2.1" ry="2.1" style="stroke:#038048;stroke-width:0.6999999999999998;"/><text fill="#000000" font-family="sans-serif" font-size="9.8" lengthAdjust="spacing" textLength="247.8" x="256.2" y="321.46">JpaApplicationRepository(autoTx: TransactionalContext)</text><ellipse cx="249.9" cy="331.4869" fill="#84BE84" rx="2.1" ry="2.1" style="stroke:#038048;stroke-width:0.6999999999999998;"/><text fill="#000000" font-family="sans-serif" font-size="9.8" lengthAdjust="spacing" textLength="113.4" x="256.2" y="334.4947">findByRef(ref: Reference)</text><ellipse cx="249.9" cy="344.5217" fill="#84BE84" rx="2.1" ry="2.1" style="stroke:#038048;stroke-width:0.6999999999999998;"/><text fill="#000000" font-family="sans-serif" font-size="9.8" lengthAdjust="spacing" textLength="153.3" x="256.2" y="347.5295">findByCandidate(candidate: name)</text><ellipse cx="249.9" cy="357.5564" fill="#84BE84" rx="2.1" ry="2.1" style="stroke:#038048;stroke-width:0.6999999999999998;"/><text fill="#000000" font-family="sans-serif" font-size="9.8" lengthAdjust="spacing" textLength="147.7" x="256.2" y="360.5643">findByCustomer(customer: name)</text></g><!--class RegisterJobOfferService--><g id="elem_RegisterJobOfferService"><rect codeLine="85" fill="#F1F1F1" height="72.7043" id="RegisterJobOfferService" rx="1.75" ry="1.75" style="stroke:#181818;stroke-width:0.3499999999999999;" width="140.7" x="1024.45" y="280"/><ellipse cx="1039.675" cy="291.2" fill="#ADD1B2" rx="7.7" ry="7.7" style="stroke:#181818;stroke-width:0.6999999999999998;"/><path d="M1041.6109,288.3125 Q1041.7203,288.1594 1041.8516,288.0828 Q1041.9828,288.0062 1042.1359,288.0062 Q1042.3984,288.0062 1042.5625,288.1922 Q1042.7266,288.3672 1042.7266,288.7937 L1042.7266,289.8109 Q1042.7266,290.2375 1042.5625,290.4234 Q1042.3984,290.6094 1042.1359,290.6094 Q1041.8953,290.6094 1041.7531,290.4672 Q1041.6109,290.3359 1041.5344,289.975 Q1041.5016,289.7234 1041.3703,289.5922 Q1041.1406,289.3297 1040.7141,289.1766 Q1040.2875,289.0234 1039.85,289.0234 Q1039.3141,289.0234 1038.8656,289.2531 Q1038.4281,289.4828 1038.0781,290.0078 Q1037.7391,290.5328 1037.7391,291.2547 L1037.7391,292.0203 Q1037.7391,292.8844 1038.3625,293.4641 Q1038.9859,294.0328 1040.1016,294.0328 Q1040.7578,294.0328 1041.2172,293.8578 Q1041.4906,293.7484 1041.7859,293.4422 Q1041.9719,293.2562 1042.0703,293.2016 Q1042.1797,293.1469 1042.3219,293.1469 Q1042.5516,293.1469 1042.7266,293.3328 Q1042.9125,293.5078 1042.9125,293.7484 Q1042.9125,293.9891 1042.6719,294.2734 Q1042.3219,294.6781 1041.7641,294.9078 Q1041.0094,295.225 1040.1016,295.225 Q1039.0406,295.225 1038.1984,294.7875 Q1037.5094,294.4375 1037.0281,293.6937 Q1036.5469,292.9391 1036.5469,292.0422 L1036.5469,291.2328 Q1036.5469,290.3031 1036.9734,289.5047 Q1037.4109,288.6953 1038.1766,288.2687 Q1038.9422,287.8312 1039.8062,287.8312 Q1040.3203,287.8312 1040.7687,287.9516 Q1041.2281,288.0609 1041.6109,288.3125 Z " fill="#000000"/><text fill="#000000" font-family="sans-serif" font-size="9.8" lengthAdjust="spacing" textLength="107.8" x="1050.525" y="295.2578">RegisterJobOfferService</text><line style="stroke:#181818;stroke-width:0.3499999999999999;" x1="1025.15" x2="1164.45" y1="302.4" y2="302.4"/><rect fill="none" height="4.2" style="stroke:#C82930;stroke-width:0.6999999999999998;" width="4.2" x="1030.05" y="310.6674"/><text fill="#000000" font-family="sans-serif" font-size="9.8" lengthAdjust="spacing" textLength="122.5" x="1038.45" y="315.7752">authz : AuthorizationService</text><rect fill="none" height="4.2" style="stroke:#C82930;stroke-width:0.6999999999999998;" width="4.2" x="1030.05" y="323.7021"/><text fill="#000000" font-family="sans-serif" font-size="9.8" lengthAdjust="spacing" textLength="111.3" x="1038.45" y="328.81">repo :PersistenceContext</text><line style="stroke:#181818;stroke-width:0.3499999999999999;" x1="1025.15" x2="1164.45" y1="334.0695" y2="334.0695"/><ellipse cx="1032.15" cy="344.4369" fill="#84BE84" rx="2.1" ry="2.1" style="stroke:#038048;stroke-width:0.6999999999999998;"/><text fill="#000000" font-family="sans-serif" font-size="9.8" lengthAdjust="spacing" textLength="97.3" x="1038.45" y="347.4447">addJobOffer(jobOffer)</text></g><!--class CandidateFactory--><g id="elem_CandidateFactory"><rect codeLine="91" fill="#F1F1F1" height="72.7043" id="CandidateFactory" rx="1.75" ry="1.75" style="stroke:#181818;stroke-width:0.3499999999999999;" width="200.9" x="815.15" y="421.4"/><ellipse cx="873.075" cy="432.6" fill="#ADD1B2" rx="7.7" ry="7.7" style="stroke:#181818;stroke-width:0.6999999999999998;"/><path d="M875.0109,429.7125 Q875.1203,429.5594 875.2516,429.4828 Q875.3828,429.4062 875.5359,429.4062 Q875.7984,429.4062 875.9625,429.5922 Q876.1266,429.7672 876.1266,430.1937 L876.1266,431.2109 Q876.1266,431.6375 875.9625,431.8234 Q875.7984,432.0094 875.5359,432.0094 Q875.2953,432.0094 875.1531,431.8672 Q875.0109,431.7359 874.9344,431.375 Q874.9016,431.1234 874.7703,430.9922 Q874.5406,430.7297 874.1141,430.5766 Q873.6875,430.4234 873.25,430.4234 Q872.7141,430.4234 872.2656,430.6531 Q871.8281,430.8828 871.4781,431.4078 Q871.1391,431.9328 871.1391,432.6547 L871.1391,433.4203 Q871.1391,434.2844 871.7625,434.8641 Q872.3859,435.4328 873.5016,435.4328 Q874.1578,435.4328 874.6172,435.2578 Q874.8906,435.1484 875.1859,434.8422 Q875.3719,434.6562 875.4703,434.6016 Q875.5797,434.5469 875.7219,434.5469 Q875.9516,434.5469 876.1266,434.7328 Q876.3125,434.9078 876.3125,435.1484 Q876.3125,435.3891 876.0719,435.6734 Q875.7219,436.0781 875.1641,436.3078 Q874.4094,436.625 873.5016,436.625 Q872.4406,436.625 871.5984,436.1875 Q870.9094,435.8375 870.4281,435.0937 Q869.9469,434.3391 869.9469,433.4422 L869.9469,432.6328 Q869.9469,431.7031 870.3734,430.9047 Q870.8109,430.0953 871.5766,429.6687 Q872.3422,429.2312 873.2062,429.2312 Q873.7203,429.2312 874.1687,429.3516 Q874.6281,429.4609 875.0109,429.7125 Z " fill="#000000"/><text fill="#000000" font-family="sans-serif" font-size="9.8" lengthAdjust="spacing" textLength="79.1" x="887.425" y="436.6578">CandidateFactory</text><line style="stroke:#181818;stroke-width:0.3499999999999999;" x1="815.85" x2="1015.35" y1="443.8" y2="443.8"/><rect fill="none" height="4.2" style="stroke:#C82930;stroke-width:0.6999999999999998;" width="4.2" x="820.75" y="452.0674"/><text fill="#000000" font-family="sans-serif" font-size="9.8" lengthAdjust="spacing" textLength="144.2" x="829.15" y="457.1752">number : MecanographicNumber</text><rect fill="none" height="4.2" style="stroke:#C82930;stroke-width:0.6999999999999998;" width="4.2" x="820.75" y="465.1021"/><text fill="#000000" font-family="sans-serif" font-size="9.8" lengthAdjust="spacing" textLength="80.5" x="829.15" y="470.21">user : SystemUser</text><line style="stroke:#181818;stroke-width:0.3499999999999999;" x1="815.85" x2="1015.35" y1="475.4695" y2="475.4695"/><ellipse cx="822.85" cy="485.8369" fill="#84BE84" rx="2.1" ry="2.1" style="stroke:#038048;stroke-width:0.6999999999999998;"/><text fill="#000000" font-family="sans-serif" font-size="9.8" lengthAdjust="spacing" textLength="182.7" x="829.15" y="488.8447">newCandidate(user, number) : Candidate</text></g><!--class ApplicationBuilder--><g id="elem_ApplicationBuilder"><rect codeLine="99" fill="#F1F1F1" height="72.7043" id="ApplicationBuilder" rx="1.75" ry="1.75" style="stroke:#181818;stroke-width:0.3499999999999999;" width="179.2" x="868" y="126"/><ellipse cx="915.075" cy="137.2" fill="#ADD1B2" rx="7.7" ry="7.7" style="stroke:#181818;stroke-width:0.6999999999999998;"/><path d="M917.0109,134.3125 Q917.1203,134.1594 917.2516,134.0828 Q917.3828,134.0062 917.5359,134.0062 Q917.7984,134.0062 917.9625,134.1922 Q918.1266,134.3672 918.1266,134.7937 L918.1266,135.8109 Q918.1266,136.2375 917.9625,136.4234 Q917.7984,136.6094 917.5359,136.6094 Q917.2953,136.6094 917.1531,136.4672 Q917.0109,136.3359 916.9344,135.975 Q916.9016,135.7234 916.7703,135.5922 Q916.5406,135.3297 916.1141,135.1766 Q915.6875,135.0234 915.25,135.0234 Q914.7141,135.0234 914.2656,135.2531 Q913.8281,135.4828 913.4781,136.0078 Q913.1391,136.5328 913.1391,137.2547 L913.1391,138.0203 Q913.1391,138.8844 913.7625,139.4641 Q914.3859,140.0328 915.5016,140.0328 Q916.1578,140.0328 916.6172,139.8578 Q916.8906,139.7484 917.1859,139.4422 Q917.3719,139.2562 917.4703,139.2016 Q917.5797,139.1469 917.7219,139.1469 Q917.9516,139.1469 918.1266,139.3328 Q918.3125,139.5078 918.3125,139.7484 Q918.3125,139.9891 918.0719,140.2734 Q917.7219,140.6781 917.1641,140.9078 Q916.4094,141.225 915.5016,141.225 Q914.4406,141.225 913.5984,140.7875 Q912.9094,140.4375 912.4281,139.6937 Q911.9469,138.9391 911.9469,138.0422 L911.9469,137.2328 Q911.9469,136.3031 912.3734,135.5047 Q912.8109,134.6953 913.5766,134.2687 Q914.3422,133.8312 915.2062,133.8312 Q915.7203,133.8312 916.1687,133.9516 Q916.6281,134.0609 917.0109,134.3125 Z " fill="#000000"/><text fill="#000000" font-family="sans-serif" font-size="9.8" lengthAdjust="spacing" textLength="79.1" x="929.425" y="141.2578">ApplicationBuilder</text><line style="stroke:#181818;stroke-width:0.3499999999999999;" x1="868.7" x2="1046.5" y1="148.4" y2="148.4"/><line style="stroke:#181818;stroke-width:0.3499999999999999;" x1="868.7" x2="1046.5" y1="154" y2="154"/><ellipse cx="875.7" cy="164.3674" fill="#84BE84" rx="2.1" ry="2.1" style="stroke:#038048;stroke-width:0.6999999999999998;"/><text fill="#000000" font-family="sans-serif" font-size="9.8" lengthAdjust="spacing" textLength="28" x="882" y="167.3752">build()</text><ellipse cx="875.7" cy="177.4021" fill="#84BE84" rx="2.1" ry="2.1" style="stroke:#038048;stroke-width:0.6999999999999998;"/><text fill="#000000" font-family="sans-serif" font-size="9.8" lengthAdjust="spacing" textLength="137.9" x="882" y="180.41">withJobOffer(JobOffer jobOffer)</text><ellipse cx="875.7" cy="190.4369" fill="#84BE84" rx="2.1" ry="2.1" style="stroke:#038048;stroke-width:0.6999999999999998;"/><text fill="#000000" font-family="sans-serif" font-size="9.8" lengthAdjust="spacing" textLength="161" x="882" y="193.4447">withCandidate(Candidate candidate)</text></g><!--class Candidate--><g id="elem_Candidate"><rect codeLine="105" fill="#F1F1F1" height="163.9477" id="Candidate" rx="1.75" ry="1.75" style="stroke:#181818;stroke-width:0.3499999999999999;" width="158.9" x="637.35" y="575.75"/><ellipse cx="691.075" cy="586.95" fill="#ADD1B2" rx="7.7" ry="7.7" style="stroke:#181818;stroke-width:0.6999999999999998;"/><path d="M693.0109,584.0625 Q693.1203,583.9094 693.2516,583.8328 Q693.3828,583.7562 693.5359,583.7562 Q693.7984,583.7562 693.9625,583.9422 Q694.1266,584.1172 694.1266,584.5437 L694.1266,585.5609 Q694.1266,585.9875 693.9625,586.1734 Q693.7984,586.3594 693.5359,586.3594 Q693.2953,586.3594 693.1531,586.2172 Q693.0109,586.0859 692.9344,585.725 Q692.9016,585.4734 692.7703,585.3422 Q692.5406,585.0797 692.1141,584.9266 Q691.6875,584.7734 691.25,584.7734 Q690.7141,584.7734 690.2656,585.0031 Q689.8281,585.2328 689.4781,585.7578 Q689.1391,586.2828 689.1391,587.0047 L689.1391,587.7703 Q689.1391,588.6344 689.7625,589.2141 Q690.3859,589.7828 691.5016,589.7828 Q692.1578,589.7828 692.6172,589.6078 Q692.8906,589.4984 693.1859,589.1922 Q693.3719,589.0062 693.4703,588.9516 Q693.5797,588.8969 693.7219,588.8969 Q693.9516,588.8969 694.1266,589.0828 Q694.3125,589.2578 694.3125,589.4984 Q694.3125,589.7391 694.0719,590.0234 Q693.7219,590.4281 693.1641,590.6578 Q692.4094,590.975 691.5016,590.975 Q690.4406,590.975 689.5984,590.5375 Q688.9094,590.1875 688.4281,589.4437 Q687.9469,588.6891 687.9469,587.7922 L687.9469,586.9828 Q687.9469,586.0531 688.3734,585.2547 Q688.8109,584.4453 689.5766,584.0187 Q690.3422,583.5812 691.2062,583.5812 Q691.7203,583.5812 692.1687,583.7016 Q692.6281,583.8109 693.0109,584.0625 Z " fill="#000000"/><text fill="#000000" font-family="sans-serif" font-size="9.8" lengthAdjust="spacing" textLength="45.5" x="705.425" y="591.0078">Candidate</text><line style="stroke:#181818;stroke-width:0.3499999999999999;" x1="638.05" x2="795.55" y1="598.15" y2="598.15"/><rect fill="none" height="4.2" style="stroke:#C82930;stroke-width:0.6999999999999998;" width="4.2" x="642.95" y="606.4174"/><text fill="#000000" font-family="sans-serif" font-size="9.8" lengthAdjust="spacing" textLength="60.2" x="651.35" y="611.5252">version: Long</text><rect fill="none" height="4.2" style="stroke:#C82930;stroke-width:0.6999999999999998;" width="4.2" x="642.95" y="619.4521"/><text fill="#000000" font-family="sans-serif" font-size="9.8" lengthAdjust="spacing" textLength="87.5" x="651.35" y="624.56">num: PhoneNumber</text><rect fill="none" height="4.2" style="stroke:#C82930;stroke-width:0.6999999999999998;" width="4.2" x="642.95" y="632.4869"/><text fill="#000000" font-family="sans-serif" font-size="9.8" lengthAdjust="spacing" textLength="77.7" x="651.35" y="637.5947">user: SystemUser</text><line style="stroke:#181818;stroke-width:0.3499999999999999;" x1="638.05" x2="795.55" y1="642.8543" y2="642.8543"/><ellipse cx="645.05" cy="653.2217" fill="#84BE84" rx="2.1" ry="2.1" style="stroke:#038048;stroke-width:0.6999999999999998;"/><text fill="#000000" font-family="sans-serif" font-size="9.8" lengthAdjust="spacing" textLength="117.6" x="651.35" y="656.2295">equals(o: Object): boolean</text><ellipse cx="645.05" cy="666.2564" fill="#84BE84" rx="2.1" ry="2.1" style="stroke:#038048;stroke-width:0.6999999999999998;"/><text fill="#000000" font-family="sans-serif" font-size="9.8" lengthAdjust="spacing" textLength="68.6" x="651.35" y="669.2643">hashCode(): int</text><ellipse cx="645.05" cy="679.2912" fill="#84BE84" rx="2.1" ry="2.1" style="stroke:#038048;stroke-width:0.6999999999999998;"/><text fill="#000000" font-family="sans-serif" font-size="9.8" lengthAdjust="spacing" textLength="140.7" x="651.35" y="682.299">sameAs(other: Object): boolean</text><ellipse cx="645.05" cy="692.326" fill="#84BE84" rx="2.1" ry="2.1" style="stroke:#038048;stroke-width:0.6999999999999998;"/><text fill="#000000" font-family="sans-serif" font-size="9.8" lengthAdjust="spacing" textLength="107.1" x="651.35" y="695.3338">identity(): PhoneNumber</text><ellipse cx="645.05" cy="705.3607" fill="#84BE84" rx="2.1" ry="2.1" style="stroke:#038048;stroke-width:0.6999999999999998;"/><text fill="#000000" font-family="sans-serif" font-size="9.8" lengthAdjust="spacing" textLength="133" x="651.35" y="708.3686">associatedUser(): SystemUser</text><ellipse cx="645.05" cy="718.3955" fill="#84BE84" rx="2.1" ry="2.1" style="stroke:#038048;stroke-width:0.6999999999999998;"/><text fill="#000000" font-family="sans-serif" font-size="9.8" lengthAdjust="spacing" textLength="102.9" x="651.35" y="721.4033">toDTO(): CandidateDto</text><ellipse cx="645.05" cy="731.4303" fill="#84BE84" rx="2.1" ry="2.1" style="stroke:#038048;stroke-width:0.6999999999999998;"/><text fill="#000000" font-family="sans-serif" font-size="9.8" lengthAdjust="spacing" textLength="72.8" x="651.35" y="734.4381">toString(): String</text></g><!--class JobOffer--><g id="elem_JobOffer"><rect codeLine="118" fill="#F1F1F1" height="229.1215" id="JobOffer" rx="1.75" ry="1.75" style="stroke:#181818;stroke-width:0.3499999999999999;" width="158.9" x="1105.65" y="543.2"/><ellipse cx="1163.225" cy="554.4" fill="#ADD1B2" rx="7.7" ry="7.7" style="stroke:#181818;stroke-width:0.6999999999999998;"/><path d="M1165.1609,551.5125 Q1165.2703,551.3594 1165.4016,551.2828 Q1165.5328,551.2062 1165.6859,551.2062 Q1165.9484,551.2062 1166.1125,551.3922 Q1166.2766,551.5672 1166.2766,551.9937 L1166.2766,553.0109 Q1166.2766,553.4375 1166.1125,553.6234 Q1165.9484,553.8094 1165.6859,553.8094 Q1165.4453,553.8094 1165.3031,553.6672 Q1165.1609,553.5359 1165.0844,553.175 Q1165.0516,552.9234 1164.9203,552.7922 Q1164.6906,552.5297 1164.2641,552.3766 Q1163.8375,552.2234 1163.4,552.2234 Q1162.8641,552.2234 1162.4156,552.4531 Q1161.9781,552.6828 1161.6281,553.2078 Q1161.2891,553.7328 1161.2891,554.4547 L1161.2891,555.2203 Q1161.2891,556.0844 1161.9125,556.6641 Q1162.5359,557.2328 1163.6516,557.2328 Q1164.3078,557.2328 1164.7672,557.0578 Q1165.0406,556.9484 1165.3359,556.6422 Q1165.5219,556.4562 1165.6203,556.4016 Q1165.7297,556.3469 1165.8719,556.3469 Q1166.1016,556.3469 1166.2766,556.5328 Q1166.4625,556.7078 1166.4625,556.9484 Q1166.4625,557.1891 1166.2219,557.4734 Q1165.8719,557.8781 1165.3141,558.1078 Q1164.5594,558.425 1163.6516,558.425 Q1162.5906,558.425 1161.7484,557.9875 Q1161.0594,557.6375 1160.5781,556.8937 Q1160.0969,556.1391 1160.0969,555.2422 L1160.0969,554.4328 Q1160.0969,553.5031 1160.5234,552.7047 Q1160.9609,551.8953 1161.7266,551.4687 Q1162.4922,551.0312 1163.3562,551.0312 Q1163.8703,551.0312 1164.3187,551.1516 Q1164.7781,551.2609 1165.1609,551.5125 Z " fill="#000000"/><text fill="#000000" font-family="sans-serif" font-size="9.8" lengthAdjust="spacing" textLength="37.8" x="1177.575" y="558.4578">JobOffer</text><line style="stroke:#181818;stroke-width:0.3499999999999999;" x1="1106.35" x2="1263.85" y1="565.6" y2="565.6"/><rect fill="none" height="4.2" style="stroke:#C82930;stroke-width:0.6999999999999998;" width="4.2" x="1111.25" y="573.8674"/><text fill="#000000" font-family="sans-serif" font-size="9.8" lengthAdjust="spacing" textLength="60.2" x="1119.65" y="578.9752">version: Long</text><rect fill="none" height="4.2" style="stroke:#C82930;stroke-width:0.6999999999999998;" width="4.2" x="1111.25" y="586.9021"/><text fill="#000000" font-family="sans-serif" font-size="9.8" lengthAdjust="spacing" textLength="112.7" x="1119.65" y="592.01">jobRefCode: JobRefCode</text><rect fill="none" height="4.2" style="stroke:#C82930;stroke-width:0.6999999999999998;" width="4.2" x="1111.25" y="599.9369"/><text fill="#000000" font-family="sans-serif" font-size="9.8" lengthAdjust="spacing" textLength="55.3" x="1119.65" y="605.0447">title: JobTitle</text><rect fill="none" height="4.2" style="stroke:#C82930;stroke-width:0.6999999999999998;" width="4.2" x="1111.25" y="612.9717"/><text fill="#000000" font-family="sans-serif" font-size="9.8" lengthAdjust="spacing" textLength="101.5" x="1119.65" y="618.0795">contract: ContractType</text><rect fill="none" height="4.2" style="stroke:#C82930;stroke-width:0.6999999999999998;" width="4.2" x="1111.25" y="626.0064"/><text fill="#000000" font-family="sans-serif" font-size="9.8" lengthAdjust="spacing" textLength="70" x="1119.65" y="631.1143">mode: JobMode</text><rect fill="none" height="4.2" style="stroke:#C82930;stroke-width:0.6999999999999998;" width="4.2" x="1111.25" y="639.0412"/><text fill="#000000" font-family="sans-serif" font-size="9.8" lengthAdjust="spacing" textLength="140" x="1119.65" y="644.149">vacancies: NumberOfVacancies</text><rect fill="none" height="4.2" style="stroke:#C82930;stroke-width:0.6999999999999998;" width="4.2" x="1111.25" y="652.076"/><text fill="#000000" font-family="sans-serif" font-size="9.8" lengthAdjust="spacing" textLength="119" x="1119.65" y="657.1838">description: JobDescription</text><rect fill="none" height="4.2" style="stroke:#C82930;stroke-width:0.6999999999999998;" width="4.2" x="1111.25" y="665.1107"/><text fill="#000000" font-family="sans-serif" font-size="9.8" lengthAdjust="spacing" textLength="77.7" x="1119.65" y="670.2186">address: Address</text><line style="stroke:#181818;stroke-width:0.3499999999999999;" x1="1106.35" x2="1263.85" y1="675.4781" y2="675.4781"/><ellipse cx="1113.35" cy="685.8455" fill="#84BE84" rx="2.1" ry="2.1" style="stroke:#038048;stroke-width:0.6999999999999998;"/><text fill="#000000" font-family="sans-serif" font-size="9.8" lengthAdjust="spacing" textLength="117.6" x="1119.65" y="688.8533">equals(o: Object): boolean</text><ellipse cx="1113.35" cy="698.8803" fill="#84BE84" rx="2.1" ry="2.1" style="stroke:#038048;stroke-width:0.6999999999999998;"/><text fill="#000000" font-family="sans-serif" font-size="9.8" lengthAdjust="spacing" textLength="68.6" x="1119.65" y="701.8881">hashCode(): int</text><ellipse cx="1113.35" cy="711.915" fill="#84BE84" rx="2.1" ry="2.1" style="stroke:#038048;stroke-width:0.6999999999999998;"/><text fill="#000000" font-family="sans-serif" font-size="9.8" lengthAdjust="spacing" textLength="140.7" x="1119.65" y="714.9229">sameAs(other: Object): boolean</text><ellipse cx="1113.35" cy="724.9498" fill="#84BE84" rx="2.1" ry="2.1" style="stroke:#038048;stroke-width:0.6999999999999998;"/><text fill="#000000" font-family="sans-serif" font-size="9.8" lengthAdjust="spacing" textLength="109.9" x="1119.65" y="727.9576">reference(): JobRefCode</text><ellipse cx="1113.35" cy="737.9846" fill="#84BE84" rx="2.1" ry="2.1" style="stroke:#038048;stroke-width:0.6999999999999998;"/><text fill="#000000" font-family="sans-serif" font-size="9.8" lengthAdjust="spacing" textLength="98.7" x="1119.65" y="740.9924">identity(): JobRefCode</text><ellipse cx="1113.35" cy="751.0193" fill="#84BE84" rx="2.1" ry="2.1" style="stroke:#038048;stroke-width:0.6999999999999998;"/><text fill="#000000" font-family="sans-serif" font-size="9.8" lengthAdjust="spacing" textLength="95.2" x="1119.65" y="754.0271">toDTO(): JobOfferDto</text><ellipse cx="1113.35" cy="764.0541" fill="#84BE84" rx="2.1" ry="2.1" style="stroke:#038048;stroke-width:0.6999999999999998;"/><text fill="#000000" font-family="sans-serif" font-size="9.8" lengthAdjust="spacing" textLength="72.8" x="1119.65" y="767.0619">toString(): String</text></g><!--class RegisterApplicationUI--><g id="elem_RegisterApplicationUI"><rect codeLine="136" fill="#F1F1F1" height="59.6695" id="RegisterApplicationUI" rx="1.75" ry="1.75" style="stroke:#181818;stroke-width:0.3499999999999999;" width="116.2" x="417.9" y="4.9"/><ellipse cx="428.4" cy="16.1" fill="#ADD1B2" rx="7.7" ry="7.7" style="stroke:#181818;stroke-width:0.6999999999999998;"/><path d="M430.3359,13.2125 Q430.4453,13.0594 430.5766,12.9828 Q430.7078,12.9062 430.8609,12.9062 Q431.1234,12.9062 431.2875,13.0922 Q431.4516,13.2672 431.4516,13.6937 L431.4516,14.7109 Q431.4516,15.1375 431.2875,15.3234 Q431.1234,15.5094 430.8609,15.5094 Q430.6203,15.5094 430.4781,15.3672 Q430.3359,15.2359 430.2594,14.875 Q430.2266,14.6234 430.0953,14.4922 Q429.8656,14.2297 429.4391,14.0766 Q429.0125,13.9234 428.575,13.9234 Q428.0391,13.9234 427.5906,14.1531 Q427.1531,14.3828 426.8031,14.9078 Q426.4641,15.4328 426.4641,16.1547 L426.4641,16.9203 Q426.4641,17.7844 427.0875,18.3641 Q427.7109,18.9328 428.8266,18.9328 Q429.4828,18.9328 429.9422,18.7578 Q430.2156,18.6484 430.5109,18.3422 Q430.6969,18.1562 430.7953,18.1016 Q430.9047,18.0469 431.0469,18.0469 Q431.2766,18.0469 431.4516,18.2328 Q431.6375,18.4078 431.6375,18.6484 Q431.6375,18.8891 431.3969,19.1734 Q431.0469,19.5781 430.4891,19.8078 Q429.7344,20.125 428.8266,20.125 Q427.7656,20.125 426.9234,19.6875 Q426.2344,19.3375 425.7531,18.5937 Q425.2719,17.8391 425.2719,16.9422 L425.2719,16.1328 Q425.2719,15.2031 425.6984,14.4047 Q426.1359,13.5953 426.9016,13.1687 Q427.6672,12.7312 428.5312,12.7312 Q429.0453,12.7312 429.4937,12.8516 Q429.9531,12.9609 430.3359,13.2125 Z " fill="#000000"/><text fill="#000000" font-family="sans-serif" font-size="9.8" lengthAdjust="spacing" textLength="93.8" x="438.2" y="20.1578">RegisterApplicationUI</text><line style="stroke:#181818;stroke-width:0.3499999999999999;" x1="418.6" x2="533.4" y1="27.3" y2="27.3"/><line style="stroke:#181818;stroke-width:0.3499999999999999;" x1="418.6" x2="533.4" y1="32.9" y2="32.9"/><ellipse cx="425.6" cy="43.2674" fill="#84BE84" rx="2.1" ry="2.1" style="stroke:#038048;stroke-width:0.6999999999999998;"/><text fill="#000000" font-family="sans-serif" font-size="9.8" lengthAdjust="spacing" textLength="42" x="431.9" y="46.2752">doShow()</text><rect fill="#F24D5C" height="4.2" style="stroke:#C82930;stroke-width:0.6999999999999998;" width="4.2" x="423.5" y="54.2021"/><text fill="#000000" font-family="sans-serif" font-size="9.8" lengthAdjust="spacing" textLength="44.8" x="431.9" y="59.31">isInteger()</text></g><!--link JobOfferRepository to JobOffer--><g id="link_JobOfferRepository_JobOffer"><path codeLine="141" d="M1185.1,500.584 C1185.1,513.331 1185.1,523.782 1185.1,538.895 " fill="none" id="JobOfferRepository-to-JobOffer" style="stroke:#181818;stroke-width:0.6999999999999998;stroke-dasharray:7.0,7.0;"/><polygon fill="#181818" points="1185.1,543.095,1187.9,536.795,1185.1,539.595,1182.3,536.795,1185.1,543.095" style="stroke:#181818;stroke-width:0.6999999999999998;"/></g><!--link CandidateRepository to Candidate--><g id="link_CandidateRepository_Candidate"><path codeLine="142" d="M716.8,494.207 C716.8,516.915 716.8,543.081 716.8,571.431 " fill="none" id="CandidateRepository-to-Candidate" style="stroke:#181818;stroke-width:0.6999999999999998;stroke-dasharray:7.0,7.0;"/><polygon fill="#181818" points="716.8,575.631,719.6,569.331,716.8,572.131,714,569.331,716.8,575.631" style="stroke:#181818;stroke-width:0.6999999999999998;"/></g><!--link JobOffer to JobOfferDTO--><g id="link_JobOffer_JobOfferDTO"><path codeLine="143" d="M1264.725,657.65 C1283.786,657.65 1299.494,657.65 1317.05,657.65 " fill="none" id="JobOffer-to-JobOfferDTO" style="stroke:#181818;stroke-width:0.6999999999999998;"/><polygon fill="#181818" points="1321.25,657.65,1314.95,654.85,1317.75,657.65,1314.95,660.45,1321.25,657.65" style="stroke:#181818;stroke-width:0.6999999999999998;"/><text fill="#000000" font-family="sans-serif" font-size="9.1" lengthAdjust="spacing" textLength="30.8" x="1277.5" y="652.7698">create()</text></g><!--link Candidate to CandidateDTO--><g id="link_Candidate_CandidateDTO"><path codeLine="144" d="M796.509,657.65 C815.409,657.65 831.019,657.65 848.736,657.65 " fill="none" id="Candidate-to-CandidateDTO" style="stroke:#181818;stroke-width:0.6999999999999998;"/><polygon fill="#181818" points="852.936,657.65,846.636,654.85,849.436,657.65,846.636,660.45,852.936,657.65" style="stroke:#181818;stroke-width:0.6999999999999998;"/><text fill="#000000" font-family="sans-serif" font-size="9.1" lengthAdjust="spacing" textLength="30.8" x="809.2" y="652.7698">create()</text></g><!--link JobApplicationManagementService to ApplicationRepository--><g id="link_JobApplicationManagementService_ApplicationRepository"><path codeLine="145" d="M622.776,205.1 C579.922,224.245 532.7546,245.3167 488.2136,265.2177 " fill="none" id="JobApplicationManagementService-to-ApplicationRepository" style="stroke:#181818;stroke-width:0.6999999999999998;stroke-dasharray:7.0,7.0;"/><polygon fill="#181818" points="484.379,266.931,491.2732,266.9174,487.5745,265.5032,488.9888,261.8046,484.379,266.931" style="stroke:#181818;stroke-width:0.6999999999999998;"/></g><!--link JobApplicationManagementService to JobApplication--><g id="link_JobApplicationManagementService_JobApplication"><path codeLine="146" d="M686.287,205.205 C673.946,222.229 661.9912,238.7226 648.8172,256.8946 " fill="none" id="JobApplicationManagementService-to-JobApplication" style="stroke:#181818;stroke-width:0.6999999999999998;stroke-dasharray:7.0,7.0;"/><polygon fill="#181818" points="646.352,260.295,652.3167,256.8378,648.4063,257.4613,647.7828,253.5509,646.352,260.295" style="stroke:#181818;stroke-width:0.6999999999999998;"/></g><!--link ApplicationRepository to JobApplication--><g id="link_ApplicationRepository_JobApplication"><path codeLine="147" d="M508.298,316.4 C516.39,316.4 520.289,316.4 528.381,316.4 " fill="none" id="ApplicationRepository-to-JobApplication" style="stroke:#181818;stroke-width:0.6999999999999998;"/><polygon fill="#181818" points="532.581,316.4,526.281,313.6,529.081,316.4,526.281,319.2,532.581,316.4" style="stroke:#181818;stroke-width:0.6999999999999998;"/></g><!--link RegisterApplicationController to ApplicationBuilder--><g id="link_RegisterApplicationController_ApplicationBuilder"><path codeLine="148" d="M772.345,64.498 C807.212,82.789 848.692,104.5534 885.722,123.9854 " fill="none" id="RegisterApplicationController-to-ApplicationBuilder" style="stroke:#181818;stroke-width:0.6999999999999998;stroke-dasharray:7.0,7.0;"/><polygon fill="#181818" points="889.441,125.937,885.1635,120.5302,886.3418,124.3107,882.5614,125.4889,889.441,125.937" style="stroke:#181818;stroke-width:0.6999999999999998;"/><text fill="#000000" font-family="sans-serif" font-size="9.1" lengthAdjust="spacing" textLength="24.5" x="837.9" y="95.9198">build()</text></g><!--link RegisterApplicationUI to RegisterApplicationController--><g id="link_RegisterApplicationUI_RegisterApplicationController"><path codeLine="149" d="M534.289,34.65 C551.341,34.65 566.482,34.65 586.04,34.65 " fill="none" id="RegisterApplicationUI-to-RegisterApplicationController" style="stroke:#181818;stroke-width:0.6999999999999998;"/><polygon fill="#181818" points="590.24,34.65,583.94,31.85,586.74,34.65,583.94,37.45,590.24,34.65" style="stroke:#181818;stroke-width:0.6999999999999998;"/><text fill="#000000" font-family="sans-serif" font-size="9.1" lengthAdjust="spacing" textLength="30.8" x="546.875" y="29.7698">create()</text></g><!--link RegisterApplicationController to PersistenceContext--><g id="link_RegisterApplicationController_PersistenceContext"><path codeLine="150" d="M623.56,64.414 C543.62,89.341 435.2517,123.119 369.4377,143.636 " fill="none" id="RegisterApplicationController-to-PersistenceContext" style="stroke:#181818;stroke-width:0.6999999999999998;stroke-dasharray:7.0,7.0;"/><polygon fill="#181818" points="365.428,144.886,372.2758,145.6841,368.7694,143.8443,370.6092,140.3379,365.428,144.886" style="stroke:#181818;stroke-width:0.6999999999999998;"/></g><!--link PersistenceContext to RepositoryFactory--><g id="link_PersistenceContext_RepositoryFactory"><path codeLine="151" d="M281.526,185.948 C253.547,207.27 214.2226,237.2533 178.5996,264.3993 " fill="none" id="PersistenceContext-to-RepositoryFactory" style="stroke:#181818;stroke-width:0.6999999999999998;stroke-dasharray:7.0,7.0;"/><polygon fill="#181818" points="175.259,266.945,181.967,265.3536,178.0428,264.8236,178.5728,260.8994,175.259,266.945" style="stroke:#181818;stroke-width:0.6999999999999998;"/><text fill="#000000" font-family="sans-serif" font-size="9.1" lengthAdjust="spacing" textLength="30.8" x="224.7" y="236.6198">create()</text></g><!--link RegisterApplicationController to JobApplicationManagementService--><g id="link_RegisterApplicationController_JobApplicationManagementService"><path codeLine="152" d="M716.8,64.652 C716.8,80.983 716.8,97.398 716.8,115.43 " fill="none" id="RegisterApplicationController-to-JobApplicationManagementService" style="stroke:#181818;stroke-width:0.6999999999999998;stroke-dasharray:7.0,7.0;"/><polygon fill="#181818" points="716.8,119.63,719.6,113.33,716.8,116.13,714,113.33,716.8,119.63" style="stroke:#181818;stroke-width:0.6999999999999998;"/></g><!--link JobApplicationManagementService to CandidateService--><g id="link_JobApplicationManagementService_CandidateService"><path codeLine="153" d="M761.026,205.205 C783.363,226.464 807.3482,249.2929 829.6992,270.5729 " fill="none" id="JobApplicationManagementService-to-CandidateService" style="stroke:#181818;stroke-width:0.6999999999999998;stroke-dasharray:7.0,7.0;"/><polygon fill="#181818" points="832.741,273.469,830.109,267.097,830.2061,271.0556,826.2475,271.1528,832.741,273.469" style="stroke:#181818;stroke-width:0.6999999999999998;"/></g><!--link CandidateService to CandidateFactory--><g id="link_CandidateService_CandidateFactory"><path codeLine="154" d="M888.65,359.107 C894.103,378.917 899.4223,398.2613 904.6373,417.2243 " fill="none" id="CandidateService-to-CandidateFactory" style="stroke:#181818;stroke-width:0.6999999999999998;stroke-dasharray:7.0,7.0;"/><polygon fill="#181818" points="905.751,421.274,906.7802,414.4571,904.8229,417.8993,901.3807,415.942,905.751,421.274" style="stroke:#181818;stroke-width:0.6999999999999998;"/></g><!--link CandidateService to CandidateRepository--><g id="link_CandidateService_CandidateRepository"><path codeLine="155" d="M829.003,359.107 C806.316,378.917 782.69,399.5478 760.983,418.5108 " fill="none" id="CandidateService-to-CandidateRepository" style="stroke:#181818;stroke-width:0.6999999999999998;stroke-dasharray:7.0,7.0;"/><polygon fill="#181818" points="757.82,421.274,764.4067,419.2379,760.4559,418.9713,760.7224,415.0205,757.82,421.274" style="stroke:#181818;stroke-width:0.6999999999999998;"/></g><!--link JobApplicationManagementService to RegisterJobOfferService--><g id="link_JobApplicationManagementService_RegisterJobOfferService"><path codeLine="156" d="M843.248,202.993 C915.922,226.226 995.96,252.476 1012.2,260.4 C1023.596,265.965 1031.7374,270.5978 1042.5734,277.6468 " fill="none" id="JobApplicationManagementService-to-RegisterJobOfferService" style="stroke:#181818;stroke-width:0.6999999999999998;stroke-dasharray:7.0,7.0;"/><polygon fill="#181818" points="1046.094,279.937,1042.3399,274.1546,1043.1601,278.0285,1039.2862,278.8487,1046.094,279.937" style="stroke:#181818;stroke-width:0.6999999999999998;"/></g><!--link RegisterJobOfferService to JobOfferRepository--><g id="link_RegisterJobOfferService_JobOfferRepository"><path codeLine="157" d="M1117.935,352.975 C1130.115,371.847 1142.84,391.5782 1155.573,411.3252 " fill="none" id="RegisterJobOfferService-to-JobOfferRepository" style="stroke:#181818;stroke-width:0.6999999999999998;stroke-dasharray:7.0,7.0;"/><polygon fill="#181818" points="1157.849,414.855,1156.7881,408.0429,1155.9523,411.9135,1152.0817,411.0776,1157.849,414.855" style="stroke:#181818;stroke-width:0.6999999999999998;"/></g><!--link JobApplicationManagementService to CandidateRepository--><g id="link_JobApplicationManagementService_CandidateRepository"><path codeLine="158" d="M716.8,205.226 C716.8,263.256 716.8,362.593 716.8,417.088 " fill="none" id="JobApplicationManagementService-to-CandidateRepository" style="stroke:#181818;stroke-width:0.6999999999999998;stroke-dasharray:7.0,7.0;"/><polygon fill="#181818" points="716.8,421.288,719.6,414.988,716.8,417.788,714,414.988,716.8,421.288" style="stroke:#181818;stroke-width:0.6999999999999998;"/></g><!--link JobApplicationManagementService to JobOfferRepository--><g id="link_JobApplicationManagementService_JobOfferRepository"><path codeLine="159" d="M843.332,202.139 C847.392,203.168 851.424,204.162 855.4,205.1 C926.058,221.802 1129.534,205.814 1177.4,260.4 C1214.241,302.414 1208.0867,366.8956 1198.1607,410.9746 " fill="none" id="JobApplicationManagementService-to-JobOfferRepository" style="stroke:#181818;stroke-width:0.6999999999999998;stroke-dasharray:7.0,7.0;"/><polygon fill="#181818" points="1197.238,415.072,1201.3536,409.541,1198.0069,411.6575,1195.8904,408.3108,1197.238,415.072" style="stroke:#181818;stroke-width:0.6999999999999998;"/></g><!--SRC=[nLTBSzig55vNluBTjITrCjrgEfrndDkPTEecaxZTOuGjCWXKm4dTJlzx3n889E57UXStYqJ0TzuVvv1_IcDgdLzTrHmBiwlu9P7L5U5Owrd1y5RXAikoPeqUw9PfGzMyhZaZs30f5b8O9JcdwbU6tC_5bfeRRF1a6hRKM7H2i2XOWGszg-twBVeartUR3LNjUfhzzeRlgT9MN11g3T8V1hNcBf2YjTJCICMedaGYe2korQ9dqSu3tInaGKVxSsCmAMdnaN6gxx4fHuX_AypuKRdsq4VJhXO-sE1YjtMpkdCEtfTIq2-xQaqLoj6ZKKnisvElcgfRiP5XEyjyiYCfbtExwoK6MMby2XOLtH38my3QarolcE69xUKOBDGt3BKaK878E- -6Cn0vvfNtjvPzKAGq3k31btl_4HFx1uZmvW89-h9IM6ZOWrfWxbZYzQ4Tv49FKX3qZDMxFiolDDkANVr0l- -eDcT83_3JHAM3-oxz2E-CNFt8KKfxgtV3H37dtBjbbzVxhjgZqlwD2VIfncFvoJ517tJh3joc2HGwX_g02djF- -UBdJQo0eU9-yYHm1MrxWyoz4ZLCoCKHSwNFu5MS_WBb_ndSzaSo45i2m34WZCg6jQ7428dml7rVab9TydQPeFv-m3uS43C_hPk7v8wq7oMME0jhG3c_7vzRBt6rG-ktsp_OwDDsZcRHnsNachEeDCvbEhHoWSMGlJ4wg0d2JWORZut_LgTNQhng79amaNXLK-Ut4UgHKHzROQ4Poam5Wi9qxWkcUEkFRSDo_RSFLYiB0bTCmo9iOYtJi_Ktf9u3YNAVhrZlF3J_69jLvvQByoKNGZ-0uLOEb2mtdsXha2fc55uFCpGiysW53dwBDs4QVSXXXn5eouwia7siX280jqOSpsHS6NNJvIOQOxMKdAAHGGgiIuNpVp94HCncJMGP0xYfhGMZgXW1TnlPlPMHSf9883MaZ28jh0kMbpIOIDXEDlJy3mmidVUJjX6GJjhHpFWh7n2uTmZABU2yOEe1HWxf9kpPbn79yI- -e2duAJxMkth651vhSk-ocS_qtFKvkTkqutv25PGJHHhcbEZvIQi8nJSA4Krg9gt7_z3rPNlJLP78ebzNYG1NRsxjzcfSll3tqVUvLzltGqkv6CfNzmLdZ5z2prfwryEuvcFBcSVEa-onBkb0OGcqZ4k4eDueD4GHMq7c0ObA9OSW4vCpCPgUWYU8zd7P4b5Q8mx-l_Eq2NNE24etpIJPR5cZkkDidBQWSIuIVopTDaO7RwSNsNeH9hFAiFmaPUDNdqzbFFp1EgLL3WmvhC3-xtxy4fJV-lYsDmV]--></g></svg>