<?xml version="1.0" encoding="us-ascii" standalone="no"?><svg xmlns="http://www.w3.org/2000/svg" xmlns:xlink="http://www.w3.org/1999/xlink" contentStyleType="text/css" height="807px" preserveAspectRatio="none" style="width:541px;height:807px;background:#FFFFFF;" version="1.1" viewBox="0 0 541 807" width="541px" zoomAndPan="magnify"><defs/><g><!--entity Observer--><g id="elem_Observer"><polygon fill="#F1F1F1" points="370.5,6,459.5,6,469.5,25.3105,459.5,44.6211,370.5,44.6211,380.5,25.3105" style="stroke:#181818;stroke-width:0.5;"/><text fill="#000000" font-family="sans-serif" font-size="14" lengthAdjust="spacing" textLength="59" x="390.5" y="31.1074">Observer</text></g><!--entity Coordinator--><g id="elem_Coordinator"><polygon fill="#F1F1F1" points="89.5,304,194.5,304,204.5,323.3105,194.5,342.6211,89.5,342.6211,99.5,323.3105" style="stroke:#181818;stroke-width:0.5;"/><text fill="#000000" font-family="sans-serif" font-size="14" lengthAdjust="spacing" textLength="75" x="109.5" y="329.1074">Coordinator</text></g><!--entity Worker--><g id="elem_Worker"><polygon fill="#F1F1F1" points="81,106,157,106,167,125.3105,157,144.6211,81,144.6211,91,125.3105" style="stroke:#181818;stroke-width:0.5;"/><text fill="#000000" font-family="sans-serif" font-size="14" lengthAdjust="spacing" textLength="46" x="101" y="131.1074">Worker</text></g><!--entity InputDirectory--><g id="elem_InputDirectory"><polygon fill="#F1F1F1" points="321,662,439,662,449,681.3105,439,700.6211,321,700.6211,331,681.3105" style="stroke:#181818;stroke-width:0.5;"/><text fill="#000000" font-family="sans-serif" font-size="14" lengthAdjust="spacing" textLength="88" x="341" y="687.1074">InputDirectory</text></g><!--entity OutputDirectory--><g id="elem_OutputDirectory"><polygon fill="#F1F1F1" points="16,762,146,762,156,781.3105,146,800.6211,16,800.6211,26,781.3105" style="stroke:#181818;stroke-width:0.5;"/><text fill="#000000" font-family="sans-serif" font-size="14" lengthAdjust="spacing" textLength="100" x="36" y="787.1074">OutputDirectory</text></g><!--link Observer to Coordinator--><g id="link_Observer_Coordinator"><path d="M411.38,45.11 C395.89,77.42 361.1,145.15 320,194 C298.49,219.56 289.48,222.64 263,243 C234.35,265.02 200.06,288.15 176.22,303.75 " fill="none" id="Observer-Coordinator" style="stroke:#181818;stroke-width:1.0;"/><polygon fill="#000000" points="336.6364,188.345,344.8957,183.6297,340.5467,179.6755,336.6364,188.345" style="stroke:#000000;stroke-width:1.0;"/><text fill="#000000" font-family="sans-serif" font-size="13" lengthAdjust="spacing" textLength="73" x="349" y="190.0283">sends signal</text></g><!--link Worker to Coordinator--><g id="link_Worker_Coordinator"><path d="M126.21,145.29 C130.6,182.76 140.41,266.35 144.8,303.76 " fill="none" id="Worker-Coordinator" style="stroke:#181818;stroke-width:1.0;"/><polygon fill="#000000" points="142.4174,228.6796,140.5524,238.0055,146.3902,237.3206,142.4174,228.6796" style="stroke:#000000;stroke-width:1.0;"/><text fill="#000000" font-family="sans-serif" font-size="13" lengthAdjust="spacing" textLength="102" x="152" y="239.0283">sends information</text></g><!--link Observer to InputDirectory--><g id="link_Observer_InputDirectory"><path d="M438.65,45.33 C454.94,63.85 476,93.73 476,124.5 C476,124.5 476,124.5 476,601 C476,628.59 451.99,648.81 428.63,661.95 " fill="none" id="Observer-InputDirectory" style="stroke:#181818;stroke-width:1.0;"/><polygon fill="#000000" points="480.9188,387.6448,484.0043,378.6487,478.1272,378.5532,480.9188,387.6448" style="stroke:#000000;stroke-width:1.0;"/><text fill="#000000" font-family="sans-serif" font-size="13" lengthAdjust="spacing" textLength="43" x="490" y="388.0283">surveils</text></g><!--link Worker to InputDirectory--><g id="link_Worker_InputDirectory"><path d="M167.34,134.03 C217.7,145.55 294,172.85 294,232.5 C294,232.5 294,232.5 294,601 C294,628.59 318.01,648.81 341.37,661.95 " fill="none" id="Worker-InputDirectory" style="stroke:#181818;stroke-width:1.0;"/><polygon fill="#000000" points="300.5654,436.3941,300.5247,426.8837,294.9424,428.7239,300.5654,436.3941" style="stroke:#000000;stroke-width:1.0;"/><text fill="#000000" font-family="sans-serif" font-size="13" lengthAdjust="spacing" textLength="65" x="308" y="437.0283">copies files</text></g><!--link Coordinator to OutputDirectory--><g id="link_Coordinator_OutputDirectory"><path d="M145.3,343.25 C143.52,364.42 141,399.9 141,430.5 C141,430.5 141,430.5 141,682.5 C141,713.33 120.05,743.43 104.01,761.96 " fill="none" id="Coordinator-OutputDirectory" style="stroke:#181818;stroke-width:1.0;"/><polygon fill="#000000" points="145.5093,565.6214,149.3217,556.9084,143.4722,556.3315,145.5093,565.6214" style="stroke:#000000;stroke-width:1.0;"/><text fill="#000000" font-family="sans-serif" font-size="13" lengthAdjust="spacing" textLength="79" x="155" y="566.0283">sends reports</text></g><!--link Worker to OutputDirectory--><g id="link_Worker_OutputDirectory"><path d="M94.21,145.31 C68.68,163.99 36,195.19 36,232.5 C36,232.5 36,232.5 36,682.5 C36,712.68 55.05,742.94 69.63,761.68 " fill="none" id="Worker-OutputDirectory" style="stroke:#181818;stroke-width:1.0;"/><polygon fill="#000000" points="40.8008,485.6415,44.0978,476.7207,38.2246,476.4865,40.8008,485.6415" style="stroke:#000000;stroke-width:1.0;"/><text fill="#000000" font-family="sans-serif" font-size="13" lengthAdjust="spacing" textLength="62" x="50" y="486.0283">sends files</text></g><!--SRC=[VP313i8W38RlF0Klu0iOuqKldjpDCxBED28bBPWindUNP6J2pEon_Rw_q8x9WeW- -P3Y4Hbi91wLwah_dEBAu2h0Js3zKkhzRH-8k4TlChoON8ZlCpxRcroDjDLxBU1xqO8tRvmgtY-tAnpwWVXX8f9lSxFHVciAJnb09rNm6cef88WUq86eUdbH5iUftiuGY6ErumyxnNy0]--></g></svg>