<?xml version="1.0" encoding="us-ascii" standalone="no"?><svg xmlns="http://www.w3.org/2000/svg" xmlns:xlink="http://www.w3.org/1999/xlink" contentStyleType="text/css" height="364px" preserveAspectRatio="none" style="width:522px;height:364px;background:#FFFFFF;" version="1.1" viewBox="0 0 522 364" width="522px" zoomAndPan="magnify"><defs/><g><rect fill="#FFFFFF" height="167.7852" style="stroke:#181818;stroke-width:1.0;" width="10" x="151" y="71.9121"/><rect fill="#FFFFFF" height="38.291" style="stroke:#181818;stroke-width:1.0;" width="10" x="151" y="270.9883"/><rect fill="#FFFFFF" height="31.291" style="stroke:#181818;stroke-width:1.0;" width="10" x="418.5" y="239.6973"/><rect fill="none" height="96.2031" style="stroke:#000000;stroke-width:1.5;" width="430" x="86" y="86.9121"/><rect fill="none" height="62.9121" style="stroke:#000000;stroke-width:1.5;" width="410" x="96" y="113.2031"/><rect fill="none" height="81.873" style="stroke:#000000;stroke-width:1.5;" width="410" x="96" y="197.1152"/><line style="stroke:#181818;stroke-width:0.5;stroke-dasharray:5.0,5.0;" x1="156" x2="156" y1="38.6211" y2="327.2793"/><line style="stroke:#181818;stroke-width:0.5;stroke-dasharray:5.0,5.0;" x1="423" x2="423" y1="164.3047" y2="327.2793"/><rect fill="#E2E2F0" height="32.6211" rx="2.5" ry="2.5" style="stroke:#181818;stroke-width:0.5;" width="100" x="106" y="5"/><text fill="#000000" font-family="sans-serif" font-size="14" lengthAdjust="spacing" textLength="86" x="113" y="27.1074">WordAnalysis</text><rect fill="#E2E2F0" height="32.6211" rx="2.5" ry="2.5" style="stroke:#181818;stroke-width:0.5;" width="100" x="106" y="326.2793"/><text fill="#000000" font-family="sans-serif" font-size="14" lengthAdjust="spacing" textLength="86" x="113" y="348.3867">WordAnalysis</text><rect fill="#E2E2F0" height="32.6211" rx="2.5" ry="2.5" style="stroke:#181818;stroke-width:0.5;" width="145" x="351" y="326.2793"/><text fill="#000000" font-family="sans-serif" font-size="14" lengthAdjust="spacing" textLength="131" x="358" y="348.3867">WordCounterThread</text><rect fill="#FFFFFF" height="167.7852" style="stroke:#181818;stroke-width:1.0;" width="10" x="151" y="71.9121"/><rect fill="#FFFFFF" height="38.291" style="stroke:#181818;stroke-width:1.0;" width="10" x="151" y="270.9883"/><rect fill="#FFFFFF" height="31.291" style="stroke:#181818;stroke-width:1.0;" width="10" x="418.5" y="239.6973"/><polygon fill="#181818" points="139,67.9121,149,71.9121,139,75.9121,143,71.9121" style="stroke:#181818;stroke-width:1.0;"/><line style="stroke:#181818;stroke-width:1.0;" x1="0" x2="145" y1="71.9121" y2="71.9121"/><text fill="#000000" font-family="sans-serif" font-size="13" font-weight="bold" lengthAdjust="spacing" textLength="7" x="7" y="66.6494">1</text><text fill="#000000" font-family="sans-serif" font-size="13" lengthAdjust="spacing" textLength="101" x="18" y="66.6494">countWords(files)</text><path d="M86,86.9121 L159,86.9121 L159,96.2031 L149,106.2031 L86,106.2031 L86,86.9121 " fill="#EEEEEE" style="stroke:#000000;stroke-width:1.5;"/><rect fill="none" height="96.2031" style="stroke:#000000;stroke-width:1.5;" width="430" x="86" y="86.9121"/><text fill="#000000" font-family="sans-serif" font-size="13" font-weight="bold" lengthAdjust="spacing" textLength="28" x="101" y="101.9404">loop</text><text fill="#000000" font-family="sans-serif" font-size="11" font-weight="bold" lengthAdjust="spacing" textLength="73" x="174" y="100.7822">[for each file]</text><path d="M96,113.2031 L169,113.2031 L169,122.4941 L159,132.4941 L96,132.4941 L96,113.2031 " fill="#EEEEEE" style="stroke:#000000;stroke-width:1.5;"/><rect fill="none" height="62.9121" style="stroke:#000000;stroke-width:1.5;" width="410" x="96" y="113.2031"/><text fill="#000000" font-family="sans-serif" font-size="13" font-weight="bold" lengthAdjust="spacing" textLength="28" x="111" y="128.2314">loop</text><text fill="#000000" font-family="sans-serif" font-size="11" font-weight="bold" lengthAdjust="spacing" textLength="228" x="184" y="127.0732">[for each time file size passes threshold]</text><polygon fill="#181818" points="339,151.7852,349,155.7852,339,159.7852,343,155.7852" style="stroke:#181818;stroke-width:1.0;"/><line style="stroke:#181818;stroke-width:1.0;" x1="161" x2="345" y1="155.7852" y2="155.7852"/><text fill="#000000" font-family="sans-serif" font-size="13" font-weight="bold" lengthAdjust="spacing" textLength="7" x="168" y="150.5225">2</text><text fill="#000000" font-family="sans-serif" font-size="13" lengthAdjust="spacing" textLength="155" x="179" y="150.5225">create(filePath, begin, end)</text><rect fill="#E2E2F0" height="32.6211" rx="2.5" ry="2.5" style="stroke:#181818;stroke-width:0.5;" width="145" x="351" y="132.4941"/><text fill="#000000" font-family="sans-serif" font-size="14" lengthAdjust="spacing" textLength="131" x="358" y="154.6016">WordCounterThread</text><path d="M96,197.1152 L169,197.1152 L169,206.4063 L159,216.4063 L96,216.4063 L96,197.1152 " fill="#EEEEEE" style="stroke:#000000;stroke-width:1.5;"/><rect fill="none" height="81.873" style="stroke:#000000;stroke-width:1.5;" width="410" x="96" y="197.1152"/><text fill="#000000" font-family="sans-serif" font-size="13" font-weight="bold" lengthAdjust="spacing" textLength="28" x="111" y="212.1436">loop</text><text fill="#000000" font-family="sans-serif" font-size="11" font-weight="bold" lengthAdjust="spacing" textLength="137" x="184" y="210.9854">[for each thread created]</text><polygon fill="#181818" points="406.5,235.6973,416.5,239.6973,406.5,243.6973,410.5,239.6973" style="stroke:#181818;stroke-width:1.0;"/><line style="stroke:#181818;stroke-width:1.0;" x1="156" x2="412.5" y1="239.6973" y2="239.6973"/><text fill="#000000" font-family="sans-serif" font-size="13" font-weight="bold" lengthAdjust="spacing" textLength="7" x="163" y="234.4346">3</text><text fill="#000000" font-family="sans-serif" font-size="13" lengthAdjust="spacing" textLength="28" x="174" y="234.4346">join()</text><polygon fill="#181818" points="172,266.9883,162,270.9883,172,274.9883,168,270.9883" style="stroke:#181818;stroke-width:1.0;"/><line style="stroke:#181818;stroke-width:1.0;stroke-dasharray:2.0,2.0;" x1="166" x2="422.5" y1="270.9883" y2="270.9883"/><text fill="#000000" font-family="sans-serif" font-size="13" font-weight="bold" lengthAdjust="spacing" textLength="7" x="178" y="265.7256">4</text><text fill="#000000" font-family="sans-serif" font-size="13" lengthAdjust="spacing" textLength="4" x="189" y="265.7256">&#160;</text><polygon fill="#181818" points="11,305.2793,1,309.2793,11,313.2793,7,309.2793" style="stroke:#181818;stroke-width:1.0;"/><line style="stroke:#181818;stroke-width:1.0;stroke-dasharray:2.0,2.0;" x1="5" x2="155" y1="309.2793" y2="309.2793"/><text fill="#000000" font-family="sans-serif" font-size="13" font-weight="bold" lengthAdjust="spacing" textLength="7" x="17" y="304.0166">5</text><text fill="#000000" font-family="sans-serif" font-size="13" lengthAdjust="spacing" textLength="121" x="28" y="304.0166">wordAnalysisResults</text><!--SRC=[PP71JiCm38RlUGhVMAULtYU4X7W1X90uUuct1gL9Y1qcU7gITcMZpIMny__-7EUk5ucyxxheq4iUtBqEGyVqcSbhQet5Ky91ASmIV1uEb9IAcCHg6ui1taCoJnxTDri6P3YNU2Lu3jaBfRS-4PggqbD2gVPnTC1-IbKnRuxM4JSAjTWl59fgAXT2X6D8GAXxg9fbJkn0umMm_I68o4mCKgZS1rTAZAY2lE2tsyejFGcDp1UKVWS7Ebc_0_AcKMML7IhcUbXXfsTDXTQKmlW8rcyQPUZ_a_wYUHopexsCvTOnQnPJkNRrqBRpBCytd_9Ad9tm4luB]--></g></svg>