<?xml version="1.0" encoding="us-ascii" standalone="no"?><svg xmlns="http://www.w3.org/2000/svg" xmlns:xlink="http://www.w3.org/1999/xlink" contentStyleType="text/css" height="804px" preserveAspectRatio="none" style="width:636px;height:804px;background:#FFFFFF;" version="1.1" viewBox="0 0 636 804" width="636px" zoomAndPan="magnify"><defs/><g><!--class CustomerManagerUI--><g id="elem_CustomerManagerUI"><rect codeLine="3" fill="#F1F1F1" height="66.6211" id="CustomerManagerUI" rx="2.5" ry="2.5" style="stroke:#181818;stroke-width:0.5;" width="161" x="108" y="7"/><ellipse cx="123" cy="23" fill="#ADD1B2" rx="11" ry="11" style="stroke:#181818;stroke-width:1.0;"/><path d="M125.7656,18.875 Q125.9219,18.6563 126.1094,18.5469 Q126.2969,18.4375 126.5156,18.4375 Q126.8906,18.4375 127.125,18.7031 Q127.3594,18.9531 127.3594,19.5625 L127.3594,21.0156 Q127.3594,21.625 127.125,21.8906 Q126.8906,22.1563 126.5156,22.1563 Q126.1719,22.1563 125.9688,21.9531 Q125.7656,21.7656 125.6563,21.25 Q125.6094,20.8906 125.4219,20.7031 Q125.0938,20.3281 124.4844,20.1094 Q123.875,19.8906 123.25,19.8906 Q122.4844,19.8906 121.8438,20.2188 Q121.2188,20.5469 120.7188,21.2969 Q120.2344,22.0469 120.2344,23.0781 L120.2344,24.1719 Q120.2344,25.4063 121.125,26.2344 Q122.0156,27.0469 123.6094,27.0469 Q124.5469,27.0469 125.2031,26.7969 Q125.5938,26.6406 126.0156,26.2031 Q126.2813,25.9375 126.4219,25.8594 Q126.5781,25.7813 126.7813,25.7813 Q127.1094,25.7813 127.3594,26.0469 Q127.625,26.2969 127.625,26.6406 Q127.625,26.9844 127.2813,27.3906 Q126.7813,27.9688 125.9844,28.2969 Q124.9063,28.75 123.6094,28.75 Q122.0938,28.75 120.8906,28.125 Q119.9063,27.625 119.2188,26.5625 Q118.5313,25.4844 118.5313,24.2031 L118.5313,23.0469 Q118.5313,21.7188 119.1406,20.5781 Q119.7656,19.4219 120.8594,18.8125 Q121.9531,18.1875 123.1875,18.1875 Q123.9219,18.1875 124.5625,18.3594 Q125.2188,18.5156 125.7656,18.875 Z " fill="#000000"/><text fill="#000000" font-family="sans-serif" font-size="14" lengthAdjust="spacing" textLength="129" x="137" y="28.7969">CustomerManagerUI</text><line style="stroke:#181818;stroke-width:0.5;" x1="109" x2="268" y1="39" y2="39"/><line style="stroke:#181818;stroke-width:0.5;" x1="109" x2="268" y1="47" y2="47"/><ellipse cx="119" cy="61.8105" fill="#84BE84" rx="3" ry="3" style="stroke:#038048;stroke-width:1.0;"/><text fill="#000000" font-family="sans-serif" font-size="14" lengthAdjust="spacing" textLength="112" x="128" y="66.1074">registerJobOffer()</text></g><!--class DisplayCandidateUI--><g id="elem_DisplayCandidateUI"><rect codeLine="7" fill="#F1F1F1" height="122.4844" id="DisplayCandidateUI" rx="2.5" ry="2.5" style="stroke:#181818;stroke-width:0.5;" width="289" x="44" y="135"/><ellipse cx="122.75" cy="151" fill="#ADD1B2" rx="11" ry="11" style="stroke:#181818;stroke-width:1.0;"/><path d="M125.5156,146.875 Q125.6719,146.6563 125.8594,146.5469 Q126.0469,146.4375 126.2656,146.4375 Q126.6406,146.4375 126.875,146.7031 Q127.1094,146.9531 127.1094,147.5625 L127.1094,149.0156 Q127.1094,149.625 126.875,149.8906 Q126.6406,150.1563 126.2656,150.1563 Q125.9219,150.1563 125.7188,149.9531 Q125.5156,149.7656 125.4063,149.25 Q125.3594,148.8906 125.1719,148.7031 Q124.8438,148.3281 124.2344,148.1094 Q123.625,147.8906 123,147.8906 Q122.2344,147.8906 121.5938,148.2188 Q120.9688,148.5469 120.4688,149.2969 Q119.9844,150.0469 119.9844,151.0781 L119.9844,152.1719 Q119.9844,153.4063 120.875,154.2344 Q121.7656,155.0469 123.3594,155.0469 Q124.2969,155.0469 124.9531,154.7969 Q125.3438,154.6406 125.7656,154.2031 Q126.0313,153.9375 126.1719,153.8594 Q126.3281,153.7813 126.5313,153.7813 Q126.8594,153.7813 127.1094,154.0469 Q127.375,154.2969 127.375,154.6406 Q127.375,154.9844 127.0313,155.3906 Q126.5313,155.9688 125.7344,156.2969 Q124.6563,156.75 123.3594,156.75 Q121.8438,156.75 120.6406,156.125 Q119.6563,155.625 118.9688,154.5625 Q118.2813,153.4844 118.2813,152.2031 L118.2813,151.0469 Q118.2813,149.7188 118.8906,148.5781 Q119.5156,147.4219 120.6094,146.8125 Q121.7031,146.1875 122.9375,146.1875 Q123.6719,146.1875 124.3125,146.3594 Q124.9688,146.5156 125.5156,146.875 Z " fill="#000000"/><text fill="#000000" font-family="sans-serif" font-size="14" lengthAdjust="spacing" textLength="123" x="143.25" y="156.7969">DisplayCandidateUI</text><line style="stroke:#181818;stroke-width:0.5;" x1="45" x2="332" y1="167" y2="167"/><rect fill="none" height="6" style="stroke:#C82930;stroke-width:1.0;" width="6" x="52" y="178.8105"/><text fill="#000000" font-family="sans-serif" font-size="14" lengthAdjust="spacing" textLength="263" x="64" y="186.1074">DisplayCandidateController: theController</text><line style="stroke:#181818;stroke-width:0.5;" x1="45" x2="332" y1="193.6211" y2="193.6211"/><ellipse cx="55" cy="208.4316" fill="#84BE84" rx="3" ry="3" style="stroke:#038048;stroke-width:1.0;"/><text fill="#000000" font-family="sans-serif" font-size="14" lengthAdjust="spacing" textLength="60" x="64" y="212.7285">doShow()</text><ellipse cx="55" cy="227.0527" fill="#84BE84" rx="3" ry="3" style="stroke:#038048;stroke-width:1.0;"/><text fill="#000000" font-family="sans-serif" font-size="14" lengthAdjust="spacing" textLength="129" x="64" y="231.3496">showCandidateList()</text><ellipse cx="55" cy="245.6738" fill="#84BE84" rx="3" ry="3" style="stroke:#038048;stroke-width:1.0;"/><text fill="#000000" font-family="sans-serif" font-size="14" lengthAdjust="spacing" textLength="124" x="64" y="249.9707">displayInformation()</text></g><!--class DisplayCandidateController--><g id="elem_DisplayCandidateController"><rect codeLine="14" fill="#F1F1F1" height="85.2422" id="DisplayCandidateController" rx="2.5" ry="2.5" style="stroke:#181818;stroke-width:0.5;" width="278" x="49.5" y="318"/><ellipse cx="97.75" cy="334" fill="#ADD1B2" rx="11" ry="11" style="stroke:#181818;stroke-width:1.0;"/><path d="M100.5156,329.875 Q100.6719,329.6563 100.8594,329.5469 Q101.0469,329.4375 101.2656,329.4375 Q101.6406,329.4375 101.875,329.7031 Q102.1094,329.9531 102.1094,330.5625 L102.1094,332.0156 Q102.1094,332.625 101.875,332.8906 Q101.6406,333.1563 101.2656,333.1563 Q100.9219,333.1563 100.7188,332.9531 Q100.5156,332.7656 100.4063,332.25 Q100.3594,331.8906 100.1719,331.7031 Q99.8438,331.3281 99.2344,331.1094 Q98.625,330.8906 98,330.8906 Q97.2344,330.8906 96.5938,331.2188 Q95.9688,331.5469 95.4688,332.2969 Q94.9844,333.0469 94.9844,334.0781 L94.9844,335.1719 Q94.9844,336.4063 95.875,337.2344 Q96.7656,338.0469 98.3594,338.0469 Q99.2969,338.0469 99.9531,337.7969 Q100.3438,337.6406 100.7656,337.2031 Q101.0313,336.9375 101.1719,336.8594 Q101.3281,336.7813 101.5313,336.7813 Q101.8594,336.7813 102.1094,337.0469 Q102.375,337.2969 102.375,337.6406 Q102.375,337.9844 102.0313,338.3906 Q101.5313,338.9688 100.7344,339.2969 Q99.6563,339.75 98.3594,339.75 Q96.8438,339.75 95.6406,339.125 Q94.6563,338.625 93.9688,337.5625 Q93.2813,336.4844 93.2813,335.2031 L93.2813,334.0469 Q93.2813,332.7188 93.8906,331.5781 Q94.5156,330.4219 95.6094,329.8125 Q96.7031,329.1875 97.9375,329.1875 Q98.6719,329.1875 99.3125,329.3594 Q99.9688,329.5156 100.5156,329.875 Z " fill="#000000"/><text fill="#000000" font-family="sans-serif" font-size="14" lengthAdjust="spacing" textLength="173" x="118.25" y="339.7969">DisplayCandidateController</text><line style="stroke:#181818;stroke-width:0.5;" x1="50.5" x2="326.5" y1="350" y2="350"/><rect fill="none" height="6" style="stroke:#C82930;stroke-width:1.0;" width="6" x="57.5" y="361.8105"/><text fill="#000000" font-family="sans-serif" font-size="14" lengthAdjust="spacing" textLength="252" x="69.5" y="369.1074">GetCandidateService: candidateService</text><line style="stroke:#181818;stroke-width:0.5;" x1="50.5" x2="326.5" y1="376.6211" y2="376.6211"/><ellipse cx="60.5" cy="391.4316" fill="#84BE84" rx="3" ry="3" style="stroke:#038048;stroke-width:1.0;"/><text fill="#000000" font-family="sans-serif" font-size="14" lengthAdjust="spacing" textLength="126" x="69.5" y="395.7285">displayCandidates()</text></g><!--class GetCandidateService--><g id="elem_GetCandidateService"><rect codeLine="19" fill="#F1F1F1" height="85.2422" id="GetCandidateService" rx="2.5" ry="2.5" style="stroke:#181818;stroke-width:0.5;" width="196" x="223.5" y="597"/><ellipse cx="251.55" cy="613" fill="#ADD1B2" rx="11" ry="11" style="stroke:#181818;stroke-width:1.0;"/><path d="M254.3156,608.875 Q254.4719,608.6563 254.6594,608.5469 Q254.8469,608.4375 255.0656,608.4375 Q255.4406,608.4375 255.675,608.7031 Q255.9094,608.9531 255.9094,609.5625 L255.9094,611.0156 Q255.9094,611.625 255.675,611.8906 Q255.4406,612.1563 255.0656,612.1563 Q254.7219,612.1563 254.5188,611.9531 Q254.3156,611.7656 254.2063,611.25 Q254.1594,610.8906 253.9719,610.7031 Q253.6438,610.3281 253.0344,610.1094 Q252.425,609.8906 251.8,609.8906 Q251.0344,609.8906 250.3938,610.2188 Q249.7688,610.5469 249.2688,611.2969 Q248.7844,612.0469 248.7844,613.0781 L248.7844,614.1719 Q248.7844,615.4063 249.675,616.2344 Q250.5656,617.0469 252.1594,617.0469 Q253.0969,617.0469 253.7531,616.7969 Q254.1438,616.6406 254.5656,616.2031 Q254.8313,615.9375 254.9719,615.8594 Q255.1281,615.7813 255.3313,615.7813 Q255.6594,615.7813 255.9094,616.0469 Q256.175,616.2969 256.175,616.6406 Q256.175,616.9844 255.8313,617.3906 Q255.3313,617.9688 254.5344,618.2969 Q253.4563,618.75 252.1594,618.75 Q250.6438,618.75 249.4406,618.125 Q248.4563,617.625 247.7688,616.5625 Q247.0813,615.4844 247.0813,614.2031 L247.0813,613.0469 Q247.0813,611.7188 247.6906,610.5781 Q248.3156,609.4219 249.4094,608.8125 Q250.5031,608.1875 251.7375,608.1875 Q252.4719,608.1875 253.1125,608.3594 Q253.7688,608.5156 254.3156,608.875 Z " fill="#000000"/><text fill="#000000" font-family="sans-serif" font-size="14" lengthAdjust="spacing" textLength="135" x="268.45" y="618.7969">GetCandidateService</text><line style="stroke:#181818;stroke-width:0.5;" x1="224.5" x2="418.5" y1="629" y2="629"/><rect fill="none" height="6" style="stroke:#C82930;stroke-width:1.0;" width="6" x="231.5" y="640.8105"/><text fill="#000000" font-family="sans-serif" font-size="14" lengthAdjust="spacing" textLength="170" x="243.5" y="648.1074">CandidateRepository: repo</text><line style="stroke:#181818;stroke-width:0.5;" x1="224.5" x2="418.5" y1="655.6211" y2="655.6211"/><ellipse cx="234.5" cy="670.4316" fill="#84BE84" rx="3" ry="3" style="stroke:#038048;stroke-width:1.0;"/><text fill="#000000" font-family="sans-serif" font-size="14" lengthAdjust="spacing" textLength="102" x="243.5" y="674.7285">getCandidates()</text></g><!--class PersistenceContext--><g id="elem_PersistenceContext"><rect codeLine="24" fill="#F1F1F1" height="66.6211" id="PersistenceContext" rx="2.5" ry="2.5" style="stroke:#181818;stroke-width:0.5;" width="154" x="439.5" y="327"/><ellipse cx="454.5" cy="343" fill="#ADD1B2" rx="11" ry="11" style="stroke:#181818;stroke-width:1.0;"/><path d="M457.2656,338.875 Q457.4219,338.6563 457.6094,338.5469 Q457.7969,338.4375 458.0156,338.4375 Q458.3906,338.4375 458.625,338.7031 Q458.8594,338.9531 458.8594,339.5625 L458.8594,341.0156 Q458.8594,341.625 458.625,341.8906 Q458.3906,342.1563 458.0156,342.1563 Q457.6719,342.1563 457.4688,341.9531 Q457.2656,341.7656 457.1563,341.25 Q457.1094,340.8906 456.9219,340.7031 Q456.5938,340.3281 455.9844,340.1094 Q455.375,339.8906 454.75,339.8906 Q453.9844,339.8906 453.3438,340.2188 Q452.7188,340.5469 452.2188,341.2969 Q451.7344,342.0469 451.7344,343.0781 L451.7344,344.1719 Q451.7344,345.4063 452.625,346.2344 Q453.5156,347.0469 455.1094,347.0469 Q456.0469,347.0469 456.7031,346.7969 Q457.0938,346.6406 457.5156,346.2031 Q457.7813,345.9375 457.9219,345.8594 Q458.0781,345.7813 458.2813,345.7813 Q458.6094,345.7813 458.8594,346.0469 Q459.125,346.2969 459.125,346.6406 Q459.125,346.9844 458.7813,347.3906 Q458.2813,347.9688 457.4844,348.2969 Q456.4063,348.75 455.1094,348.75 Q453.5938,348.75 452.3906,348.125 Q451.4063,347.625 450.7188,346.5625 Q450.0313,345.4844 450.0313,344.2031 L450.0313,343.0469 Q450.0313,341.7188 450.6406,340.5781 Q451.2656,339.4219 452.3594,338.8125 Q453.4531,338.1875 454.6875,338.1875 Q455.4219,338.1875 456.0625,338.3594 Q456.7188,338.5156 457.2656,338.875 Z " fill="#000000"/><text fill="#000000" font-family="sans-serif" font-size="14" lengthAdjust="spacing" textLength="122" x="468.5" y="348.7969">PersistenceContext</text><line style="stroke:#181818;stroke-width:0.5;" x1="440.5" x2="592.5" y1="359" y2="359"/><line style="stroke:#181818;stroke-width:0.5;" x1="440.5" x2="592.5" y1="367" y2="367"/><ellipse cx="450.5" cy="381.8105" fill="#84BE84" rx="3" ry="3" style="stroke:#038048;stroke-width:1.0;"/><text fill="#000000" font-family="sans-serif" font-size="14" lengthAdjust="spacing" textLength="84" x="459.5" y="386.1074">repositories()</text></g><!--class RepositoryFactory--><g id="elem_RepositoryFactory"><rect codeLine="28" fill="#F1F1F1" height="85.2422" id="RepositoryFactory" rx="2.5" ry="2.5" style="stroke:#181818;stroke-width:0.5;" width="256" x="373.5" y="482"/><ellipse cx="439.25" cy="498" fill="#ADD1B2" rx="11" ry="11" style="stroke:#181818;stroke-width:1.0;"/><path d="M442.0156,493.875 Q442.1719,493.6563 442.3594,493.5469 Q442.5469,493.4375 442.7656,493.4375 Q443.1406,493.4375 443.375,493.7031 Q443.6094,493.9531 443.6094,494.5625 L443.6094,496.0156 Q443.6094,496.625 443.375,496.8906 Q443.1406,497.1563 442.7656,497.1563 Q442.4219,497.1563 442.2188,496.9531 Q442.0156,496.7656 441.9063,496.25 Q441.8594,495.8906 441.6719,495.7031 Q441.3438,495.3281 440.7344,495.1094 Q440.125,494.8906 439.5,494.8906 Q438.7344,494.8906 438.0938,495.2188 Q437.4688,495.5469 436.9688,496.2969 Q436.4844,497.0469 436.4844,498.0781 L436.4844,499.1719 Q436.4844,500.4063 437.375,501.2344 Q438.2656,502.0469 439.8594,502.0469 Q440.7969,502.0469 441.4531,501.7969 Q441.8438,501.6406 442.2656,501.2031 Q442.5313,500.9375 442.6719,500.8594 Q442.8281,500.7813 443.0313,500.7813 Q443.3594,500.7813 443.6094,501.0469 Q443.875,501.2969 443.875,501.6406 Q443.875,501.9844 443.5313,502.3906 Q443.0313,502.9688 442.2344,503.2969 Q441.1563,503.75 439.8594,503.75 Q438.3438,503.75 437.1406,503.125 Q436.1563,502.625 435.4688,501.5625 Q434.7813,500.4844 434.7813,499.2031 L434.7813,498.0469 Q434.7813,496.7188 435.3906,495.5781 Q436.0156,494.4219 437.1094,493.8125 Q438.2031,493.1875 439.4375,493.1875 Q440.1719,493.1875 440.8125,493.3594 Q441.4688,493.5156 442.0156,493.875 Z " fill="#000000"/><text fill="#000000" font-family="sans-serif" font-size="14" lengthAdjust="spacing" textLength="116" x="459.75" y="503.7969">RepositoryFactory</text><line style="stroke:#181818;stroke-width:0.5;" x1="374.5" x2="628.5" y1="514" y2="514"/><line style="stroke:#181818;stroke-width:0.5;" x1="374.5" x2="628.5" y1="522" y2="522"/><ellipse cx="384.5" cy="536.8105" fill="#84BE84" rx="3" ry="3" style="stroke:#038048;stroke-width:1.0;"/><text fill="#000000" font-family="sans-serif" font-size="14" lengthAdjust="spacing" textLength="169" x="393.5" y="541.1074">newTransactionalContext()</text><ellipse cx="384.5" cy="555.4316" fill="#84BE84" rx="3" ry="3" style="stroke:#038048;stroke-width:1.0;"/><text fill="#000000" font-family="sans-serif" font-size="14" lengthAdjust="spacing" textLength="230" x="393.5" y="559.7285">JobOffer(TransactionalContext var1)</text></g><!--class CandidateRepository--><g id="elem_CandidateRepository"><rect codeLine="33" fill="#F1F1F1" height="85.2422" id="CandidateRepository" rx="2.5" ry="2.5" style="stroke:#181818;stroke-width:0.5;" width="165" x="382" y="712"/><ellipse cx="397" cy="728" fill="#ADD1B2" rx="11" ry="11" style="stroke:#181818;stroke-width:1.0;"/><path d="M399.7656,723.875 Q399.9219,723.6563 400.1094,723.5469 Q400.2969,723.4375 400.5156,723.4375 Q400.8906,723.4375 401.125,723.7031 Q401.3594,723.9531 401.3594,724.5625 L401.3594,726.0156 Q401.3594,726.625 401.125,726.8906 Q400.8906,727.1563 400.5156,727.1563 Q400.1719,727.1563 399.9688,726.9531 Q399.7656,726.7656 399.6563,726.25 Q399.6094,725.8906 399.4219,725.7031 Q399.0938,725.3281 398.4844,725.1094 Q397.875,724.8906 397.25,724.8906 Q396.4844,724.8906 395.8438,725.2188 Q395.2188,725.5469 394.7188,726.2969 Q394.2344,727.0469 394.2344,728.0781 L394.2344,729.1719 Q394.2344,730.4063 395.125,731.2344 Q396.0156,732.0469 397.6094,732.0469 Q398.5469,732.0469 399.2031,731.7969 Q399.5938,731.6406 400.0156,731.2031 Q400.2813,730.9375 400.4219,730.8594 Q400.5781,730.7813 400.7813,730.7813 Q401.1094,730.7813 401.3594,731.0469 Q401.625,731.2969 401.625,731.6406 Q401.625,731.9844 401.2813,732.3906 Q400.7813,732.9688 399.9844,733.2969 Q398.9063,733.75 397.6094,733.75 Q396.0938,733.75 394.8906,733.125 Q393.9063,732.625 393.2188,731.5625 Q392.5313,730.4844 392.5313,729.2031 L392.5313,728.0469 Q392.5313,726.7188 393.1406,725.5781 Q393.7656,724.4219 394.8594,723.8125 Q395.9531,723.1875 397.1875,723.1875 Q397.9219,723.1875 398.5625,723.3594 Q399.2188,723.5156 399.7656,723.875 Z " fill="#000000"/><text fill="#000000" font-family="sans-serif" font-size="14" lengthAdjust="spacing" textLength="133" x="411" y="733.7969">CandidateRepository</text><line style="stroke:#181818;stroke-width:0.5;" x1="383" x2="546" y1="744" y2="744"/><line style="stroke:#181818;stroke-width:0.5;" x1="383" x2="546" y1="752" y2="752"/><ellipse cx="393" cy="766.8105" fill="#84BE84" rx="3" ry="3" style="stroke:#038048;stroke-width:1.0;"/><text fill="#000000" font-family="sans-serif" font-size="14" lengthAdjust="spacing" textLength="98" x="402" y="771.1074">findByNumber()</text><ellipse cx="393" cy="785.4316" fill="#84BE84" rx="3" ry="3" style="stroke:#038048;stroke-width:1.0;"/><text fill="#000000" font-family="sans-serif" font-size="14" lengthAdjust="spacing" textLength="120" x="402" y="789.7285">findAllCandidates()</text></g><!--class ApplicationManagementService--><g id="elem_ApplicationManagementService"><rect codeLine="38" fill="#F1F1F1" height="66.6211" id="ApplicationManagementService" rx="2.5" ry="2.5" style="stroke:#181818;stroke-width:0.5;" width="253" x="71" y="721"/><ellipse cx="96.35" cy="737" fill="#ADD1B2" rx="11" ry="11" style="stroke:#181818;stroke-width:1.0;"/><path d="M99.1156,732.875 Q99.2719,732.6563 99.4594,732.5469 Q99.6469,732.4375 99.8656,732.4375 Q100.2406,732.4375 100.475,732.7031 Q100.7094,732.9531 100.7094,733.5625 L100.7094,735.0156 Q100.7094,735.625 100.475,735.8906 Q100.2406,736.1563 99.8656,736.1563 Q99.5219,736.1563 99.3188,735.9531 Q99.1156,735.7656 99.0063,735.25 Q98.9594,734.8906 98.7719,734.7031 Q98.4438,734.3281 97.8344,734.1094 Q97.225,733.8906 96.6,733.8906 Q95.8344,733.8906 95.1938,734.2188 Q94.5688,734.5469 94.0688,735.2969 Q93.5844,736.0469 93.5844,737.0781 L93.5844,738.1719 Q93.5844,739.4063 94.475,740.2344 Q95.3656,741.0469 96.9594,741.0469 Q97.8969,741.0469 98.5531,740.7969 Q98.9438,740.6406 99.3656,740.2031 Q99.6313,739.9375 99.7719,739.8594 Q99.9281,739.7813 100.1313,739.7813 Q100.4594,739.7813 100.7094,740.0469 Q100.975,740.2969 100.975,740.6406 Q100.975,740.9844 100.6313,741.3906 Q100.1313,741.9688 99.3344,742.2969 Q98.2563,742.75 96.9594,742.75 Q95.4438,742.75 94.2406,742.125 Q93.2563,741.625 92.5688,740.5625 Q91.8813,739.4844 91.8813,738.2031 L91.8813,737.0469 Q91.8813,735.7188 92.4906,734.5781 Q93.1156,733.4219 94.2094,732.8125 Q95.3031,732.1875 96.5375,732.1875 Q97.2719,732.1875 97.9125,732.3594 Q98.5688,732.5156 99.1156,732.875 Z " fill="#000000"/><text fill="#000000" font-family="sans-serif" font-size="14" lengthAdjust="spacing" textLength="198" x="112.65" y="742.7969">ApplicationManagementService</text><line style="stroke:#181818;stroke-width:0.5;" x1="72" x2="323" y1="753" y2="753"/><line style="stroke:#181818;stroke-width:0.5;" x1="72" x2="323" y1="761" y2="761"/><ellipse cx="82" cy="775.8105" fill="#84BE84" rx="3" ry="3" style="stroke:#038048;stroke-width:1.0;"/><text fill="#000000" font-family="sans-serif" font-size="14" lengthAdjust="spacing" textLength="227" x="91" y="780.1074">applicationsOfCandidate(candidate)</text></g><!--class WordAnalysis--><g id="elem_WordAnalysis"><rect codeLine="42" fill="#F1F1F1" height="66.6211" id="WordAnalysis" rx="2.5" ry="2.5" style="stroke:#181818;stroke-width:0.5;" width="137" x="7" y="491"/><ellipse cx="30.55" cy="507" fill="#ADD1B2" rx="11" ry="11" style="stroke:#181818;stroke-width:1.0;"/><path d="M33.3156,502.875 Q33.4719,502.6563 33.6594,502.5469 Q33.8469,502.4375 34.0656,502.4375 Q34.4406,502.4375 34.675,502.7031 Q34.9094,502.9531 34.9094,503.5625 L34.9094,505.0156 Q34.9094,505.625 34.675,505.8906 Q34.4406,506.1563 34.0656,506.1563 Q33.7219,506.1563 33.5188,505.9531 Q33.3156,505.7656 33.2063,505.25 Q33.1594,504.8906 32.9719,504.7031 Q32.6438,504.3281 32.0344,504.1094 Q31.425,503.8906 30.8,503.8906 Q30.0344,503.8906 29.3938,504.2188 Q28.7688,504.5469 28.2688,505.2969 Q27.7844,506.0469 27.7844,507.0781 L27.7844,508.1719 Q27.7844,509.4063 28.675,510.2344 Q29.5656,511.0469 31.1594,511.0469 Q32.0969,511.0469 32.7531,510.7969 Q33.1438,510.6406 33.5656,510.2031 Q33.8313,509.9375 33.9719,509.8594 Q34.1281,509.7813 34.3313,509.7813 Q34.6594,509.7813 34.9094,510.0469 Q35.175,510.2969 35.175,510.6406 Q35.175,510.9844 34.8313,511.3906 Q34.3313,511.9688 33.5344,512.2969 Q32.4563,512.75 31.1594,512.75 Q29.6438,512.75 28.4406,512.125 Q27.4563,511.625 26.7688,510.5625 Q26.0813,509.4844 26.0813,508.2031 L26.0813,507.0469 Q26.0813,505.7188 26.6906,504.5781 Q27.3156,503.4219 28.4094,502.8125 Q29.5031,502.1875 30.7375,502.1875 Q31.4719,502.1875 32.1125,502.3594 Q32.7688,502.5156 33.3156,502.875 Z " fill="#000000"/><text fill="#000000" font-family="sans-serif" font-size="14" lengthAdjust="spacing" textLength="86" x="46.45" y="512.7969">WordAnalysis</text><line style="stroke:#181818;stroke-width:0.5;" x1="8" x2="143" y1="523" y2="523"/><line style="stroke:#181818;stroke-width:0.5;" x1="8" x2="143" y1="531" y2="531"/><ellipse cx="18" cy="545.8105" fill="#84BE84" rx="3" ry="3" style="stroke:#038048;stroke-width:1.0;"/><text fill="#000000" font-family="sans-serif" font-size="14" lengthAdjust="spacing" textLength="111" x="27" y="550.1074">countWords(files)</text></g><!--link CustomerManagerUI to DisplayCandidateUI--><g id="link_CustomerManagerUI_DisplayCandidateUI"><path codeLine="46" d="M188.5,74.05 C188.5,91.74 188.5,108.18 188.5,128.92 " fill="none" id="CustomerManagerUI-to-DisplayCandidateUI" style="stroke:#181818;stroke-width:1.0;stroke-dasharray:7.0,7.0;"/><polygon fill="#181818" points="188.5,134.92,192.5,125.92,188.5,129.92,184.5,125.92,188.5,134.92" style="stroke:#181818;stroke-width:1.0;"/></g><!--link DisplayCandidateUI to DisplayCandidateController--><g id="link_DisplayCandidateUI_DisplayCandidateController"><path codeLine="47" d="M188.5,257.05 C188.5,277.3 188.5,293.44 188.5,311.94 " fill="none" id="DisplayCandidateUI-to-DisplayCandidateController" style="stroke:#181818;stroke-width:1.0;stroke-dasharray:7.0,7.0;"/><polygon fill="#181818" points="188.5,317.94,192.5,308.94,188.5,312.94,184.5,308.94,188.5,317.94" style="stroke:#181818;stroke-width:1.0;"/></g><!--link DisplayCandidateController to PersistenceContext--><g id="link_DisplayCandidateController_PersistenceContext"><path codeLine="48" d="M327.6,360.5 C365.84,360.5 399.93,360.5 433.28,360.5 " fill="none" id="DisplayCandidateController-to-PersistenceContext" style="stroke:#181818;stroke-width:1.0;"/><polygon fill="#181818" points="439.28,360.5,430.28,356.5,434.28,360.5,430.28,364.5,439.28,360.5" style="stroke:#181818;stroke-width:1.0;"/><text fill="#000000" font-family="sans-serif" font-size="13" lengthAdjust="spacing" textLength="75" x="346" y="353.5283">repositories()</text></g><!--link PersistenceContext to RepositoryFactory--><g id="link_PersistenceContext_RepositoryFactory"><path codeLine="49" d="M513.46,394.28 C511.13,419.52 508.4327,448.6055 505.9127,475.8455 " fill="none" id="PersistenceContext-to-RepositoryFactory" style="stroke:#181818;stroke-width:1.0;"/><polygon fill="#181818" points="505.36,481.82,510.1721,473.2267,505.8206,476.8413,502.2061,472.4898,505.36,481.82" style="stroke:#181818;stroke-width:1.0;"/><text fill="#000000" font-family="sans-serif" font-size="13" lengthAdjust="spacing" textLength="44" x="509.5" y="448.0283">create()</text></g><!--link RepositoryFactory to CandidateRepository--><g id="link_RepositoryFactory_CandidateRepository"><path codeLine="51" d="M494.76,567.05 C488.09,608.16 478.9016,664.7876 472.2216,705.9276 " fill="none" id="RepositoryFactory-to-CandidateRepository" style="stroke:#181818;stroke-width:1.0;"/><polygon fill="#181818" points="471.26,711.85,476.6508,703.6074,472.0614,706.9146,468.7542,702.3253,471.26,711.85" style="stroke:#181818;stroke-width:1.0;"/><text fill="#000000" font-family="sans-serif" font-size="13" lengthAdjust="spacing" textLength="44" x="490.5" y="645.0283">create()</text></g><!--link DisplayCandidateController to GetCandidateService--><g id="link_DisplayCandidateController_GetCandidateService"><path codeLine="53" d="M208.93,403.05 C213.73,412.86 218.81,423.29 223.5,433 C250.84,489.59 279.449,549.7388 299.159,591.2988 " fill="none" id="DisplayCandidateController-to-GetCandidateService" style="stroke:#181818;stroke-width:1.0;"/><polygon fill="#181818" points="301.73,596.72,301.4876,586.8741,299.5875,592.2023,294.2593,590.3022,301.73,596.72" style="stroke:#181818;stroke-width:1.0;"/></g><!--link GetCandidateService to CandidateRepository--><g id="link_GetCandidateService_CandidateRepository"><path codeLine="54" d="M374.34,682.26 C386.59,691.94 394.9224,698.52 407.1724,708.2 " fill="none" id="GetCandidateService-to-CandidateRepository" style="stroke:#181818;stroke-width:1.0;"/><polygon fill="#181818" points="411.88,711.92,407.2986,703.2016,407.957,708.82,402.3386,709.4784,411.88,711.92" style="stroke:#181818;stroke-width:1.0;"/></g><!--link DisplayCandidateController to ApplicationManagementService--><g id="link_DisplayCandidateController_ApplicationManagementService"><path codeLine="56" d="M189.45,403.08 C191.26,481.5 194.9823,643.7516 196.6123,714.7816 " fill="none" id="DisplayCandidateController-to-ApplicationManagementService" style="stroke:#181818;stroke-width:1.0;stroke-dasharray:7.0,7.0;"/><polygon fill="#181818" points="196.75,720.78,200.5425,711.6906,196.6353,715.7813,192.5446,711.8741,196.75,720.78" style="stroke:#181818;stroke-width:1.0;"/></g><!--link DisplayCandidateController to WordAnalysis--><g id="link_DisplayCandidateController_WordAnalysis"><path codeLine="57" d="M159.4,403.22 C140.37,430.5 119.3032,460.6993 101.6932,485.9393 " fill="none" id="DisplayCandidateController-to-WordAnalysis" style="stroke:#181818;stroke-width:1.0;stroke-dasharray:7.0,7.0;"/><polygon fill="#181818" points="98.26,490.86,106.6902,485.7677,101.121,486.7594,100.1293,481.1902,98.26,490.86" style="stroke:#181818;stroke-width:1.0;"/></g><!--SRC=[VL9TJy8m57tlh-YR40B4rpsG84Q3KJ6YyRbqTwD9rowt7KYC_zrki6vZTNjPxiSvv_QUUxEtDZVHV9vBfcoHoHdNsPnBPimq5Yn5bX5IXNHL6Aipm1UcM0hukVuXr7qJYf0AOm6Vz6wJ982ZCVcjGVV2EERJYgbOnCn2ZPhsAYkjB6ef0IDgzwtmeXBhxLuV7VSvD2xms6UdxolncNYj4eqPiqAheO4QdNgmHx2-kWKy20uHvLUPhfRlDssf056juVFla6iZhCPJvFQOwmjlse9sEDy0JRbinQl9uTisBboOH1VHA3mmNlvgW8BZ1p9bNDRjYCaBdz-ZjpFKHGyCRrigWGVLEebGyTtfjSXsrMaqoQMKuKSkyrmANbbtFhOCbEriS49PqsCsYUSPUQDQV5yQuwMR_UHML-EvBfGj2sQK20ccQk-TE9rD5u4R9lrKiBDrnF-Ng0FsRQNHjQE1dgc3zlnrI8vGxc9CIBzQWG9sTM13qpfuuB9984V3IeFqiv9_w026mOkEsUGF]--></g></svg>