<?xml version="1.0" encoding="us-ascii" standalone="no"?><svg xmlns="http://www.w3.org/2000/svg" xmlns:xlink="http://www.w3.org/1999/xlink" contentStyleType="text/css" height="985px" preserveAspectRatio="none" style="width:1958px;height:985px;background:#FFFFFF;" version="1.1" viewBox="0 0 1958 985" width="1958px" zoomAndPan="magnify"><defs/><g><rect fill="#FFFFFF" height="23.291" style="stroke:#181818;stroke-width:1.0;" width="10" x="61.5" y="93.6211"/><rect fill="#FFFFFF" height="31.291" style="stroke:#181818;stroke-width:1.0;" width="10" x="61.5" y="648.5293"/><rect fill="#FFFFFF" height="9" style="stroke:#181818;stroke-width:1.0;" width="10" x="61.5" y="884.5273"/><rect fill="#FFFFFF" height="79.543" style="stroke:#181818;stroke-width:1.0;" width="10" x="296.5" y="116.9121"/><rect fill="#FFFFFF" height="48.582" style="stroke:#181818;stroke-width:1.0;" width="10" x="296.5" y="599.9473"/><rect fill="#FFFFFF" height="31.291" style="stroke:#181818;stroke-width:1.0;" width="10" x="296.5" y="679.8203"/><rect fill="#FFFFFF" height="31.291" style="stroke:#181818;stroke-width:1.0;" width="10" x="296.5" y="853.2363"/><rect fill="#FFFFFF" height="31.291" style="stroke:#181818;stroke-width:1.0;" width="10" x="592.5" y="196.4551"/><rect fill="#FFFFFF" height="31.291" style="stroke:#181818;stroke-width:1.0;" width="10" x="592.5" y="321.6191"/><rect fill="#FFFFFF" height="31.291" style="stroke:#181818;stroke-width:1.0;" width="10" x="592.5" y="568.6563"/><rect fill="#FFFFFF" height="31.291" style="stroke:#181818;stroke-width:1.0;" width="10" x="592.5" y="711.1113"/><rect fill="#FFFFFF" height="31.291" style="stroke:#181818;stroke-width:1.0;" width="10" x="592.5" y="821.9453"/><rect fill="#FFFFFF" height="31.291" style="stroke:#181818;stroke-width:1.0;" width="10" x="915.5" y="227.7461"/><rect fill="#FFFFFF" height="31.291" style="stroke:#181818;stroke-width:1.0;" width="10" x="915.5" y="290.3281"/><rect fill="#FFFFFF" height="31.291" style="stroke:#181818;stroke-width:1.0;" width="10" x="1317.5" y="259.0371"/><rect fill="#FFFFFF" height="79.543" style="stroke:#181818;stroke-width:1.0;" width="10" x="1451" y="742.4023"/><rect fill="#FFFFFF" height="31.291" style="stroke:#181818;stroke-width:1.0;" width="10" x="1617" y="352.9102"/><rect fill="#FFFFFF" height="153.1641" style="stroke:#181818;stroke-width:1.0;" width="10" x="1617" y="415.4922"/><rect fill="#FFFFFF" height="42.291" style="stroke:#181818;stroke-width:1.0;" width="10" x="1622" y="481.0742"/><rect fill="#FFFFFF" height="31.291" style="stroke:#181818;stroke-width:1.0;" width="10" x="1861" y="384.2012"/><rect fill="none" height="107.873" style="stroke:#000000;stroke-width:1.5;" width="251" x="1506" y="430.4922"/><line style="stroke:#181818;stroke-width:0.5;stroke-dasharray:5.0,5.0;" x1="66" x2="66" y1="83.6211" y2="902.5273"/><line style="stroke:#181818;stroke-width:0.5;stroke-dasharray:5.0,5.0;" x1="301" x2="301" y1="83.6211" y2="902.5273"/><line style="stroke:#181818;stroke-width:0.5;stroke-dasharray:5.0,5.0;" x1="597" x2="597" y1="83.6211" y2="902.5273"/><line style="stroke:#181818;stroke-width:0.5;stroke-dasharray:5.0,5.0;" x1="920" x2="920" y1="83.6211" y2="902.5273"/><line style="stroke:#181818;stroke-width:0.5;stroke-dasharray:5.0,5.0;" x1="1122" x2="1122" y1="83.6211" y2="902.5273"/><line style="stroke:#181818;stroke-width:0.5;stroke-dasharray:5.0,5.0;" x1="1322" x2="1322" y1="83.6211" y2="902.5273"/><line style="stroke:#181818;stroke-width:0.5;stroke-dasharray:5.0,5.0;" x1="1456" x2="1456" y1="83.6211" y2="902.5273"/><line style="stroke:#181818;stroke-width:0.5;stroke-dasharray:5.0,5.0;" x1="1622" x2="1622" y1="83.6211" y2="902.5273"/><line style="stroke:#181818;stroke-width:0.5;stroke-dasharray:5.0,5.0;" x1="1865.5" x2="1865.5" y1="83.6211" y2="902.5273"/><text fill="#000000" font-family="sans-serif" font-size="14" lengthAdjust="spacing" textLength="117" x="5" y="80.1074">CustomerManager</text><ellipse cx="66.5" cy="13.5" fill="#E2E2F0" rx="8" ry="8" style="stroke:#181818;stroke-width:0.5;"/><path d="M66.5,21.5 L66.5,48.5 M53.5,29.5 L79.5,29.5 M66.5,48.5 L53.5,63.5 M66.5,48.5 L79.5,63.5 " fill="none" style="stroke:#181818;stroke-width:0.5;"/><text fill="#000000" font-family="sans-serif" font-size="14" lengthAdjust="spacing" textLength="117" x="5" y="916.6348">CustomerManager</text><ellipse cx="66.5" cy="928.6484" fill="#E2E2F0" rx="8" ry="8" style="stroke:#181818;stroke-width:0.5;"/><path d="M66.5,936.6484 L66.5,963.6484 M53.5,944.6484 L79.5,944.6484 M66.5,963.6484 L53.5,978.6484 M66.5,963.6484 L79.5,978.6484 " fill="none" style="stroke:#181818;stroke-width:0.5;"/><rect fill="#E2E2F0" height="32.6211" rx="2.5" ry="2.5" style="stroke:#181818;stroke-width:0.5;" width="137" x="233" y="50"/><text fill="#000000" font-family="sans-serif" font-size="14" lengthAdjust="spacing" textLength="123" x="240" y="72.1074">DisplayCandidateUI</text><rect fill="#E2E2F0" height="32.6211" rx="2.5" ry="2.5" style="stroke:#181818;stroke-width:0.5;" width="137" x="233" y="901.5273"/><text fill="#000000" font-family="sans-serif" font-size="14" lengthAdjust="spacing" textLength="123" x="240" y="923.6348">DisplayCandidateUI</text><rect fill="#E2E2F0" height="32.6211" rx="2.5" ry="2.5" style="stroke:#181818;stroke-width:0.5;" width="187" x="504" y="50"/><text fill="#000000" font-family="sans-serif" font-size="14" lengthAdjust="spacing" textLength="173" x="511" y="72.1074">DisplayCandidateController</text><rect fill="#E2E2F0" height="32.6211" rx="2.5" ry="2.5" style="stroke:#181818;stroke-width:0.5;" width="187" x="504" y="901.5273"/><text fill="#000000" font-family="sans-serif" font-size="14" lengthAdjust="spacing" textLength="173" x="511" y="923.6348">DisplayCandidateController</text><rect fill="#E2E2F0" height="32.6211" rx="2.5" ry="2.5" style="stroke:#181818;stroke-width:0.5;" width="149" x="846" y="50"/><text fill="#000000" font-family="sans-serif" font-size="14" lengthAdjust="spacing" textLength="135" x="853" y="72.1074">GetCandidateService</text><rect fill="#E2E2F0" height="32.6211" rx="2.5" ry="2.5" style="stroke:#181818;stroke-width:0.5;" width="149" x="846" y="901.5273"/><text fill="#000000" font-family="sans-serif" font-size="14" lengthAdjust="spacing" textLength="135" x="853" y="923.6348">GetCandidateService</text><rect fill="#E2E2F0" height="32.6211" rx="2.5" ry="2.5" style="stroke:#181818;stroke-width:0.5;" width="234" x="1005" y="50"/><text fill="#000000" font-family="sans-serif" font-size="14" lengthAdjust="spacing" textLength="220" x="1012" y="72.1074">JobApplicationManagementService</text><rect fill="#E2E2F0" height="32.6211" rx="2.5" ry="2.5" style="stroke:#181818;stroke-width:0.5;" width="234" x="1005" y="901.5273"/><text fill="#000000" font-family="sans-serif" font-size="14" lengthAdjust="spacing" textLength="220" x="1012" y="923.6348">JobApplicationManagementService</text><rect fill="#E2E2F0" height="32.6211" rx="2.5" ry="2.5" style="stroke:#181818;stroke-width:0.5;" width="147" x="1249" y="50"/><text fill="#000000" font-family="sans-serif" font-size="14" lengthAdjust="spacing" textLength="133" x="1256" y="72.1074">CandidateRepository</text><rect fill="#E2E2F0" height="32.6211" rx="2.5" ry="2.5" style="stroke:#181818;stroke-width:0.5;" width="147" x="1249" y="901.5273"/><text fill="#000000" font-family="sans-serif" font-size="14" lengthAdjust="spacing" textLength="133" x="1256" y="923.6348">CandidateRepository</text><rect fill="#E2E2F0" height="32.6211" rx="2.5" ry="2.5" style="stroke:#181818;stroke-width:0.5;" width="100" x="1406" y="50"/><text fill="#000000" font-family="sans-serif" font-size="14" lengthAdjust="spacing" textLength="86" x="1413" y="72.1074">WordAnalysis</text><rect fill="#E2E2F0" height="32.6211" rx="2.5" ry="2.5" style="stroke:#181818;stroke-width:0.5;" width="100" x="1406" y="901.5273"/><text fill="#000000" font-family="sans-serif" font-size="14" lengthAdjust="spacing" textLength="86" x="1413" y="923.6348">WordAnalysis</text><rect fill="#E2E2F0" height="32.6211" rx="2.5" ry="2.5" style="stroke:#181818;stroke-width:0.5;" width="212" x="1516" y="50"/><text fill="#000000" font-family="sans-serif" font-size="14" lengthAdjust="spacing" textLength="198" x="1523" y="72.1074">ApplicationManagementService</text><rect fill="#E2E2F0" height="32.6211" rx="2.5" ry="2.5" style="stroke:#181818;stroke-width:0.5;" width="212" x="1516" y="901.5273"/><text fill="#000000" font-family="sans-serif" font-size="14" lengthAdjust="spacing" textLength="198" x="1523" y="923.6348">ApplicationManagementService</text><rect fill="#E2E2F0" height="32.6211" rx="2.5" ry="2.5" style="stroke:#181818;stroke-width:0.5;" width="173" x="1779.5" y="50"/><text fill="#000000" font-family="sans-serif" font-size="14" lengthAdjust="spacing" textLength="159" x="1786.5" y="72.1074">JobApplicationRepository</text><rect fill="#E2E2F0" height="32.6211" rx="2.5" ry="2.5" style="stroke:#181818;stroke-width:0.5;" width="173" x="1779.5" y="901.5273"/><text fill="#000000" font-family="sans-serif" font-size="14" lengthAdjust="spacing" textLength="159" x="1786.5" y="923.6348">JobApplicationRepository</text><rect fill="#FFFFFF" height="23.291" style="stroke:#181818;stroke-width:1.0;" width="10" x="61.5" y="93.6211"/><rect fill="#FFFFFF" height="31.291" style="stroke:#181818;stroke-width:1.0;" width="10" x="61.5" y="648.5293"/><rect fill="#FFFFFF" height="9" style="stroke:#181818;stroke-width:1.0;" width="10" x="61.5" y="884.5273"/><rect fill="#FFFFFF" height="79.543" style="stroke:#181818;stroke-width:1.0;" width="10" x="296.5" y="116.9121"/><rect fill="#FFFFFF" height="48.582" style="stroke:#181818;stroke-width:1.0;" width="10" x="296.5" y="599.9473"/><rect fill="#FFFFFF" height="31.291" style="stroke:#181818;stroke-width:1.0;" width="10" x="296.5" y="679.8203"/><rect fill="#FFFFFF" height="31.291" style="stroke:#181818;stroke-width:1.0;" width="10" x="296.5" y="853.2363"/><rect fill="#FFFFFF" height="31.291" style="stroke:#181818;stroke-width:1.0;" width="10" x="592.5" y="196.4551"/><rect fill="#FFFFFF" height="31.291" style="stroke:#181818;stroke-width:1.0;" width="10" x="592.5" y="321.6191"/><rect fill="#FFFFFF" height="31.291" style="stroke:#181818;stroke-width:1.0;" width="10" x="592.5" y="568.6563"/><rect fill="#FFFFFF" height="31.291" style="stroke:#181818;stroke-width:1.0;" width="10" x="592.5" y="711.1113"/><rect fill="#FFFFFF" height="31.291" style="stroke:#181818;stroke-width:1.0;" width="10" x="592.5" y="821.9453"/><rect fill="#FFFFFF" height="31.291" style="stroke:#181818;stroke-width:1.0;" width="10" x="915.5" y="227.7461"/><rect fill="#FFFFFF" height="31.291" style="stroke:#181818;stroke-width:1.0;" width="10" x="915.5" y="290.3281"/><rect fill="#FFFFFF" height="31.291" style="stroke:#181818;stroke-width:1.0;" width="10" x="1317.5" y="259.0371"/><rect fill="#FFFFFF" height="79.543" style="stroke:#181818;stroke-width:1.0;" width="10" x="1451" y="742.4023"/><rect fill="#FFFFFF" height="31.291" style="stroke:#181818;stroke-width:1.0;" width="10" x="1617" y="352.9102"/><rect fill="#FFFFFF" height="153.1641" style="stroke:#181818;stroke-width:1.0;" width="10" x="1617" y="415.4922"/><rect fill="#FFFFFF" height="42.291" style="stroke:#181818;stroke-width:1.0;" width="10" x="1622" y="481.0742"/><rect fill="#FFFFFF" height="31.291" style="stroke:#181818;stroke-width:1.0;" width="10" x="1861" y="384.2012"/><polygon fill="#181818" points="284.5,112.9121,294.5,116.9121,284.5,120.9121,288.5,116.9121" style="stroke:#181818;stroke-width:1.0;"/><line style="stroke:#181818;stroke-width:1.0;" x1="66.5" x2="290.5" y1="116.9121" y2="116.9121"/><text fill="#000000" font-family="sans-serif" font-size="13" font-weight="bold" lengthAdjust="spacing" textLength="7" x="73.5" y="111.6494">1</text><text fill="#000000" font-family="sans-serif" font-size="13" lengthAdjust="spacing" textLength="4" x="84.5" y="111.6494">&#160;</text><rect fill="none" height="43.252" style="stroke:#000000;stroke-width:1.5;" width="143" x="230" y="124.9121"/><path d="M230,124.9121 L292,124.9121 L292,133.9121 L282,143.9121 L230,143.9121 L230,124.9121 " fill="#EEEEEE" style="stroke:#000000;stroke-width:2.0;"/><text fill="#000000" font-family="sans-serif" font-size="13" font-weight="bold" lengthAdjust="spacing" textLength="17" x="243" y="140.9404">ref</text><text fill="#000000" font-family="sans-serif" font-size="12" lengthAdjust="spacing" textLength="46" x="278.5" y="160.8613">us-1006</text><polygon fill="#181818" points="580.5,192.4551,590.5,196.4551,580.5,200.4551,584.5,196.4551" style="stroke:#181818;stroke-width:1.0;"/><line style="stroke:#181818;stroke-width:1.0;" x1="301.5" x2="586.5" y1="196.4551" y2="196.4551"/><text fill="#000000" font-family="sans-serif" font-size="13" font-weight="bold" lengthAdjust="spacing" textLength="7" x="308.5" y="191.1924">2</text><text fill="#000000" font-family="sans-serif" font-size="13" lengthAdjust="spacing" textLength="256" x="319.5" y="191.1924">getCandidateApplications(candidateNumber)</text><polygon fill="#181818" points="903.5,223.7461,913.5,227.7461,903.5,231.7461,907.5,227.7461" style="stroke:#181818;stroke-width:1.0;"/><line style="stroke:#181818;stroke-width:1.0;" x1="597.5" x2="909.5" y1="227.7461" y2="227.7461"/><text fill="#000000" font-family="sans-serif" font-size="13" font-weight="bold" lengthAdjust="spacing" textLength="7" x="604.5" y="222.4834">3</text><text fill="#000000" font-family="sans-serif" font-size="13" lengthAdjust="spacing" textLength="283" x="615.5" y="222.4834">getCandidateByPhoneNumber(candidateNumber)</text><polygon fill="#181818" points="1305.5,255.0371,1315.5,259.0371,1305.5,263.0371,1309.5,259.0371" style="stroke:#181818;stroke-width:1.0;"/><line style="stroke:#181818;stroke-width:1.0;" x1="920.5" x2="1311.5" y1="259.0371" y2="259.0371"/><text fill="#000000" font-family="sans-serif" font-size="13" font-weight="bold" lengthAdjust="spacing" textLength="7" x="927.5" y="253.7744">4</text><text fill="#000000" font-family="sans-serif" font-size="13" lengthAdjust="spacing" textLength="161" x="938.5" y="253.7744">ofIdentity(candidateNumber)</text><polygon fill="#181818" points="936.5,286.3281,926.5,290.3281,936.5,294.3281,932.5,290.3281" style="stroke:#181818;stroke-width:1.0;"/><line style="stroke:#181818;stroke-width:1.0;stroke-dasharray:2.0,2.0;" x1="930.5" x2="1321.5" y1="290.3281" y2="290.3281"/><text fill="#000000" font-family="sans-serif" font-size="13" font-weight="bold" lengthAdjust="spacing" textLength="7" x="942.5" y="285.0654">5</text><text fill="#000000" font-family="sans-serif" font-size="13" lengthAdjust="spacing" textLength="56" x="953.5" y="285.0654">candidate</text><polygon fill="#181818" points="613.5,317.6191,603.5,321.6191,613.5,325.6191,609.5,321.6191" style="stroke:#181818;stroke-width:1.0;"/><line style="stroke:#181818;stroke-width:1.0;stroke-dasharray:2.0,2.0;" x1="607.5" x2="919.5" y1="321.6191" y2="321.6191"/><text fill="#000000" font-family="sans-serif" font-size="13" font-weight="bold" lengthAdjust="spacing" textLength="7" x="619.5" y="316.3564">6</text><text fill="#000000" font-family="sans-serif" font-size="13" lengthAdjust="spacing" textLength="56" x="630.5" y="316.3564">candidate</text><polygon fill="#181818" points="1605,348.9102,1615,352.9102,1605,356.9102,1609,352.9102" style="stroke:#181818;stroke-width:1.0;"/><line style="stroke:#181818;stroke-width:1.0;" x1="597.5" x2="1611" y1="352.9102" y2="352.9102"/><text fill="#000000" font-family="sans-serif" font-size="13" font-weight="bold" lengthAdjust="spacing" textLength="7" x="604.5" y="347.6475">7</text><text fill="#000000" font-family="sans-serif" font-size="13" lengthAdjust="spacing" textLength="204" x="615.5" y="347.6475">applicationsOfCandidate(candidate)</text><polygon fill="#181818" points="1849,380.2012,1859,384.2012,1849,388.2012,1853,384.2012" style="stroke:#181818;stroke-width:1.0;"/><line style="stroke:#181818;stroke-width:1.0;" x1="1622" x2="1855" y1="384.2012" y2="384.2012"/><text fill="#000000" font-family="sans-serif" font-size="13" font-weight="bold" lengthAdjust="spacing" textLength="7" x="1629" y="378.9385">8</text><text fill="#000000" font-family="sans-serif" font-size="13" lengthAdjust="spacing" textLength="204" x="1640" y="378.9385">applicationsOfCandidate(candidate)</text><polygon fill="#181818" points="1638,411.4922,1628,415.4922,1638,419.4922,1634,415.4922" style="stroke:#181818;stroke-width:1.0;"/><line style="stroke:#181818;stroke-width:1.0;stroke-dasharray:2.0,2.0;" x1="1632" x2="1865" y1="415.4922" y2="415.4922"/><text fill="#000000" font-family="sans-serif" font-size="13" font-weight="bold" lengthAdjust="spacing" textLength="7" x="1644" y="410.2295">9</text><text fill="#000000" font-family="sans-serif" font-size="13" lengthAdjust="spacing" textLength="69" x="1655" y="410.2295">applications</text><path d="M1506,430.4922 L1579,430.4922 L1579,439.7832 L1569,449.7832 L1506,449.7832 L1506,430.4922 " fill="#EEEEEE" style="stroke:#000000;stroke-width:1.5;"/><rect fill="none" height="107.873" style="stroke:#000000;stroke-width:1.5;" width="251" x="1506" y="430.4922"/><text fill="#000000" font-family="sans-serif" font-size="13" font-weight="bold" lengthAdjust="spacing" textLength="28" x="1521" y="445.5205">loop</text><text fill="#000000" font-family="sans-serif" font-size="11" font-weight="bold" lengthAdjust="spacing" textLength="115" x="1594" y="444.3623">[for each application]</text><line style="stroke:#181818;stroke-width:1.0;" x1="1627" x2="1674" y1="468.0742" y2="468.0742"/><line style="stroke:#181818;stroke-width:1.0;" x1="1674" x2="1674" y1="468.0742" y2="481.0742"/><line style="stroke:#181818;stroke-width:1.0;" x1="1633" x2="1674" y1="481.0742" y2="481.0742"/><polygon fill="#181818" points="1643,477.0742,1633,481.0742,1643,485.0742,1639,481.0742" style="stroke:#181818;stroke-width:1.0;"/><text fill="#000000" font-family="sans-serif" font-size="13" font-weight="bold" lengthAdjust="spacing" textLength="14" x="1639" y="462.8115">10</text><text fill="#000000" font-family="sans-serif" font-size="13" lengthAdjust="spacing" textLength="45" x="1657" y="462.8115">toDTO()</text><line style="stroke:#181818;stroke-width:1.0;stroke-dasharray:2.0,2.0;" x1="1632" x2="1674" y1="522.3652" y2="522.3652"/><line style="stroke:#181818;stroke-width:1.0;stroke-dasharray:2.0,2.0;" x1="1674" x2="1674" y1="522.3652" y2="535.3652"/><line style="stroke:#181818;stroke-width:1.0;stroke-dasharray:2.0,2.0;" x1="1627" x2="1674" y1="535.3652" y2="535.3652"/><polygon fill="#181818" points="1637,531.3652,1627,535.3652,1637,539.3652,1633,535.3652" style="stroke:#181818;stroke-width:1.0;"/><text fill="#000000" font-family="sans-serif" font-size="13" font-weight="bold" lengthAdjust="spacing" textLength="14" x="1639" y="517.1025">11</text><text fill="#000000" font-family="sans-serif" font-size="13" lengthAdjust="spacing" textLength="88" x="1657" y="517.1025">applicationDTO</text><polygon fill="#181818" points="613.5,564.6563,603.5,568.6563,613.5,572.6563,609.5,568.6563" style="stroke:#181818;stroke-width:1.0;"/><line style="stroke:#181818;stroke-width:1.0;stroke-dasharray:2.0,2.0;" x1="607.5" x2="1621" y1="568.6563" y2="568.6563"/><text fill="#000000" font-family="sans-serif" font-size="13" font-weight="bold" lengthAdjust="spacing" textLength="14" x="619.5" y="563.3936">12</text><text fill="#000000" font-family="sans-serif" font-size="13" lengthAdjust="spacing" textLength="95" x="637.5" y="563.3936">applicationDTOs</text><polygon fill="#181818" points="317.5,595.9473,307.5,599.9473,317.5,603.9473,313.5,599.9473" style="stroke:#181818;stroke-width:1.0;"/><line style="stroke:#181818;stroke-width:1.0;stroke-dasharray:2.0,2.0;" x1="311.5" x2="596.5" y1="599.9473" y2="599.9473"/><text fill="#000000" font-family="sans-serif" font-size="13" font-weight="bold" lengthAdjust="spacing" textLength="14" x="323.5" y="594.6846">13</text><text fill="#000000" font-family="sans-serif" font-size="13" lengthAdjust="spacing" textLength="95" x="341.5" y="594.6846">applicationDTOs</text><polygon fill="#181818" points="82.5,644.5293,72.5,648.5293,82.5,652.5293,78.5,648.5293" style="stroke:#181818;stroke-width:1.0;"/><line style="stroke:#181818;stroke-width:1.0;stroke-dasharray:2.0,2.0;" x1="76.5" x2="300.5" y1="648.5293" y2="648.5293"/><text fill="#000000" font-family="sans-serif" font-size="13" font-weight="bold" lengthAdjust="spacing" textLength="14" x="88.5" y="634.6211">14</text><text fill="#000000" font-family="sans-serif" font-size="13" lengthAdjust="spacing" textLength="175" x="106.5" y="625.9756">displays candidate information</text><text fill="#000000" font-family="sans-serif" font-size="13" lengthAdjust="spacing" textLength="123" x="110.5" y="643.2666">and their applications</text><polygon fill="#181818" points="284.5,675.8203,294.5,679.8203,284.5,683.8203,288.5,679.8203" style="stroke:#181818;stroke-width:1.0;"/><line style="stroke:#181818;stroke-width:1.0;" x1="66.5" x2="290.5" y1="679.8203" y2="679.8203"/><text fill="#000000" font-family="sans-serif" font-size="13" font-weight="bold" lengthAdjust="spacing" textLength="14" x="73.5" y="674.5576">15</text><text fill="#000000" font-family="sans-serif" font-size="13" lengthAdjust="spacing" textLength="108" x="91.5" y="674.5576">selects application</text><polygon fill="#181818" points="580.5,707.1113,590.5,711.1113,580.5,715.1113,584.5,711.1113" style="stroke:#181818;stroke-width:1.0;"/><line style="stroke:#181818;stroke-width:1.0;" x1="301.5" x2="586.5" y1="711.1113" y2="711.1113"/><text fill="#000000" font-family="sans-serif" font-size="13" font-weight="bold" lengthAdjust="spacing" textLength="14" x="308.5" y="705.8486">16</text><text fill="#000000" font-family="sans-serif" font-size="13" lengthAdjust="spacing" textLength="153" x="326.5" y="705.8486">getWordCount(application)</text><polygon fill="#181818" points="1439,738.4023,1449,742.4023,1439,746.4023,1443,742.4023" style="stroke:#181818;stroke-width:1.0;"/><line style="stroke:#181818;stroke-width:1.0;" x1="597.5" x2="1445" y1="742.4023" y2="742.4023"/><text fill="#000000" font-family="sans-serif" font-size="13" font-weight="bold" lengthAdjust="spacing" textLength="14" x="604.5" y="737.1396">17</text><text fill="#000000" font-family="sans-serif" font-size="13" lengthAdjust="spacing" textLength="101" x="622.5" y="737.1396">countWords(files)</text><rect fill="none" height="43.252" style="stroke:#000000;stroke-width:1.5;" width="136" x="1403" y="750.4023"/><path d="M1403,750.4023 L1465,750.4023 L1465,759.4023 L1455,769.4023 L1403,769.4023 L1403,750.4023 " fill="#EEEEEE" style="stroke:#000000;stroke-width:2.0;"/><text fill="#000000" font-family="sans-serif" font-size="13" font-weight="bold" lengthAdjust="spacing" textLength="17" x="1416" y="766.4307">ref</text><text fill="#000000" font-family="sans-serif" font-size="12" lengthAdjust="spacing" textLength="128" x="1407" y="786.3516">see "SD-WordAnalysis"</text><polygon fill="#181818" points="613.5,817.9453,603.5,821.9453,613.5,825.9453,609.5,821.9453" style="stroke:#181818;stroke-width:1.0;"/><line style="stroke:#181818;stroke-width:1.0;stroke-dasharray:2.0,2.0;" x1="607.5" x2="1455" y1="821.9453" y2="821.9453"/><text fill="#000000" font-family="sans-serif" font-size="13" font-weight="bold" lengthAdjust="spacing" textLength="14" x="619.5" y="816.6826">18</text><text fill="#000000" font-family="sans-serif" font-size="13" lengthAdjust="spacing" textLength="121" x="637.5" y="816.6826">wordAnalysisResults</text><polygon fill="#181818" points="317.5,849.2363,307.5,853.2363,317.5,857.2363,313.5,853.2363" style="stroke:#181818;stroke-width:1.0;"/><line style="stroke:#181818;stroke-width:1.0;stroke-dasharray:2.0,2.0;" x1="311.5" x2="596.5" y1="853.2363" y2="853.2363"/><text fill="#000000" font-family="sans-serif" font-size="13" font-weight="bold" lengthAdjust="spacing" textLength="14" x="323.5" y="847.9736">19</text><text fill="#000000" font-family="sans-serif" font-size="13" lengthAdjust="spacing" textLength="121" x="341.5" y="847.9736">wordAnalysisResults</text><polygon fill="#181818" points="82.5,880.5273,72.5,884.5273,82.5,888.5273,78.5,884.5273" style="stroke:#181818;stroke-width:1.0;"/><line style="stroke:#181818;stroke-width:1.0;stroke-dasharray:2.0,2.0;" x1="76.5" x2="300.5" y1="884.5273" y2="884.5273"/><text fill="#000000" font-family="sans-serif" font-size="13" font-weight="bold" lengthAdjust="spacing" textLength="14" x="88.5" y="879.2646">20</text><text fill="#000000" font-family="sans-serif" font-size="13" lengthAdjust="spacing" textLength="188" x="106.5" y="879.2646">displays results of word analysis</text><!--SRC=[hPN1Rjim38RlUWgXboK7BzrbXnm6T0amTC3MeTcmoowgJIS2PCcJv1H- -r6IQqjkhI30VB9iyXFraoBVdQnjpNQpQGMJjcl4-r8r6mD_Ev0b51LdHyqQGbXdbUoQ9z3uNbgbwQupLZMWlp79Zg0fCzJ_82tJbfUyHHxTSuFWViTanIjcuTUzi-jurcYdfDLAY00jhHQ9-HUme-a1z9cNuEsOF9pBnFAhUhfhMy5BPhcI8T06f8syMDlElKRu8xJAS3nIF_3TXyJqjzBLdMIYDzmucsTSUttu6Vq7FO9SnITtR0qrLMSy6BvJV3fJVBYz_KX0LXJ_4K8gUEqUbkX2Ekv0JXAwfST8YEYSPbM-VFtkCxQEe1FEwqeyoY6zUZFev_x7ISc1agC6sBGAgHYOWUwqGxogxolC0BTzdXS8yTgB_m8guf17q8pWFPQ2ccHSSay3y6fDUcNhQklAQap7GpqAEfqveruEJRBxObnfoKSLV6rCsIX6gwNjo68SnNNYlLcwsTY8KAgbDLuvz3p5i8lYNOZBgltFXzNwlsJgAXLmsrW7totSAUDyBMRYOXp3DKZtCzVNWg_YS3zyiyioaxRckXgwX4QvfLMO1sQwcPHBJ6ZZGNyanS_Kde3hj5JYa96wt8Pn3mC2IckIyiYstdddTQr_fpffLn5YlHJ2l7suGU5QZmCuabdLN81PJmF2Zn8t8Wm0lJdiYtZMt8m3uor5mnJoMqJvVOxy7y5qmYOvzawvN5xmJtjO9gaw-E8a22gmWPdF7Zx_0000]--></g></svg>