<?xml version="1.0" encoding="us-ascii" standalone="no"?><svg xmlns="http://www.w3.org/2000/svg" xmlns:xlink="http://www.w3.org/1999/xlink" contentStyleType="text/css" height="818px" preserveAspectRatio="none" style="width:890px;height:818px;background:#FFFFFF;" version="1.1" viewBox="0 0 890 818" width="890px" zoomAndPan="magnify"><defs/><g><!--cluster UserAggregate--><g id="cluster_UserAggregate"><path d="M8.5,6.0137 L115.5,6.0137 A3.75,3.75 0 0 1 118,8.5137 L125,30.6348 L636.5,30.6348 A2.5,2.5 0 0 1 639,33.1348 L639,808.5137 A2.5,2.5 0 0 1 636.5,811.0137 L8.5,811.0137 A2.5,2.5 0 0 1 6,808.5137 L6,8.5137 A2.5,2.5 0 0 1 8.5,6.0137 " fill="none" style="stroke:#000000;stroke-width:1.5;"/><line style="stroke:#000000;stroke-width:1.5;" x1="6" x2="125" y1="30.6348" y2="30.6348"/><text fill="#000000" font-family="sans-serif" font-size="14" font-weight="bold" lengthAdjust="spacing" textLength="106" x="10" y="23.1211">UserAggregate</text></g><!--cluster CandidateAggregate--><g id="cluster_CandidateAggregate"><path d="M665.5,157.0137 L810.5,157.0137 A3.75,3.75 0 0 1 813,159.5137 L820,181.6348 L880.5,181.6348 A2.5,2.5 0 0 1 883,184.1348 L883,414.5137 A2.5,2.5 0 0 1 880.5,417.0137 L665.5,417.0137 A2.5,2.5 0 0 1 663,414.5137 L663,159.5137 A2.5,2.5 0 0 1 665.5,157.0137 " fill="none" style="stroke:#000000;stroke-width:1.5;"/><line style="stroke:#000000;stroke-width:1.5;" x1="663" x2="820" y1="181.6348" y2="181.6348"/><text fill="#000000" font-family="sans-serif" font-size="14" font-weight="bold" lengthAdjust="spacing" textLength="144" x="667" y="174.1211">CandidateAggregate</text></g><!--class Operator--><g id="elem_Operator"><rect codeLine="5" fill="#F1F1F1" height="66.6211" id="Operator" rx="2.5" ry="2.5" style="stroke:#181818;stroke-width:0.5;" width="89" x="466.5" y="43.0137"/><ellipse cx="481.5" cy="59.0137" fill="#ADD1B2" rx="11" ry="11" style="stroke:#181818;stroke-width:1.0;"/><path d="M480.3594,59.8105 L480.3594,62.3105 L484.6875,62.3105 L484.6875,61.3887 Q484.6875,60.7793 484.9219,60.5137 Q485.1719,60.248 485.5469,60.248 Q485.9219,60.248 486.1563,60.5137 Q486.3906,60.7793 486.3906,61.3887 L486.3906,64.0137 L478.3906,64.0137 Q477.7656,64.0137 477.5,63.7793 Q477.25,63.5449 477.25,63.1543 Q477.25,62.7793 477.5156,62.5449 Q477.7813,62.3105 478.3906,62.3105 L478.6563,62.3105 L478.6563,55.6543 L478.3906,55.6543 Q477.7656,55.6543 477.5,55.4199 Q477.25,55.1855 477.25,54.7949 Q477.25,54.4199 477.5,54.1855 Q477.7656,53.9512 478.3906,53.9512 L486.0156,53.9512 L486.0156,56.5449 Q486.0156,57.1543 485.7813,57.4199 Q485.5625,57.6699 485.1719,57.6699 Q484.7969,57.6699 484.5625,57.4199 Q484.3281,57.1543 484.3281,56.5449 L484.3281,55.6543 L480.3594,55.6543 L480.3594,58.1074 L481.8438,58.1074 Q481.8438,57.4512 481.9688,57.2637 Q482.2344,56.8574 482.7031,56.8574 Q483.0781,56.8574 483.3125,57.123 Q483.5469,57.373 483.5469,57.9824 L483.5469,59.9512 Q483.5469,60.498 483.4219,60.6855 Q483.1563,61.0762 482.7031,61.0762 Q482.2344,61.0762 481.9688,60.6699 Q481.8438,60.4824 481.8438,59.8105 L480.3594,59.8105 Z " fill="#000000"/><text fill="#000000" font-family="sans-serif" font-size="14" lengthAdjust="spacing" textLength="57" x="495.5" y="64.8105">Operator</text><line style="stroke:#181818;stroke-width:0.5;" x1="467.5" x2="554.5" y1="75.0137" y2="75.0137"/><text fill="#000000" font-family="sans-serif" font-size="14" lengthAdjust="spacing" textLength="50" x="472.5" y="94.1211">&#171;entity&#187;</text><line style="stroke:#181818;stroke-width:0.5;" x1="467.5" x2="554.5" y1="101.6348" y2="101.6348"/></g><!--class EmailAddress--><g id="elem_EmailAddress"><rect codeLine="8" fill="#F1F1F1" height="60.582" id="EmailAddress" rx="2.5" ry="2.5" style="stroke:#181818;stroke-width:0.5;" width="162" x="22" y="734.0137"/><ellipse cx="37" cy="756.3047" fill="#F09000" rx="11" ry="11" style="stroke:#181818;stroke-width:1.0;"/><path d="M37.5938,759.5703 L40.0625,753.6953 L39.6719,753.6953 Q39.0625,753.6953 38.7969,753.4609 Q38.5313,753.2266 38.5313,752.8359 Q38.5313,752.4609 38.7969,752.2266 Q39.0625,751.9922 39.6719,751.9922 L41.9531,751.9922 Q42.5625,751.9922 42.8281,752.2266 Q43.0938,752.4609 43.0938,752.8359 Q43.0938,753.3047 42.6875,753.5703 Q42.5,753.6953 41.9063,753.6953 L38.4219,762.0547 L36.7813,762.0547 L33.2969,753.6953 Q32.7031,753.6953 32.5156,753.5703 Q32.1094,753.3047 32.1094,752.8359 Q32.1094,752.4609 32.375,752.2266 Q32.6406,751.9922 33.25,751.9922 L35.5469,751.9922 Q36.1563,751.9922 36.4063,752.2266 Q36.6719,752.4609 36.6719,752.8359 Q36.6719,753.2266 36.4063,753.4609 Q36.1563,753.6953 35.5469,753.6953 L35.1406,753.6953 L37.5938,759.5703 Z " fill="#000000"/><text fill="#000000" font-family="sans-serif" font-size="12" font-style="italic" lengthAdjust="spacing" textLength="134" x="49" y="751.9629">&#171;Identifier value Object&#187;</text><text fill="#000000" font-family="sans-serif" font-size="14" lengthAdjust="spacing" textLength="86" x="73" y="770.082">EmailAddress</text><line style="stroke:#181818;stroke-width:0.5;" x1="23" x2="183" y1="778.5957" y2="778.5957"/><line style="stroke:#181818;stroke-width:0.5;" x1="23" x2="183" y1="786.5957" y2="786.5957"/></g><!--class User--><g id="elem_User"><rect codeLine="9" fill="#F1F1F1" height="66.6211" id="User" rx="2.5" ry="2.5" style="stroke:#181818;stroke-width:0.5;" width="91" x="399.5" y="464.0137"/><ellipse cx="428" cy="480.0137" fill="#ADD1B2" rx="11" ry="11" style="stroke:#181818;stroke-width:1.0;"/><path d="M426.8594,480.8105 L426.8594,483.3105 L431.1875,483.3105 L431.1875,482.3887 Q431.1875,481.7793 431.4219,481.5137 Q431.6719,481.248 432.0469,481.248 Q432.4219,481.248 432.6563,481.5137 Q432.8906,481.7793 432.8906,482.3887 L432.8906,485.0137 L424.8906,485.0137 Q424.2656,485.0137 424,484.7793 Q423.75,484.5449 423.75,484.1543 Q423.75,483.7793 424.0156,483.5449 Q424.2813,483.3105 424.8906,483.3105 L425.1563,483.3105 L425.1563,476.6543 L424.8906,476.6543 Q424.2656,476.6543 424,476.4199 Q423.75,476.1855 423.75,475.7949 Q423.75,475.4199 424,475.1855 Q424.2656,474.9512 424.8906,474.9512 L432.5156,474.9512 L432.5156,477.5449 Q432.5156,478.1543 432.2813,478.4199 Q432.0625,478.6699 431.6719,478.6699 Q431.2969,478.6699 431.0625,478.4199 Q430.8281,478.1543 430.8281,477.5449 L430.8281,476.6543 L426.8594,476.6543 L426.8594,479.1074 L428.3438,479.1074 Q428.3438,478.4512 428.4688,478.2637 Q428.7344,477.8574 429.2031,477.8574 Q429.5781,477.8574 429.8125,478.123 Q430.0469,478.373 430.0469,478.9824 L430.0469,480.9512 Q430.0469,481.498 429.9219,481.6855 Q429.6563,482.0762 429.2031,482.0762 Q428.7344,482.0762 428.4688,481.6699 Q428.3438,481.4824 428.3438,480.8105 L426.8594,480.8105 Z " fill="#000000"/><text fill="#000000" font-family="sans-serif" font-size="14" lengthAdjust="spacing" textLength="29" x="445" y="485.8105">User</text><line style="stroke:#181818;stroke-width:0.5;" x1="400.5" x2="489.5" y1="496.0137" y2="496.0137"/><text fill="#000000" font-family="sans-serif" font-size="14" lengthAdjust="spacing" textLength="79" x="405.5" y="515.1211">&#171;root entity&#187;</text><line style="stroke:#181818;stroke-width:0.5;" x1="400.5" x2="489.5" y1="522.6348" y2="522.6348"/></g><!--class Password--><g id="elem_Password"><rect codeLine="13" fill="#F1F1F1" height="60.582" id="Password" rx="2.5" ry="2.5" style="stroke:#181818;stroke-width:0.5;" width="111" x="219.5" y="734.0137"/><ellipse cx="234.5" cy="756.3047" fill="#F04800" rx="11" ry="11" style="stroke:#181818;stroke-width:1.0;"/><path d="M235.0938,759.5703 L237.5625,753.6953 L237.1719,753.6953 Q236.5625,753.6953 236.2969,753.4609 Q236.0313,753.2266 236.0313,752.8359 Q236.0313,752.4609 236.2969,752.2266 Q236.5625,751.9922 237.1719,751.9922 L239.4531,751.9922 Q240.0625,751.9922 240.3281,752.2266 Q240.5938,752.4609 240.5938,752.8359 Q240.5938,753.3047 240.1875,753.5703 Q240,753.6953 239.4063,753.6953 L235.9219,762.0547 L234.2813,762.0547 L230.7969,753.6953 Q230.2031,753.6953 230.0156,753.5703 Q229.6094,753.3047 229.6094,752.8359 Q229.6094,752.4609 229.875,752.2266 Q230.1406,751.9922 230.75,751.9922 L233.0469,751.9922 Q233.6563,751.9922 233.9063,752.2266 Q234.1719,752.4609 234.1719,752.8359 Q234.1719,753.2266 233.9063,753.4609 Q233.6563,753.6953 233.0469,753.6953 L232.6406,753.6953 L235.0938,759.5703 Z " fill="#000000"/><text fill="#000000" font-family="sans-serif" font-size="12" font-style="italic" lengthAdjust="spacing" textLength="83" x="246.5" y="751.9629">&#171;value Object&#187;</text><text fill="#000000" font-family="sans-serif" font-size="14" lengthAdjust="spacing" textLength="61" x="257.5" y="770.082">Password</text><line style="stroke:#181818;stroke-width:0.5;" x1="220.5" x2="329.5" y1="778.5957" y2="778.5957"/><line style="stroke:#181818;stroke-width:0.5;" x1="220.5" x2="329.5" y1="786.5957" y2="786.5957"/></g><!--class Role--><g id="elem_Role"><rect codeLine="16" fill="#F1F1F1" height="60.582" id="Role" rx="2.5" ry="2.5" style="stroke:#181818;stroke-width:0.5;" width="111" x="365.5" y="734.0137"/><ellipse cx="380.5" cy="756.3047" fill="#F04800" rx="11" ry="11" style="stroke:#181818;stroke-width:1.0;"/><path d="M381.0938,759.5703 L383.5625,753.6953 L383.1719,753.6953 Q382.5625,753.6953 382.2969,753.4609 Q382.0313,753.2266 382.0313,752.8359 Q382.0313,752.4609 382.2969,752.2266 Q382.5625,751.9922 383.1719,751.9922 L385.4531,751.9922 Q386.0625,751.9922 386.3281,752.2266 Q386.5938,752.4609 386.5938,752.8359 Q386.5938,753.3047 386.1875,753.5703 Q386,753.6953 385.4063,753.6953 L381.9219,762.0547 L380.2813,762.0547 L376.7969,753.6953 Q376.2031,753.6953 376.0156,753.5703 Q375.6094,753.3047 375.6094,752.8359 Q375.6094,752.4609 375.875,752.2266 Q376.1406,751.9922 376.75,751.9922 L379.0469,751.9922 Q379.6563,751.9922 379.9063,752.2266 Q380.1719,752.4609 380.1719,752.8359 Q380.1719,753.2266 379.9063,753.4609 Q379.6563,753.6953 379.0469,753.6953 L378.6406,753.6953 L381.0938,759.5703 Z " fill="#000000"/><text fill="#000000" font-family="sans-serif" font-size="12" font-style="italic" lengthAdjust="spacing" textLength="83" x="392.5" y="751.9629">&#171;value Object&#187;</text><text fill="#000000" font-family="sans-serif" font-size="14" lengthAdjust="spacing" textLength="29" x="419.5" y="770.082">Role</text><line style="stroke:#181818;stroke-width:0.5;" x1="366.5" x2="475.5" y1="778.5957" y2="778.5957"/><line style="stroke:#181818;stroke-width:0.5;" x1="366.5" x2="475.5" y1="786.5957" y2="786.5957"/></g><!--class Name--><g id="elem_Name"><rect codeLine="19" fill="#F1F1F1" height="60.582" id="Name" rx="2.5" ry="2.5" style="stroke:#181818;stroke-width:0.5;" width="111" x="511.5" y="734.0137"/><ellipse cx="526.5" cy="756.3047" fill="#F04800" rx="11" ry="11" style="stroke:#181818;stroke-width:1.0;"/><path d="M527.0938,759.5703 L529.5625,753.6953 L529.1719,753.6953 Q528.5625,753.6953 528.2969,753.4609 Q528.0313,753.2266 528.0313,752.8359 Q528.0313,752.4609 528.2969,752.2266 Q528.5625,751.9922 529.1719,751.9922 L531.4531,751.9922 Q532.0625,751.9922 532.3281,752.2266 Q532.5938,752.4609 532.5938,752.8359 Q532.5938,753.3047 532.1875,753.5703 Q532,753.6953 531.4063,753.6953 L527.9219,762.0547 L526.2813,762.0547 L522.7969,753.6953 Q522.2031,753.6953 522.0156,753.5703 Q521.6094,753.3047 521.6094,752.8359 Q521.6094,752.4609 521.875,752.2266 Q522.1406,751.9922 522.75,751.9922 L525.0469,751.9922 Q525.6563,751.9922 525.9063,752.2266 Q526.1719,752.4609 526.1719,752.8359 Q526.1719,753.2266 525.9063,753.4609 Q525.6563,753.6953 525.0469,753.6953 L524.6406,753.6953 L527.0938,759.5703 Z " fill="#000000"/><text fill="#000000" font-family="sans-serif" font-size="12" font-style="italic" lengthAdjust="spacing" textLength="83" x="538.5" y="751.9629">&#171;value Object&#187;</text><text fill="#000000" font-family="sans-serif" font-size="14" lengthAdjust="spacing" textLength="36" x="562" y="770.082">Name</text><line style="stroke:#181818;stroke-width:0.5;" x1="512.5" x2="621.5" y1="778.5957" y2="778.5957"/><line style="stroke:#181818;stroke-width:0.5;" x1="512.5" x2="621.5" y1="786.5957" y2="786.5957"/></g><!--class Candidate--><g id="elem_Candidate"><rect codeLine="26" fill="#F1F1F1" height="66.6211" id="Candidate" rx="2.5" ry="2.5" style="stroke:#181818;stroke-width:0.5;" width="97" x="679.5" y="334.0137"/><ellipse cx="694.5" cy="350.0137" fill="#ADD1B2" rx="11" ry="11" style="stroke:#181818;stroke-width:1.0;"/><path d="M693.3594,350.8105 L693.3594,353.3105 L697.6875,353.3105 L697.6875,352.3887 Q697.6875,351.7793 697.9219,351.5137 Q698.1719,351.248 698.5469,351.248 Q698.9219,351.248 699.1563,351.5137 Q699.3906,351.7793 699.3906,352.3887 L699.3906,355.0137 L691.3906,355.0137 Q690.7656,355.0137 690.5,354.7793 Q690.25,354.5449 690.25,354.1543 Q690.25,353.7793 690.5156,353.5449 Q690.7813,353.3105 691.3906,353.3105 L691.6563,353.3105 L691.6563,346.6543 L691.3906,346.6543 Q690.7656,346.6543 690.5,346.4199 Q690.25,346.1855 690.25,345.7949 Q690.25,345.4199 690.5,345.1855 Q690.7656,344.9512 691.3906,344.9512 L699.0156,344.9512 L699.0156,347.5449 Q699.0156,348.1543 698.7813,348.4199 Q698.5625,348.6699 698.1719,348.6699 Q697.7969,348.6699 697.5625,348.4199 Q697.3281,348.1543 697.3281,347.5449 L697.3281,346.6543 L693.3594,346.6543 L693.3594,349.1074 L694.8438,349.1074 Q694.8438,348.4512 694.9688,348.2637 Q695.2344,347.8574 695.7031,347.8574 Q696.0781,347.8574 696.3125,348.123 Q696.5469,348.373 696.5469,348.9824 L696.5469,350.9512 Q696.5469,351.498 696.4219,351.6855 Q696.1563,352.0762 695.7031,352.0762 Q695.2344,352.0762 694.9688,351.6699 Q694.8438,351.4824 694.8438,350.8105 L693.3594,350.8105 Z " fill="#000000"/><text fill="#000000" font-family="sans-serif" font-size="14" lengthAdjust="spacing" textLength="65" x="708.5" y="355.8105">Candidate</text><line style="stroke:#181818;stroke-width:0.5;" x1="680.5" x2="775.5" y1="366.0137" y2="366.0137"/><text fill="#000000" font-family="sans-serif" font-size="14" lengthAdjust="spacing" textLength="79" x="685.5" y="385.1211">&#171;root entity&#187;</text><line style="stroke:#181818;stroke-width:0.5;" x1="680.5" x2="775.5" y1="392.6348" y2="392.6348"/></g><!--class CandidatePhoneNumber--><g id="elem_CandidatePhoneNumber"><rect codeLine="29" fill="#F1F1F1" height="60.582" id="CandidatePhoneNumber" rx="2.5" ry="2.5" style="stroke:#181818;stroke-width:0.5;" width="187" x="679.5" y="194.0137"/><ellipse cx="694.5" cy="216.3047" fill="#F09000" rx="11" ry="11" style="stroke:#181818;stroke-width:1.0;"/><path d="M695.0938,219.5703 L697.5625,213.6953 L697.1719,213.6953 Q696.5625,213.6953 696.2969,213.4609 Q696.0313,213.2266 696.0313,212.8359 Q696.0313,212.4609 696.2969,212.2266 Q696.5625,211.9922 697.1719,211.9922 L699.4531,211.9922 Q700.0625,211.9922 700.3281,212.2266 Q700.5938,212.4609 700.5938,212.8359 Q700.5938,213.3047 700.1875,213.5703 Q700,213.6953 699.4063,213.6953 L695.9219,222.0547 L694.2813,222.0547 L690.7969,213.6953 Q690.2031,213.6953 690.0156,213.5703 Q689.6094,213.3047 689.6094,212.8359 Q689.6094,212.4609 689.875,212.2266 Q690.1406,211.9922 690.75,211.9922 L693.0469,211.9922 Q693.6563,211.9922 693.9063,212.2266 Q694.1719,212.4609 694.1719,212.8359 Q694.1719,213.2266 693.9063,213.4609 Q693.6563,213.6953 693.0469,213.6953 L692.6406,213.6953 L695.0938,219.5703 Z " fill="#000000"/><text fill="#000000" font-family="sans-serif" font-size="12" font-style="italic" lengthAdjust="spacing" textLength="126" x="723" y="211.9629">&#171;Identity value Object&#187;</text><text fill="#000000" font-family="sans-serif" font-size="14" lengthAdjust="spacing" textLength="155" x="708.5" y="230.082">CandidatePhoneNumber</text><line style="stroke:#181818;stroke-width:0.5;" x1="680.5" x2="865.5" y1="238.5957" y2="238.5957"/><line style="stroke:#181818;stroke-width:0.5;" x1="680.5" x2="865.5" y1="246.5957" y2="246.5957"/></g><!--link CandidatePhoneNumber to Candidate--><g id="link_CandidatePhoneNumber_Candidate"><path codeLine="33" d="M763.57,255.0737 C756.22,278.0837 746.03,310.0137 738.44,333.7937 " fill="none" id="CandidatePhoneNumber-Candidate" style="stroke:#181818;stroke-width:1.0;stroke-dasharray:7.0,7.0;"/><polygon fill="#000000" points="756.4794,299.4224,762.0299,291.6995,756.4304,289.9119,756.4794,299.4224" style="stroke:#000000;stroke-width:1.0;"/><text fill="#000000" font-family="sans-serif" font-size="13" lengthAdjust="spacing" textLength="51" x="767" y="300.042">identifies</text></g><!--link Operator to Candidate--><g id="link_Operator_Candidate"><path codeLine="34" d="M522.15,110.2237 C535.92,147.6537 561.91,209.6437 597,255.0137 C620.57,285.4837 653.65,313.5637 680.67,333.9137 " fill="none" id="Operator-Candidate" style="stroke:#181818;stroke-width:1.0;"/><polygon fill="#000000" points="604.891,228.7387,602.059,219.6595,597.2633,223.0581,604.891,228.7387" style="stroke:#000000;stroke-width:1.0;"/><text fill="#000000" font-family="sans-serif" font-size="13" lengthAdjust="spacing" textLength="50" x="611" y="230.042">registers</text><text fill="#000000" font-family="sans-serif" font-size="13" lengthAdjust="spacing" textLength="7" x="516.4648" y="131.5644">1</text><text fill="#000000" font-family="sans-serif" font-size="13" lengthAdjust="spacing" textLength="5" x="666.4826" y="323.2416">*</text></g><!--link User to EmailAddress--><g id="link_User_EmailAddress"><path codeLine="36" d="M399.13,528.7837 C362.65,553.2837 310.67,589.1637 267,623.0137 C220.03,659.4137 168.36,704.6037 135.81,733.7437 " fill="none" id="User-EmailAddress" style="stroke:#181818;stroke-width:1.0;"/><polygon fill="#000000" points="275.9456,629.588,267.0027,632.8246,270.6131,637.463,275.9456,629.588" style="stroke:#000000;stroke-width:1.0;"/><text fill="#000000" font-family="sans-serif" font-size="13" lengthAdjust="spacing" textLength="51" x="281" y="638.042">identifies</text><text fill="#000000" font-family="sans-serif" font-size="13" lengthAdjust="spacing" textLength="7" x="384.5702" y="529.3499">1</text><text fill="#000000" font-family="sans-serif" font-size="13" lengthAdjust="spacing" textLength="7" x="134.8552" y="722.7457">1</text></g><!--link User to Role--><g id="link_User_Role"><path codeLine="37" d="M442.03,531.2737 C437.33,583.2037 428.23,683.6437 423.7,733.6837 " fill="none" id="User-Role" style="stroke:#181818;stroke-width:1.0;"/><polygon fill="#000000" points="438.4509,627.6796,434.7082,636.4227,440.5621,636.9528,438.4509,627.6796" style="stroke:#000000;stroke-width:1.0;"/><text fill="#000000" font-family="sans-serif" font-size="13" lengthAdjust="spacing" textLength="54" x="447" y="638.042">classifies</text><text fill="#000000" font-family="sans-serif" font-size="13" lengthAdjust="spacing" textLength="7" x="433.918" y="552.623">1</text><text fill="#000000" font-family="sans-serif" font-size="13" lengthAdjust="spacing" textLength="7" x="416.535" y="722.6733">1</text></g><!--link User to Name--><g id="link_User_Name"><path codeLine="38" d="M461.84,531.0237 C474.62,556.0037 492.42,591.4537 507,623.0137 C524.52,660.9337 543.19,705.3737 554.97,733.9637 " fill="none" id="User-Name" style="stroke:#181818;stroke-width:1.0;"/><polygon fill="#000000" points="517.9146,628.1148,519.016,637.5614,524.3582,635.1099,517.9146,628.1148" style="stroke:#000000;stroke-width:1.0;"/><text fill="#000000" font-family="sans-serif" font-size="13" lengthAdjust="spacing" textLength="56" x="529" y="638.042">describes</text><text fill="#000000" font-family="sans-serif" font-size="13" lengthAdjust="spacing" textLength="7" x="457.2162" y="552.5947">1</text><text fill="#000000" font-family="sans-serif" font-size="13" lengthAdjust="spacing" textLength="7" x="544.5728" y="722.5273">1</text></g><!--link User to Password--><g id="link_User_Password"><path codeLine="39" d="M419,531.2337 C399.88,555.8737 373.72,590.8037 353,623.0137 C329.15,660.0837 305.03,704.9137 290.06,733.8037 " fill="none" id="User-Password" style="stroke:#181818;stroke-width:1.0;"/><polygon fill="#000000" points="360.6848,628.4412,353.3486,634.4935,358.3072,637.6497,360.6848,628.4412" style="stroke:#000000;stroke-width:1.0;"/><text fill="#000000" font-family="sans-serif" font-size="13" lengthAdjust="spacing" textLength="56" x="367" y="638.042">describes</text><text fill="#000000" font-family="sans-serif" font-size="13" lengthAdjust="spacing" textLength="7" x="406.9297" y="552.5761">1</text><text fill="#000000" font-family="sans-serif" font-size="13" lengthAdjust="spacing" textLength="7" x="285.4443" y="722.818">1</text></g><!--link Operator to User--><g id="link_Operator_User"><path codeLine="40" d="M505.88,110.0437 C493.56,188.2037 465.2311,368.083 452.9211,446.223 " fill="none" id="Operator-to-User" style="stroke:#181818;stroke-width:1.0;"/><polygon fill="none" points="450.12,464.0037,458.848,447.1567,446.9942,445.2893,450.12,464.0037" style="stroke:#181818;stroke-width:1.0;"/></g><!--link Candidate to User--><g id="link_Candidate_User"><path codeLine="41" d="M680.58,401.2337 C667.44,409.5737 652.94,418.1137 639,425.0137 C590.1,449.2037 548.0152,464.3927 507.9752,477.1927 " fill="none" id="Candidate-to-User" style="stroke:#181818;stroke-width:1.0;"/><polygon fill="none" points="490.83,482.6737,509.8022,482.9078,506.1482,471.4776,490.83,482.6737" style="stroke:#181818;stroke-width:1.0;"/></g><!--SRC=[ZLB9JiCm4BtFLup2WKMa3HA74aMHgge7Bcs517StdgQ6RB9T42hzTnmdE6cL0ZbacRp5ysOkjrfNAXoFgumLUfTdewJCnqd6bF9zBbWgMGvGiUIDfOJFYkGqJIMbJDCUO5veeJznMP5akfIu1pHN596jnp4SRC7AuJnd8fjoBibyHD7Lo-t59dW8Wk0Q7tdDs0YI-Cwo7U5o_Kg9ZcFSDmgjKUtVcZH6iYmrEhUwTW3xc5dBbRbzb98xk_j9RNVg0Isp8pwL6U6lh07IWkNqJoSJ3ApQK6Uiu8ARG7l9zdfsl_zil3k9uwosPK6BNRuskGr5RlI7ZzWe7c1GQUJtJXLYZE9dVWhSBdXt7le-UZVU2TZqA9GcgG3iF1jW3JKlHqiIzeGn6a3RCONDVfr7sRc4o4abKgpFWDog70DTEpNmAxORs8M2NGs-0G00]--></g></svg>