<?xml version="1.0" encoding="us-ascii" standalone="no"?><svg xmlns="http://www.w3.org/2000/svg" xmlns:xlink="http://www.w3.org/1999/xlink" contentStyleType="text/css" height="804px" preserveAspectRatio="none" style="width:577px;height:804px;background:#FFFFFF;" version="1.1" viewBox="0 0 577 804" width="577px" zoomAndPan="magnify"><defs/><g><!--class CustomerManagerUI--><g id="elem_CustomerManagerUI"><rect codeLine="3" fill="#F1F1F1" height="66.6211" id="CustomerManagerUI" rx="2.5" ry="2.5" style="stroke:#181818;stroke-width:0.5;" width="161" x="71" y="7"/><ellipse cx="86" cy="23" fill="#ADD1B2" rx="11" ry="11" style="stroke:#181818;stroke-width:1.0;"/><path d="M88.7656,18.875 Q88.9219,18.6563 89.1094,18.5469 Q89.2969,18.4375 89.5156,18.4375 Q89.8906,18.4375 90.125,18.7031 Q90.3594,18.9531 90.3594,19.5625 L90.3594,21.0156 Q90.3594,21.625 90.125,21.8906 Q89.8906,22.1563 89.5156,22.1563 Q89.1719,22.1563 88.9688,21.9531 Q88.7656,21.7656 88.6563,21.25 Q88.6094,20.8906 88.4219,20.7031 Q88.0938,20.3281 87.4844,20.1094 Q86.875,19.8906 86.25,19.8906 Q85.4844,19.8906 84.8438,20.2188 Q84.2188,20.5469 83.7188,21.2969 Q83.2344,22.0469 83.2344,23.0781 L83.2344,24.1719 Q83.2344,25.4063 84.125,26.2344 Q85.0156,27.0469 86.6094,27.0469 Q87.5469,27.0469 88.2031,26.7969 Q88.5938,26.6406 89.0156,26.2031 Q89.2813,25.9375 89.4219,25.8594 Q89.5781,25.7813 89.7813,25.7813 Q90.1094,25.7813 90.3594,26.0469 Q90.625,26.2969 90.625,26.6406 Q90.625,26.9844 90.2813,27.3906 Q89.7813,27.9688 88.9844,28.2969 Q87.9063,28.75 86.6094,28.75 Q85.0938,28.75 83.8906,28.125 Q82.9063,27.625 82.2188,26.5625 Q81.5313,25.4844 81.5313,24.2031 L81.5313,23.0469 Q81.5313,21.7188 82.1406,20.5781 Q82.7656,19.4219 83.8594,18.8125 Q84.9531,18.1875 86.1875,18.1875 Q86.9219,18.1875 87.5625,18.3594 Q88.2188,18.5156 88.7656,18.875 Z " fill="#000000"/><text fill="#000000" font-family="sans-serif" font-size="14" lengthAdjust="spacing" textLength="129" x="100" y="28.7969">CustomerManagerUI</text><line style="stroke:#181818;stroke-width:0.5;" x1="72" x2="231" y1="39" y2="39"/><line style="stroke:#181818;stroke-width:0.5;" x1="72" x2="231" y1="47" y2="47"/><ellipse cx="82" cy="61.8105" fill="#84BE84" rx="3" ry="3" style="stroke:#038048;stroke-width:1.0;"/><text fill="#000000" font-family="sans-serif" font-size="14" lengthAdjust="spacing" textLength="112" x="91" y="66.1074">registerJobOffer()</text></g><!--class DisplayCandidateUI--><g id="elem_DisplayCandidateUI"><rect codeLine="7" fill="#F1F1F1" height="122.4844" id="DisplayCandidateUI" rx="2.5" ry="2.5" style="stroke:#181818;stroke-width:0.5;" width="289" x="7" y="135"/><ellipse cx="85.75" cy="151" fill="#ADD1B2" rx="11" ry="11" style="stroke:#181818;stroke-width:1.0;"/><path d="M88.5156,146.875 Q88.6719,146.6563 88.8594,146.5469 Q89.0469,146.4375 89.2656,146.4375 Q89.6406,146.4375 89.875,146.7031 Q90.1094,146.9531 90.1094,147.5625 L90.1094,149.0156 Q90.1094,149.625 89.875,149.8906 Q89.6406,150.1563 89.2656,150.1563 Q88.9219,150.1563 88.7188,149.9531 Q88.5156,149.7656 88.4063,149.25 Q88.3594,148.8906 88.1719,148.7031 Q87.8438,148.3281 87.2344,148.1094 Q86.625,147.8906 86,147.8906 Q85.2344,147.8906 84.5938,148.2188 Q83.9688,148.5469 83.4688,149.2969 Q82.9844,150.0469 82.9844,151.0781 L82.9844,152.1719 Q82.9844,153.4063 83.875,154.2344 Q84.7656,155.0469 86.3594,155.0469 Q87.2969,155.0469 87.9531,154.7969 Q88.3438,154.6406 88.7656,154.2031 Q89.0313,153.9375 89.1719,153.8594 Q89.3281,153.7813 89.5313,153.7813 Q89.8594,153.7813 90.1094,154.0469 Q90.375,154.2969 90.375,154.6406 Q90.375,154.9844 90.0313,155.3906 Q89.5313,155.9688 88.7344,156.2969 Q87.6563,156.75 86.3594,156.75 Q84.8438,156.75 83.6406,156.125 Q82.6563,155.625 81.9688,154.5625 Q81.2813,153.4844 81.2813,152.2031 L81.2813,151.0469 Q81.2813,149.7188 81.8906,148.5781 Q82.5156,147.4219 83.6094,146.8125 Q84.7031,146.1875 85.9375,146.1875 Q86.6719,146.1875 87.3125,146.3594 Q87.9688,146.5156 88.5156,146.875 Z " fill="#000000"/><text fill="#000000" font-family="sans-serif" font-size="14" lengthAdjust="spacing" textLength="123" x="106.25" y="156.7969">DisplayCandidateUI</text><line style="stroke:#181818;stroke-width:0.5;" x1="8" x2="295" y1="167" y2="167"/><rect fill="none" height="6" style="stroke:#C82930;stroke-width:1.0;" width="6" x="15" y="178.8105"/><text fill="#000000" font-family="sans-serif" font-size="14" lengthAdjust="spacing" textLength="263" x="27" y="186.1074">DisplayCandidateController: theController</text><line style="stroke:#181818;stroke-width:0.5;" x1="8" x2="295" y1="193.6211" y2="193.6211"/><ellipse cx="18" cy="208.4316" fill="#84BE84" rx="3" ry="3" style="stroke:#038048;stroke-width:1.0;"/><text fill="#000000" font-family="sans-serif" font-size="14" lengthAdjust="spacing" textLength="60" x="27" y="212.7285">doShow()</text><ellipse cx="18" cy="227.0527" fill="#84BE84" rx="3" ry="3" style="stroke:#038048;stroke-width:1.0;"/><text fill="#000000" font-family="sans-serif" font-size="14" lengthAdjust="spacing" textLength="129" x="27" y="231.3496">showCandidateList()</text><ellipse cx="18" cy="245.6738" fill="#84BE84" rx="3" ry="3" style="stroke:#038048;stroke-width:1.0;"/><text fill="#000000" font-family="sans-serif" font-size="14" lengthAdjust="spacing" textLength="124" x="27" y="249.9707">displayInformation()</text></g><!--class DisplayCandidateController--><g id="elem_DisplayCandidateController"><rect codeLine="14" fill="#F1F1F1" height="85.2422" id="DisplayCandidateController" rx="2.5" ry="2.5" style="stroke:#181818;stroke-width:0.5;" width="278" x="12.5" y="318"/><ellipse cx="60.75" cy="334" fill="#ADD1B2" rx="11" ry="11" style="stroke:#181818;stroke-width:1.0;"/><path d="M63.5156,329.875 Q63.6719,329.6563 63.8594,329.5469 Q64.0469,329.4375 64.2656,329.4375 Q64.6406,329.4375 64.875,329.7031 Q65.1094,329.9531 65.1094,330.5625 L65.1094,332.0156 Q65.1094,332.625 64.875,332.8906 Q64.6406,333.1563 64.2656,333.1563 Q63.9219,333.1563 63.7188,332.9531 Q63.5156,332.7656 63.4063,332.25 Q63.3594,331.8906 63.1719,331.7031 Q62.8438,331.3281 62.2344,331.1094 Q61.625,330.8906 61,330.8906 Q60.2344,330.8906 59.5938,331.2188 Q58.9688,331.5469 58.4688,332.2969 Q57.9844,333.0469 57.9844,334.0781 L57.9844,335.1719 Q57.9844,336.4063 58.875,337.2344 Q59.7656,338.0469 61.3594,338.0469 Q62.2969,338.0469 62.9531,337.7969 Q63.3438,337.6406 63.7656,337.2031 Q64.0313,336.9375 64.1719,336.8594 Q64.3281,336.7813 64.5313,336.7813 Q64.8594,336.7813 65.1094,337.0469 Q65.375,337.2969 65.375,337.6406 Q65.375,337.9844 65.0313,338.3906 Q64.5313,338.9688 63.7344,339.2969 Q62.6563,339.75 61.3594,339.75 Q59.8438,339.75 58.6406,339.125 Q57.6563,338.625 56.9688,337.5625 Q56.2813,336.4844 56.2813,335.2031 L56.2813,334.0469 Q56.2813,332.7188 56.8906,331.5781 Q57.5156,330.4219 58.6094,329.8125 Q59.7031,329.1875 60.9375,329.1875 Q61.6719,329.1875 62.3125,329.3594 Q62.9688,329.5156 63.5156,329.875 Z " fill="#000000"/><text fill="#000000" font-family="sans-serif" font-size="14" lengthAdjust="spacing" textLength="173" x="81.25" y="339.7969">DisplayCandidateController</text><line style="stroke:#181818;stroke-width:0.5;" x1="13.5" x2="289.5" y1="350" y2="350"/><rect fill="none" height="6" style="stroke:#C82930;stroke-width:1.0;" width="6" x="20.5" y="361.8105"/><text fill="#000000" font-family="sans-serif" font-size="14" lengthAdjust="spacing" textLength="252" x="32.5" y="369.1074">GetCandidateService: candidateService</text><line style="stroke:#181818;stroke-width:0.5;" x1="13.5" x2="289.5" y1="376.6211" y2="376.6211"/><ellipse cx="23.5" cy="391.4316" fill="#84BE84" rx="3" ry="3" style="stroke:#038048;stroke-width:1.0;"/><text fill="#000000" font-family="sans-serif" font-size="14" lengthAdjust="spacing" textLength="126" x="32.5" y="395.7285">displayCandidates()</text></g><!--class GetCandidateService--><g id="elem_GetCandidateService"><rect codeLine="19" fill="#F1F1F1" height="85.2422" id="GetCandidateService" rx="2.5" ry="2.5" style="stroke:#181818;stroke-width:0.5;" width="196" x="147.5" y="597"/><ellipse cx="175.55" cy="613" fill="#ADD1B2" rx="11" ry="11" style="stroke:#181818;stroke-width:1.0;"/><path d="M178.3156,608.875 Q178.4719,608.6563 178.6594,608.5469 Q178.8469,608.4375 179.0656,608.4375 Q179.4406,608.4375 179.675,608.7031 Q179.9094,608.9531 179.9094,609.5625 L179.9094,611.0156 Q179.9094,611.625 179.675,611.8906 Q179.4406,612.1563 179.0656,612.1563 Q178.7219,612.1563 178.5188,611.9531 Q178.3156,611.7656 178.2063,611.25 Q178.1594,610.8906 177.9719,610.7031 Q177.6438,610.3281 177.0344,610.1094 Q176.425,609.8906 175.8,609.8906 Q175.0344,609.8906 174.3938,610.2188 Q173.7688,610.5469 173.2688,611.2969 Q172.7844,612.0469 172.7844,613.0781 L172.7844,614.1719 Q172.7844,615.4063 173.675,616.2344 Q174.5656,617.0469 176.1594,617.0469 Q177.0969,617.0469 177.7531,616.7969 Q178.1438,616.6406 178.5656,616.2031 Q178.8313,615.9375 178.9719,615.8594 Q179.1281,615.7813 179.3313,615.7813 Q179.6594,615.7813 179.9094,616.0469 Q180.175,616.2969 180.175,616.6406 Q180.175,616.9844 179.8313,617.3906 Q179.3313,617.9688 178.5344,618.2969 Q177.4563,618.75 176.1594,618.75 Q174.6438,618.75 173.4406,618.125 Q172.4563,617.625 171.7688,616.5625 Q171.0813,615.4844 171.0813,614.2031 L171.0813,613.0469 Q171.0813,611.7188 171.6906,610.5781 Q172.3156,609.4219 173.4094,608.8125 Q174.5031,608.1875 175.7375,608.1875 Q176.4719,608.1875 177.1125,608.3594 Q177.7688,608.5156 178.3156,608.875 Z " fill="#000000"/><text fill="#000000" font-family="sans-serif" font-size="14" lengthAdjust="spacing" textLength="135" x="192.45" y="618.7969">GetCandidateService</text><line style="stroke:#181818;stroke-width:0.5;" x1="148.5" x2="342.5" y1="629" y2="629"/><rect fill="none" height="6" style="stroke:#C82930;stroke-width:1.0;" width="6" x="155.5" y="640.8105"/><text fill="#000000" font-family="sans-serif" font-size="14" lengthAdjust="spacing" textLength="170" x="167.5" y="648.1074">CandidateRepository: repo</text><line style="stroke:#181818;stroke-width:0.5;" x1="148.5" x2="342.5" y1="655.6211" y2="655.6211"/><ellipse cx="158.5" cy="670.4316" fill="#84BE84" rx="3" ry="3" style="stroke:#038048;stroke-width:1.0;"/><text fill="#000000" font-family="sans-serif" font-size="14" lengthAdjust="spacing" textLength="102" x="167.5" y="674.7285">getCandidates()</text></g><!--class PersistenceContext--><g id="elem_PersistenceContext"><rect codeLine="24" fill="#F1F1F1" height="66.6211" id="PersistenceContext" rx="2.5" ry="2.5" style="stroke:#181818;stroke-width:0.5;" width="154" x="402.5" y="327"/><ellipse cx="417.5" cy="343" fill="#ADD1B2" rx="11" ry="11" style="stroke:#181818;stroke-width:1.0;"/><path d="M420.2656,338.875 Q420.4219,338.6563 420.6094,338.5469 Q420.7969,338.4375 421.0156,338.4375 Q421.3906,338.4375 421.625,338.7031 Q421.8594,338.9531 421.8594,339.5625 L421.8594,341.0156 Q421.8594,341.625 421.625,341.8906 Q421.3906,342.1563 421.0156,342.1563 Q420.6719,342.1563 420.4688,341.9531 Q420.2656,341.7656 420.1563,341.25 Q420.1094,340.8906 419.9219,340.7031 Q419.5938,340.3281 418.9844,340.1094 Q418.375,339.8906 417.75,339.8906 Q416.9844,339.8906 416.3438,340.2188 Q415.7188,340.5469 415.2188,341.2969 Q414.7344,342.0469 414.7344,343.0781 L414.7344,344.1719 Q414.7344,345.4063 415.625,346.2344 Q416.5156,347.0469 418.1094,347.0469 Q419.0469,347.0469 419.7031,346.7969 Q420.0938,346.6406 420.5156,346.2031 Q420.7813,345.9375 420.9219,345.8594 Q421.0781,345.7813 421.2813,345.7813 Q421.6094,345.7813 421.8594,346.0469 Q422.125,346.2969 422.125,346.6406 Q422.125,346.9844 421.7813,347.3906 Q421.2813,347.9688 420.4844,348.2969 Q419.4063,348.75 418.1094,348.75 Q416.5938,348.75 415.3906,348.125 Q414.4063,347.625 413.7188,346.5625 Q413.0313,345.4844 413.0313,344.2031 L413.0313,343.0469 Q413.0313,341.7188 413.6406,340.5781 Q414.2656,339.4219 415.3594,338.8125 Q416.4531,338.1875 417.6875,338.1875 Q418.4219,338.1875 419.0625,338.3594 Q419.7188,338.5156 420.2656,338.875 Z " fill="#000000"/><text fill="#000000" font-family="sans-serif" font-size="14" lengthAdjust="spacing" textLength="122" x="431.5" y="348.7969">PersistenceContext</text><line style="stroke:#181818;stroke-width:0.5;" x1="403.5" x2="555.5" y1="359" y2="359"/><line style="stroke:#181818;stroke-width:0.5;" x1="403.5" x2="555.5" y1="367" y2="367"/><ellipse cx="413.5" cy="381.8105" fill="#84BE84" rx="3" ry="3" style="stroke:#038048;stroke-width:1.0;"/><text fill="#000000" font-family="sans-serif" font-size="14" lengthAdjust="spacing" textLength="84" x="422.5" y="386.1074">repositories()</text></g><!--class RepositoryFactory--><g id="elem_RepositoryFactory"><rect codeLine="28" fill="#F1F1F1" height="85.2422" id="RepositoryFactory" rx="2.5" ry="2.5" style="stroke:#181818;stroke-width:0.5;" width="256" x="314.5" y="482"/><ellipse cx="380.25" cy="498" fill="#ADD1B2" rx="11" ry="11" style="stroke:#181818;stroke-width:1.0;"/><path d="M383.0156,493.875 Q383.1719,493.6563 383.3594,493.5469 Q383.5469,493.4375 383.7656,493.4375 Q384.1406,493.4375 384.375,493.7031 Q384.6094,493.9531 384.6094,494.5625 L384.6094,496.0156 Q384.6094,496.625 384.375,496.8906 Q384.1406,497.1563 383.7656,497.1563 Q383.4219,497.1563 383.2188,496.9531 Q383.0156,496.7656 382.9063,496.25 Q382.8594,495.8906 382.6719,495.7031 Q382.3438,495.3281 381.7344,495.1094 Q381.125,494.8906 380.5,494.8906 Q379.7344,494.8906 379.0938,495.2188 Q378.4688,495.5469 377.9688,496.2969 Q377.4844,497.0469 377.4844,498.0781 L377.4844,499.1719 Q377.4844,500.4063 378.375,501.2344 Q379.2656,502.0469 380.8594,502.0469 Q381.7969,502.0469 382.4531,501.7969 Q382.8438,501.6406 383.2656,501.2031 Q383.5313,500.9375 383.6719,500.8594 Q383.8281,500.7813 384.0313,500.7813 Q384.3594,500.7813 384.6094,501.0469 Q384.875,501.2969 384.875,501.6406 Q384.875,501.9844 384.5313,502.3906 Q384.0313,502.9688 383.2344,503.2969 Q382.1563,503.75 380.8594,503.75 Q379.3438,503.75 378.1406,503.125 Q377.1563,502.625 376.4688,501.5625 Q375.7813,500.4844 375.7813,499.2031 L375.7813,498.0469 Q375.7813,496.7188 376.3906,495.5781 Q377.0156,494.4219 378.1094,493.8125 Q379.2031,493.1875 380.4375,493.1875 Q381.1719,493.1875 381.8125,493.3594 Q382.4688,493.5156 383.0156,493.875 Z " fill="#000000"/><text fill="#000000" font-family="sans-serif" font-size="14" lengthAdjust="spacing" textLength="116" x="400.75" y="503.7969">RepositoryFactory</text><line style="stroke:#181818;stroke-width:0.5;" x1="315.5" x2="569.5" y1="514" y2="514"/><line style="stroke:#181818;stroke-width:0.5;" x1="315.5" x2="569.5" y1="522" y2="522"/><ellipse cx="325.5" cy="536.8105" fill="#84BE84" rx="3" ry="3" style="stroke:#038048;stroke-width:1.0;"/><text fill="#000000" font-family="sans-serif" font-size="14" lengthAdjust="spacing" textLength="169" x="334.5" y="541.1074">newTransactionalContext()</text><ellipse cx="325.5" cy="555.4316" fill="#84BE84" rx="3" ry="3" style="stroke:#038048;stroke-width:1.0;"/><text fill="#000000" font-family="sans-serif" font-size="14" lengthAdjust="spacing" textLength="230" x="334.5" y="559.7285">JobOffer(TransactionalContext var1)</text></g><!--class CandidateRepository--><g id="elem_CandidateRepository"><rect codeLine="33" fill="#F1F1F1" height="85.2422" id="CandidateRepository" rx="2.5" ry="2.5" style="stroke:#181818;stroke-width:0.5;" width="165" x="232" y="712"/><ellipse cx="247" cy="728" fill="#ADD1B2" rx="11" ry="11" style="stroke:#181818;stroke-width:1.0;"/><path d="M249.7656,723.875 Q249.9219,723.6563 250.1094,723.5469 Q250.2969,723.4375 250.5156,723.4375 Q250.8906,723.4375 251.125,723.7031 Q251.3594,723.9531 251.3594,724.5625 L251.3594,726.0156 Q251.3594,726.625 251.125,726.8906 Q250.8906,727.1563 250.5156,727.1563 Q250.1719,727.1563 249.9688,726.9531 Q249.7656,726.7656 249.6563,726.25 Q249.6094,725.8906 249.4219,725.7031 Q249.0938,725.3281 248.4844,725.1094 Q247.875,724.8906 247.25,724.8906 Q246.4844,724.8906 245.8438,725.2188 Q245.2188,725.5469 244.7188,726.2969 Q244.2344,727.0469 244.2344,728.0781 L244.2344,729.1719 Q244.2344,730.4063 245.125,731.2344 Q246.0156,732.0469 247.6094,732.0469 Q248.5469,732.0469 249.2031,731.7969 Q249.5938,731.6406 250.0156,731.2031 Q250.2813,730.9375 250.4219,730.8594 Q250.5781,730.7813 250.7813,730.7813 Q251.1094,730.7813 251.3594,731.0469 Q251.625,731.2969 251.625,731.6406 Q251.625,731.9844 251.2813,732.3906 Q250.7813,732.9688 249.9844,733.2969 Q248.9063,733.75 247.6094,733.75 Q246.0938,733.75 244.8906,733.125 Q243.9063,732.625 243.2188,731.5625 Q242.5313,730.4844 242.5313,729.2031 L242.5313,728.0469 Q242.5313,726.7188 243.1406,725.5781 Q243.7656,724.4219 244.8594,723.8125 Q245.9531,723.1875 247.1875,723.1875 Q247.9219,723.1875 248.5625,723.3594 Q249.2188,723.5156 249.7656,723.875 Z " fill="#000000"/><text fill="#000000" font-family="sans-serif" font-size="14" lengthAdjust="spacing" textLength="133" x="261" y="733.7969">CandidateRepository</text><line style="stroke:#181818;stroke-width:0.5;" x1="233" x2="396" y1="744" y2="744"/><line style="stroke:#181818;stroke-width:0.5;" x1="233" x2="396" y1="752" y2="752"/><ellipse cx="243" cy="766.8105" fill="#84BE84" rx="3" ry="3" style="stroke:#038048;stroke-width:1.0;"/><text fill="#000000" font-family="sans-serif" font-size="14" lengthAdjust="spacing" textLength="98" x="252" y="771.1074">findByNumber()</text><ellipse cx="243" cy="785.4316" fill="#84BE84" rx="3" ry="3" style="stroke:#038048;stroke-width:1.0;"/><text fill="#000000" font-family="sans-serif" font-size="14" lengthAdjust="spacing" textLength="120" x="252" y="789.7285">findAllCandidates()</text></g><!--link CustomerManagerUI to DisplayCandidateUI--><g id="link_CustomerManagerUI_DisplayCandidateUI"><path codeLine="38" d="M151.5,74.05 C151.5,91.74 151.5,108.18 151.5,128.92 " fill="none" id="CustomerManagerUI-to-DisplayCandidateUI" style="stroke:#181818;stroke-width:1.0;stroke-dasharray:7.0,7.0;"/><polygon fill="#181818" points="151.5,134.92,155.5,125.92,151.5,129.92,147.5,125.92,151.5,134.92" style="stroke:#181818;stroke-width:1.0;"/></g><!--link DisplayCandidateUI to DisplayCandidateController--><g id="link_DisplayCandidateUI_DisplayCandidateController"><path codeLine="39" d="M151.5,257.05 C151.5,277.3 151.5,293.44 151.5,311.94 " fill="none" id="DisplayCandidateUI-to-DisplayCandidateController" style="stroke:#181818;stroke-width:1.0;stroke-dasharray:7.0,7.0;"/><polygon fill="#181818" points="151.5,317.94,155.5,308.94,151.5,312.94,147.5,308.94,151.5,317.94" style="stroke:#181818;stroke-width:1.0;"/></g><!--link DisplayCandidateController to PersistenceContext--><g id="link_DisplayCandidateController_PersistenceContext"><path codeLine="40" d="M290.6,360.5 C328.84,360.5 362.93,360.5 396.28,360.5 " fill="none" id="DisplayCandidateController-to-PersistenceContext" style="stroke:#181818;stroke-width:1.0;"/><polygon fill="#181818" points="402.28,360.5,393.28,356.5,397.28,360.5,393.28,364.5,402.28,360.5" style="stroke:#181818;stroke-width:1.0;"/><text fill="#000000" font-family="sans-serif" font-size="13" lengthAdjust="spacing" textLength="75" x="309" y="353.5283">repositories()</text></g><!--link PersistenceContext to RepositoryFactory--><g id="link_PersistenceContext_RepositoryFactory"><path codeLine="41" d="M472.01,394.28 C466.25,419.52 459.5757,448.7306 453.3557,475.9706 " fill="none" id="PersistenceContext-to-RepositoryFactory" style="stroke:#181818;stroke-width:1.0;"/><polygon fill="#181818" points="452.02,481.82,457.9231,473.9363,453.1331,476.9455,450.1239,472.1554,452.02,481.82" style="stroke:#181818;stroke-width:1.0;"/><text fill="#000000" font-family="sans-serif" font-size="13" lengthAdjust="spacing" textLength="44" x="462.5" y="448.0283">create()</text></g><!--link RepositoryFactory to CandidateRepository--><g id="link_RepositoryFactory_CandidateRepository"><path codeLine="43" d="M419.57,567.1 C402.11,598.69 377.43,643.16 355.5,682 C350.01,691.72 347.0425,696.9438 341.4225,706.7538 " fill="none" id="RepositoryFactory-to-CandidateRepository" style="stroke:#181818;stroke-width:1.0;"/><polygon fill="#181818" points="338.44,711.96,346.3846,706.1391,340.9255,707.6215,339.443,702.1624,338.44,711.96" style="stroke:#181818;stroke-width:1.0;"/><text fill="#000000" font-family="sans-serif" font-size="13" lengthAdjust="spacing" textLength="44" x="401.5" y="645.0283">create()</text></g><!--link DisplayCandidateController to GetCandidateService--><g id="link_DisplayCandidateController_GetCandidateService"><path codeLine="45" d="M165.67,403.27 C183.42,455.56 211.7126,538.918 229.4326,591.158 " fill="none" id="DisplayCandidateController-to-GetCandidateService" style="stroke:#181818;stroke-width:1.0;"/><polygon fill="#181818" points="231.36,596.84,232.257,587.0321,229.7539,592.105,224.681,589.6019,231.36,596.84" style="stroke:#181818;stroke-width:1.0;"/></g><!--link GetCandidateService to CandidateRepository--><g id="link_GetCandidateService_CandidateRepository"><path codeLine="46" d="M271,682.26 C276.91,691.94 280.0734,697.119 285.9834,706.799 " fill="none" id="GetCandidateService-to-CandidateRepository" style="stroke:#181818;stroke-width:1.0;"/><polygon fill="#181818" points="289.11,711.92,287.8342,702.1541,286.5045,707.6525,281.0062,706.3229,289.11,711.92" style="stroke:#181818;stroke-width:1.0;"/></g><!--SRC=[VLBBJiCm4BpxAtm3XDAAQmv8q0fKn4iKFi1rDgabnuxMRak5-7UsQU8aZQalrZvcPZtUYxNtbKkdqqeBupUbdaXRJgKMpYMP4WMAah4wvBEDyxO4V156581VYn_6wLnpX48v3_XaLszv3dXvnNvRq5mvOjxFXCbK9Zoqg6HKcLdZqMeDc7A_xeMDIcQNQxiZxcFeA0ZOPz8FbUn8l32vnL9uPSsvWJgTTh17yA6w1Dmg2IcN9vcXLkXtVQa8KQiHyXzGMQUynNrAFbQsuIrwq07dEw0xc6raFJby- -uN6YOrH7GA3q8UhXPWOFU9mZZAaaT2Dtp1n_2TiIw-5NZJKuaygDN9bSdkzw-RSbMlHfUyq_hqaQCTuvFaDh94R9oATlQswFyI9-3OLvwUMXhfIGWwCfYG4e4a2CF6rHeKyMi0EpSjmIEhnI8v7bVw0m00]--></g></svg>