<?xml version="1.0" encoding="us-ascii" standalone="no"?><svg xmlns="http://www.w3.org/2000/svg" xmlns:xlink="http://www.w3.org/1999/xlink" contentStyleType="text/css" height="1726px" preserveAspectRatio="none" style="width:2592px;height:1726px;background:#FFFFFF;" version="1.1" viewBox="0 0 2592 1726" width="2592px" zoomAndPan="magnify"><defs/><g><text fill="#000000" font-family="sans-serif" font-size="14" font-weight="bold" lengthAdjust="spacing" textLength="230" x="1182.75" y="27.9951">Sequence Diagram - US 1018</text><rect fill="#FFFFFF" height="1498.9063" style="stroke:#181818;stroke-width:1.0;" width="10" x="69" y="128.5938"/><rect fill="#FFFFFF" height="1477.7734" style="stroke:#181818;stroke-width:1.0;" width="10" x="210" y="149.7266"/><rect fill="#FFFFFF" height="409.8594" style="stroke:#181818;stroke-width:1.0;" width="10" x="331.5" y="178.8594"/><rect fill="#FFFFFF" height="1009.6484" style="stroke:#181818;stroke-width:1.0;" width="10" x="331.5" y="617.8516"/><rect fill="#FFFFFF" height="58.2656" style="stroke:#181818;stroke-width:1.0;" width="10" x="569.5" y="207.9922"/><rect fill="#FFFFFF" height="264.1953" style="stroke:#181818;stroke-width:1.0;" width="10" x="569.5" y="295.3906"/><rect fill="#FFFFFF" height="145.6641" style="stroke:#181818;stroke-width:1.0;" width="10" x="569.5" y="646.9844"/><rect fill="#FFFFFF" height="145.6641" style="stroke:#181818;stroke-width:1.0;" width="10" x="569.5" y="821.7813"/><rect fill="#FFFFFF" height="601.7891" style="stroke:#181818;stroke-width:1.0;" width="10" x="569.5" y="996.5781"/><rect fill="#FFFFFF" height="29.1328" style="stroke:#181818;stroke-width:1.0;" width="10" x="750.5" y="237.125"/><rect fill="#FFFFFF" height="205.9297" style="stroke:#181818;stroke-width:1.0;" width="10" x="1054" y="324.5234"/><rect fill="#FFFFFF" height="87.3984" style="stroke:#181818;stroke-width:1.0;" width="10" x="1054" y="676.1172"/><rect fill="#FFFFFF" height="87.3984" style="stroke:#181818;stroke-width:1.0;" width="10" x="1054" y="1025.7109"/><rect fill="#FFFFFF" height="87.3984" style="stroke:#181818;stroke-width:1.0;" width="10" x="1226" y="850.9141"/><rect fill="#FFFFFF" height="87.3984" style="stroke:#181818;stroke-width:1.0;" width="10" x="1226" y="1142.2422"/><rect fill="#FFFFFF" height="310.4609" style="stroke:#181818;stroke-width:1.0;" width="10" x="1453" y="1258.7734"/><rect fill="#FFFFFF" height="29.1328" style="stroke:#181818;stroke-width:1.0;" width="10" x="1699" y="1351.3047"/><rect fill="#FFFFFF" height="29.1328" style="stroke:#181818;stroke-width:1.0;" width="10" x="1859.5" y="353.6563"/><rect fill="#FFFFFF" height="29.1328" style="stroke:#181818;stroke-width:1.0;" width="10" x="1859.5" y="705.25"/><rect fill="#FFFFFF" height="29.1328" style="stroke:#181818;stroke-width:1.0;" width="10" x="1859.5" y="1054.8438"/><rect fill="#FFFFFF" height="58.2656" style="stroke:#181818;stroke-width:1.0;" width="10" x="1974.5" y="436.0547"/><rect fill="#FFFFFF" height="29.1328" style="stroke:#181818;stroke-width:1.0;" width="10" x="2219.5" y="880.0469"/><rect fill="#FFFFFF" height="29.1328" style="stroke:#181818;stroke-width:1.0;" width="10" x="2219.5" y="1171.375"/><rect fill="#FFFFFF" height="58.2656" style="stroke:#181818;stroke-width:1.0;" width="10" x="2376.5" y="1467.8359"/><rect fill="none" height="104.5313" style="stroke:#000000;stroke-width:1.5;" width="1154" x="978.5" y="397.7891"/><rect fill="none" height="267.3281" style="stroke:#000000;stroke-width:1.5;" width="1274" x="1312.5" y="1273.7734"/><rect fill="none" height="236.1953" style="stroke:#000000;stroke-width:1.5;" width="1254" x="1322.5" y="1297.9063"/><line style="stroke:#181818;stroke-width:0.5;stroke-dasharray:5.0,5.0;" x1="74" x2="74" y1="118.5938" y2="1645.5"/><line style="stroke:#181818;stroke-width:0.5;stroke-dasharray:5.0,5.0;" x1="214.5" x2="214.5" y1="118.5938" y2="1645.5"/><line style="stroke:#181818;stroke-width:0.5;stroke-dasharray:5.0,5.0;" x1="336.5" x2="336.5" y1="118.5938" y2="1645.5"/><line style="stroke:#181818;stroke-width:0.5;stroke-dasharray:5.0,5.0;" x1="574.5" x2="574.5" y1="118.5938" y2="1645.5"/><line style="stroke:#181818;stroke-width:0.5;stroke-dasharray:5.0,5.0;" x1="755.5" x2="755.5" y1="118.5938" y2="1645.5"/><line style="stroke:#181818;stroke-width:0.5;stroke-dasharray:5.0,5.0;" x1="909.5" x2="909.5" y1="118.5938" y2="1645.5"/><line style="stroke:#181818;stroke-width:0.5;stroke-dasharray:5.0,5.0;" x1="1058.5" x2="1058.5" y1="118.5938" y2="1645.5"/><line style="stroke:#181818;stroke-width:0.5;stroke-dasharray:5.0,5.0;" x1="1230.5" x2="1230.5" y1="118.5938" y2="1645.5"/><line style="stroke:#181818;stroke-width:0.5;stroke-dasharray:5.0,5.0;" x1="1457.5" x2="1457.5" y1="118.5938" y2="1645.5"/><line style="stroke:#181818;stroke-width:0.5;stroke-dasharray:5.0,5.0;" x1="1703.5" x2="1703.5" y1="118.5938" y2="1645.5"/><line style="stroke:#181818;stroke-width:0.5;stroke-dasharray:5.0,5.0;" x1="1864.5" x2="1864.5" y1="118.5938" y2="1645.5"/><line style="stroke:#181818;stroke-width:0.5;stroke-dasharray:5.0,5.0;" x1="1979.5" x2="1979.5" y1="118.5938" y2="1645.5"/><line style="stroke:#181818;stroke-width:0.5;stroke-dasharray:5.0,5.0;" x1="2072.5" x2="2072.5" y1="118.5938" y2="1645.5"/><line style="stroke:#181818;stroke-width:0.5;stroke-dasharray:5.0,5.0;" x1="2224.5" x2="2224.5" y1="118.5938" y2="1645.5"/><line style="stroke:#181818;stroke-width:0.5;stroke-dasharray:5.0,5.0;" x1="2381.5" x2="2381.5" y1="118.5938" y2="1645.5"/><line style="stroke:#181818;stroke-width:0.5;stroke-dasharray:5.0,5.0;" x1="2506.5" x2="2506.5" y1="118.5938" y2="1645.5"/><text fill="#000000" font-family="sans-serif" font-size="14" lengthAdjust="spacing" textLength="132" x="5" y="115.292">Customer Manager</text><ellipse cx="74" cy="50.7969" fill="#E2E2F0" rx="8" ry="8" style="stroke:#181818;stroke-width:0.5;"/><path d="M74,58.7969 L74,85.7969 M61,66.7969 L87,66.7969 M74,85.7969 L61,100.7969 M74,85.7969 L87,100.7969 " fill="none" style="stroke:#181818;stroke-width:0.5;"/><text fill="#000000" font-family="sans-serif" font-size="14" lengthAdjust="spacing" textLength="132" x="5" y="1657.4951">Customer Manager</text><ellipse cx="74" cy="1669.2969" fill="#E2E2F0" rx="8" ry="8" style="stroke:#181818;stroke-width:0.5;"/><path d="M74,1677.2969 L74,1704.2969 M61,1685.2969 L87,1685.2969 M74,1704.2969 L61,1719.2969 M74,1704.2969 L87,1719.2969 " fill="none" style="stroke:#181818;stroke-width:0.5;"/><rect fill="#E2E2F0" height="30.2969" rx="2.5" ry="2.5" style="stroke:#181818;stroke-width:0.5;" width="85" x="172.5" y="87.2969"/><text fill="#000000" font-family="sans-serif" font-size="14" lengthAdjust="spacing" textLength="71" x="179.5" y="107.292">MainMenu</text><rect fill="#E2E2F0" height="30.2969" rx="2.5" ry="2.5" style="stroke:#181818;stroke-width:0.5;" width="85" x="172.5" y="1644.5"/><text fill="#000000" font-family="sans-serif" font-size="14" lengthAdjust="spacing" textLength="71" x="179.5" y="1664.4951">MainMenu</text><rect fill="#E2E2F0" height="30.2969" rx="2.5" ry="2.5" style="stroke:#181818;stroke-width:0.5;" width="138" x="267.5" y="87.2969"/><text fill="#000000" font-family="sans-serif" font-size="14" lengthAdjust="spacing" textLength="124" x="274.5" y="107.292">GradeInterviewsUI</text><rect fill="#E2E2F0" height="30.2969" rx="2.5" ry="2.5" style="stroke:#181818;stroke-width:0.5;" width="138" x="267.5" y="1644.5"/><text fill="#000000" font-family="sans-serif" font-size="14" lengthAdjust="spacing" textLength="124" x="274.5" y="1664.4951">GradeInterviewsUI</text><rect fill="#E2E2F0" height="30.2969" rx="2.5" ry="2.5" style="stroke:#181818;stroke-width:0.5;" width="192" x="478.5" y="87.2969"/><text fill="#000000" font-family="sans-serif" font-size="14" lengthAdjust="spacing" textLength="178" x="485.5" y="107.292">GradeInterviewsController</text><rect fill="#E2E2F0" height="30.2969" rx="2.5" ry="2.5" style="stroke:#181818;stroke-width:0.5;" width="192" x="478.5" y="1644.5"/><text fill="#000000" font-family="sans-serif" font-size="14" lengthAdjust="spacing" textLength="178" x="485.5" y="1664.4951">GradeInterviewsController</text><rect fill="#E2E2F0" height="30.2969" rx="2.5" ry="2.5" style="stroke:#181818;stroke-width:0.5;" width="150" x="680.5" y="87.2969"/><text fill="#000000" font-family="sans-serif" font-size="14" lengthAdjust="spacing" textLength="136" x="687.5" y="107.292">PersistenceContext</text><rect fill="#E2E2F0" height="30.2969" rx="2.5" ry="2.5" style="stroke:#181818;stroke-width:0.5;" width="150" x="680.5" y="1644.5"/><text fill="#000000" font-family="sans-serif" font-size="14" lengthAdjust="spacing" textLength="136" x="687.5" y="1664.4951">PersistenceContext</text><rect fill="#E2E2F0" height="30.2969" rx="2.5" ry="2.5" style="stroke:#181818;stroke-width:0.5;" width="138" x="840.5" y="87.2969"/><text fill="#000000" font-family="sans-serif" font-size="14" lengthAdjust="spacing" textLength="124" x="847.5" y="107.292">RepositoryFactory</text><rect fill="#E2E2F0" height="30.2969" rx="2.5" ry="2.5" style="stroke:#181818;stroke-width:0.5;" width="138" x="840.5" y="1644.5"/><text fill="#000000" font-family="sans-serif" font-size="14" lengthAdjust="spacing" textLength="124" x="847.5" y="1664.4951">RepositoryFactory</text><rect fill="#E2E2F0" height="30.2969" rx="2.5" ry="2.5" style="stroke:#181818;stroke-width:0.5;" width="141" x="988.5" y="87.2969"/><text fill="#000000" font-family="sans-serif" font-size="14" lengthAdjust="spacing" textLength="127" x="995.5" y="107.292">ListJobOfferService</text><rect fill="#E2E2F0" height="30.2969" rx="2.5" ry="2.5" style="stroke:#181818;stroke-width:0.5;" width="141" x="988.5" y="1644.5"/><text fill="#000000" font-family="sans-serif" font-size="14" lengthAdjust="spacing" textLength="127" x="995.5" y="1664.4951">ListJobOfferService</text><rect fill="#E2E2F0" height="30.2969" rx="2.5" ry="2.5" style="stroke:#181818;stroke-width:0.5;" width="183" x="1139.5" y="87.2969"/><text fill="#000000" font-family="sans-serif" font-size="14" lengthAdjust="spacing" textLength="169" x="1146.5" y="107.292">ListJobApplicationService</text><rect fill="#E2E2F0" height="30.2969" rx="2.5" ry="2.5" style="stroke:#181818;stroke-width:0.5;" width="183" x="1139.5" y="1644.5"/><text fill="#000000" font-family="sans-serif" font-size="14" lengthAdjust="spacing" textLength="169" x="1146.5" y="1664.4951">ListJobApplicationService</text><rect fill="#E2E2F0" height="30.2969" rx="2.5" ry="2.5" style="stroke:#181818;stroke-width:0.5;" width="251" x="1332.5" y="87.2969"/><text fill="#000000" font-family="sans-serif" font-size="14" lengthAdjust="spacing" textLength="237" x="1339.5" y="107.292">JobApplicationManagementService</text><rect fill="#E2E2F0" height="30.2969" rx="2.5" ry="2.5" style="stroke:#181818;stroke-width:0.5;" width="251" x="1332.5" y="1644.5"/><text fill="#000000" font-family="sans-serif" font-size="14" lengthAdjust="spacing" textLength="237" x="1339.5" y="1664.4951">JobApplicationManagementService</text><rect fill="#E2E2F0" height="30.2969" rx="2.5" ry="2.5" style="stroke:#181818;stroke-width:0.5;" width="159" x="1624.5" y="87.2969"/><text fill="#000000" font-family="sans-serif" font-size="14" lengthAdjust="spacing" textLength="145" x="1631.5" y="107.292">PluginHandlerService</text><rect fill="#E2E2F0" height="30.2969" rx="2.5" ry="2.5" style="stroke:#181818;stroke-width:0.5;" width="159" x="1624.5" y="1644.5"/><text fill="#000000" font-family="sans-serif" font-size="14" lengthAdjust="spacing" textLength="145" x="1631.5" y="1664.4951">PluginHandlerService</text><rect fill="#E2E2F0" height="30.2969" rx="2.5" ry="2.5" style="stroke:#181818;stroke-width:0.5;" width="142" x="1793.5" y="87.2969"/><text fill="#000000" font-family="sans-serif" font-size="14" lengthAdjust="spacing" textLength="128" x="1800.5" y="107.292">JobOfferRepository</text><rect fill="#E2E2F0" height="30.2969" rx="2.5" ry="2.5" style="stroke:#181818;stroke-width:0.5;" width="142" x="1793.5" y="1644.5"/><text fill="#000000" font-family="sans-serif" font-size="14" lengthAdjust="spacing" textLength="128" x="1800.5" y="1664.4951">JobOfferRepository</text><rect fill="#E2E2F0" height="30.2969" rx="2.5" ry="2.5" style="stroke:#181818;stroke-width:0.5;" width="68" x="1945.5" y="87.2969"/><text fill="#000000" font-family="sans-serif" font-size="14" lengthAdjust="spacing" textLength="54" x="1952.5" y="107.292">JobOffer</text><rect fill="#E2E2F0" height="30.2969" rx="2.5" ry="2.5" style="stroke:#181818;stroke-width:0.5;" width="68" x="1945.5" y="1644.5"/><text fill="#000000" font-family="sans-serif" font-size="14" lengthAdjust="spacing" textLength="54" x="1952.5" y="1664.4951">JobOffer</text><rect fill="#E2E2F0" height="30.2969" rx="2.5" ry="2.5" style="stroke:#181818;stroke-width:0.5;" width="99" x="2023.5" y="87.2969"/><text fill="#000000" font-family="sans-serif" font-size="14" lengthAdjust="spacing" textLength="85" x="2030.5" y="107.292">JobOfferDTO</text><rect fill="#E2E2F0" height="30.2969" rx="2.5" ry="2.5" style="stroke:#181818;stroke-width:0.5;" width="99" x="2023.5" y="1644.5"/><text fill="#000000" font-family="sans-serif" font-size="14" lengthAdjust="spacing" textLength="85" x="2030.5" y="1664.4951">JobOfferDTO</text><rect fill="#E2E2F0" height="30.2969" rx="2.5" ry="2.5" style="stroke:#181818;stroke-width:0.5;" width="184" x="2132.5" y="87.2969"/><text fill="#000000" font-family="sans-serif" font-size="14" lengthAdjust="spacing" textLength="170" x="2139.5" y="107.292">JobApplicationRepository</text><rect fill="#E2E2F0" height="30.2969" rx="2.5" ry="2.5" style="stroke:#181818;stroke-width:0.5;" width="184" x="2132.5" y="1644.5"/><text fill="#000000" font-family="sans-serif" font-size="14" lengthAdjust="spacing" textLength="170" x="2139.5" y="1664.4951">JobApplicationRepository</text><rect fill="#E2E2F0" height="30.2969" rx="2.5" ry="2.5" style="stroke:#181818;stroke-width:0.5;" width="110" x="2326.5" y="87.2969"/><text fill="#000000" font-family="sans-serif" font-size="14" lengthAdjust="spacing" textLength="96" x="2333.5" y="107.292">JobApplication</text><rect fill="#E2E2F0" height="30.2969" rx="2.5" ry="2.5" style="stroke:#181818;stroke-width:0.5;" width="110" x="2326.5" y="1644.5"/><text fill="#000000" font-family="sans-serif" font-size="14" lengthAdjust="spacing" textLength="96" x="2333.5" y="1664.4951">JobApplication</text><rect fill="#E2E2F0" height="30.2969" rx="2.5" ry="2.5" style="stroke:#181818;stroke-width:0.5;" width="120" x="2446.5" y="87.2969"/><text fill="#000000" font-family="sans-serif" font-size="14" lengthAdjust="spacing" textLength="106" x="2453.5" y="107.292">ApplicationDTO</text><rect fill="#E2E2F0" height="30.2969" rx="2.5" ry="2.5" style="stroke:#181818;stroke-width:0.5;" width="120" x="2446.5" y="1644.5"/><text fill="#000000" font-family="sans-serif" font-size="14" lengthAdjust="spacing" textLength="106" x="2453.5" y="1664.4951">ApplicationDTO</text><rect fill="#FFFFFF" height="1498.9063" style="stroke:#181818;stroke-width:1.0;" width="10" x="69" y="128.5938"/><rect fill="#FFFFFF" height="1477.7734" style="stroke:#181818;stroke-width:1.0;" width="10" x="210" y="149.7266"/><rect fill="#FFFFFF" height="409.8594" style="stroke:#181818;stroke-width:1.0;" width="10" x="331.5" y="178.8594"/><rect fill="#FFFFFF" height="1009.6484" style="stroke:#181818;stroke-width:1.0;" width="10" x="331.5" y="617.8516"/><rect fill="#FFFFFF" height="58.2656" style="stroke:#181818;stroke-width:1.0;" width="10" x="569.5" y="207.9922"/><rect fill="#FFFFFF" height="264.1953" style="stroke:#181818;stroke-width:1.0;" width="10" x="569.5" y="295.3906"/><rect fill="#FFFFFF" height="145.6641" style="stroke:#181818;stroke-width:1.0;" width="10" x="569.5" y="646.9844"/><rect fill="#FFFFFF" height="145.6641" style="stroke:#181818;stroke-width:1.0;" width="10" x="569.5" y="821.7813"/><rect fill="#FFFFFF" height="601.7891" style="stroke:#181818;stroke-width:1.0;" width="10" x="569.5" y="996.5781"/><rect fill="#FFFFFF" height="29.1328" style="stroke:#181818;stroke-width:1.0;" width="10" x="750.5" y="237.125"/><rect fill="#FFFFFF" height="205.9297" style="stroke:#181818;stroke-width:1.0;" width="10" x="1054" y="324.5234"/><rect fill="#FFFFFF" height="87.3984" style="stroke:#181818;stroke-width:1.0;" width="10" x="1054" y="676.1172"/><rect fill="#FFFFFF" height="87.3984" style="stroke:#181818;stroke-width:1.0;" width="10" x="1054" y="1025.7109"/><rect fill="#FFFFFF" height="87.3984" style="stroke:#181818;stroke-width:1.0;" width="10" x="1226" y="850.9141"/><rect fill="#FFFFFF" height="87.3984" style="stroke:#181818;stroke-width:1.0;" width="10" x="1226" y="1142.2422"/><rect fill="#FFFFFF" height="310.4609" style="stroke:#181818;stroke-width:1.0;" width="10" x="1453" y="1258.7734"/><rect fill="#FFFFFF" height="29.1328" style="stroke:#181818;stroke-width:1.0;" width="10" x="1699" y="1351.3047"/><rect fill="#FFFFFF" height="29.1328" style="stroke:#181818;stroke-width:1.0;" width="10" x="1859.5" y="353.6563"/><rect fill="#FFFFFF" height="29.1328" style="stroke:#181818;stroke-width:1.0;" width="10" x="1859.5" y="705.25"/><rect fill="#FFFFFF" height="29.1328" style="stroke:#181818;stroke-width:1.0;" width="10" x="1859.5" y="1054.8438"/><rect fill="#FFFFFF" height="58.2656" style="stroke:#181818;stroke-width:1.0;" width="10" x="1974.5" y="436.0547"/><rect fill="#FFFFFF" height="29.1328" style="stroke:#181818;stroke-width:1.0;" width="10" x="2219.5" y="880.0469"/><rect fill="#FFFFFF" height="29.1328" style="stroke:#181818;stroke-width:1.0;" width="10" x="2219.5" y="1171.375"/><rect fill="#FFFFFF" height="58.2656" style="stroke:#181818;stroke-width:1.0;" width="10" x="2376.5" y="1467.8359"/><polygon fill="#181818" points="198,145.7266,208,149.7266,198,153.7266,202,149.7266" style="stroke:#181818;stroke-width:1.0;"/><line style="stroke:#181818;stroke-width:1.0;" x1="79" x2="204" y1="149.7266" y2="149.7266"/><text fill="#000000" font-family="sans-serif" font-size="13" font-weight="bold" lengthAdjust="spacing" textLength="9" x="86" y="144.6606">1</text><text fill="#000000" font-family="sans-serif" font-size="13" lengthAdjust="spacing" textLength="99" x="99" y="144.6606">grade inteviews</text><polygon fill="#181818" points="319.5,174.8594,329.5,178.8594,319.5,182.8594,323.5,178.8594" style="stroke:#181818;stroke-width:1.0;"/><line style="stroke:#181818;stroke-width:1.0;" x1="220" x2="325.5" y1="178.8594" y2="178.8594"/><text fill="#000000" font-family="sans-serif" font-size="13" font-weight="bold" lengthAdjust="spacing" textLength="9" x="227" y="173.7935">2</text><text fill="#000000" font-family="sans-serif" font-size="13" lengthAdjust="spacing" textLength="42" x="240" y="173.7935">show()</text><polygon fill="#181818" points="557.5,203.9922,567.5,207.9922,557.5,211.9922,561.5,207.9922" style="stroke:#181818;stroke-width:1.0;"/><line style="stroke:#181818;stroke-width:1.0;" x1="341.5" x2="563.5" y1="207.9922" y2="207.9922"/><text fill="#000000" font-family="sans-serif" font-size="13" font-weight="bold" lengthAdjust="spacing" textLength="9" x="348.5" y="202.9263">3</text><text fill="#000000" font-family="sans-serif" font-size="13" lengthAdjust="spacing" textLength="51" x="361.5" y="202.9263">create()</text><polygon fill="#181818" points="738.5,233.125,748.5,237.125,738.5,241.125,742.5,237.125" style="stroke:#181818;stroke-width:1.0;"/><line style="stroke:#181818;stroke-width:1.0;" x1="579.5" x2="744.5" y1="237.125" y2="237.125"/><text fill="#000000" font-family="sans-serif" font-size="13" font-weight="bold" lengthAdjust="spacing" textLength="9" x="586.5" y="232.0591">4</text><text fill="#000000" font-family="sans-serif" font-size="13" lengthAdjust="spacing" textLength="85" x="599.5" y="232.0591">repositories()</text><polygon fill="#181818" points="897.5,262.2578,907.5,266.2578,897.5,270.2578,901.5,266.2578" style="stroke:#181818;stroke-width:1.0;"/><line style="stroke:#181818;stroke-width:1.0;" x1="755.5" x2="903.5" y1="266.2578" y2="266.2578"/><text fill="#000000" font-family="sans-serif" font-size="13" font-weight="bold" lengthAdjust="spacing" textLength="9" x="762.5" y="261.1919">5</text><text fill="#000000" font-family="sans-serif" font-size="13" lengthAdjust="spacing" textLength="51" x="775.5" y="261.1919">create()</text><polygon fill="#181818" points="557.5,291.3906,567.5,295.3906,557.5,299.3906,561.5,295.3906" style="stroke:#181818;stroke-width:1.0;"/><line style="stroke:#181818;stroke-width:1.0;" x1="341.5" x2="563.5" y1="295.3906" y2="295.3906"/><text fill="#000000" font-family="sans-serif" font-size="13" font-weight="bold" lengthAdjust="spacing" textLength="9" x="348.5" y="290.3247">6</text><text fill="#000000" font-family="sans-serif" font-size="13" lengthAdjust="spacing" textLength="88" x="361.5" y="290.3247">getJobOffers()</text><polygon fill="#181818" points="1042,320.5234,1052,324.5234,1042,328.5234,1046,324.5234" style="stroke:#181818;stroke-width:1.0;"/><line style="stroke:#181818;stroke-width:1.0;" x1="579.5" x2="1048" y1="324.5234" y2="324.5234"/><text fill="#000000" font-family="sans-serif" font-size="13" font-weight="bold" lengthAdjust="spacing" textLength="9" x="586.5" y="319.4575">7</text><text fill="#000000" font-family="sans-serif" font-size="13" lengthAdjust="spacing" textLength="216" x="599.5" y="319.4575">getJobOffersOfManager(manager)</text><polygon fill="#181818" points="1847.5,349.6563,1857.5,353.6563,1847.5,357.6563,1851.5,353.6563" style="stroke:#181818;stroke-width:1.0;"/><line style="stroke:#181818;stroke-width:1.0;" x1="1064" x2="1853.5" y1="353.6563" y2="353.6563"/><text fill="#000000" font-family="sans-serif" font-size="13" font-weight="bold" lengthAdjust="spacing" textLength="9" x="1071" y="348.5903">8</text><text fill="#000000" font-family="sans-serif" font-size="13" lengthAdjust="spacing" textLength="214" x="1084" y="348.5903">findAllOffersOfManager(manager)</text><polygon fill="#181818" points="1075,378.7891,1065,382.7891,1075,386.7891,1071,382.7891" style="stroke:#181818;stroke-width:1.0;"/><line style="stroke:#181818;stroke-width:1.0;stroke-dasharray:2.0,2.0;" x1="1069" x2="1863.5" y1="382.7891" y2="382.7891"/><text fill="#000000" font-family="sans-serif" font-size="13" font-weight="bold" lengthAdjust="spacing" textLength="9" x="1081" y="377.7231">9</text><text fill="#000000" font-family="sans-serif" font-size="13" lengthAdjust="spacing" textLength="36" x="1094" y="377.7231">offers</text><path d="M978.5,397.7891 L1055.5,397.7891 L1055.5,404.9219 L1045.5,414.9219 L978.5,414.9219 L978.5,397.7891 " fill="#EEEEEE" style="stroke:#000000;stroke-width:1.5;"/><rect fill="none" height="104.5313" style="stroke:#000000;stroke-width:1.5;" width="1154" x="978.5" y="397.7891"/><text fill="#000000" font-family="sans-serif" font-size="13" font-weight="bold" lengthAdjust="spacing" textLength="32" x="993.5" y="410.856">loop</text><text fill="#000000" font-family="sans-serif" font-size="11" font-weight="bold" lengthAdjust="spacing" textLength="98" x="1070.5" y="409.9995">[for each offer]</text><polygon fill="#181818" points="1962.5,432.0547,1972.5,436.0547,1962.5,440.0547,1966.5,436.0547" style="stroke:#181818;stroke-width:1.0;"/><line style="stroke:#181818;stroke-width:1.0;" x1="1064" x2="1968.5" y1="436.0547" y2="436.0547"/><text fill="#000000" font-family="sans-serif" font-size="13" font-weight="bold" lengthAdjust="spacing" textLength="18" x="1071" y="430.9888">10</text><text fill="#000000" font-family="sans-serif" font-size="13" lengthAdjust="spacing" textLength="50" x="1093" y="430.9888">toDTO()</text><polygon fill="#181818" points="2061,461.1875,2071,465.1875,2061,469.1875,2065,465.1875" style="stroke:#181818;stroke-width:1.0;"/><line style="stroke:#181818;stroke-width:1.0;" x1="1984.5" x2="2067" y1="465.1875" y2="465.1875"/><text fill="#000000" font-family="sans-serif" font-size="13" font-weight="bold" lengthAdjust="spacing" textLength="18" x="1991.5" y="460.1216">11</text><text fill="#000000" font-family="sans-serif" font-size="13" lengthAdjust="spacing" textLength="41" x="2013.5" y="460.1216">create</text><polygon fill="#181818" points="1075,490.3203,1065,494.3203,1075,498.3203,1071,494.3203" style="stroke:#181818;stroke-width:1.0;"/><line style="stroke:#181818;stroke-width:1.0;stroke-dasharray:2.0,2.0;" x1="1069" x2="1978.5" y1="494.3203" y2="494.3203"/><text fill="#000000" font-family="sans-serif" font-size="13" font-weight="bold" lengthAdjust="spacing" textLength="18" x="1081" y="489.2544">12</text><text fill="#000000" font-family="sans-serif" font-size="13" lengthAdjust="spacing" textLength="77" x="1103" y="489.2544">jobOfferDTO</text><polygon fill="#181818" points="590.5,526.4531,580.5,530.4531,590.5,534.4531,586.5,530.4531" style="stroke:#181818;stroke-width:1.0;"/><line style="stroke:#181818;stroke-width:1.0;stroke-dasharray:2.0,2.0;" x1="584.5" x2="1058" y1="530.4531" y2="530.4531"/><text fill="#000000" font-family="sans-serif" font-size="13" font-weight="bold" lengthAdjust="spacing" textLength="18" x="596.5" y="525.3872">13</text><text fill="#000000" font-family="sans-serif" font-size="13" lengthAdjust="spacing" textLength="83" x="618.5" y="525.3872">listOffersDTO</text><polygon fill="#181818" points="352.5,555.5859,342.5,559.5859,352.5,563.5859,348.5,559.5859" style="stroke:#181818;stroke-width:1.0;"/><line style="stroke:#181818;stroke-width:1.0;stroke-dasharray:2.0,2.0;" x1="346.5" x2="573.5" y1="559.5859" y2="559.5859"/><text fill="#000000" font-family="sans-serif" font-size="13" font-weight="bold" lengthAdjust="spacing" textLength="18" x="358.5" y="554.52">14</text><text fill="#000000" font-family="sans-serif" font-size="13" lengthAdjust="spacing" textLength="83" x="380.5" y="554.52">listOffersDTO</text><polygon fill="#181818" points="90,584.7188,80,588.7188,90,592.7188,86,588.7188" style="stroke:#181818;stroke-width:1.0;"/><line style="stroke:#181818;stroke-width:1.0;stroke-dasharray:2.0,2.0;" x1="84" x2="335.5" y1="588.7188" y2="588.7188"/><text fill="#000000" font-family="sans-serif" font-size="13" font-weight="bold" lengthAdjust="spacing" textLength="18" x="96" y="583.6528">15</text><text fill="#000000" font-family="sans-serif" font-size="13" lengthAdjust="spacing" textLength="79" x="118" y="583.6528">choose offer</text><polygon fill="#181818" points="319.5,613.8516,329.5,617.8516,319.5,621.8516,323.5,617.8516" style="stroke:#181818;stroke-width:1.0;"/><line style="stroke:#181818;stroke-width:1.0;" x1="79" x2="325.5" y1="617.8516" y2="617.8516"/><text fill="#000000" font-family="sans-serif" font-size="13" font-weight="bold" lengthAdjust="spacing" textLength="18" x="86" y="612.7856">16</text><text fill="#000000" font-family="sans-serif" font-size="13" lengthAdjust="spacing" textLength="71" x="108" y="612.7856">select offer</text><polygon fill="#181818" points="557.5,642.9844,567.5,646.9844,557.5,650.9844,561.5,646.9844" style="stroke:#181818;stroke-width:1.0;"/><line style="stroke:#181818;stroke-width:1.0;" x1="341.5" x2="563.5" y1="646.9844" y2="646.9844"/><text fill="#000000" font-family="sans-serif" font-size="13" font-weight="bold" lengthAdjust="spacing" textLength="18" x="348.5" y="641.9185">17</text><text fill="#000000" font-family="sans-serif" font-size="13" lengthAdjust="spacing" textLength="146" x="370.5" y="641.9185">getPlugin(JobOfferDTO)</text><polygon fill="#181818" points="1042,672.1172,1052,676.1172,1042,680.1172,1046,676.1172" style="stroke:#181818;stroke-width:1.0;"/><line style="stroke:#181818;stroke-width:1.0;" x1="579.5" x2="1048" y1="676.1172" y2="676.1172"/><text fill="#000000" font-family="sans-serif" font-size="13" font-weight="bold" lengthAdjust="spacing" textLength="18" x="586.5" y="671.0513">18</text><text fill="#000000" font-family="sans-serif" font-size="13" lengthAdjust="spacing" textLength="237" x="608.5" y="671.0513">getInterviewModelOfJobOffer(fferDTO)</text><polygon fill="#181818" points="1847.5,701.25,1857.5,705.25,1847.5,709.25,1851.5,705.25" style="stroke:#181818;stroke-width:1.0;"/><line style="stroke:#181818;stroke-width:1.0;" x1="1064" x2="1853.5" y1="705.25" y2="705.25"/><text fill="#000000" font-family="sans-serif" font-size="13" font-weight="bold" lengthAdjust="spacing" textLength="18" x="1071" y="700.1841">19</text><text fill="#000000" font-family="sans-serif" font-size="13" lengthAdjust="spacing" textLength="249" x="1093" y="700.1841">findInterviewByJobRefCode(jobRefCode)</text><polygon fill="#181818" points="1075,730.3828,1065,734.3828,1075,738.3828,1071,734.3828" style="stroke:#181818;stroke-width:1.0;"/><line style="stroke:#181818;stroke-width:1.0;stroke-dasharray:2.0,2.0;" x1="1069" x2="1863.5" y1="734.3828" y2="734.3828"/><text fill="#000000" font-family="sans-serif" font-size="13" font-weight="bold" lengthAdjust="spacing" textLength="18" x="1081" y="729.3169">20</text><text fill="#000000" font-family="sans-serif" font-size="13" lengthAdjust="spacing" textLength="94" x="1103" y="729.3169">interviewModel</text><polygon fill="#181818" points="590.5,759.5156,580.5,763.5156,590.5,767.5156,586.5,763.5156" style="stroke:#181818;stroke-width:1.0;"/><line style="stroke:#181818;stroke-width:1.0;stroke-dasharray:2.0,2.0;" x1="584.5" x2="1058" y1="763.5156" y2="763.5156"/><text fill="#000000" font-family="sans-serif" font-size="13" font-weight="bold" lengthAdjust="spacing" textLength="18" x="596.5" y="758.4497">21</text><text fill="#000000" font-family="sans-serif" font-size="13" lengthAdjust="spacing" textLength="94" x="618.5" y="758.4497">interviewModel</text><polygon fill="#181818" points="352.5,788.6484,342.5,792.6484,352.5,796.6484,348.5,792.6484" style="stroke:#181818;stroke-width:1.0;"/><line style="stroke:#181818;stroke-width:1.0;stroke-dasharray:2.0,2.0;" x1="346.5" x2="573.5" y1="792.6484" y2="792.6484"/><text fill="#000000" font-family="sans-serif" font-size="13" font-weight="bold" lengthAdjust="spacing" textLength="18" x="358.5" y="787.5825">22</text><text fill="#000000" font-family="sans-serif" font-size="13" lengthAdjust="spacing" textLength="60" x="380.5" y="787.5825">true/false</text><polygon fill="#181818" points="557.5,817.7813,567.5,821.7813,557.5,825.7813,561.5,821.7813" style="stroke:#181818;stroke-width:1.0;"/><line style="stroke:#181818;stroke-width:1.0;" x1="341.5" x2="563.5" y1="821.7813" y2="821.7813"/><text fill="#000000" font-family="sans-serif" font-size="13" font-weight="bold" lengthAdjust="spacing" textLength="18" x="348.5" y="816.7153">23</text><text fill="#000000" font-family="sans-serif" font-size="13" lengthAdjust="spacing" textLength="185" x="370.5" y="816.7153">getApplications(JobOfferDTO)</text><polygon fill="#181818" points="1214,846.9141,1224,850.9141,1214,854.9141,1218,850.9141" style="stroke:#181818;stroke-width:1.0;"/><line style="stroke:#181818;stroke-width:1.0;" x1="579.5" x2="1220" y1="850.9141" y2="850.9141"/><text fill="#000000" font-family="sans-serif" font-size="13" font-weight="bold" lengthAdjust="spacing" textLength="18" x="586.5" y="845.8481">24</text><text fill="#000000" font-family="sans-serif" font-size="13" lengthAdjust="spacing" textLength="316" x="608.5" y="845.8481">getJobApplicationsOfJobOfferNonDTO(jobRefCode)</text><polygon fill="#181818" points="2207.5,876.0469,2217.5,880.0469,2207.5,884.0469,2211.5,880.0469" style="stroke:#181818;stroke-width:1.0;"/><line style="stroke:#181818;stroke-width:1.0;" x1="1236" x2="2213.5" y1="880.0469" y2="880.0469"/><text fill="#000000" font-family="sans-serif" font-size="13" font-weight="bold" lengthAdjust="spacing" textLength="18" x="1243" y="874.981">25</text><text fill="#000000" font-family="sans-serif" font-size="13" lengthAdjust="spacing" textLength="261" x="1265" y="874.981">findAllApplicationsOfJobOffer(jobRefCode)</text><polygon fill="#181818" points="1247,905.1797,1237,909.1797,1247,913.1797,1243,909.1797" style="stroke:#181818;stroke-width:1.0;"/><line style="stroke:#181818;stroke-width:1.0;stroke-dasharray:2.0,2.0;" x1="1241" x2="2223.5" y1="909.1797" y2="909.1797"/><text fill="#000000" font-family="sans-serif" font-size="13" font-weight="bold" lengthAdjust="spacing" textLength="18" x="1253" y="904.1138">26</text><text fill="#000000" font-family="sans-serif" font-size="13" lengthAdjust="spacing" textLength="76" x="1275" y="904.1138">applications</text><polygon fill="#181818" points="590.5,934.3125,580.5,938.3125,590.5,942.3125,586.5,938.3125" style="stroke:#181818;stroke-width:1.0;"/><line style="stroke:#181818;stroke-width:1.0;stroke-dasharray:2.0,2.0;" x1="584.5" x2="1230" y1="938.3125" y2="938.3125"/><text fill="#000000" font-family="sans-serif" font-size="13" font-weight="bold" lengthAdjust="spacing" textLength="18" x="596.5" y="933.2466">27</text><text fill="#000000" font-family="sans-serif" font-size="13" lengthAdjust="spacing" textLength="76" x="618.5" y="933.2466">applications</text><polygon fill="#181818" points="352.5,963.4453,342.5,967.4453,352.5,971.4453,348.5,967.4453" style="stroke:#181818;stroke-width:1.0;"/><line style="stroke:#181818;stroke-width:1.0;stroke-dasharray:2.0,2.0;" x1="346.5" x2="573.5" y1="967.4453" y2="967.4453"/><text fill="#000000" font-family="sans-serif" font-size="13" font-weight="bold" lengthAdjust="spacing" textLength="18" x="358.5" y="962.3794">28</text><text fill="#000000" font-family="sans-serif" font-size="13" lengthAdjust="spacing" textLength="60" x="380.5" y="962.3794">true/false</text><polygon fill="#181818" points="557.5,992.5781,567.5,996.5781,557.5,1000.5781,561.5,996.5781" style="stroke:#181818;stroke-width:1.0;"/><line style="stroke:#181818;stroke-width:1.0;" x1="341.5" x2="563.5" y1="996.5781" y2="996.5781"/><text fill="#000000" font-family="sans-serif" font-size="13" font-weight="bold" lengthAdjust="spacing" textLength="18" x="348.5" y="991.5122">29</text><text fill="#000000" font-family="sans-serif" font-size="13" lengthAdjust="spacing" textLength="187" x="370.5" y="991.5122">gradeInterviews(JobOfferDTO)</text><polygon fill="#181818" points="1042,1021.7109,1052,1025.7109,1042,1029.7109,1046,1025.7109" style="stroke:#181818;stroke-width:1.0;"/><line style="stroke:#181818;stroke-width:1.0;" x1="579.5" x2="1048" y1="1025.7109" y2="1025.7109"/><text fill="#000000" font-family="sans-serif" font-size="13" font-weight="bold" lengthAdjust="spacing" textLength="18" x="586.5" y="1020.645">30</text><text fill="#000000" font-family="sans-serif" font-size="13" lengthAdjust="spacing" textLength="237" x="608.5" y="1020.645">getInterviewModelOfJobOffer(fferDTO)</text><polygon fill="#181818" points="1847.5,1050.8438,1857.5,1054.8438,1847.5,1058.8438,1851.5,1054.8438" style="stroke:#181818;stroke-width:1.0;"/><line style="stroke:#181818;stroke-width:1.0;" x1="1064" x2="1853.5" y1="1054.8438" y2="1054.8438"/><text fill="#000000" font-family="sans-serif" font-size="13" font-weight="bold" lengthAdjust="spacing" textLength="18" x="1071" y="1049.7778">31</text><text fill="#000000" font-family="sans-serif" font-size="13" lengthAdjust="spacing" textLength="249" x="1093" y="1049.7778">findInterviewByJobRefCode(jobRefCode)</text><polygon fill="#181818" points="1075,1079.9766,1065,1083.9766,1075,1087.9766,1071,1083.9766" style="stroke:#181818;stroke-width:1.0;"/><line style="stroke:#181818;stroke-width:1.0;stroke-dasharray:2.0,2.0;" x1="1069" x2="1863.5" y1="1083.9766" y2="1083.9766"/><text fill="#000000" font-family="sans-serif" font-size="13" font-weight="bold" lengthAdjust="spacing" textLength="18" x="1081" y="1078.9106">32</text><text fill="#000000" font-family="sans-serif" font-size="13" lengthAdjust="spacing" textLength="94" x="1103" y="1078.9106">interviewModel</text><polygon fill="#181818" points="590.5,1109.1094,580.5,1113.1094,590.5,1117.1094,586.5,1113.1094" style="stroke:#181818;stroke-width:1.0;"/><line style="stroke:#181818;stroke-width:1.0;stroke-dasharray:2.0,2.0;" x1="584.5" x2="1058" y1="1113.1094" y2="1113.1094"/><text fill="#000000" font-family="sans-serif" font-size="13" font-weight="bold" lengthAdjust="spacing" textLength="18" x="596.5" y="1108.0435">33</text><text fill="#000000" font-family="sans-serif" font-size="13" lengthAdjust="spacing" textLength="94" x="618.5" y="1108.0435">interviewModel</text><polygon fill="#181818" points="1214,1138.2422,1224,1142.2422,1214,1146.2422,1218,1142.2422" style="stroke:#181818;stroke-width:1.0;"/><line style="stroke:#181818;stroke-width:1.0;" x1="579.5" x2="1220" y1="1142.2422" y2="1142.2422"/><text fill="#000000" font-family="sans-serif" font-size="13" font-weight="bold" lengthAdjust="spacing" textLength="18" x="586.5" y="1137.1763">34</text><text fill="#000000" font-family="sans-serif" font-size="13" lengthAdjust="spacing" textLength="316" x="608.5" y="1137.1763">getJobApplicationsOfJobOfferNonDTO(jobRefCode)</text><polygon fill="#181818" points="2207.5,1167.375,2217.5,1171.375,2207.5,1175.375,2211.5,1171.375" style="stroke:#181818;stroke-width:1.0;"/><line style="stroke:#181818;stroke-width:1.0;" x1="1236" x2="2213.5" y1="1171.375" y2="1171.375"/><text fill="#000000" font-family="sans-serif" font-size="13" font-weight="bold" lengthAdjust="spacing" textLength="18" x="1243" y="1166.3091">35</text><text fill="#000000" font-family="sans-serif" font-size="13" lengthAdjust="spacing" textLength="261" x="1265" y="1166.3091">findAllApplicationsOfJobOffer(jobRefCode)</text><polygon fill="#181818" points="1247,1196.5078,1237,1200.5078,1247,1204.5078,1243,1200.5078" style="stroke:#181818;stroke-width:1.0;"/><line style="stroke:#181818;stroke-width:1.0;stroke-dasharray:2.0,2.0;" x1="1241" x2="2223.5" y1="1200.5078" y2="1200.5078"/><text fill="#000000" font-family="sans-serif" font-size="13" font-weight="bold" lengthAdjust="spacing" textLength="18" x="1253" y="1195.4419">36</text><text fill="#000000" font-family="sans-serif" font-size="13" lengthAdjust="spacing" textLength="76" x="1275" y="1195.4419">applications</text><polygon fill="#181818" points="590.5,1225.6406,580.5,1229.6406,590.5,1233.6406,586.5,1229.6406" style="stroke:#181818;stroke-width:1.0;"/><line style="stroke:#181818;stroke-width:1.0;stroke-dasharray:2.0,2.0;" x1="584.5" x2="1230" y1="1229.6406" y2="1229.6406"/><text fill="#000000" font-family="sans-serif" font-size="13" font-weight="bold" lengthAdjust="spacing" textLength="18" x="596.5" y="1224.5747">37</text><text fill="#000000" font-family="sans-serif" font-size="13" lengthAdjust="spacing" textLength="76" x="618.5" y="1224.5747">applications</text><polygon fill="#181818" points="1441,1254.7734,1451,1258.7734,1441,1262.7734,1445,1258.7734" style="stroke:#181818;stroke-width:1.0;"/><line style="stroke:#181818;stroke-width:1.0;" x1="579.5" x2="1447" y1="1258.7734" y2="1258.7734"/><text fill="#000000" font-family="sans-serif" font-size="13" font-weight="bold" lengthAdjust="spacing" textLength="18" x="586.5" y="1253.7075">38</text><text fill="#000000" font-family="sans-serif" font-size="13" lengthAdjust="spacing" textLength="282" x="608.5" y="1253.7075">gradeAndSave(applications, interviewModel)</text><path d="M1312.5,1273.7734 L1389.5,1273.7734 L1389.5,1280.9063 L1379.5,1290.9063 L1312.5,1290.9063 L1312.5,1273.7734 " fill="#EEEEEE" style="stroke:#000000;stroke-width:1.5;"/><rect fill="none" height="267.3281" style="stroke:#000000;stroke-width:1.5;" width="1274" x="1312.5" y="1273.7734"/><text fill="#000000" font-family="sans-serif" font-size="13" font-weight="bold" lengthAdjust="spacing" textLength="32" x="1327.5" y="1286.8403">loop</text><text fill="#000000" font-family="sans-serif" font-size="11" font-weight="bold" lengthAdjust="spacing" textLength="139" x="1404.5" y="1285.9839">[for each application]</text><path d="M1322.5,1297.9063 L1386.5,1297.9063 L1386.5,1305.0391 L1376.5,1315.0391 L1322.5,1315.0391 L1322.5,1297.9063 " fill="#EEEEEE" style="stroke:#000000;stroke-width:1.5;"/><rect fill="none" height="236.1953" style="stroke:#000000;stroke-width:1.5;" width="1254" x="1322.5" y="1297.9063"/><text fill="#000000" font-family="sans-serif" font-size="13" font-weight="bold" lengthAdjust="spacing" textLength="19" x="1337.5" y="1310.9731">alt</text><text fill="#000000" font-family="sans-serif" font-size="11" font-weight="bold" lengthAdjust="spacing" textLength="122" x="1401.5" y="1310.1167">[has interview file]</text><polygon fill="#181818" points="1687,1347.3047,1697,1351.3047,1687,1355.3047,1691,1351.3047" style="stroke:#181818;stroke-width:1.0;"/><line style="stroke:#181818;stroke-width:1.0;" x1="1463" x2="1693" y1="1351.3047" y2="1351.3047"/><text fill="#000000" font-family="sans-serif" font-size="13" font-weight="bold" lengthAdjust="spacing" textLength="18" x="1470" y="1338.6724">39</text><text fill="#000000" font-family="sans-serif" font-size="13" lengthAdjust="spacing" textLength="176" x="1492" y="1331.106">activateEvaluationFunction(</text><text fill="#000000" font-family="sans-serif" font-size="13" lengthAdjust="spacing" textLength="195" x="1492" y="1346.2388">interviewModel, answers, type)</text><polygon fill="#181818" points="1474,1376.4375,1464,1380.4375,1474,1384.4375,1470,1380.4375" style="stroke:#181818;stroke-width:1.0;"/><line style="stroke:#181818;stroke-width:1.0;stroke-dasharray:2.0,2.0;" x1="1468" x2="1703" y1="1380.4375" y2="1380.4375"/><text fill="#000000" font-family="sans-serif" font-size="13" font-weight="bold" lengthAdjust="spacing" textLength="18" x="1480" y="1375.3716">40</text><text fill="#000000" font-family="sans-serif" font-size="13" lengthAdjust="spacing" textLength="37" x="1502" y="1375.3716">grade</text><polygon fill="#181818" points="2369.5,1405.5703,2379.5,1409.5703,2369.5,1413.5703,2373.5,1409.5703" style="stroke:#181818;stroke-width:1.0;"/><line style="stroke:#181818;stroke-width:1.0;" x1="1463" x2="2375.5" y1="1409.5703" y2="1409.5703"/><text fill="#000000" font-family="sans-serif" font-size="13" font-weight="bold" lengthAdjust="spacing" textLength="18" x="1470" y="1404.5044">41</text><text fill="#000000" font-family="sans-serif" font-size="13" lengthAdjust="spacing" textLength="110" x="1492" y="1404.5044">addGrade(grade)</text><polygon fill="#181818" points="2212.5,1434.7031,2222.5,1438.7031,2212.5,1442.7031,2216.5,1438.7031" style="stroke:#181818;stroke-width:1.0;"/><line style="stroke:#181818;stroke-width:1.0;" x1="1463" x2="2218.5" y1="1438.7031" y2="1438.7031"/><text fill="#000000" font-family="sans-serif" font-size="13" font-weight="bold" lengthAdjust="spacing" textLength="18" x="1470" y="1433.6372">42</text><text fill="#000000" font-family="sans-serif" font-size="13" lengthAdjust="spacing" textLength="30" x="1492" y="1433.6372">save</text><polygon fill="#181818" points="2364.5,1463.8359,2374.5,1467.8359,2364.5,1471.8359,2368.5,1467.8359" style="stroke:#181818;stroke-width:1.0;"/><line style="stroke:#181818;stroke-width:1.0;" x1="1463" x2="2370.5" y1="1467.8359" y2="1467.8359"/><text fill="#000000" font-family="sans-serif" font-size="13" font-weight="bold" lengthAdjust="spacing" textLength="18" x="1470" y="1462.77">43</text><text fill="#000000" font-family="sans-serif" font-size="13" lengthAdjust="spacing" textLength="50" x="1492" y="1462.77">toDTO()</text><polygon fill="#181818" points="2494.5,1492.9688,2504.5,1496.9688,2494.5,1500.9688,2498.5,1496.9688" style="stroke:#181818;stroke-width:1.0;"/><line style="stroke:#181818;stroke-width:1.0;" x1="2386.5" x2="2500.5" y1="1496.9688" y2="1496.9688"/><text fill="#000000" font-family="sans-serif" font-size="13" font-weight="bold" lengthAdjust="spacing" textLength="18" x="2393.5" y="1491.9028">44</text><text fill="#000000" font-family="sans-serif" font-size="13" lengthAdjust="spacing" textLength="41" x="2415.5" y="1491.9028">create</text><polygon fill="#181818" points="1474,1522.1016,1464,1526.1016,1474,1530.1016,1470,1526.1016" style="stroke:#181818;stroke-width:1.0;"/><line style="stroke:#181818;stroke-width:1.0;stroke-dasharray:2.0,2.0;" x1="1468" x2="2380.5" y1="1526.1016" y2="1526.1016"/><text fill="#000000" font-family="sans-serif" font-size="13" font-weight="bold" lengthAdjust="spacing" textLength="18" x="1480" y="1521.0356">45</text><text fill="#000000" font-family="sans-serif" font-size="13" lengthAdjust="spacing" textLength="88" x="1502" y="1521.0356">applicatioDTO</text><polygon fill="#181818" points="590.5,1565.2344,580.5,1569.2344,590.5,1573.2344,586.5,1569.2344" style="stroke:#181818;stroke-width:1.0;"/><line style="stroke:#181818;stroke-width:1.0;stroke-dasharray:2.0,2.0;" x1="584.5" x2="1457" y1="1569.2344" y2="1569.2344"/><text fill="#000000" font-family="sans-serif" font-size="13" font-weight="bold" lengthAdjust="spacing" textLength="18" x="596.5" y="1564.1685">46</text><text fill="#000000" font-family="sans-serif" font-size="13" lengthAdjust="spacing" textLength="103" x="618.5" y="1564.1685">applicationsDTO</text><polygon fill="#181818" points="352.5,1594.3672,342.5,1598.3672,352.5,1602.3672,348.5,1598.3672" style="stroke:#181818;stroke-width:1.0;"/><line style="stroke:#181818;stroke-width:1.0;stroke-dasharray:2.0,2.0;" x1="346.5" x2="573.5" y1="1598.3672" y2="1598.3672"/><text fill="#000000" font-family="sans-serif" font-size="13" font-weight="bold" lengthAdjust="spacing" textLength="18" x="358.5" y="1593.3013">47</text><text fill="#000000" font-family="sans-serif" font-size="13" lengthAdjust="spacing" textLength="103" x="380.5" y="1593.3013">applicationsDTO</text><polygon fill="#181818" points="85,1623.5,75,1627.5,85,1631.5,81,1627.5" style="stroke:#181818;stroke-width:1.0;"/><line style="stroke:#181818;stroke-width:1.0;stroke-dasharray:2.0,2.0;" x1="79" x2="335.5" y1="1627.5" y2="1627.5"/><text fill="#000000" font-family="sans-serif" font-size="13" font-weight="bold" lengthAdjust="spacing" textLength="18" x="91" y="1622.4341">48</text><text fill="#000000" font-family="sans-serif" font-size="13" lengthAdjust="spacing" textLength="76" x="113" y="1622.4341">applications</text><!--SRC=[xLTDJzmm43rlVaN4fK5Yk-LMSK2YK5ggKYgst7enYNVNoB5JsrdAl-_u8uxjzKQeI9pWiEpQRzvuPjuuatSRfJfvibXq537Lj_HzpTk5n7zwp6eyRmXQ2zGMXIAAudBfriiBkrxEoxjbUVpX-6DHe5vnrhVtMC3tMd5H7fptKl4MY_8QCRJ6uc2c_v0iwxRea52a9XruXMt2hZ7hPyD-6-z_4QZ1LqnXiINuKTvTELXFfc3dd2d1ASN2-bI2Hl2VM4WYbOv7G_5VvMYxSICokCKTbmGYUxeq0Juvl83r2FWThB_n-vlL2ekbFasD7PJh9McNSYPdNKT9ZHJXp1k26OLTr7KvmzZ89hh5J0tcOBt7yYVjruHzHQoXuJ5r0ipE7cycgZ4LOM0xYHZWlh06beLS_Bg9KOtY4u661x0Xvfm71WCt82DK01cEO57QlnOosIA5jMABMGs2FmLnbYVbMckj920RepNOzD1MGsUjmVO4i7B37wj3lUWne5puEODj06bb0gmM6BOiS4GQsUfJcGy31PD0ec0fXcGGB9tzI12gsOGNsWALDWwzQqY3i-P5l6MEjXF66dljosmmKI1XGoJ6DojtRLIj_Pz65ZMJZIsY6-XTX2l2cZDAfyaJTYEgsKXjgEQxvxO_BJB8KCnXjoddNRc2wn5W6zSGeOlqzC2kE4XpA6nwHBTeZRqLgDSNDK7idlvXx467JMEmo_OJioQRxL42-hgoQHuOYnnfL3ehYA5bOeOftMclkY7h3USIZ_aCyBRPwg0XCSMr6h6JRGcIj3Tb5LnL_w5h_s2wvWq65GviLKJv8dLx5v-UWFqMhyx1LVNWlxvCuoGAO4Bhq-98Q2QL4LzxG_cKwF5YXQXy_eqKtF8ohgDpCL7A-E7hBwcGSgpc3_COsSsvvqyUvUvEY5s0K_T06w-jlBkfuWxFH7TfEC9vBY8KaEyKDk39dzPbEaEJ5ZSN_0jh6yzyRptwwZtwrYkltIkdPPnYtG9dh5cYBQv2sgEaZeUZd_30INgZyIIWyzC7LUK6HcJF3LcdWxN9NL2Qw4r29y_v_Rn5j3UqbpshzV_gDujFUrGY9Xz1PqUbUkfyoSB9DdfDSRkpsEKycwq17Cwv4Pbdsr6Q3g9fpAjcPRWEzsETAYKKPaz-B64otqNL2TcTHMwsizjfi6Fvnj4kaUlWT9pgzBTnsik8Dsc2VJFUz4MVCZndnejw9ZFZ1R_rIrX8rnR_0000]--></g></svg>