<?xml version="1.0" encoding="us-ascii" standalone="no"?><svg xmlns="http://www.w3.org/2000/svg" xmlns:xlink="http://www.w3.org/1999/xlink" contentStyleType="text/css" height="1304px" preserveAspectRatio="none" style="width:2263px;height:1304px;background:#FFFFFF;" version="1.1" viewBox="0 0 2263 1304" width="2263px" zoomAndPan="magnify"><defs/><g><text fill="#000000" font-family="sans-serif" font-size="14" font-weight="bold" lengthAdjust="spacing" textLength="193" x="1028" y="22.9951">Class Diagram - US 1018</text><!--class MainMenu--><g id="elem_MainMenu"><rect codeLine="5" fill="#F1F1F1" height="48" id="MainMenu" rx="2.5" ry="2.5" style="stroke:#181818;stroke-width:0.5;" width="103" x="573.5" y="44.2969"/><ellipse cx="588.5" cy="60.2969" fill="#ADD1B2" rx="11" ry="11" style="stroke:#181818;stroke-width:1.0;"/><path d="M591.4688,65.9375 Q590.8906,66.2344 590.25,66.375 Q589.6094,66.5313 588.9063,66.5313 Q586.4063,66.5313 585.0781,64.8906 Q583.7656,63.2344 583.7656,60.1094 Q583.7656,56.9844 585.0781,55.3281 Q586.4063,53.6719 588.9063,53.6719 Q589.6094,53.6719 590.25,53.8281 Q590.9063,53.9844 591.4688,54.2813 L591.4688,57 Q590.8438,56.4219 590.25,56.1563 Q589.6563,55.875 589.0313,55.875 Q587.6875,55.875 587,56.9531 Q586.3125,58.0156 586.3125,60.1094 Q586.3125,62.2031 587,63.2813 Q587.6875,64.3438 589.0313,64.3438 Q589.6563,64.3438 590.25,64.0781 Q590.8438,63.7969 591.4688,63.2188 L591.4688,65.9375 Z " fill="#000000"/><text fill="#000000" font-family="sans-serif" font-size="14" lengthAdjust="spacing" textLength="71" x="602.5" y="65.1436">MainMenu</text><line style="stroke:#181818;stroke-width:0.5;" x1="574.5" x2="675.5" y1="76.2969" y2="76.2969"/><line style="stroke:#181818;stroke-width:0.5;" x1="574.5" x2="675.5" y1="84.2969" y2="84.2969"/></g><!--class GradeInterviewsUI--><g id="elem_GradeInterviewsUI"><rect codeLine="8" fill="#F1F1F1" height="64.2969" id="GradeInterviewsUI" rx="2.5" ry="2.5" style="stroke:#181818;stroke-width:0.5;" width="156" x="547" y="169.2969"/><ellipse cx="562" cy="185.2969" fill="#ADD1B2" rx="11" ry="11" style="stroke:#181818;stroke-width:1.0;"/><path d="M564.9688,190.9375 Q564.3906,191.2344 563.75,191.375 Q563.1094,191.5313 562.4063,191.5313 Q559.9063,191.5313 558.5781,189.8906 Q557.2656,188.2344 557.2656,185.1094 Q557.2656,181.9844 558.5781,180.3281 Q559.9063,178.6719 562.4063,178.6719 Q563.1094,178.6719 563.75,178.8281 Q564.4063,178.9844 564.9688,179.2813 L564.9688,182 Q564.3438,181.4219 563.75,181.1563 Q563.1563,180.875 562.5313,180.875 Q561.1875,180.875 560.5,181.9531 Q559.8125,183.0156 559.8125,185.1094 Q559.8125,187.2031 560.5,188.2813 Q561.1875,189.3438 562.5313,189.3438 Q563.1563,189.3438 563.75,189.0781 Q564.3438,188.7969 564.9688,188.2188 L564.9688,190.9375 Z " fill="#000000"/><text fill="#000000" font-family="sans-serif" font-size="14" lengthAdjust="spacing" textLength="124" x="576" y="190.1436">GradeInterviewsUI</text><line style="stroke:#181818;stroke-width:0.5;" x1="548" x2="702" y1="201.2969" y2="201.2969"/><line style="stroke:#181818;stroke-width:0.5;" x1="548" x2="702" y1="209.2969" y2="209.2969"/><ellipse cx="558" cy="222.9453" fill="#84BE84" rx="3" ry="3" style="stroke:#038048;stroke-width:1.0;"/><text fill="#000000" font-family="sans-serif" font-size="14" lengthAdjust="spacing" textLength="47" x="567" y="226.292">show()</text></g><!--class GradeInterviewsController--><g id="elem_GradeInterviewsController"><rect codeLine="12" fill="#F1F1F1" height="129.4844" id="GradeInterviewsController" rx="2.5" ry="2.5" style="stroke:#181818;stroke-width:0.5;" width="453" x="398.5" y="310.2969"/><ellipse cx="531.75" cy="326.2969" fill="#ADD1B2" rx="11" ry="11" style="stroke:#181818;stroke-width:1.0;"/><path d="M534.7188,331.9375 Q534.1406,332.2344 533.5,332.375 Q532.8594,332.5313 532.1563,332.5313 Q529.6563,332.5313 528.3281,330.8906 Q527.0156,329.2344 527.0156,326.1094 Q527.0156,322.9844 528.3281,321.3281 Q529.6563,319.6719 532.1563,319.6719 Q532.8594,319.6719 533.5,319.8281 Q534.1563,319.9844 534.7188,320.2813 L534.7188,323 Q534.0938,322.4219 533.5,322.1563 Q532.9063,321.875 532.2813,321.875 Q530.9375,321.875 530.25,322.9531 Q529.5625,324.0156 529.5625,326.1094 Q529.5625,328.2031 530.25,329.2813 Q530.9375,330.3438 532.2813,330.3438 Q532.9063,330.3438 533.5,330.0781 Q534.0938,329.7969 534.7188,329.2188 L534.7188,331.9375 Z " fill="#000000"/><text fill="#000000" font-family="sans-serif" font-size="14" lengthAdjust="spacing" textLength="178" x="552.25" y="331.1436">GradeInterviewsController</text><line style="stroke:#181818;stroke-width:0.5;" x1="399.5" x2="850.5" y1="342.2969" y2="342.2969"/><line style="stroke:#181818;stroke-width:0.5;" x1="399.5" x2="850.5" y1="350.2969" y2="350.2969"/><ellipse cx="409.5" cy="363.9453" fill="#84BE84" rx="3" ry="3" style="stroke:#038048;stroke-width:1.0;"/><text fill="#000000" font-family="sans-serif" font-size="14" lengthAdjust="spacing" textLength="54" x="418.5" y="367.292">create()</text><ellipse cx="409.5" cy="380.2422" fill="#84BE84" rx="3" ry="3" style="stroke:#038048;stroke-width:1.0;"/><text fill="#000000" font-family="sans-serif" font-size="14" lengthAdjust="spacing" textLength="268" x="418.5" y="383.5889">getJobOffers() : Iterable&lt;JobOfferDTO&gt;</text><ellipse cx="409.5" cy="396.5391" fill="#84BE84" rx="3" ry="3" style="stroke:#038048;stroke-width:1.0;"/><text fill="#000000" font-family="sans-serif" font-size="14" lengthAdjust="spacing" textLength="229" x="418.5" y="399.8857">getPlugin(JobOfferDTO) : boolean</text><ellipse cx="409.5" cy="412.8359" fill="#84BE84" rx="3" ry="3" style="stroke:#038048;stroke-width:1.0;"/><text fill="#000000" font-family="sans-serif" font-size="14" lengthAdjust="spacing" textLength="270" x="418.5" y="416.1826">getApplications(JobOfferDTO) : boolean</text><ellipse cx="409.5" cy="429.1328" fill="#84BE84" rx="3" ry="3" style="stroke:#038048;stroke-width:1.0;"/><text fill="#000000" font-family="sans-serif" font-size="14" lengthAdjust="spacing" textLength="427" x="418.5" y="432.4795">gradeInterviews(JobOfferDto offer) : Iterable&lt;ApplicationDTO&gt;</text></g><!--class PersistenceContext--><g id="elem_PersistenceContext"><rect codeLine="20" fill="#F1F1F1" height="48" id="PersistenceContext" rx="2.5" ry="2.5" style="stroke:#181818;stroke-width:0.5;" width="168" x="7" y="508.2969"/><ellipse cx="22" cy="524.2969" fill="#ADD1B2" rx="11" ry="11" style="stroke:#181818;stroke-width:1.0;"/><path d="M24.9688,529.9375 Q24.3906,530.2344 23.75,530.375 Q23.1094,530.5313 22.4063,530.5313 Q19.9063,530.5313 18.5781,528.8906 Q17.2656,527.2344 17.2656,524.1094 Q17.2656,520.9844 18.5781,519.3281 Q19.9063,517.6719 22.4063,517.6719 Q23.1094,517.6719 23.75,517.8281 Q24.4063,517.9844 24.9688,518.2813 L24.9688,521 Q24.3438,520.4219 23.75,520.1563 Q23.1563,519.875 22.5313,519.875 Q21.1875,519.875 20.5,520.9531 Q19.8125,522.0156 19.8125,524.1094 Q19.8125,526.2031 20.5,527.2813 Q21.1875,528.3438 22.5313,528.3438 Q23.1563,528.3438 23.75,528.0781 Q24.3438,527.7969 24.9688,527.2188 L24.9688,529.9375 Z " fill="#000000"/><text fill="#000000" font-family="sans-serif" font-size="14" lengthAdjust="spacing" textLength="136" x="36" y="529.1436">PersistenceContext</text><line style="stroke:#181818;stroke-width:0.5;" x1="8" x2="174" y1="540.2969" y2="540.2969"/><line style="stroke:#181818;stroke-width:0.5;" x1="8" x2="174" y1="548.2969" y2="548.2969"/></g><!--class RepositoryFactory--><g id="elem_RepositoryFactory"><rect codeLine="22" fill="#F1F1F1" height="48" id="RepositoryFactory" rx="2.5" ry="2.5" style="stroke:#181818;stroke-width:0.5;" width="156" x="13" y="657.7969"/><ellipse cx="28" cy="673.7969" fill="#ADD1B2" rx="11" ry="11" style="stroke:#181818;stroke-width:1.0;"/><path d="M30.9688,679.4375 Q30.3906,679.7344 29.75,679.875 Q29.1094,680.0313 28.4063,680.0313 Q25.9063,680.0313 24.5781,678.3906 Q23.2656,676.7344 23.2656,673.6094 Q23.2656,670.4844 24.5781,668.8281 Q25.9063,667.1719 28.4063,667.1719 Q29.1094,667.1719 29.75,667.3281 Q30.4063,667.4844 30.9688,667.7813 L30.9688,670.5 Q30.3438,669.9219 29.75,669.6563 Q29.1563,669.375 28.5313,669.375 Q27.1875,669.375 26.5,670.4531 Q25.8125,671.5156 25.8125,673.6094 Q25.8125,675.7031 26.5,676.7813 Q27.1875,677.8438 28.5313,677.8438 Q29.1563,677.8438 29.75,677.5781 Q30.3438,677.2969 30.9688,676.7188 L30.9688,679.4375 Z " fill="#000000"/><text fill="#000000" font-family="sans-serif" font-size="14" lengthAdjust="spacing" textLength="124" x="42" y="678.6436">RepositoryFactory</text><line style="stroke:#181818;stroke-width:0.5;" x1="14" x2="168" y1="689.7969" y2="689.7969"/><line style="stroke:#181818;stroke-width:0.5;" x1="14" x2="168" y1="697.7969" y2="697.7969"/></g><!--class ListJobOfferService--><g id="elem_ListJobOfferService"><rect codeLine="24" fill="#F1F1F1" height="64.2969" id="ListJobOfferService" rx="2.5" ry="2.5" style="stroke:#181818;stroke-width:0.5;" width="517" x="210.5" y="500.2969"/><ellipse cx="401.25" cy="516.2969" fill="#ADD1B2" rx="11" ry="11" style="stroke:#181818;stroke-width:1.0;"/><path d="M404.2188,521.9375 Q403.6406,522.2344 403,522.375 Q402.3594,522.5313 401.6563,522.5313 Q399.1563,522.5313 397.8281,520.8906 Q396.5156,519.2344 396.5156,516.1094 Q396.5156,512.9844 397.8281,511.3281 Q399.1563,509.6719 401.6563,509.6719 Q402.3594,509.6719 403,509.8281 Q403.6563,509.9844 404.2188,510.2813 L404.2188,513 Q403.5938,512.4219 403,512.1563 Q402.4063,511.875 401.7813,511.875 Q400.4375,511.875 399.75,512.9531 Q399.0625,514.0156 399.0625,516.1094 Q399.0625,518.2031 399.75,519.2813 Q400.4375,520.3438 401.7813,520.3438 Q402.4063,520.3438 403,520.0781 Q403.5938,519.7969 404.2188,519.2188 L404.2188,521.9375 Z " fill="#000000"/><text fill="#000000" font-family="sans-serif" font-size="14" lengthAdjust="spacing" textLength="127" x="421.75" y="521.1436">ListJobOfferService</text><line style="stroke:#181818;stroke-width:0.5;" x1="211.5" x2="726.5" y1="532.2969" y2="532.2969"/><line style="stroke:#181818;stroke-width:0.5;" x1="211.5" x2="726.5" y1="540.2969" y2="540.2969"/><ellipse cx="221.5" cy="553.9453" fill="#84BE84" rx="3" ry="3" style="stroke:#038048;stroke-width:1.0;"/><text fill="#000000" font-family="sans-serif" font-size="14" lengthAdjust="spacing" textLength="491" x="230.5" y="557.292">getJobOffersOfManager(SystemUser manager) : Iterable&lt;JobOfferDTO&gt;</text></g><!--class JobOfferRepository--><g id="elem_JobOfferRepository"><rect codeLine="28" fill="#F1F1F1" height="64.2969" id="JobOfferRepository" rx="2.5" ry="2.5" style="stroke:#181818;stroke-width:0.5;" width="482" x="228" y="649.7969"/><ellipse cx="400.75" cy="665.7969" fill="#ADD1B2" rx="11" ry="11" style="stroke:#181818;stroke-width:1.0;"/><path d="M403.7188,671.4375 Q403.1406,671.7344 402.5,671.875 Q401.8594,672.0313 401.1563,672.0313 Q398.6563,672.0313 397.3281,670.3906 Q396.0156,668.7344 396.0156,665.6094 Q396.0156,662.4844 397.3281,660.8281 Q398.6563,659.1719 401.1563,659.1719 Q401.8594,659.1719 402.5,659.3281 Q403.1563,659.4844 403.7188,659.7813 L403.7188,662.5 Q403.0938,661.9219 402.5,661.6563 Q401.9063,661.375 401.2813,661.375 Q399.9375,661.375 399.25,662.4531 Q398.5625,663.5156 398.5625,665.6094 Q398.5625,667.7031 399.25,668.7813 Q399.9375,669.8438 401.2813,669.8438 Q401.9063,669.8438 402.5,669.5781 Q403.0938,669.2969 403.7188,668.7188 L403.7188,671.4375 Z " fill="#000000"/><text fill="#000000" font-family="sans-serif" font-size="14" lengthAdjust="spacing" textLength="128" x="421.25" y="670.6436">JobOfferRepository</text><line style="stroke:#181818;stroke-width:0.5;" x1="229" x2="709" y1="681.7969" y2="681.7969"/><line style="stroke:#181818;stroke-width:0.5;" x1="229" x2="709" y1="689.7969" y2="689.7969"/><ellipse cx="239" cy="703.4453" fill="#84BE84" rx="3" ry="3" style="stroke:#038048;stroke-width:1.0;"/><text fill="#000000" font-family="sans-serif" font-size="14" lengthAdjust="spacing" textLength="456" x="248" y="706.792">findAllOffersOfManager(SystemUser manager) : Iterable&lt;JobOffer&gt;</text></g><!--class JobOffer--><g id="elem_JobOffer"><rect codeLine="32" fill="#F1F1F1" height="64.2969" id="JobOffer" rx="2.5" ry="2.5" style="stroke:#181818;stroke-width:0.5;" width="179" x="702.5" y="880.7969"/><ellipse cx="760.75" cy="896.7969" fill="#ADD1B2" rx="11" ry="11" style="stroke:#181818;stroke-width:1.0;"/><path d="M763.7188,902.4375 Q763.1406,902.7344 762.5,902.875 Q761.8594,903.0313 761.1563,903.0313 Q758.6563,903.0313 757.3281,901.3906 Q756.0156,899.7344 756.0156,896.6094 Q756.0156,893.4844 757.3281,891.8281 Q758.6563,890.1719 761.1563,890.1719 Q761.8594,890.1719 762.5,890.3281 Q763.1563,890.4844 763.7188,890.7813 L763.7188,893.5 Q763.0938,892.9219 762.5,892.6563 Q761.9063,892.375 761.2813,892.375 Q759.9375,892.375 759.25,893.4531 Q758.5625,894.5156 758.5625,896.6094 Q758.5625,898.7031 759.25,899.7813 Q759.9375,900.8438 761.2813,900.8438 Q761.9063,900.8438 762.5,900.5781 Q763.0938,900.2969 763.7188,899.7188 L763.7188,902.4375 Z " fill="#000000"/><text fill="#000000" font-family="sans-serif" font-size="14" lengthAdjust="spacing" textLength="54" x="781.25" y="901.6436">JobOffer</text><line style="stroke:#181818;stroke-width:0.5;" x1="703.5" x2="880.5" y1="912.7969" y2="912.7969"/><line style="stroke:#181818;stroke-width:0.5;" x1="703.5" x2="880.5" y1="920.7969" y2="920.7969"/><ellipse cx="713.5" cy="934.4453" fill="#84BE84" rx="3" ry="3" style="stroke:#038048;stroke-width:1.0;"/><text fill="#000000" font-family="sans-serif" font-size="14" lengthAdjust="spacing" textLength="153" x="722.5" y="937.792">toDTO() : JobOfferDTO</text></g><!--class ListJobApplicationService--><g id="elem_ListJobApplicationService"><rect codeLine="36" fill="#F1F1F1" height="64.2969" id="ListJobApplicationService" rx="2.5" ry="2.5" style="stroke:#181818;stroke-width:0.5;" width="580" x="763" y="500.2969"/><ellipse cx="964.25" cy="516.2969" fill="#ADD1B2" rx="11" ry="11" style="stroke:#181818;stroke-width:1.0;"/><path d="M967.2188,521.9375 Q966.6406,522.2344 966,522.375 Q965.3594,522.5313 964.6563,522.5313 Q962.1563,522.5313 960.8281,520.8906 Q959.5156,519.2344 959.5156,516.1094 Q959.5156,512.9844 960.8281,511.3281 Q962.1563,509.6719 964.6563,509.6719 Q965.3594,509.6719 966,509.8281 Q966.6563,509.9844 967.2188,510.2813 L967.2188,513 Q966.5938,512.4219 966,512.1563 Q965.4063,511.875 964.7813,511.875 Q963.4375,511.875 962.75,512.9531 Q962.0625,514.0156 962.0625,516.1094 Q962.0625,518.2031 962.75,519.2813 Q963.4375,520.3438 964.7813,520.3438 Q965.4063,520.3438 966,520.0781 Q966.5938,519.7969 967.2188,519.2188 L967.2188,521.9375 Z " fill="#000000"/><text fill="#000000" font-family="sans-serif" font-size="14" lengthAdjust="spacing" textLength="169" x="984.75" y="521.1436">ListJobApplicationService</text><line style="stroke:#181818;stroke-width:0.5;" x1="764" x2="1342" y1="532.2969" y2="532.2969"/><line style="stroke:#181818;stroke-width:0.5;" x1="764" x2="1342" y1="540.2969" y2="540.2969"/><ellipse cx="774" cy="553.9453" fill="#84BE84" rx="3" ry="3" style="stroke:#038048;stroke-width:1.0;"/><text fill="#000000" font-family="sans-serif" font-size="14" lengthAdjust="spacing" textLength="554" x="783" y="557.292">getJobApplicationsNonDTO(JobOfferDTO jobOfferDTO) : Iterable&lt;JobApplication&gt;</text></g><!--class JobApplicationManagementService--><g id="elem_JobApplicationManagementService"><rect codeLine="40" fill="#F1F1F1" height="64.2969" id="JobApplicationManagementService" rx="2.5" ry="2.5" style="stroke:#181818;stroke-width:0.5;" width="651" x="1378.5" y="500.2969"/><ellipse cx="1581.25" cy="516.2969" fill="#ADD1B2" rx="11" ry="11" style="stroke:#181818;stroke-width:1.0;"/><path d="M1584.2188,521.9375 Q1583.6406,522.2344 1583,522.375 Q1582.3594,522.5313 1581.6563,522.5313 Q1579.1563,522.5313 1577.8281,520.8906 Q1576.5156,519.2344 1576.5156,516.1094 Q1576.5156,512.9844 1577.8281,511.3281 Q1579.1563,509.6719 1581.6563,509.6719 Q1582.3594,509.6719 1583,509.8281 Q1583.6563,509.9844 1584.2188,510.2813 L1584.2188,513 Q1583.5938,512.4219 1583,512.1563 Q1582.4063,511.875 1581.7813,511.875 Q1580.4375,511.875 1579.75,512.9531 Q1579.0625,514.0156 1579.0625,516.1094 Q1579.0625,518.2031 1579.75,519.2813 Q1580.4375,520.3438 1581.7813,520.3438 Q1582.4063,520.3438 1583,520.0781 Q1583.5938,519.7969 1584.2188,519.2188 L1584.2188,521.9375 Z " fill="#000000"/><text fill="#000000" font-family="sans-serif" font-size="14" lengthAdjust="spacing" textLength="237" x="1601.75" y="521.1436">JobApplicationManagementService</text><line style="stroke:#181818;stroke-width:0.5;" x1="1379.5" x2="2028.5" y1="532.2969" y2="532.2969"/><line style="stroke:#181818;stroke-width:0.5;" x1="1379.5" x2="2028.5" y1="540.2969" y2="540.2969"/><ellipse cx="1389.5" cy="553.9453" fill="#84BE84" rx="3" ry="3" style="stroke:#038048;stroke-width:1.0;"/><text fill="#000000" font-family="sans-serif" font-size="14" lengthAdjust="spacing" textLength="625" x="1398.5" y="557.292">getJobApplicationsOfJobOfferNonDTO(JobRefCode jobRefCode) : Iterable&lt;ApplicationDTO&gt;</text></g><!--class JobApplicationRepository--><g id="elem_JobApplicationRepository"><rect codeLine="44" fill="#F1F1F1" height="64.2969" id="JobApplicationRepository" rx="2.5" ry="2.5" style="stroke:#181818;stroke-width:0.5;" width="486" x="1141" y="649.7969"/><ellipse cx="1294.75" cy="665.7969" fill="#ADD1B2" rx="11" ry="11" style="stroke:#181818;stroke-width:1.0;"/><path d="M1297.7188,671.4375 Q1297.1406,671.7344 1296.5,671.875 Q1295.8594,672.0313 1295.1563,672.0313 Q1292.6563,672.0313 1291.3281,670.3906 Q1290.0156,668.7344 1290.0156,665.6094 Q1290.0156,662.4844 1291.3281,660.8281 Q1292.6563,659.1719 1295.1563,659.1719 Q1295.8594,659.1719 1296.5,659.3281 Q1297.1563,659.4844 1297.7188,659.7813 L1297.7188,662.5 Q1297.0938,661.9219 1296.5,661.6563 Q1295.9063,661.375 1295.2813,661.375 Q1293.9375,661.375 1293.25,662.4531 Q1292.5625,663.5156 1292.5625,665.6094 Q1292.5625,667.7031 1293.25,668.7813 Q1293.9375,669.8438 1295.2813,669.8438 Q1295.9063,669.8438 1296.5,669.5781 Q1297.0938,669.2969 1297.7188,668.7188 L1297.7188,671.4375 Z " fill="#000000"/><text fill="#000000" font-family="sans-serif" font-size="14" lengthAdjust="spacing" textLength="170" x="1315.25" y="670.6436">JobApplicationRepository</text><line style="stroke:#181818;stroke-width:0.5;" x1="1142" x2="1626" y1="681.7969" y2="681.7969"/><line style="stroke:#181818;stroke-width:0.5;" x1="1142" x2="1626" y1="689.7969" y2="689.7969"/><ellipse cx="1152" cy="703.4453" fill="#84BE84" rx="3" ry="3" style="stroke:#038048;stroke-width:1.0;"/><text fill="#000000" font-family="sans-serif" font-size="14" lengthAdjust="spacing" textLength="460" x="1161" y="706.792">findApplicationsOfJobOffer(JobOffer offer) : Iterable&lt;JobApplication&gt;</text></g><!--class JobApplication--><g id="elem_JobApplication"><rect codeLine="48" fill="#F1F1F1" height="80.5938" id="JobApplication" rx="2.5" ry="2.5" style="stroke:#181818;stroke-width:0.5;" width="200" x="906" y="641.2969"/><ellipse cx="953.75" cy="657.2969" fill="#ADD1B2" rx="11" ry="11" style="stroke:#181818;stroke-width:1.0;"/><path d="M956.7188,662.9375 Q956.1406,663.2344 955.5,663.375 Q954.8594,663.5313 954.1563,663.5313 Q951.6563,663.5313 950.3281,661.8906 Q949.0156,660.2344 949.0156,657.1094 Q949.0156,653.9844 950.3281,652.3281 Q951.6563,650.6719 954.1563,650.6719 Q954.8594,650.6719 955.5,650.8281 Q956.1563,650.9844 956.7188,651.2813 L956.7188,654 Q956.0938,653.4219 955.5,653.1563 Q954.9063,652.875 954.2813,652.875 Q952.9375,652.875 952.25,653.9531 Q951.5625,655.0156 951.5625,657.1094 Q951.5625,659.2031 952.25,660.2813 Q952.9375,661.3438 954.2813,661.3438 Q954.9063,661.3438 955.5,661.0781 Q956.0938,660.7969 956.7188,660.2188 L956.7188,662.9375 Z " fill="#000000"/><text fill="#000000" font-family="sans-serif" font-size="14" lengthAdjust="spacing" textLength="96" x="974.25" y="662.1436">JobApplication</text><line style="stroke:#181818;stroke-width:0.5;" x1="907" x2="1105" y1="673.2969" y2="673.2969"/><line style="stroke:#181818;stroke-width:0.5;" x1="907" x2="1105" y1="681.2969" y2="681.2969"/><ellipse cx="917" cy="694.9453" fill="#84BE84" rx="3" ry="3" style="stroke:#038048;stroke-width:1.0;"/><text fill="#000000" font-family="sans-serif" font-size="14" lengthAdjust="spacing" textLength="174" x="926" y="698.292">toDTO() : ApplicationDTO</text><ellipse cx="917" cy="711.2422" fill="#84BE84" rx="3" ry="3" style="stroke:#038048;stroke-width:1.0;"/><text fill="#000000" font-family="sans-serif" font-size="14" lengthAdjust="spacing" textLength="145" x="926" y="714.5889">addFileRef(String file)</text></g><!--class PluginHandlerService--><g id="elem_PluginHandlerService"><rect codeLine="53" fill="#F1F1F1" height="64.2969" id="PluginHandlerService" rx="2.5" ry="2.5" style="stroke:#181818;stroke-width:0.5;" width="594" x="1662" y="649.7969"/><ellipse cx="1882.25" cy="665.7969" fill="#ADD1B2" rx="11" ry="11" style="stroke:#181818;stroke-width:1.0;"/><path d="M1885.2188,671.4375 Q1884.6406,671.7344 1884,671.875 Q1883.3594,672.0313 1882.6563,672.0313 Q1880.1563,672.0313 1878.8281,670.3906 Q1877.5156,668.7344 1877.5156,665.6094 Q1877.5156,662.4844 1878.8281,660.8281 Q1880.1563,659.1719 1882.6563,659.1719 Q1883.3594,659.1719 1884,659.3281 Q1884.6563,659.4844 1885.2188,659.7813 L1885.2188,662.5 Q1884.5938,661.9219 1884,661.6563 Q1883.4063,661.375 1882.7813,661.375 Q1881.4375,661.375 1880.75,662.4531 Q1880.0625,663.5156 1880.0625,665.6094 Q1880.0625,667.7031 1880.75,668.7813 Q1881.4375,669.8438 1882.7813,669.8438 Q1883.4063,669.8438 1884,669.5781 Q1884.5938,669.2969 1885.2188,668.7188 L1885.2188,671.4375 Z " fill="#000000"/><text fill="#000000" font-family="sans-serif" font-size="14" lengthAdjust="spacing" textLength="145" x="1902.75" y="670.6436">PluginHandlerService</text><line style="stroke:#181818;stroke-width:0.5;" x1="1663" x2="2255" y1="681.7969" y2="681.7969"/><line style="stroke:#181818;stroke-width:0.5;" x1="1663" x2="2255" y1="689.7969" y2="689.7969"/><ellipse cx="1673" cy="703.4453" fill="#84BE84" rx="3" ry="3" style="stroke:#038048;stroke-width:1.0;"/><text fill="#000000" font-family="sans-serif" font-size="14" lengthAdjust="spacing" textLength="568" x="1682" y="706.792">activateEvaluationFunction(String symbolTable, String candidateInput, int type) : int</text></g><!--class RegisteredPlugin--><g id="elem_RegisteredPlugin"><rect codeLine="58" fill="#F1F1F1" height="48" id="RegisteredPlugin" rx="2.5" ry="2.5" style="stroke:#181818;stroke-width:0.5;" width="150" x="614" y="1176.7969"/><ellipse cx="629" cy="1192.7969" fill="#ADD1B2" rx="11" ry="11" style="stroke:#181818;stroke-width:1.0;"/><path d="M631.9688,1198.4375 Q631.3906,1198.7344 630.75,1198.875 Q630.1094,1199.0313 629.4063,1199.0313 Q626.9063,1199.0313 625.5781,1197.3906 Q624.2656,1195.7344 624.2656,1192.6094 Q624.2656,1189.4844 625.5781,1187.8281 Q626.9063,1186.1719 629.4063,1186.1719 Q630.1094,1186.1719 630.75,1186.3281 Q631.4063,1186.4844 631.9688,1186.7813 L631.9688,1189.5 Q631.3438,1188.9219 630.75,1188.6563 Q630.1563,1188.375 629.5313,1188.375 Q628.1875,1188.375 627.5,1189.4531 Q626.8125,1190.5156 626.8125,1192.6094 Q626.8125,1194.7031 627.5,1195.7813 Q628.1875,1196.8438 629.5313,1196.8438 Q630.1563,1196.8438 630.75,1196.5781 Q631.3438,1196.2969 631.9688,1195.7188 L631.9688,1198.4375 Z " fill="#000000"/><text fill="#000000" font-family="sans-serif" font-size="14" lengthAdjust="spacing" textLength="118" x="643" y="1197.6436">RegisteredPlugin</text><line style="stroke:#181818;stroke-width:0.5;" x1="615" x2="763" y1="1208.7969" y2="1208.7969"/><line style="stroke:#181818;stroke-width:0.5;" x1="615" x2="763" y1="1216.7969" y2="1216.7969"/></g><!--class ApplicationDTO--><g id="elem_ApplicationDTO"><rect codeLine="60" fill="#F1F1F1" height="227.2656" id="ApplicationDTO" rx="2.5" ry="2.5" style="stroke:#181818;stroke-width:0.5;" width="154" x="929" y="799.2969"/><ellipse cx="951.2" cy="815.2969" fill="#ADD1B2" rx="11" ry="11" style="stroke:#181818;stroke-width:1.0;"/><path d="M954.1688,820.9375 Q953.5906,821.2344 952.95,821.375 Q952.3094,821.5313 951.6063,821.5313 Q949.1063,821.5313 947.7781,819.8906 Q946.4656,818.2344 946.4656,815.1094 Q946.4656,811.9844 947.7781,810.3281 Q949.1063,808.6719 951.6063,808.6719 Q952.3094,808.6719 952.95,808.8281 Q953.6063,808.9844 954.1688,809.2813 L954.1688,812 Q953.5438,811.4219 952.95,811.1563 Q952.3563,810.875 951.7313,810.875 Q950.3875,810.875 949.7,811.9531 Q949.0125,813.0156 949.0125,815.1094 Q949.0125,817.2031 949.7,818.2813 Q950.3875,819.3438 951.7313,819.3438 Q952.3563,819.3438 952.95,819.0781 Q953.5438,818.7969 954.1688,818.2188 L954.1688,820.9375 Z " fill="#000000"/><text fill="#000000" font-family="sans-serif" font-size="14" lengthAdjust="spacing" textLength="106" x="966.8" y="820.1436">ApplicationDTO</text><line style="stroke:#181818;stroke-width:0.5;" x1="930" x2="1082" y1="831.2969" y2="831.2969"/><rect fill="none" height="6" style="stroke:#C82930;stroke-width:1.0;" width="6" x="937" y="841.9453"/><text fill="#000000" font-family="sans-serif" font-size="14" lengthAdjust="spacing" textLength="80" x="949" y="848.292">String email</text><rect fill="none" height="6" style="stroke:#C82930;stroke-width:1.0;" width="6" x="937" y="858.2422"/><text fill="#000000" font-family="sans-serif" font-size="14" lengthAdjust="spacing" textLength="102" x="949" y="864.5889">String filesPath</text><rect fill="none" height="6" style="stroke:#C82930;stroke-width:1.0;" width="6" x="937" y="874.5391"/><text fill="#000000" font-family="sans-serif" font-size="14" lengthAdjust="spacing" textLength="128" x="949" y="880.8857">String attachedFile</text><rect fill="none" height="6" style="stroke:#C82930;stroke-width:1.0;" width="6" x="937" y="890.8359"/><text fill="#000000" font-family="sans-serif" font-size="14" lengthAdjust="spacing" textLength="102" x="949" y="897.1826">int jobRefCode</text><rect fill="none" height="6" style="stroke:#C82930;stroke-width:1.0;" width="6" x="937" y="907.1328"/><text fill="#000000" font-family="sans-serif" font-size="14" lengthAdjust="spacing" textLength="112" x="949" y="913.4795">String candidate</text><line style="stroke:#181818;stroke-width:0.5;" x1="930" x2="1082" y1="920.7813" y2="920.7813"/><ellipse cx="940" cy="934.4297" fill="#84BE84" rx="3" ry="3" style="stroke:#038048;stroke-width:1.0;"/><text fill="#000000" font-family="sans-serif" font-size="14" lengthAdjust="spacing" textLength="64" x="949" y="937.7764">toString()</text><ellipse cx="940" cy="950.7266" fill="#84BE84" rx="3" ry="3" style="stroke:#038048;stroke-width:1.0;"/><text fill="#000000" font-family="sans-serif" font-size="14" lengthAdjust="spacing" textLength="69" x="949" y="954.0732">getEmail()</text><ellipse cx="940" cy="967.0234" fill="#84BE84" rx="3" ry="3" style="stroke:#038048;stroke-width:1.0;"/><text fill="#000000" font-family="sans-serif" font-size="14" lengthAdjust="spacing" textLength="95" x="949" y="970.3701">getFilesPath()</text><ellipse cx="940" cy="983.3203" fill="#84BE84" rx="3" ry="3" style="stroke:#038048;stroke-width:1.0;"/><text fill="#000000" font-family="sans-serif" font-size="14" lengthAdjust="spacing" textLength="118" x="949" y="986.667">getAttachedFile()</text><ellipse cx="940" cy="999.6172" fill="#84BE84" rx="3" ry="3" style="stroke:#038048;stroke-width:1.0;"/><text fill="#000000" font-family="sans-serif" font-size="14" lengthAdjust="spacing" textLength="114" x="949" y="1002.9639">getJobRefCode()</text><ellipse cx="940" cy="1015.9141" fill="#84BE84" rx="3" ry="3" style="stroke:#038048;stroke-width:1.0;"/><text fill="#000000" font-family="sans-serif" font-size="14" lengthAdjust="spacing" textLength="103" x="949" y="1019.2607">getCandidate()</text></g><!--class JobOfferDTO--><g id="elem_JobOfferDTO"><rect codeLine="74" fill="#F1F1F1" height="194.6719" id="JobOfferDTO" rx="2.5" ry="2.5" style="stroke:#181818;stroke-width:0.5;" width="194" x="799" y="1103.2969"/><ellipse cx="849.25" cy="1119.2969" fill="#ADD1B2" rx="11" ry="11" style="stroke:#181818;stroke-width:1.0;"/><path d="M852.2188,1124.9375 Q851.6406,1125.2344 851,1125.375 Q850.3594,1125.5313 849.6563,1125.5313 Q847.1563,1125.5313 845.8281,1123.8906 Q844.5156,1122.2344 844.5156,1119.1094 Q844.5156,1115.9844 845.8281,1114.3281 Q847.1563,1112.6719 849.6563,1112.6719 Q850.3594,1112.6719 851,1112.8281 Q851.6563,1112.9844 852.2188,1113.2813 L852.2188,1116 Q851.5938,1115.4219 851,1115.1563 Q850.4063,1114.875 849.7813,1114.875 Q848.4375,1114.875 847.75,1115.9531 Q847.0625,1117.0156 847.0625,1119.1094 Q847.0625,1121.2031 847.75,1122.2813 Q848.4375,1123.3438 849.7813,1123.3438 Q850.4063,1123.3438 851,1123.0781 Q851.5938,1122.7969 852.2188,1122.2188 L852.2188,1124.9375 Z " fill="#000000"/><text fill="#000000" font-family="sans-serif" font-size="14" lengthAdjust="spacing" textLength="85" x="869.75" y="1124.1436">JobOfferDTO</text><line style="stroke:#181818;stroke-width:0.5;" x1="800" x2="992" y1="1135.2969" y2="1135.2969"/><rect fill="none" height="6" style="stroke:#C82930;stroke-width:1.0;" width="6" x="807" y="1145.9453"/><text fill="#000000" font-family="sans-serif" font-size="14" lengthAdjust="spacing" textLength="99" x="819" y="1152.292">String refCode</text><rect fill="none" height="6" style="stroke:#C82930;stroke-width:1.0;" width="6" x="807" y="1162.2422"/><text fill="#000000" font-family="sans-serif" font-size="14" lengthAdjust="spacing" textLength="69" x="819" y="1168.5889">String title</text><rect fill="none" height="6" style="stroke:#C82930;stroke-width:1.0;" width="6" x="807" y="1178.5391"/><text fill="#000000" font-family="sans-serif" font-size="14" lengthAdjust="spacing" textLength="104" x="819" y="1184.8857">String jobMode</text><rect fill="none" height="6" style="stroke:#C82930;stroke-width:1.0;" width="6" x="807" y="1194.8359"/><text fill="#000000" font-family="sans-serif" font-size="14" lengthAdjust="spacing" textLength="168" x="819" y="1201.1826">String numberVacancies</text><line style="stroke:#181818;stroke-width:0.5;" x1="800" x2="992" y1="1208.4844" y2="1208.4844"/><ellipse cx="810" cy="1222.1328" fill="#84BE84" rx="3" ry="3" style="stroke:#038048;stroke-width:1.0;"/><text fill="#000000" font-family="sans-serif" font-size="14" lengthAdjust="spacing" textLength="64" x="819" y="1225.4795">toString()</text><ellipse cx="810" cy="1238.4297" fill="#84BE84" rx="3" ry="3" style="stroke:#038048;stroke-width:1.0;"/><text fill="#000000" font-family="sans-serif" font-size="14" lengthAdjust="spacing" textLength="93" x="819" y="1241.7764">getRefCode()</text><ellipse cx="810" cy="1254.7266" fill="#84BE84" rx="3" ry="3" style="stroke:#038048;stroke-width:1.0;"/><text fill="#000000" font-family="sans-serif" font-size="14" lengthAdjust="spacing" textLength="62" x="819" y="1258.0732">getTitle()</text><ellipse cx="810" cy="1271.0234" fill="#84BE84" rx="3" ry="3" style="stroke:#038048;stroke-width:1.0;"/><text fill="#000000" font-family="sans-serif" font-size="14" lengthAdjust="spacing" textLength="93" x="819" y="1274.3701">getJobMode()</text><ellipse cx="810" cy="1287.3203" fill="#84BE84" rx="3" ry="3" style="stroke:#038048;stroke-width:1.0;"/><text fill="#000000" font-family="sans-serif" font-size="14" lengthAdjust="spacing" textLength="158" x="819" y="1290.667">getNumberVacancies()</text></g><!--link MainMenu to GradeInterviewsUI--><g id="link_MainMenu_GradeInterviewsUI"><path codeLine="86" d="M625,92.4169 C625,113.7169 625,139.4969 625,163.0569 " fill="none" id="MainMenu-to-GradeInterviewsUI" style="stroke:#181818;stroke-width:1.0;stroke-dasharray:7.0,7.0;"/><polygon fill="#181818" points="625,169.0569,629,160.0569,625,164.0569,621,160.0569,625,169.0569" style="stroke:#181818;stroke-width:1.0;"/><text fill="#000000" font-family="sans-serif" font-size="13" lengthAdjust="spacing" textLength="42" x="626" y="135.3638">show()</text></g><!--link GradeInterviewsUI to GradeInterviewsController--><g id="link_GradeInterviewsUI_GradeInterviewsController"><path codeLine="87" d="M625,233.3569 C625,254.7869 625,278.0369 625,304.2969 " fill="none" id="GradeInterviewsUI-to-GradeInterviewsController" style="stroke:#181818;stroke-width:1.0;stroke-dasharray:7.0,7.0;"/><polygon fill="#181818" points="625,310.2969,629,301.2969,625,305.2969,621,301.2969,625,310.2969" style="stroke:#181818;stroke-width:1.0;"/><text fill="#000000" font-family="sans-serif" font-size="13" lengthAdjust="spacing" textLength="51" x="626" y="276.3638">create()</text></g><!--link GradeInterviewsController to PersistenceContext--><g id="link_GradeInterviewsController_PersistenceContext"><path codeLine="88" d="M402.27,439.3169 C334.97,458.6969 260.92,480.1869 193,500.2969 C184.39,502.8469 181.1343,503.804 172.1843,506.504 " fill="none" id="GradeInterviewsController-to-PersistenceContext" style="stroke:#181818;stroke-width:1.0;stroke-dasharray:7.0,7.0;"/><polygon fill="#181818" points="166.44,508.2369,176.2117,509.467,171.2269,506.7928,173.9012,501.808,166.44,508.2369" style="stroke:#181818;stroke-width:1.0;"/></g><!--link GradeInterviewsController to ListJobOfferService--><g id="link_GradeInterviewsController_ListJobOfferService"><path codeLine="89" d="M561.1,439.4969 C540.06,460.4569 521.8587,478.6003 504.3887,496.0203 " fill="none" id="GradeInterviewsController-to-ListJobOfferService" style="stroke:#181818;stroke-width:1.0;stroke-dasharray:7.0,7.0;"/><polygon fill="#181818" points="500.14,500.2569,509.3374,496.7345,503.6806,496.7264,503.6887,491.0696,500.14,500.2569" style="stroke:#181818;stroke-width:1.0;"/></g><!--link GradeInterviewsController to ListJobApplicationService--><g id="link_GradeInterviewsController_ListJobApplicationService"><path codeLine="90" d="M800.01,439.3769 C857.76,460.3669 913.7907,480.7179 961.7907,498.1579 " fill="none" id="GradeInterviewsController-to-ListJobApplicationService" style="stroke:#181818;stroke-width:1.0;stroke-dasharray:7.0,7.0;"/><polygon fill="#181818" points="967.43,500.2069,960.337,493.3739,962.7306,498.4994,957.6051,500.893,967.43,500.2069" style="stroke:#181818;stroke-width:1.0;"/></g><!--link GradeInterviewsController to JobApplicationManagementService--><g id="link_GradeInterviewsController_JobApplicationManagementService"><path codeLine="91" d="M851.52,408.4469 C1039.25,435.4969 1298.3414,472.8308 1482.8714,499.4308 " fill="none" id="GradeInterviewsController-to-JobApplicationManagementService" style="stroke:#181818;stroke-width:1.0;stroke-dasharray:7.0,7.0;"/><polygon fill="#181818" points="1488.81,500.2869,1480.4728,495.0437,1483.8612,499.5735,1479.3314,502.9619,1488.81,500.2869" style="stroke:#181818;stroke-width:1.0;"/></g><!--link PersistenceContext to RepositoryFactory--><g id="link_PersistenceContext_RepositoryFactory"><path codeLine="92" d="M91,556.3469 C91,583.8969 91,623.7369 91,651.4269 " fill="none" id="PersistenceContext-to-RepositoryFactory" style="stroke:#181818;stroke-width:1.0;stroke-dasharray:7.0,7.0;"/><polygon fill="#181818" points="91,657.4269,95,648.4269,91,652.4269,87,648.4269,91,657.4269" style="stroke:#181818;stroke-width:1.0;"/><text fill="#000000" font-family="sans-serif" font-size="13" lengthAdjust="spacing" textLength="51" x="92" y="607.3638">create()</text></g><!--link ListJobOfferService to JobOfferRepository--><g id="link_ListJobOfferService_JobOfferRepository"><path codeLine="93" d="M469,564.5769 C469,589.6069 469,618.5369 469,643.5569 " fill="none" id="ListJobOfferService-to-JobOfferRepository" style="stroke:#181818;stroke-width:1.0;stroke-dasharray:7.0,7.0;"/><polygon fill="#181818" points="469,649.5569,473,640.5569,469,644.5569,465,640.5569,469,649.5569" style="stroke:#181818;stroke-width:1.0;"/></g><!--link ListJobOfferService to JobOffer--><g id="link_ListJobOfferService_JobOffer"><path codeLine="94" d="M606.94,564.3969 C650.89,580.6169 696.08,604.9669 727,641.2969 C786.32,710.9969 793.4628,819.727 793.1628,874.627 " fill="none" id="ListJobOfferService-to-JobOffer" style="stroke:#181818;stroke-width:1.0;stroke-dasharray:7.0,7.0;"/><polygon fill="#181818" points="793.13,880.6269,797.1791,871.6489,793.1573,875.6269,789.1792,871.6052,793.13,880.6269" style="stroke:#181818;stroke-width:1.0;"/></g><!--link JobOffer to JobOfferDTO--><g id="link_JobOffer_JobOfferDTO"><path codeLine="95" d="M803.33,944.9469 C817.04,982.6669 838.7397,1042.3281 858.7597,1097.3881 " fill="none" id="JobOffer-to-JobOfferDTO" style="stroke:#181818;stroke-width:1.0;stroke-dasharray:7.0,7.0;"/><polygon fill="#181818" points="860.81,1103.0269,861.4938,1093.2018,859.1014,1098.3279,853.9753,1095.9355,860.81,1103.0269" style="stroke:#181818;stroke-width:1.0;"/><text fill="#000000" font-family="sans-serif" font-size="13" lengthAdjust="spacing" textLength="41" x="849" y="1069.3638">create</text></g><!--link JobOffer to RegisteredPlugin--><g id="link_JobOffer_RegisteredPlugin"><path codeLine="96" d="M780.78,944.9469 C759.98,1002.7169 717.8929,1119.5718 699.4329,1170.8318 " fill="none" id="JobOffer-to-RegisteredPlugin" style="stroke:#181818;stroke-width:1.0;stroke-dasharray:7.0,7.0;"/><polygon fill="#181818" points="697.4,1176.4769,704.2128,1169.3645,699.0941,1171.7726,696.686,1166.6539,697.4,1176.4769" style="stroke:#181818;stroke-width:1.0;"/></g><!--link ListJobApplicationService to JobApplicationRepository--><g id="link_ListJobApplicationService_JobApplicationRepository"><path codeLine="97" d="M1122.79,564.3969 C1179.12,589.4969 1252.5196,622.2045 1308.8196,647.2945 " fill="none" id="ListJobApplicationService-to-JobApplicationRepository" style="stroke:#181818;stroke-width:1.0;stroke-dasharray:7.0,7.0;"/><polygon fill="#181818" points="1314.3,649.7369,1307.7076,642.4198,1309.733,647.7016,1304.4511,649.727,1314.3,649.7369" style="stroke:#181818;stroke-width:1.0;"/></g><!--link ListJobApplicationService to JobApplication--><g id="link_ListJobApplicationService_JobApplication"><path codeLine="98" d="M1043.03,564.5769 C1035.92,586.9069 1028.123,611.3905 1020.463,635.4105 " fill="none" id="ListJobApplicationService-to-JobApplication" style="stroke:#181818;stroke-width:1.0;stroke-dasharray:7.0,7.0;"/><polygon fill="#181818" points="1018.64,641.1269,1025.1853,633.7676,1020.1591,636.3632,1017.5635,631.337,1018.64,641.1269" style="stroke:#181818;stroke-width:1.0;"/></g><!--link JobApplication to ApplicationDTO--><g id="link_JobApplication_ApplicationDTO"><path codeLine="99" d="M1006,722.4269 C1006,743.8069 1006,765.3769 1006,792.8469 " fill="none" id="JobApplication-to-ApplicationDTO" style="stroke:#181818;stroke-width:1.0;stroke-dasharray:7.0,7.0;"/><polygon fill="#181818" points="1006,798.8469,1010,789.8469,1006,793.8469,1002,789.8469,1006,798.8469" style="stroke:#181818;stroke-width:1.0;"/><text fill="#000000" font-family="sans-serif" font-size="13" lengthAdjust="spacing" textLength="41" x="1007" y="765.3638">create</text></g><!--link JobApplication to JobOffer--><g id="link_JobApplication_JobOffer"><path codeLine="100" d="M968.97,722.4269 C926.98,767.3569 863.4865,835.303 825.1365,876.343 " fill="none" id="JobApplication-to-JobOffer" style="stroke:#181818;stroke-width:1.0;stroke-dasharray:7.0,7.0;"/><polygon fill="#181818" points="821.04,880.7269,830.1074,876.8821,824.4538,877.0736,824.2622,871.42,821.04,880.7269" style="stroke:#181818;stroke-width:1.0;"/></g><!--link JobApplicationManagementService to JobApplicationRepository--><g id="link_JobApplicationManagementService_JobApplicationRepository"><path codeLine="101" d="M1636.53,564.3969 C1582.07,589.4969 1511.2691,622.1355 1456.8291,647.2255 " fill="none" id="JobApplicationManagementService-to-JobApplicationRepository" style="stroke:#181818;stroke-width:1.0;stroke-dasharray:7.0,7.0;"/><polygon fill="#181818" points="1451.38,649.7369,1461.2279,649.6026,1455.9209,647.6441,1457.8795,642.3371,1451.38,649.7369" style="stroke:#181818;stroke-width:1.0;"/></g><!--link JobApplicationManagementService to JobApplication--><g id="link_JobApplicationManagementService_JobApplication"><path codeLine="102" d="M1499.15,564.3069 C1387.43,582.9969 1247.19,609.3769 1124,641.2969 C1118.14,642.8169 1117.9215,642.802 1111.9015,644.552 " fill="none" id="JobApplicationManagementService-to-JobApplication" style="stroke:#181818;stroke-width:1.0;stroke-dasharray:7.0,7.0;"/><polygon fill="#181818" points="1106.14,646.2269,1115.8988,647.5556,1110.9412,644.8312,1113.6657,639.8736,1106.14,646.2269" style="stroke:#181818;stroke-width:1.0;"/></g><!--link JobApplicationManagementService to PluginHandlerService--><g id="link_JobApplicationManagementService_PluginHandlerService"><path codeLine="103" d="M1757.77,564.3969 C1801.17,589.4969 1856.7362,621.6429 1900.1162,646.7329 " fill="none" id="JobApplicationManagementService-to-PluginHandlerService" style="stroke:#181818;stroke-width:1.0;stroke-dasharray:7.0,7.0;"/><polygon fill="#181818" points="1905.31,649.7369,1899.5219,641.7683,1900.9818,647.2335,1895.5166,648.6934,1905.31,649.7369" style="stroke:#181818;stroke-width:1.0;"/></g><!--SRC=[dLNRRXen47tkVeNVIjGGchSALP4G2IrH2IX0tytk0AwyzihsagAe_rvxlPVP2vUM5xp7SpbdRCzyt1kJwE5Wa70gJ1hpkr36Wv1JhViHepj5uo0mp70WOmUIHm-IFbaloVtd-oz1a5cJ6MLY1Y8bxy6V0lkcQ0HJOK0T6BpfzTHkVlX4z5w-zMvEcesbC4fo3igRXmge0UjWrpimpt8ptsv1wTuD6PAfzQ8R3byB-74rVyWj5ppTCT53EyvZ8oK7AdARKP9m5bB3fD3dBEiKAqiZYNIB6XSKDADJAbrOsamR424ubV3RaFToynKIgPcHwZYXeVj3Up-iLv5pwKY4u8k32pBVpgYWEr2zvT4cYTVQbZ3sqCbQaOfT0LT4V8uj4z68y_zCqfN1npNI4iXE4H4AcffHCJkKu_DxoSgDJv7ygfye9eSy6nJHZjSQWp0NSi-tHTgAnIjinp82Ho9VNdTBwg4xJwCpSwcyuqfUAxXvCdMIRez6qOHni8fwIwEOs5b67D1pzi_kEnKHhrtMp3aqx61VyzE1yZIBEab5wFwBOFeORoHVETAt9CT26uj5rcqgajJS4YOCCSSaAwTT1-W9xTppKX1v4kW5rOKuFlqYFCIKSVJjzEW5DNk4KMDek8TCkeCTXUfSaM79rTVHesNpUdAfogz9aQX4HYWDxdXvdX8Q5rbm7yKN7-jJBP9PHqVVLiciRY7IU0Fg9xLoGWQw8ORONyQZubL2AnSR0yy-E8PUwj6zY7A2tFKVEaR7i9WRxQqE1pH4XjK4EMtaGhIxymM7ZgvydKUxfrtmkz2LWex1ujpQ8mKLeskcvBaQO-2YQL1s7eowUrZagriqtsbmkjUtrRTvNUKMD1gTisWq1KosQOgbdXqGPmd_k_DLBbqjD_WB]--></g></svg>