<?xml version="1.0" encoding="us-ascii" standalone="no"?><svg xmlns="http://www.w3.org/2000/svg" xmlns:xlink="http://www.w3.org/1999/xlink" contentStyleType="text/css" height="1135px" preserveAspectRatio="none" style="width:1089px;height:1135px;background:#FFFFFF;" version="1.1" viewBox="0 0 1089 1135" width="1089px" zoomAndPan="magnify"><defs/><g><!--class CustomerManagerUI--><g id="elem_CustomerManagerUI"><rect codeLine="2" fill="#F1F1F1" height="66.6211" id="CustomerManagerUI" rx="2.5" ry="2.5" style="stroke:#181818;stroke-width:0.5;" width="161" x="346" y="7"/><ellipse cx="361" cy="23" fill="#ADD1B2" rx="11" ry="11" style="stroke:#181818;stroke-width:1.0;"/><path d="M363.7656,18.875 Q363.9219,18.6563 364.1094,18.5469 Q364.2969,18.4375 364.5156,18.4375 Q364.8906,18.4375 365.125,18.7031 Q365.3594,18.9531 365.3594,19.5625 L365.3594,21.0156 Q365.3594,21.625 365.125,21.8906 Q364.8906,22.1563 364.5156,22.1563 Q364.1719,22.1563 363.9688,21.9531 Q363.7656,21.7656 363.6563,21.25 Q363.6094,20.8906 363.4219,20.7031 Q363.0938,20.3281 362.4844,20.1094 Q361.875,19.8906 361.25,19.8906 Q360.4844,19.8906 359.8438,20.2188 Q359.2188,20.5469 358.7188,21.2969 Q358.2344,22.0469 358.2344,23.0781 L358.2344,24.1719 Q358.2344,25.4063 359.125,26.2344 Q360.0156,27.0469 361.6094,27.0469 Q362.5469,27.0469 363.2031,26.7969 Q363.5938,26.6406 364.0156,26.2031 Q364.2813,25.9375 364.4219,25.8594 Q364.5781,25.7813 364.7813,25.7813 Q365.1094,25.7813 365.3594,26.0469 Q365.625,26.2969 365.625,26.6406 Q365.625,26.9844 365.2813,27.3906 Q364.7813,27.9688 363.9844,28.2969 Q362.9063,28.75 361.6094,28.75 Q360.0938,28.75 358.8906,28.125 Q357.9063,27.625 357.2188,26.5625 Q356.5313,25.4844 356.5313,24.2031 L356.5313,23.0469 Q356.5313,21.7188 357.1406,20.5781 Q357.7656,19.4219 358.8594,18.8125 Q359.9531,18.1875 361.1875,18.1875 Q361.9219,18.1875 362.5625,18.3594 Q363.2188,18.5156 363.7656,18.875 Z " fill="#000000"/><text fill="#000000" font-family="sans-serif" font-size="14" lengthAdjust="spacing" textLength="129" x="375" y="28.7969">CustomerManagerUI</text><line style="stroke:#181818;stroke-width:0.5;" x1="347" x2="506" y1="39" y2="39"/><line style="stroke:#181818;stroke-width:0.5;" x1="347" x2="506" y1="47" y2="47"/><ellipse cx="357" cy="61.8105" fill="#84BE84" rx="3" ry="3" style="stroke:#038048;stroke-width:1.0;"/><text fill="#000000" font-family="sans-serif" font-size="14" lengthAdjust="spacing" textLength="135" x="366" y="66.1074">validateApplications()</text></g><!--class ValidateJobOfferApplicationsUI--><g id="elem_ValidateJobOfferApplicationsUI"><rect codeLine="7" fill="#F1F1F1" height="48" id="ValidateJobOfferApplicationsUI" rx="2.5" ry="2.5" style="stroke:#181818;stroke-width:0.5;" width="225" x="314" y="135"/><ellipse cx="329" cy="151" fill="#ADD1B2" rx="11" ry="11" style="stroke:#181818;stroke-width:1.0;"/><path d="M331.7656,146.875 Q331.9219,146.6563 332.1094,146.5469 Q332.2969,146.4375 332.5156,146.4375 Q332.8906,146.4375 333.125,146.7031 Q333.3594,146.9531 333.3594,147.5625 L333.3594,149.0156 Q333.3594,149.625 333.125,149.8906 Q332.8906,150.1563 332.5156,150.1563 Q332.1719,150.1563 331.9688,149.9531 Q331.7656,149.7656 331.6563,149.25 Q331.6094,148.8906 331.4219,148.7031 Q331.0938,148.3281 330.4844,148.1094 Q329.875,147.8906 329.25,147.8906 Q328.4844,147.8906 327.8438,148.2188 Q327.2188,148.5469 326.7188,149.2969 Q326.2344,150.0469 326.2344,151.0781 L326.2344,152.1719 Q326.2344,153.4063 327.125,154.2344 Q328.0156,155.0469 329.6094,155.0469 Q330.5469,155.0469 331.2031,154.7969 Q331.5938,154.6406 332.0156,154.2031 Q332.2813,153.9375 332.4219,153.8594 Q332.5781,153.7813 332.7813,153.7813 Q333.1094,153.7813 333.3594,154.0469 Q333.625,154.2969 333.625,154.6406 Q333.625,154.9844 333.2813,155.3906 Q332.7813,155.9688 331.9844,156.2969 Q330.9063,156.75 329.6094,156.75 Q328.0938,156.75 326.8906,156.125 Q325.9063,155.625 325.2188,154.5625 Q324.5313,153.4844 324.5313,152.2031 L324.5313,151.0469 Q324.5313,149.7188 325.1406,148.5781 Q325.7656,147.4219 326.8594,146.8125 Q327.9531,146.1875 329.1875,146.1875 Q329.9219,146.1875 330.5625,146.3594 Q331.2188,146.5156 331.7656,146.875 Z " fill="#000000"/><text fill="#000000" font-family="sans-serif" font-size="14" lengthAdjust="spacing" textLength="193" x="343" y="156.7969">ValidateJobOfferApplicationsUI</text><line style="stroke:#181818;stroke-width:0.5;" x1="315" x2="538" y1="167" y2="167"/><line style="stroke:#181818;stroke-width:0.5;" x1="315" x2="538" y1="175" y2="175"/></g><!--class ValidateJobOfferApplicationsController--><g id="elem_ValidateJobOfferApplicationsController"><rect codeLine="11" fill="#F1F1F1" height="159.7266" id="ValidateJobOfferApplicationsController" rx="2.5" ry="2.5" style="stroke:#181818;stroke-width:0.5;" width="275" x="289" y="244"/><ellipse cx="304" cy="260" fill="#ADD1B2" rx="11" ry="11" style="stroke:#181818;stroke-width:1.0;"/><path d="M306.7656,255.875 Q306.9219,255.6563 307.1094,255.5469 Q307.2969,255.4375 307.5156,255.4375 Q307.8906,255.4375 308.125,255.7031 Q308.3594,255.9531 308.3594,256.5625 L308.3594,258.0156 Q308.3594,258.625 308.125,258.8906 Q307.8906,259.1563 307.5156,259.1563 Q307.1719,259.1563 306.9688,258.9531 Q306.7656,258.7656 306.6563,258.25 Q306.6094,257.8906 306.4219,257.7031 Q306.0938,257.3281 305.4844,257.1094 Q304.875,256.8906 304.25,256.8906 Q303.4844,256.8906 302.8438,257.2188 Q302.2188,257.5469 301.7188,258.2969 Q301.2344,259.0469 301.2344,260.0781 L301.2344,261.1719 Q301.2344,262.4063 302.125,263.2344 Q303.0156,264.0469 304.6094,264.0469 Q305.5469,264.0469 306.2031,263.7969 Q306.5938,263.6406 307.0156,263.2031 Q307.2813,262.9375 307.4219,262.8594 Q307.5781,262.7813 307.7813,262.7813 Q308.1094,262.7813 308.3594,263.0469 Q308.625,263.2969 308.625,263.6406 Q308.625,263.9844 308.2813,264.3906 Q307.7813,264.9688 306.9844,265.2969 Q305.9063,265.75 304.6094,265.75 Q303.0938,265.75 301.8906,265.125 Q300.9063,264.625 300.2188,263.5625 Q299.5313,262.4844 299.5313,261.2031 L299.5313,260.0469 Q299.5313,258.7188 300.1406,257.5781 Q300.7656,256.4219 301.8594,255.8125 Q302.9531,255.1875 304.1875,255.1875 Q304.9219,255.1875 305.5625,255.3594 Q306.2188,255.5156 306.7656,255.875 Z " fill="#000000"/><text fill="#000000" font-family="sans-serif" font-size="14" lengthAdjust="spacing" textLength="243" x="318" y="265.7969">ValidateJobOfferApplicationsController</text><line style="stroke:#181818;stroke-width:0.5;" x1="290" x2="563" y1="276" y2="276"/><line style="stroke:#181818;stroke-width:0.5;" x1="290" x2="563" y1="284" y2="284"/><ellipse cx="300" cy="298.8105" fill="#84BE84" rx="3" ry="3" style="stroke:#038048;stroke-width:1.0;"/><text fill="#000000" font-family="sans-serif" font-size="14" lengthAdjust="spacing" textLength="91" x="309" y="303.1074">getJobOffers()</text><ellipse cx="300" cy="317.4316" fill="#84BE84" rx="3" ry="3" style="stroke:#038048;stroke-width:1.0;"/><text fill="#000000" font-family="sans-serif" font-size="14" lengthAdjust="spacing" textLength="135" x="309" y="321.7285">checkRequirements()</text><ellipse cx="300" cy="336.0527" fill="#84BE84" rx="3" ry="3" style="stroke:#038048;stroke-width:1.0;"/><text fill="#000000" font-family="sans-serif" font-size="14" lengthAdjust="spacing" textLength="118" x="309" y="340.3496">getRequirements()</text><ellipse cx="300" cy="354.6738" fill="#84BE84" rx="3" ry="3" style="stroke:#038048;stroke-width:1.0;"/><text fill="#000000" font-family="sans-serif" font-size="14" lengthAdjust="spacing" textLength="197" x="309" y="358.9707">getJobApplicationsOfJobOffer()</text><ellipse cx="300" cy="373.2949" fill="#84BE84" rx="3" ry="3" style="stroke:#038048;stroke-width:1.0;"/><text fill="#000000" font-family="sans-serif" font-size="14" lengthAdjust="spacing" textLength="219" x="309" y="377.5918">validateAllApplicationsOfJobOffer()</text><ellipse cx="300" cy="391.916" fill="#84BE84" rx="3" ry="3" style="stroke:#038048;stroke-width:1.0;"/><text fill="#000000" font-family="sans-serif" font-size="14" lengthAdjust="spacing" textLength="214" x="309" y="396.2129">checkJobApplicationsOfJobOffer()</text></g><!--class PersistenceContext--><g id="elem_PersistenceContext"><rect codeLine="20" fill="#F1F1F1" height="66.6211" id="PersistenceContext" rx="2.5" ry="2.5" style="stroke:#181818;stroke-width:0.5;" width="154" x="209.5" y="483"/><ellipse cx="224.5" cy="499" fill="#ADD1B2" rx="11" ry="11" style="stroke:#181818;stroke-width:1.0;"/><path d="M227.2656,494.875 Q227.4219,494.6563 227.6094,494.5469 Q227.7969,494.4375 228.0156,494.4375 Q228.3906,494.4375 228.625,494.7031 Q228.8594,494.9531 228.8594,495.5625 L228.8594,497.0156 Q228.8594,497.625 228.625,497.8906 Q228.3906,498.1563 228.0156,498.1563 Q227.6719,498.1563 227.4688,497.9531 Q227.2656,497.7656 227.1563,497.25 Q227.1094,496.8906 226.9219,496.7031 Q226.5938,496.3281 225.9844,496.1094 Q225.375,495.8906 224.75,495.8906 Q223.9844,495.8906 223.3438,496.2188 Q222.7188,496.5469 222.2188,497.2969 Q221.7344,498.0469 221.7344,499.0781 L221.7344,500.1719 Q221.7344,501.4063 222.625,502.2344 Q223.5156,503.0469 225.1094,503.0469 Q226.0469,503.0469 226.7031,502.7969 Q227.0938,502.6406 227.5156,502.2031 Q227.7813,501.9375 227.9219,501.8594 Q228.0781,501.7813 228.2813,501.7813 Q228.6094,501.7813 228.8594,502.0469 Q229.125,502.2969 229.125,502.6406 Q229.125,502.9844 228.7813,503.3906 Q228.2813,503.9688 227.4844,504.2969 Q226.4063,504.75 225.1094,504.75 Q223.5938,504.75 222.3906,504.125 Q221.4063,503.625 220.7188,502.5625 Q220.0313,501.4844 220.0313,500.2031 L220.0313,499.0469 Q220.0313,497.7188 220.6406,496.5781 Q221.2656,495.4219 222.3594,494.8125 Q223.4531,494.1875 224.6875,494.1875 Q225.4219,494.1875 226.0625,494.3594 Q226.7188,494.5156 227.2656,494.875 Z " fill="#000000"/><text fill="#000000" font-family="sans-serif" font-size="14" lengthAdjust="spacing" textLength="122" x="238.5" y="504.7969">PersistenceContext</text><line style="stroke:#181818;stroke-width:0.5;" x1="210.5" x2="362.5" y1="515" y2="515"/><line style="stroke:#181818;stroke-width:0.5;" x1="210.5" x2="362.5" y1="523" y2="523"/><ellipse cx="220.5" cy="537.8105" fill="#84BE84" rx="3" ry="3" style="stroke:#038048;stroke-width:1.0;"/><text fill="#000000" font-family="sans-serif" font-size="14" lengthAdjust="spacing" textLength="84" x="229.5" y="542.1074">repositories()</text></g><!--class RepositoryFactory--><g id="elem_RepositoryFactory"><rect codeLine="24" fill="#F1F1F1" height="178.3477" id="RepositoryFactory" rx="2.5" ry="2.5" style="stroke:#181818;stroke-width:0.5;" width="296" x="197.5" y="677"/><ellipse cx="283.25" cy="693" fill="#ADD1B2" rx="11" ry="11" style="stroke:#181818;stroke-width:1.0;"/><path d="M286.0156,688.875 Q286.1719,688.6563 286.3594,688.5469 Q286.5469,688.4375 286.7656,688.4375 Q287.1406,688.4375 287.375,688.7031 Q287.6094,688.9531 287.6094,689.5625 L287.6094,691.0156 Q287.6094,691.625 287.375,691.8906 Q287.1406,692.1563 286.7656,692.1563 Q286.4219,692.1563 286.2188,691.9531 Q286.0156,691.7656 285.9063,691.25 Q285.8594,690.8906 285.6719,690.7031 Q285.3438,690.3281 284.7344,690.1094 Q284.125,689.8906 283.5,689.8906 Q282.7344,689.8906 282.0938,690.2188 Q281.4688,690.5469 280.9688,691.2969 Q280.4844,692.0469 280.4844,693.0781 L280.4844,694.1719 Q280.4844,695.4063 281.375,696.2344 Q282.2656,697.0469 283.8594,697.0469 Q284.7969,697.0469 285.4531,696.7969 Q285.8438,696.6406 286.2656,696.2031 Q286.5313,695.9375 286.6719,695.8594 Q286.8281,695.7813 287.0313,695.7813 Q287.3594,695.7813 287.6094,696.0469 Q287.875,696.2969 287.875,696.6406 Q287.875,696.9844 287.5313,697.3906 Q287.0313,697.9688 286.2344,698.2969 Q285.1563,698.75 283.8594,698.75 Q282.3438,698.75 281.1406,698.125 Q280.1563,697.625 279.4688,696.5625 Q278.7813,695.4844 278.7813,694.2031 L278.7813,693.0469 Q278.7813,691.7188 279.3906,690.5781 Q280.0156,689.4219 281.1094,688.8125 Q282.2031,688.1875 283.4375,688.1875 Q284.1719,688.1875 284.8125,688.3594 Q285.4688,688.5156 286.0156,688.875 Z " fill="#000000"/><text fill="#000000" font-family="sans-serif" font-size="14" lengthAdjust="spacing" textLength="116" x="303.75" y="698.7969">RepositoryFactory</text><line style="stroke:#181818;stroke-width:0.5;" x1="198.5" x2="492.5" y1="709" y2="709"/><line style="stroke:#181818;stroke-width:0.5;" x1="198.5" x2="492.5" y1="717" y2="717"/><ellipse cx="208.5" cy="731.8105" fill="#84BE84" rx="3" ry="3" style="stroke:#038048;stroke-width:1.0;"/><text fill="#000000" font-family="sans-serif" font-size="14" lengthAdjust="spacing" textLength="173" x="217.5" y="736.1074">newTransactionalContext();</text><ellipse cx="208.5" cy="750.4316" fill="#84BE84" rx="3" ry="3" style="stroke:#038048;stroke-width:1.0;"/><text fill="#000000" font-family="sans-serif" font-size="14" lengthAdjust="spacing" textLength="230" x="217.5" y="754.7285">users(TransactionalContext autoTx);</text><ellipse cx="208.5" cy="769.0527" fill="#84BE84" rx="3" ry="3" style="stroke:#038048;stroke-width:1.0;"/><text fill="#000000" font-family="sans-serif" font-size="14" lengthAdjust="spacing" textLength="49" x="217.5" y="773.3496">users();</text><ellipse cx="208.5" cy="787.6738" fill="#84BE84" rx="3" ry="3" style="stroke:#038048;stroke-width:1.0;"/><text fill="#000000" font-family="sans-serif" font-size="14" lengthAdjust="spacing" textLength="253" x="217.5" y="791.9707">jobOffers(TransactionalContext autoTx);</text><ellipse cx="208.5" cy="806.2949" fill="#84BE84" rx="3" ry="3" style="stroke:#038048;stroke-width:1.0;"/><text fill="#000000" font-family="sans-serif" font-size="14" lengthAdjust="spacing" textLength="72" x="217.5" y="810.5918">jobOffers();</text><ellipse cx="208.5" cy="824.916" fill="#84BE84" rx="3" ry="3" style="stroke:#038048;stroke-width:1.0;"/><text fill="#000000" font-family="sans-serif" font-size="14" lengthAdjust="spacing" textLength="270" x="217.5" y="829.2129">applications(TransactionalContext autoTx);</text><ellipse cx="208.5" cy="843.5371" fill="#84BE84" rx="3" ry="3" style="stroke:#038048;stroke-width:1.0;"/><text fill="#000000" font-family="sans-serif" font-size="14" lengthAdjust="spacing" textLength="89" x="217.5" y="847.834">applications();</text></g><!--class AuthorizationService--><g id="elem_AuthorizationService"><rect codeLine="35" fill="#F1F1F1" height="66.6211" id="AuthorizationService" rx="2.5" ry="2.5" style="stroke:#181818;stroke-width:0.5;" width="223" x="315" y="580"/><ellipse cx="357.9" cy="596" fill="#ADD1B2" rx="11" ry="11" style="stroke:#181818;stroke-width:1.0;"/><path d="M360.6656,591.875 Q360.8219,591.6563 361.0094,591.5469 Q361.1969,591.4375 361.4156,591.4375 Q361.7906,591.4375 362.025,591.7031 Q362.2594,591.9531 362.2594,592.5625 L362.2594,594.0156 Q362.2594,594.625 362.025,594.8906 Q361.7906,595.1563 361.4156,595.1563 Q361.0719,595.1563 360.8688,594.9531 Q360.6656,594.7656 360.5563,594.25 Q360.5094,593.8906 360.3219,593.7031 Q359.9938,593.3281 359.3844,593.1094 Q358.775,592.8906 358.15,592.8906 Q357.3844,592.8906 356.7438,593.2188 Q356.1188,593.5469 355.6188,594.2969 Q355.1344,595.0469 355.1344,596.0781 L355.1344,597.1719 Q355.1344,598.4063 356.025,599.2344 Q356.9156,600.0469 358.5094,600.0469 Q359.4469,600.0469 360.1031,599.7969 Q360.4938,599.6406 360.9156,599.2031 Q361.1813,598.9375 361.3219,598.8594 Q361.4781,598.7813 361.6813,598.7813 Q362.0094,598.7813 362.2594,599.0469 Q362.525,599.2969 362.525,599.6406 Q362.525,599.9844 362.1813,600.3906 Q361.6813,600.9688 360.8844,601.2969 Q359.8063,601.75 358.5094,601.75 Q356.9938,601.75 355.7906,601.125 Q354.8063,600.625 354.1188,599.5625 Q353.4313,598.4844 353.4313,597.2031 L353.4313,596.0469 Q353.4313,594.7188 354.0406,593.5781 Q354.6656,592.4219 355.7594,591.8125 Q356.8531,591.1875 358.0875,591.1875 Q358.8219,591.1875 359.4625,591.3594 Q360.1188,591.5156 360.6656,591.875 Z " fill="#000000"/><text fill="#000000" font-family="sans-serif" font-size="14" lengthAdjust="spacing" textLength="129" x="378.1" y="601.7969">AuthorizationService</text><line style="stroke:#181818;stroke-width:0.5;" x1="316" x2="537" y1="612" y2="612"/><line style="stroke:#181818;stroke-width:0.5;" x1="316" x2="537" y1="620" y2="620"/><ellipse cx="326" cy="634.8105" fill="#84BE84" rx="3" ry="3" style="stroke:#038048;stroke-width:1.0;"/><text fill="#000000" font-family="sans-serif" font-size="14" lengthAdjust="spacing" textLength="197" x="335" y="639.1074">loggedinUserWithPermissions()</text></g><!--class ListJobOfferService--><g id="elem_ListJobOfferService"><rect codeLine="39" fill="#F1F1F1" height="85.2422" id="ListJobOfferService" rx="2.5" ry="2.5" style="stroke:#181818;stroke-width:0.5;" width="235" x="7" y="885"/><ellipse cx="58.75" cy="901" fill="#ADD1B2" rx="11" ry="11" style="stroke:#181818;stroke-width:1.0;"/><path d="M61.5156,896.875 Q61.6719,896.6563 61.8594,896.5469 Q62.0469,896.4375 62.2656,896.4375 Q62.6406,896.4375 62.875,896.7031 Q63.1094,896.9531 63.1094,897.5625 L63.1094,899.0156 Q63.1094,899.625 62.875,899.8906 Q62.6406,900.1563 62.2656,900.1563 Q61.9219,900.1563 61.7188,899.9531 Q61.5156,899.7656 61.4063,899.25 Q61.3594,898.8906 61.1719,898.7031 Q60.8438,898.3281 60.2344,898.1094 Q59.625,897.8906 59,897.8906 Q58.2344,897.8906 57.5938,898.2188 Q56.9688,898.5469 56.4688,899.2969 Q55.9844,900.0469 55.9844,901.0781 L55.9844,902.1719 Q55.9844,903.4063 56.875,904.2344 Q57.7656,905.0469 59.3594,905.0469 Q60.2969,905.0469 60.9531,904.7969 Q61.3438,904.6406 61.7656,904.2031 Q62.0313,903.9375 62.1719,903.8594 Q62.3281,903.7813 62.5313,903.7813 Q62.8594,903.7813 63.1094,904.0469 Q63.375,904.2969 63.375,904.6406 Q63.375,904.9844 63.0313,905.3906 Q62.5313,905.9688 61.7344,906.2969 Q60.6563,906.75 59.3594,906.75 Q57.8438,906.75 56.6406,906.125 Q55.6563,905.625 54.9688,904.5625 Q54.2813,903.4844 54.2813,902.2031 L54.2813,901.0469 Q54.2813,899.7188 54.8906,898.5781 Q55.5156,897.4219 56.6094,896.8125 Q57.7031,896.1875 58.9375,896.1875 Q59.6719,896.1875 60.3125,896.3594 Q60.9688,896.5156 61.5156,896.875 Z " fill="#000000"/><text fill="#000000" font-family="sans-serif" font-size="14" lengthAdjust="spacing" textLength="123" x="79.25" y="906.7969">ListJobOfferService</text><line style="stroke:#181818;stroke-width:0.5;" x1="8" x2="241" y1="917" y2="917"/><line style="stroke:#181818;stroke-width:0.5;" x1="8" x2="241" y1="925" y2="925"/><ellipse cx="18" cy="939.8105" fill="#84BE84" rx="3" ry="3" style="stroke:#038048;stroke-width:1.0;"/><text fill="#000000" font-family="sans-serif" font-size="14" lengthAdjust="spacing" textLength="162" x="27" y="944.1074">getJobOffersOfManager()</text><ellipse cx="18" cy="958.4316" fill="#84BE84" rx="3" ry="3" style="stroke:#038048;stroke-width:1.0;"/><text fill="#000000" font-family="sans-serif" font-size="14" lengthAdjust="spacing" textLength="209" x="27" y="962.7285">getJobRequirementsOfJobOffer()</text></g><!--class ListJobApplicationService--><g id="elem_ListJobApplicationService"><rect codeLine="44" fill="#F1F1F1" height="66.6211" id="ListJobApplicationService" rx="2.5" ry="2.5" style="stroke:#181818;stroke-width:0.5;" width="257" x="543" y="580"/><ellipse cx="587.25" cy="596" fill="#ADD1B2" rx="11" ry="11" style="stroke:#181818;stroke-width:1.0;"/><path d="M590.0156,591.875 Q590.1719,591.6563 590.3594,591.5469 Q590.5469,591.4375 590.7656,591.4375 Q591.1406,591.4375 591.375,591.7031 Q591.6094,591.9531 591.6094,592.5625 L591.6094,594.0156 Q591.6094,594.625 591.375,594.8906 Q591.1406,595.1563 590.7656,595.1563 Q590.4219,595.1563 590.2188,594.9531 Q590.0156,594.7656 589.9063,594.25 Q589.8594,593.8906 589.6719,593.7031 Q589.3438,593.3281 588.7344,593.1094 Q588.125,592.8906 587.5,592.8906 Q586.7344,592.8906 586.0938,593.2188 Q585.4688,593.5469 584.9688,594.2969 Q584.4844,595.0469 584.4844,596.0781 L584.4844,597.1719 Q584.4844,598.4063 585.375,599.2344 Q586.2656,600.0469 587.8594,600.0469 Q588.7969,600.0469 589.4531,599.7969 Q589.8438,599.6406 590.2656,599.2031 Q590.5313,598.9375 590.6719,598.8594 Q590.8281,598.7813 591.0313,598.7813 Q591.3594,598.7813 591.6094,599.0469 Q591.875,599.2969 591.875,599.6406 Q591.875,599.9844 591.5313,600.3906 Q591.0313,600.9688 590.2344,601.2969 Q589.1563,601.75 587.8594,601.75 Q586.3438,601.75 585.1406,601.125 Q584.1563,600.625 583.4688,599.5625 Q582.7813,598.4844 582.7813,597.2031 L582.7813,596.0469 Q582.7813,594.7188 583.3906,593.5781 Q584.0156,592.4219 585.1094,591.8125 Q586.2031,591.1875 587.4375,591.1875 Q588.1719,591.1875 588.8125,591.3594 Q589.4688,591.5156 590.0156,591.875 Z " fill="#000000"/><text fill="#000000" font-family="sans-serif" font-size="14" lengthAdjust="spacing" textLength="160" x="607.75" y="601.7969">ListJobApplicationService</text><line style="stroke:#181818;stroke-width:0.5;" x1="544" x2="799" y1="612" y2="612"/><line style="stroke:#181818;stroke-width:0.5;" x1="544" x2="799" y1="620" y2="620"/><ellipse cx="554" cy="634.8105" fill="#84BE84" rx="3" ry="3" style="stroke:#038048;stroke-width:1.0;"/><text fill="#000000" font-family="sans-serif" font-size="14" lengthAdjust="spacing" textLength="231" x="563" y="639.1074">getJobApplicationsOfJobOfferCode()</text></g><!--class PluginHandlerService--><g id="elem_PluginHandlerService"><rect codeLine="48" fill="#F1F1F1" height="66.6211" id="PluginHandlerService" rx="2.5" ry="2.5" style="stroke:#181818;stroke-width:0.5;" width="206" x="876.5" y="732.5"/><ellipse cx="909.05" cy="748.5" fill="#ADD1B2" rx="11" ry="11" style="stroke:#181818;stroke-width:1.0;"/><path d="M911.8156,744.375 Q911.9719,744.1563 912.1594,744.0469 Q912.3469,743.9375 912.5656,743.9375 Q912.9406,743.9375 913.175,744.2031 Q913.4094,744.4531 913.4094,745.0625 L913.4094,746.5156 Q913.4094,747.125 913.175,747.3906 Q912.9406,747.6563 912.5656,747.6563 Q912.2219,747.6563 912.0188,747.4531 Q911.8156,747.2656 911.7063,746.75 Q911.6594,746.3906 911.4719,746.2031 Q911.1438,745.8281 910.5344,745.6094 Q909.925,745.3906 909.3,745.3906 Q908.5344,745.3906 907.8938,745.7188 Q907.2688,746.0469 906.7688,746.7969 Q906.2844,747.5469 906.2844,748.5781 L906.2844,749.6719 Q906.2844,750.9063 907.175,751.7344 Q908.0656,752.5469 909.6594,752.5469 Q910.5969,752.5469 911.2531,752.2969 Q911.6438,752.1406 912.0656,751.7031 Q912.3313,751.4375 912.4719,751.3594 Q912.6281,751.2813 912.8313,751.2813 Q913.1594,751.2813 913.4094,751.5469 Q913.675,751.7969 913.675,752.1406 Q913.675,752.4844 913.3313,752.8906 Q912.8313,753.4688 912.0344,753.7969 Q910.9563,754.25 909.6594,754.25 Q908.1438,754.25 906.9406,753.625 Q905.9563,753.125 905.2688,752.0625 Q904.5813,750.9844 904.5813,749.7031 L904.5813,748.5469 Q904.5813,747.2188 905.1906,746.0781 Q905.8156,744.9219 906.9094,744.3125 Q908.0031,743.6875 909.2375,743.6875 Q909.9719,743.6875 910.6125,743.8594 Q911.2688,744.0156 911.8156,744.375 Z " fill="#000000"/><text fill="#000000" font-family="sans-serif" font-size="14" lengthAdjust="spacing" textLength="135" x="926.95" y="754.2969">PluginHandlerService</text><line style="stroke:#181818;stroke-width:0.5;" x1="877.5" x2="1081.5" y1="764.5" y2="764.5"/><line style="stroke:#181818;stroke-width:0.5;" x1="877.5" x2="1081.5" y1="772.5" y2="772.5"/><ellipse cx="887.5" cy="787.3105" fill="#84BE84" rx="3" ry="3" style="stroke:#038048;stroke-width:1.0;"/><text fill="#000000" font-family="sans-serif" font-size="14" lengthAdjust="spacing" textLength="180" x="896.5" y="791.6074">activateEvaluationFunction()</text></g><!--class JobAplicationManagementService--><g id="elem_JobAplicationManagementService"><rect codeLine="52" fill="#F1F1F1" height="66.6211" id="JobAplicationManagementService" rx="2.5" ry="2.5" style="stroke:#181818;stroke-width:0.5;" width="244" x="701.5" y="483"/><ellipse cx="716.5" cy="499" fill="#ADD1B2" rx="11" ry="11" style="stroke:#181818;stroke-width:1.0;"/><path d="M719.2656,494.875 Q719.4219,494.6563 719.6094,494.5469 Q719.7969,494.4375 720.0156,494.4375 Q720.3906,494.4375 720.625,494.7031 Q720.8594,494.9531 720.8594,495.5625 L720.8594,497.0156 Q720.8594,497.625 720.625,497.8906 Q720.3906,498.1563 720.0156,498.1563 Q719.6719,498.1563 719.4688,497.9531 Q719.2656,497.7656 719.1563,497.25 Q719.1094,496.8906 718.9219,496.7031 Q718.5938,496.3281 717.9844,496.1094 Q717.375,495.8906 716.75,495.8906 Q715.9844,495.8906 715.3438,496.2188 Q714.7188,496.5469 714.2188,497.2969 Q713.7344,498.0469 713.7344,499.0781 L713.7344,500.1719 Q713.7344,501.4063 714.625,502.2344 Q715.5156,503.0469 717.1094,503.0469 Q718.0469,503.0469 718.7031,502.7969 Q719.0938,502.6406 719.5156,502.2031 Q719.7813,501.9375 719.9219,501.8594 Q720.0781,501.7813 720.2813,501.7813 Q720.6094,501.7813 720.8594,502.0469 Q721.125,502.2969 721.125,502.6406 Q721.125,502.9844 720.7813,503.3906 Q720.2813,503.9688 719.4844,504.2969 Q718.4063,504.75 717.1094,504.75 Q715.5938,504.75 714.3906,504.125 Q713.4063,503.625 712.7188,502.5625 Q712.0313,501.4844 712.0313,500.2031 L712.0313,499.0469 Q712.0313,497.7188 712.6406,496.5781 Q713.2656,495.4219 714.3594,494.8125 Q715.4531,494.1875 716.6875,494.1875 Q717.4219,494.1875 718.0625,494.3594 Q718.7188,494.5156 719.2656,494.875 Z " fill="#000000"/><text fill="#000000" font-family="sans-serif" font-size="14" lengthAdjust="spacing" textLength="212" x="730.5" y="504.7969">JobAplicationManagementService</text><line style="stroke:#181818;stroke-width:0.5;" x1="702.5" x2="944.5" y1="515" y2="515"/><line style="stroke:#181818;stroke-width:0.5;" x1="702.5" x2="944.5" y1="523" y2="523"/><ellipse cx="712.5" cy="537.8105" fill="#84BE84" rx="3" ry="3" style="stroke:#038048;stroke-width:1.0;"/><text fill="#000000" font-family="sans-serif" font-size="14" lengthAdjust="spacing" textLength="116" x="721.5" y="542.1074">validateAndSave()</text></g><!--class JobOfferRepository--><g id="elem_JobOfferRepository"><rect codeLine="56" fill="#F1F1F1" height="48" id="JobOfferRepository" rx="2.5" ry="2.5" style="stroke:#181818;stroke-width:0.5;" width="154" x="151.5" y="1080"/><ellipse cx="166.5" cy="1096" fill="#ADD1B2" rx="11" ry="11" style="stroke:#181818;stroke-width:1.0;"/><path d="M169.2656,1091.875 Q169.4219,1091.6563 169.6094,1091.5469 Q169.7969,1091.4375 170.0156,1091.4375 Q170.3906,1091.4375 170.625,1091.7031 Q170.8594,1091.9531 170.8594,1092.5625 L170.8594,1094.0156 Q170.8594,1094.625 170.625,1094.8906 Q170.3906,1095.1563 170.0156,1095.1563 Q169.6719,1095.1563 169.4688,1094.9531 Q169.2656,1094.7656 169.1563,1094.25 Q169.1094,1093.8906 168.9219,1093.7031 Q168.5938,1093.3281 167.9844,1093.1094 Q167.375,1092.8906 166.75,1092.8906 Q165.9844,1092.8906 165.3438,1093.2188 Q164.7188,1093.5469 164.2188,1094.2969 Q163.7344,1095.0469 163.7344,1096.0781 L163.7344,1097.1719 Q163.7344,1098.4063 164.625,1099.2344 Q165.5156,1100.0469 167.1094,1100.0469 Q168.0469,1100.0469 168.7031,1099.7969 Q169.0938,1099.6406 169.5156,1099.2031 Q169.7813,1098.9375 169.9219,1098.8594 Q170.0781,1098.7813 170.2813,1098.7813 Q170.6094,1098.7813 170.8594,1099.0469 Q171.125,1099.2969 171.125,1099.6406 Q171.125,1099.9844 170.7813,1100.3906 Q170.2813,1100.9688 169.4844,1101.2969 Q168.4063,1101.75 167.1094,1101.75 Q165.5938,1101.75 164.3906,1101.125 Q163.4063,1100.625 162.7188,1099.5625 Q162.0313,1098.4844 162.0313,1097.2031 L162.0313,1096.0469 Q162.0313,1094.7188 162.6406,1093.5781 Q163.2656,1092.4219 164.3594,1091.8125 Q165.4531,1091.1875 166.6875,1091.1875 Q167.4219,1091.1875 168.0625,1091.3594 Q168.7188,1091.5156 169.2656,1091.875 Z " fill="#000000"/><text fill="#000000" font-family="sans-serif" font-size="14" lengthAdjust="spacing" textLength="122" x="180.5" y="1101.7969">JobOfferRepository</text><line style="stroke:#181818;stroke-width:0.5;" x1="152.5" x2="304.5" y1="1112" y2="1112"/><line style="stroke:#181818;stroke-width:0.5;" x1="152.5" x2="304.5" y1="1120" y2="1120"/></g><!--class UserRepository--><g id="elem_UserRepository"><rect codeLine="60" fill="#F1F1F1" height="48" id="UserRepository" rx="2.5" ry="2.5" style="stroke:#181818;stroke-width:0.5;" width="129" x="354" y="1080"/><ellipse cx="369" cy="1096" fill="#ADD1B2" rx="11" ry="11" style="stroke:#181818;stroke-width:1.0;"/><path d="M371.7656,1091.875 Q371.9219,1091.6563 372.1094,1091.5469 Q372.2969,1091.4375 372.5156,1091.4375 Q372.8906,1091.4375 373.125,1091.7031 Q373.3594,1091.9531 373.3594,1092.5625 L373.3594,1094.0156 Q373.3594,1094.625 373.125,1094.8906 Q372.8906,1095.1563 372.5156,1095.1563 Q372.1719,1095.1563 371.9688,1094.9531 Q371.7656,1094.7656 371.6563,1094.25 Q371.6094,1093.8906 371.4219,1093.7031 Q371.0938,1093.3281 370.4844,1093.1094 Q369.875,1092.8906 369.25,1092.8906 Q368.4844,1092.8906 367.8438,1093.2188 Q367.2188,1093.5469 366.7188,1094.2969 Q366.2344,1095.0469 366.2344,1096.0781 L366.2344,1097.1719 Q366.2344,1098.4063 367.125,1099.2344 Q368.0156,1100.0469 369.6094,1100.0469 Q370.5469,1100.0469 371.2031,1099.7969 Q371.5938,1099.6406 372.0156,1099.2031 Q372.2813,1098.9375 372.4219,1098.8594 Q372.5781,1098.7813 372.7813,1098.7813 Q373.1094,1098.7813 373.3594,1099.0469 Q373.625,1099.2969 373.625,1099.6406 Q373.625,1099.9844 373.2813,1100.3906 Q372.7813,1100.9688 371.9844,1101.2969 Q370.9063,1101.75 369.6094,1101.75 Q368.0938,1101.75 366.8906,1101.125 Q365.9063,1100.625 365.2188,1099.5625 Q364.5313,1098.4844 364.5313,1097.2031 L364.5313,1096.0469 Q364.5313,1094.7188 365.1406,1093.5781 Q365.7656,1092.4219 366.8594,1091.8125 Q367.9531,1091.1875 369.1875,1091.1875 Q369.9219,1091.1875 370.5625,1091.3594 Q371.2188,1091.5156 371.7656,1091.875 Z " fill="#000000"/><text fill="#000000" font-family="sans-serif" font-size="14" lengthAdjust="spacing" textLength="97" x="383" y="1101.7969">UserRepository</text><line style="stroke:#181818;stroke-width:0.5;" x1="355" x2="482" y1="1112" y2="1112"/><line style="stroke:#181818;stroke-width:0.5;" x1="355" x2="482" y1="1120" y2="1120"/></g><!--class JobAplicationRepository--><g id="elem_JobAplicationRepository"><rect codeLine="64" fill="#F1F1F1" height="48" id="JobAplicationRepository" rx="2.5" ry="2.5" style="stroke:#181818;stroke-width:0.5;" width="183" x="580" y="1080"/><ellipse cx="595" cy="1096" fill="#ADD1B2" rx="11" ry="11" style="stroke:#181818;stroke-width:1.0;"/><path d="M597.7656,1091.875 Q597.9219,1091.6563 598.1094,1091.5469 Q598.2969,1091.4375 598.5156,1091.4375 Q598.8906,1091.4375 599.125,1091.7031 Q599.3594,1091.9531 599.3594,1092.5625 L599.3594,1094.0156 Q599.3594,1094.625 599.125,1094.8906 Q598.8906,1095.1563 598.5156,1095.1563 Q598.1719,1095.1563 597.9688,1094.9531 Q597.7656,1094.7656 597.6563,1094.25 Q597.6094,1093.8906 597.4219,1093.7031 Q597.0938,1093.3281 596.4844,1093.1094 Q595.875,1092.8906 595.25,1092.8906 Q594.4844,1092.8906 593.8438,1093.2188 Q593.2188,1093.5469 592.7188,1094.2969 Q592.2344,1095.0469 592.2344,1096.0781 L592.2344,1097.1719 Q592.2344,1098.4063 593.125,1099.2344 Q594.0156,1100.0469 595.6094,1100.0469 Q596.5469,1100.0469 597.2031,1099.7969 Q597.5938,1099.6406 598.0156,1099.2031 Q598.2813,1098.9375 598.4219,1098.8594 Q598.5781,1098.7813 598.7813,1098.7813 Q599.1094,1098.7813 599.3594,1099.0469 Q599.625,1099.2969 599.625,1099.6406 Q599.625,1099.9844 599.2813,1100.3906 Q598.7813,1100.9688 597.9844,1101.2969 Q596.9063,1101.75 595.6094,1101.75 Q594.0938,1101.75 592.8906,1101.125 Q591.9063,1100.625 591.2188,1099.5625 Q590.5313,1098.4844 590.5313,1097.2031 L590.5313,1096.0469 Q590.5313,1094.7188 591.1406,1093.5781 Q591.7656,1092.4219 592.8594,1091.8125 Q593.9531,1091.1875 595.1875,1091.1875 Q595.9219,1091.1875 596.5625,1091.3594 Q597.2188,1091.5156 597.7656,1091.875 Z " fill="#000000"/><text fill="#000000" font-family="sans-serif" font-size="14" lengthAdjust="spacing" textLength="151" x="609" y="1101.7969">JobAplicationRepository</text><line style="stroke:#181818;stroke-width:0.5;" x1="581" x2="762" y1="1112" y2="1112"/><line style="stroke:#181818;stroke-width:0.5;" x1="581" x2="762" y1="1120" y2="1120"/></g><!--link CustomerManagerUI to ValidateJobOfferApplicationsUI--><g id="link_CustomerManagerUI_ValidateJobOfferApplicationsUI"><path codeLine="68" d="M426.5,74.26 C426.5,93.51 426.5,111.38 426.5,128.71 " fill="none" id="CustomerManagerUI-to-ValidateJobOfferApplicationsUI" style="stroke:#181818;stroke-width:1.0;stroke-dasharray:7.0,7.0;"/><polygon fill="#181818" points="426.5,134.71,430.5,125.71,426.5,129.71,422.5,125.71,426.5,134.71" style="stroke:#181818;stroke-width:1.0;"/></g><!--link ValidateJobOfferApplicationsUI to ValidateJobOfferApplicationsController--><g id="link_ValidateJobOfferApplicationsUI_ValidateJobOfferApplicationsController"><path codeLine="70" d="M426.5,183.01 C426.5,199.07 426.5,215.53 426.5,237.77 " fill="none" id="ValidateJobOfferApplicationsUI-to-ValidateJobOfferApplicationsController" style="stroke:#181818;stroke-width:1.0;stroke-dasharray:7.0,7.0;"/><polygon fill="#181818" points="426.5,243.77,430.5,234.77,426.5,238.77,422.5,234.77,426.5,243.77" style="stroke:#181818;stroke-width:1.0;"/></g><!--link ValidateJobOfferApplicationsController to PersistenceContext--><g id="link_ValidateJobOfferApplicationsController_PersistenceContext"><path codeLine="73" d="M342.13,404.11 C333.93,413.75 326.19,423.8 319.5,434 C309.71,448.94 303.982,461.5874 298.472,477.0674 " fill="none" id="ValidateJobOfferApplicationsController-to-PersistenceContext" style="stroke:#181818;stroke-width:1.0;stroke-dasharray:7.0,7.0;"/><polygon fill="#181818" points="296.46,482.72,303.2464,475.5824,298.1367,478.0095,295.7096,472.8998,296.46,482.72" style="stroke:#181818;stroke-width:1.0;"/><text fill="#000000" font-family="sans-serif" font-size="13" lengthAdjust="spacing" textLength="79" x="320.5" y="449.0283">repositories ()</text></g><!--link ValidateJobOfferApplicationsController to AuthorizationService--><g id="link_ValidateJobOfferApplicationsController_AuthorizationService"><path codeLine="74" d="M426.5,404.32 C426.5,462.16 426.5,531.55 426.5,573.91 " fill="none" id="ValidateJobOfferApplicationsController-to-AuthorizationService" style="stroke:#181818;stroke-width:1.0;"/><polygon fill="#181818" points="426.5,579.91,430.5,570.91,426.5,574.91,422.5,570.91,426.5,579.91" style="stroke:#181818;stroke-width:1.0;"/></g><!--link ValidateJobOfferApplicationsController to ListJobOfferService--><g id="link_ValidateJobOfferApplicationsController_ListJobOfferService"><path codeLine="75" d="M288.99,390.39 C251.84,414.48 215.37,445.3 191.5,483 C110.27,611.3 113.4649,795.4873 119.8049,878.8273 " fill="none" id="ValidateJobOfferApplicationsController-to-ListJobOfferService" style="stroke:#181818;stroke-width:1.0;"/><polygon fill="#181818" points="120.26,884.81,123.5658,875.5325,119.8807,879.8244,115.5888,876.1393,120.26,884.81" style="stroke:#181818;stroke-width:1.0;"/></g><!--link ValidateJobOfferApplicationsController to ListJobApplicationService--><g id="link_ValidateJobOfferApplicationsController_ListJobApplicationService"><path codeLine="76" d="M494.1,404.32 C543.39,462.16 603.7382,532.9834 639.8382,575.3434 " fill="none" id="ValidateJobOfferApplicationsController-to-ListJobApplicationService" style="stroke:#181818;stroke-width:1.0;"/><polygon fill="#181818" points="643.73,579.91,640.9368,570.4655,640.4869,576.1045,634.8479,575.6546,643.73,579.91" style="stroke:#181818;stroke-width:1.0;"/></g><!--link ValidateJobOfferApplicationsController to JobAplicationManagementService--><g id="link_ValidateJobOfferApplicationsController_JobAplicationManagementService"><path codeLine="77" d="M564.24,391.09 C628.96,422.15 697.8106,455.1842 750.2206,480.3342 " fill="none" id="ValidateJobOfferApplicationsController-to-JobAplicationManagementService" style="stroke:#181818;stroke-width:1.0;"/><polygon fill="#181818" points="755.63,482.93,749.2464,475.43,751.1222,480.7668,745.7853,482.6426,755.63,482.93" style="stroke:#181818;stroke-width:1.0;"/></g><!--link JobAplicationManagementService to JobAplicationRepository--><g id="link_JobAplicationManagementService_JobAplicationRepository"><path codeLine="79" d="M818.74,550.11 C814.72,576.38 808.5,614.22 801.5,647 C762.86,827.9 761.68,876.51 697.5,1050 C693.77,1060.09 691.4383,1065.4711 686.7883,1074.6211 " fill="none" id="JobAplicationManagementService-to-JobAplicationRepository" style="stroke:#181818;stroke-width:1.0;stroke-dasharray:7.0,7.0;"/><polygon fill="#181818" points="684.07,1079.97,691.7134,1073.7588,686.3352,1075.5126,684.5815,1070.1344,684.07,1079.97" style="stroke:#181818;stroke-width:1.0;"/><text fill="#000000" font-family="sans-serif" font-size="13" lengthAdjust="spacing" textLength="34" x="751.5" y="933.0283">save()</text></g><!--link JobAplicationManagementService to PluginHandlerService--><g id="link_JobAplicationManagementService_PluginHandlerService"><path codeLine="80" d="M844.05,550.11 C873.92,597.5 925.8111,679.8139 955.7011,727.2439 " fill="none" id="JobAplicationManagementService-to-PluginHandlerService" style="stroke:#181818;stroke-width:1.0;"/><polygon fill="#181818" points="958.9,732.32,957.4857,722.5732,956.2342,728.0899,950.7175,726.8385,958.9,732.32" style="stroke:#181818;stroke-width:1.0;"/></g><!--link ListJobOfferService to JobOfferRepository--><g id="link_ListJobOfferService_JobOfferRepository"><path codeLine="82" d="M149.41,970.3 C169.84,1004.58 194.9372,1046.6966 211.5672,1074.5866 " fill="none" id="ListJobOfferService-to-JobOfferRepository" style="stroke:#181818;stroke-width:1.0;stroke-dasharray:7.0,7.0;"/><polygon fill="#181818" points="214.64,1079.74,213.4664,1069.9613,212.0793,1075.4455,206.5951,1074.0584,214.64,1079.74" style="stroke:#181818;stroke-width:1.0;"/></g><!--link ListJobApplicationService to JobAplicationRepository--><g id="link_ListJobApplicationService_JobAplicationRepository"><path codeLine="84" d="M671.5,647.31 C671.5,739.72 671.5,994.6 671.5,1073.87 " fill="none" id="ListJobApplicationService-to-JobAplicationRepository" style="stroke:#181818;stroke-width:1.0;stroke-dasharray:7.0,7.0;"/><polygon fill="#181818" points="671.5,1079.87,675.5,1070.87,671.5,1074.87,667.5,1070.87,671.5,1079.87" style="stroke:#181818;stroke-width:1.0;"/></g><!--link AuthorizationService to UserRepository--><g id="link_AuthorizationService_UserRepository"><path codeLine="86" d="M482.61,647.11 C493.27,655.61 503.32,665.63 510.5,677 C593.08,807.74 653.8,886.24 574.5,1019 C554.7,1052.14 522.4438,1070.8622 488.9638,1083.4922 " fill="none" id="AuthorizationService-to-UserRepository" style="stroke:#181818;stroke-width:1.0;stroke-dasharray:7.0,7.0;"/><polygon fill="#181818" points="483.35,1085.61,493.1826,1086.1759,488.0282,1083.8452,490.3589,1078.6908,483.35,1085.61" style="stroke:#181818;stroke-width:1.0;"/></g><!--link PersistenceContext to RepositoryFactory--><g id="link_PersistenceContext_RepositoryFactory"><path codeLine="88" d="M264.09,550.21 C258.92,559.45 254.17,569.77 251.5,580 C243.98,608.81 241.67,618.89 251.5,647 C255.09,657.26 256.9231,662.1371 262.6131,671.7471 " fill="none" id="PersistenceContext-to-RepositoryFactory" style="stroke:#181818;stroke-width:1.0;"/><polygon fill="#181818" points="265.67,676.91,264.5266,667.1277,263.1226,672.6076,257.6427,671.2036,265.67,676.91" style="stroke:#181818;stroke-width:1.0;"/><text fill="#000000" font-family="sans-serif" font-size="13" lengthAdjust="spacing" textLength="44" x="252.5" y="619.0283">create()</text></g><!--link RepositoryFactory to JobOfferRepository--><g id="link_RepositoryFactory_JobOfferRepository"><path codeLine="90" d="M314.76,855.28 C288.49,930.72 254.4728,1028.4136 238.5828,1074.0536 " fill="none" id="RepositoryFactory-to-JobOfferRepository" style="stroke:#181818;stroke-width:1.0;"/><polygon fill="#181818" points="236.61,1079.72,243.3468,1072.5356,238.254,1074.998,235.7916,1069.9052,236.61,1079.72" style="stroke:#181818;stroke-width:1.0;"/><text fill="#000000" font-family="sans-serif" font-size="13" lengthAdjust="spacing" textLength="44" x="265.5" y="1015.0283">create()</text></g><!--link RepositoryFactory to UserRepository--><g id="link_RepositoryFactory_UserRepository"><path codeLine="91" d="M364.68,855.28 C381.07,930.72 402.2569,1028.2166 412.1669,1073.8566 " fill="none" id="RepositoryFactory-to-UserRepository" style="stroke:#181818;stroke-width:1.0;"/><polygon fill="#181818" points="413.44,1079.72,415.4392,1070.0762,412.3791,1074.8339,407.6214,1071.7737,413.44,1079.72" style="stroke:#181818;stroke-width:1.0;"/><text fill="#000000" font-family="sans-serif" font-size="13" lengthAdjust="spacing" textLength="44" x="401.5" y="1015.0283">create()</text></g><!--link RepositoryFactory to JobAplicationRepository--><g id="link_RepositoryFactory_JobAplicationRepository"><path codeLine="92" d="M431.15,855.28 C504.35,930.72 600.4515,1029.7742 644.7415,1075.4142 " fill="none" id="RepositoryFactory-to-JobAplicationRepository" style="stroke:#181818;stroke-width:1.0;"/><polygon fill="#181818" points="648.92,1079.72,645.5228,1070.4756,645.4379,1076.1318,639.7817,1076.0469,648.92,1079.72" style="stroke:#181818;stroke-width:1.0;"/><text fill="#000000" font-family="sans-serif" font-size="13" lengthAdjust="spacing" textLength="44" x="590.5" y="1015.0283">create()</text></g><!--SRC=[dLLTJy8m57tlh-WZnC0FmCJ448aQ3KP1dsjt6TNIOjlXL_pljcFhkgrZA2-4stFFlJqzzq8vqHfFCsta1jGj4IG5jRp2tmZRpycES9OG0-VRBMUK62Q57WmH-a68vfcF1U1QFizNAr0XCASv3ZgLmYZ9EQYoCax1b4XNSX-aQw2lz_2MCGKR4AOwiV2kkAK9QyrN9Qy7-MjoteFC6pX4wAzxP_jcse2Wu6u77wQyceAjrCn8nK276VTb_7D6gFig4mIyBnGHsaPjFS8Bli7mjEWgqqwa60QJpCZ5HmFfVxvuXOz9hj0-H49Z7CDHIx3HwlhdcLbRJRxoimTGEqR1ku7BD8M4YQNj_ucPjLLtmxGk_EWvRgpYvMCqAK93pLU5rHi-2IqKVzQYGl3-yJfnWqnb0ZMJy2nbufA8XBSRTahkh2ilh3spd6cMYLpTa2AlLPRQtygrtoJp5XV90zb1Wo5lhl9VRMwTv1r7jTejJ7khZCTdFHi3ePwDqaTHRH9qc2jOEOupCguJ74ugjf8ToJSQdKNT_9VyY9F_aTwswLz83biBeHxhELcx73B1Uk_27WxNHcn848gD-hvWmymU6fdPyO4U4Ofk99TH7mc48kPnZRSN-WHJ1LPyzn_QFXqLeZUdCSZgI6hCQ7z2zxlup5y0]--></g></svg>