<?xml version="1.0" encoding="us-ascii" standalone="no"?><svg xmlns="http://www.w3.org/2000/svg" xmlns:xlink="http://www.w3.org/1999/xlink" contentStyleType="text/css" height="453px" preserveAspectRatio="none" style="width:718px;height:453px;background:#FFFFFF;" version="1.1" viewBox="0 0 718 453" width="718px" zoomAndPan="magnify"><defs/><g><text fill="#000000" font-family="sans-serif" font-size="14" font-weight="bold" lengthAdjust="spacing" textLength="185" x="265" y="30.1074">US-3001 Client Server SSD</text><rect fill="#FFFFFF" height="165.7461" style="stroke:#181818;stroke-width:1.0;" width="10" x="84" y="94.2422"/><rect fill="#FFFFFF" height="14" style="stroke:#181818;stroke-width:1.0;" width="10" x="84" y="383.8613"/><rect fill="#FFFFFF" height="203.0371" style="stroke:#181818;stroke-width:1.0;" width="10" x="298" y="88.2422"/><rect fill="#FFFFFF" height="84.291" style="stroke:#181818;stroke-width:1.0;" width="10" x="298" y="322.5703"/><rect fill="#FFFFFF" height="61.291" style="stroke:#181818;stroke-width:1.0;" width="10" x="507" y="291.2793"/><line style="stroke:#181818;stroke-width:0.5;stroke-dasharray:5.0,5.0;" x1="89" x2="89" y1="78.2422" y2="415.8613"/><line style="stroke:#181818;stroke-width:0.5;stroke-dasharray:5.0,5.0;" x1="302.5" x2="302.5" y1="78.2422" y2="415.8613"/><line style="stroke:#181818;stroke-width:0.5;stroke-dasharray:5.0,5.0;" x1="512" x2="512" y1="78.2422" y2="415.8613"/><rect fill="#E2E2F0" height="32.6211" rx="2.5" ry="2.5" style="stroke:#181818;stroke-width:0.5;" width="168" x="5" y="44.6211"/><text fill="#000000" font-family="sans-serif" font-size="14" lengthAdjust="spacing" textLength="154" x="12" y="66.7285">InAppNotificationHandler</text><rect fill="#E2E2F0" height="32.6211" rx="2.5" ry="2.5" style="stroke:#181818;stroke-width:0.5;" width="168" x="5" y="414.8613"/><text fill="#000000" font-family="sans-serif" font-size="14" lengthAdjust="spacing" textLength="154" x="12" y="436.9688">InAppNotificationHandler</text><rect fill="#E2E2F0" height="32.6211" rx="2.5" ry="2.5" style="stroke:#181818;stroke-width:0.5;" width="113" x="246.5" y="44.6211"/><text fill="#000000" font-family="sans-serif" font-size="14" lengthAdjust="spacing" textLength="99" x="253.5" y="66.7285">FollowUpServer</text><rect fill="#E2E2F0" height="32.6211" rx="2.5" ry="2.5" style="stroke:#181818;stroke-width:0.5;" width="113" x="246.5" y="414.8613"/><text fill="#000000" font-family="sans-serif" font-size="14" lengthAdjust="spacing" textLength="99" x="253.5" y="436.9688">FollowUpServer</text><rect fill="#E2E2F0" height="32.6211" rx="2.5" ry="2.5" style="stroke:#181818;stroke-width:0.5;" width="92" x="466" y="44.6211"/><text fill="#000000" font-family="sans-serif" font-size="14" lengthAdjust="spacing" textLength="78" x="473" y="66.7285">H2Database</text><rect fill="#E2E2F0" height="32.6211" rx="2.5" ry="2.5" style="stroke:#181818;stroke-width:0.5;" width="92" x="466" y="414.8613"/><text fill="#000000" font-family="sans-serif" font-size="14" lengthAdjust="spacing" textLength="78" x="473" y="436.9688">H2Database</text><rect fill="#FFFFFF" height="165.7461" style="stroke:#181818;stroke-width:1.0;" width="10" x="84" y="94.2422"/><rect fill="#FFFFFF" height="14" style="stroke:#181818;stroke-width:1.0;" width="10" x="84" y="383.8613"/><rect fill="#FFFFFF" height="203.0371" style="stroke:#181818;stroke-width:1.0;" width="10" x="298" y="88.2422"/><rect fill="#FFFFFF" height="84.291" style="stroke:#181818;stroke-width:1.0;" width="10" x="298" y="322.5703"/><rect fill="#FFFFFF" height="61.291" style="stroke:#181818;stroke-width:1.0;" width="10" x="507" y="291.2793"/><polygon fill="#181818" points="72,90.2422,82,94.2422,72,98.2422,76,94.2422" style="stroke:#181818;stroke-width:1.0;"/><line style="stroke:#181818;stroke-width:1.0;" x1="0" x2="78" y1="94.2422" y2="94.2422"/><path d="M313,107.2422 L313,168.2422 L711,168.2422 L711,117.2422 L701,107.2422 L313,107.2422 " fill="#FEFFDD" style="stroke:#181818;stroke-width:0.5;"/><path d="M701,107.2422 L701,117.2422 L711,117.2422 L701,107.2422 " fill="#FEFFDD" style="stroke:#181818;stroke-width:0.5;"/><text fill="#000000" font-family="sans-serif" font-size="13" lengthAdjust="spacing" textLength="340" x="319" y="126.2705">The activation bar is always active, since these 2 programs</text><text fill="#000000" font-family="sans-serif" font-size="13" lengthAdjust="spacing" textLength="377" x="319" y="143.5615">are, infact, running at the same time in 2 hosts. It is possible that</text><text fill="#000000" font-family="sans-serif" font-size="13" lengthAdjust="spacing" textLength="332" x="319" y="160.8525">the server doing more operations than the one expressed.</text><polygon fill="#181818" points="286,193.4063,296,197.4063,286,201.4063,290,197.4063" style="stroke:#181818;stroke-width:1.0;"/><line style="stroke:#181818;stroke-width:1.0;" x1="94" x2="292" y1="197.4063" y2="197.4063"/><text fill="#000000" font-family="sans-serif" font-size="13" lengthAdjust="spacing" textLength="80" x="101" y="192.1436">sendVersion()</text><polygon fill="#181818" points="286,224.6973,296,228.6973,286,232.6973,290,228.6973" style="stroke:#181818;stroke-width:1.0;"/><line style="stroke:#181818;stroke-width:1.0;" x1="94" x2="292" y1="228.6973" y2="228.6973"/><text fill="#000000" font-family="sans-serif" font-size="13" lengthAdjust="spacing" textLength="127" x="101" y="223.4346">sendSendInboxCode()</text><polygon fill="#181818" points="286,255.9883,296,259.9883,286,263.9883,290,259.9883" style="stroke:#181818;stroke-width:1.0;"/><line style="stroke:#181818;stroke-width:1.0;" x1="89" x2="292" y1="259.9883" y2="259.9883"/><text fill="#000000" font-family="sans-serif" font-size="13" lengthAdjust="spacing" textLength="180" x="96" y="254.7256">getMyNotifications(loggedUser)</text><polygon fill="#181818" points="495,287.2793,505,291.2793,495,295.2793,499,291.2793" style="stroke:#181818;stroke-width:1.0;"/><line style="stroke:#181818;stroke-width:1.0;" x1="303" x2="501" y1="291.2793" y2="291.2793"/><text fill="#000000" font-family="sans-serif" font-size="13" lengthAdjust="spacing" textLength="180" x="310" y="286.0166">getCandidateNotifications(user)</text><polygon fill="#181818" points="319,318.5703,309,322.5703,319,326.5703,315,322.5703" style="stroke:#181818;stroke-width:1.0;"/><line style="stroke:#181818;stroke-width:1.0;stroke-dasharray:2.0,2.0;" x1="313" x2="506" y1="322.5703" y2="322.5703"/><text fill="#000000" font-family="sans-serif" font-size="13" lengthAdjust="spacing" textLength="69" x="325" y="317.3076">notifications</text><polygon fill="#181818" points="105,379.8613,95,383.8613,105,387.8613,101,383.8613" style="stroke:#181818;stroke-width:1.0;"/><line style="stroke:#181818;stroke-width:1.0;" x1="99" x2="297" y1="383.8613" y2="383.8613"/><text fill="#000000" font-family="sans-serif" font-size="13" lengthAdjust="spacing" textLength="69" x="111" y="378.5986">notifications</text><polygon fill="#181818" points="11,393.8613,1,397.8613,11,401.8613,7,397.8613" style="stroke:#181818;stroke-width:1.0;"/><line style="stroke:#181818;stroke-width:1.0;stroke-dasharray:2.0,2.0;" x1="5" x2="88" y1="397.8613" y2="397.8613"/><!--SRC=[TP9DRzim38Rl-XMyhGNgfEjknL1WI34qX-tYPdVQOcq1igI9J3_-VQdOpjobCM23Cj_tCJ_yfHT9VBjU9uz1zeDVjN5OC_tTKsYfiWwxZ8CnuiGJxEhgs_NrLzXuHq6WflnC6UhwtfY4MLphab9W6twaz3kAUt8jYelX0OFrgaI6VWm_w7z6x-FBBaqyLV4XCjYAUqQX-RmqFTpSes23JCLW6sEgkoFzQ9nVc13rb5tNomnxxDKvwhH4Q323Oq3_Wcyy9kWAsEaOG7hIpzn0oh6CWmrcpRdmfB8hoFiGNEW0fGY1SL27quSBwkaZ2wzWAuMU8hDhV26Yc8DwxDd6GXXY9eY9yg4aBgfmOCP0GAyf4pFPbQ5WeJHapDGVQEyJwLQ3OFzGPaLSN9wNr7flGnDVDz7IEM57ykjjkKg-yB7hoEvKScaidKnwiYh4DYDWenbdLVEHi_-VCEtbt_9qgSgeblM49UBa_rZ0YlUqk4LrSxTdcRFdUrKTuy-Gu_KE]--></g></svg>