<?xml version="1.0" encoding="us-ascii" standalone="no"?><svg xmlns="http://www.w3.org/2000/svg" xmlns:xlink="http://www.w3.org/1999/xlink" contentStyleType="text/css" height="423.6px" preserveAspectRatio="none" style="width:447px;height:423px;background:#FFFFFF;" version="1.1" viewBox="0 0 447 423" width="447.6px" zoomAndPan="magnify"><defs/><g><!--class InAppNotificationHandler--><g id="elem_InAppNotificationHandler"><rect codeLine="2" fill="#F1F1F1" height="185.2172" id="InAppNotificationHandler" rx="1.5" ry="1.5" style="stroke:#181818;stroke-width:0.3;" width="354" x="89.7" y="102.6"/><ellipse cx="217.95" cy="112.2" fill="#ADD1B2" rx="6.6" ry="6.6" style="stroke:#181818;stroke-width:0.6;"/><path d="M219.6094,109.725 Q219.7031,109.5938 219.8156,109.5281 Q219.9281,109.4625 220.0594,109.4625 Q220.2844,109.4625 220.425,109.6219 Q220.5656,109.7719 220.5656,110.1375 L220.5656,111.0094 Q220.5656,111.375 220.425,111.5344 Q220.2844,111.6938 220.0594,111.6938 Q219.8531,111.6938 219.7313,111.5719 Q219.6094,111.4594 219.5438,111.15 Q219.5156,110.9344 219.4031,110.8219 Q219.2062,110.5969 218.8406,110.4656 Q218.475,110.3344 218.1,110.3344 Q217.6406,110.3344 217.2563,110.5313 Q216.8813,110.7281 216.5812,111.1781 Q216.2906,111.6281 216.2906,112.2469 L216.2906,112.9031 Q216.2906,113.6438 216.825,114.1406 Q217.3594,114.6281 218.3156,114.6281 Q218.8781,114.6281 219.2719,114.4781 Q219.5063,114.3844 219.7594,114.1219 Q219.9188,113.9625 220.0031,113.9156 Q220.0969,113.8687 220.2188,113.8687 Q220.4156,113.8687 220.5656,114.0281 Q220.725,114.1781 220.725,114.3844 Q220.725,114.5906 220.5187,114.8344 Q220.2188,115.1812 219.7406,115.3781 Q219.0938,115.65 218.3156,115.65 Q217.4063,115.65 216.6844,115.275 Q216.0938,114.975 215.6813,114.3375 Q215.2687,113.6906 215.2687,112.9219 L215.2687,112.2281 Q215.2687,111.4312 215.6344,110.7469 Q216.0094,110.0531 216.6656,109.6875 Q217.3219,109.3125 218.0625,109.3125 Q218.5031,109.3125 218.8875,109.4156 Q219.2813,109.5094 219.6094,109.725 Z " fill="#000000"/><text fill="#000000" font-family="sans-serif" font-size="8.4" lengthAdjust="spacing" textLength="92.4" x="230.25" y="115.6781">InAppNotificationHandler</text><line style="stroke:#181818;stroke-width:0.3;" x1="90.3" x2="443.1" y1="121.8" y2="121.8"/><rect fill="none" height="3.6" style="stroke:#C82930;stroke-width:0.6;" width="3.6" x="94.5" y="128.8863"/><text fill="#000000" font-family="sans-serif" font-size="8.4" lengthAdjust="spacing" textLength="100.2" x="101.7" y="133.2645">AuthorizationService authz</text><rect fill="none" height="3.6" style="stroke:#C82930;stroke-width:0.6;" width="3.6" x="94.5" y="140.059"/><text fill="#000000" font-family="sans-serif" font-size="8.4" lengthAdjust="spacing" textLength="97.2" x="101.7" y="144.4371">short SOCKET_TIMEOUT</text><rect fill="none" height="3.6" style="stroke:#C82930;stroke-width:0.6;" width="3.6" x="94.5" y="151.2316"/><text fill="#000000" font-family="sans-serif" font-size="8.4" lengthAdjust="spacing" textLength="121.2" x="101.7" y="155.6098">NotificationRepository notifRepo</text><rect fill="none" height="3.6" style="stroke:#C82930;stroke-width:0.6;" width="3.6" x="94.5" y="162.4043"/><text fill="#000000" font-family="sans-serif" font-size="8.4" lengthAdjust="spacing" textLength="97.8" x="101.7" y="166.7824">UserRepository userRepo</text><rect fill="none" height="3.6" style="stroke:#C82930;stroke-width:0.6;" width="3.6" x="94.5" y="173.577"/><text fill="#000000" font-family="sans-serif" font-size="8.4" lengthAdjust="spacing" textLength="117" x="101.7" y="177.9551">static int ASS_PORT_NUMBER</text><rect fill="none" height="3.6" style="stroke:#C82930;stroke-width:0.6;" width="3.6" x="94.5" y="184.7496"/><text fill="#000000" font-family="sans-serif" font-size="8.4" lengthAdjust="spacing" textLength="100.8" x="101.7" y="189.1277">static InetAddress serverIP</text><rect fill="none" height="3.6" style="stroke:#C82930;stroke-width:0.6;" width="3.6" x="94.5" y="195.9223"/><text fill="#000000" font-family="sans-serif" font-size="8.4" lengthAdjust="spacing" textLength="67.8" x="101.7" y="200.3004">static Socket sock</text><rect fill="none" height="3.6" style="stroke:#C82930;stroke-width:0.6;" width="3.6" x="94.5" y="207.0949"/><text fill="#000000" font-family="sans-serif" font-size="8.4" lengthAdjust="spacing" textLength="60.6" x="101.7" y="211.473">String password</text><rect fill="none" height="3.6" style="stroke:#C82930;stroke-width:0.6;" width="3.6" x="94.5" y="218.2676"/><text fill="#000000" font-family="sans-serif" font-size="8.4" lengthAdjust="spacing" textLength="55.2" x="101.7" y="222.6457">String serverIp</text><line style="stroke:#181818;stroke-width:0.3;" x1="90.3" x2="443.1" y1="227.1539" y2="227.1539"/><ellipse cx="96.3" cy="236.0402" fill="#84BE84" rx="1.8" ry="1.8" style="stroke:#038048;stroke-width:0.6;"/><text fill="#000000" font-family="sans-serif" font-size="8.4" lengthAdjust="spacing" textLength="159" x="101.7" y="238.6184">InAppNotificationHandler(String password)</text><ellipse cx="96.3" cy="247.2129" fill="#84BE84" rx="1.8" ry="1.8" style="stroke:#038048;stroke-width:0.6;"/><text fill="#000000" font-family="sans-serif" font-size="8.4" lengthAdjust="spacing" textLength="156" x="101.7" y="249.791">Iterable&lt;Notification&gt; getMyNotifications()</text><ellipse cx="96.3" cy="258.3855" fill="#84BE84" rx="1.8" ry="1.8" style="stroke:#038048;stroke-width:0.6;"/><text fill="#000000" font-family="sans-serif" font-size="8.4" lengthAdjust="spacing" textLength="261.6" x="101.7" y="260.9637">static void sendVersionAndCode(ObjectOutputStream sOut, int code)</text><ellipse cx="96.3" cy="269.5582" fill="#84BE84" rx="1.8" ry="1.8" style="stroke:#038048;stroke-width:0.6;"/><text fill="#000000" font-family="sans-serif" font-size="8.4" lengthAdjust="spacing" textLength="338.4" x="101.7" y="272.1363">static void sendCredentials(ObjectOutputStream sOut, String username, String password)</text><ellipse cx="96.3" cy="280.7309" fill="#84BE84" rx="1.8" ry="1.8" style="stroke:#038048;stroke-width:0.6;"/><text fill="#000000" font-family="sans-serif" font-size="8.4" lengthAdjust="spacing" textLength="91.8" x="101.7" y="283.309">static void closeSocket()</text></g><!--class CandidateInboxUI--><g id="elem_CandidateInboxUI"><rect codeLine="19" fill="#F1F1F1" height="62.318" id="CandidateInboxUI" rx="1.5" ry="1.5" style="stroke:#181818;stroke-width:0.3;" width="125.4" x="4.2" y="4.2"/><ellipse cx="31.35" cy="13.8" fill="#ADD1B2" rx="6.6" ry="6.6" style="stroke:#181818;stroke-width:0.6;"/><path d="M33.0094,11.325 Q33.1031,11.1938 33.2156,11.1281 Q33.3281,11.0625 33.4594,11.0625 Q33.6844,11.0625 33.825,11.2219 Q33.9656,11.3719 33.9656,11.7375 L33.9656,12.6094 Q33.9656,12.975 33.825,13.1344 Q33.6844,13.2938 33.4594,13.2938 Q33.2531,13.2938 33.1313,13.1719 Q33.0094,13.0594 32.9438,12.75 Q32.9156,12.5344 32.8031,12.4219 Q32.6062,12.1969 32.2406,12.0656 Q31.875,11.9344 31.5,11.9344 Q31.0406,11.9344 30.6563,12.1313 Q30.2813,12.3281 29.9813,12.7781 Q29.6906,13.2281 29.6906,13.8469 L29.6906,14.5031 Q29.6906,15.2437 30.225,15.7406 Q30.7594,16.2281 31.7156,16.2281 Q32.2781,16.2281 32.6719,16.0781 Q32.9063,15.9844 33.1594,15.7219 Q33.3188,15.5625 33.4031,15.5156 Q33.4969,15.4688 33.6188,15.4688 Q33.8156,15.4688 33.9656,15.6281 Q34.125,15.7781 34.125,15.9844 Q34.125,16.1906 33.9187,16.4344 Q33.6188,16.7813 33.1406,16.9781 Q32.4938,17.25 31.7156,17.25 Q30.8063,17.25 30.0844,16.875 Q29.4938,16.575 29.0812,15.9375 Q28.6688,15.2906 28.6688,14.5219 L28.6688,13.8281 Q28.6688,13.0313 29.0344,12.3469 Q29.4094,11.6531 30.0656,11.2875 Q30.7219,10.9125 31.4625,10.9125 Q31.9031,10.9125 32.2875,11.0156 Q32.6813,11.1094 33.0094,11.325 Z " fill="#000000"/><text fill="#000000" font-family="sans-serif" font-size="8.4" lengthAdjust="spacing" textLength="66" x="43.65" y="17.2781">CandidateInboxUI</text><line style="stroke:#181818;stroke-width:0.3;" x1="4.8" x2="129" y1="23.4" y2="23.4"/><rect fill="none" height="3.6" style="stroke:#C82930;stroke-width:0.6;" width="3.6" x="9" y="30.4863"/><text fill="#000000" font-family="sans-serif" font-size="8.4" lengthAdjust="spacing" textLength="109.8" x="16.2" y="34.8645">CandidateInboxController ctrl</text><line style="stroke:#181818;stroke-width:0.3;" x1="4.8" x2="129" y1="39.3727" y2="39.3727"/><ellipse cx="10.8" cy="48.259" fill="#84BE84" rx="1.8" ry="1.8" style="stroke:#038048;stroke-width:0.6;"/><text fill="#000000" font-family="sans-serif" font-size="8.4" lengthAdjust="spacing" textLength="69" x="16.2" y="50.8371">boolean doShow()</text><ellipse cx="10.8" cy="59.4316" fill="#84BE84" rx="1.8" ry="1.8" style="stroke:#038048;stroke-width:0.6;"/><text fill="#000000" font-family="sans-serif" font-size="8.4" lengthAdjust="spacing" textLength="63" x="16.2" y="62.0098">String headline()</text></g><!--class CandidateInboxController--><g id="elem_CandidateInboxController"><rect codeLine="26" fill="#F1F1F1" height="39.9727" id="CandidateInboxController" rx="1.5" ry="1.5" style="stroke:#181818;stroke-width:0.3;" width="232.2" x="150.6" y="15.3"/><ellipse cx="216.15" cy="24.9" fill="#ADD1B2" rx="6.6" ry="6.6" style="stroke:#181818;stroke-width:0.6;"/><path d="M217.8094,22.425 Q217.9031,22.2938 218.0156,22.2281 Q218.1281,22.1625 218.2594,22.1625 Q218.4844,22.1625 218.625,22.3219 Q218.7656,22.4719 218.7656,22.8375 L218.7656,23.7094 Q218.7656,24.075 218.625,24.2344 Q218.4844,24.3938 218.2594,24.3938 Q218.0531,24.3938 217.9313,24.2719 Q217.8094,24.1594 217.7438,23.85 Q217.7156,23.6344 217.6031,23.5219 Q217.4063,23.2969 217.0406,23.1656 Q216.675,23.0344 216.3,23.0344 Q215.8406,23.0344 215.4562,23.2313 Q215.0812,23.4281 214.7813,23.8781 Q214.4906,24.3281 214.4906,24.9469 L214.4906,25.6031 Q214.4906,26.3438 215.025,26.8406 Q215.5594,27.3281 216.5156,27.3281 Q217.0781,27.3281 217.4719,27.1781 Q217.7062,27.0844 217.9594,26.8219 Q218.1188,26.6625 218.2031,26.6156 Q218.2969,26.5687 218.4188,26.5687 Q218.6156,26.5687 218.7656,26.7281 Q218.925,26.8781 218.925,27.0844 Q218.925,27.2906 218.7188,27.5344 Q218.4188,27.8812 217.9406,28.0781 Q217.2938,28.35 216.5156,28.35 Q215.6063,28.35 214.8844,27.975 Q214.2938,27.675 213.8813,27.0375 Q213.4688,26.3906 213.4688,25.6219 L213.4688,24.9281 Q213.4688,24.1312 213.8344,23.4469 Q214.2094,22.7531 214.8656,22.3875 Q215.5219,22.0125 216.2625,22.0125 Q216.7031,22.0125 217.0875,22.1156 Q217.4813,22.2094 217.8094,22.425 Z " fill="#000000"/><text fill="#000000" font-family="sans-serif" font-size="8.4" lengthAdjust="spacing" textLength="96" x="228.45" y="28.3781">CandidateInboxController</text><line style="stroke:#181818;stroke-width:0.3;" x1="151.2" x2="382.2" y1="34.5" y2="34.5"/><line style="stroke:#181818;stroke-width:0.3;" x1="151.2" x2="382.2" y1="39.3" y2="39.3"/><ellipse cx="157.2" cy="48.1863" fill="#84BE84" rx="1.8" ry="1.8" style="stroke:#038048;stroke-width:0.6;"/><text fill="#000000" font-family="sans-serif" font-size="8.4" lengthAdjust="spacing" textLength="216.6" x="162.6" y="50.7645">Iterable&lt;Notification&gt; getMyNotifications(String password)</text></g><!--class MessageDTO--><g id="elem_MessageDTO"><rect codeLine="29" fill="#F1F1F1" height="95.8359" id="MessageDTO" rx="1.5" ry="1.5" style="stroke:#181818;stroke-width:0.3;" width="118.8" x="207.3" y="324"/><ellipse cx="238.05" cy="333.6" fill="#ADD1B2" rx="6.6" ry="6.6" style="stroke:#181818;stroke-width:0.6;"/><path d="M239.7094,331.125 Q239.8031,330.9938 239.9156,330.9281 Q240.0281,330.8625 240.1594,330.8625 Q240.3844,330.8625 240.525,331.0219 Q240.6656,331.1719 240.6656,331.5375 L240.6656,332.4094 Q240.6656,332.775 240.525,332.9344 Q240.3844,333.0938 240.1594,333.0938 Q239.9531,333.0938 239.8312,332.9719 Q239.7094,332.8594 239.6437,332.55 Q239.6156,332.3344 239.5031,332.2219 Q239.3062,331.9969 238.9406,331.8656 Q238.575,331.7344 238.2,331.7344 Q237.7406,331.7344 237.3563,331.9313 Q236.9813,332.1281 236.6812,332.5781 Q236.3906,333.0281 236.3906,333.6469 L236.3906,334.3031 Q236.3906,335.0438 236.925,335.5406 Q237.4594,336.0281 238.4156,336.0281 Q238.9781,336.0281 239.3719,335.8781 Q239.6063,335.7844 239.8594,335.5219 Q240.0187,335.3625 240.1031,335.3156 Q240.1969,335.2688 240.3188,335.2688 Q240.5156,335.2688 240.6656,335.4281 Q240.825,335.5781 240.825,335.7844 Q240.825,335.9906 240.6187,336.2344 Q240.3188,336.5813 239.8406,336.7781 Q239.1938,337.05 238.4156,337.05 Q237.5063,337.05 236.7844,336.675 Q236.1938,336.375 235.7813,335.7375 Q235.3687,335.0906 235.3687,334.3219 L235.3687,333.6281 Q235.3687,332.8313 235.7344,332.1469 Q236.1094,331.4531 236.7656,331.0875 Q237.4219,330.7125 238.1625,330.7125 Q238.6031,330.7125 238.9875,330.8156 Q239.3813,330.9094 239.7094,331.125 Z " fill="#000000"/><text fill="#000000" font-family="sans-serif" font-size="8.4" lengthAdjust="spacing" textLength="52.2" x="250.35" y="337.0781">MessageDTO</text><line style="stroke:#181818;stroke-width:0.3;" x1="207.9" x2="325.5" y1="343.2" y2="343.2"/><rect fill="none" height="3.6" style="stroke:#C82930;stroke-width:0.6;" width="3.6" x="212.1" y="350.2863"/><text fill="#000000" font-family="sans-serif" font-size="8.4" lengthAdjust="spacing" textLength="103.2" x="219.3" y="354.6645">static long serialVersionUID</text><rect fill="none" height="3.6" style="stroke:#C82930;stroke-width:0.6;" width="3.6" x="212.1" y="361.459"/><text fill="#000000" font-family="sans-serif" font-size="8.4" lengthAdjust="spacing" textLength="41.4" x="219.3" y="365.8371">String data</text><line style="stroke:#181818;stroke-width:0.3;" x1="207.9" x2="325.5" y1="370.3453" y2="370.3453"/><ellipse cx="213.9" cy="379.2316" fill="#84BE84" rx="1.8" ry="1.8" style="stroke:#038048;stroke-width:0.6;"/><text fill="#000000" font-family="sans-serif" font-size="8.4" lengthAdjust="spacing" textLength="99.6" x="219.3" y="381.8098">MessageDTO(String data)</text><ellipse cx="213.9" cy="390.4043" fill="#84BE84" rx="1.8" ry="1.8" style="stroke:#038048;stroke-width:0.6;"/><text fill="#000000" font-family="sans-serif" font-size="8.4" lengthAdjust="spacing" textLength="60.6" x="219.3" y="392.9824">String getData()</text><ellipse cx="213.9" cy="401.577" fill="#84BE84" rx="1.8" ry="1.8" style="stroke:#038048;stroke-width:0.6;"/><text fill="#000000" font-family="sans-serif" font-size="8.4" lengthAdjust="spacing" textLength="60" x="219.3" y="404.1551">String toString()</text><ellipse cx="213.9" cy="412.7496" fill="#84BE84" rx="1.8" ry="1.8" style="stroke:#038048;stroke-width:0.6;"/><text fill="#000000" font-family="sans-serif" font-size="8.4" lengthAdjust="spacing" textLength="62.4" x="219.3" y="415.3277">byte[] getBytes()</text></g><!--link CandidateInboxUI to CandidateInboxController--><g id="link_CandidateInboxUI_CandidateInboxController"><path codeLine="38" d="M129.726,35.4 C136.686,35.4 140.04,35.4 146.994,35.4 " fill="none" id="CandidateInboxUI-to-CandidateInboxController" style="stroke:#181818;stroke-width:0.6;"/><polygon fill="#181818" points="150.594,35.4,145.194,33,147.594,35.4,145.194,37.8,150.594,35.4" style="stroke:#181818;stroke-width:0.6;"/></g><!--link CandidateInboxController to InAppNotificationHandler--><g id="link_CandidateInboxController_InAppNotificationHandler"><path codeLine="39" d="M266.7,55.62 C266.7,67.932 266.7,81.204 266.7,98.952 " fill="none" id="CandidateInboxController-to-InAppNotificationHandler" style="stroke:#181818;stroke-width:0.6;stroke-dasharray:7.0,7.0;"/><polygon fill="#181818" points="266.7,102.552,269.1,97.152,266.7,99.552,264.3,97.152,266.7,102.552" style="stroke:#181818;stroke-width:0.6;"/></g><!--link InAppNotificationHandler to MessageDTO--><g id="link_InAppNotificationHandler_MessageDTO"><path codeLine="40" d="M266.7,288.018 C266.7,300.432 266.7,309.126 266.7,320.31 " fill="none" id="InAppNotificationHandler-to-MessageDTO" style="stroke:#181818;stroke-width:0.6;stroke-dasharray:7.0,7.0;"/><polygon fill="#181818" points="266.7,323.91,269.1,318.51,266.7,320.91,264.3,318.51,266.7,323.91" style="stroke:#181818;stroke-width:0.6;"/></g><!--SRC=[bLJRRjim37tFL-WnmzfzmL30TGBC658NiRsNOGXaYKkqgQ8XCUdIeVy-EZ5cUROBp2-wy1nU3YahAqCGcKkQvW79V3TAaa7tIJfjmOlV2z5zjo8vqW6zURa02l0deq18ldo9G84X98ey_RmkTsMsMUTL6PdZ65jeC1X2VnQklMxF4RGAu2F8iJl6iOZzA64SYQGeTe_vjjmzL9lxzNOCoXnGehK7hfOzdS1dZsDKWUeda0YyHCQ2l75xqR1Ip-ZrsD8vRFvQtiygklp7sRkOG-1bRU5ZpBiJUw3DERuAovZLfNv2epaHfx-03mnAd4vHmpAlVu2Y_4ZDaJWso2SH-7HpaKqnuYrVgGSDZeoqOTvHLr7R82UVu4QyKM8SG5aCS5MyA-XriL2NUKnPBACbGUPg_5LbWpaS6bDqvD6smwh8soXMZMX1Eg6nEE3pGBCkmmD8ROs3FZolKnb4GVfC_gjZqvgyTlLkU2pb7bPbFgYqKylYTSQu3LrpgsmrdaBELaOrzZwN4M121SvsnPOfWGYlcu6jFXDy_TRIxdaNUl7QPTIvsxjPBIS8aT0Vc3dtYYxCsPzMo-oh_mC0]--></g></svg>