<?xml version="1.0" encoding="us-ascii" standalone="no"?><svg xmlns="http://www.w3.org/2000/svg" xmlns:xlink="http://www.w3.org/1999/xlink" contentStyleType="text/css" height="755px" preserveAspectRatio="none" style="width:2828px;height:755px;background:#FFFFFF;" version="1.1" viewBox="0 0 2828 755" width="2828px" zoomAndPan="magnify"><defs/><g><rect fill="#FFFFFF" height="525.9473" style="stroke:#181818;stroke-width:1.0;" width="10" x="71.5" y="48.6211"/><rect fill="#FFFFFF" height="187.7461" style="stroke:#181818;stroke-width:1.0;" width="10" x="223" y="71.9121"/><rect fill="#FFFFFF" height="31.291" style="stroke:#181818;stroke-width:1.0;" width="10" x="223" y="543.2773"/><rect fill="#FFFFFF" height="31.291" style="stroke:#181818;stroke-width:1.0;" width="10" x="614" y="103.2031"/><rect fill="#FFFFFF" height="57.582" style="stroke:#181818;stroke-width:1.0;" width="10" x="614" y="259.6582"/><rect fill="#FFFFFF" height="31.291" style="stroke:#181818;stroke-width:1.0;" width="10" x="614" y="348.5313"/><rect fill="#FFFFFF" height="38.291" style="stroke:#181818;stroke-width:1.0;" width="10" x="614" y="411.1133"/><rect fill="#FFFFFF" height="62.582" style="stroke:#181818;stroke-width:1.0;" width="10" x="614" y="480.6953"/><rect fill="#FFFFFF" height="31.291" style="stroke:#181818;stroke-width:1.0;" width="10" x="787" y="134.4941"/><rect fill="#FFFFFF" height="62.582" style="stroke:#181818;stroke-width:1.0;" width="10" x="930" y="165.7852"/><rect fill="#FFFFFF" height="31.291" style="stroke:#181818;stroke-width:1.0;" width="10" x="1098.5" y="317.2402"/><rect fill="#FFFFFF" height="31.291" style="stroke:#181818;stroke-width:1.0;" width="10" x="1257.5" y="379.8223"/><rect fill="#FFFFFF" height="31.291" style="stroke:#181818;stroke-width:1.0;" width="10" x="1394.5" y="449.4043"/><rect fill="#FFFFFF" height="31.291" style="stroke:#181818;stroke-width:1.0;" width="10" x="1805.5" y="574.5684"/><rect fill="#FFFFFF" height="31.291" style="stroke:#181818;stroke-width:1.0;" width="10" x="2071" y="605.8594"/><rect fill="#FFFFFF" height="31.291" style="stroke:#181818;stroke-width:1.0;" width="10" x="2071" y="668.4414"/><rect fill="#FFFFFF" height="31.291" style="stroke:#181818;stroke-width:1.0;" width="10" x="2603" y="637.1504"/><rect fill="#FFFFFF" height="9" style="stroke:#181818;stroke-width:1.0;" width="10" x="2746" y="699.7324"/><rect fill="none" height="144.4551" style="stroke:#000000;stroke-width:1.5;" width="814" x="514" y="274.6582"/><line style="stroke:#181818;stroke-width:0.5;stroke-dasharray:5.0,5.0;" x1="76" x2="76" y1="38.6211" y2="717.7324"/><line style="stroke:#181818;stroke-width:0.5;stroke-dasharray:5.0,5.0;" x1="228" x2="228" y1="38.6211" y2="717.7324"/><line style="stroke:#181818;stroke-width:0.5;stroke-dasharray:5.0,5.0;" x1="619" x2="619" y1="38.6211" y2="717.7324"/><line style="stroke:#181818;stroke-width:0.5;stroke-dasharray:5.0,5.0;" x1="792" x2="792" y1="38.6211" y2="717.7324"/><line style="stroke:#181818;stroke-width:0.5;stroke-dasharray:5.0,5.0;" x1="935" x2="935" y1="38.6211" y2="717.7324"/><line style="stroke:#181818;stroke-width:0.5;stroke-dasharray:5.0,5.0;" x1="1103" x2="1103" y1="38.6211" y2="717.7324"/><line style="stroke:#181818;stroke-width:0.5;stroke-dasharray:5.0,5.0;" x1="1262" x2="1262" y1="38.6211" y2="717.7324"/><line style="stroke:#181818;stroke-width:0.5;stroke-dasharray:5.0,5.0;" x1="1399" x2="1399" y1="38.6211" y2="717.7324"/><line style="stroke:#181818;stroke-width:0.5;stroke-dasharray:5.0,5.0;" x1="1576" x2="1576" y1="38.6211" y2="717.7324"/><line style="stroke:#181818;stroke-width:0.5;stroke-dasharray:5.0,5.0;" x1="1810" x2="1810" y1="38.6211" y2="717.7324"/><line style="stroke:#181818;stroke-width:0.5;stroke-dasharray:5.0,5.0;" x1="2076" x2="2076" y1="38.6211" y2="717.7324"/><line style="stroke:#181818;stroke-width:0.5;stroke-dasharray:5.0,5.0;" x1="2607.5" x2="2607.5" y1="38.6211" y2="717.7324"/><line style="stroke:#181818;stroke-width:0.5;stroke-dasharray:5.0,5.0;" x1="2750.5" x2="2750.5" y1="38.6211" y2="717.7324"/><rect fill="#E2E2F0" height="32.6211" rx="2.5" ry="2.5" style="stroke:#181818;stroke-width:0.5;" width="143" x="5" y="5"/><text fill="#000000" font-family="sans-serif" font-size="14" lengthAdjust="spacing" textLength="129" x="12" y="27.1074">CustomerManagerUI</text><rect fill="#E2E2F0" height="32.6211" rx="2.5" ry="2.5" style="stroke:#181818;stroke-width:0.5;" width="143" x="5" y="716.7324"/><text fill="#000000" font-family="sans-serif" font-size="14" lengthAdjust="spacing" textLength="129" x="12" y="738.8398">CustomerManagerUI</text><rect fill="#E2E2F0" height="32.6211" rx="2.5" ry="2.5" style="stroke:#181818;stroke-width:0.5;" width="140" x="158" y="5"/><text fill="#000000" font-family="sans-serif" font-size="14" lengthAdjust="spacing" textLength="126" x="165" y="27.1074">RegisterCustomerUI</text><rect fill="#E2E2F0" height="32.6211" rx="2.5" ry="2.5" style="stroke:#181818;stroke-width:0.5;" width="140" x="158" y="716.7324"/><text fill="#000000" font-family="sans-serif" font-size="14" lengthAdjust="spacing" textLength="126" x="165" y="738.8398">RegisterCustomerUI</text><rect fill="#E2E2F0" height="32.6211" rx="2.5" ry="2.5" style="stroke:#181818;stroke-width:0.5;" width="190" x="524" y="5"/><text fill="#000000" font-family="sans-serif" font-size="14" lengthAdjust="spacing" textLength="176" x="531" y="27.1074">RegisterCustomerController</text><rect fill="#E2E2F0" height="32.6211" rx="2.5" ry="2.5" style="stroke:#181818;stroke-width:0.5;" width="190" x="524" y="716.7324"/><text fill="#000000" font-family="sans-serif" font-size="14" lengthAdjust="spacing" textLength="176" x="531" y="738.8398">RegisterCustomerController</text><rect fill="#E2E2F0" height="32.6211" rx="2.5" ry="2.5" style="stroke:#181818;stroke-width:0.5;" width="136" x="724" y="5"/><text fill="#000000" font-family="sans-serif" font-size="14" lengthAdjust="spacing" textLength="122" x="731" y="27.1074">PersistenceContext</text><rect fill="#E2E2F0" height="32.6211" rx="2.5" ry="2.5" style="stroke:#181818;stroke-width:0.5;" width="136" x="724" y="716.7324"/><text fill="#000000" font-family="sans-serif" font-size="14" lengthAdjust="spacing" textLength="122" x="731" y="738.8398">PersistenceContext</text><rect fill="#E2E2F0" height="32.6211" rx="2.5" ry="2.5" style="stroke:#181818;stroke-width:0.5;" width="130" x="870" y="5"/><text fill="#000000" font-family="sans-serif" font-size="14" lengthAdjust="spacing" textLength="116" x="877" y="27.1074">RepositoryFactory</text><rect fill="#E2E2F0" height="32.6211" rx="2.5" ry="2.5" style="stroke:#181818;stroke-width:0.5;" width="130" x="870" y="716.7324"/><text fill="#000000" font-family="sans-serif" font-size="14" lengthAdjust="spacing" textLength="116" x="877" y="738.8398">RepositoryFactory</text><rect fill="#E2E2F0" height="32.6211" rx="2.5" ry="2.5" style="stroke:#181818;stroke-width:0.5;" width="187" x="1010" y="5"/><text fill="#000000" font-family="sans-serif" font-size="14" lengthAdjust="spacing" textLength="173" x="1017" y="27.1074">PasswordGeneratorService</text><rect fill="#E2E2F0" height="32.6211" rx="2.5" ry="2.5" style="stroke:#181818;stroke-width:0.5;" width="187" x="1010" y="716.7324"/><text fill="#000000" font-family="sans-serif" font-size="14" lengthAdjust="spacing" textLength="173" x="1017" y="738.8398">PasswordGeneratorService</text><rect fill="#E2E2F0" height="32.6211" rx="2.5" ry="2.5" style="stroke:#181818;stroke-width:0.5;" width="111" x="1207" y="5"/><text fill="#000000" font-family="sans-serif" font-size="14" lengthAdjust="spacing" textLength="97" x="1214" y="27.1074">UserRepository</text><rect fill="#E2E2F0" height="32.6211" rx="2.5" ry="2.5" style="stroke:#181818;stroke-width:0.5;" width="111" x="1207" y="716.7324"/><text fill="#000000" font-family="sans-serif" font-size="14" lengthAdjust="spacing" textLength="97" x="1214" y="738.8398">UserRepository</text><rect fill="#E2E2F0" height="32.6211" rx="2.5" ry="2.5" style="stroke:#181818;stroke-width:0.5;" width="143" x="1328" y="5"/><text fill="#000000" font-family="sans-serif" font-size="14" lengthAdjust="spacing" textLength="129" x="1335" y="27.1074">AuthorizationService</text><rect fill="#E2E2F0" height="32.6211" rx="2.5" ry="2.5" style="stroke:#181818;stroke-width:0.5;" width="143" x="1328" y="716.7324"/><text fill="#000000" font-family="sans-serif" font-size="14" lengthAdjust="spacing" textLength="129" x="1335" y="738.8398">AuthorizationService</text><rect fill="#E2E2F0" height="32.6211" rx="2.5" ry="2.5" style="stroke:#181818;stroke-width:0.5;" width="191" x="1481" y="5"/><text fill="#000000" font-family="sans-serif" font-size="14" lengthAdjust="spacing" textLength="177" x="1488" y="27.1074">CustomerUserCreatedEvent</text><rect fill="#E2E2F0" height="32.6211" rx="2.5" ry="2.5" style="stroke:#181818;stroke-width:0.5;" width="191" x="1481" y="716.7324"/><text fill="#000000" font-family="sans-serif" font-size="14" lengthAdjust="spacing" textLength="177" x="1488" y="738.8398">CustomerUserCreatedEvent</text><rect fill="#E2E2F0" height="32.6211" rx="2.5" ry="2.5" style="stroke:#181818;stroke-width:0.5;" width="257" x="1682" y="5"/><text fill="#000000" font-family="sans-serif" font-size="14" lengthAdjust="spacing" textLength="243" x="1689" y="27.1074">CustomerUserCreatedEventWatchDog</text><rect fill="#E2E2F0" height="32.6211" rx="2.5" ry="2.5" style="stroke:#181818;stroke-width:0.5;" width="257" x="1682" y="716.7324"/><text fill="#000000" font-family="sans-serif" font-size="14" lengthAdjust="spacing" textLength="243" x="1689" y="738.8398">CustomerUserCreatedEventWatchDog</text><rect fill="#E2E2F0" height="32.6211" rx="2.5" ry="2.5" style="stroke:#181818;stroke-width:0.5;" width="254" x="1949" y="5"/><text fill="#000000" font-family="sans-serif" font-size="14" lengthAdjust="spacing" textLength="240" x="1956" y="27.1074">RegisterCustomerWatchdogController</text><rect fill="#E2E2F0" height="32.6211" rx="2.5" ry="2.5" style="stroke:#181818;stroke-width:0.5;" width="254" x="1949" y="716.7324"/><text fill="#000000" font-family="sans-serif" font-size="14" lengthAdjust="spacing" textLength="240" x="1956" y="738.8398">RegisterCustomerWatchdogController</text><rect fill="#E2E2F0" height="32.6211" rx="2.5" ry="2.5" style="stroke:#181818;stroke-width:0.5;" width="123" x="2546.5" y="5"/><text fill="#000000" font-family="sans-serif" font-size="14" lengthAdjust="spacing" textLength="109" x="2553.5" y="27.1074">CustomerFactory</text><rect fill="#E2E2F0" height="32.6211" rx="2.5" ry="2.5" style="stroke:#181818;stroke-width:0.5;" width="123" x="2546.5" y="716.7324"/><text fill="#000000" font-family="sans-serif" font-size="14" lengthAdjust="spacing" textLength="109" x="2553.5" y="738.8398">CustomerFactory</text><rect fill="#E2E2F0" height="32.6211" rx="2.5" ry="2.5" style="stroke:#181818;stroke-width:0.5;" width="143" x="2679.5" y="5"/><text fill="#000000" font-family="sans-serif" font-size="14" lengthAdjust="spacing" textLength="129" x="2686.5" y="27.1074">CustomerRepository</text><rect fill="#E2E2F0" height="32.6211" rx="2.5" ry="2.5" style="stroke:#181818;stroke-width:0.5;" width="143" x="2679.5" y="716.7324"/><text fill="#000000" font-family="sans-serif" font-size="14" lengthAdjust="spacing" textLength="129" x="2686.5" y="738.8398">CustomerRepository</text><rect fill="#FFFFFF" height="525.9473" style="stroke:#181818;stroke-width:1.0;" width="10" x="71.5" y="48.6211"/><rect fill="#FFFFFF" height="187.7461" style="stroke:#181818;stroke-width:1.0;" width="10" x="223" y="71.9121"/><rect fill="#FFFFFF" height="31.291" style="stroke:#181818;stroke-width:1.0;" width="10" x="223" y="543.2773"/><rect fill="#FFFFFF" height="31.291" style="stroke:#181818;stroke-width:1.0;" width="10" x="614" y="103.2031"/><rect fill="#FFFFFF" height="57.582" style="stroke:#181818;stroke-width:1.0;" width="10" x="614" y="259.6582"/><rect fill="#FFFFFF" height="31.291" style="stroke:#181818;stroke-width:1.0;" width="10" x="614" y="348.5313"/><rect fill="#FFFFFF" height="38.291" style="stroke:#181818;stroke-width:1.0;" width="10" x="614" y="411.1133"/><rect fill="#FFFFFF" height="62.582" style="stroke:#181818;stroke-width:1.0;" width="10" x="614" y="480.6953"/><rect fill="#FFFFFF" height="31.291" style="stroke:#181818;stroke-width:1.0;" width="10" x="787" y="134.4941"/><rect fill="#FFFFFF" height="62.582" style="stroke:#181818;stroke-width:1.0;" width="10" x="930" y="165.7852"/><rect fill="#FFFFFF" height="31.291" style="stroke:#181818;stroke-width:1.0;" width="10" x="1098.5" y="317.2402"/><rect fill="#FFFFFF" height="31.291" style="stroke:#181818;stroke-width:1.0;" width="10" x="1257.5" y="379.8223"/><rect fill="#FFFFFF" height="31.291" style="stroke:#181818;stroke-width:1.0;" width="10" x="1394.5" y="449.4043"/><rect fill="#FFFFFF" height="31.291" style="stroke:#181818;stroke-width:1.0;" width="10" x="1805.5" y="574.5684"/><rect fill="#FFFFFF" height="31.291" style="stroke:#181818;stroke-width:1.0;" width="10" x="2071" y="605.8594"/><rect fill="#FFFFFF" height="31.291" style="stroke:#181818;stroke-width:1.0;" width="10" x="2071" y="668.4414"/><rect fill="#FFFFFF" height="31.291" style="stroke:#181818;stroke-width:1.0;" width="10" x="2603" y="637.1504"/><rect fill="#FFFFFF" height="9" style="stroke:#181818;stroke-width:1.0;" width="10" x="2746" y="699.7324"/><polygon fill="#181818" points="211,67.9121,221,71.9121,211,75.9121,215,71.9121" style="stroke:#181818;stroke-width:1.0;"/><line style="stroke:#181818;stroke-width:1.0;" x1="81.5" x2="217" y1="71.9121" y2="71.9121"/><text fill="#000000" font-family="sans-serif" font-size="13" font-weight="bold" lengthAdjust="spacing" textLength="7" x="88.5" y="66.6494">1</text><text fill="#000000" font-family="sans-serif" font-size="13" lengthAdjust="spacing" textLength="107" x="99.5" y="66.6494">registerCustomer()</text><polygon fill="#181818" points="602,99.2031,612,103.2031,602,107.2031,606,103.2031" style="stroke:#181818;stroke-width:1.0;"/><line style="stroke:#181818;stroke-width:1.0;" x1="233" x2="608" y1="103.2031" y2="103.2031"/><text fill="#000000" font-family="sans-serif" font-size="13" font-weight="bold" lengthAdjust="spacing" textLength="7" x="240" y="97.9404">2</text><text fill="#000000" font-family="sans-serif" font-size="13" lengthAdjust="spacing" textLength="44" x="251" y="97.9404">create()</text><polygon fill="#181818" points="775,130.4941,785,134.4941,775,138.4941,779,134.4941" style="stroke:#181818;stroke-width:1.0;"/><line style="stroke:#181818;stroke-width:1.0;" x1="619" x2="781" y1="134.4941" y2="134.4941"/><text fill="#000000" font-family="sans-serif" font-size="13" font-weight="bold" lengthAdjust="spacing" textLength="7" x="626" y="129.2314">3</text><text fill="#000000" font-family="sans-serif" font-size="13" lengthAdjust="spacing" textLength="75" x="637" y="129.2314">repositories()</text><polygon fill="#181818" points="918,161.7852,928,165.7852,918,169.7852,922,165.7852" style="stroke:#181818;stroke-width:1.0;"/><line style="stroke:#181818;stroke-width:1.0;" x1="792" x2="924" y1="165.7852" y2="165.7852"/><text fill="#000000" font-family="sans-serif" font-size="13" font-weight="bold" lengthAdjust="spacing" textLength="7" x="799" y="160.5225">4</text><text fill="#000000" font-family="sans-serif" font-size="13" lengthAdjust="spacing" textLength="44" x="810" y="160.5225">create()</text><polygon fill="#181818" points="1250.5,193.0762,1260.5,197.0762,1250.5,201.0762,1254.5,197.0762" style="stroke:#181818;stroke-width:1.0;"/><line style="stroke:#181818;stroke-width:1.0;" x1="940" x2="1256.5" y1="197.0762" y2="197.0762"/><text fill="#000000" font-family="sans-serif" font-size="13" font-weight="bold" lengthAdjust="spacing" textLength="7" x="947" y="191.8135">5</text><text fill="#000000" font-family="sans-serif" font-size="13" lengthAdjust="spacing" textLength="44" x="958" y="191.8135">create()</text><polygon fill="#181818" points="2739,224.3672,2749,228.3672,2739,232.3672,2743,228.3672" style="stroke:#181818;stroke-width:1.0;"/><line style="stroke:#181818;stroke-width:1.0;" x1="935" x2="2745" y1="228.3672" y2="228.3672"/><text fill="#000000" font-family="sans-serif" font-size="13" font-weight="bold" lengthAdjust="spacing" textLength="7" x="942" y="223.1045">6</text><text fill="#000000" font-family="sans-serif" font-size="13" lengthAdjust="spacing" textLength="44" x="953" y="223.1045">create()</text><polygon fill="#181818" points="602,255.6582,612,259.6582,602,263.6582,606,259.6582" style="stroke:#181818;stroke-width:1.0;"/><line style="stroke:#181818;stroke-width:1.0;" x1="228" x2="608" y1="259.6582" y2="259.6582"/><text fill="#000000" font-family="sans-serif" font-size="13" font-weight="bold" lengthAdjust="spacing" textLength="7" x="235" y="254.3955">7</text><text fill="#000000" font-family="sans-serif" font-size="13" lengthAdjust="spacing" textLength="351" x="246" y="254.3955">registerUser(name, customerCode, customerAddress, email)</text><path d="M514,274.6582 L837,274.6582 L837,283.9492 L827,293.9492 L514,293.9492 L514,274.6582 " fill="#EEEEEE" style="stroke:#000000;stroke-width:1.5;"/><rect fill="none" height="144.4551" style="stroke:#000000;stroke-width:1.5;" width="814" x="514" y="274.6582"/><text fill="#000000" font-family="sans-serif" font-size="13" font-weight="bold" lengthAdjust="spacing" textLength="278" x="529" y="289.6865">"To Register a User (Automatic Version)" SD</text><polygon fill="#181818" points="1086.5,313.2402,1096.5,317.2402,1086.5,321.2402,1090.5,317.2402" style="stroke:#181818;stroke-width:1.0;"/><line style="stroke:#181818;stroke-width:1.0;" x1="619" x2="1092.5" y1="317.2402" y2="317.2402"/><text fill="#000000" font-family="sans-serif" font-size="13" font-weight="bold" lengthAdjust="spacing" textLength="7" x="626" y="311.9775">8</text><text fill="#000000" font-family="sans-serif" font-size="13" lengthAdjust="spacing" textLength="115" x="637" y="311.9775">generatePassword()</text><polygon fill="#181818" points="635,344.5313,625,348.5313,635,352.5313,631,348.5313" style="stroke:#181818;stroke-width:1.0;"/><line style="stroke:#181818;stroke-width:1.0;stroke-dasharray:2.0,2.0;" x1="629" x2="1102.5" y1="348.5313" y2="348.5313"/><text fill="#000000" font-family="sans-serif" font-size="13" font-weight="bold" lengthAdjust="spacing" textLength="7" x="641" y="343.2686">9</text><text fill="#000000" font-family="sans-serif" font-size="13" lengthAdjust="spacing" textLength="55" x="652" y="343.2686">password</text><polygon fill="#181818" points="1245.5,375.8223,1255.5,379.8223,1245.5,383.8223,1249.5,379.8223" style="stroke:#181818;stroke-width:1.0;"/><line style="stroke:#181818;stroke-width:1.0;" x1="619" x2="1251.5" y1="379.8223" y2="379.8223"/><text fill="#000000" font-family="sans-serif" font-size="13" font-weight="bold" lengthAdjust="spacing" textLength="14" x="626" y="374.5596">10</text><text fill="#000000" font-family="sans-serif" font-size="13" lengthAdjust="spacing" textLength="338" x="644" y="374.5596">addUser(email, password, name, BaseRoles.CUSTOMER)</text><polygon fill="#181818" points="635,407.1133,625,411.1133,635,415.1133,631,411.1133" style="stroke:#181818;stroke-width:1.0;"/><line style="stroke:#181818;stroke-width:1.0;stroke-dasharray:2.0,2.0;" x1="629" x2="1261.5" y1="411.1133" y2="411.1133"/><text fill="#000000" font-family="sans-serif" font-size="13" font-weight="bold" lengthAdjust="spacing" textLength="14" x="641" y="405.8506">11</text><text fill="#000000" font-family="sans-serif" font-size="13" lengthAdjust="spacing" textLength="70" x="659" y="405.8506">createdUser</text><polygon fill="#181818" points="1382.5,445.4043,1392.5,449.4043,1382.5,453.4043,1386.5,449.4043" style="stroke:#181818;stroke-width:1.0;"/><line style="stroke:#181818;stroke-width:1.0;" x1="619" x2="1388.5" y1="449.4043" y2="449.4043"/><text fill="#000000" font-family="sans-serif" font-size="13" font-weight="bold" lengthAdjust="spacing" textLength="14" x="626" y="444.1416">12</text><text fill="#000000" font-family="sans-serif" font-size="13" lengthAdjust="spacing" textLength="388" x="644" y="444.1416">loggedinUserWithPermissions(BaseRoles.CUSTOMERMANAGER)</text><polygon fill="#181818" points="635,476.6953,625,480.6953,635,484.6953,631,480.6953" style="stroke:#181818;stroke-width:1.0;"/><line style="stroke:#181818;stroke-width:1.0;" x1="629" x2="1398.5" y1="480.6953" y2="480.6953"/><text fill="#000000" font-family="sans-serif" font-size="13" font-weight="bold" lengthAdjust="spacing" textLength="14" x="641" y="475.4326">13</text><text fill="#000000" font-family="sans-serif" font-size="13" lengthAdjust="spacing" textLength="65" x="659" y="475.4326">loggedUser</text><polygon fill="#181818" points="1564.5,507.9863,1574.5,511.9863,1564.5,515.9863,1568.5,511.9863" style="stroke:#181818;stroke-width:1.0;"/><line style="stroke:#181818;stroke-width:1.0;" x1="624" x2="1570.5" y1="511.9863" y2="511.9863"/><text fill="#000000" font-family="sans-serif" font-size="13" font-weight="bold" lengthAdjust="spacing" textLength="14" x="631" y="506.7236">14</text><text fill="#000000" font-family="sans-serif" font-size="13" lengthAdjust="spacing" textLength="196" x="649" y="506.7236">createCustomerUserCreatedEvent</text><polygon fill="#181818" points="244,539.2773,234,543.2773,244,547.2773,240,543.2773" style="stroke:#181818;stroke-width:1.0;"/><line style="stroke:#181818;stroke-width:1.0;stroke-dasharray:2.0,2.0;" x1="238" x2="618" y1="543.2773" y2="543.2773"/><text fill="#000000" font-family="sans-serif" font-size="13" font-weight="bold" lengthAdjust="spacing" textLength="14" x="250" y="538.0146">15</text><text fill="#000000" font-family="sans-serif" font-size="13" lengthAdjust="spacing" textLength="4" x="268" y="538.0146">&#160;</text><polygon fill="#181818" points="87.5,570.5684,77.5,574.5684,87.5,578.5684,83.5,574.5684" style="stroke:#181818;stroke-width:1.0;"/><line style="stroke:#181818;stroke-width:1.0;stroke-dasharray:2.0,2.0;" x1="81.5" x2="227" y1="574.5684" y2="574.5684"/><text fill="#000000" font-family="sans-serif" font-size="13" font-weight="bold" lengthAdjust="spacing" textLength="14" x="93.5" y="569.3057">16</text><text fill="#000000" font-family="sans-serif" font-size="13" lengthAdjust="spacing" textLength="4" x="111.5" y="569.3057">&#160;</text><polygon fill="#181818" points="2059,601.8594,2069,605.8594,2059,609.8594,2063,605.8594" style="stroke:#181818;stroke-width:1.0;"/><line style="stroke:#181818;stroke-width:1.0;" x1="1810.5" x2="2065" y1="605.8594" y2="605.8594"/><text fill="#000000" font-family="sans-serif" font-size="13" font-weight="bold" lengthAdjust="spacing" textLength="14" x="1817.5" y="600.5967">17</text><text fill="#000000" font-family="sans-serif" font-size="13" lengthAdjust="spacing" textLength="137" x="1835.5" y="600.5967">registerCustomer(event)</text><polygon fill="#181818" points="2591,633.1504,2601,637.1504,2591,641.1504,2595,637.1504" style="stroke:#181818;stroke-width:1.0;"/><line style="stroke:#181818;stroke-width:1.0;" x1="2076" x2="2597" y1="637.1504" y2="637.1504"/><text fill="#000000" font-family="sans-serif" font-size="13" font-weight="bold" lengthAdjust="spacing" textLength="14" x="2083" y="631.8877">18</text><text fill="#000000" font-family="sans-serif" font-size="13" lengthAdjust="spacing" textLength="485" x="2101" y="631.8877">createCustomer(name, customerCode, customerAddress, loggedUser, createdUser)</text><polygon fill="#181818" points="2092,664.4414,2082,668.4414,2092,672.4414,2088,668.4414" style="stroke:#181818;stroke-width:1.0;"/><line style="stroke:#181818;stroke-width:1.0;stroke-dasharray:2.0,2.0;" x1="2086" x2="2607" y1="668.4414" y2="668.4414"/><text fill="#000000" font-family="sans-serif" font-size="13" font-weight="bold" lengthAdjust="spacing" textLength="14" x="2098" y="663.1787">19</text><text fill="#000000" font-family="sans-serif" font-size="13" lengthAdjust="spacing" textLength="54" x="2116" y="663.1787">customer</text><polygon fill="#181818" points="2734,695.7324,2744,699.7324,2734,703.7324,2738,699.7324" style="stroke:#181818;stroke-width:1.0;"/><line style="stroke:#181818;stroke-width:1.0;" x1="2076" x2="2740" y1="699.7324" y2="699.7324"/><text fill="#000000" font-family="sans-serif" font-size="13" font-weight="bold" lengthAdjust="spacing" textLength="14" x="2083" y="694.4697">20</text><text fill="#000000" font-family="sans-serif" font-size="13" lengthAdjust="spacing" textLength="88" x="2101" y="694.4697">save(customer)</text><!--SRC=[jLPDRzim3BtxLmYzD07Yvfx3W2pjYXwo3KcpdbMBS0JOaYV9sSUld-pKZcnHjfjYfo0cHJu-Ff6wFHfJwDLoMMHKc3BFxXAPBpNyB44a43DEKqNpAAAbaQBCNq55KK6LuGalx06oARMHEQWj5JG5TNZgM7UGScr0DLuZveqKHiaiiqbSj- -WTELd0LKUyDlqeXHISoFLdoyqgNwwXwdMlwHYZo10KMlUWphn13fE1mtg4gPZMfVcA1N_ImsN0ZlRrcPZR1HG0-pX1C9CSdgX9ZdUotIGbjg9oJH0J-E6LT_OdE8YwyPF5W7IE-yBYJyXJIGhedeVP_DBNAJhI0maygL0co6fQHgAw_0n4CdcyGLKL_162GTjip2OagVrGJI9PAbhxAdJBSr9YWHq0FKLxaUrgRegTlEWxhus0j3yzDVqir5CXN8cQ0uBahH-pFctPao1rWi2EUNPO6UiigPqBKgLB0joyonRBq9hkiZCtc-PsykTa1zL1wIOtv3z_PYW0aF5bfcUFq7ZSeMqGXChc3KUuxvuEzaHN2ZDn- -R9qJAMDtskgEB5iw2d7NmcMhOoGpqtUQmV_wsVTYzcxJU1EyXYASDcngacxaNTGeY48pKSej6IC8MYqMIoJG5naML-eMRevqBETULCFNCvscx_hf-l88kTAkXYCQOE-Fj4uV6dtHLXqaBxL6oEdSmk8o7mg8xxhsCNXq1dQLEgPVjF3m87Qj_r5_wmPV8c0Ec2F-5WZqHe0epnu06mOJvHHv54r0vlFRNSGjpqcwwo7xX3e_1YuX0zfXeDcmVPJoLzGOfHdCJ_F-HsfdwcfvWrk3vC3FE74PASn-u_m00]--></g></svg>