<?xml version="1.0" encoding="us-ascii" standalone="no"?><svg xmlns="http://www.w3.org/2000/svg" xmlns:xlink="http://www.w3.org/1999/xlink" contentStyleType="text/css" height="1108px" preserveAspectRatio="none" style="width:968px;height:1108px;background:#FFFFFF;" version="1.1" viewBox="0 0 968 1108" width="968px" zoomAndPan="magnify"><defs/><g><!--class CustomerManagerUI--><g id="elem_CustomerManagerUI"><rect codeLine="2" fill="#F1F1F1" height="66.6211" id="CustomerManagerUI" rx="2.5" ry="2.5" style="stroke:#181818;stroke-width:0.5;" width="161" x="514" y="7"/><ellipse cx="529" cy="23" fill="#ADD1B2" rx="11" ry="11" style="stroke:#181818;stroke-width:1.0;"/><path d="M531.7656,18.875 Q531.9219,18.6563 532.1094,18.5469 Q532.2969,18.4375 532.5156,18.4375 Q532.8906,18.4375 533.125,18.7031 Q533.3594,18.9531 533.3594,19.5625 L533.3594,21.0156 Q533.3594,21.625 533.125,21.8906 Q532.8906,22.1563 532.5156,22.1563 Q532.1719,22.1563 531.9688,21.9531 Q531.7656,21.7656 531.6563,21.25 Q531.6094,20.8906 531.4219,20.7031 Q531.0938,20.3281 530.4844,20.1094 Q529.875,19.8906 529.25,19.8906 Q528.4844,19.8906 527.8438,20.2188 Q527.2188,20.5469 526.7188,21.2969 Q526.2344,22.0469 526.2344,23.0781 L526.2344,24.1719 Q526.2344,25.4063 527.125,26.2344 Q528.0156,27.0469 529.6094,27.0469 Q530.5469,27.0469 531.2031,26.7969 Q531.5938,26.6406 532.0156,26.2031 Q532.2813,25.9375 532.4219,25.8594 Q532.5781,25.7813 532.7813,25.7813 Q533.1094,25.7813 533.3594,26.0469 Q533.625,26.2969 533.625,26.6406 Q533.625,26.9844 533.2813,27.3906 Q532.7813,27.9688 531.9844,28.2969 Q530.9063,28.75 529.6094,28.75 Q528.0938,28.75 526.8906,28.125 Q525.9063,27.625 525.2188,26.5625 Q524.5313,25.4844 524.5313,24.2031 L524.5313,23.0469 Q524.5313,21.7188 525.1406,20.5781 Q525.7656,19.4219 526.8594,18.8125 Q527.9531,18.1875 529.1875,18.1875 Q529.9219,18.1875 530.5625,18.3594 Q531.2188,18.5156 531.7656,18.875 Z " fill="#000000"/><text fill="#000000" font-family="sans-serif" font-size="14" lengthAdjust="spacing" textLength="129" x="543" y="28.7969">CustomerManagerUI</text><line style="stroke:#181818;stroke-width:0.5;" x1="515" x2="674" y1="39" y2="39"/><line style="stroke:#181818;stroke-width:0.5;" x1="515" x2="674" y1="47" y2="47"/><ellipse cx="525" cy="61.8105" fill="#84BE84" rx="3" ry="3" style="stroke:#038048;stroke-width:1.0;"/><text fill="#000000" font-family="sans-serif" font-size="14" lengthAdjust="spacing" textLength="119" x="534" y="66.1074">registerCustomer()</text></g><!--class RegisterCustomerUI--><g id="elem_RegisterCustomerUI"><rect codeLine="7" fill="#F1F1F1" height="48" id="RegisterCustomerUI" rx="2.5" ry="2.5" style="stroke:#181818;stroke-width:0.5;" width="158" x="515.5" y="144.5"/><ellipse cx="530.5" cy="160.5" fill="#ADD1B2" rx="11" ry="11" style="stroke:#181818;stroke-width:1.0;"/><path d="M533.2656,156.375 Q533.4219,156.1563 533.6094,156.0469 Q533.7969,155.9375 534.0156,155.9375 Q534.3906,155.9375 534.625,156.2031 Q534.8594,156.4531 534.8594,157.0625 L534.8594,158.5156 Q534.8594,159.125 534.625,159.3906 Q534.3906,159.6563 534.0156,159.6563 Q533.6719,159.6563 533.4688,159.4531 Q533.2656,159.2656 533.1563,158.75 Q533.1094,158.3906 532.9219,158.2031 Q532.5938,157.8281 531.9844,157.6094 Q531.375,157.3906 530.75,157.3906 Q529.9844,157.3906 529.3438,157.7188 Q528.7188,158.0469 528.2188,158.7969 Q527.7344,159.5469 527.7344,160.5781 L527.7344,161.6719 Q527.7344,162.9063 528.625,163.7344 Q529.5156,164.5469 531.1094,164.5469 Q532.0469,164.5469 532.7031,164.2969 Q533.0938,164.1406 533.5156,163.7031 Q533.7813,163.4375 533.9219,163.3594 Q534.0781,163.2813 534.2813,163.2813 Q534.6094,163.2813 534.8594,163.5469 Q535.125,163.7969 535.125,164.1406 Q535.125,164.4844 534.7813,164.8906 Q534.2813,165.4688 533.4844,165.7969 Q532.4063,166.25 531.1094,166.25 Q529.5938,166.25 528.3906,165.625 Q527.4063,165.125 526.7188,164.0625 Q526.0313,162.9844 526.0313,161.7031 L526.0313,160.5469 Q526.0313,159.2188 526.6406,158.0781 Q527.2656,156.9219 528.3594,156.3125 Q529.4531,155.6875 530.6875,155.6875 Q531.4219,155.6875 532.0625,155.8594 Q532.7188,156.0156 533.2656,156.375 Z " fill="#000000"/><text fill="#000000" font-family="sans-serif" font-size="14" lengthAdjust="spacing" textLength="126" x="544.5" y="166.2969">RegisterCustomerUI</text><line style="stroke:#181818;stroke-width:0.5;" x1="516.5" x2="672.5" y1="176.5" y2="176.5"/><line style="stroke:#181818;stroke-width:0.5;" x1="516.5" x2="672.5" y1="184.5" y2="184.5"/></g><!--class RegisterCustomerController--><g id="elem_RegisterCustomerController"><rect codeLine="11" fill="#F1F1F1" height="85.2422" id="RegisterCustomerController" rx="2.5" ry="2.5" style="stroke:#181818;stroke-width:0.5;" width="253" x="468" y="263"/><ellipse cx="503.25" cy="279" fill="#ADD1B2" rx="11" ry="11" style="stroke:#181818;stroke-width:1.0;"/><path d="M506.0156,274.875 Q506.1719,274.6563 506.3594,274.5469 Q506.5469,274.4375 506.7656,274.4375 Q507.1406,274.4375 507.375,274.7031 Q507.6094,274.9531 507.6094,275.5625 L507.6094,277.0156 Q507.6094,277.625 507.375,277.8906 Q507.1406,278.1563 506.7656,278.1563 Q506.4219,278.1563 506.2188,277.9531 Q506.0156,277.7656 505.9063,277.25 Q505.8594,276.8906 505.6719,276.7031 Q505.3438,276.3281 504.7344,276.1094 Q504.125,275.8906 503.5,275.8906 Q502.7344,275.8906 502.0938,276.2188 Q501.4688,276.5469 500.9688,277.2969 Q500.4844,278.0469 500.4844,279.0781 L500.4844,280.1719 Q500.4844,281.4063 501.375,282.2344 Q502.2656,283.0469 503.8594,283.0469 Q504.7969,283.0469 505.4531,282.7969 Q505.8438,282.6406 506.2656,282.2031 Q506.5313,281.9375 506.6719,281.8594 Q506.8281,281.7813 507.0313,281.7813 Q507.3594,281.7813 507.6094,282.0469 Q507.875,282.2969 507.875,282.6406 Q507.875,282.9844 507.5313,283.3906 Q507.0313,283.9688 506.2344,284.2969 Q505.1563,284.75 503.8594,284.75 Q502.3438,284.75 501.1406,284.125 Q500.1563,283.625 499.4688,282.5625 Q498.7813,281.4844 498.7813,280.2031 L498.7813,279.0469 Q498.7813,277.7188 499.3906,276.5781 Q500.0156,275.4219 501.1094,274.8125 Q502.2031,274.1875 503.4375,274.1875 Q504.1719,274.1875 504.8125,274.3594 Q505.4688,274.5156 506.0156,274.875 Z " fill="#000000"/><text fill="#000000" font-family="sans-serif" font-size="14" lengthAdjust="spacing" textLength="176" x="521.75" y="284.7969">RegisterCustomerController</text><line style="stroke:#181818;stroke-width:0.5;" x1="469" x2="720" y1="295" y2="295"/><line style="stroke:#181818;stroke-width:0.5;" x1="469" x2="720" y1="303" y2="303"/><ellipse cx="479" cy="317.8105" fill="#84BE84" rx="3" ry="3" style="stroke:#038048;stroke-width:1.0;"/><text fill="#000000" font-family="sans-serif" font-size="14" lengthAdjust="spacing" textLength="87" x="488" y="322.1074">registerUser()</text><ellipse cx="479" cy="336.4316" fill="#84BE84" rx="3" ry="3" style="stroke:#038048;stroke-width:1.0;"/><text fill="#000000" font-family="sans-serif" font-size="14" lengthAdjust="spacing" textLength="227" x="488" y="340.7285">createCustomerUserCreatedEvent()</text></g><!--class PersistenceContext--><g id="elem_PersistenceContext"><rect codeLine="16" fill="#F1F1F1" height="66.6211" id="PersistenceContext" rx="2.5" ry="2.5" style="stroke:#181818;stroke-width:0.5;" width="154" x="301.5" y="454.5"/><ellipse cx="316.5" cy="470.5" fill="#ADD1B2" rx="11" ry="11" style="stroke:#181818;stroke-width:1.0;"/><path d="M319.2656,466.375 Q319.4219,466.1563 319.6094,466.0469 Q319.7969,465.9375 320.0156,465.9375 Q320.3906,465.9375 320.625,466.2031 Q320.8594,466.4531 320.8594,467.0625 L320.8594,468.5156 Q320.8594,469.125 320.625,469.3906 Q320.3906,469.6563 320.0156,469.6563 Q319.6719,469.6563 319.4688,469.4531 Q319.2656,469.2656 319.1563,468.75 Q319.1094,468.3906 318.9219,468.2031 Q318.5938,467.8281 317.9844,467.6094 Q317.375,467.3906 316.75,467.3906 Q315.9844,467.3906 315.3438,467.7188 Q314.7188,468.0469 314.2188,468.7969 Q313.7344,469.5469 313.7344,470.5781 L313.7344,471.6719 Q313.7344,472.9063 314.625,473.7344 Q315.5156,474.5469 317.1094,474.5469 Q318.0469,474.5469 318.7031,474.2969 Q319.0938,474.1406 319.5156,473.7031 Q319.7813,473.4375 319.9219,473.3594 Q320.0781,473.2813 320.2813,473.2813 Q320.6094,473.2813 320.8594,473.5469 Q321.125,473.7969 321.125,474.1406 Q321.125,474.4844 320.7813,474.8906 Q320.2813,475.4688 319.4844,475.7969 Q318.4063,476.25 317.1094,476.25 Q315.5938,476.25 314.3906,475.625 Q313.4063,475.125 312.7188,474.0625 Q312.0313,472.9844 312.0313,471.7031 L312.0313,470.5469 Q312.0313,469.2188 312.6406,468.0781 Q313.2656,466.9219 314.3594,466.3125 Q315.4531,465.6875 316.6875,465.6875 Q317.4219,465.6875 318.0625,465.8594 Q318.7188,466.0156 319.2656,466.375 Z " fill="#000000"/><text fill="#000000" font-family="sans-serif" font-size="14" lengthAdjust="spacing" textLength="122" x="330.5" y="476.2969">PersistenceContext</text><line style="stroke:#181818;stroke-width:0.5;" x1="302.5" x2="454.5" y1="486.5" y2="486.5"/><line style="stroke:#181818;stroke-width:0.5;" x1="302.5" x2="454.5" y1="494.5" y2="494.5"/><ellipse cx="312.5" cy="509.3105" fill="#84BE84" rx="3" ry="3" style="stroke:#038048;stroke-width:1.0;"/><text fill="#000000" font-family="sans-serif" font-size="14" lengthAdjust="spacing" textLength="84" x="321.5" y="513.6074">repositories()</text></g><!--class RepositoryFactory--><g id="elem_RepositoryFactory"><rect codeLine="20" fill="#F1F1F1" height="141.1055" id="RepositoryFactory" rx="2.5" ry="2.5" style="stroke:#181818;stroke-width:0.5;" width="286" x="259.5" y="730.5"/><ellipse cx="340.25" cy="746.5" fill="#ADD1B2" rx="11" ry="11" style="stroke:#181818;stroke-width:1.0;"/><path d="M343.0156,742.375 Q343.1719,742.1563 343.3594,742.0469 Q343.5469,741.9375 343.7656,741.9375 Q344.1406,741.9375 344.375,742.2031 Q344.6094,742.4531 344.6094,743.0625 L344.6094,744.5156 Q344.6094,745.125 344.375,745.3906 Q344.1406,745.6563 343.7656,745.6563 Q343.4219,745.6563 343.2188,745.4531 Q343.0156,745.2656 342.9063,744.75 Q342.8594,744.3906 342.6719,744.2031 Q342.3438,743.8281 341.7344,743.6094 Q341.125,743.3906 340.5,743.3906 Q339.7344,743.3906 339.0938,743.7188 Q338.4688,744.0469 337.9688,744.7969 Q337.4844,745.5469 337.4844,746.5781 L337.4844,747.6719 Q337.4844,748.9063 338.375,749.7344 Q339.2656,750.5469 340.8594,750.5469 Q341.7969,750.5469 342.4531,750.2969 Q342.8438,750.1406 343.2656,749.7031 Q343.5313,749.4375 343.6719,749.3594 Q343.8281,749.2813 344.0313,749.2813 Q344.3594,749.2813 344.6094,749.5469 Q344.875,749.7969 344.875,750.1406 Q344.875,750.4844 344.5313,750.8906 Q344.0313,751.4688 343.2344,751.7969 Q342.1563,752.25 340.8594,752.25 Q339.3438,752.25 338.1406,751.625 Q337.1563,751.125 336.4688,750.0625 Q335.7813,748.9844 335.7813,747.7031 L335.7813,746.5469 Q335.7813,745.2188 336.3906,744.0781 Q337.0156,742.9219 338.1094,742.3125 Q339.2031,741.6875 340.4375,741.6875 Q341.1719,741.6875 341.8125,741.8594 Q342.4688,742.0156 343.0156,742.375 Z " fill="#000000"/><text fill="#000000" font-family="sans-serif" font-size="14" lengthAdjust="spacing" textLength="116" x="360.75" y="752.2969">RepositoryFactory</text><line style="stroke:#181818;stroke-width:0.5;" x1="260.5" x2="544.5" y1="762.5" y2="762.5"/><line style="stroke:#181818;stroke-width:0.5;" x1="260.5" x2="544.5" y1="770.5" y2="770.5"/><ellipse cx="270.5" cy="785.3105" fill="#84BE84" rx="3" ry="3" style="stroke:#038048;stroke-width:1.0;"/><text fill="#000000" font-family="sans-serif" font-size="14" lengthAdjust="spacing" textLength="173" x="279.5" y="789.6074">newTransactionalContext();</text><ellipse cx="270.5" cy="803.9316" fill="#84BE84" rx="3" ry="3" style="stroke:#038048;stroke-width:1.0;"/><text fill="#000000" font-family="sans-serif" font-size="14" lengthAdjust="spacing" textLength="230" x="279.5" y="808.2285">users(TransactionalContext autoTx);</text><ellipse cx="270.5" cy="822.5527" fill="#84BE84" rx="3" ry="3" style="stroke:#038048;stroke-width:1.0;"/><text fill="#000000" font-family="sans-serif" font-size="14" lengthAdjust="spacing" textLength="49" x="279.5" y="826.8496">users();</text><ellipse cx="270.5" cy="841.1738" fill="#84BE84" rx="3" ry="3" style="stroke:#038048;stroke-width:1.0;"/><text fill="#000000" font-family="sans-serif" font-size="14" lengthAdjust="spacing" textLength="260" x="279.5" y="845.4707">customers(TransactionalContext autoTx);</text><ellipse cx="270.5" cy="859.7949" fill="#84BE84" rx="3" ry="3" style="stroke:#038048;stroke-width:1.0;"/><text fill="#000000" font-family="sans-serif" font-size="14" lengthAdjust="spacing" textLength="79" x="279.5" y="864.0918">customers();</text></g><!--class PasswordGeneratorService--><g id="elem_PasswordGeneratorService"><rect codeLine="29" fill="#F1F1F1" height="66.6211" id="PasswordGeneratorService" rx="2.5" ry="2.5" style="stroke:#181818;stroke-width:0.5;" width="208" x="490.5" y="454.5"/><ellipse cx="506.85" cy="470.5" fill="#ADD1B2" rx="11" ry="11" style="stroke:#181818;stroke-width:1.0;"/><path d="M509.6156,466.375 Q509.7719,466.1563 509.9594,466.0469 Q510.1469,465.9375 510.3656,465.9375 Q510.7406,465.9375 510.975,466.2031 Q511.2094,466.4531 511.2094,467.0625 L511.2094,468.5156 Q511.2094,469.125 510.975,469.3906 Q510.7406,469.6563 510.3656,469.6563 Q510.0219,469.6563 509.8188,469.4531 Q509.6156,469.2656 509.5063,468.75 Q509.4594,468.3906 509.2719,468.2031 Q508.9438,467.8281 508.3344,467.6094 Q507.725,467.3906 507.1,467.3906 Q506.3344,467.3906 505.6938,467.7188 Q505.0688,468.0469 504.5688,468.7969 Q504.0844,469.5469 504.0844,470.5781 L504.0844,471.6719 Q504.0844,472.9063 504.975,473.7344 Q505.8656,474.5469 507.4594,474.5469 Q508.3969,474.5469 509.0531,474.2969 Q509.4438,474.1406 509.8656,473.7031 Q510.1313,473.4375 510.2719,473.3594 Q510.4281,473.2813 510.6313,473.2813 Q510.9594,473.2813 511.2094,473.5469 Q511.475,473.7969 511.475,474.1406 Q511.475,474.4844 511.1313,474.8906 Q510.6313,475.4688 509.8344,475.7969 Q508.7563,476.25 507.4594,476.25 Q505.9438,476.25 504.7406,475.625 Q503.7563,475.125 503.0688,474.0625 Q502.3813,472.9844 502.3813,471.7031 L502.3813,470.5469 Q502.3813,469.2188 502.9906,468.0781 Q503.6156,466.9219 504.7094,466.3125 Q505.8031,465.6875 507.0375,465.6875 Q507.7719,465.6875 508.4125,465.8594 Q509.0688,466.0156 509.6156,466.375 Z " fill="#000000"/><text fill="#000000" font-family="sans-serif" font-size="14" lengthAdjust="spacing" textLength="173" x="521.15" y="476.2969">PasswordGeneratorService</text><line style="stroke:#181818;stroke-width:0.5;" x1="491.5" x2="697.5" y1="486.5" y2="486.5"/><line style="stroke:#181818;stroke-width:0.5;" x1="491.5" x2="697.5" y1="494.5" y2="494.5"/><ellipse cx="501.5" cy="509.3105" fill="#84BE84" rx="3" ry="3" style="stroke:#038048;stroke-width:1.0;"/><text fill="#000000" font-family="sans-serif" font-size="14" lengthAdjust="spacing" textLength="182" x="510.5" y="513.6074">generateModeledPassword()</text></g><!--class UserManagementService--><g id="elem_UserManagementService"><rect codeLine="33" fill="#F1F1F1" height="122.4844" id="UserManagementService" rx="2.5" ry="2.5" style="stroke:#181818;stroke-width:0.5;" width="227" x="734" y="427"/><ellipse cx="765.65" cy="443" fill="#ADD1B2" rx="11" ry="11" style="stroke:#181818;stroke-width:1.0;"/><path d="M768.4156,438.875 Q768.5719,438.6563 768.7594,438.5469 Q768.9469,438.4375 769.1656,438.4375 Q769.5406,438.4375 769.775,438.7031 Q770.0094,438.9531 770.0094,439.5625 L770.0094,441.0156 Q770.0094,441.625 769.775,441.8906 Q769.5406,442.1563 769.1656,442.1563 Q768.8219,442.1563 768.6188,441.9531 Q768.4156,441.7656 768.3063,441.25 Q768.2594,440.8906 768.0719,440.7031 Q767.7438,440.3281 767.1344,440.1094 Q766.525,439.8906 765.9,439.8906 Q765.1344,439.8906 764.4938,440.2188 Q763.8688,440.5469 763.3688,441.2969 Q762.8844,442.0469 762.8844,443.0781 L762.8844,444.1719 Q762.8844,445.4063 763.775,446.2344 Q764.6656,447.0469 766.2594,447.0469 Q767.1969,447.0469 767.8531,446.7969 Q768.2438,446.6406 768.6656,446.2031 Q768.9313,445.9375 769.0719,445.8594 Q769.2281,445.7813 769.4313,445.7813 Q769.7594,445.7813 770.0094,446.0469 Q770.275,446.2969 770.275,446.6406 Q770.275,446.9844 769.9313,447.3906 Q769.4313,447.9688 768.6344,448.2969 Q767.5563,448.75 766.2594,448.75 Q764.7438,448.75 763.5406,448.125 Q762.5563,447.625 761.8688,446.5625 Q761.1813,445.4844 761.1813,444.2031 L761.1813,443.0469 Q761.1813,441.7188 761.7906,440.5781 Q762.4156,439.4219 763.5094,438.8125 Q764.6031,438.1875 765.8375,438.1875 Q766.5719,438.1875 767.2125,438.3594 Q767.8688,438.5156 768.4156,438.875 Z " fill="#000000"/><text fill="#000000" font-family="sans-serif" font-size="14" lengthAdjust="spacing" textLength="158" x="783.35" y="448.7969">UserManagementService</text><line style="stroke:#181818;stroke-width:0.5;" x1="735" x2="960" y1="459" y2="459"/><rect fill="none" height="6" style="stroke:#C82930;stroke-width:1.0;" width="6" x="742" y="470.8105"/><text fill="#000000" font-family="sans-serif" font-size="14" lengthAdjust="spacing" textLength="201" x="754" y="478.1074">userRepository: UserRepository</text><rect fill="none" height="6" style="stroke:#C82930;stroke-width:1.0;" width="6" x="742" y="489.4316"/><text fill="#000000" font-family="sans-serif" font-size="14" lengthAdjust="spacing" textLength="174" x="754" y="496.7285">encoder: PasswordEncoder</text><rect fill="none" height="6" style="stroke:#C82930;stroke-width:1.0;" width="6" x="742" y="508.0527"/><text fill="#000000" font-family="sans-serif" font-size="14" lengthAdjust="spacing" textLength="142" x="754" y="515.3496">policy: PasswordPolicy</text><line style="stroke:#181818;stroke-width:0.5;" x1="735" x2="960" y1="522.8633" y2="522.8633"/><ellipse cx="745" cy="537.6738" fill="#84BE84" rx="3" ry="3" style="stroke:#038048;stroke-width:1.0;"/><text fill="#000000" font-family="sans-serif" font-size="14" lengthAdjust="spacing" textLength="113" x="754" y="541.9707">registerNewUser()</text></g><!--class SystemUserBuilder--><g id="elem_SystemUserBuilder"><rect codeLine="40" fill="#F1F1F1" height="345.9375" id="SystemUserBuilder" rx="2.5" ry="2.5" style="stroke:#181818;stroke-width:0.5;" width="200" x="747.5" y="628"/><ellipse cx="784.55" cy="644" fill="#ADD1B2" rx="11" ry="11" style="stroke:#181818;stroke-width:1.0;"/><path d="M787.3156,639.875 Q787.4719,639.6563 787.6594,639.5469 Q787.8469,639.4375 788.0656,639.4375 Q788.4406,639.4375 788.675,639.7031 Q788.9094,639.9531 788.9094,640.5625 L788.9094,642.0156 Q788.9094,642.625 788.675,642.8906 Q788.4406,643.1563 788.0656,643.1563 Q787.7219,643.1563 787.5188,642.9531 Q787.3156,642.7656 787.2063,642.25 Q787.1594,641.8906 786.9719,641.7031 Q786.6438,641.3281 786.0344,641.1094 Q785.425,640.8906 784.8,640.8906 Q784.0344,640.8906 783.3938,641.2188 Q782.7688,641.5469 782.2688,642.2969 Q781.7844,643.0469 781.7844,644.0781 L781.7844,645.1719 Q781.7844,646.4063 782.675,647.2344 Q783.5656,648.0469 785.1594,648.0469 Q786.0969,648.0469 786.7531,647.7969 Q787.1438,647.6406 787.5656,647.2031 Q787.8313,646.9375 787.9719,646.8594 Q788.1281,646.7813 788.3313,646.7813 Q788.6594,646.7813 788.9094,647.0469 Q789.175,647.2969 789.175,647.6406 Q789.175,647.9844 788.8313,648.3906 Q788.3313,648.9688 787.5344,649.2969 Q786.4563,649.75 785.1594,649.75 Q783.6438,649.75 782.4406,649.125 Q781.4563,648.625 780.7688,647.5625 Q780.0813,646.4844 780.0813,645.2031 L780.0813,644.0469 Q780.0813,642.7188 780.6906,641.5781 Q781.3156,640.4219 782.4094,639.8125 Q783.5031,639.1875 784.7375,639.1875 Q785.4719,639.1875 786.1125,639.3594 Q786.7688,639.5156 787.3156,639.875 Z " fill="#000000"/><text fill="#000000" font-family="sans-serif" font-size="14" lengthAdjust="spacing" textLength="119" x="803.45" y="649.7969">SystemUserBuilder</text><line style="stroke:#181818;stroke-width:0.5;" x1="748.5" x2="946.5" y1="660" y2="660"/><rect fill="none" height="6" style="stroke:#C82930;stroke-width:1.0;" width="6" x="755.5" y="671.8105"/><text fill="#000000" font-family="sans-serif" font-size="14" lengthAdjust="spacing" textLength="135" x="767.5" y="679.1074">username: Username</text><rect fill="none" height="6" style="stroke:#C82930;stroke-width:1.0;" width="6" x="755.5" y="690.4316"/><text fill="#000000" font-family="sans-serif" font-size="14" lengthAdjust="spacing" textLength="129" x="767.5" y="697.7285">password: Password</text><rect fill="none" height="6" style="stroke:#C82930;stroke-width:1.0;" width="6" x="755.5" y="709.0527"/><text fill="#000000" font-family="sans-serif" font-size="14" lengthAdjust="spacing" textLength="79" x="767.5" y="716.3496">name: Name</text><rect fill="none" height="6" style="stroke:#C82930;stroke-width:1.0;" width="6" x="755.5" y="727.6738"/><text fill="#000000" font-family="sans-serif" font-size="14" lengthAdjust="spacing" textLength="127" x="767.5" y="734.9707">email: EmailAddress</text><rect fill="none" height="6" style="stroke:#C82930;stroke-width:1.0;" width="6" x="755.5" y="746.2949"/><text fill="#000000" font-family="sans-serif" font-size="14" lengthAdjust="spacing" textLength="133" x="767.5" y="753.5918">createdOn: Calendar</text><rect fill="none" height="6" style="stroke:#C82930;stroke-width:1.0;" width="6" x="755.5" y="764.916"/><text fill="#000000" font-family="sans-serif" font-size="14" lengthAdjust="spacing" textLength="89" x="767.5" y="772.2129">roles: RoleSet</text><rect fill="none" height="6" style="stroke:#C82930;stroke-width:1.0;" width="6" x="755.5" y="783.5371"/><text fill="#000000" font-family="sans-serif" font-size="14" lengthAdjust="spacing" textLength="142" x="767.5" y="790.834">policy: PasswordPolicy</text><rect fill="none" height="6" style="stroke:#C82930;stroke-width:1.0;" width="6" x="755.5" y="802.1582"/><text fill="#000000" font-family="sans-serif" font-size="14" lengthAdjust="spacing" textLength="174" x="767.5" y="809.4551">encoder: PasswordEncoder</text><line style="stroke:#181818;stroke-width:0.5;" x1="748.5" x2="946.5" y1="816.9688" y2="816.9688"/><ellipse cx="758.5" cy="831.7793" fill="#84BE84" rx="3" ry="3" style="stroke:#038048;stroke-width:1.0;"/><text fill="#000000" font-family="sans-serif" font-size="14" lengthAdjust="spacing" textLength="34" x="767.5" y="836.0762">with()</text><ellipse cx="758.5" cy="850.4004" fill="#84BE84" rx="3" ry="3" style="stroke:#038048;stroke-width:1.0;"/><text fill="#000000" font-family="sans-serif" font-size="14" lengthAdjust="spacing" textLength="98" x="767.5" y="854.6973">withUsername()</text><ellipse cx="758.5" cy="869.0215" fill="#84BE84" rx="3" ry="3" style="stroke:#038048;stroke-width:1.0;"/><text fill="#000000" font-family="sans-serif" font-size="14" lengthAdjust="spacing" textLength="95" x="767.5" y="873.3184">withPassword()</text><ellipse cx="758.5" cy="887.6426" fill="#84BE84" rx="3" ry="3" style="stroke:#038048;stroke-width:1.0;"/><text fill="#000000" font-family="sans-serif" font-size="14" lengthAdjust="spacing" textLength="70" x="767.5" y="891.9395">withName()</text><ellipse cx="758.5" cy="906.2637" fill="#84BE84" rx="3" ry="3" style="stroke:#038048;stroke-width:1.0;"/><text fill="#000000" font-family="sans-serif" font-size="14" lengthAdjust="spacing" textLength="68" x="767.5" y="910.5605">withEmail()</text><ellipse cx="758.5" cy="924.8848" fill="#84BE84" rx="3" ry="3" style="stroke:#038048;stroke-width:1.0;"/><text fill="#000000" font-family="sans-serif" font-size="14" lengthAdjust="spacing" textLength="70" x="767.5" y="929.1816">withRoles()</text><ellipse cx="758.5" cy="943.5059" fill="#84BE84" rx="3" ry="3" style="stroke:#038048;stroke-width:1.0;"/><text fill="#000000" font-family="sans-serif" font-size="14" lengthAdjust="spacing" textLength="77" x="767.5" y="947.8027">createdOn()</text><ellipse cx="758.5" cy="962.127" fill="#84BE84" rx="3" ry="3" style="stroke:#038048;stroke-width:1.0;"/><text fill="#000000" font-family="sans-serif" font-size="14" lengthAdjust="spacing" textLength="40" x="767.5" y="966.4238">build()</text></g><!--class CustomerRepository--><g id="elem_CustomerRepository"><rect codeLine="59" fill="#F1F1F1" height="48" id="CustomerRepository" rx="2.5" ry="2.5" style="stroke:#181818;stroke-width:0.5;" width="161" x="240" y="1053"/><ellipse cx="255" cy="1069" fill="#ADD1B2" rx="11" ry="11" style="stroke:#181818;stroke-width:1.0;"/><path d="M257.7656,1064.875 Q257.9219,1064.6563 258.1094,1064.5469 Q258.2969,1064.4375 258.5156,1064.4375 Q258.8906,1064.4375 259.125,1064.7031 Q259.3594,1064.9531 259.3594,1065.5625 L259.3594,1067.0156 Q259.3594,1067.625 259.125,1067.8906 Q258.8906,1068.1563 258.5156,1068.1563 Q258.1719,1068.1563 257.9688,1067.9531 Q257.7656,1067.7656 257.6563,1067.25 Q257.6094,1066.8906 257.4219,1066.7031 Q257.0938,1066.3281 256.4844,1066.1094 Q255.875,1065.8906 255.25,1065.8906 Q254.4844,1065.8906 253.8438,1066.2188 Q253.2188,1066.5469 252.7188,1067.2969 Q252.2344,1068.0469 252.2344,1069.0781 L252.2344,1070.1719 Q252.2344,1071.4063 253.125,1072.2344 Q254.0156,1073.0469 255.6094,1073.0469 Q256.5469,1073.0469 257.2031,1072.7969 Q257.5938,1072.6406 258.0156,1072.2031 Q258.2813,1071.9375 258.4219,1071.8594 Q258.5781,1071.7813 258.7813,1071.7813 Q259.1094,1071.7813 259.3594,1072.0469 Q259.625,1072.2969 259.625,1072.6406 Q259.625,1072.9844 259.2813,1073.3906 Q258.7813,1073.9688 257.9844,1074.2969 Q256.9063,1074.75 255.6094,1074.75 Q254.0938,1074.75 252.8906,1074.125 Q251.9063,1073.625 251.2188,1072.5625 Q250.5313,1071.4844 250.5313,1070.2031 L250.5313,1069.0469 Q250.5313,1067.7188 251.1406,1066.5781 Q251.7656,1065.4219 252.8594,1064.8125 Q253.9531,1064.1875 255.1875,1064.1875 Q255.9219,1064.1875 256.5625,1064.3594 Q257.2188,1064.5156 257.7656,1064.875 Z " fill="#000000"/><text fill="#000000" font-family="sans-serif" font-size="14" lengthAdjust="spacing" textLength="129" x="269" y="1074.7969">CustomerRepository</text><line style="stroke:#181818;stroke-width:0.5;" x1="241" x2="400" y1="1085" y2="1085"/><line style="stroke:#181818;stroke-width:0.5;" x1="241" x2="400" y1="1093" y2="1093"/></g><!--class UserRepository--><g id="elem_UserRepository"><rect codeLine="63" fill="#F1F1F1" height="48" id="UserRepository" rx="2.5" ry="2.5" style="stroke:#181818;stroke-width:0.5;" width="129" x="444" y="1053"/><ellipse cx="459" cy="1069" fill="#ADD1B2" rx="11" ry="11" style="stroke:#181818;stroke-width:1.0;"/><path d="M461.7656,1064.875 Q461.9219,1064.6563 462.1094,1064.5469 Q462.2969,1064.4375 462.5156,1064.4375 Q462.8906,1064.4375 463.125,1064.7031 Q463.3594,1064.9531 463.3594,1065.5625 L463.3594,1067.0156 Q463.3594,1067.625 463.125,1067.8906 Q462.8906,1068.1563 462.5156,1068.1563 Q462.1719,1068.1563 461.9688,1067.9531 Q461.7656,1067.7656 461.6563,1067.25 Q461.6094,1066.8906 461.4219,1066.7031 Q461.0938,1066.3281 460.4844,1066.1094 Q459.875,1065.8906 459.25,1065.8906 Q458.4844,1065.8906 457.8438,1066.2188 Q457.2188,1066.5469 456.7188,1067.2969 Q456.2344,1068.0469 456.2344,1069.0781 L456.2344,1070.1719 Q456.2344,1071.4063 457.125,1072.2344 Q458.0156,1073.0469 459.6094,1073.0469 Q460.5469,1073.0469 461.2031,1072.7969 Q461.5938,1072.6406 462.0156,1072.2031 Q462.2813,1071.9375 462.4219,1071.8594 Q462.5781,1071.7813 462.7813,1071.7813 Q463.1094,1071.7813 463.3594,1072.0469 Q463.625,1072.2969 463.625,1072.6406 Q463.625,1072.9844 463.2813,1073.3906 Q462.7813,1073.9688 461.9844,1074.2969 Q460.9063,1074.75 459.6094,1074.75 Q458.0938,1074.75 456.8906,1074.125 Q455.9063,1073.625 455.2188,1072.5625 Q454.5313,1071.4844 454.5313,1070.2031 L454.5313,1069.0469 Q454.5313,1067.7188 455.1406,1066.5781 Q455.7656,1065.4219 456.8594,1064.8125 Q457.9531,1064.1875 459.1875,1064.1875 Q459.9219,1064.1875 460.5625,1064.3594 Q461.2188,1064.5156 461.7656,1064.875 Z " fill="#000000"/><text fill="#000000" font-family="sans-serif" font-size="14" lengthAdjust="spacing" textLength="97" x="473" y="1074.7969">UserRepository</text><line style="stroke:#181818;stroke-width:0.5;" x1="445" x2="572" y1="1085" y2="1085"/><line style="stroke:#181818;stroke-width:0.5;" x1="445" x2="572" y1="1093" y2="1093"/></g><!--class CustomerUserCreatedEventWatchDog--><g id="elem_CustomerUserCreatedEventWatchDog"><rect codeLine="99" fill="#F1F1F1" height="48" id="CustomerUserCreatedEventWatchDog" rx="2.5" ry="2.5" style="stroke:#181818;stroke-width:0.5;" width="275" x="7" y="16.5"/><ellipse cx="22" cy="32.5" fill="#ADD1B2" rx="11" ry="11" style="stroke:#181818;stroke-width:1.0;"/><path d="M24.7656,28.375 Q24.9219,28.1563 25.1094,28.0469 Q25.2969,27.9375 25.5156,27.9375 Q25.8906,27.9375 26.125,28.2031 Q26.3594,28.4531 26.3594,29.0625 L26.3594,30.5156 Q26.3594,31.125 26.125,31.3906 Q25.8906,31.6563 25.5156,31.6563 Q25.1719,31.6563 24.9688,31.4531 Q24.7656,31.2656 24.6563,30.75 Q24.6094,30.3906 24.4219,30.2031 Q24.0938,29.8281 23.4844,29.6094 Q22.875,29.3906 22.25,29.3906 Q21.4844,29.3906 20.8438,29.7188 Q20.2188,30.0469 19.7188,30.7969 Q19.2344,31.5469 19.2344,32.5781 L19.2344,33.6719 Q19.2344,34.9063 20.125,35.7344 Q21.0156,36.5469 22.6094,36.5469 Q23.5469,36.5469 24.2031,36.2969 Q24.5938,36.1406 25.0156,35.7031 Q25.2813,35.4375 25.4219,35.3594 Q25.5781,35.2813 25.7813,35.2813 Q26.1094,35.2813 26.3594,35.5469 Q26.625,35.7969 26.625,36.1406 Q26.625,36.4844 26.2813,36.8906 Q25.7813,37.4688 24.9844,37.7969 Q23.9063,38.25 22.6094,38.25 Q21.0938,38.25 19.8906,37.625 Q18.9063,37.125 18.2188,36.0625 Q17.5313,34.9844 17.5313,33.7031 L17.5313,32.5469 Q17.5313,31.2188 18.1406,30.0781 Q18.7656,28.9219 19.8594,28.3125 Q20.9531,27.6875 22.1875,27.6875 Q22.9219,27.6875 23.5625,27.8594 Q24.2188,28.0156 24.7656,28.375 Z " fill="#000000"/><text fill="#000000" font-family="sans-serif" font-size="14" lengthAdjust="spacing" textLength="243" x="36" y="38.2969">CustomerUserCreatedEventWatchDog</text><line style="stroke:#181818;stroke-width:0.5;" x1="8" x2="281" y1="48.5" y2="48.5"/><line style="stroke:#181818;stroke-width:0.5;" x1="8" x2="281" y1="56.5" y2="56.5"/></g><!--class RegisterCustomerWatchdogController--><g id="elem_RegisterCustomerWatchdogController"><rect codeLine="102" fill="#F1F1F1" height="66.6211" id="RegisterCustomerWatchdogController" rx="2.5" ry="2.5" style="stroke:#181818;stroke-width:0.5;" width="272" x="8.5" y="135"/><ellipse cx="23.5" cy="151" fill="#ADD1B2" rx="11" ry="11" style="stroke:#181818;stroke-width:1.0;"/><path d="M26.2656,146.875 Q26.4219,146.6563 26.6094,146.5469 Q26.7969,146.4375 27.0156,146.4375 Q27.3906,146.4375 27.625,146.7031 Q27.8594,146.9531 27.8594,147.5625 L27.8594,149.0156 Q27.8594,149.625 27.625,149.8906 Q27.3906,150.1563 27.0156,150.1563 Q26.6719,150.1563 26.4688,149.9531 Q26.2656,149.7656 26.1563,149.25 Q26.1094,148.8906 25.9219,148.7031 Q25.5938,148.3281 24.9844,148.1094 Q24.375,147.8906 23.75,147.8906 Q22.9844,147.8906 22.3438,148.2188 Q21.7188,148.5469 21.2188,149.2969 Q20.7344,150.0469 20.7344,151.0781 L20.7344,152.1719 Q20.7344,153.4063 21.625,154.2344 Q22.5156,155.0469 24.1094,155.0469 Q25.0469,155.0469 25.7031,154.7969 Q26.0938,154.6406 26.5156,154.2031 Q26.7813,153.9375 26.9219,153.8594 Q27.0781,153.7813 27.2813,153.7813 Q27.6094,153.7813 27.8594,154.0469 Q28.125,154.2969 28.125,154.6406 Q28.125,154.9844 27.7813,155.3906 Q27.2813,155.9688 26.4844,156.2969 Q25.4063,156.75 24.1094,156.75 Q22.5938,156.75 21.3906,156.125 Q20.4063,155.625 19.7188,154.5625 Q19.0313,153.4844 19.0313,152.2031 L19.0313,151.0469 Q19.0313,149.7188 19.6406,148.5781 Q20.2656,147.4219 21.3594,146.8125 Q22.4531,146.1875 23.6875,146.1875 Q24.4219,146.1875 25.0625,146.3594 Q25.7188,146.5156 26.2656,146.875 Z " fill="#000000"/><text fill="#000000" font-family="sans-serif" font-size="14" lengthAdjust="spacing" textLength="240" x="37.5" y="156.7969">RegisterCustomerWatchdogController</text><line style="stroke:#181818;stroke-width:0.5;" x1="9.5" x2="279.5" y1="167" y2="167"/><line style="stroke:#181818;stroke-width:0.5;" x1="9.5" x2="279.5" y1="175" y2="175"/><ellipse cx="19.5" cy="189.8105" fill="#84BE84" rx="3" ry="3" style="stroke:#038048;stroke-width:1.0;"/><text fill="#000000" font-family="sans-serif" font-size="14" lengthAdjust="spacing" textLength="119" x="28.5" y="194.1074">registerCustomer()</text></g><!--class CustomerFactory--><g id="elem_CustomerFactory"><rect codeLine="106" fill="#F1F1F1" height="66.6211" id="CustomerFactory" rx="2.5" ry="2.5" style="stroke:#181818;stroke-width:0.5;" width="141" x="12" y="272"/><ellipse cx="27" cy="288" fill="#ADD1B2" rx="11" ry="11" style="stroke:#181818;stroke-width:1.0;"/><path d="M29.7656,283.875 Q29.9219,283.6563 30.1094,283.5469 Q30.2969,283.4375 30.5156,283.4375 Q30.8906,283.4375 31.125,283.7031 Q31.3594,283.9531 31.3594,284.5625 L31.3594,286.0156 Q31.3594,286.625 31.125,286.8906 Q30.8906,287.1563 30.5156,287.1563 Q30.1719,287.1563 29.9688,286.9531 Q29.7656,286.7656 29.6563,286.25 Q29.6094,285.8906 29.4219,285.7031 Q29.0938,285.3281 28.4844,285.1094 Q27.875,284.8906 27.25,284.8906 Q26.4844,284.8906 25.8438,285.2188 Q25.2188,285.5469 24.7188,286.2969 Q24.2344,287.0469 24.2344,288.0781 L24.2344,289.1719 Q24.2344,290.4063 25.125,291.2344 Q26.0156,292.0469 27.6094,292.0469 Q28.5469,292.0469 29.2031,291.7969 Q29.5938,291.6406 30.0156,291.2031 Q30.2813,290.9375 30.4219,290.8594 Q30.5781,290.7813 30.7813,290.7813 Q31.1094,290.7813 31.3594,291.0469 Q31.625,291.2969 31.625,291.6406 Q31.625,291.9844 31.2813,292.3906 Q30.7813,292.9688 29.9844,293.2969 Q28.9063,293.75 27.6094,293.75 Q26.0938,293.75 24.8906,293.125 Q23.9063,292.625 23.2188,291.5625 Q22.5313,290.4844 22.5313,289.2031 L22.5313,288.0469 Q22.5313,286.7188 23.1406,285.5781 Q23.7656,284.4219 24.8594,283.8125 Q25.9531,283.1875 27.1875,283.1875 Q27.9219,283.1875 28.5625,283.3594 Q29.2188,283.5156 29.7656,283.875 Z " fill="#000000"/><text fill="#000000" font-family="sans-serif" font-size="14" lengthAdjust="spacing" textLength="109" x="41" y="293.7969">CustomerFactory</text><line style="stroke:#181818;stroke-width:0.5;" x1="13" x2="152" y1="304" y2="304"/><line style="stroke:#181818;stroke-width:0.5;" x1="13" x2="152" y1="312" y2="312"/><ellipse cx="23" cy="326.8105" fill="#84BE84" rx="3" ry="3" style="stroke:#038048;stroke-width:1.0;"/><text fill="#000000" font-family="sans-serif" font-size="14" lengthAdjust="spacing" textLength="111" x="32" y="331.1074">createCustomer()</text></g><!--link CustomerManagerUI to RegisterCustomerUI--><g id="link_CustomerManagerUI_RegisterCustomerUI"><path codeLine="73" d="M594.5,74.28 C594.5,94.4 594.5,119.93 594.5,139.18 " fill="none" id="CustomerManagerUI-to-RegisterCustomerUI" style="stroke:#181818;stroke-width:1.0;stroke-dasharray:7.0,7.0;"/><polygon fill="#181818" points="594.5,144.43,598.5,135.43,594.5,139.43,590.5,135.43,594.5,144.43" style="stroke:#181818;stroke-width:1.0;"/></g><!--link RegisterCustomerUI to RegisterCustomerController--><g id="link_RegisterCustomerUI_RegisterCustomerController"><path codeLine="76" d="M594.5,192.71 C594.5,210.5 594.5,235.66 594.5,257.6 " fill="none" id="RegisterCustomerUI-to-RegisterCustomerController" style="stroke:#181818;stroke-width:1.0;stroke-dasharray:7.0,7.0;"/><polygon fill="#181818" points="594.5,262.81,598.5,253.81,594.5,257.81,590.5,253.81,594.5,262.81" style="stroke:#181818;stroke-width:1.0;"/></g><!--link RegisterCustomerController to PersistenceContext--><g id="link_RegisterCustomerController_PersistenceContext"><path codeLine="80" d="M542.03,348.18 C529.97,357.9 517.24,368.25 505.5,378 C476.54,402.05 444.36,429.68 419.64,451.1 " fill="none" id="RegisterCustomerController-to-PersistenceContext" style="stroke:#181818;stroke-width:1.0;stroke-dasharray:7.0,7.0;"/><polygon fill="#181818" points="415.74,454.48,425.1597,451.6043,419.517,451.2037,419.9176,445.5611,415.74,454.48" style="stroke:#181818;stroke-width:1.0;"/><text fill="#000000" font-family="sans-serif" font-size="13" lengthAdjust="spacing" textLength="79" x="506.5" y="393.0283">repositories ()</text></g><!--link RegisterCustomerController to UserManagementService--><g id="link_RegisterCustomerController_UserManagementService"><path codeLine="82" d="M652.86,348.14 C684.27,370.55 723.67,398.66 758.8,423.71 " fill="none" id="RegisterCustomerController-to-UserManagementService" style="stroke:#181818;stroke-width:1.0;stroke-dasharray:7.0,7.0;"/><polygon fill="#181818" points="763.06,426.75,758.0501,418.2706,758.9875,423.8492,753.4088,424.7866,763.06,426.75" style="stroke:#181818;stroke-width:1.0;"/></g><!--link RegisterCustomerController to PasswordGeneratorService--><g id="link_RegisterCustomerController_PasswordGeneratorService"><path codeLine="83" d="M594.5,348.36 C594.5,378.76 594.5,419.54 594.5,449 " fill="none" id="RegisterCustomerController-to-PasswordGeneratorService" style="stroke:#181818;stroke-width:1.0;stroke-dasharray:7.0,7.0;"/><polygon fill="#181818" points="594.5,454.37,598.5,445.37,594.5,449.37,590.5,445.37,594.5,454.37" style="stroke:#181818;stroke-width:1.0;"/></g><!--link UserManagementService to SystemUserBuilder--><g id="link_UserManagementService_SystemUserBuilder"><path codeLine="85" d="M847.5,549.33 C847.5,570.86 847.5,596.34 847.5,622.68 " fill="none" id="UserManagementService-to-SystemUserBuilder" style="stroke:#181818;stroke-width:1.0;stroke-dasharray:7.0,7.0;"/><polygon fill="#181818" points="847.5,627.95,851.5,618.95,847.5,622.95,843.5,618.95,847.5,627.95" style="stroke:#181818;stroke-width:1.0;"/></g><!--link UserManagementService to UserRepository--><g id="link_UserManagementService_UserRepository"><path codeLine="86" d="M767.25,549.29 C741.39,571.77 714.33,598.95 694.5,628 C601.72,763.94 625.57,821.97 562.5,974 C553.35,996.05 551.58,1001.85 540.5,1023 C536.08,1031.43 530.89,1040.38 525.99,1048.47 " fill="none" id="UserManagementService-to-UserRepository" style="stroke:#181818;stroke-width:1.0;"/><polygon fill="#181818" points="523.3,1052.87,531.3963,1047.262,525.8997,1048.599,524.5627,1043.1024,523.3,1052.87" style="stroke:#181818;stroke-width:1.0;"/><text fill="#000000" font-family="sans-serif" font-size="13" lengthAdjust="spacing" textLength="34" x="695.5" y="806.5283">save()</text></g><!--link PersistenceContext to RepositoryFactory--><g id="link_PersistenceContext_RepositoryFactory"><path codeLine="92" d="M381.02,521.69 C384.72,569.65 391.73,660.38 396.73,725.22 " fill="none" id="PersistenceContext-to-RepositoryFactory" style="stroke:#181818;stroke-width:1.0;"/><polygon fill="#181818" points="397.12,730.23,400.4139,720.9483,396.7343,725.2449,392.4377,721.5653,397.12,730.23" style="stroke:#181818;stroke-width:1.0;"/><text fill="#000000" font-family="sans-serif" font-size="13" lengthAdjust="spacing" textLength="44" x="387.5" y="594.0283">create()</text></g><!--link RepositoryFactory to CustomerRepository--><g id="link_RepositoryFactory_CustomerRepository"><path codeLine="94" d="M381.6,871.85 C364.5,928.99 341.2,1006.82 328.9,1047.92 " fill="none" id="RepositoryFactory-to-CustomerRepository" style="stroke:#181818;stroke-width:1.0;"/><polygon fill="#181818" points="327.46,1052.74,333.8672,1045.2602,328.8902,1047.9489,326.2014,1042.9719,327.46,1052.74" style="stroke:#181818;stroke-width:1.0;"/><text fill="#000000" font-family="sans-serif" font-size="13" lengthAdjust="spacing" textLength="44" x="341.5" y="1019.0283">create()</text></g><!--link RepositoryFactory to UserRepository--><g id="link_RepositoryFactory_UserRepository"><path codeLine="95" d="M429.52,871.85 C451.63,928.99 481.74,1006.82 497.64,1047.92 " fill="none" id="RepositoryFactory-to-UserRepository" style="stroke:#181818;stroke-width:1.0;"/><polygon fill="#181818" points="499.5,1052.74,499.9864,1042.9032,497.6974,1048.0762,492.5244,1045.7873,499.5,1052.74" style="stroke:#181818;stroke-width:1.0;"/><text fill="#000000" font-family="sans-serif" font-size="13" lengthAdjust="spacing" textLength="44" x="487.5" y="1019.0283">create()</text></g><!--link CustomerUserCreatedEventWatchDog to RegisterCustomerWatchdogController--><g id="link_CustomerUserCreatedEventWatchDog_RegisterCustomerWatchdogController"><path codeLine="110" d="M144.5,64.61 C144.5,82.69 144.5,108.21 144.5,129.31 " fill="none" id="CustomerUserCreatedEventWatchDog-to-RegisterCustomerWatchdogController" style="stroke:#181818;stroke-width:1.0;stroke-dasharray:7.0,7.0;"/><polygon fill="#181818" points="144.5,134.57,148.5,125.57,144.5,129.57,140.5,125.57,144.5,134.57" style="stroke:#181818;stroke-width:1.0;"/></g><!--link RegisterCustomerWatchdogController to CustomerFactory--><g id="link_RegisterCustomerWatchdogController_CustomerFactory"><path codeLine="111" d="M129.49,202.18 C120.53,221.69 109.12,246.53 99.79,266.86 " fill="none" id="RegisterCustomerWatchdogController-to-CustomerFactory" style="stroke:#181818;stroke-width:1.0;stroke-dasharray:7.0,7.0;"/><polygon fill="#181818" points="97.59,271.65,104.9804,265.1398,99.6762,267.106,97.71,261.8019,97.59,271.65" style="stroke:#181818;stroke-width:1.0;"/></g><!--link RegisterCustomerWatchdogController to CustomerRepository--><g id="link_RegisterCustomerWatchdogController_CustomerRepository"><path codeLine="112" d="M169.18,202.27 C186.47,228.5 206.5,266.97 206.5,304.5 C206.5,304.5 206.5,304.5 206.5,802 C206.5,880.01 208.99,903.09 241.5,974 C254.45,1002.25 276.57,1029.84 294.12,1049.19 " fill="none" id="RegisterCustomerWatchdogController-to-CustomerRepository" style="stroke:#181818;stroke-width:1.0;"/><polygon fill="#181818" points="297.56,1052.95,294.4369,1043.6094,294.1853,1049.2607,288.534,1049.009,297.56,1052.95" style="stroke:#181818;stroke-width:1.0;"/><text fill="#000000" font-family="sans-serif" font-size="13" lengthAdjust="spacing" textLength="34" x="207.5" y="493.5283">save()</text></g><!--SRC=[hLR1Rjim3BtxAtHp2yFz00yhi6LfCM3DYgR5pffD90OSgP2Kf46mVvzeIPOYotK7p8Sw9X_9HugaMdTKIhBOIyLt81ueeniGBz_9EIFwAGHiMgb0EC3LTI_FYqwBdL1gwPyigtjNJv55xsjQlU1C2Tvr8EAGBt88LzG2g8B1fTOiUacpF01JOVX7JGVDMGte6jwKz_lAPQkuQ24YREMdErhZonamE3uBogIMjfpHplgxklvaz6GlCVSKXj2zuizl4NBuh8V2VSJOexKeo5J_ENBHt0C3GJNnDOX3MuEZlp5oUE0DTD0uU9Ww5j8S-KwNyTA-x4dxubGzsdzRa2wqzY-gWSxI2ApwbNTjVVBQn_xR9kPEUWL7UzW3i_L9AtOe_RflksRe3iEAqHqOFlZBXR8XV32hCEYLHyAEjbr5blZwqZG2fBGQqsVDJrQH1Us0DTGbediKP4MUz6iDQZwxcSeKvDYghMll_iEbSo4CJiqBLp6gp-H2WZpb81dI6YI_iQfXmTri-GE-6DlBixUgtEX-XAi0ntr2DHhrl21oou_X6icrxNWPtTpS9lPAbgUH4PyiIwoab4VFJ_EFanev3j7lB3MqI-oaYeJhY63cxpf1Dz7ypGHDplOiqucTacNfLO4ser6Tm9Pn1he8aXwmawDo_slvi7hJ3j35kBldBA9YPmaIPNcRk3mgEssOrbYBDebH2upIDgFA-I3vv__qnAiWlcP_KLLll_7DUVesxo4Dt_XoJlyVCLezDjzpwiet-3bcoR4USyhc8IJi6ali8sObFXD7R9hzBm00]--></g></svg>