<?xml version="1.0" encoding="us-ascii" standalone="no"?><svg xmlns="http://www.w3.org/2000/svg" xmlns:xlink="http://www.w3.org/1999/xlink" contentStyleType="text/css" height="530px" preserveAspectRatio="none" style="width:500px;height:530px;background:#FFFFFF;" version="1.1" viewBox="0 0 500 530" width="500px" zoomAndPan="magnify"><defs/><g><!--cluster CustomerEntityAggregate--><g id="cluster_CustomerEntityAggregate"><path d="M8.5,263 L189.5,263 A3.75,3.75 0 0 1 192,265.5 L199,287.6211 L360.5,287.6211 A2.5,2.5 0 0 1 363,290.1211 L363,520.5 A2.5,2.5 0 0 1 360.5,523 L8.5,523 A2.5,2.5 0 0 1 6,520.5 L6,265.5 A2.5,2.5 0 0 1 8.5,263 " fill="none" style="stroke:#000000;stroke-width:1.5;"/><line style="stroke:#000000;stroke-width:1.5;" x1="6" x2="199" y1="287.6211" y2="287.6211"/><text fill="#000000" font-family="sans-serif" font-size="14" font-weight="bold" lengthAdjust="spacing" textLength="180" x="10" y="280.1074">CustomerEntityAggregate</text></g><!--class CustomerEntity--><g id="elem_CustomerEntity"><rect codeLine="8" fill="#F1F1F1" height="66.6211" id="CustomerEntity" rx="2.5" ry="2.5" style="stroke:#181818;stroke-width:0.5;" width="128" x="202" y="300"/><ellipse cx="217" cy="316" fill="#ADD1B2" rx="11" ry="11" style="stroke:#181818;stroke-width:1.0;"/><path d="M215.8594,316.7969 L215.8594,319.2969 L220.1875,319.2969 L220.1875,318.375 Q220.1875,317.7656 220.4219,317.5 Q220.6719,317.2344 221.0469,317.2344 Q221.4219,317.2344 221.6563,317.5 Q221.8906,317.7656 221.8906,318.375 L221.8906,321 L213.8906,321 Q213.2656,321 213,320.7656 Q212.75,320.5313 212.75,320.1406 Q212.75,319.7656 213.0156,319.5313 Q213.2813,319.2969 213.8906,319.2969 L214.1563,319.2969 L214.1563,312.6406 L213.8906,312.6406 Q213.2656,312.6406 213,312.4063 Q212.75,312.1719 212.75,311.7813 Q212.75,311.4063 213,311.1719 Q213.2656,310.9375 213.8906,310.9375 L221.5156,310.9375 L221.5156,313.5313 Q221.5156,314.1406 221.2813,314.4063 Q221.0625,314.6563 220.6719,314.6563 Q220.2969,314.6563 220.0625,314.4063 Q219.8281,314.1406 219.8281,313.5313 L219.8281,312.6406 L215.8594,312.6406 L215.8594,315.0938 L217.3438,315.0938 Q217.3438,314.4375 217.4688,314.25 Q217.7344,313.8438 218.2031,313.8438 Q218.5781,313.8438 218.8125,314.1094 Q219.0469,314.3594 219.0469,314.9688 L219.0469,316.9375 Q219.0469,317.4844 218.9219,317.6719 Q218.6563,318.0625 218.2031,318.0625 Q217.7344,318.0625 217.4688,317.6563 Q217.3438,317.4688 217.3438,316.7969 L215.8594,316.7969 Z " fill="#000000"/><text fill="#000000" font-family="sans-serif" font-size="14" lengthAdjust="spacing" textLength="96" x="231" y="321.7969">CustomerEntity</text><line style="stroke:#181818;stroke-width:0.5;" x1="203" x2="329" y1="332" y2="332"/><text fill="#000000" font-family="sans-serif" font-size="14" lengthAdjust="spacing" textLength="79" x="208" y="351.1074">&#171;root entity&#187;</text><line style="stroke:#181818;stroke-width:0.5;" x1="203" x2="329" y1="358.6211" y2="358.6211"/></g><!--class CompanyName--><g id="elem_CompanyName"><rect codeLine="12" fill="#F1F1F1" height="60.582" id="CompanyName" rx="2.5" ry="2.5" style="stroke:#181818;stroke-width:0.5;" width="128" x="22" y="446"/><ellipse cx="37" cy="468.291" fill="#F04800" rx="11" ry="11" style="stroke:#181818;stroke-width:1.0;"/><path d="M37.5938,471.5566 L40.0625,465.6816 L39.6719,465.6816 Q39.0625,465.6816 38.7969,465.4473 Q38.5313,465.2129 38.5313,464.8223 Q38.5313,464.4473 38.7969,464.2129 Q39.0625,463.9785 39.6719,463.9785 L41.9531,463.9785 Q42.5625,463.9785 42.8281,464.2129 Q43.0938,464.4473 43.0938,464.8223 Q43.0938,465.291 42.6875,465.5566 Q42.5,465.6816 41.9063,465.6816 L38.4219,474.041 L36.7813,474.041 L33.2969,465.6816 Q32.7031,465.6816 32.5156,465.5566 Q32.1094,465.291 32.1094,464.8223 Q32.1094,464.4473 32.375,464.2129 Q32.6406,463.9785 33.25,463.9785 L35.5469,463.9785 Q36.1563,463.9785 36.4063,464.2129 Q36.6719,464.4473 36.6719,464.8223 Q36.6719,465.2129 36.4063,465.4473 Q36.1563,465.6816 35.5469,465.6816 L35.1406,465.6816 L37.5938,471.5566 Z " fill="#000000"/><text fill="#000000" font-family="sans-serif" font-size="12" font-style="italic" lengthAdjust="spacing" textLength="83" x="57.5" y="463.9492">&#171;value Object&#187;</text><text fill="#000000" font-family="sans-serif" font-size="14" lengthAdjust="spacing" textLength="96" x="51" y="482.0684">CompanyName</text><line style="stroke:#181818;stroke-width:0.5;" x1="23" x2="149" y1="490.582" y2="490.582"/><line style="stroke:#181818;stroke-width:0.5;" x1="23" x2="149" y1="498.582" y2="498.582"/></g><!--class CompanyCode--><g id="elem_CompanyCode"><rect codeLine="14" fill="#F1F1F1" height="60.582" id="CompanyCode" rx="2.5" ry="2.5" style="stroke:#181818;stroke-width:0.5;" width="162" x="185" y="446"/><ellipse cx="200" cy="468.291" fill="#F09000" rx="11" ry="11" style="stroke:#181818;stroke-width:1.0;"/><path d="M200.5938,471.5566 L203.0625,465.6816 L202.6719,465.6816 Q202.0625,465.6816 201.7969,465.4473 Q201.5313,465.2129 201.5313,464.8223 Q201.5313,464.4473 201.7969,464.2129 Q202.0625,463.9785 202.6719,463.9785 L204.9531,463.9785 Q205.5625,463.9785 205.8281,464.2129 Q206.0938,464.4473 206.0938,464.8223 Q206.0938,465.291 205.6875,465.5566 Q205.5,465.6816 204.9063,465.6816 L201.4219,474.041 L199.7813,474.041 L196.2969,465.6816 Q195.7031,465.6816 195.5156,465.5566 Q195.1094,465.291 195.1094,464.8223 Q195.1094,464.4473 195.375,464.2129 Q195.6406,463.9785 196.25,463.9785 L198.5469,463.9785 Q199.1563,463.9785 199.4063,464.2129 Q199.6719,464.4473 199.6719,464.8223 Q199.6719,465.2129 199.4063,465.4473 Q199.1563,465.6816 198.5469,465.6816 L198.1406,465.6816 L200.5938,471.5566 Z " fill="#000000"/><text fill="#000000" font-family="sans-serif" font-size="12" font-style="italic" lengthAdjust="spacing" textLength="134" x="212" y="463.9492">&#171;Identifier value Object&#187;</text><text fill="#000000" font-family="sans-serif" font-size="14" lengthAdjust="spacing" textLength="94" x="232" y="482.0684">CompanyCode</text><line style="stroke:#181818;stroke-width:0.5;" x1="186" x2="346" y1="490.582" y2="490.582"/><line style="stroke:#181818;stroke-width:0.5;" x1="186" x2="346" y1="498.582" y2="498.582"/></g><!--class CustomerManager--><g id="elem_CustomerManager"><rect codeLine="3" fill="#F1F1F1" height="66.6211" id="CustomerManager" rx="2.5" ry="2.5" style="stroke:#181818;stroke-width:0.5;" width="149" x="191.5" y="7"/><ellipse cx="206.5" cy="23" fill="#ADD1B2" rx="11" ry="11" style="stroke:#181818;stroke-width:1.0;"/><path d="M205.3594,23.7969 L205.3594,26.2969 L209.6875,26.2969 L209.6875,25.375 Q209.6875,24.7656 209.9219,24.5 Q210.1719,24.2344 210.5469,24.2344 Q210.9219,24.2344 211.1563,24.5 Q211.3906,24.7656 211.3906,25.375 L211.3906,28 L203.3906,28 Q202.7656,28 202.5,27.7656 Q202.25,27.5313 202.25,27.1406 Q202.25,26.7656 202.5156,26.5313 Q202.7813,26.2969 203.3906,26.2969 L203.6563,26.2969 L203.6563,19.6406 L203.3906,19.6406 Q202.7656,19.6406 202.5,19.4063 Q202.25,19.1719 202.25,18.7813 Q202.25,18.4063 202.5,18.1719 Q202.7656,17.9375 203.3906,17.9375 L211.0156,17.9375 L211.0156,20.5313 Q211.0156,21.1406 210.7813,21.4063 Q210.5625,21.6563 210.1719,21.6563 Q209.7969,21.6563 209.5625,21.4063 Q209.3281,21.1406 209.3281,20.5313 L209.3281,19.6406 L205.3594,19.6406 L205.3594,22.0938 L206.8438,22.0938 Q206.8438,21.4375 206.9688,21.25 Q207.2344,20.8438 207.7031,20.8438 Q208.0781,20.8438 208.3125,21.1094 Q208.5469,21.3594 208.5469,21.9688 L208.5469,23.9375 Q208.5469,24.4844 208.4219,24.6719 Q208.1563,25.0625 207.7031,25.0625 Q207.2344,25.0625 206.9688,24.6563 Q206.8438,24.4688 206.8438,23.7969 L205.3594,23.7969 Z " fill="#000000"/><text fill="#000000" font-family="sans-serif" font-size="14" lengthAdjust="spacing" textLength="117" x="220.5" y="28.7969">CustomerManager</text><line style="stroke:#181818;stroke-width:0.5;" x1="192.5" x2="339.5" y1="39" y2="39"/><text fill="#000000" font-family="sans-serif" font-size="14" lengthAdjust="spacing" textLength="50" x="197.5" y="58.1074">&#171;entity&#187;</text><line style="stroke:#181818;stroke-width:0.5;" x1="192.5" x2="339.5" y1="65.6211" y2="65.6211"/></g><!--class Address--><g id="elem_Address"><rect codeLine="17" fill="#F1F1F1" height="60.582" id="Address" rx="2.5" ry="2.5" style="stroke:#181818;stroke-width:0.5;" width="111" x="382.5" y="446"/><ellipse cx="397.5" cy="468.291" fill="#F04800" rx="11" ry="11" style="stroke:#181818;stroke-width:1.0;"/><path d="M398.0938,471.5566 L400.5625,465.6816 L400.1719,465.6816 Q399.5625,465.6816 399.2969,465.4473 Q399.0313,465.2129 399.0313,464.8223 Q399.0313,464.4473 399.2969,464.2129 Q399.5625,463.9785 400.1719,463.9785 L402.4531,463.9785 Q403.0625,463.9785 403.3281,464.2129 Q403.5938,464.4473 403.5938,464.8223 Q403.5938,465.291 403.1875,465.5566 Q403,465.6816 402.4063,465.6816 L398.9219,474.041 L397.2813,474.041 L393.7969,465.6816 Q393.2031,465.6816 393.0156,465.5566 Q392.6094,465.291 392.6094,464.8223 Q392.6094,464.4473 392.875,464.2129 Q393.1406,463.9785 393.75,463.9785 L396.0469,463.9785 Q396.6563,463.9785 396.9063,464.2129 Q397.1719,464.4473 397.1719,464.8223 Q397.1719,465.2129 396.9063,465.4473 Q396.6563,465.6816 396.0469,465.6816 L395.6406,465.6816 L398.0938,471.5566 Z " fill="#000000"/><text fill="#000000" font-family="sans-serif" font-size="12" font-style="italic" lengthAdjust="spacing" textLength="83" x="409.5" y="463.9492">&#171;value Object&#187;</text><text fill="#000000" font-family="sans-serif" font-size="14" lengthAdjust="spacing" textLength="52" x="425" y="482.0684">Address</text><line style="stroke:#181818;stroke-width:0.5;" x1="383.5" x2="492.5" y1="490.582" y2="490.582"/><line style="stroke:#181818;stroke-width:0.5;" x1="383.5" x2="492.5" y1="498.582" y2="498.582"/></g><!--link CustomerEntity to CompanyName--><g id="link_CustomerEntity_CompanyName"><path codeLine="20" d="M217.79,367.05 C204.39,376.45 189.96,386.9 177,397 C157.09,412.52 135.67,430.9 118.62,445.98 " fill="none" id="CustomerEntity-CompanyName" style="stroke:#181818;stroke-width:1.0;"/><polygon fill="#000000" points="185.9121,403.5318,177.0048,406.865,180.6652,411.464,185.9121,403.5318" style="stroke:#000000;stroke-width:1.0;"/><text fill="#000000" font-family="sans-serif" font-size="13" lengthAdjust="spacing" textLength="66" x="191" y="412.0283">"describes"</text><text fill="#000000" font-family="sans-serif" font-size="13" lengthAdjust="spacing" textLength="7" x="201.5792" y="388.6281">1</text><text fill="#000000" font-family="sans-serif" font-size="13" lengthAdjust="spacing" textLength="7" x="117.99" y="434.5502">1</text></g><!--link CustomerEntity to CompanyCode--><g id="link_CustomerEntity_CompanyCode"><path codeLine="21" d="M266,367.2 C266,390.96 266,422.84 266,445.86 " fill="none" id="CustomerEntity-CompanyCode" style="stroke:#181818;stroke-width:1.0;"/><polygon fill="#000000" points="271,401.6455,268.0611,410.6906,273.9389,410.6906,271,401.6455" style="stroke:#000000;stroke-width:1.0;"/><text fill="#000000" font-family="sans-serif" font-size="13" lengthAdjust="spacing" textLength="66" x="280" y="412.0283">"describes"</text><text fill="#000000" font-family="sans-serif" font-size="13" lengthAdjust="spacing" textLength="7" x="258.3984" y="388.539">1</text><text fill="#000000" font-family="sans-serif" font-size="13" lengthAdjust="spacing" textLength="7" x="258.2781" y="434.8888">1</text></g><!--link CustomerEntity to Address--><g id="link_CustomerEntity_Address"><path codeLine="22" d="M315.44,367.32 C328.58,376.55 342.57,386.85 355,397 C373.59,412.18 393.15,430.55 408.61,445.7 " fill="none" id="CustomerEntity-Address" style="stroke:#181818;stroke-width:1.0;"/><polygon fill="#000000" points="377.1738,403.4267,382.2035,411.4985,385.9874,407.0006,377.1738,403.4267" style="stroke:#000000;stroke-width:1.0;"/><text fill="#000000" font-family="sans-serif" font-size="13" lengthAdjust="spacing" textLength="66" x="390" y="412.0283">"describes"</text><text fill="#000000" font-family="sans-serif" font-size="13" lengthAdjust="spacing" textLength="7" x="316.3359" y="388.6796">1</text><text fill="#000000" font-family="sans-serif" font-size="13" lengthAdjust="spacing" textLength="7" x="394.8264" y="434.6958">1</text></g><!--link CustomerManager to CustomerEntity--><g id="link_CustomerManager_CustomerEntity"><path codeLine="23" d="M266,74.03 C266,128.31 266,237.04 266,294.66 " fill="none" id="CustomerManager-to-CustomerEntity" style="stroke:#181818;stroke-width:1.0;"/><polygon fill="#181818" points="266,299.73,270,290.73,266,294.73,262,290.73,266,299.73" style="stroke:#181818;stroke-width:1.0;"/><polygon fill="#000000" points="271,180.6455,273.9389,171.6004,268.0611,171.6004,271,180.6455" style="stroke:#000000;stroke-width:1.0;"/><text fill="#000000" font-family="sans-serif" font-size="13" lengthAdjust="spacing" textLength="53" x="280" y="181.0283">manages</text><text fill="#000000" font-family="sans-serif" font-size="13" lengthAdjust="spacing" textLength="7" x="258.3766" y="95.6046">1</text><text fill="#000000" font-family="sans-serif" font-size="13" lengthAdjust="spacing" textLength="5" x="260.5234" y="288.7645">*</text></g><!--SRC=[ZP5DJyCm38Rl-HLMEF0XGel40QegqbHnuC37YRlNUANGD5MI8atJ_Zj9mmQgnaSkLcm_hr_Bno_U3wx8ig73te-wkwYDpkeEdHEgnSQYPkoszwrVGpKwRpJPU-on8GiR1k6L9KrbATcMiIUitq9ntvlGHTDOQj1JGcPwdzzKIvBM60zxtPWBsZ5KqHbKHW_OhnzGKsW-UJu_MkLNrtb-2k_OZGIForUglPImEOHLHdrXDtd4xbGSjch3LWSKjYpn2wKiXVZhp0YmsMhyaeCGK_XklG2koDMsNPBZKFvDJSx_J-ty_aJi3faG8IJmCpu_Im4IzDJes0S0]--></g></svg>