<?xml version="1.0" encoding="us-ascii" standalone="no"?><svg xmlns="http://www.w3.org/2000/svg" xmlns:xlink="http://www.w3.org/1999/xlink" contentStyleType="text/css" height="781px" preserveAspectRatio="none" style="width:646px;height:781px;background:#FFFFFF;" version="1.1" viewBox="0 0 646 781" width="646px" zoomAndPan="magnify"><defs/><g><!--cluster UserAggregate--><g id="cluster_UserAggregate"><path d="M8.5,6.0137 L115.5,6.0137 A3.75,3.75 0 0 1 118,8.5137 L125,30.6348 L636.5,30.6348 A2.5,2.5 0 0 1 639,33.1348 L639,771.5137 A2.5,2.5 0 0 1 636.5,774.0137 L8.5,774.0137 A2.5,2.5 0 0 1 6,771.5137 L6,8.5137 A2.5,2.5 0 0 1 8.5,6.0137 " fill="none" style="stroke:#000000;stroke-width:1.5;"/><line style="stroke:#000000;stroke-width:1.5;" x1="6" x2="125" y1="30.6348" y2="30.6348"/><text fill="#000000" font-family="sans-serif" font-size="14" font-weight="bold" lengthAdjust="spacing" textLength="106" x="10" y="23.1211">UserAggregate</text></g><!--class LanguageEngineer--><g id="elem_LanguageEngineer"><rect codeLine="4" fill="#F1F1F1" height="66.6211" id="LanguageEngineer" rx="2.5" ry="2.5" style="stroke:#181818;stroke-width:0.5;" width="153" x="469.5" y="299.0137"/><ellipse cx="484.5" cy="315.0137" fill="#ADD1B2" rx="11" ry="11" style="stroke:#181818;stroke-width:1.0;"/><path d="M483.3594,315.8105 L483.3594,318.3105 L487.6875,318.3105 L487.6875,317.3887 Q487.6875,316.7793 487.9219,316.5137 Q488.1719,316.248 488.5469,316.248 Q488.9219,316.248 489.1563,316.5137 Q489.3906,316.7793 489.3906,317.3887 L489.3906,320.0137 L481.3906,320.0137 Q480.7656,320.0137 480.5,319.7793 Q480.25,319.5449 480.25,319.1543 Q480.25,318.7793 480.5156,318.5449 Q480.7813,318.3105 481.3906,318.3105 L481.6563,318.3105 L481.6563,311.6543 L481.3906,311.6543 Q480.7656,311.6543 480.5,311.4199 Q480.25,311.1855 480.25,310.7949 Q480.25,310.4199 480.5,310.1855 Q480.7656,309.9512 481.3906,309.9512 L489.0156,309.9512 L489.0156,312.5449 Q489.0156,313.1543 488.7813,313.4199 Q488.5625,313.6699 488.1719,313.6699 Q487.7969,313.6699 487.5625,313.4199 Q487.3281,313.1543 487.3281,312.5449 L487.3281,311.6543 L483.3594,311.6543 L483.3594,314.1074 L484.8438,314.1074 Q484.8438,313.4512 484.9688,313.2637 Q485.2344,312.8574 485.7031,312.8574 Q486.0781,312.8574 486.3125,313.123 Q486.5469,313.373 486.5469,313.9824 L486.5469,315.9512 Q486.5469,316.498 486.4219,316.6855 Q486.1563,317.0762 485.7031,317.0762 Q485.2344,317.0762 484.9688,316.6699 Q484.8438,316.4824 484.8438,315.8105 L483.3594,315.8105 Z " fill="#000000"/><text fill="#000000" font-family="sans-serif" font-size="14" lengthAdjust="spacing" textLength="121" x="498.5" y="320.8105">LanguageEngineer</text><line style="stroke:#181818;stroke-width:0.5;" x1="470.5" x2="621.5" y1="331.0137" y2="331.0137"/><text fill="#000000" font-family="sans-serif" font-size="14" lengthAdjust="spacing" textLength="50" x="475.5" y="350.1211">&#171;entity&#187;</text><line style="stroke:#181818;stroke-width:0.5;" x1="470.5" x2="621.5" y1="357.6348" y2="357.6348"/></g><!--class Admin--><g id="elem_Admin"><rect codeLine="7" fill="#F1F1F1" height="66.6211" id="Admin" rx="2.5" ry="2.5" style="stroke:#181818;stroke-width:0.5;" width="71" x="397.5" y="43.0137"/><ellipse cx="412.5" cy="59.0137" fill="#ADD1B2" rx="11" ry="11" style="stroke:#181818;stroke-width:1.0;"/><path d="M411.3594,59.8105 L411.3594,62.3105 L415.6875,62.3105 L415.6875,61.3887 Q415.6875,60.7793 415.9219,60.5137 Q416.1719,60.248 416.5469,60.248 Q416.9219,60.248 417.1563,60.5137 Q417.3906,60.7793 417.3906,61.3887 L417.3906,64.0137 L409.3906,64.0137 Q408.7656,64.0137 408.5,63.7793 Q408.25,63.5449 408.25,63.1543 Q408.25,62.7793 408.5156,62.5449 Q408.7813,62.3105 409.3906,62.3105 L409.6563,62.3105 L409.6563,55.6543 L409.3906,55.6543 Q408.7656,55.6543 408.5,55.4199 Q408.25,55.1855 408.25,54.7949 Q408.25,54.4199 408.5,54.1855 Q408.7656,53.9512 409.3906,53.9512 L417.0156,53.9512 L417.0156,56.5449 Q417.0156,57.1543 416.7813,57.4199 Q416.5625,57.6699 416.1719,57.6699 Q415.7969,57.6699 415.5625,57.4199 Q415.3281,57.1543 415.3281,56.5449 L415.3281,55.6543 L411.3594,55.6543 L411.3594,58.1074 L412.8438,58.1074 Q412.8438,57.4512 412.9688,57.2637 Q413.2344,56.8574 413.7031,56.8574 Q414.0781,56.8574 414.3125,57.123 Q414.5469,57.373 414.5469,57.9824 L414.5469,59.9512 Q414.5469,60.498 414.4219,60.6855 Q414.1563,61.0762 413.7031,61.0762 Q413.2344,61.0762 412.9688,60.6699 Q412.8438,60.4824 412.8438,59.8105 L411.3594,59.8105 Z " fill="#000000"/><text fill="#000000" font-family="sans-serif" font-size="14" lengthAdjust="spacing" textLength="39" x="426.5" y="64.8105">Admin</text><line style="stroke:#181818;stroke-width:0.5;" x1="398.5" x2="467.5" y1="75.0137" y2="75.0137"/><text fill="#000000" font-family="sans-serif" font-size="14" lengthAdjust="spacing" textLength="50" x="403.5" y="94.1211">&#171;entity&#187;</text><line style="stroke:#181818;stroke-width:0.5;" x1="398.5" x2="467.5" y1="101.6348" y2="101.6348"/></g><!--class CustomerManager--><g id="elem_CustomerManager"><rect codeLine="10" fill="#F1F1F1" height="66.6211" id="CustomerManager" rx="2.5" ry="2.5" style="stroke:#181818;stroke-width:0.5;" width="149" x="247.5" y="171.0137"/><ellipse cx="262.5" cy="187.0137" fill="#ADD1B2" rx="11" ry="11" style="stroke:#181818;stroke-width:1.0;"/><path d="M261.3594,187.8105 L261.3594,190.3105 L265.6875,190.3105 L265.6875,189.3887 Q265.6875,188.7793 265.9219,188.5137 Q266.1719,188.248 266.5469,188.248 Q266.9219,188.248 267.1563,188.5137 Q267.3906,188.7793 267.3906,189.3887 L267.3906,192.0137 L259.3906,192.0137 Q258.7656,192.0137 258.5,191.7793 Q258.25,191.5449 258.25,191.1543 Q258.25,190.7793 258.5156,190.5449 Q258.7813,190.3105 259.3906,190.3105 L259.6563,190.3105 L259.6563,183.6543 L259.3906,183.6543 Q258.7656,183.6543 258.5,183.4199 Q258.25,183.1855 258.25,182.7949 Q258.25,182.4199 258.5,182.1855 Q258.7656,181.9512 259.3906,181.9512 L267.0156,181.9512 L267.0156,184.5449 Q267.0156,185.1543 266.7813,185.4199 Q266.5625,185.6699 266.1719,185.6699 Q265.7969,185.6699 265.5625,185.4199 Q265.3281,185.1543 265.3281,184.5449 L265.3281,183.6543 L261.3594,183.6543 L261.3594,186.1074 L262.8438,186.1074 Q262.8438,185.4512 262.9688,185.2637 Q263.2344,184.8574 263.7031,184.8574 Q264.0781,184.8574 264.3125,185.123 Q264.5469,185.373 264.5469,185.9824 L264.5469,187.9512 Q264.5469,188.498 264.4219,188.6855 Q264.1563,189.0762 263.7031,189.0762 Q263.2344,189.0762 262.9688,188.6699 Q262.8438,188.4824 262.8438,187.8105 L261.3594,187.8105 Z " fill="#000000"/><text fill="#000000" font-family="sans-serif" font-size="14" lengthAdjust="spacing" textLength="117" x="276.5" y="192.8105">CustomerManager</text><line style="stroke:#181818;stroke-width:0.5;" x1="248.5" x2="395.5" y1="203.0137" y2="203.0137"/><text fill="#000000" font-family="sans-serif" font-size="14" lengthAdjust="spacing" textLength="50" x="253.5" y="222.1211">&#171;entity&#187;</text><line style="stroke:#181818;stroke-width:0.5;" x1="248.5" x2="395.5" y1="229.6348" y2="229.6348"/></g><!--class Operator--><g id="elem_Operator"><rect codeLine="13" fill="#F1F1F1" height="66.6211" id="Operator" rx="2.5" ry="2.5" style="stroke:#181818;stroke-width:0.5;" width="89" x="166.5" y="43.0137"/><ellipse cx="181.5" cy="59.0137" fill="#ADD1B2" rx="11" ry="11" style="stroke:#181818;stroke-width:1.0;"/><path d="M180.3594,59.8105 L180.3594,62.3105 L184.6875,62.3105 L184.6875,61.3887 Q184.6875,60.7793 184.9219,60.5137 Q185.1719,60.248 185.5469,60.248 Q185.9219,60.248 186.1563,60.5137 Q186.3906,60.7793 186.3906,61.3887 L186.3906,64.0137 L178.3906,64.0137 Q177.7656,64.0137 177.5,63.7793 Q177.25,63.5449 177.25,63.1543 Q177.25,62.7793 177.5156,62.5449 Q177.7813,62.3105 178.3906,62.3105 L178.6563,62.3105 L178.6563,55.6543 L178.3906,55.6543 Q177.7656,55.6543 177.5,55.4199 Q177.25,55.1855 177.25,54.7949 Q177.25,54.4199 177.5,54.1855 Q177.7656,53.9512 178.3906,53.9512 L186.0156,53.9512 L186.0156,56.5449 Q186.0156,57.1543 185.7813,57.4199 Q185.5625,57.6699 185.1719,57.6699 Q184.7969,57.6699 184.5625,57.4199 Q184.3281,57.1543 184.3281,56.5449 L184.3281,55.6543 L180.3594,55.6543 L180.3594,58.1074 L181.8438,58.1074 Q181.8438,57.4512 181.9688,57.2637 Q182.2344,56.8574 182.7031,56.8574 Q183.0781,56.8574 183.3125,57.123 Q183.5469,57.373 183.5469,57.9824 L183.5469,59.9512 Q183.5469,60.498 183.4219,60.6855 Q183.1563,61.0762 182.7031,61.0762 Q182.2344,61.0762 181.9688,60.6699 Q181.8438,60.4824 181.8438,59.8105 L180.3594,59.8105 Z " fill="#000000"/><text fill="#000000" font-family="sans-serif" font-size="14" lengthAdjust="spacing" textLength="57" x="195.5" y="64.8105">Operator</text><line style="stroke:#181818;stroke-width:0.5;" x1="167.5" x2="254.5" y1="75.0137" y2="75.0137"/><text fill="#000000" font-family="sans-serif" font-size="14" lengthAdjust="spacing" textLength="50" x="172.5" y="94.1211">&#171;entity&#187;</text><line style="stroke:#181818;stroke-width:0.5;" x1="167.5" x2="254.5" y1="101.6348" y2="101.6348"/></g><!--class Customer--><g id="elem_Customer"><rect codeLine="16" fill="#F1F1F1" height="66.6211" id="Customer" rx="2.5" ry="2.5" style="stroke:#181818;stroke-width:0.5;" width="93" x="154.5" y="299.0137"/><ellipse cx="169.5" cy="315.0137" fill="#ADD1B2" rx="11" ry="11" style="stroke:#181818;stroke-width:1.0;"/><path d="M168.3594,315.8105 L168.3594,318.3105 L172.6875,318.3105 L172.6875,317.3887 Q172.6875,316.7793 172.9219,316.5137 Q173.1719,316.248 173.5469,316.248 Q173.9219,316.248 174.1563,316.5137 Q174.3906,316.7793 174.3906,317.3887 L174.3906,320.0137 L166.3906,320.0137 Q165.7656,320.0137 165.5,319.7793 Q165.25,319.5449 165.25,319.1543 Q165.25,318.7793 165.5156,318.5449 Q165.7813,318.3105 166.3906,318.3105 L166.6563,318.3105 L166.6563,311.6543 L166.3906,311.6543 Q165.7656,311.6543 165.5,311.4199 Q165.25,311.1855 165.25,310.7949 Q165.25,310.4199 165.5,310.1855 Q165.7656,309.9512 166.3906,309.9512 L174.0156,309.9512 L174.0156,312.5449 Q174.0156,313.1543 173.7813,313.4199 Q173.5625,313.6699 173.1719,313.6699 Q172.7969,313.6699 172.5625,313.4199 Q172.3281,313.1543 172.3281,312.5449 L172.3281,311.6543 L168.3594,311.6543 L168.3594,314.1074 L169.8438,314.1074 Q169.8438,313.4512 169.9688,313.2637 Q170.2344,312.8574 170.7031,312.8574 Q171.0781,312.8574 171.3125,313.123 Q171.5469,313.373 171.5469,313.9824 L171.5469,315.9512 Q171.5469,316.498 171.4219,316.6855 Q171.1563,317.0762 170.7031,317.0762 Q170.2344,317.0762 169.9688,316.6699 Q169.8438,316.4824 169.8438,315.8105 L168.3594,315.8105 Z " fill="#000000"/><text fill="#000000" font-family="sans-serif" font-size="14" lengthAdjust="spacing" textLength="61" x="183.5" y="320.8105">Customer</text><line style="stroke:#181818;stroke-width:0.5;" x1="155.5" x2="246.5" y1="331.0137" y2="331.0137"/><text fill="#000000" font-family="sans-serif" font-size="14" lengthAdjust="spacing" textLength="50" x="160.5" y="350.1211">&#171;entity&#187;</text><line style="stroke:#181818;stroke-width:0.5;" x1="155.5" x2="246.5" y1="357.6348" y2="357.6348"/></g><!--class Candidate--><g id="elem_Candidate"><rect codeLine="19" fill="#F1F1F1" height="66.6211" id="Candidate" rx="2.5" ry="2.5" style="stroke:#181818;stroke-width:0.5;" width="97" x="22.5" y="299.0137"/><ellipse cx="37.5" cy="315.0137" fill="#ADD1B2" rx="11" ry="11" style="stroke:#181818;stroke-width:1.0;"/><path d="M36.3594,315.8105 L36.3594,318.3105 L40.6875,318.3105 L40.6875,317.3887 Q40.6875,316.7793 40.9219,316.5137 Q41.1719,316.248 41.5469,316.248 Q41.9219,316.248 42.1563,316.5137 Q42.3906,316.7793 42.3906,317.3887 L42.3906,320.0137 L34.3906,320.0137 Q33.7656,320.0137 33.5,319.7793 Q33.25,319.5449 33.25,319.1543 Q33.25,318.7793 33.5156,318.5449 Q33.7813,318.3105 34.3906,318.3105 L34.6563,318.3105 L34.6563,311.6543 L34.3906,311.6543 Q33.7656,311.6543 33.5,311.4199 Q33.25,311.1855 33.25,310.7949 Q33.25,310.4199 33.5,310.1855 Q33.7656,309.9512 34.3906,309.9512 L42.0156,309.9512 L42.0156,312.5449 Q42.0156,313.1543 41.7813,313.4199 Q41.5625,313.6699 41.1719,313.6699 Q40.7969,313.6699 40.5625,313.4199 Q40.3281,313.1543 40.3281,312.5449 L40.3281,311.6543 L36.3594,311.6543 L36.3594,314.1074 L37.8438,314.1074 Q37.8438,313.4512 37.9688,313.2637 Q38.2344,312.8574 38.7031,312.8574 Q39.0781,312.8574 39.3125,313.123 Q39.5469,313.373 39.5469,313.9824 L39.5469,315.9512 Q39.5469,316.498 39.4219,316.6855 Q39.1563,317.0762 38.7031,317.0762 Q38.2344,317.0762 37.9688,316.6699 Q37.8438,316.4824 37.8438,315.8105 L36.3594,315.8105 Z " fill="#000000"/><text fill="#000000" font-family="sans-serif" font-size="14" lengthAdjust="spacing" textLength="65" x="51.5" y="320.8105">Candidate</text><line style="stroke:#181818;stroke-width:0.5;" x1="23.5" x2="118.5" y1="331.0137" y2="331.0137"/><text fill="#000000" font-family="sans-serif" font-size="14" lengthAdjust="spacing" textLength="50" x="28.5" y="350.1211">&#171;entity&#187;</text><line style="stroke:#181818;stroke-width:0.5;" x1="23.5" x2="118.5" y1="357.6348" y2="357.6348"/></g><!--class EmailAddress--><g id="elem_EmailAddress"><rect codeLine="22" fill="#F1F1F1" height="60.582" id="EmailAddress" rx="2.5" ry="2.5" style="stroke:#181818;stroke-width:0.5;" width="162" x="22" y="697.0137"/><ellipse cx="37" cy="719.3047" fill="#F09000" rx="11" ry="11" style="stroke:#181818;stroke-width:1.0;"/><path d="M37.5938,722.5703 L40.0625,716.6953 L39.6719,716.6953 Q39.0625,716.6953 38.7969,716.4609 Q38.5313,716.2266 38.5313,715.8359 Q38.5313,715.4609 38.7969,715.2266 Q39.0625,714.9922 39.6719,714.9922 L41.9531,714.9922 Q42.5625,714.9922 42.8281,715.2266 Q43.0938,715.4609 43.0938,715.8359 Q43.0938,716.3047 42.6875,716.5703 Q42.5,716.6953 41.9063,716.6953 L38.4219,725.0547 L36.7813,725.0547 L33.2969,716.6953 Q32.7031,716.6953 32.5156,716.5703 Q32.1094,716.3047 32.1094,715.8359 Q32.1094,715.4609 32.375,715.2266 Q32.6406,714.9922 33.25,714.9922 L35.5469,714.9922 Q36.1563,714.9922 36.4063,715.2266 Q36.6719,715.4609 36.6719,715.8359 Q36.6719,716.2266 36.4063,716.4609 Q36.1563,716.6953 35.5469,716.6953 L35.1406,716.6953 L37.5938,722.5703 Z " fill="#000000"/><text fill="#000000" font-family="sans-serif" font-size="12" font-style="italic" lengthAdjust="spacing" textLength="134" x="49" y="714.9629">&#171;Identifier value Object&#187;</text><text fill="#000000" font-family="sans-serif" font-size="14" lengthAdjust="spacing" textLength="86" x="73" y="733.082">EmailAddress</text><line style="stroke:#181818;stroke-width:0.5;" x1="23" x2="183" y1="741.5957" y2="741.5957"/><line style="stroke:#181818;stroke-width:0.5;" x1="23" x2="183" y1="749.5957" y2="749.5957"/></g><!--class User--><g id="elem_User"><rect codeLine="23" fill="#F1F1F1" height="66.6211" id="User" rx="2.5" ry="2.5" style="stroke:#181818;stroke-width:0.5;" width="91" x="257.5" y="427.0137"/><ellipse cx="286" cy="443.0137" fill="#ADD1B2" rx="11" ry="11" style="stroke:#181818;stroke-width:1.0;"/><path d="M284.8594,443.8105 L284.8594,446.3105 L289.1875,446.3105 L289.1875,445.3887 Q289.1875,444.7793 289.4219,444.5137 Q289.6719,444.248 290.0469,444.248 Q290.4219,444.248 290.6563,444.5137 Q290.8906,444.7793 290.8906,445.3887 L290.8906,448.0137 L282.8906,448.0137 Q282.2656,448.0137 282,447.7793 Q281.75,447.5449 281.75,447.1543 Q281.75,446.7793 282.0156,446.5449 Q282.2813,446.3105 282.8906,446.3105 L283.1563,446.3105 L283.1563,439.6543 L282.8906,439.6543 Q282.2656,439.6543 282,439.4199 Q281.75,439.1855 281.75,438.7949 Q281.75,438.4199 282,438.1855 Q282.2656,437.9512 282.8906,437.9512 L290.5156,437.9512 L290.5156,440.5449 Q290.5156,441.1543 290.2813,441.4199 Q290.0625,441.6699 289.6719,441.6699 Q289.2969,441.6699 289.0625,441.4199 Q288.8281,441.1543 288.8281,440.5449 L288.8281,439.6543 L284.8594,439.6543 L284.8594,442.1074 L286.3438,442.1074 Q286.3438,441.4512 286.4688,441.2637 Q286.7344,440.8574 287.2031,440.8574 Q287.5781,440.8574 287.8125,441.123 Q288.0469,441.373 288.0469,441.9824 L288.0469,443.9512 Q288.0469,444.498 287.9219,444.6855 Q287.6563,445.0762 287.2031,445.0762 Q286.7344,445.0762 286.4688,444.6699 Q286.3438,444.4824 286.3438,443.8105 L284.8594,443.8105 Z " fill="#000000"/><text fill="#000000" font-family="sans-serif" font-size="14" lengthAdjust="spacing" textLength="29" x="303" y="448.8105">User</text><line style="stroke:#181818;stroke-width:0.5;" x1="258.5" x2="347.5" y1="459.0137" y2="459.0137"/><text fill="#000000" font-family="sans-serif" font-size="14" lengthAdjust="spacing" textLength="79" x="263.5" y="478.1211">&#171;root entity&#187;</text><line style="stroke:#181818;stroke-width:0.5;" x1="258.5" x2="347.5" y1="485.6348" y2="485.6348"/></g><!--class Password--><g id="elem_Password"><rect codeLine="27" fill="#F1F1F1" height="60.582" id="Password" rx="2.5" ry="2.5" style="stroke:#181818;stroke-width:0.5;" width="111" x="219.5" y="697.0137"/><ellipse cx="234.5" cy="719.3047" fill="#F04800" rx="11" ry="11" style="stroke:#181818;stroke-width:1.0;"/><path d="M235.0938,722.5703 L237.5625,716.6953 L237.1719,716.6953 Q236.5625,716.6953 236.2969,716.4609 Q236.0313,716.2266 236.0313,715.8359 Q236.0313,715.4609 236.2969,715.2266 Q236.5625,714.9922 237.1719,714.9922 L239.4531,714.9922 Q240.0625,714.9922 240.3281,715.2266 Q240.5938,715.4609 240.5938,715.8359 Q240.5938,716.3047 240.1875,716.5703 Q240,716.6953 239.4063,716.6953 L235.9219,725.0547 L234.2813,725.0547 L230.7969,716.6953 Q230.2031,716.6953 230.0156,716.5703 Q229.6094,716.3047 229.6094,715.8359 Q229.6094,715.4609 229.875,715.2266 Q230.1406,714.9922 230.75,714.9922 L233.0469,714.9922 Q233.6563,714.9922 233.9063,715.2266 Q234.1719,715.4609 234.1719,715.8359 Q234.1719,716.2266 233.9063,716.4609 Q233.6563,716.6953 233.0469,716.6953 L232.6406,716.6953 L235.0938,722.5703 Z " fill="#000000"/><text fill="#000000" font-family="sans-serif" font-size="12" font-style="italic" lengthAdjust="spacing" textLength="83" x="246.5" y="714.9629">&#171;value Object&#187;</text><text fill="#000000" font-family="sans-serif" font-size="14" lengthAdjust="spacing" textLength="61" x="257.5" y="733.082">Password</text><line style="stroke:#181818;stroke-width:0.5;" x1="220.5" x2="329.5" y1="741.5957" y2="741.5957"/><line style="stroke:#181818;stroke-width:0.5;" x1="220.5" x2="329.5" y1="749.5957" y2="749.5957"/></g><!--class Role--><g id="elem_Role"><rect codeLine="30" fill="#F1F1F1" height="60.582" id="Role" rx="2.5" ry="2.5" style="stroke:#181818;stroke-width:0.5;" width="111" x="365.5" y="697.0137"/><ellipse cx="380.5" cy="719.3047" fill="#F04800" rx="11" ry="11" style="stroke:#181818;stroke-width:1.0;"/><path d="M381.0938,722.5703 L383.5625,716.6953 L383.1719,716.6953 Q382.5625,716.6953 382.2969,716.4609 Q382.0313,716.2266 382.0313,715.8359 Q382.0313,715.4609 382.2969,715.2266 Q382.5625,714.9922 383.1719,714.9922 L385.4531,714.9922 Q386.0625,714.9922 386.3281,715.2266 Q386.5938,715.4609 386.5938,715.8359 Q386.5938,716.3047 386.1875,716.5703 Q386,716.6953 385.4063,716.6953 L381.9219,725.0547 L380.2813,725.0547 L376.7969,716.6953 Q376.2031,716.6953 376.0156,716.5703 Q375.6094,716.3047 375.6094,715.8359 Q375.6094,715.4609 375.875,715.2266 Q376.1406,714.9922 376.75,714.9922 L379.0469,714.9922 Q379.6563,714.9922 379.9063,715.2266 Q380.1719,715.4609 380.1719,715.8359 Q380.1719,716.2266 379.9063,716.4609 Q379.6563,716.6953 379.0469,716.6953 L378.6406,716.6953 L381.0938,722.5703 Z " fill="#000000"/><text fill="#000000" font-family="sans-serif" font-size="12" font-style="italic" lengthAdjust="spacing" textLength="83" x="392.5" y="714.9629">&#171;value Object&#187;</text><text fill="#000000" font-family="sans-serif" font-size="14" lengthAdjust="spacing" textLength="29" x="419.5" y="733.082">Role</text><line style="stroke:#181818;stroke-width:0.5;" x1="366.5" x2="475.5" y1="741.5957" y2="741.5957"/><line style="stroke:#181818;stroke-width:0.5;" x1="366.5" x2="475.5" y1="749.5957" y2="749.5957"/></g><!--class Name--><g id="elem_Name"><rect codeLine="33" fill="#F1F1F1" height="60.582" id="Name" rx="2.5" ry="2.5" style="stroke:#181818;stroke-width:0.5;" width="111" x="511.5" y="697.0137"/><ellipse cx="526.5" cy="719.3047" fill="#F04800" rx="11" ry="11" style="stroke:#181818;stroke-width:1.0;"/><path d="M527.0938,722.5703 L529.5625,716.6953 L529.1719,716.6953 Q528.5625,716.6953 528.2969,716.4609 Q528.0313,716.2266 528.0313,715.8359 Q528.0313,715.4609 528.2969,715.2266 Q528.5625,714.9922 529.1719,714.9922 L531.4531,714.9922 Q532.0625,714.9922 532.3281,715.2266 Q532.5938,715.4609 532.5938,715.8359 Q532.5938,716.3047 532.1875,716.5703 Q532,716.6953 531.4063,716.6953 L527.9219,725.0547 L526.2813,725.0547 L522.7969,716.6953 Q522.2031,716.6953 522.0156,716.5703 Q521.6094,716.3047 521.6094,715.8359 Q521.6094,715.4609 521.875,715.2266 Q522.1406,714.9922 522.75,714.9922 L525.0469,714.9922 Q525.6563,714.9922 525.9063,715.2266 Q526.1719,715.4609 526.1719,715.8359 Q526.1719,716.2266 525.9063,716.4609 Q525.6563,716.6953 525.0469,716.6953 L524.6406,716.6953 L527.0938,722.5703 Z " fill="#000000"/><text fill="#000000" font-family="sans-serif" font-size="12" font-style="italic" lengthAdjust="spacing" textLength="83" x="538.5" y="714.9629">&#171;value Object&#187;</text><text fill="#000000" font-family="sans-serif" font-size="14" lengthAdjust="spacing" textLength="36" x="562" y="733.082">Name</text><line style="stroke:#181818;stroke-width:0.5;" x1="512.5" x2="621.5" y1="741.5957" y2="741.5957"/><line style="stroke:#181818;stroke-width:0.5;" x1="512.5" x2="621.5" y1="749.5957" y2="749.5957"/></g><!--link LanguageEngineer to User--><g id="link_LanguageEngineer_User"><path codeLine="39" d="M495.43,366.1437 C478.68,376.4737 459.78,387.6337 442,397.0137 C418.11,409.6137 391.18,422.1037 367.42,432.5637 " fill="none" id="LanguageEngineer-to-User" style="stroke:#181818;stroke-width:1.0;"/><polygon fill="none" points="369.89,439.1237,348.76,440.6537,364.32,426.2737,369.89,439.1237" style="stroke:#181818;stroke-width:1.0;"/></g><!--link User to EmailAddress--><g id="link_User_EmailAddress"><path codeLine="40" d="M278.28,494.2737 C239.08,546.2037 163.28,646.6437 125.51,696.6837 " fill="none" id="User-EmailAddress" style="stroke:#181818;stroke-width:1.0;"/><polygon fill="#000000" points="216.0121,591.6683,208.2174,597.1174,212.9089,600.6583,216.0121,591.6683" style="stroke:#000000;stroke-width:1.0;"/><text fill="#000000" font-family="sans-serif" font-size="13" lengthAdjust="spacing" textLength="51" x="222" y="601.042">identifies</text><text fill="#000000" font-family="sans-serif" font-size="13" lengthAdjust="spacing" textLength="7" x="266.4297" y="515.623">1</text><text fill="#000000" font-family="sans-serif" font-size="13" lengthAdjust="spacing" textLength="7" x="122.4308" y="685.6733">1</text></g><!--link User to Role--><g id="link_User_Role"><path codeLine="41" d="M321.49,494.2737 C335.14,519.0737 353.75,554.1937 368,586.0137 C384.78,623.4937 400.97,668.0337 410.95,696.7637 " fill="none" id="User-Role" style="stroke:#181818;stroke-width:1.0;"/><polygon fill="#000000" points="378.9794,591.0856,379.9464,600.5469,385.3229,598.1716,378.9794,591.0856" style="stroke:#000000;stroke-width:1.0;"/><text fill="#000000" font-family="sans-serif" font-size="13" lengthAdjust="spacing" textLength="54" x="390" y="601.042">classifies</text><text fill="#000000" font-family="sans-serif" font-size="13" lengthAdjust="spacing" textLength="7" x="317.0664" y="515.623">1</text><text fill="#000000" font-family="sans-serif" font-size="13" lengthAdjust="spacing" textLength="7" x="401.1553" y="685.7698">1</text></g><!--link User to Name--><g id="link_User_Name"><path codeLine="42" d="M346.63,494.0237 C377.65,518.0037 419.56,552.2037 453,586.0137 C488.23,621.6337 523.81,667.4137 545.63,696.8537 " fill="none" id="User-Name" style="stroke:#181818;stroke-width:1.0;"/><polygon fill="#000000" points="471.4983,592.0901,475.7351,600.6049,479.9308,596.4884,471.4983,592.0901" style="stroke:#000000;stroke-width:1.0;"/><text fill="#000000" font-family="sans-serif" font-size="13" lengthAdjust="spacing" textLength="56" x="484" y="601.042">describes</text><text fill="#000000" font-family="sans-serif" font-size="13" lengthAdjust="spacing" textLength="7" x="346.7782" y="515.5947">1</text><text fill="#000000" font-family="sans-serif" font-size="13" lengthAdjust="spacing" textLength="7" x="533.5006" y="685.8784">1</text></g><!--link Admin to User--><g id="link_Admin_User"><path codeLine="43" d="M432.43,110.1537 C431.09,143.0637 426.89,195.0137 414,238.0137 C395.36,300.2037 360.11,366.0637 334.32,409.6337 " fill="none" id="Admin-to-User" style="stroke:#181818;stroke-width:1.0;"/><polygon fill="none" points="340.25,413.3637,323.92,426.8737,328.26,406.1337,340.25,413.3637" style="stroke:#181818;stroke-width:1.0;"/></g><!--link CustomerManager to User--><g id="link_CustomerManager_User"><path codeLine="44" d="M319.55,238.2037 C316.36,280.8737 310.74,356.0937 306.94,406.8637 " fill="none" id="CustomerManager-to-User" style="stroke:#181818;stroke-width:1.0;"/><polygon fill="none" points="313.91,407.5337,305.44,426.9537,299.95,406.4837,313.91,407.5337" style="stroke:#181818;stroke-width:1.0;"/></g><!--link User to Password--><g id="link_User_Password"><path codeLine="45" d="M299.54,494.2737 C294.05,546.2037 283.44,646.6437 278.15,696.6837 " fill="none" id="User-Password" style="stroke:#181818;stroke-width:1.0;"/><polygon fill="#000000" points="294.5255,590.6869,290.6522,599.373,296.4975,599.9907,294.5255,590.6869" style="stroke:#000000;stroke-width:1.0;"/><text fill="#000000" font-family="sans-serif" font-size="13" lengthAdjust="spacing" textLength="56" x="303" y="601.042">describes</text><text fill="#000000" font-family="sans-serif" font-size="13" lengthAdjust="spacing" textLength="7" x="291.3438" y="515.623">1</text><text fill="#000000" font-family="sans-serif" font-size="13" lengthAdjust="spacing" textLength="7" x="271.0778" y="685.6733">1</text></g><!--link Operator to User--><g id="link_Operator_User"><path codeLine="46" d="M211.07,110.3137 C212.01,143.3537 215.9,195.3937 230,238.0137 C239.81,267.6937 253.5,269.9437 265,299.0137 C278.8,333.9037 288.43,375.1237 294.54,407.0537 " fill="none" id="Operator-to-User" style="stroke:#181818;stroke-width:1.0;"/><polygon fill="none" points="301.48,406.0837,298.14,427.0137,287.7,408.5737,301.48,406.0837" style="stroke:#181818;stroke-width:1.0;"/></g><!--link Customer to User--><g id="link_Customer_User"><path codeLine="47" d="M227.53,366.2937 C238.63,379.9937 251.75,396.2037 263.92,411.2337 " fill="none" id="Customer-to-User" style="stroke:#181818;stroke-width:1.0;"/><polygon fill="none" points="269.46,406.9537,276.6,426.9037,258.58,415.7637,269.46,406.9537" style="stroke:#181818;stroke-width:1.0;"/></g><!--link Candidate to User--><g id="link_Candidate_User"><path codeLine="48" d="M119.63,359.9237 C154.46,378.8437 201.69,404.4937 239.49,425.0237 " fill="none" id="Candidate-to-User" style="stroke:#181818;stroke-width:1.0;"/><polygon fill="none" points="242.96,418.9337,257.19,434.6337,236.28,431.2437,242.96,418.9337" style="stroke:#181818;stroke-width:1.0;"/></g><!--SRC=[ZL9BJuGm4BxtLpJhGKt4nSI3ImW9sN0mKTUOw7sMpjOgRKaf6hFwtorTO1yYMGuyfjzZvcDENwqjgsWwBGjGjfR5PQxbD2-WgW8cW1kGX9IGlmD7-boXIJatoC7YccJA2lj5xq3nsXrdYWk5QEYQqFQAO_IO9F6bduwICYbKYzl1zEVpkh9Qeha7vOJD279HeW6hpH5YOn1GJ30tr12cAVX0Q2P152bZ1jr779-zN9oimbaOXkVqbZMCbN0s7r3KI1VBDynjaj3rHg5rQYBS2yXeRUb1IlunzvQFxlQf3UljhcyQkqCFqZAtn2TT81rb3P0UGEAHJYuOykVF1y5tuaSaVix9rSILWi2_x8KNKT45vf8SGFlseqtk_wDyln5bMEL6B3reireUqlLok4t1M9jzuFko_PuD2U_ClTsaRUqN]--></g></svg>