<?xml version="1.0" encoding="us-ascii" standalone="no"?><svg xmlns="http://www.w3.org/2000/svg" xmlns:xlink="http://www.w3.org/1999/xlink" contentStyleType="text/css" height="605px" preserveAspectRatio="none" style="width:2126px;height:605px;background:#FFFFFF;" version="1.1" viewBox="0 0 2126 605" width="2126px" zoomAndPan="magnify"><defs/><g><!--cluster RequirementsSpecification--><g id="cluster_RequirementsSpecification"><path d="M1540.5,6.0137 L1731.5,6.0137 A3.75,3.75 0 0 1 1734,8.5137 L1741,30.6348 L2116.5,30.6348 A2.5,2.5 0 0 1 2119,33.1348 L2119,452.5137 A2.5,2.5 0 0 1 2116.5,455.0137 L1540.5,455.0137 A2.5,2.5 0 0 1 1538,452.5137 L1538,8.5137 A2.5,2.5 0 0 1 1540.5,6.0137 " fill="none" style="stroke:#000000;stroke-width:1.5;"/><line style="stroke:#000000;stroke-width:1.5;" x1="1538" x2="1741" y1="30.6348" y2="30.6348"/><text fill="#000000" font-family="sans-serif" font-size="14" font-weight="bold" lengthAdjust="spacing" textLength="190" x="1542" y="23.1211">RequirementsSpecification</text></g><!--cluster InterviewAggregate--><g id="cluster_InterviewAggregate"><path d="M8.5,169.0137 L148.5,169.0137 A3.75,3.75 0 0 1 151,171.5137 L158,193.6348 L1000.5,193.6348 A2.5,2.5 0 0 1 1003,196.1348 L1003,595.5137 A2.5,2.5 0 0 1 1000.5,598.0137 L8.5,598.0137 A2.5,2.5 0 0 1 6,595.5137 L6,171.5137 A2.5,2.5 0 0 1 8.5,169.0137 " fill="none" style="stroke:#000000;stroke-width:1.5;"/><line style="stroke:#000000;stroke-width:1.5;" x1="6" x2="158" y1="193.6348" y2="193.6348"/><text fill="#000000" font-family="sans-serif" font-size="14" font-weight="bold" lengthAdjust="spacing" textLength="139" x="10" y="186.1211">InterviewAggregate</text></g><!--cluster PluginAggregate--><g id="cluster_PluginAggregate"><path d="M1029.5,338.0137 L1147.5,338.0137 A3.75,3.75 0 0 1 1150,340.5137 L1157,362.6348 L1511.5,362.6348 A2.5,2.5 0 0 1 1514,365.1348 L1514,595.5137 A2.5,2.5 0 0 1 1511.5,598.0137 L1029.5,598.0137 A2.5,2.5 0 0 1 1027,595.5137 L1027,340.5137 A2.5,2.5 0 0 1 1029.5,338.0137 " fill="none" style="stroke:#000000;stroke-width:1.5;"/><line style="stroke:#000000;stroke-width:1.5;" x1="1027" x2="1157" y1="362.6348" y2="362.6348"/><text fill="#000000" font-family="sans-serif" font-size="14" font-weight="bold" lengthAdjust="spacing" textLength="117" x="1031" y="355.1211">PluginAggregate</text></g><!--class RequirementSpecification--><g id="elem_RequirementSpecification"><rect codeLine="5" fill="#F1F1F1" height="66.6211" id="RequirementSpecification" rx="2.5" ry="2.5" style="stroke:#181818;stroke-width:0.5;" width="193" x="1589.5" y="206.0137"/><ellipse cx="1604.5" cy="222.0137" fill="#ADD1B2" rx="11" ry="11" style="stroke:#181818;stroke-width:1.0;"/><path d="M1603.3594,222.8105 L1603.3594,225.3105 L1607.6875,225.3105 L1607.6875,224.3887 Q1607.6875,223.7793 1607.9219,223.5137 Q1608.1719,223.248 1608.5469,223.248 Q1608.9219,223.248 1609.1563,223.5137 Q1609.3906,223.7793 1609.3906,224.3887 L1609.3906,227.0137 L1601.3906,227.0137 Q1600.7656,227.0137 1600.5,226.7793 Q1600.25,226.5449 1600.25,226.1543 Q1600.25,225.7793 1600.5156,225.5449 Q1600.7813,225.3105 1601.3906,225.3105 L1601.6563,225.3105 L1601.6563,218.6543 L1601.3906,218.6543 Q1600.7656,218.6543 1600.5,218.4199 Q1600.25,218.1855 1600.25,217.7949 Q1600.25,217.4199 1600.5,217.1855 Q1600.7656,216.9512 1601.3906,216.9512 L1609.0156,216.9512 L1609.0156,219.5449 Q1609.0156,220.1543 1608.7813,220.4199 Q1608.5625,220.6699 1608.1719,220.6699 Q1607.7969,220.6699 1607.5625,220.4199 Q1607.3281,220.1543 1607.3281,219.5449 L1607.3281,218.6543 L1603.3594,218.6543 L1603.3594,221.1074 L1604.8438,221.1074 Q1604.8438,220.4512 1604.9688,220.2637 Q1605.2344,219.8574 1605.7031,219.8574 Q1606.0781,219.8574 1606.3125,220.123 Q1606.5469,220.373 1606.5469,220.9824 L1606.5469,222.9512 Q1606.5469,223.498 1606.4219,223.6855 Q1606.1563,224.0762 1605.7031,224.0762 Q1605.2344,224.0762 1604.9688,223.6699 Q1604.8438,223.4824 1604.8438,222.8105 L1603.3594,222.8105 Z " fill="#000000"/><text fill="#000000" font-family="sans-serif" font-size="14" lengthAdjust="spacing" textLength="161" x="1618.5" y="227.8105">RequirementSpecification</text><line style="stroke:#181818;stroke-width:0.5;" x1="1590.5" x2="1781.5" y1="238.0137" y2="238.0137"/><text fill="#000000" font-family="sans-serif" font-size="14" lengthAdjust="spacing" textLength="79" x="1595.5" y="257.1211">&#171;root entity&#187;</text><line style="stroke:#181818;stroke-width:0.5;" x1="1590.5" x2="1781.5" y1="264.6348" y2="264.6348"/></g><!--class RequirementSpecificationDescription--><g id="elem_RequirementSpecificationDescription"><rect codeLine="9" fill="#F1F1F1" height="60.582" id="RequirementSpecificationDescription" rx="2.5" ry="2.5" style="stroke:#181818;stroke-width:0.5;" width="264" x="1554" y="378.0137"/><ellipse cx="1569" cy="400.3047" fill="#F04800" rx="11" ry="11" style="stroke:#181818;stroke-width:1.0;"/><path d="M1569.5938,403.5703 L1572.0625,397.6953 L1571.6719,397.6953 Q1571.0625,397.6953 1570.7969,397.4609 Q1570.5313,397.2266 1570.5313,396.8359 Q1570.5313,396.4609 1570.7969,396.2266 Q1571.0625,395.9922 1571.6719,395.9922 L1573.9531,395.9922 Q1574.5625,395.9922 1574.8281,396.2266 Q1575.0938,396.4609 1575.0938,396.8359 Q1575.0938,397.3047 1574.6875,397.5703 Q1574.5,397.6953 1573.9063,397.6953 L1570.4219,406.0547 L1568.7813,406.0547 L1565.2969,397.6953 Q1564.7031,397.6953 1564.5156,397.5703 Q1564.1094,397.3047 1564.1094,396.8359 Q1564.1094,396.4609 1564.375,396.2266 Q1564.6406,395.9922 1565.25,395.9922 L1567.5469,395.9922 Q1568.1563,395.9922 1568.4063,396.2266 Q1568.6719,396.4609 1568.6719,396.8359 Q1568.6719,397.2266 1568.4063,397.4609 Q1568.1563,397.6953 1567.5469,397.6953 L1567.1406,397.6953 L1569.5938,403.5703 Z " fill="#000000"/><text fill="#000000" font-family="sans-serif" font-size="12" font-style="italic" lengthAdjust="spacing" textLength="83" x="1657.5" y="395.9629">&#171;value Object&#187;</text><text fill="#000000" font-family="sans-serif" font-size="14" lengthAdjust="spacing" textLength="232" x="1583" y="414.082">RequirementSpecificationDescription</text><line style="stroke:#181818;stroke-width:0.5;" x1="1555" x2="1817" y1="422.5957" y2="422.5957"/><line style="stroke:#181818;stroke-width:0.5;" x1="1555" x2="1817" y1="430.5957" y2="430.5957"/></g><!--class RequirementSpecificationAnswer--><g id="elem_RequirementSpecificationAnswer"><rect codeLine="10" fill="#F1F1F1" height="60.582" id="RequirementSpecificationAnswer" rx="2.5" ry="2.5" style="stroke:#181818;stroke-width:0.5;" width="239" x="1566.5" y="43.0137"/><ellipse cx="1581.5" cy="65.3047" fill="#F04800" rx="11" ry="11" style="stroke:#181818;stroke-width:1.0;"/><path d="M1582.0938,68.5703 L1584.5625,62.6953 L1584.1719,62.6953 Q1583.5625,62.6953 1583.2969,62.4609 Q1583.0313,62.2266 1583.0313,61.8359 Q1583.0313,61.4609 1583.2969,61.2266 Q1583.5625,60.9922 1584.1719,60.9922 L1586.4531,60.9922 Q1587.0625,60.9922 1587.3281,61.2266 Q1587.5938,61.4609 1587.5938,61.8359 Q1587.5938,62.3047 1587.1875,62.5703 Q1587,62.6953 1586.4063,62.6953 L1582.9219,71.0547 L1581.2813,71.0547 L1577.7969,62.6953 Q1577.2031,62.6953 1577.0156,62.5703 Q1576.6094,62.3047 1576.6094,61.8359 Q1576.6094,61.4609 1576.875,61.2266 Q1577.1406,60.9922 1577.75,60.9922 L1580.0469,60.9922 Q1580.6563,60.9922 1580.9063,61.2266 Q1581.1719,61.4609 1581.1719,61.8359 Q1581.1719,62.2266 1580.9063,62.4609 Q1580.6563,62.6953 1580.0469,62.6953 L1579.6406,62.6953 L1582.0938,68.5703 Z " fill="#000000"/><text fill="#000000" font-family="sans-serif" font-size="12" font-style="italic" lengthAdjust="spacing" textLength="83" x="1657.5" y="60.9629">&#171;value Object&#187;</text><text fill="#000000" font-family="sans-serif" font-size="14" lengthAdjust="spacing" textLength="207" x="1595.5" y="79.082">RequirementSpecificationAnswer</text><line style="stroke:#181818;stroke-width:0.5;" x1="1567.5" x2="1804.5" y1="87.5957" y2="87.5957"/><line style="stroke:#181818;stroke-width:0.5;" x1="1567.5" x2="1804.5" y1="95.5957" y2="95.5957"/></g><!--class RequirementSpecificationRefCode--><g id="elem_RequirementSpecificationRefCode"><rect codeLine="11" fill="#F1F1F1" height="60.582" id="RequirementSpecificationRefCode" rx="2.5" ry="2.5" style="stroke:#181818;stroke-width:0.5;" width="249" x="1853.5" y="378.0137"/><ellipse cx="1868.5" cy="400.3047" fill="#F09000" rx="11" ry="11" style="stroke:#181818;stroke-width:1.0;"/><path d="M1869.0938,403.5703 L1871.5625,397.6953 L1871.1719,397.6953 Q1870.5625,397.6953 1870.2969,397.4609 Q1870.0313,397.2266 1870.0313,396.8359 Q1870.0313,396.4609 1870.2969,396.2266 Q1870.5625,395.9922 1871.1719,395.9922 L1873.4531,395.9922 Q1874.0625,395.9922 1874.3281,396.2266 Q1874.5938,396.4609 1874.5938,396.8359 Q1874.5938,397.3047 1874.1875,397.5703 Q1874,397.6953 1873.4063,397.6953 L1869.9219,406.0547 L1868.2813,406.0547 L1864.7969,397.6953 Q1864.2031,397.6953 1864.0156,397.5703 Q1863.6094,397.3047 1863.6094,396.8359 Q1863.6094,396.4609 1863.875,396.2266 Q1864.1406,395.9922 1864.75,395.9922 L1867.0469,395.9922 Q1867.6563,395.9922 1867.9063,396.2266 Q1868.1719,396.4609 1868.1719,396.8359 Q1868.1719,397.2266 1867.9063,397.4609 Q1867.6563,397.6953 1867.0469,397.6953 L1866.6406,397.6953 L1869.0938,403.5703 Z " fill="#000000"/><text fill="#000000" font-family="sans-serif" font-size="12" font-style="italic" lengthAdjust="spacing" textLength="134" x="1924" y="395.9629">&#171;Identifier value Object&#187;</text><text fill="#000000" font-family="sans-serif" font-size="14" lengthAdjust="spacing" textLength="217" x="1882.5" y="414.082">RequirementSpecificationRefCode</text><line style="stroke:#181818;stroke-width:0.5;" x1="1854.5" x2="2101.5" y1="422.5957" y2="422.5957"/><line style="stroke:#181818;stroke-width:0.5;" x1="1854.5" x2="2101.5" y1="430.5957" y2="430.5957"/></g><!--class InterviewModel--><g id="elem_InterviewModel"><rect codeLine="15" fill="#F1F1F1" height="66.6211" id="InterviewModel" rx="2.5" ry="2.5" style="stroke:#181818;stroke-width:0.5;" width="125" x="635.5" y="206.0137"/><ellipse cx="650.5" cy="222.0137" fill="#ADD1B2" rx="11" ry="11" style="stroke:#181818;stroke-width:1.0;"/><path d="M649.3594,222.8105 L649.3594,225.3105 L653.6875,225.3105 L653.6875,224.3887 Q653.6875,223.7793 653.9219,223.5137 Q654.1719,223.248 654.5469,223.248 Q654.9219,223.248 655.1563,223.5137 Q655.3906,223.7793 655.3906,224.3887 L655.3906,227.0137 L647.3906,227.0137 Q646.7656,227.0137 646.5,226.7793 Q646.25,226.5449 646.25,226.1543 Q646.25,225.7793 646.5156,225.5449 Q646.7813,225.3105 647.3906,225.3105 L647.6563,225.3105 L647.6563,218.6543 L647.3906,218.6543 Q646.7656,218.6543 646.5,218.4199 Q646.25,218.1855 646.25,217.7949 Q646.25,217.4199 646.5,217.1855 Q646.7656,216.9512 647.3906,216.9512 L655.0156,216.9512 L655.0156,219.5449 Q655.0156,220.1543 654.7813,220.4199 Q654.5625,220.6699 654.1719,220.6699 Q653.7969,220.6699 653.5625,220.4199 Q653.3281,220.1543 653.3281,219.5449 L653.3281,218.6543 L649.3594,218.6543 L649.3594,221.1074 L650.8438,221.1074 Q650.8438,220.4512 650.9688,220.2637 Q651.2344,219.8574 651.7031,219.8574 Q652.0781,219.8574 652.3125,220.123 Q652.5469,220.373 652.5469,220.9824 L652.5469,222.9512 Q652.5469,223.498 652.4219,223.6855 Q652.1563,224.0762 651.7031,224.0762 Q651.2344,224.0762 650.9688,223.6699 Q650.8438,223.4824 650.8438,222.8105 L649.3594,222.8105 Z " fill="#000000"/><text fill="#000000" font-family="sans-serif" font-size="14" lengthAdjust="spacing" textLength="93" x="664.5" y="227.8105">InterviewModel</text><line style="stroke:#181818;stroke-width:0.5;" x1="636.5" x2="759.5" y1="238.0137" y2="238.0137"/><text fill="#000000" font-family="sans-serif" font-size="14" lengthAdjust="spacing" textLength="79" x="641.5" y="257.1211">&#171;root entity&#187;</text><line style="stroke:#181818;stroke-width:0.5;" x1="636.5" x2="759.5" y1="264.6348" y2="264.6348"/></g><!--class InterviewModelRefCode--><g id="elem_InterviewModelRefCode"><rect codeLine="19" fill="#F1F1F1" height="60.582" id="InterviewModelRefCode" rx="2.5" ry="2.5" style="stroke:#181818;stroke-width:0.5;" width="181" x="402.5" y="378.0137"/><ellipse cx="417.5" cy="400.3047" fill="#F09000" rx="11" ry="11" style="stroke:#181818;stroke-width:1.0;"/><path d="M418.0938,403.5703 L420.5625,397.6953 L420.1719,397.6953 Q419.5625,397.6953 419.2969,397.4609 Q419.0313,397.2266 419.0313,396.8359 Q419.0313,396.4609 419.2969,396.2266 Q419.5625,395.9922 420.1719,395.9922 L422.4531,395.9922 Q423.0625,395.9922 423.3281,396.2266 Q423.5938,396.4609 423.5938,396.8359 Q423.5938,397.3047 423.1875,397.5703 Q423,397.6953 422.4063,397.6953 L418.9219,406.0547 L417.2813,406.0547 L413.7969,397.6953 Q413.2031,397.6953 413.0156,397.5703 Q412.6094,397.3047 412.6094,396.8359 Q412.6094,396.4609 412.875,396.2266 Q413.1406,395.9922 413.75,395.9922 L416.0469,395.9922 Q416.6563,395.9922 416.9063,396.2266 Q417.1719,396.4609 417.1719,396.8359 Q417.1719,397.2266 416.9063,397.4609 Q416.6563,397.6953 416.0469,397.6953 L415.6406,397.6953 L418.0938,403.5703 Z " fill="#000000"/><text fill="#000000" font-family="sans-serif" font-size="12" font-style="italic" lengthAdjust="spacing" textLength="134" x="439" y="395.9629">&#171;Identifier value Object&#187;</text><text fill="#000000" font-family="sans-serif" font-size="14" lengthAdjust="spacing" textLength="149" x="431.5" y="414.082">InterviewModelRefCode</text><line style="stroke:#181818;stroke-width:0.5;" x1="403.5" x2="582.5" y1="422.5957" y2="422.5957"/><line style="stroke:#181818;stroke-width:0.5;" x1="403.5" x2="582.5" y1="430.5957" y2="430.5957"/></g><!--class InterviewTimeFrame--><g id="elem_InterviewTimeFrame"><rect codeLine="20" fill="#F1F1F1" height="60.582" id="InterviewTimeFrame" rx="2.5" ry="2.5" style="stroke:#181818;stroke-width:0.5;" width="159" x="618.5" y="378.0137"/><ellipse cx="633.5" cy="400.3047" fill="#F04800" rx="11" ry="11" style="stroke:#181818;stroke-width:1.0;"/><path d="M634.0938,403.5703 L636.5625,397.6953 L636.1719,397.6953 Q635.5625,397.6953 635.2969,397.4609 Q635.0313,397.2266 635.0313,396.8359 Q635.0313,396.4609 635.2969,396.2266 Q635.5625,395.9922 636.1719,395.9922 L638.4531,395.9922 Q639.0625,395.9922 639.3281,396.2266 Q639.5938,396.4609 639.5938,396.8359 Q639.5938,397.3047 639.1875,397.5703 Q639,397.6953 638.4063,397.6953 L634.9219,406.0547 L633.2813,406.0547 L629.7969,397.6953 Q629.2031,397.6953 629.0156,397.5703 Q628.6094,397.3047 628.6094,396.8359 Q628.6094,396.4609 628.875,396.2266 Q629.1406,395.9922 629.75,395.9922 L632.0469,395.9922 Q632.6563,395.9922 632.9063,396.2266 Q633.1719,396.4609 633.1719,396.8359 Q633.1719,397.2266 632.9063,397.4609 Q632.6563,397.6953 632.0469,397.6953 L631.6406,397.6953 L634.0938,403.5703 Z " fill="#000000"/><text fill="#000000" font-family="sans-serif" font-size="12" font-style="italic" lengthAdjust="spacing" textLength="83" x="669.5" y="395.9629">&#171;value Object&#187;</text><text fill="#000000" font-family="sans-serif" font-size="14" lengthAdjust="spacing" textLength="127" x="647.5" y="414.082">InterviewTimeFrame</text><line style="stroke:#181818;stroke-width:0.5;" x1="619.5" x2="776.5" y1="422.5957" y2="422.5957"/><line style="stroke:#181818;stroke-width:0.5;" x1="619.5" x2="776.5" y1="430.5957" y2="430.5957"/></g><!--class InterviewSpecifications--><g id="elem_InterviewSpecifications"><rect codeLine="21" fill="#F1F1F1" height="60.582" id="InterviewSpecifications" rx="2.5" ry="2.5" style="stroke:#181818;stroke-width:0.5;" width="174" x="813" y="378.0137"/><ellipse cx="828" cy="400.3047" fill="#F04800" rx="11" ry="11" style="stroke:#181818;stroke-width:1.0;"/><path d="M828.5938,403.5703 L831.0625,397.6953 L830.6719,397.6953 Q830.0625,397.6953 829.7969,397.4609 Q829.5313,397.2266 829.5313,396.8359 Q829.5313,396.4609 829.7969,396.2266 Q830.0625,395.9922 830.6719,395.9922 L832.9531,395.9922 Q833.5625,395.9922 833.8281,396.2266 Q834.0938,396.4609 834.0938,396.8359 Q834.0938,397.3047 833.6875,397.5703 Q833.5,397.6953 832.9063,397.6953 L829.4219,406.0547 L827.7813,406.0547 L824.2969,397.6953 Q823.7031,397.6953 823.5156,397.5703 Q823.1094,397.3047 823.1094,396.8359 Q823.1094,396.4609 823.375,396.2266 Q823.6406,395.9922 824.25,395.9922 L826.5469,395.9922 Q827.1563,395.9922 827.4063,396.2266 Q827.6719,396.4609 827.6719,396.8359 Q827.6719,397.2266 827.4063,397.4609 Q827.1563,397.6953 826.5469,397.6953 L826.1406,397.6953 L828.5938,403.5703 Z " fill="#000000"/><text fill="#000000" font-family="sans-serif" font-size="12" font-style="italic" lengthAdjust="spacing" textLength="83" x="871.5" y="395.9629">&#171;value Object&#187;</text><text fill="#000000" font-family="sans-serif" font-size="14" lengthAdjust="spacing" textLength="142" x="842" y="414.082">InterviewSpecifications</text><line style="stroke:#181818;stroke-width:0.5;" x1="814" x2="986" y1="422.5957" y2="422.5957"/><line style="stroke:#181818;stroke-width:0.5;" x1="814" x2="986" y1="430.5957" y2="430.5957"/></g><!--class InterviewQuestion--><g id="elem_InterviewQuestion"><rect codeLine="22" fill="#F1F1F1" height="60.582" id="InterviewQuestion" rx="2.5" ry="2.5" style="stroke:#181818;stroke-width:0.5;" width="144" x="22" y="378.0137"/><ellipse cx="37" cy="400.3047" fill="#F04800" rx="11" ry="11" style="stroke:#181818;stroke-width:1.0;"/><path d="M37.5938,403.5703 L40.0625,397.6953 L39.6719,397.6953 Q39.0625,397.6953 38.7969,397.4609 Q38.5313,397.2266 38.5313,396.8359 Q38.5313,396.4609 38.7969,396.2266 Q39.0625,395.9922 39.6719,395.9922 L41.9531,395.9922 Q42.5625,395.9922 42.8281,396.2266 Q43.0938,396.4609 43.0938,396.8359 Q43.0938,397.3047 42.6875,397.5703 Q42.5,397.6953 41.9063,397.6953 L38.4219,406.0547 L36.7813,406.0547 L33.2969,397.6953 Q32.7031,397.6953 32.5156,397.5703 Q32.1094,397.3047 32.1094,396.8359 Q32.1094,396.4609 32.375,396.2266 Q32.6406,395.9922 33.25,395.9922 L35.5469,395.9922 Q36.1563,395.9922 36.4063,396.2266 Q36.6719,396.4609 36.6719,396.8359 Q36.6719,397.2266 36.4063,397.4609 Q36.1563,397.6953 35.5469,397.6953 L35.1406,397.6953 L37.5938,403.5703 Z " fill="#000000"/><text fill="#000000" font-family="sans-serif" font-size="12" font-style="italic" lengthAdjust="spacing" textLength="83" x="65.5" y="395.9629">&#171;value Object&#187;</text><text fill="#000000" font-family="sans-serif" font-size="14" lengthAdjust="spacing" textLength="112" x="51" y="414.082">InterviewQuestion</text><line style="stroke:#181818;stroke-width:0.5;" x1="23" x2="165" y1="422.5957" y2="422.5957"/><line style="stroke:#181818;stroke-width:0.5;" x1="23" x2="165" y1="430.5957" y2="430.5957"/></g><!--class InterviewAnswer--><g id="elem_InterviewAnswer"><rect codeLine="23" fill="#F1F1F1" height="60.582" id="InterviewAnswer" rx="2.5" ry="2.5" style="stroke:#181818;stroke-width:0.5;" width="133" x="234.5" y="378.0137"/><ellipse cx="249.5" cy="400.3047" fill="#F04800" rx="11" ry="11" style="stroke:#181818;stroke-width:1.0;"/><path d="M250.0938,403.5703 L252.5625,397.6953 L252.1719,397.6953 Q251.5625,397.6953 251.2969,397.4609 Q251.0313,397.2266 251.0313,396.8359 Q251.0313,396.4609 251.2969,396.2266 Q251.5625,395.9922 252.1719,395.9922 L254.4531,395.9922 Q255.0625,395.9922 255.3281,396.2266 Q255.5938,396.4609 255.5938,396.8359 Q255.5938,397.3047 255.1875,397.5703 Q255,397.6953 254.4063,397.6953 L250.9219,406.0547 L249.2813,406.0547 L245.7969,397.6953 Q245.2031,397.6953 245.0156,397.5703 Q244.6094,397.3047 244.6094,396.8359 Q244.6094,396.4609 244.875,396.2266 Q245.1406,395.9922 245.75,395.9922 L248.0469,395.9922 Q248.6563,395.9922 248.9063,396.2266 Q249.1719,396.4609 249.1719,396.8359 Q249.1719,397.2266 248.9063,397.4609 Q248.6563,397.6953 248.0469,397.6953 L247.6406,397.6953 L250.0938,403.5703 Z " fill="#000000"/><text fill="#000000" font-family="sans-serif" font-size="12" font-style="italic" lengthAdjust="spacing" textLength="83" x="272.5" y="395.9629">&#171;value Object&#187;</text><text fill="#000000" font-family="sans-serif" font-size="14" lengthAdjust="spacing" textLength="101" x="263.5" y="414.082">InterviewAnswer</text><line style="stroke:#181818;stroke-width:0.5;" x1="235.5" x2="366.5" y1="422.5957" y2="422.5957"/><line style="stroke:#181818;stroke-width:0.5;" x1="235.5" x2="366.5" y1="430.5957" y2="430.5957"/></g><!--class AnswerRatings--><g id="elem_AnswerRatings"><rect codeLine="24" fill="#F1F1F1" height="60.582" id="AnswerRatings" rx="2.5" ry="2.5" style="stroke:#181818;stroke-width:0.5;" width="126" x="31" y="521.0137"/><ellipse cx="46" cy="543.3047" fill="#F04800" rx="11" ry="11" style="stroke:#181818;stroke-width:1.0;"/><path d="M46.5938,546.5703 L49.0625,540.6953 L48.6719,540.6953 Q48.0625,540.6953 47.7969,540.4609 Q47.5313,540.2266 47.5313,539.8359 Q47.5313,539.4609 47.7969,539.2266 Q48.0625,538.9922 48.6719,538.9922 L50.9531,538.9922 Q51.5625,538.9922 51.8281,539.2266 Q52.0938,539.4609 52.0938,539.8359 Q52.0938,540.3047 51.6875,540.5703 Q51.5,540.6953 50.9063,540.6953 L47.4219,549.0547 L45.7813,549.0547 L42.2969,540.6953 Q41.7031,540.6953 41.5156,540.5703 Q41.1094,540.3047 41.1094,539.8359 Q41.1094,539.4609 41.375,539.2266 Q41.6406,538.9922 42.25,538.9922 L44.5469,538.9922 Q45.1563,538.9922 45.4063,539.2266 Q45.6719,539.4609 45.6719,539.8359 Q45.6719,540.2266 45.4063,540.4609 Q45.1563,540.6953 44.5469,540.6953 L44.1406,540.6953 L46.5938,546.5703 Z " fill="#000000"/><text fill="#000000" font-family="sans-serif" font-size="12" font-style="italic" lengthAdjust="spacing" textLength="83" x="65.5" y="538.9629">&#171;value Object&#187;</text><text fill="#000000" font-family="sans-serif" font-size="14" lengthAdjust="spacing" textLength="94" x="60" y="557.082">AnswerRatings</text><line style="stroke:#181818;stroke-width:0.5;" x1="32" x2="156" y1="565.5957" y2="565.5957"/><line style="stroke:#181818;stroke-width:0.5;" x1="32" x2="156" y1="573.5957" y2="573.5957"/></g><!--class RegisteredPlugin--><g id="elem_RegisteredPlugin"><rect codeLine="29" fill="#F1F1F1" height="66.6211" id="RegisteredPlugin" rx="2.5" ry="2.5" style="stroke:#181818;stroke-width:0.5;" width="140" x="1226" y="375.0137"/><ellipse cx="1241" cy="391.0137" fill="#ADD1B2" rx="11" ry="11" style="stroke:#181818;stroke-width:1.0;"/><path d="M1239.8594,391.8105 L1239.8594,394.3105 L1244.1875,394.3105 L1244.1875,393.3887 Q1244.1875,392.7793 1244.4219,392.5137 Q1244.6719,392.248 1245.0469,392.248 Q1245.4219,392.248 1245.6563,392.5137 Q1245.8906,392.7793 1245.8906,393.3887 L1245.8906,396.0137 L1237.8906,396.0137 Q1237.2656,396.0137 1237,395.7793 Q1236.75,395.5449 1236.75,395.1543 Q1236.75,394.7793 1237.0156,394.5449 Q1237.2813,394.3105 1237.8906,394.3105 L1238.1563,394.3105 L1238.1563,387.6543 L1237.8906,387.6543 Q1237.2656,387.6543 1237,387.4199 Q1236.75,387.1855 1236.75,386.7949 Q1236.75,386.4199 1237,386.1855 Q1237.2656,385.9512 1237.8906,385.9512 L1245.5156,385.9512 L1245.5156,388.5449 Q1245.5156,389.1543 1245.2813,389.4199 Q1245.0625,389.6699 1244.6719,389.6699 Q1244.2969,389.6699 1244.0625,389.4199 Q1243.8281,389.1543 1243.8281,388.5449 L1243.8281,387.6543 L1239.8594,387.6543 L1239.8594,390.1074 L1241.3438,390.1074 Q1241.3438,389.4512 1241.4688,389.2637 Q1241.7344,388.8574 1242.2031,388.8574 Q1242.5781,388.8574 1242.8125,389.123 Q1243.0469,389.373 1243.0469,389.9824 L1243.0469,391.9512 Q1243.0469,392.498 1242.9219,392.6855 Q1242.6563,393.0762 1242.2031,393.0762 Q1241.7344,393.0762 1241.4688,392.6699 Q1241.3438,392.4824 1241.3438,391.8105 L1239.8594,391.8105 Z " fill="#000000"/><text fill="#000000" font-family="sans-serif" font-size="14" lengthAdjust="spacing" textLength="108" x="1255" y="396.8105">RegisteredPlugin</text><line style="stroke:#181818;stroke-width:0.5;" x1="1227" x2="1365" y1="407.0137" y2="407.0137"/><text fill="#000000" font-family="sans-serif" font-size="14" lengthAdjust="spacing" textLength="79" x="1232" y="426.1211">&#171;root entity&#187;</text><line style="stroke:#181818;stroke-width:0.5;" x1="1227" x2="1365" y1="433.6348" y2="433.6348"/></g><!--class PluginFileName--><g id="elem_PluginFileName"><rect codeLine="33" fill="#F1F1F1" height="60.582" id="PluginFileName" rx="2.5" ry="2.5" style="stroke:#181818;stroke-width:0.5;" width="162" x="1043" y="521.0137"/><ellipse cx="1058" cy="543.3047" fill="#F09000" rx="11" ry="11" style="stroke:#181818;stroke-width:1.0;"/><path d="M1058.5938,546.5703 L1061.0625,540.6953 L1060.6719,540.6953 Q1060.0625,540.6953 1059.7969,540.4609 Q1059.5313,540.2266 1059.5313,539.8359 Q1059.5313,539.4609 1059.7969,539.2266 Q1060.0625,538.9922 1060.6719,538.9922 L1062.9531,538.9922 Q1063.5625,538.9922 1063.8281,539.2266 Q1064.0938,539.4609 1064.0938,539.8359 Q1064.0938,540.3047 1063.6875,540.5703 Q1063.5,540.6953 1062.9063,540.6953 L1059.4219,549.0547 L1057.7813,549.0547 L1054.2969,540.6953 Q1053.7031,540.6953 1053.5156,540.5703 Q1053.1094,540.3047 1053.1094,539.8359 Q1053.1094,539.4609 1053.375,539.2266 Q1053.6406,538.9922 1054.25,538.9922 L1056.5469,538.9922 Q1057.1563,538.9922 1057.4063,539.2266 Q1057.6719,539.4609 1057.6719,539.8359 Q1057.6719,540.2266 1057.4063,540.4609 Q1057.1563,540.6953 1056.5469,540.6953 L1056.1406,540.6953 L1058.5938,546.5703 Z " fill="#000000"/><text fill="#000000" font-family="sans-serif" font-size="12" font-style="italic" lengthAdjust="spacing" textLength="134" x="1070" y="538.9629">&#171;Identifier value Object&#187;</text><text fill="#000000" font-family="sans-serif" font-size="14" lengthAdjust="spacing" textLength="98" x="1088" y="557.082">PluginFileName</text><line style="stroke:#181818;stroke-width:0.5;" x1="1044" x2="1204" y1="565.5957" y2="565.5957"/><line style="stroke:#181818;stroke-width:0.5;" x1="1044" x2="1204" y1="573.5957" y2="573.5957"/></g><!--class PluginName--><g id="elem_PluginName"><rect codeLine="34" fill="#F1F1F1" height="60.582" id="PluginName" rx="2.5" ry="2.5" style="stroke:#181818;stroke-width:0.5;" width="111" x="1240.5" y="521.0137"/><ellipse cx="1255.5" cy="543.3047" fill="#F04800" rx="11" ry="11" style="stroke:#181818;stroke-width:1.0;"/><path d="M1256.0938,546.5703 L1258.5625,540.6953 L1258.1719,540.6953 Q1257.5625,540.6953 1257.2969,540.4609 Q1257.0313,540.2266 1257.0313,539.8359 Q1257.0313,539.4609 1257.2969,539.2266 Q1257.5625,538.9922 1258.1719,538.9922 L1260.4531,538.9922 Q1261.0625,538.9922 1261.3281,539.2266 Q1261.5938,539.4609 1261.5938,539.8359 Q1261.5938,540.3047 1261.1875,540.5703 Q1261,540.6953 1260.4063,540.6953 L1256.9219,549.0547 L1255.2813,549.0547 L1251.7969,540.6953 Q1251.2031,540.6953 1251.0156,540.5703 Q1250.6094,540.3047 1250.6094,539.8359 Q1250.6094,539.4609 1250.875,539.2266 Q1251.1406,538.9922 1251.75,538.9922 L1254.0469,538.9922 Q1254.6563,538.9922 1254.9063,539.2266 Q1255.1719,539.4609 1255.1719,539.8359 Q1255.1719,540.2266 1254.9063,540.4609 Q1254.6563,540.6953 1254.0469,540.6953 L1253.6406,540.6953 L1256.0938,546.5703 Z " fill="#000000"/><text fill="#000000" font-family="sans-serif" font-size="12" font-style="italic" lengthAdjust="spacing" textLength="83" x="1267.5" y="538.9629">&#171;value Object&#187;</text><text fill="#000000" font-family="sans-serif" font-size="14" lengthAdjust="spacing" textLength="75" x="1271.5" y="557.082">PluginName</text><line style="stroke:#181818;stroke-width:0.5;" x1="1241.5" x2="1350.5" y1="565.5957" y2="565.5957"/><line style="stroke:#181818;stroke-width:0.5;" x1="1241.5" x2="1350.5" y1="573.5957" y2="573.5957"/></g><!--class PluginType--><g id="elem_PluginType"><rect codeLine="35" fill="#F1F1F1" height="60.582" id="PluginType" rx="2.5" ry="2.5" style="stroke:#181818;stroke-width:0.5;" width="111" x="1386.5" y="521.0137"/><ellipse cx="1401.5" cy="543.3047" fill="#F04800" rx="11" ry="11" style="stroke:#181818;stroke-width:1.0;"/><path d="M1402.0938,546.5703 L1404.5625,540.6953 L1404.1719,540.6953 Q1403.5625,540.6953 1403.2969,540.4609 Q1403.0313,540.2266 1403.0313,539.8359 Q1403.0313,539.4609 1403.2969,539.2266 Q1403.5625,538.9922 1404.1719,538.9922 L1406.4531,538.9922 Q1407.0625,538.9922 1407.3281,539.2266 Q1407.5938,539.4609 1407.5938,539.8359 Q1407.5938,540.3047 1407.1875,540.5703 Q1407,540.6953 1406.4063,540.6953 L1402.9219,549.0547 L1401.2813,549.0547 L1397.7969,540.6953 Q1397.2031,540.6953 1397.0156,540.5703 Q1396.6094,540.3047 1396.6094,539.8359 Q1396.6094,539.4609 1396.875,539.2266 Q1397.1406,538.9922 1397.75,538.9922 L1400.0469,538.9922 Q1400.6563,538.9922 1400.9063,539.2266 Q1401.1719,539.4609 1401.1719,539.8359 Q1401.1719,540.2266 1400.9063,540.4609 Q1400.6563,540.6953 1400.0469,540.6953 L1399.6406,540.6953 L1402.0938,546.5703 Z " fill="#000000"/><text fill="#000000" font-family="sans-serif" font-size="12" font-style="italic" lengthAdjust="spacing" textLength="83" x="1413.5" y="538.9629">&#171;value Object&#187;</text><text fill="#000000" font-family="sans-serif" font-size="14" lengthAdjust="spacing" textLength="71" x="1419.5" y="557.082">PluginType</text><line style="stroke:#181818;stroke-width:0.5;" x1="1387.5" x2="1496.5" y1="565.5957" y2="565.5957"/><line style="stroke:#181818;stroke-width:0.5;" x1="1387.5" x2="1496.5" y1="573.5957" y2="573.5957"/></g><!--link InterviewModel to InterviewSpecifications--><g id="link_InterviewModel_InterviewSpecifications"><path codeLine="38" d="M737.43,273.1137 C774.17,303.4837 828.49,348.3937 864.06,377.8037 " fill="none" id="InterviewModel-InterviewSpecifications" style="stroke:#181818;stroke-width:1.0;"/><polygon fill="#000000" points="801.8536,315.8451,796.755,307.8167,793.0098,312.3468,801.8536,315.8451" style="stroke:#000000;stroke-width:1.0;"/><text fill="#000000" font-family="sans-serif" font-size="13" lengthAdjust="spacing" textLength="49" x="807" y="318.042">contains</text><text fill="#000000" font-family="sans-serif" font-size="13" lengthAdjust="spacing" textLength="7" x="736.83" y="294.7007">1</text><text fill="#000000" font-family="sans-serif" font-size="13" lengthAdjust="spacing" textLength="7" x="848.9255" y="366.818">1</text></g><!--link InterviewModel to InterviewTimeFrame--><g id="link_InterviewModel_InterviewTimeFrame"><path codeLine="39" d="M698,273.1137 C698,303.4837 698,348.3937 698,377.8037 " fill="none" id="InterviewModel-InterviewTimeFrame" style="stroke:#181818;stroke-width:1.0;"/><polygon fill="#000000" points="703,317.6592,705.9389,308.6141,700.0611,308.6141,703,317.6592" style="stroke:#000000;stroke-width:1.0;"/><text fill="#000000" font-family="sans-serif" font-size="13" lengthAdjust="spacing" textLength="49" x="712" y="318.042">contains</text><text fill="#000000" font-family="sans-serif" font-size="13" lengthAdjust="spacing" textLength="7" x="690.3766" y="294.7007">1</text><text fill="#000000" font-family="sans-serif" font-size="13" lengthAdjust="spacing" textLength="7" x="690.2781" y="366.818">1</text></g><!--link InterviewModel to InterviewQuestion--><g id="link_InterviewModel_InterviewQuestion"><path codeLine="40" d="M635.2,244.6237 C541.33,252.4337 360.16,273.9737 217,330.0137 C186.68,341.8837 155.69,361.4637 132.39,377.9837 " fill="none" id="InterviewModel-InterviewQuestion" style="stroke:#181818;stroke-width:1.0;"/><polygon fill="#000000" points="302.8329,311.3774,293.3367,310.8555,294.8435,316.5369,302.8329,311.3774" style="stroke:#000000;stroke-width:1.0;"/><text fill="#000000" font-family="sans-serif" font-size="13" lengthAdjust="spacing" textLength="56" x="307" y="318.042">describes</text><text fill="#000000" font-family="sans-serif" font-size="13" lengthAdjust="spacing" textLength="7" x="620.5341" y="241.2988">1</text><text fill="#000000" font-family="sans-serif" font-size="13" lengthAdjust="spacing" textLength="5" x="135.2409" y="366.5517">*</text></g><!--link InterviewModel to InterviewModelRefCode--><g id="link_InterviewModel_InterviewModelRefCode"><path codeLine="41" d="M657.99,273.1137 C620.7,303.4837 565.57,348.3937 529.47,377.8037 " fill="none" id="InterviewModel-InterviewModelRefCode" style="stroke:#181818;stroke-width:1.0;"/><polygon fill="#000000" points="628.8766,309.5014,620.0076,312.9353,623.7199,317.4925,628.8766,309.5014" style="stroke:#000000;stroke-width:1.0;"/><text fill="#000000" font-family="sans-serif" font-size="13" lengthAdjust="spacing" textLength="51" x="634" y="318.042">identifies</text><text fill="#000000" font-family="sans-serif" font-size="13" lengthAdjust="spacing" textLength="7" x="643.2398" y="294.7007">1</text><text fill="#000000" font-family="sans-serif" font-size="13" lengthAdjust="spacing" textLength="5" x="531.4763" y="366.818">*</text></g><!--link InterviewModel to RegisteredPlugin--><g id="link_InterviewModel_RegisteredPlugin"><path codeLine="42" d="M760.58,257.9937 C872.9,289.3537 1107.91,354.9837 1225.64,387.8637 " fill="none" id="InterviewModel-RegisteredPlugin" style="stroke:#181818;stroke-width:1.0;"/><polygon fill="#000000" points="980.1842,311.3144,988.1056,316.5778,989.6865,310.9165,980.1842,311.3144" style="stroke:#000000;stroke-width:1.0;"/><text fill="#000000" font-family="sans-serif" font-size="13" lengthAdjust="spacing" textLength="69" x="994" y="318.042">"configures"</text><text fill="#000000" font-family="sans-serif" font-size="13" lengthAdjust="spacing" textLength="7" x="768.6335" y="256.2791">1</text><text fill="#000000" font-family="sans-serif" font-size="13" lengthAdjust="spacing" textLength="7" x="1211.0232" y="381.9204">1</text></g><!--link InterviewQuestion to InterviewAnswer--><g id="link_InterviewQuestion_InterviewAnswer"><path codeLine="43" d="M166.11,408.5137 C188.28,408.5137 212.57,408.5137 234.35,408.5137 " fill="none" id="InterviewQuestion-InterviewAnswer" style="stroke:#181818;stroke-width:1.0;"/><polygon fill="#000000" points="183.25,396.1592,192.2951,399.0981,192.2951,393.2203,183.25,396.1592" style="stroke:#000000;stroke-width:1.0;"/><text fill="#000000" font-family="sans-serif" font-size="13" lengthAdjust="spacing" textLength="19" x="197.25" y="401.542">fills</text></g><!--link InterviewQuestion to AnswerRatings--><g id="link_InterviewQuestion_AnswerRatings"><path codeLine="44" d="M94,439.0737 C94,463.1337 94,496.9437 94,520.9937 " fill="none" id="InterviewQuestion-AnswerRatings" style="stroke:#181818;stroke-width:1.0;"/><polygon fill="#000000" points="99,486.6592,101.9389,477.6141,96.0611,477.6141,99,486.6592" style="stroke:#000000;stroke-width:1.0;"/><text fill="#000000" font-family="sans-serif" font-size="13" lengthAdjust="spacing" textLength="39" x="108" y="487.042">grades</text></g><!--link RequirementSpecification to RequirementSpecificationDescription--><g id="link_RequirementSpecification_RequirementSpecificationDescription"><path codeLine="46" d="M1686,273.1137 C1686,303.4837 1686,348.3937 1686,377.8037 " fill="none" id="RequirementSpecification-RequirementSpecificationDescription" style="stroke:#181818;stroke-width:1.0;"/><polygon fill="#000000" points="1691,307.6592,1688.0611,316.7043,1693.9389,316.7043,1691,307.6592" style="stroke:#000000;stroke-width:1.0;"/><text fill="#000000" font-family="sans-serif" font-size="13" lengthAdjust="spacing" textLength="66" x="1700" y="318.042">"describes"</text><text fill="#000000" font-family="sans-serif" font-size="13" lengthAdjust="spacing" textLength="7" x="1678.3766" y="294.7007">1</text><text fill="#000000" font-family="sans-serif" font-size="13" lengthAdjust="spacing" textLength="7" x="1678.2781" y="366.818">1</text></g><!--link RequirementSpecification to RequirementSpecificationRefCode--><g id="link_RequirementSpecification_RequirementSpecificationRefCode"><path codeLine="47" d="M1742.99,273.1137 C1796.1,303.4837 1874.63,348.3937 1926.05,377.8037 " fill="none" id="RequirementSpecification-RequirementSpecificationRefCode" style="stroke:#181818;stroke-width:1.0;"/><polygon fill="#000000" points="1823.6596,310.177,1830.0524,317.2185,1832.9704,312.1161,1823.6596,310.177" style="stroke:#000000;stroke-width:1.0;"/><text fill="#000000" font-family="sans-serif" font-size="13" lengthAdjust="spacing" textLength="61" x="1837" y="318.042">"identifies"</text><text fill="#000000" font-family="sans-serif" font-size="13" lengthAdjust="spacing" textLength="7" x="1745.5179" y="294.7007">1</text><text fill="#000000" font-family="sans-serif" font-size="13" lengthAdjust="spacing" textLength="7" x="1907.6134" y="366.818">1</text></g><!--link RequirementSpecificationAnswer to RequirementSpecification--><g id="link_RequirementSpecificationAnswer_RequirementSpecification"><path codeLine="48" d="M1686,104.2137 C1686,132.9237 1686,176.3037 1686,205.9437 " fill="none" id="RequirementSpecificationAnswer-RequirementSpecification" style="stroke:#181818;stroke-width:1.0;"/><polygon fill="#000000" points="1691,148.6592,1693.9389,139.6141,1688.0611,139.6141,1691,148.6592" style="stroke:#000000;stroke-width:1.0;"/><text fill="#000000" font-family="sans-serif" font-size="13" lengthAdjust="spacing" textLength="66" x="1700" y="149.042">"describes"</text><text fill="#000000" font-family="sans-serif" font-size="13" lengthAdjust="spacing" textLength="5" x="1680.5391" y="125.5349">*</text><text fill="#000000" font-family="sans-serif" font-size="13" lengthAdjust="spacing" textLength="7" x="1678.3109" y="194.7554">1</text></g><!--link RequirementSpecification to RegisteredPlugin--><g id="link_RequirementSpecification_RegisteredPlugin"><path codeLine="49" d="M1609.88,273.1137 C1539.16,303.3937 1434.72,348.1137 1366.03,377.5237 " fill="none" id="RequirementSpecification-RegisteredPlugin" style="stroke:#181818;stroke-width:1.0;"/><polygon fill="#000000" points="1546.5964,310.6911,1537.1247,311.5497,1539.4382,316.9531,1546.5964,310.6911" style="stroke:#000000;stroke-width:1.0;"/><text fill="#000000" font-family="sans-serif" font-size="13" lengthAdjust="spacing" textLength="69" x="1551" y="318.042">"configures"</text><text fill="#000000" font-family="sans-serif" font-size="13" lengthAdjust="spacing" textLength="7" x="1588.6977" y="294.7007">1</text><text fill="#000000" font-family="sans-serif" font-size="13" lengthAdjust="spacing" textLength="7" x="1374.0723" y="370.2694">1</text></g><!--link RegisteredPlugin to PluginFileName--><g id="link_RegisteredPlugin_PluginFileName"><path codeLine="51" d="M1256.11,442.2137 C1227.13,465.9737 1188.24,497.8537 1160.16,520.8737 " fill="none" id="RegisteredPlugin-PluginFileName" style="stroke:#181818;stroke-width:1.0;"/><polygon fill="#000000" points="1223.8667,478.4892,1215.0085,481.9509,1218.735,486.4965,1223.8667,478.4892" style="stroke:#000000;stroke-width:1.0;"/><text fill="#000000" font-family="sans-serif" font-size="13" lengthAdjust="spacing" textLength="42" x="1229" y="487.042">locates</text></g><!--link RegisteredPlugin to PluginName--><g id="link_RegisteredPlugin_PluginName"><path codeLine="52" d="M1296,442.2137 C1296,465.9737 1296,497.8537 1296,520.8737 " fill="none" id="RegisteredPlugin-PluginName" style="stroke:#181818;stroke-width:1.0;"/><polygon fill="#000000" points="1301,476.6592,1298.0611,485.7043,1303.9389,485.7043,1301,476.6592" style="stroke:#000000;stroke-width:1.0;"/><text fill="#000000" font-family="sans-serif" font-size="13" lengthAdjust="spacing" textLength="51" x="1310" y="487.042">identifies</text></g><!--link RegisteredPlugin to PluginType--><g id="link_RegisteredPlugin_PluginType"><path codeLine="53" d="M1336.37,442.0237 C1347.52,451.4137 1359.45,461.8837 1370,472.0137 C1386.14,487.5137 1403.11,505.8937 1416.52,520.9737 " fill="none" id="RegisteredPlugin-PluginType" style="stroke:#181818;stroke-width:1.0;"/><text fill="#000000" font-family="sans-serif" font-size="13" lengthAdjust="spacing" textLength="54" x="1389" y="487.042">classifies</text></g><!--SRC=[hLN1Rfj05Bpp5K_qaBOgiIlrq2A4P2MDb4FJn8roty1Z-vfbeUoIABByxraMnnXZ6t321GdFpCxEl5sV_DKwL_vaaWicTPcAqoXB9v5WIdanCLwmr76kMVJ0EC8S_vTKO8fIgpyvHfHGn3HbSk4uO9wVKfD-teIrK00B2wkU82YoJ0DQHXZQxyjQvQnQVA_8EQgeeDpg1S77koyVakctxzFf9tXaeaJuVVyF8ns6i5WEK9j9zOJ5EmZDCJdBObmh_PXMIfTnjS64p19TqMKJxANKM3mIFiquBv0pZOlDGDS__p9BY54njgb7kDmXTKifNfZ1m16vhScjrDGn2ZSbgf7rD_cExRicp8rRoVlTRdPwBKfESdUXS-IaZ2MCQzIeIclA1GcysknWL9UrnjMu3clIxNFUJpA6juRM_Ug2vzdNlbdm8OGeavgHL4FepHmEONvsTuoG3m74zaQvnq7CrZ6gsFGQ-27BdRvzS8tVX7XPe78XSBhMlCxK-f2G46etsjiQLH_CtMss1g7ZxBsGMnRxxrlZUXrMPVejkas6RXFX8T5L25KRFT9RFiE1FligSZeGGzqwZ3w8p6YZiXlP1rz1ctqVHDi3vuFzJxRe5m00]--></g></svg>