<?xml version="1.0" encoding="us-ascii" standalone="no"?><svg xmlns="http://www.w3.org/2000/svg" xmlns:xlink="http://www.w3.org/1999/xlink" contentStyleType="text/css" height="775px" preserveAspectRatio="none" style="width:592px;height:775px;background:#FFFFFF;" version="1.1" viewBox="0 0 592 775" width="592px" zoomAndPan="magnify"><defs/><g><!--class CustomerManagerUI--><g id="elem_CustomerManagerUI"><rect codeLine="3" fill="#F1F1F1" height="66.6211" id="CustomerManagerUI" rx="2.5" ry="2.5" style="stroke:#181818;stroke-width:0.5;" width="161" x="69" y="7"/><ellipse cx="84" cy="23" fill="#ADD1B2" rx="11" ry="11" style="stroke:#181818;stroke-width:1.0;"/><path d="M86.7656,18.875 Q86.9219,18.6563 87.1094,18.5469 Q87.2969,18.4375 87.5156,18.4375 Q87.8906,18.4375 88.125,18.7031 Q88.3594,18.9531 88.3594,19.5625 L88.3594,21.0156 Q88.3594,21.625 88.125,21.8906 Q87.8906,22.1563 87.5156,22.1563 Q87.1719,22.1563 86.9688,21.9531 Q86.7656,21.7656 86.6563,21.25 Q86.6094,20.8906 86.4219,20.7031 Q86.0938,20.3281 85.4844,20.1094 Q84.875,19.8906 84.25,19.8906 Q83.4844,19.8906 82.8438,20.2188 Q82.2188,20.5469 81.7188,21.2969 Q81.2344,22.0469 81.2344,23.0781 L81.2344,24.1719 Q81.2344,25.4063 82.125,26.2344 Q83.0156,27.0469 84.6094,27.0469 Q85.5469,27.0469 86.2031,26.7969 Q86.5938,26.6406 87.0156,26.2031 Q87.2813,25.9375 87.4219,25.8594 Q87.5781,25.7813 87.7813,25.7813 Q88.1094,25.7813 88.3594,26.0469 Q88.625,26.2969 88.625,26.6406 Q88.625,26.9844 88.2813,27.3906 Q87.7813,27.9688 86.9844,28.2969 Q85.9063,28.75 84.6094,28.75 Q83.0938,28.75 81.8906,28.125 Q80.9063,27.625 80.2188,26.5625 Q79.5313,25.4844 79.5313,24.2031 L79.5313,23.0469 Q79.5313,21.7188 80.1406,20.5781 Q80.7656,19.4219 81.8594,18.8125 Q82.9531,18.1875 84.1875,18.1875 Q84.9219,18.1875 85.5625,18.3594 Q86.2188,18.5156 86.7656,18.875 Z " fill="#000000"/><text fill="#000000" font-family="sans-serif" font-size="14" lengthAdjust="spacing" textLength="129" x="98" y="28.7969">CustomerManagerUI</text><line style="stroke:#181818;stroke-width:0.5;" x1="70" x2="229" y1="39" y2="39"/><line style="stroke:#181818;stroke-width:0.5;" x1="70" x2="229" y1="47" y2="47"/><ellipse cx="80" cy="61.8105" fill="#84BE84" rx="3" ry="3" style="stroke:#038048;stroke-width:1.0;"/><text fill="#000000" font-family="sans-serif" font-size="14" lengthAdjust="spacing" textLength="112" x="89" y="66.1074">registerJobOffer()</text></g><!--class RegisterJobOfferUI--><g id="elem_RegisterJobOfferUI"><rect codeLine="7" fill="#F1F1F1" height="122.4844" id="RegisterJobOfferUI" rx="2.5" ry="2.5" style="stroke:#181818;stroke-width:0.5;" width="285" x="7" y="135"/><ellipse cx="85.75" cy="151" fill="#ADD1B2" rx="11" ry="11" style="stroke:#181818;stroke-width:1.0;"/><path d="M88.5156,146.875 Q88.6719,146.6563 88.8594,146.5469 Q89.0469,146.4375 89.2656,146.4375 Q89.6406,146.4375 89.875,146.7031 Q90.1094,146.9531 90.1094,147.5625 L90.1094,149.0156 Q90.1094,149.625 89.875,149.8906 Q89.6406,150.1563 89.2656,150.1563 Q88.9219,150.1563 88.7188,149.9531 Q88.5156,149.7656 88.4063,149.25 Q88.3594,148.8906 88.1719,148.7031 Q87.8438,148.3281 87.2344,148.1094 Q86.625,147.8906 86,147.8906 Q85.2344,147.8906 84.5938,148.2188 Q83.9688,148.5469 83.4688,149.2969 Q82.9844,150.0469 82.9844,151.0781 L82.9844,152.1719 Q82.9844,153.4063 83.875,154.2344 Q84.7656,155.0469 86.3594,155.0469 Q87.2969,155.0469 87.9531,154.7969 Q88.3438,154.6406 88.7656,154.2031 Q89.0313,153.9375 89.1719,153.8594 Q89.3281,153.7813 89.5313,153.7813 Q89.8594,153.7813 90.1094,154.0469 Q90.375,154.2969 90.375,154.6406 Q90.375,154.9844 90.0313,155.3906 Q89.5313,155.9688 88.7344,156.2969 Q87.6563,156.75 86.3594,156.75 Q84.8438,156.75 83.6406,156.125 Q82.6563,155.625 81.9688,154.5625 Q81.2813,153.4844 81.2813,152.2031 L81.2813,151.0469 Q81.2813,149.7188 81.8906,148.5781 Q82.5156,147.4219 83.6094,146.8125 Q84.7031,146.1875 85.9375,146.1875 Q86.6719,146.1875 87.3125,146.3594 Q87.9688,146.5156 88.5156,146.875 Z " fill="#000000"/><text fill="#000000" font-family="sans-serif" font-size="14" lengthAdjust="spacing" textLength="119" x="106.25" y="156.7969">RegisterJobOfferUI</text><line style="stroke:#181818;stroke-width:0.5;" x1="8" x2="291" y1="167" y2="167"/><rect fill="none" height="6" style="stroke:#C82930;stroke-width:1.0;" width="6" x="15" y="178.8105"/><text fill="#000000" font-family="sans-serif" font-size="14" lengthAdjust="spacing" textLength="259" x="27" y="186.1074">RegisterJobOfferController: theController</text><line style="stroke:#181818;stroke-width:0.5;" x1="8" x2="291" y1="193.6211" y2="193.6211"/><ellipse cx="18" cy="208.4316" fill="#84BE84" rx="3" ry="3" style="stroke:#038048;stroke-width:1.0;"/><text fill="#000000" font-family="sans-serif" font-size="14" lengthAdjust="spacing" textLength="60" x="27" y="212.7285">doShow()</text><ellipse cx="18" cy="227.0527" fill="#84BE84" rx="3" ry="3" style="stroke:#038048;stroke-width:1.0;"/><text fill="#000000" font-family="sans-serif" font-size="14" lengthAdjust="spacing" textLength="145" x="27" y="231.3496">showRequirementList()</text><ellipse cx="18" cy="245.6738" fill="#84BE84" rx="3" ry="3" style="stroke:#038048;stroke-width:1.0;"/><text fill="#000000" font-family="sans-serif" font-size="14" lengthAdjust="spacing" textLength="135" x="27" y="249.9707">showInterviewModel()</text></g><!--class RegisterJobOfferController--><g id="elem_RegisterJobOfferController"><rect codeLine="14" fill="#F1F1F1" height="85.2422" id="RegisterJobOfferController" rx="2.5" ry="2.5" style="stroke:#181818;stroke-width:0.5;" width="256" x="21.5" y="318"/><ellipse cx="61.25" cy="334" fill="#ADD1B2" rx="11" ry="11" style="stroke:#181818;stroke-width:1.0;"/><path d="M64.0156,329.875 Q64.1719,329.6563 64.3594,329.5469 Q64.5469,329.4375 64.7656,329.4375 Q65.1406,329.4375 65.375,329.7031 Q65.6094,329.9531 65.6094,330.5625 L65.6094,332.0156 Q65.6094,332.625 65.375,332.8906 Q65.1406,333.1563 64.7656,333.1563 Q64.4219,333.1563 64.2188,332.9531 Q64.0156,332.7656 63.9063,332.25 Q63.8594,331.8906 63.6719,331.7031 Q63.3438,331.3281 62.7344,331.1094 Q62.125,330.8906 61.5,330.8906 Q60.7344,330.8906 60.0938,331.2188 Q59.4688,331.5469 58.9688,332.2969 Q58.4844,333.0469 58.4844,334.0781 L58.4844,335.1719 Q58.4844,336.4063 59.375,337.2344 Q60.2656,338.0469 61.8594,338.0469 Q62.7969,338.0469 63.4531,337.7969 Q63.8438,337.6406 64.2656,337.2031 Q64.5313,336.9375 64.6719,336.8594 Q64.8281,336.7813 65.0313,336.7813 Q65.3594,336.7813 65.6094,337.0469 Q65.875,337.2969 65.875,337.6406 Q65.875,337.9844 65.5313,338.3906 Q65.0313,338.9688 64.2344,339.2969 Q63.1563,339.75 61.8594,339.75 Q60.3438,339.75 59.1406,339.125 Q58.1563,338.625 57.4688,337.5625 Q56.7813,336.4844 56.7813,335.2031 L56.7813,334.0469 Q56.7813,332.7188 57.3906,331.5781 Q58.0156,330.4219 59.1094,329.8125 Q60.2031,329.1875 61.4375,329.1875 Q62.1719,329.1875 62.8125,329.3594 Q63.4688,329.5156 64.0156,329.875 Z " fill="#000000"/><text fill="#000000" font-family="sans-serif" font-size="14" lengthAdjust="spacing" textLength="169" x="80.75" y="339.7969">RegisterJobOfferController</text><line style="stroke:#181818;stroke-width:0.5;" x1="22.5" x2="276.5" y1="350" y2="350"/><rect fill="none" height="6" style="stroke:#C82930;stroke-width:1.0;" width="6" x="29.5" y="361.8105"/><text fill="#000000" font-family="sans-serif" font-size="14" lengthAdjust="spacing" textLength="230" x="41.5" y="369.1074">ManagePluginService: pluginService</text><line style="stroke:#181818;stroke-width:0.5;" x1="22.5" x2="276.5" y1="376.6211" y2="376.6211"/><ellipse cx="32.5" cy="391.4316" fill="#84BE84" rx="3" ry="3" style="stroke:#038048;stroke-width:1.0;"/><text fill="#000000" font-family="sans-serif" font-size="14" lengthAdjust="spacing" textLength="91" x="41.5" y="395.7285">getPluginList()</text></g><!--class PersistenceContext--><g id="elem_PersistenceContext"><rect codeLine="19" fill="#F1F1F1" height="66.6211" id="PersistenceContext" rx="2.5" ry="2.5" style="stroke:#181818;stroke-width:0.5;" width="154" x="389.5" y="327"/><ellipse cx="404.5" cy="343" fill="#ADD1B2" rx="11" ry="11" style="stroke:#181818;stroke-width:1.0;"/><path d="M407.2656,338.875 Q407.4219,338.6563 407.6094,338.5469 Q407.7969,338.4375 408.0156,338.4375 Q408.3906,338.4375 408.625,338.7031 Q408.8594,338.9531 408.8594,339.5625 L408.8594,341.0156 Q408.8594,341.625 408.625,341.8906 Q408.3906,342.1563 408.0156,342.1563 Q407.6719,342.1563 407.4688,341.9531 Q407.2656,341.7656 407.1563,341.25 Q407.1094,340.8906 406.9219,340.7031 Q406.5938,340.3281 405.9844,340.1094 Q405.375,339.8906 404.75,339.8906 Q403.9844,339.8906 403.3438,340.2188 Q402.7188,340.5469 402.2188,341.2969 Q401.7344,342.0469 401.7344,343.0781 L401.7344,344.1719 Q401.7344,345.4063 402.625,346.2344 Q403.5156,347.0469 405.1094,347.0469 Q406.0469,347.0469 406.7031,346.7969 Q407.0938,346.6406 407.5156,346.2031 Q407.7813,345.9375 407.9219,345.8594 Q408.0781,345.7813 408.2813,345.7813 Q408.6094,345.7813 408.8594,346.0469 Q409.125,346.2969 409.125,346.6406 Q409.125,346.9844 408.7813,347.3906 Q408.2813,347.9688 407.4844,348.2969 Q406.4063,348.75 405.1094,348.75 Q403.5938,348.75 402.3906,348.125 Q401.4063,347.625 400.7188,346.5625 Q400.0313,345.4844 400.0313,344.2031 L400.0313,343.0469 Q400.0313,341.7188 400.6406,340.5781 Q401.2656,339.4219 402.3594,338.8125 Q403.4531,338.1875 404.6875,338.1875 Q405.4219,338.1875 406.0625,338.3594 Q406.7188,338.5156 407.2656,338.875 Z " fill="#000000"/><text fill="#000000" font-family="sans-serif" font-size="14" lengthAdjust="spacing" textLength="122" x="418.5" y="348.7969">PersistenceContext</text><line style="stroke:#181818;stroke-width:0.5;" x1="390.5" x2="542.5" y1="359" y2="359"/><line style="stroke:#181818;stroke-width:0.5;" x1="390.5" x2="542.5" y1="367" y2="367"/><ellipse cx="400.5" cy="381.8105" fill="#84BE84" rx="3" ry="3" style="stroke:#038048;stroke-width:1.0;"/><text fill="#000000" font-family="sans-serif" font-size="14" lengthAdjust="spacing" textLength="84" x="409.5" y="386.1074">repositories()</text></g><!--class RepositoryFactory--><g id="elem_RepositoryFactory"><rect codeLine="23" fill="#F1F1F1" height="85.2422" id="RepositoryFactory" rx="2.5" ry="2.5" style="stroke:#181818;stroke-width:0.5;" width="247" x="338" y="482"/><ellipse cx="399.25" cy="498" fill="#ADD1B2" rx="11" ry="11" style="stroke:#181818;stroke-width:1.0;"/><path d="M402.0156,493.875 Q402.1719,493.6563 402.3594,493.5469 Q402.5469,493.4375 402.7656,493.4375 Q403.1406,493.4375 403.375,493.7031 Q403.6094,493.9531 403.6094,494.5625 L403.6094,496.0156 Q403.6094,496.625 403.375,496.8906 Q403.1406,497.1563 402.7656,497.1563 Q402.4219,497.1563 402.2188,496.9531 Q402.0156,496.7656 401.9063,496.25 Q401.8594,495.8906 401.6719,495.7031 Q401.3438,495.3281 400.7344,495.1094 Q400.125,494.8906 399.5,494.8906 Q398.7344,494.8906 398.0938,495.2188 Q397.4688,495.5469 396.9688,496.2969 Q396.4844,497.0469 396.4844,498.0781 L396.4844,499.1719 Q396.4844,500.4063 397.375,501.2344 Q398.2656,502.0469 399.8594,502.0469 Q400.7969,502.0469 401.4531,501.7969 Q401.8438,501.6406 402.2656,501.2031 Q402.5313,500.9375 402.6719,500.8594 Q402.8281,500.7813 403.0313,500.7813 Q403.3594,500.7813 403.6094,501.0469 Q403.875,501.2969 403.875,501.6406 Q403.875,501.9844 403.5313,502.3906 Q403.0313,502.9688 402.2344,503.2969 Q401.1563,503.75 399.8594,503.75 Q398.3438,503.75 397.1406,503.125 Q396.1563,502.625 395.4688,501.5625 Q394.7813,500.4844 394.7813,499.2031 L394.7813,498.0469 Q394.7813,496.7188 395.3906,495.5781 Q396.0156,494.4219 397.1094,493.8125 Q398.2031,493.1875 399.4375,493.1875 Q400.1719,493.1875 400.8125,493.3594 Q401.4688,493.5156 402.0156,493.875 Z " fill="#000000"/><text fill="#000000" font-family="sans-serif" font-size="14" lengthAdjust="spacing" textLength="116" x="419.75" y="503.7969">RepositoryFactory</text><line style="stroke:#181818;stroke-width:0.5;" x1="339" x2="584" y1="514" y2="514"/><line style="stroke:#181818;stroke-width:0.5;" x1="339" x2="584" y1="522" y2="522"/><ellipse cx="349" cy="536.8105" fill="#84BE84" rx="3" ry="3" style="stroke:#038048;stroke-width:1.0;"/><text fill="#000000" font-family="sans-serif" font-size="14" lengthAdjust="spacing" textLength="169" x="358" y="541.1074">newTransactionalContext()</text><ellipse cx="349" cy="555.4316" fill="#84BE84" rx="3" ry="3" style="stroke:#038048;stroke-width:1.0;"/><text fill="#000000" font-family="sans-serif" font-size="14" lengthAdjust="spacing" textLength="221" x="358" y="559.7285">plugins(TransactionalContext var1)</text></g><!--class ManagePluginService--><g id="elem_ManagePluginService"><rect codeLine="28" fill="#F1F1F1" height="85.2422" id="ManagePluginService" rx="2.5" ry="2.5" style="stroke:#181818;stroke-width:0.5;" width="246" x="52.5" y="482"/><ellipse cx="102.75" cy="498" fill="#ADD1B2" rx="11" ry="11" style="stroke:#181818;stroke-width:1.0;"/><path d="M105.5156,493.875 Q105.6719,493.6563 105.8594,493.5469 Q106.0469,493.4375 106.2656,493.4375 Q106.6406,493.4375 106.875,493.7031 Q107.1094,493.9531 107.1094,494.5625 L107.1094,496.0156 Q107.1094,496.625 106.875,496.8906 Q106.6406,497.1563 106.2656,497.1563 Q105.9219,497.1563 105.7188,496.9531 Q105.5156,496.7656 105.4063,496.25 Q105.3594,495.8906 105.1719,495.7031 Q104.8438,495.3281 104.2344,495.1094 Q103.625,494.8906 103,494.8906 Q102.2344,494.8906 101.5938,495.2188 Q100.9688,495.5469 100.4688,496.2969 Q99.9844,497.0469 99.9844,498.0781 L99.9844,499.1719 Q99.9844,500.4063 100.875,501.2344 Q101.7656,502.0469 103.3594,502.0469 Q104.2969,502.0469 104.9531,501.7969 Q105.3438,501.6406 105.7656,501.2031 Q106.0313,500.9375 106.1719,500.8594 Q106.3281,500.7813 106.5313,500.7813 Q106.8594,500.7813 107.1094,501.0469 Q107.375,501.2969 107.375,501.6406 Q107.375,501.9844 107.0313,502.3906 Q106.5313,502.9688 105.7344,503.2969 Q104.6563,503.75 103.3594,503.75 Q101.8438,503.75 100.6406,503.125 Q99.6563,502.625 98.9688,501.5625 Q98.2813,500.4844 98.2813,499.2031 L98.2813,498.0469 Q98.2813,496.7188 98.8906,495.5781 Q99.5156,494.4219 100.6094,493.8125 Q101.7031,493.1875 102.9375,493.1875 Q103.6719,493.1875 104.3125,493.3594 Q104.9688,493.5156 105.5156,493.875 Z " fill="#000000"/><text fill="#000000" font-family="sans-serif" font-size="14" lengthAdjust="spacing" textLength="137" x="123.25" y="503.7969">ManagePluginService</text><line style="stroke:#181818;stroke-width:0.5;" x1="53.5" x2="297.5" y1="514" y2="514"/><rect fill="none" height="6" style="stroke:#C82930;stroke-width:1.0;" width="6" x="60.5" y="525.8105"/><text fill="#000000" font-family="sans-serif" font-size="14" lengthAdjust="spacing" textLength="220" x="72.5" y="533.1074">RegisteredPluginsRepository: repo</text><line style="stroke:#181818;stroke-width:0.5;" x1="53.5" x2="297.5" y1="540.6211" y2="540.6211"/><ellipse cx="63.5" cy="555.4316" fill="#84BE84" rx="3" ry="3" style="stroke:#038048;stroke-width:1.0;"/><text fill="#000000" font-family="sans-serif" font-size="14" lengthAdjust="spacing" textLength="70" x="72.5" y="559.7285">allPlugins()</text></g><!--class RegisteredPluginsRepository--><g id="elem_RegisteredPluginsRepository"><rect codeLine="33" fill="#F1F1F1" height="122.4844" id="RegisteredPluginsRepository" rx="2.5" ry="2.5" style="stroke:#181818;stroke-width:0.5;" width="238" x="197.5" y="646"/><ellipse cx="222.85" cy="662" fill="#ADD1B2" rx="11" ry="11" style="stroke:#181818;stroke-width:1.0;"/><path d="M225.6156,657.875 Q225.7719,657.6563 225.9594,657.5469 Q226.1469,657.4375 226.3656,657.4375 Q226.7406,657.4375 226.975,657.7031 Q227.2094,657.9531 227.2094,658.5625 L227.2094,660.0156 Q227.2094,660.625 226.975,660.8906 Q226.7406,661.1563 226.3656,661.1563 Q226.0219,661.1563 225.8188,660.9531 Q225.6156,660.7656 225.5063,660.25 Q225.4594,659.8906 225.2719,659.7031 Q224.9438,659.3281 224.3344,659.1094 Q223.725,658.8906 223.1,658.8906 Q222.3344,658.8906 221.6938,659.2188 Q221.0688,659.5469 220.5688,660.2969 Q220.0844,661.0469 220.0844,662.0781 L220.0844,663.1719 Q220.0844,664.4063 220.975,665.2344 Q221.8656,666.0469 223.4594,666.0469 Q224.3969,666.0469 225.0531,665.7969 Q225.4438,665.6406 225.8656,665.2031 Q226.1313,664.9375 226.2719,664.8594 Q226.4281,664.7813 226.6313,664.7813 Q226.9594,664.7813 227.2094,665.0469 Q227.475,665.2969 227.475,665.6406 Q227.475,665.9844 227.1313,666.3906 Q226.6313,666.9688 225.8344,667.2969 Q224.7563,667.75 223.4594,667.75 Q221.9438,667.75 220.7406,667.125 Q219.7563,666.625 219.0688,665.5625 Q218.3813,664.4844 218.3813,663.2031 L218.3813,662.0469 Q218.3813,660.7188 218.9906,659.5781 Q219.6156,658.4219 220.7094,657.8125 Q221.8031,657.1875 223.0375,657.1875 Q223.7719,657.1875 224.4125,657.3594 Q225.0688,657.5156 225.6156,657.875 Z " fill="#000000"/><text fill="#000000" font-family="sans-serif" font-size="14" lengthAdjust="spacing" textLength="183" x="239.15" y="667.7969">RegisteredPluginsRepository</text><line style="stroke:#181818;stroke-width:0.5;" x1="198.5" x2="434.5" y1="678" y2="678"/><line style="stroke:#181818;stroke-width:0.5;" x1="198.5" x2="434.5" y1="686" y2="686"/><ellipse cx="208.5" cy="700.8105" fill="#84BE84" rx="3" ry="3" style="stroke:#038048;stroke-width:1.0;"/><text fill="#000000" font-family="sans-serif" font-size="14" lengthAdjust="spacing" textLength="212" x="217.5" y="705.1074">findByRef(name: PluginFileName)</text><ellipse cx="208.5" cy="719.4316" fill="#84BE84" rx="3" ry="3" style="stroke:#038048;stroke-width:1.0;"/><text fill="#000000" font-family="sans-serif" font-size="14" lengthAdjust="spacing" textLength="94" x="217.5" y="723.7285">findAllPlugins()</text><ellipse cx="208.5" cy="738.0527" fill="#84BE84" rx="3" ry="3" style="stroke:#038048;stroke-width:1.0;"/><text fill="#000000" font-family="sans-serif" font-size="14" lengthAdjust="spacing" textLength="110" x="217.5" y="742.3496">findAllInterviews()</text><ellipse cx="208.5" cy="756.6738" fill="#84BE84" rx="3" ry="3" style="stroke:#038048;stroke-width:1.0;"/><text fill="#000000" font-family="sans-serif" font-size="14" lengthAdjust="spacing" textLength="158" x="217.5" y="760.9707">findAllJobRequirements()</text></g><!--link CustomerManagerUI to RegisterJobOfferUI--><g id="link_CustomerManagerUI_RegisterJobOfferUI"><path codeLine="40" d="M149.5,74.05 C149.5,91.74 149.5,108.18 149.5,128.92 " fill="none" id="CustomerManagerUI-to-RegisterJobOfferUI" style="stroke:#181818;stroke-width:1.0;stroke-dasharray:7.0,7.0;"/><polygon fill="#181818" points="149.5,134.92,153.5,125.92,149.5,129.92,145.5,125.92,149.5,134.92" style="stroke:#181818;stroke-width:1.0;"/></g><!--link RegisterJobOfferUI to RegisterJobOfferController--><g id="link_RegisterJobOfferUI_RegisterJobOfferController"><path codeLine="41" d="M149.5,257.05 C149.5,277.3 149.5,293.44 149.5,311.94 " fill="none" id="RegisterJobOfferUI-to-RegisterJobOfferController" style="stroke:#181818;stroke-width:1.0;stroke-dasharray:7.0,7.0;"/><polygon fill="#181818" points="149.5,317.94,153.5,308.94,149.5,312.94,145.5,308.94,149.5,317.94" style="stroke:#181818;stroke-width:1.0;"/></g><!--link RegisterJobOfferController to PersistenceContext--><g id="link_RegisterJobOfferController_PersistenceContext"><path codeLine="42" d="M277.52,360.5 C315.33,360.5 349.53,360.5 383.1,360.5 " fill="none" id="RegisterJobOfferController-to-PersistenceContext" style="stroke:#181818;stroke-width:1.0;"/><polygon fill="#181818" points="389.1,360.5,380.1,356.5,384.1,360.5,380.1,364.5,389.1,360.5" style="stroke:#181818;stroke-width:1.0;"/><text fill="#000000" font-family="sans-serif" font-size="13" lengthAdjust="spacing" textLength="75" x="296" y="353.5283">repositories()</text></g><!--link PersistenceContext to RepositoryFactory--><g id="link_PersistenceContext_RepositoryFactory"><path codeLine="43" d="M465.49,394.28 C464.71,419.52 463.8149,448.5829 462.9749,475.8229 " fill="none" id="PersistenceContext-to-RepositoryFactory" style="stroke:#181818;stroke-width:1.0;"/><polygon fill="#181818" points="462.79,481.82,467.0655,472.9476,462.9441,476.8224,459.0693,472.701,462.79,481.82" style="stroke:#181818;stroke-width:1.0;"/><text fill="#000000" font-family="sans-serif" font-size="13" lengthAdjust="spacing" textLength="44" x="464.5" y="448.0283">create()</text></g><!--link RegisterJobOfferController to ManagePluginService--><g id="link_RegisterJobOfferController_ManagePluginService"><path codeLine="45" d="M156.2,403.22 C160.08,427.41 163.9986,451.8359 167.8786,475.9959 " fill="none" id="RegisterJobOfferController-to-ManagePluginService" style="stroke:#181818;stroke-width:1.0;"/><polygon fill="#181818" points="168.83,481.92,171.3523,472.3996,168.0372,476.9833,163.4535,473.6681,168.83,481.92" style="stroke:#181818;stroke-width:1.0;"/></g><!--link RepositoryFactory to RegisteredPluginsRepository--><g id="link_RepositoryFactory_RegisteredPluginsRepository"><path codeLine="46" d="M427.87,567.36 C409.13,590.69 389.2272,615.4621 368.5372,641.2221 " fill="none" id="RepositoryFactory-to-RegisteredPluginsRepository" style="stroke:#181818;stroke-width:1.0;"/><polygon fill="#181818" points="364.78,645.9,373.5345,641.3879,367.911,642.0017,367.2972,636.3783,364.78,645.9" style="stroke:#181818;stroke-width:1.0;"/><text fill="#000000" font-family="sans-serif" font-size="13" lengthAdjust="spacing" textLength="44" x="402.5" y="612.0283">create()</text></g><!--link ManagePluginService to RegisteredPluginsRepository--><g id="link_ManagePluginService_RegisteredPluginsRepository"><path codeLine="48" d="M208.2,567.36 C226.43,590.69 245.7367,615.4114 265.8567,641.1714 " fill="none" id="ManagePluginService-to-RegisteredPluginsRepository" style="stroke:#181818;stroke-width:1.0;"/><polygon fill="#181818" points="269.55,645.9,267.1625,636.3449,266.4723,641.9595,260.8577,641.2693,269.55,645.9" style="stroke:#181818;stroke-width:1.0;"/></g><!--SRC=[XLB1ReCm3Btp5RcjrKJHhXmcRPKgTLgtgjq-80D38uM4EQ6iclRlIo6K05d71Tb-py_Eyyr1wrB5KLHoAdHLy4KYYoZXLAamPJH7MWH14v9bfRGi03TKq1pmVVqT4FFT4eISAGtu93zUimnmDWz-Ej9kLEjOuQIob4AZv1mm9le0VMXLKha_oDhqRaDbWXryLWoX0A6VJQz1RIrCxoE3UYDJuDT6wfMwqTeDjxpAcTYVkoGGaz8DhL0EkaLP-Ol65b2THKJIB09Vkd-iKYgc9J9Gmwbi_hIYoVdN4GJKRqY5Cbac1UMstsNPTYuryu78aUAT8-9PR6m7f6rPzGF5pT1MZd9k0RutzR2xFJ8cqiVJ3hAPe8LvpnQuOXnUJ3ntK0-kn21zCNLICMOwrs1dcrmiMOJtdfCCfYalqhd9lql44AVsatZil0SJDfgZEp3C185gC9ohieRiyJUODWoTrJo63GGz7V_Z_m80]--></g></svg>