<?xml version="1.0" encoding="us-ascii" standalone="no"?><svg xmlns="http://www.w3.org/2000/svg" xmlns:xlink="http://www.w3.org/1999/xlink" contentStyleType="text/css" height="917px" preserveAspectRatio="none" style="width:1175px;height:917px;background:#FFFFFF;" version="1.1" viewBox="0 0 1175 917" width="1175px" zoomAndPan="magnify"><defs/><g><text fill="#000000" font-family="sans-serif" font-size="14" font-weight="bold" lengthAdjust="spacing" textLength="218" x="476" y="30.1074">US1020 - Publish Job Offer - SD</text><rect fill="#FFFFFF" height="692.0332" style="stroke:#181818;stroke-width:1.0;" width="10" x="63.5" y="133.2422"/><rect fill="#FFFFFF" height="62.582" style="stroke:#181818;stroke-width:1.0;" width="10" x="286.5" y="156.5332"/><rect fill="#FFFFFF" height="31.291" style="stroke:#181818;stroke-width:1.0;" width="10" x="286.5" y="250.4063"/><rect fill="#FFFFFF" height="31.291" style="stroke:#181818;stroke-width:1.0;" width="10" x="286.5" y="486.4043"/><rect fill="#FFFFFF" height="31.291" style="stroke:#181818;stroke-width:1.0;" width="10" x="286.5" y="548.9863"/><rect fill="#FFFFFF" height="31.291" style="stroke:#181818;stroke-width:1.0;" width="10" x="286.5" y="784.9844"/><rect fill="#FFFFFF" height="31.291" style="stroke:#181818;stroke-width:1.0;" width="10" x="533.5" y="281.6973"/><rect fill="#FFFFFF" height="31.291" style="stroke:#181818;stroke-width:1.0;" width="10" x="533.5" y="455.1133"/><rect fill="#FFFFFF" height="31.291" style="stroke:#181818;stroke-width:1.0;" width="10" x="533.5" y="580.2773"/><rect fill="#FFFFFF" height="31.291" style="stroke:#181818;stroke-width:1.0;" width="10" x="533.5" y="753.6934"/><rect fill="#FFFFFF" height="31.291" style="stroke:#181818;stroke-width:1.0;" width="10" x="847.5" y="312.9883"/><rect fill="#FFFFFF" height="31.291" style="stroke:#181818;stroke-width:1.0;" width="10" x="847.5" y="423.8223"/><rect fill="#FFFFFF" height="31.291" style="stroke:#181818;stroke-width:1.0;" width="10" x="847.5" y="611.5684"/><rect fill="#FFFFFF" height="31.291" style="stroke:#181818;stroke-width:1.0;" width="10" x="847.5" y="722.4023"/><rect fill="#FFFFFF" height="79.543" style="stroke:#181818;stroke-width:1.0;" width="10" x="1003.5" y="344.2793"/><rect fill="#FFFFFF" height="79.543" style="stroke:#181818;stroke-width:1.0;" width="10" x="1003.5" y="642.8594"/><line style="stroke:#181818;stroke-width:0.5;stroke-dasharray:5.0,5.0;" x1="68" x2="68" y1="123.2422" y2="834.2754"/><line style="stroke:#181818;stroke-width:0.5;stroke-dasharray:5.0,5.0;" x1="291" x2="291" y1="123.2422" y2="834.2754"/><line style="stroke:#181818;stroke-width:0.5;stroke-dasharray:5.0,5.0;" x1="538" x2="538" y1="123.2422" y2="834.2754"/><line style="stroke:#181818;stroke-width:0.5;stroke-dasharray:5.0,5.0;" x1="852" x2="852" y1="123.2422" y2="834.2754"/><line style="stroke:#181818;stroke-width:0.5;stroke-dasharray:5.0,5.0;" x1="1008" x2="1008" y1="123.2422" y2="834.2754"/><text fill="#000000" font-family="sans-serif" font-size="14" lengthAdjust="spacing" textLength="121" x="5" y="119.7285">Customer Manager</text><ellipse cx="68.5" cy="53.1211" fill="#E2E2F0" rx="8" ry="8" style="stroke:#181818;stroke-width:0.5;"/><path d="M68.5,61.1211 L68.5,88.1211 M55.5,69.1211 L81.5,69.1211 M68.5,88.1211 L55.5,103.1211 M68.5,88.1211 L81.5,103.1211 " fill="none" style="stroke:#181818;stroke-width:0.5;"/><text fill="#000000" font-family="sans-serif" font-size="14" lengthAdjust="spacing" textLength="121" x="5" y="848.3828">Customer Manager</text><ellipse cx="68.5" cy="860.3965" fill="#E2E2F0" rx="8" ry="8" style="stroke:#181818;stroke-width:0.5;"/><path d="M68.5,868.3965 L68.5,895.3965 M55.5,876.3965 L81.5,876.3965 M68.5,895.3965 L55.5,910.3965 M68.5,895.3965 L81.5,910.3965 " fill="none" style="stroke:#181818;stroke-width:0.5;"/><rect fill="#E2E2F0" height="32.6211" rx="2.5" ry="2.5" style="stroke:#181818;stroke-width:0.5;" width="177" x="203" y="89.6211"/><text fill="#000000" font-family="sans-serif" font-size="14" lengthAdjust="spacing" textLength="163" x="210" y="111.7285">PublishSelectionResultsUI</text><rect fill="#E2E2F0" height="32.6211" rx="2.5" ry="2.5" style="stroke:#181818;stroke-width:0.5;" width="177" x="203" y="833.2754"/><text fill="#000000" font-family="sans-serif" font-size="14" lengthAdjust="spacing" textLength="163" x="210" y="855.3828">PublishSelectionResultsUI</text><rect fill="#E2E2F0" height="32.6211" rx="2.5" ry="2.5" style="stroke:#181818;stroke-width:0.5;" width="227" x="425" y="89.6211"/><text fill="#000000" font-family="sans-serif" font-size="14" lengthAdjust="spacing" textLength="213" x="432" y="111.7285">PublishSelectionResultsController</text><rect fill="#E2E2F0" height="32.6211" rx="2.5" ry="2.5" style="stroke:#181818;stroke-width:0.5;" width="227" x="425" y="833.2754"/><text fill="#000000" font-family="sans-serif" font-size="14" lengthAdjust="spacing" textLength="213" x="432" y="855.3828">PublishSelectionResultsController</text><rect fill="#E2E2F0" height="32.6211" rx="2.5" ry="2.5" style="stroke:#181818;stroke-width:0.5;" width="179" x="763" y="89.6211"/><text fill="#000000" font-family="sans-serif" font-size="14" lengthAdjust="spacing" textLength="165" x="770" y="111.7285">ResultsNotificationHandler</text><rect fill="#E2E2F0" height="32.6211" rx="2.5" ry="2.5" style="stroke:#181818;stroke-width:0.5;" width="179" x="763" y="833.2754"/><text fill="#000000" font-family="sans-serif" font-size="14" lengthAdjust="spacing" textLength="165" x="770" y="855.3828">ResultsNotificationHandler</text><rect fill="#E2E2F0" height="32.6211" rx="2.5" ry="2.5" style="stroke:#181818;stroke-width:0.5;" width="113" x="952" y="89.6211"/><text fill="#000000" font-family="sans-serif" font-size="14" lengthAdjust="spacing" textLength="99" x="959" y="111.7285">FollowUpServer</text><rect fill="#E2E2F0" height="32.6211" rx="2.5" ry="2.5" style="stroke:#181818;stroke-width:0.5;" width="113" x="952" y="833.2754"/><text fill="#000000" font-family="sans-serif" font-size="14" lengthAdjust="spacing" textLength="99" x="959" y="855.3828">FollowUpServer</text><rect fill="#FFFFFF" height="692.0332" style="stroke:#181818;stroke-width:1.0;" width="10" x="63.5" y="133.2422"/><rect fill="#FFFFFF" height="62.582" style="stroke:#181818;stroke-width:1.0;" width="10" x="286.5" y="156.5332"/><rect fill="#FFFFFF" height="31.291" style="stroke:#181818;stroke-width:1.0;" width="10" x="286.5" y="250.4063"/><rect fill="#FFFFFF" height="31.291" style="stroke:#181818;stroke-width:1.0;" width="10" x="286.5" y="486.4043"/><rect fill="#FFFFFF" height="31.291" style="stroke:#181818;stroke-width:1.0;" width="10" x="286.5" y="548.9863"/><rect fill="#FFFFFF" height="31.291" style="stroke:#181818;stroke-width:1.0;" width="10" x="286.5" y="784.9844"/><rect fill="#FFFFFF" height="31.291" style="stroke:#181818;stroke-width:1.0;" width="10" x="533.5" y="281.6973"/><rect fill="#FFFFFF" height="31.291" style="stroke:#181818;stroke-width:1.0;" width="10" x="533.5" y="455.1133"/><rect fill="#FFFFFF" height="31.291" style="stroke:#181818;stroke-width:1.0;" width="10" x="533.5" y="580.2773"/><rect fill="#FFFFFF" height="31.291" style="stroke:#181818;stroke-width:1.0;" width="10" x="533.5" y="753.6934"/><rect fill="#FFFFFF" height="31.291" style="stroke:#181818;stroke-width:1.0;" width="10" x="847.5" y="312.9883"/><rect fill="#FFFFFF" height="31.291" style="stroke:#181818;stroke-width:1.0;" width="10" x="847.5" y="423.8223"/><rect fill="#FFFFFF" height="31.291" style="stroke:#181818;stroke-width:1.0;" width="10" x="847.5" y="611.5684"/><rect fill="#FFFFFF" height="31.291" style="stroke:#181818;stroke-width:1.0;" width="10" x="847.5" y="722.4023"/><rect fill="#FFFFFF" height="79.543" style="stroke:#181818;stroke-width:1.0;" width="10" x="1003.5" y="344.2793"/><rect fill="#FFFFFF" height="79.543" style="stroke:#181818;stroke-width:1.0;" width="10" x="1003.5" y="642.8594"/><polygon fill="#181818" points="274.5,152.5332,284.5,156.5332,274.5,160.5332,278.5,156.5332" style="stroke:#181818;stroke-width:1.0;"/><line style="stroke:#181818;stroke-width:1.0;" x1="73.5" x2="280.5" y1="156.5332" y2="156.5332"/><text fill="#000000" font-family="sans-serif" font-size="13" font-weight="bold" lengthAdjust="spacing" textLength="7" x="80.5" y="151.2705">1</text><text fill="#000000" font-family="sans-serif" font-size="13" lengthAdjust="spacing" textLength="170" x="91.5" y="151.2705">requests to publish a job offer</text><polygon fill="#181818" points="526.5,183.8242,536.5,187.8242,526.5,191.8242,530.5,187.8242" style="stroke:#181818;stroke-width:1.0;"/><line style="stroke:#181818;stroke-width:1.0;" x1="296.5" x2="532.5" y1="187.8242" y2="187.8242"/><text fill="#000000" font-family="sans-serif" font-size="13" font-weight="bold" lengthAdjust="spacing" textLength="7" x="303.5" y="182.5615">2</text><text fill="#000000" font-family="sans-serif" font-size="13" lengthAdjust="spacing" textLength="44" x="314.5" y="182.5615">create()</text><polygon fill="#181818" points="84.5,215.1152,74.5,219.1152,84.5,223.1152,80.5,219.1152" style="stroke:#181818;stroke-width:1.0;"/><line style="stroke:#181818;stroke-width:1.0;stroke-dasharray:2.0,2.0;" x1="78.5" x2="290.5" y1="219.1152" y2="219.1152"/><text fill="#000000" font-family="sans-serif" font-size="13" font-weight="bold" lengthAdjust="spacing" textLength="7" x="90.5" y="213.8525">3</text><text fill="#000000" font-family="sans-serif" font-size="13" lengthAdjust="spacing" textLength="178" x="101.5" y="213.8525">requests for identity verification</text><polygon fill="#181818" points="274.5,246.4063,284.5,250.4063,274.5,254.4063,278.5,250.4063" style="stroke:#181818;stroke-width:1.0;"/><line style="stroke:#181818;stroke-width:1.0;" x1="73.5" x2="280.5" y1="250.4063" y2="250.4063"/><text fill="#000000" font-family="sans-serif" font-size="13" font-weight="bold" lengthAdjust="spacing" textLength="7" x="80.5" y="245.1436">4</text><text fill="#000000" font-family="sans-serif" font-size="13" lengthAdjust="spacing" textLength="120" x="91.5" y="245.1436">inputs requested info</text><polygon fill="#181818" points="521.5,277.6973,531.5,281.6973,521.5,285.6973,525.5,281.6973" style="stroke:#181818;stroke-width:1.0;"/><line style="stroke:#181818;stroke-width:1.0;" x1="291.5" x2="527.5" y1="281.6973" y2="281.6973"/><text fill="#000000" font-family="sans-serif" font-size="13" font-weight="bold" lengthAdjust="spacing" textLength="7" x="298.5" y="276.4346">5</text><text fill="#000000" font-family="sans-serif" font-size="13" lengthAdjust="spacing" textLength="132" x="309.5" y="276.4346">findAllOffers(password)</text><polygon fill="#181818" points="835.5,308.9883,845.5,312.9883,835.5,316.9883,839.5,312.9883" style="stroke:#181818;stroke-width:1.0;"/><line style="stroke:#181818;stroke-width:1.0;" x1="538.5" x2="841.5" y1="312.9883" y2="312.9883"/><text fill="#000000" font-family="sans-serif" font-size="13" font-weight="bold" lengthAdjust="spacing" textLength="7" x="545.5" y="307.7256">6</text><text fill="#000000" font-family="sans-serif" font-size="13" lengthAdjust="spacing" textLength="215" x="556.5" y="307.7256">ResultsNotificationHandler(password)</text><polygon fill="#181818" points="991.5,340.2793,1001.5,344.2793,991.5,348.2793,995.5,344.2793" style="stroke:#181818;stroke-width:1.0;"/><line style="stroke:#181818;stroke-width:1.0;" x1="852.5" x2="997.5" y1="344.2793" y2="344.2793"/><text fill="#000000" font-family="sans-serif" font-size="13" font-weight="bold" lengthAdjust="spacing" textLength="7" x="859.5" y="339.0166">7</text><text fill="#000000" font-family="sans-serif" font-size="13" lengthAdjust="spacing" textLength="4" x="870.5" y="339.0166">&#160;</text><rect fill="none" height="43.252" style="stroke:#000000;stroke-width:1.5;" width="220" x="949" y="352.2793"/><path d="M949,352.2793 L1011,352.2793 L1011,361.2793 L1001,371.2793 L949,371.2793 L949,352.2793 " fill="#EEEEEE" style="stroke:#000000;stroke-width:2.0;"/><text fill="#000000" font-family="sans-serif" font-size="13" font-weight="bold" lengthAdjust="spacing" textLength="17" x="962" y="368.3076">ref</text><text fill="#000000" font-family="sans-serif" font-size="12" lengthAdjust="spacing" textLength="212" x="953" y="388.2285">Refer to us-1020-SD-server-interaction</text><polygon fill="#181818" points="868.5,419.8223,858.5,423.8223,868.5,427.8223,864.5,423.8223" style="stroke:#181818;stroke-width:1.0;"/><line style="stroke:#181818;stroke-width:1.0;stroke-dasharray:2.0,2.0;" x1="862.5" x2="1007.5" y1="423.8223" y2="423.8223"/><text fill="#000000" font-family="sans-serif" font-size="13" font-weight="bold" lengthAdjust="spacing" textLength="14" x="874.5" y="418.5596">14</text><text fill="#000000" font-family="sans-serif" font-size="13" lengthAdjust="spacing" textLength="51" x="892.5" y="418.5596">jobOffers</text><polygon fill="#181818" points="554.5,451.1133,544.5,455.1133,554.5,459.1133,550.5,455.1133" style="stroke:#181818;stroke-width:1.0;"/><line style="stroke:#181818;stroke-width:1.0;stroke-dasharray:2.0,2.0;" x1="548.5" x2="851.5" y1="455.1133" y2="455.1133"/><text fill="#000000" font-family="sans-serif" font-size="13" font-weight="bold" lengthAdjust="spacing" textLength="14" x="560.5" y="449.8506">15</text><text fill="#000000" font-family="sans-serif" font-size="13" lengthAdjust="spacing" textLength="51" x="578.5" y="449.8506">jobOffers</text><polygon fill="#181818" points="307.5,482.4043,297.5,486.4043,307.5,490.4043,303.5,486.4043" style="stroke:#181818;stroke-width:1.0;"/><line style="stroke:#181818;stroke-width:1.0;stroke-dasharray:2.0,2.0;" x1="301.5" x2="537.5" y1="486.4043" y2="486.4043"/><text fill="#000000" font-family="sans-serif" font-size="13" font-weight="bold" lengthAdjust="spacing" textLength="14" x="313.5" y="481.1416">16</text><text fill="#000000" font-family="sans-serif" font-size="13" lengthAdjust="spacing" textLength="51" x="331.5" y="481.1416">jobOffers</text><polygon fill="#181818" points="84.5,513.6953,74.5,517.6953,84.5,521.6953,80.5,517.6953" style="stroke:#181818;stroke-width:1.0;"/><line style="stroke:#181818;stroke-width:1.0;stroke-dasharray:2.0,2.0;" x1="78.5" x2="290.5" y1="517.6953" y2="517.6953"/><text fill="#000000" font-family="sans-serif" font-size="13" font-weight="bold" lengthAdjust="spacing" textLength="14" x="90.5" y="512.4326">17</text><text fill="#000000" font-family="sans-serif" font-size="13" lengthAdjust="spacing" textLength="153" x="108.5" y="512.4326">requests to pick a job offer</text><polygon fill="#181818" points="274.5,544.9863,284.5,548.9863,274.5,552.9863,278.5,548.9863" style="stroke:#181818;stroke-width:1.0;"/><line style="stroke:#181818;stroke-width:1.0;" x1="73.5" x2="280.5" y1="548.9863" y2="548.9863"/><text fill="#000000" font-family="sans-serif" font-size="13" font-weight="bold" lengthAdjust="spacing" textLength="14" x="80.5" y="543.7236">18</text><text fill="#000000" font-family="sans-serif" font-size="13" lengthAdjust="spacing" textLength="98" x="98.5" y="543.7236">chooses job offer</text><polygon fill="#181818" points="521.5,576.2773,531.5,580.2773,521.5,584.2773,525.5,580.2773" style="stroke:#181818;stroke-width:1.0;"/><line style="stroke:#181818;stroke-width:1.0;" x1="291.5" x2="527.5" y1="580.2773" y2="580.2773"/><text fill="#000000" font-family="sans-serif" font-size="13" font-weight="bold" lengthAdjust="spacing" textLength="14" x="298.5" y="575.0146">19</text><text fill="#000000" font-family="sans-serif" font-size="13" lengthAdjust="spacing" textLength="200" x="316.5" y="575.0146">publishResults(jobOffer, password)</text><polygon fill="#181818" points="835.5,607.5684,845.5,611.5684,835.5,615.5684,839.5,611.5684" style="stroke:#181818;stroke-width:1.0;"/><line style="stroke:#181818;stroke-width:1.0;" x1="538.5" x2="841.5" y1="611.5684" y2="611.5684"/><text fill="#000000" font-family="sans-serif" font-size="13" font-weight="bold" lengthAdjust="spacing" textLength="14" x="545.5" y="606.3057">20</text><text fill="#000000" font-family="sans-serif" font-size="13" lengthAdjust="spacing" textLength="267" x="563.5" y="606.3057">ResultsNotificationHandler(jobOffer, password)</text><polygon fill="#181818" points="991.5,638.8594,1001.5,642.8594,991.5,646.8594,995.5,642.8594" style="stroke:#181818;stroke-width:1.0;"/><line style="stroke:#181818;stroke-width:1.0;" x1="852.5" x2="997.5" y1="642.8594" y2="642.8594"/><text fill="#000000" font-family="sans-serif" font-size="13" font-weight="bold" lengthAdjust="spacing" textLength="14" x="859.5" y="637.5967">21</text><text fill="#000000" font-family="sans-serif" font-size="13" lengthAdjust="spacing" textLength="4" x="877.5" y="637.5967">&#160;</text><rect fill="none" height="43.252" style="stroke:#000000;stroke-width:1.5;" width="220" x="949" y="650.8594"/><path d="M949,650.8594 L1011,650.8594 L1011,659.8594 L1001,669.8594 L949,669.8594 L949,650.8594 " fill="#EEEEEE" style="stroke:#000000;stroke-width:2.0;"/><text fill="#000000" font-family="sans-serif" font-size="13" font-weight="bold" lengthAdjust="spacing" textLength="17" x="962" y="666.8877">ref</text><text fill="#000000" font-family="sans-serif" font-size="12" lengthAdjust="spacing" textLength="212" x="953" y="686.8086">Refer to us-1020-SD-server-interaction</text><polygon fill="#181818" points="868.5,718.4023,858.5,722.4023,868.5,726.4023,864.5,722.4023" style="stroke:#181818;stroke-width:1.0;"/><line style="stroke:#181818;stroke-width:1.0;stroke-dasharray:2.0,2.0;" x1="862.5" x2="1007.5" y1="722.4023" y2="722.4023"/><text fill="#000000" font-family="sans-serif" font-size="13" font-weight="bold" lengthAdjust="spacing" textLength="14" x="874.5" y="717.1396">34</text><text fill="#000000" font-family="sans-serif" font-size="13" lengthAdjust="spacing" textLength="4" x="892.5" y="717.1396">&#160;</text><polygon fill="#181818" points="554.5,749.6934,544.5,753.6934,554.5,757.6934,550.5,753.6934" style="stroke:#181818;stroke-width:1.0;"/><line style="stroke:#181818;stroke-width:1.0;stroke-dasharray:2.0,2.0;" x1="548.5" x2="851.5" y1="753.6934" y2="753.6934"/><text fill="#000000" font-family="sans-serif" font-size="13" font-weight="bold" lengthAdjust="spacing" textLength="14" x="560.5" y="748.4307">35</text><text fill="#000000" font-family="sans-serif" font-size="13" lengthAdjust="spacing" textLength="4" x="578.5" y="748.4307">&#160;</text><polygon fill="#181818" points="307.5,780.9844,297.5,784.9844,307.5,788.9844,303.5,784.9844" style="stroke:#181818;stroke-width:1.0;"/><line style="stroke:#181818;stroke-width:1.0;stroke-dasharray:2.0,2.0;" x1="301.5" x2="537.5" y1="784.9844" y2="784.9844"/><text fill="#000000" font-family="sans-serif" font-size="13" font-weight="bold" lengthAdjust="spacing" textLength="14" x="313.5" y="779.7217">36</text><text fill="#000000" font-family="sans-serif" font-size="13" lengthAdjust="spacing" textLength="4" x="331.5" y="779.7217">&#160;</text><polygon fill="#181818" points="84.5,812.2754,74.5,816.2754,84.5,820.2754,80.5,816.2754" style="stroke:#181818;stroke-width:1.0;"/><line style="stroke:#181818;stroke-width:1.0;stroke-dasharray:2.0,2.0;" x1="78.5" x2="290.5" y1="816.2754" y2="816.2754"/><text fill="#000000" font-family="sans-serif" font-size="13" font-weight="bold" lengthAdjust="spacing" textLength="14" x="90.5" y="811.0127">37</text><text fill="#000000" font-family="sans-serif" font-size="13" lengthAdjust="spacing" textLength="4" x="108.5" y="811.0127">&#160;</text><!--SRC=[hL9DJzmm4BtxLrXSkaXD5rfE72gXNH0WIgkasxlNcR0kZXty0Ug_xzXnI5AoD5JroPdCUvvvxxtRETVOq-MoaKmvNyiFNDTB2myU58Ui5EpEi9eG9vm4kYcEZpuUqOn-yrifx8vUwotzMbLWi5Qi2M7UQUNhBHYySwSDFLXvwtID7L-OOdTW3YYpDFuZ3JDESD7WonrZ0HAu4rhbOBrqTdCLsZTNStfNMZcZfSIt4BFwdj-CKAdhLZjH2Su2y9AfChLVdjskRyxp4U82oVJJfYd0FBPTnNd-0vj8t4uyCWTfbNRPx3EEIa-f2VfPPwdJj4bICVeJnT91h1wCYo40OM5Q1783M5uSnYgMMze1OOMVeWI5VloYEDJpAgI48Uju7g4QZ-340YKMAhr_YageyapAQAnTDCpQ9stAmvTFjFUeT8GYHT8HMVRhFKqPQPw_EZywFgHEuWyWNHCnK54TF4ez54yE8PVeWBTPY6rMh3CRdSo4Sc1Op0u1LQ8mrS3HnD5dcHwVaBOOJUbNH4TRaOP3TV2zc_H2J-Ax_YbzEqCdWMC1awbJ8Ggf5Fn-5CdNuiDtMbkmSmASqfwyNtHplgVpKlIs6Fs5VMwW_azw-hHyEddLplJ8oq3zIuZU59pPOVd3etH-0m00]--></g></svg>