<?xml version="1.0" encoding="us-ascii" standalone="no"?><svg xmlns="http://www.w3.org/2000/svg" xmlns:xlink="http://www.w3.org/1999/xlink" contentStyleType="text/css" height="976px" preserveAspectRatio="none" style="width:756px;height:976px;background:#FFFFFF;" version="1.1" viewBox="0 0 756 976" width="756px" zoomAndPan="magnify"><defs/><g><text fill="#000000" font-family="sans-serif" font-size="14" font-weight="bold" lengthAdjust="spacing" textLength="180" x="289.75" y="30.1074">US1020 - Client Server SD</text><rect fill="#FFFFFF" height="232.0371" style="stroke:#181818;stroke-width:1.0;" width="10" x="89.5" y="111.5332"/><rect fill="#FFFFFF" height="125.1641" style="stroke:#181818;stroke-width:1.0;" width="10" x="89.5" y="374.8613"/><rect fill="#FFFFFF" height="31.291" style="stroke:#181818;stroke-width:1.0;" width="10" x="89.5" y="889.2266"/><rect fill="#FFFFFF" height="841.2754" style="stroke:#181818;stroke-width:1.0;" width="10" x="398.5" y="88.2422"/><rect fill="#FFFFFF" height="31.291" style="stroke:#181818;stroke-width:1.0;" width="10" x="689.5" y="249.6973"/><rect fill="#FFFFFF" height="93.873" style="stroke:#181818;stroke-width:1.0;" width="10" x="689.5" y="601.8984"/><rect fill="none" height="299.6191" style="stroke:#000000;stroke-width:1.5;" width="601.5" x="149" y="559.3164"/><rect fill="none" height="96.873" style="stroke:#000000;stroke-width:1.5;" width="535" x="159" y="710.7715"/><rect fill="none" height="63.582" style="stroke:#000000;stroke-width:1.5;" width="515" x="169" y="737.0625"/><line style="stroke:#181818;stroke-width:0.5;stroke-dasharray:5.0,5.0;" x1="94" x2="94" y1="78.2422" y2="938.5176"/><line style="stroke:#181818;stroke-width:0.5;stroke-dasharray:5.0,5.0;" x1="403" x2="403" y1="78.2422" y2="938.5176"/><line style="stroke:#181818;stroke-width:0.5;stroke-dasharray:5.0,5.0;" x1="694.5" x2="694.5" y1="78.2422" y2="938.5176"/><rect fill="#E2E2F0" height="32.6211" rx="2.5" ry="2.5" style="stroke:#181818;stroke-width:0.5;" width="179" x="5" y="44.6211"/><text fill="#000000" font-family="sans-serif" font-size="14" lengthAdjust="spacing" textLength="165" x="12" y="66.7285">ResultsNotificationHandler</text><rect fill="#E2E2F0" height="32.6211" rx="2.5" ry="2.5" style="stroke:#181818;stroke-width:0.5;" width="179" x="5" y="937.5176"/><text fill="#000000" font-family="sans-serif" font-size="14" lengthAdjust="spacing" textLength="165" x="12" y="959.625">ResultsNotificationHandler</text><rect fill="#E2E2F0" height="32.6211" rx="2.5" ry="2.5" style="stroke:#181818;stroke-width:0.5;" width="113" x="347" y="44.6211"/><text fill="#000000" font-family="sans-serif" font-size="14" lengthAdjust="spacing" textLength="99" x="354" y="66.7285">FollowUpServer</text><rect fill="#E2E2F0" height="32.6211" rx="2.5" ry="2.5" style="stroke:#181818;stroke-width:0.5;" width="113" x="347" y="937.5176"/><text fill="#000000" font-family="sans-serif" font-size="14" lengthAdjust="spacing" textLength="99" x="354" y="959.625">FollowUpServer</text><rect fill="#E2E2F0" height="32.6211" rx="2.5" ry="2.5" style="stroke:#181818;stroke-width:0.5;" width="92" x="648.5" y="44.6211"/><text fill="#000000" font-family="sans-serif" font-size="14" lengthAdjust="spacing" textLength="78" x="655.5" y="66.7285">H2Database</text><rect fill="#E2E2F0" height="32.6211" rx="2.5" ry="2.5" style="stroke:#181818;stroke-width:0.5;" width="92" x="648.5" y="937.5176"/><text fill="#000000" font-family="sans-serif" font-size="14" lengthAdjust="spacing" textLength="78" x="655.5" y="959.625">H2Database</text><rect fill="#FFFFFF" height="232.0371" style="stroke:#181818;stroke-width:1.0;" width="10" x="89.5" y="111.5332"/><rect fill="#FFFFFF" height="125.1641" style="stroke:#181818;stroke-width:1.0;" width="10" x="89.5" y="374.8613"/><rect fill="#FFFFFF" height="31.291" style="stroke:#181818;stroke-width:1.0;" width="10" x="89.5" y="889.2266"/><rect fill="#FFFFFF" height="841.2754" style="stroke:#181818;stroke-width:1.0;" width="10" x="398.5" y="88.2422"/><rect fill="#FFFFFF" height="31.291" style="stroke:#181818;stroke-width:1.0;" width="10" x="689.5" y="249.6973"/><rect fill="#FFFFFF" height="93.873" style="stroke:#181818;stroke-width:1.0;" width="10" x="689.5" y="601.8984"/><polygon fill="#181818" points="77.5,107.5332,87.5,111.5332,77.5,115.5332,81.5,111.5332" style="stroke:#181818;stroke-width:1.0;"/><line style="stroke:#181818;stroke-width:1.0;" x1="0" x2="83.5" y1="111.5332" y2="111.5332"/><text fill="#000000" font-family="sans-serif" font-size="13" font-weight="bold" lengthAdjust="spacing" textLength="7" x="7" y="106.2705">7</text><text fill="#000000" font-family="sans-serif" font-size="13" lengthAdjust="spacing" textLength="4" x="18" y="106.2705">&#160;</text><polygon fill="#181818" points="386.5,138.8242,396.5,142.8242,386.5,146.8242,390.5,142.8242" style="stroke:#181818;stroke-width:1.0;"/><line style="stroke:#181818;stroke-width:1.0;" x1="99.5" x2="392.5" y1="142.8242" y2="142.8242"/><text fill="#000000" font-family="sans-serif" font-size="13" font-weight="bold" lengthAdjust="spacing" textLength="7" x="106.5" y="137.5615">8</text><text fill="#000000" font-family="sans-serif" font-size="13" lengthAdjust="spacing" textLength="197" x="117.5" y="137.5615">sendVersionAndCode(sOut, code)</text><polygon fill="#181818" points="386.5,170.1152,396.5,174.1152,386.5,178.1152,390.5,174.1152" style="stroke:#181818;stroke-width:1.0;"/><line style="stroke:#181818;stroke-width:1.0;" x1="99.5" x2="392.5" y1="174.1152" y2="174.1152"/><text fill="#000000" font-family="sans-serif" font-size="13" font-weight="bold" lengthAdjust="spacing" textLength="7" x="106.5" y="168.8525">9</text><text fill="#000000" font-family="sans-serif" font-size="13" lengthAdjust="spacing" textLength="257" x="117.5" y="168.8525">sendCredentials(sOut, username, password)</text><line style="stroke:#181818;stroke-width:1.0;" x1="408.5" x2="450.5" y1="205.4063" y2="205.4063"/><line style="stroke:#181818;stroke-width:1.0;" x1="450.5" x2="450.5" y1="205.4063" y2="218.4063"/><line style="stroke:#181818;stroke-width:1.0;" x1="409.5" x2="450.5" y1="218.4063" y2="218.4063"/><polygon fill="#181818" points="419.5,214.4063,409.5,218.4063,419.5,222.4063,415.5,218.4063" style="stroke:#181818;stroke-width:1.0;"/><text fill="#000000" font-family="sans-serif" font-size="13" font-weight="bold" lengthAdjust="spacing" textLength="14" x="415.5" y="200.1436">10</text><text fill="#000000" font-family="sans-serif" font-size="13" lengthAdjust="spacing" textLength="83" x="433.5" y="200.1436">retrieveOffers()</text><polygon fill="#181818" points="677.5,245.6973,687.5,249.6973,677.5,253.6973,681.5,249.6973" style="stroke:#181818;stroke-width:1.0;"/><line style="stroke:#181818;stroke-width:1.0;" x1="408.5" x2="683.5" y1="249.6973" y2="249.6973"/><text fill="#000000" font-family="sans-serif" font-size="13" font-weight="bold" lengthAdjust="spacing" textLength="14" x="415.5" y="244.4346">11</text><text fill="#000000" font-family="sans-serif" font-size="13" lengthAdjust="spacing" textLength="165" x="433.5" y="244.4346">findAllOffersOfManager(user)</text><polygon fill="#181818" points="419.5,276.9883,409.5,280.9883,419.5,284.9883,415.5,280.9883" style="stroke:#181818;stroke-width:1.0;"/><line style="stroke:#181818;stroke-width:1.0;stroke-dasharray:2.0,2.0;" x1="413.5" x2="693.5" y1="280.9883" y2="280.9883"/><text fill="#000000" font-family="sans-serif" font-size="13" font-weight="bold" lengthAdjust="spacing" textLength="14" x="425.5" y="275.7256">12</text><text fill="#000000" font-family="sans-serif" font-size="13" lengthAdjust="spacing" textLength="31" x="443.5" y="275.7256">offers</text><polygon fill="#181818" points="110.5,308.2793,100.5,312.2793,110.5,316.2793,106.5,312.2793" style="stroke:#181818;stroke-width:1.0;"/><line style="stroke:#181818;stroke-width:1.0;stroke-dasharray:2.0,2.0;" x1="104.5" x2="397.5" y1="312.2793" y2="312.2793"/><text fill="#000000" font-family="sans-serif" font-size="13" font-weight="bold" lengthAdjust="spacing" textLength="14" x="116.5" y="307.0166">13</text><text fill="#000000" font-family="sans-serif" font-size="13" lengthAdjust="spacing" textLength="31" x="134.5" y="307.0166">offers</text><polygon fill="#181818" points="11,339.5703,1,343.5703,11,347.5703,7,343.5703" style="stroke:#181818;stroke-width:1.0;"/><line style="stroke:#181818;stroke-width:1.0;stroke-dasharray:2.0,2.0;" x1="5" x2="93.5" y1="343.5703" y2="343.5703"/><text fill="#000000" font-family="sans-serif" font-size="13" font-weight="bold" lengthAdjust="spacing" textLength="14" x="17" y="338.3076">14</text><text fill="#000000" font-family="sans-serif" font-size="13" lengthAdjust="spacing" textLength="31" x="35" y="338.3076">offers</text><polygon fill="#181818" points="77.5,370.8613,87.5,374.8613,77.5,378.8613,81.5,374.8613" style="stroke:#181818;stroke-width:1.0;"/><line style="stroke:#181818;stroke-width:1.0;" x1="0" x2="83.5" y1="374.8613" y2="374.8613"/><text fill="#000000" font-family="sans-serif" font-size="13" font-weight="bold" lengthAdjust="spacing" textLength="14" x="7" y="369.5986">21</text><text fill="#000000" font-family="sans-serif" font-size="13" lengthAdjust="spacing" textLength="4" x="25" y="369.5986">&#160;</text><polygon fill="#181818" points="386.5,402.1523,396.5,406.1523,386.5,410.1523,390.5,406.1523" style="stroke:#181818;stroke-width:1.0;"/><line style="stroke:#181818;stroke-width:1.0;" x1="99.5" x2="392.5" y1="406.1523" y2="406.1523"/><text fill="#000000" font-family="sans-serif" font-size="13" font-weight="bold" lengthAdjust="spacing" textLength="14" x="106.5" y="400.8896">22</text><text fill="#000000" font-family="sans-serif" font-size="13" lengthAdjust="spacing" textLength="197" x="124.5" y="400.8896">sendVersionAndCode(sOut, code)</text><polygon fill="#181818" points="386.5,433.4434,396.5,437.4434,386.5,441.4434,390.5,437.4434" style="stroke:#181818;stroke-width:1.0;"/><line style="stroke:#181818;stroke-width:1.0;" x1="99.5" x2="392.5" y1="437.4434" y2="437.4434"/><text fill="#000000" font-family="sans-serif" font-size="13" font-weight="bold" lengthAdjust="spacing" textLength="14" x="106.5" y="432.1807">23</text><text fill="#000000" font-family="sans-serif" font-size="13" lengthAdjust="spacing" textLength="257" x="124.5" y="432.1807">sendCredentials(sOut, username, password)</text><polygon fill="#181818" points="386.5,464.7344,396.5,468.7344,386.5,472.7344,390.5,468.7344" style="stroke:#181818;stroke-width:1.0;"/><line style="stroke:#181818;stroke-width:1.0;" x1="99.5" x2="392.5" y1="468.7344" y2="468.7344"/><text fill="#000000" font-family="sans-serif" font-size="13" font-weight="bold" lengthAdjust="spacing" textLength="14" x="106.5" y="463.4717">24</text><text fill="#000000" font-family="sans-serif" font-size="13" lengthAdjust="spacing" textLength="197" x="124.5" y="463.4717">sendVersionAndCode(sOut, code)</text><polygon fill="#181818" points="386.5,496.0254,396.5,500.0254,386.5,504.0254,390.5,500.0254" style="stroke:#181818;stroke-width:1.0;"/><line style="stroke:#181818;stroke-width:1.0;" x1="94.5" x2="392.5" y1="500.0254" y2="500.0254"/><text fill="#000000" font-family="sans-serif" font-size="13" font-weight="bold" lengthAdjust="spacing" textLength="14" x="101.5" y="494.7627">25</text><text fill="#000000" font-family="sans-serif" font-size="13" lengthAdjust="spacing" textLength="158" x="119.5" y="494.7627">sendEmail(message, sOut)</text><line style="stroke:#181818;stroke-width:1.0;" x1="408.5" x2="450.5" y1="531.3164" y2="531.3164"/><line style="stroke:#181818;stroke-width:1.0;" x1="450.5" x2="450.5" y1="531.3164" y2="544.3164"/><line style="stroke:#181818;stroke-width:1.0;" x1="409.5" x2="450.5" y1="544.3164" y2="544.3164"/><polygon fill="#181818" points="419.5,540.3164,409.5,544.3164,419.5,548.3164,415.5,544.3164" style="stroke:#181818;stroke-width:1.0;"/><text fill="#000000" font-family="sans-serif" font-size="13" font-weight="bold" lengthAdjust="spacing" textLength="14" x="415.5" y="526.0537">26</text><text fill="#000000" font-family="sans-serif" font-size="13" lengthAdjust="spacing" textLength="152" x="433.5" y="526.0537">emailParticipants(offerInfo)</text><path d="M149,559.3164 L305,559.3164 L305,568.6074 L295,578.6074 L149,578.6074 L149,559.3164 " fill="#EEEEEE" style="stroke:#000000;stroke-width:1.5;"/><rect fill="none" height="299.6191" style="stroke:#000000;stroke-width:1.5;" width="601.5" x="149" y="559.3164"/><text fill="#000000" font-family="sans-serif" font-size="13" font-weight="bold" lengthAdjust="spacing" textLength="111" x="164" y="574.3447">emailParticipants</text><polygon fill="#181818" points="677.5,597.8984,687.5,601.8984,677.5,605.8984,681.5,601.8984" style="stroke:#181818;stroke-width:1.0;"/><line style="stroke:#181818;stroke-width:1.0;" x1="408.5" x2="683.5" y1="601.8984" y2="601.8984"/><text fill="#000000" font-family="sans-serif" font-size="13" font-weight="bold" lengthAdjust="spacing" textLength="14" x="415.5" y="596.6357">27</text><text fill="#000000" font-family="sans-serif" font-size="13" lengthAdjust="spacing" textLength="107" x="433.5" y="596.6357">findByRef(offerInfo)</text><polygon fill="#181818" points="419.5,629.1895,409.5,633.1895,419.5,637.1895,415.5,633.1895" style="stroke:#181818;stroke-width:1.0;"/><line style="stroke:#181818;stroke-width:1.0;stroke-dasharray:2.0,2.0;" x1="413.5" x2="688.5" y1="633.1895" y2="633.1895"/><text fill="#000000" font-family="sans-serif" font-size="13" font-weight="bold" lengthAdjust="spacing" textLength="14" x="425.5" y="627.9268">28</text><text fill="#000000" font-family="sans-serif" font-size="13" lengthAdjust="spacing" textLength="44" x="443.5" y="627.9268">jobOffer</text><polygon fill="#181818" points="677.5,660.4805,687.5,664.4805,677.5,668.4805,681.5,664.4805" style="stroke:#181818;stroke-width:1.0;"/><line style="stroke:#181818;stroke-width:1.0;" x1="408.5" x2="683.5" y1="664.4805" y2="664.4805"/><text fill="#000000" font-family="sans-serif" font-size="13" font-weight="bold" lengthAdjust="spacing" textLength="14" x="415.5" y="659.2178">29</text><text fill="#000000" font-family="sans-serif" font-size="13" lengthAdjust="spacing" textLength="181" x="433.5" y="659.2178">getRankingsofJobOffer(jobOffer)</text><polygon fill="#181818" points="419.5,691.7715,409.5,695.7715,419.5,699.7715,415.5,695.7715" style="stroke:#181818;stroke-width:1.0;"/><line style="stroke:#181818;stroke-width:1.0;stroke-dasharray:2.0,2.0;" x1="413.5" x2="693.5" y1="695.7715" y2="695.7715"/><text fill="#000000" font-family="sans-serif" font-size="13" font-weight="bold" lengthAdjust="spacing" textLength="14" x="425.5" y="690.5088">30</text><text fill="#000000" font-family="sans-serif" font-size="13" lengthAdjust="spacing" textLength="49" x="443.5" y="690.5088">rankings</text><path d="M159,710.7715 L232,710.7715 L232,720.0625 L222,730.0625 L159,730.0625 L159,710.7715 " fill="#EEEEEE" style="stroke:#000000;stroke-width:1.5;"/><rect fill="none" height="96.873" style="stroke:#000000;stroke-width:1.5;" width="535" x="159" y="710.7715"/><text fill="#000000" font-family="sans-serif" font-size="13" font-weight="bold" lengthAdjust="spacing" textLength="28" x="174" y="725.7998">loop</text><text fill="#000000" font-family="sans-serif" font-size="11" font-weight="bold" lengthAdjust="spacing" textLength="173" x="247" y="724.6416">[for all rankings in applications]</text><path d="M169,737.0625 L234,737.0625 L234,746.3535 L224,756.3535 L169,756.3535 L169,737.0625 " fill="#EEEEEE" style="stroke:#000000;stroke-width:1.5;"/><rect fill="none" height="63.582" style="stroke:#000000;stroke-width:1.5;" width="515" x="169" y="737.0625"/><text fill="#000000" font-family="sans-serif" font-size="13" font-weight="bold" lengthAdjust="spacing" textLength="20" x="184" y="752.0908">opt</text><text fill="#000000" font-family="sans-serif" font-size="11" font-weight="bold" lengthAdjust="spacing" textLength="172" x="249" y="750.9326">[ApplicationState == ACCEPTED]</text><line style="stroke:#181818;stroke-width:1.0;" x1="408.5" x2="450.5" y1="779.6445" y2="779.6445"/><line style="stroke:#181818;stroke-width:1.0;" x1="450.5" x2="450.5" y1="779.6445" y2="792.6445"/><line style="stroke:#181818;stroke-width:1.0;" x1="409.5" x2="450.5" y1="792.6445" y2="792.6445"/><polygon fill="#181818" points="419.5,788.6445,409.5,792.6445,419.5,796.6445,415.5,792.6445" style="stroke:#181818;stroke-width:1.0;"/><text fill="#000000" font-family="sans-serif" font-size="13" font-weight="bold" lengthAdjust="spacing" textLength="14" x="415.5" y="774.3818">31</text><text fill="#000000" font-family="sans-serif" font-size="13" lengthAdjust="spacing" textLength="249" x="433.5" y="774.3818">TcpSrvEmailThread(from, to, subject, body)</text><path d="M179,764.8535 L179,791.8535 L393,791.8535 L393,774.8535 L383,764.8535 L179,764.8535 " fill="#FEFFDD" style="stroke:#181818;stroke-width:0.5;"/><path d="M383,764.8535 L383,774.8535 L393,774.8535 L383,764.8535 " fill="#FEFFDD" style="stroke:#181818;stroke-width:0.5;"/><text fill="#000000" font-family="sans-serif" font-size="13" lengthAdjust="spacing" textLength="193" x="185" y="783.8818">sends the email to the candidate.</text><line style="stroke:#181818;stroke-width:1.0;" x1="408.5" x2="450.5" y1="837.9355" y2="837.9355"/><line style="stroke:#181818;stroke-width:1.0;" x1="450.5" x2="450.5" y1="837.9355" y2="850.9355"/><line style="stroke:#181818;stroke-width:1.0;" x1="409.5" x2="450.5" y1="850.9355" y2="850.9355"/><polygon fill="#181818" points="419.5,846.9355,409.5,850.9355,419.5,854.9355,415.5,850.9355" style="stroke:#181818;stroke-width:1.0;"/><text fill="#000000" font-family="sans-serif" font-size="13" font-weight="bold" lengthAdjust="spacing" textLength="14" x="415.5" y="832.6729">32</text><text fill="#000000" font-family="sans-serif" font-size="13" lengthAdjust="spacing" textLength="249" x="433.5" y="832.6729">TcpSrvEmailThread(from, to, subject, body)</text><path d="M181,823.1445 L181,850.1445 L393,850.1445 L393,833.1445 L383,823.1445 L181,823.1445 " fill="#FEFFDD" style="stroke:#181818;stroke-width:0.5;"/><path d="M383,823.1445 L383,833.1445 L393,833.1445 L383,823.1445 " fill="#FEFFDD" style="stroke:#181818;stroke-width:0.5;"/><text fill="#000000" font-family="sans-serif" font-size="13" lengthAdjust="spacing" textLength="191" x="187" y="842.1729">sends the email to the customer.</text><polygon fill="#181818" points="110.5,885.2266,100.5,889.2266,110.5,893.2266,106.5,889.2266" style="stroke:#181818;stroke-width:1.0;"/><line style="stroke:#181818;stroke-width:1.0;stroke-dasharray:2.0,2.0;" x1="104.5" x2="397.5" y1="889.2266" y2="889.2266"/><text fill="#000000" font-family="sans-serif" font-size="13" font-weight="bold" lengthAdjust="spacing" textLength="14" x="116.5" y="883.9639">33</text><text fill="#000000" font-family="sans-serif" font-size="13" lengthAdjust="spacing" textLength="4" x="134.5" y="883.9639">&#160;</text><polygon fill="#181818" points="11,916.5176,1,920.5176,11,924.5176,7,920.5176" style="stroke:#181818;stroke-width:1.0;"/><line style="stroke:#181818;stroke-width:1.0;stroke-dasharray:2.0,2.0;" x1="5" x2="93.5" y1="920.5176" y2="920.5176"/><text fill="#000000" font-family="sans-serif" font-size="13" font-weight="bold" lengthAdjust="spacing" textLength="14" x="17" y="915.2549">34</text><text fill="#000000" font-family="sans-serif" font-size="13" lengthAdjust="spacing" textLength="4" x="35" y="915.2549">&#160;</text><!--SRC=[pLJ1SjiW4Btp5TmgprXsuajdCardRCiTjzF66Sd97OkLJOg00d8cVzz5bcMfLcuvb1CixpsMjmkV3juRTpUT6icKhqevoNKvTV2d0fL3p0NRMrOIueMNG9-osvlP3OtfKWfGdcPWZs1fbX1YcFKY5mPLQ0gkajuzQ2yAaJClj5epnIL2cQFh-KFoSvNs6D-qbFhroJI2YCfMwJE2MEx5aNauhxkazInXdksOWq185eImocjLbJkK-4n8_BKzgvKv1qWpeGWwITCxwa3nPx0EyvqhljGS8hUf_9ZcE1szprbQu6Y7OD8rXCg1LQo4CJNCkLTjET8RJfTjmLi1HzWK1PuRZJgOP87xXL1yBkLfUrFyOehjmKP1VdIv55uTqN5NMDSCmg4BEejVZBaWoPSulevs-Arp7PDdj_-ToHzvvAfaGaObE8UkZsdW87h0au7AGk0-NhhLHRMbtrMXKMDlTMMkCOJY66Y1nLiAHLSWuBgL3Uj_M-15x-g-6HBTWq-P-YtKtkdYHmECpepHe9vj2FLclx7gaDJQq4BZwvMo1LEXA3D6Dj_0YHo6DfxEBnkP3rBtztI-NAuUjwka1VQpRxFPvYQpnxf2suC5ngF2wd9ClSP2LRiNoB6-EytVHgGdfJIU8w7mlMWOeUAE-WESwe9AzIB7dqjmp6xIOo2urYBT05wAdEV13a8-AFlhhD_Bjd9Ubs0df9TacDGzD_YYh_-5wxVS-Hu6DKxZBm00]--></g></svg>