<?xml version="1.0" encoding="us-ascii" standalone="no"?><svg xmlns="http://www.w3.org/2000/svg" xmlns:xlink="http://www.w3.org/1999/xlink" contentStyleType="text/css" height="742px" preserveAspectRatio="none" style="width:927px;height:742px;background:#FFFFFF;" version="1.1" viewBox="0 0 927 742" width="927px" zoomAndPan="magnify"><defs/><g><!--class ResultsNotificationHandler--><g id="elem_ResultsNotificationHandler"><rect codeLine="2" fill="#F1F1F1" height="327.3164" id="ResultsNotificationHandler" rx="2.5" ry="2.5" style="stroke:#181818;stroke-width:0.5;" width="590" x="330.5" y="189"/><ellipse cx="538.75" cy="205" fill="#ADD1B2" rx="11" ry="11" style="stroke:#181818;stroke-width:1.0;"/><path d="M541.5156,200.875 Q541.6719,200.6563 541.8594,200.5469 Q542.0469,200.4375 542.2656,200.4375 Q542.6406,200.4375 542.875,200.7031 Q543.1094,200.9531 543.1094,201.5625 L543.1094,203.0156 Q543.1094,203.625 542.875,203.8906 Q542.6406,204.1563 542.2656,204.1563 Q541.9219,204.1563 541.7188,203.9531 Q541.5156,203.7656 541.4063,203.25 Q541.3594,202.8906 541.1719,202.7031 Q540.8438,202.3281 540.2344,202.1094 Q539.625,201.8906 539,201.8906 Q538.2344,201.8906 537.5938,202.2188 Q536.9688,202.5469 536.4688,203.2969 Q535.9844,204.0469 535.9844,205.0781 L535.9844,206.1719 Q535.9844,207.4063 536.875,208.2344 Q537.7656,209.0469 539.3594,209.0469 Q540.2969,209.0469 540.9531,208.7969 Q541.3438,208.6406 541.7656,208.2031 Q542.0313,207.9375 542.1719,207.8594 Q542.3281,207.7813 542.5313,207.7813 Q542.8594,207.7813 543.1094,208.0469 Q543.375,208.2969 543.375,208.6406 Q543.375,208.9844 543.0313,209.3906 Q542.5313,209.9688 541.7344,210.2969 Q540.6563,210.75 539.3594,210.75 Q537.8438,210.75 536.6406,210.125 Q535.6563,209.625 534.9688,208.5625 Q534.2813,207.4844 534.2813,206.2031 L534.2813,205.0469 Q534.2813,203.7188 534.8906,202.5781 Q535.5156,201.4219 536.6094,200.8125 Q537.7031,200.1875 538.9375,200.1875 Q539.6719,200.1875 540.3125,200.3594 Q540.9688,200.5156 541.5156,200.875 Z " fill="#000000"/><text fill="#000000" font-family="sans-serif" font-size="14" lengthAdjust="spacing" textLength="165" x="559.25" y="210.7969">ResultsNotificationHandler</text><line style="stroke:#181818;stroke-width:0.5;" x1="331.5" x2="919.5" y1="221" y2="221"/><rect fill="none" height="6" style="stroke:#C82930;stroke-width:1.0;" width="6" x="338.5" y="232.8105"/><text fill="#000000" font-family="sans-serif" font-size="14" lengthAdjust="spacing" textLength="201" x="350.5" y="240.1074">final AuthorizationService authz;</text><rect fill="none" height="6" style="stroke:#C82930;stroke-width:1.0;" width="6" x="338.5" y="251.4316"/><text fill="#000000" font-family="sans-serif" font-size="14" lengthAdjust="spacing" textLength="229" x="350.5" y="258.7285">static final int ASS_PORT_NUMBER;</text><rect fill="none" height="6" style="stroke:#C82930;stroke-width:1.0;" width="6" x="338.5" y="270.0527"/><text fill="#000000" font-family="sans-serif" font-size="14" lengthAdjust="spacing" textLength="172" x="350.5" y="277.3496">static InetAddress serverIP;</text><rect fill="none" height="6" style="stroke:#C82930;stroke-width:1.0;" width="6" x="338.5" y="288.6738"/><text fill="#000000" font-family="sans-serif" font-size="14" lengthAdjust="spacing" textLength="117" x="350.5" y="295.9707">static Socket sock;</text><rect fill="none" height="6" style="stroke:#C82930;stroke-width:1.0;" width="6" x="338.5" y="307.2949"/><text fill="#000000" font-family="sans-serif" font-size="14" lengthAdjust="spacing" textLength="96" x="350.5" y="314.5918">String serverIp;</text><rect fill="none" height="6" style="stroke:#C82930;stroke-width:1.0;" width="6" x="338.5" y="325.916"/><text fill="#000000" font-family="sans-serif" font-size="14" lengthAdjust="spacing" textLength="105" x="350.5" y="333.2129">String password;</text><rect fill="none" height="6" style="stroke:#C82930;stroke-width:1.0;" width="6" x="338.5" y="344.5371"/><text fill="#000000" font-family="sans-serif" font-size="14" lengthAdjust="spacing" textLength="113" x="350.5" y="351.834">JobOffer jobOffer;</text><line style="stroke:#181818;stroke-width:0.5;" x1="331.5" x2="919.5" y1="359.3477" y2="359.3477"/><ellipse cx="341.5" cy="374.1582" fill="#84BE84" rx="3" ry="3" style="stroke:#038048;stroke-width:1.0;"/><text fill="#000000" font-family="sans-serif" font-size="14" lengthAdjust="spacing" textLength="393" x="350.5" y="378.4551">ResultsNotificationHandler(JobOffer jobOffer, String password)</text><ellipse cx="341.5" cy="392.7793" fill="#84BE84" rx="3" ry="3" style="stroke:#038048;stroke-width:1.0;"/><text fill="#000000" font-family="sans-serif" font-size="14" lengthAdjust="spacing" textLength="276" x="350.5" y="397.0762">ResultsNotificationHandler(String password)</text><ellipse cx="341.5" cy="411.4004" fill="#84BE84" rx="3" ry="3" style="stroke:#038048;stroke-width:1.0;"/><text fill="#000000" font-family="sans-serif" font-size="14" lengthAdjust="spacing" textLength="245" x="350.5" y="415.6973">Iterable&lt;MessageDTO&gt; getJobOffers()</text><ellipse cx="341.5" cy="430.0215" fill="#84BE84" rx="3" ry="3" style="stroke:#038048;stroke-width:1.0;"/><text fill="#000000" font-family="sans-serif" font-size="14" lengthAdjust="spacing" textLength="145" x="350.5" y="434.3184">void emailCandidates()</text><ellipse cx="341.5" cy="448.6426" fill="#84BE84" rx="3" ry="3" style="stroke:#038048;stroke-width:1.0;"/><text fill="#000000" font-family="sans-serif" font-size="14" lengthAdjust="spacing" textLength="424" x="350.5" y="452.9395">void sendEmail(MessageDTO message, ObjectOutputStream sOut)</text><ellipse cx="341.5" cy="467.2637" fill="#84BE84" rx="3" ry="3" style="stroke:#038048;stroke-width:1.0;"/><text fill="#000000" font-family="sans-serif" font-size="14" lengthAdjust="spacing" textLength="436" x="350.5" y="471.5605">static void sendVersionAndCode(ObjectOutputStream sOut, int code)</text><ellipse cx="341.5" cy="485.8848" fill="#84BE84" rx="3" ry="3" style="stroke:#038048;stroke-width:1.0;"/><text fill="#000000" font-family="sans-serif" font-size="14" lengthAdjust="spacing" textLength="564" x="350.5" y="490.1816">static void sendCredentials(ObjectOutputStream sOut, String username, String password)</text><ellipse cx="341.5" cy="504.5059" fill="#84BE84" rx="3" ry="3" style="stroke:#038048;stroke-width:1.0;"/><text fill="#000000" font-family="sans-serif" font-size="14" lengthAdjust="spacing" textLength="153" x="350.5" y="508.8027">static void closeSocket()</text></g><!--class PublishSelectionResultsUI--><g id="elem_PublishSelectionResultsUI"><rect codeLine="20" fill="#F1F1F1" height="122.4844" id="PublishSelectionResultsUI" rx="2.5" ry="2.5" style="stroke:#181818;stroke-width:0.5;" width="399" x="7" y="7"/><ellipse cx="120.75" cy="23" fill="#ADD1B2" rx="11" ry="11" style="stroke:#181818;stroke-width:1.0;"/><path d="M123.5156,18.875 Q123.6719,18.6563 123.8594,18.5469 Q124.0469,18.4375 124.2656,18.4375 Q124.6406,18.4375 124.875,18.7031 Q125.1094,18.9531 125.1094,19.5625 L125.1094,21.0156 Q125.1094,21.625 124.875,21.8906 Q124.6406,22.1563 124.2656,22.1563 Q123.9219,22.1563 123.7188,21.9531 Q123.5156,21.7656 123.4063,21.25 Q123.3594,20.8906 123.1719,20.7031 Q122.8438,20.3281 122.2344,20.1094 Q121.625,19.8906 121,19.8906 Q120.2344,19.8906 119.5938,20.2188 Q118.9688,20.5469 118.4688,21.2969 Q117.9844,22.0469 117.9844,23.0781 L117.9844,24.1719 Q117.9844,25.4063 118.875,26.2344 Q119.7656,27.0469 121.3594,27.0469 Q122.2969,27.0469 122.9531,26.7969 Q123.3438,26.6406 123.7656,26.2031 Q124.0313,25.9375 124.1719,25.8594 Q124.3281,25.7813 124.5313,25.7813 Q124.8594,25.7813 125.1094,26.0469 Q125.375,26.2969 125.375,26.6406 Q125.375,26.9844 125.0313,27.3906 Q124.5313,27.9688 123.7344,28.2969 Q122.6563,28.75 121.3594,28.75 Q119.8438,28.75 118.6406,28.125 Q117.6563,27.625 116.9688,26.5625 Q116.2813,25.4844 116.2813,24.2031 L116.2813,23.0469 Q116.2813,21.7188 116.8906,20.5781 Q117.5156,19.4219 118.6094,18.8125 Q119.7031,18.1875 120.9375,18.1875 Q121.6719,18.1875 122.3125,18.3594 Q122.9688,18.5156 123.5156,18.875 Z " fill="#000000"/><text fill="#000000" font-family="sans-serif" font-size="14" lengthAdjust="spacing" textLength="163" x="141.25" y="28.7969">PublishSelectionResultsUI</text><line style="stroke:#181818;stroke-width:0.5;" x1="8" x2="405" y1="39" y2="39"/><rect fill="none" height="6" style="stroke:#C82930;stroke-width:1.0;" width="6" x="15" y="50.8105"/><text fill="#000000" font-family="sans-serif" font-size="14" lengthAdjust="spacing" textLength="236" x="27" y="58.1074">PublishSelectionResultsController ctrl</text><line style="stroke:#181818;stroke-width:0.5;" x1="8" x2="405" y1="65.6211" y2="65.6211"/><ellipse cx="18" cy="80.4316" fill="#84BE84" rx="3" ry="3" style="stroke:#038048;stroke-width:1.0;"/><text fill="#000000" font-family="sans-serif" font-size="14" lengthAdjust="spacing" textLength="115" x="27" y="84.7285">boolean doShow()</text><ellipse cx="18" cy="99.0527" fill="#84BE84" rx="3" ry="3" style="stroke:#038048;stroke-width:1.0;"/><text fill="#000000" font-family="sans-serif" font-size="14" lengthAdjust="spacing" textLength="105" x="27" y="103.3496">String headline()</text><ellipse cx="18" cy="117.6738" fill="#84BE84" rx="3" ry="3" style="stroke:#038048;stroke-width:1.0;"/><text fill="#000000" font-family="sans-serif" font-size="14" lengthAdjust="spacing" textLength="373" x="27" y="121.9707">JobOffer showJobOffers(Iterable&lt;MessageDTO&gt; jobOffers)</text></g><!--class PublishSelectionResultsController--><g id="elem_PublishSelectionResultsController"><rect codeLine="28" fill="#F1F1F1" height="85.2422" id="PublishSelectionResultsController" rx="2.5" ry="2.5" style="stroke:#181818;stroke-width:0.5;" width="368" x="441.5" y="25.5"/><ellipse cx="514.75" cy="41.5" fill="#ADD1B2" rx="11" ry="11" style="stroke:#181818;stroke-width:1.0;"/><path d="M517.5156,37.375 Q517.6719,37.1563 517.8594,37.0469 Q518.0469,36.9375 518.2656,36.9375 Q518.6406,36.9375 518.875,37.2031 Q519.1094,37.4531 519.1094,38.0625 L519.1094,39.5156 Q519.1094,40.125 518.875,40.3906 Q518.6406,40.6563 518.2656,40.6563 Q517.9219,40.6563 517.7188,40.4531 Q517.5156,40.2656 517.4063,39.75 Q517.3594,39.3906 517.1719,39.2031 Q516.8438,38.8281 516.2344,38.6094 Q515.625,38.3906 515,38.3906 Q514.2344,38.3906 513.5938,38.7188 Q512.9688,39.0469 512.4688,39.7969 Q511.9844,40.5469 511.9844,41.5781 L511.9844,42.6719 Q511.9844,43.9063 512.875,44.7344 Q513.7656,45.5469 515.3594,45.5469 Q516.2969,45.5469 516.9531,45.2969 Q517.3438,45.1406 517.7656,44.7031 Q518.0313,44.4375 518.1719,44.3594 Q518.3281,44.2813 518.5313,44.2813 Q518.8594,44.2813 519.1094,44.5469 Q519.375,44.7969 519.375,45.1406 Q519.375,45.4844 519.0313,45.8906 Q518.5313,46.4688 517.7344,46.7969 Q516.6563,47.25 515.3594,47.25 Q513.8438,47.25 512.6406,46.625 Q511.6563,46.125 510.9688,45.0625 Q510.2813,43.9844 510.2813,42.7031 L510.2813,41.5469 Q510.2813,40.2188 510.8906,39.0781 Q511.5156,37.9219 512.6094,37.3125 Q513.7031,36.6875 514.9375,36.6875 Q515.6719,36.6875 516.3125,36.8594 Q516.9688,37.0156 517.5156,37.375 Z " fill="#000000"/><text fill="#000000" font-family="sans-serif" font-size="14" lengthAdjust="spacing" textLength="213" x="535.25" y="47.2969">PublishSelectionResultsController</text><line style="stroke:#181818;stroke-width:0.5;" x1="442.5" x2="808.5" y1="57.5" y2="57.5"/><line style="stroke:#181818;stroke-width:0.5;" x1="442.5" x2="808.5" y1="65.5" y2="65.5"/><ellipse cx="452.5" cy="80.3105" fill="#84BE84" rx="3" ry="3" style="stroke:#038048;stroke-width:1.0;"/><text fill="#000000" font-family="sans-serif" font-size="14" lengthAdjust="spacing" textLength="342" x="461.5" y="84.6074">Iterable&lt;MessageDTO&gt; findAllOffers(String password)</text><ellipse cx="452.5" cy="98.9316" fill="#84BE84" rx="3" ry="3" style="stroke:#038048;stroke-width:1.0;"/><text fill="#000000" font-family="sans-serif" font-size="14" lengthAdjust="spacing" textLength="328" x="461.5" y="103.2285">void publishResults(JobOffer offer, String password)</text></g><!--class MessageDTO--><g id="elem_MessageDTO"><rect codeLine="33" fill="#F1F1F1" height="159.7266" id="MessageDTO" rx="2.5" ry="2.5" style="stroke:#181818;stroke-width:0.5;" width="198" x="526.5" y="576"/><ellipse cx="577.75" cy="592" fill="#ADD1B2" rx="11" ry="11" style="stroke:#181818;stroke-width:1.0;"/><path d="M580.5156,587.875 Q580.6719,587.6563 580.8594,587.5469 Q581.0469,587.4375 581.2656,587.4375 Q581.6406,587.4375 581.875,587.7031 Q582.1094,587.9531 582.1094,588.5625 L582.1094,590.0156 Q582.1094,590.625 581.875,590.8906 Q581.6406,591.1563 581.2656,591.1563 Q580.9219,591.1563 580.7188,590.9531 Q580.5156,590.7656 580.4063,590.25 Q580.3594,589.8906 580.1719,589.7031 Q579.8438,589.3281 579.2344,589.1094 Q578.625,588.8906 578,588.8906 Q577.2344,588.8906 576.5938,589.2188 Q575.9688,589.5469 575.4688,590.2969 Q574.9844,591.0469 574.9844,592.0781 L574.9844,593.1719 Q574.9844,594.4063 575.875,595.2344 Q576.7656,596.0469 578.3594,596.0469 Q579.2969,596.0469 579.9531,595.7969 Q580.3438,595.6406 580.7656,595.2031 Q581.0313,594.9375 581.1719,594.8594 Q581.3281,594.7813 581.5313,594.7813 Q581.8594,594.7813 582.1094,595.0469 Q582.375,595.2969 582.375,595.6406 Q582.375,595.9844 582.0313,596.3906 Q581.5313,596.9688 580.7344,597.2969 Q579.6563,597.75 578.3594,597.75 Q576.8438,597.75 575.6406,597.125 Q574.6563,596.625 573.9688,595.5625 Q573.2813,594.4844 573.2813,593.2031 L573.2813,592.0469 Q573.2813,590.7188 573.8906,589.5781 Q574.5156,588.4219 575.6094,587.8125 Q576.7031,587.1875 577.9375,587.1875 Q578.6719,587.1875 579.3125,587.3594 Q579.9688,587.5156 580.5156,587.875 Z " fill="#000000"/><text fill="#000000" font-family="sans-serif" font-size="14" lengthAdjust="spacing" textLength="87" x="598.25" y="597.7969">MessageDTO</text><line style="stroke:#181818;stroke-width:0.5;" x1="527.5" x2="723.5" y1="608" y2="608"/><rect fill="none" height="6" style="stroke:#C82930;stroke-width:1.0;" width="6" x="534.5" y="619.8105"/><text fill="#000000" font-family="sans-serif" font-size="14" lengthAdjust="spacing" textLength="172" x="546.5" y="627.1074">static long serialVersionUID</text><rect fill="none" height="6" style="stroke:#C82930;stroke-width:1.0;" width="6" x="534.5" y="638.4316"/><text fill="#000000" font-family="sans-serif" font-size="14" lengthAdjust="spacing" textLength="69" x="546.5" y="645.7285">String data</text><line style="stroke:#181818;stroke-width:0.5;" x1="527.5" x2="723.5" y1="653.2422" y2="653.2422"/><ellipse cx="537.5" cy="668.0527" fill="#84BE84" rx="3" ry="3" style="stroke:#038048;stroke-width:1.0;"/><text fill="#000000" font-family="sans-serif" font-size="14" lengthAdjust="spacing" textLength="166" x="546.5" y="672.3496">MessageDTO(String data)</text><ellipse cx="537.5" cy="686.6738" fill="#84BE84" rx="3" ry="3" style="stroke:#038048;stroke-width:1.0;"/><text fill="#000000" font-family="sans-serif" font-size="14" lengthAdjust="spacing" textLength="101" x="546.5" y="690.9707">String getData()</text><ellipse cx="537.5" cy="705.2949" fill="#84BE84" rx="3" ry="3" style="stroke:#038048;stroke-width:1.0;"/><text fill="#000000" font-family="sans-serif" font-size="14" lengthAdjust="spacing" textLength="100" x="546.5" y="709.5918">String toString()</text><ellipse cx="537.5" cy="723.916" fill="#84BE84" rx="3" ry="3" style="stroke:#038048;stroke-width:1.0;"/><text fill="#000000" font-family="sans-serif" font-size="14" lengthAdjust="spacing" textLength="104" x="546.5" y="728.2129">byte[] getBytes()</text></g><!--link PublishSelectionResultsUI to PublishSelectionResultsController--><g id="link_PublishSelectionResultsUI_PublishSelectionResultsController"><path codeLine="42" d="M406.18,68 C417.89,68 423.6,68 435.31,68 " fill="none" id="PublishSelectionResultsUI-to-PublishSelectionResultsController" style="stroke:#181818;stroke-width:1.0;"/><polygon fill="#181818" points="441.31,68,432.31,64,436.31,68,432.31,72,441.31,68" style="stroke:#181818;stroke-width:1.0;"/></g><!--link PublishSelectionResultsController to ResultsNotificationHandler--><g id="link_PublishSelectionResultsController_ResultsNotificationHandler"><path codeLine="43" d="M625.5,110.68 C625.5,132.17 625.5,153.91 625.5,182.88 " fill="none" id="PublishSelectionResultsController-to-ResultsNotificationHandler" style="stroke:#181818;stroke-width:1.0;stroke-dasharray:7.0,7.0;"/><polygon fill="#181818" points="625.5,188.88,629.5,179.88,625.5,183.88,621.5,179.88,625.5,188.88" style="stroke:#181818;stroke-width:1.0;"/></g><!--link ResultsNotificationHandler to MessageDTO--><g id="link_ResultsNotificationHandler_MessageDTO"><path codeLine="44" d="M625.5,516.16 C625.5,536.88 625.5,551.3 625.5,569.84 " fill="none" id="ResultsNotificationHandler-to-MessageDTO" style="stroke:#181818;stroke-width:1.0;stroke-dasharray:7.0,7.0;"/><polygon fill="#181818" points="625.5,575.84,629.5,566.84,625.5,570.84,621.5,566.84,625.5,575.84" style="stroke:#181818;stroke-width:1.0;"/></g><!--SRC=[ZLJ1JkCm4BttAtmCel03kq8ABH9P2L8rT2-h5NBiQMlMjIjx0WB4l- -aSHkN9e5UudJUlF6yUHEXkVTi3hxIwEyjggKI79Krjzn83OwzZrZuNR2bCbopjCArTUfj1ol0FIi1ZDEVRpyYh4UAYv2Y3BAqA1vd-VpXyNvnTtqpxy1c1Z2LqW7To1Clk6pM0Iki-0V8F3tYQ85EcTK-STiHsbAhBzR9EFJBblboINq-XKCRF1-G9Jd96t-kSlOzee6i3C7nKiFFErA4hs3wa5-n5U2-jazYzBDLai66ApqXQYKvGWV0Wv4tDIXfITccEOvPNZw1mBp2ROLqCU0RvkajPWb3E93zfdjGEwcH4oiXwM4OxomW2374DN4WmQ3YslSJ1S4g6hJX6nZKFIuWjFNGU2V8yZ4QYPtzPrMfbLyNeAaaDHF6jSYEtD-3cbY3pkfwLmGw7LKlhTN03PEsMDkNerc4Ew-1IwqC7CKErlAKrSwwqmrxz_cp4NKpt4vqqT1MZyLePsMgTQZRBM-mqxOf5IgqMs5xLk8WUUI-zzCLrxRPP792yDSYcvukD7cSHyArd4a4w92TTcXAaQw9e6qEHx7o5U7Ftphj-hNTAkgbVlIRv-Bgwr4CKKG3koIk_e_8ZcJW6rvdj-By1m00]--></g></svg>