<?xml version="1.0" encoding="us-ascii" standalone="no"?><svg xmlns="http://www.w3.org/2000/svg" xmlns:xlink="http://www.w3.org/1999/xlink" contentStyleType="text/css" height="760.8px" preserveAspectRatio="none" style="width:901px;height:760px;background:#FFFFFF;" version="1.1" viewBox="0 0 901 760" width="901.2px" zoomAndPan="magnify"><defs/><g><!--cluster JobOfferAggregate--><g id="cluster_JobOfferAggregate"><path d="M396.3,513.6082 L477.9,513.6082 A2.25,2.25 0 0 1 479.4,515.1082 L483.6,528.3809 L895.5,528.3809 A1.5,1.5 0 0 1 897,529.8809 L897,755.1082 A1.5,1.5 0 0 1 895.5,756.6082 L396.3,756.6082 A1.5,1.5 0 0 1 394.8,755.1082 L394.8,515.1082 A1.5,1.5 0 0 1 396.3,513.6082 " fill="none" style="stroke:#000000;stroke-width:0.8999999999999999;"/><line style="stroke:#000000;stroke-width:0.8999999999999999;" x1="394.8" x2="483.6" y1="528.3809" y2="528.3809"/><text fill="#000000" font-family="sans-serif" font-size="8.4" font-weight="bold" lengthAdjust="spacing" textLength="81" x="397.2" y="523.8727">JobOfferAggregate</text></g><!--cluster ApplicationAggregate--><g id="cluster_ApplicationAggregate"><path d="M5.1,325.2082 L96.3,325.2082 A2.25,2.25 0 0 1 97.8,326.7082 L102,339.9809 L612.3,339.9809 A1.5,1.5 0 0 1 613.8,341.4809 L613.8,492.3082 A1.5,1.5 0 0 1 612.3,493.8082 L5.1,493.8082 A1.5,1.5 0 0 1 3.6,492.3082 L3.6,326.7082 A1.5,1.5 0 0 1 5.1,325.2082 " fill="none" style="stroke:#000000;stroke-width:0.8999999999999999;"/><line style="stroke:#000000;stroke-width:0.8999999999999999;" x1="3.6" x2="102" y1="339.9809" y2="339.9809"/><text fill="#000000" font-family="sans-serif" font-size="8.4" font-weight="bold" lengthAdjust="spacing" textLength="90.6" x="6" y="335.4727">ApplicationAggregate</text></g><!--cluster CandidateAggregate--><g id="cluster_CandidateAggregate"><path d="M274.5,3.6082 L361.5,3.6082 A2.25,2.25 0 0 1 363,5.1082 L367.2,18.3809 L403.5,18.3809 A1.5,1.5 0 0 1 405,19.8809 L405,170.7082 A1.5,1.5 0 0 1 403.5,172.2082 L274.5,172.2082 A1.5,1.5 0 0 1 273,170.7082 L273,5.1082 A1.5,1.5 0 0 1 274.5,3.6082 " fill="none" style="stroke:#000000;stroke-width:0.8999999999999999;"/><line style="stroke:#000000;stroke-width:0.8999999999999999;" x1="273" x2="367.2" y1="18.3809" y2="18.3809"/><text fill="#000000" font-family="sans-serif" font-size="8.4" font-weight="bold" lengthAdjust="spacing" textLength="86.4" x="275.4" y="13.8727">CandidateAggregate</text></g><!--class JobOffer--><g id="elem_JobOffer"><rect codeLine="3" fill="#F1F1F1" height="39.9727" id="JobOffer" rx="1.5" ry="1.5" style="stroke:#181818;stroke-width:0.3;" width="54.6" x="618.9" y="548.4082"/><ellipse cx="629.25" cy="558.0082" fill="#ADD1B2" rx="6.6" ry="6.6" style="stroke:#181818;stroke-width:0.6;"/><path d="M628.5656,558.4863 L628.5656,559.9863 L631.1625,559.9863 L631.1625,559.4332 Q631.1625,559.0676 631.3031,558.9082 Q631.4531,558.7488 631.6781,558.7488 Q631.9031,558.7488 632.0437,558.9082 Q632.1844,559.0676 632.1844,559.4332 L632.1844,561.0082 L627.3844,561.0082 Q627.0094,561.0082 626.85,560.8676 Q626.7,560.727 626.7,560.4926 Q626.7,560.2676 626.8594,560.127 Q627.0188,559.9863 627.3844,559.9863 L627.5437,559.9863 L627.5437,555.9926 L627.3844,555.9926 Q627.0094,555.9926 626.85,555.852 Q626.7,555.7113 626.7,555.477 Q626.7,555.252 626.85,555.1113 Q627.0094,554.9707 627.3844,554.9707 L631.9594,554.9707 L631.9594,556.527 Q631.9594,556.8926 631.8188,557.052 Q631.6875,557.202 631.4531,557.202 Q631.2281,557.202 631.0875,557.052 Q630.9469,556.8926 630.9469,556.527 L630.9469,555.9926 L628.5656,555.9926 L628.5656,557.4645 L629.4563,557.4645 Q629.4563,557.0707 629.5313,556.9582 Q629.6906,556.7145 629.9719,556.7145 Q630.1969,556.7145 630.3375,556.8738 Q630.4781,557.0238 630.4781,557.3895 L630.4781,558.5707 Q630.4781,558.8988 630.4031,559.0113 Q630.2438,559.2457 629.9719,559.2457 Q629.6906,559.2457 629.5313,559.002 Q629.4563,558.8895 629.4563,558.4863 L628.5656,558.4863 Z " fill="#000000"/><text fill="#000000" font-family="sans-serif" font-size="8.4" lengthAdjust="spacing" textLength="32.4" x="637.95" y="561.4863">JobOffer</text><line style="stroke:#181818;stroke-width:0.3;" x1="619.5" x2="672.9" y1="567.6082" y2="567.6082"/><text fill="#000000" font-family="sans-serif" font-size="8.4" lengthAdjust="spacing" textLength="47.4" x="622.5" y="579.0727">&#171;root entity&#187;</text><line style="stroke:#181818;stroke-width:0.3;" x1="619.5" x2="672.9" y1="583.5809" y2="583.5809"/></g><!--class JobRefCode--><g id="elem_JobRefCode"><rect codeLine="7" fill="#F1F1F1" height="36.3492" id="JobRefCode" rx="1.5" ry="1.5" style="stroke:#181818;stroke-width:0.3;" width="97.2" x="404.4" y="710.4082"/><ellipse cx="413.4" cy="723.7828" fill="#F09000" rx="6.6" ry="6.6" style="stroke:#181818;stroke-width:0.6;"/><path d="M413.7562,725.7422 L415.2375,722.2172 L415.0031,722.2172 Q414.6375,722.2172 414.4781,722.0766 Q414.3187,721.9359 414.3187,721.7016 Q414.3187,721.4766 414.4781,721.3359 Q414.6375,721.1953 415.0031,721.1953 L416.3719,721.1953 Q416.7375,721.1953 416.8969,721.3359 Q417.0563,721.4766 417.0563,721.7016 Q417.0563,721.9828 416.8125,722.1422 Q416.7,722.2172 416.3438,722.2172 L414.2531,727.2328 L413.2688,727.2328 L411.1781,722.2172 Q410.8219,722.2172 410.7094,722.1422 Q410.4656,721.9828 410.4656,721.7016 Q410.4656,721.4766 410.625,721.3359 Q410.7844,721.1953 411.15,721.1953 L412.5281,721.1953 Q412.8938,721.1953 413.0438,721.3359 Q413.2031,721.4766 413.2031,721.7016 Q413.2031,721.9359 413.0438,722.0766 Q412.8938,722.2172 412.5281,722.2172 L412.2844,722.2172 L413.7562,725.7422 Z " fill="#000000"/><text fill="#000000" font-family="sans-serif" font-size="7.2" font-style="italic" lengthAdjust="spacing" textLength="80.4" x="420.6" y="721.1777">&#171;Identifier value Object&#187;</text><text fill="#000000" font-family="sans-serif" font-size="8.4" lengthAdjust="spacing" textLength="46.8" x="437.4" y="732.0492">JobRefCode</text><line style="stroke:#181818;stroke-width:0.3;" x1="405" x2="501" y1="737.1574" y2="737.1574"/><line style="stroke:#181818;stroke-width:0.3;" x1="405" x2="501" y1="741.9574" y2="741.9574"/></g><!--class JobTitle--><g id="elem_JobTitle"><rect codeLine="8" fill="#F1F1F1" height="36.3492" id="JobTitle" rx="1.5" ry="1.5" style="stroke:#181818;stroke-width:0.3;" width="66.6" x="522.9" y="710.4082"/><ellipse cx="531.9" cy="723.7828" fill="#F04800" rx="6.6" ry="6.6" style="stroke:#181818;stroke-width:0.6;"/><path d="M532.2563,725.7422 L533.7375,722.2172 L533.5031,722.2172 Q533.1375,722.2172 532.9781,722.0766 Q532.8188,721.9359 532.8188,721.7016 Q532.8188,721.4766 532.9781,721.3359 Q533.1375,721.1953 533.5031,721.1953 L534.8719,721.1953 Q535.2375,721.1953 535.3969,721.3359 Q535.5563,721.4766 535.5563,721.7016 Q535.5563,721.9828 535.3125,722.1422 Q535.2,722.2172 534.8438,722.2172 L532.7531,727.2328 L531.7688,727.2328 L529.6781,722.2172 Q529.3219,722.2172 529.2094,722.1422 Q528.9656,721.9828 528.9656,721.7016 Q528.9656,721.4766 529.125,721.3359 Q529.2844,721.1953 529.65,721.1953 L531.0281,721.1953 Q531.3938,721.1953 531.5437,721.3359 Q531.7031,721.4766 531.7031,721.7016 Q531.7031,721.9359 531.5437,722.0766 Q531.3938,722.2172 531.0281,722.2172 L530.7844,722.2172 L532.2563,725.7422 Z " fill="#000000"/><text fill="#000000" font-family="sans-serif" font-size="7.2" font-style="italic" lengthAdjust="spacing" textLength="49.8" x="539.1" y="721.1777">&#171;value Object&#187;</text><text fill="#000000" font-family="sans-serif" font-size="8.4" lengthAdjust="spacing" textLength="29.4" x="549.3" y="732.0492">JobTitle</text><line style="stroke:#181818;stroke-width:0.3;" x1="523.5" x2="588.9" y1="737.1574" y2="737.1574"/><line style="stroke:#181818;stroke-width:0.3;" x1="523.5" x2="588.9" y1="741.9574" y2="741.9574"/></g><!--class ContractType--><g id="elem_ContractType"><rect codeLine="9" fill="#F1F1F1" height="36.3492" id="ContractType" rx="1.5" ry="1.5" style="stroke:#181818;stroke-width:0.3;" width="70.8" x="610.8" y="710.4082"/><ellipse cx="619.8" cy="723.7828" fill="#F04800" rx="6.6" ry="6.6" style="stroke:#181818;stroke-width:0.6;"/><path d="M620.1563,725.7422 L621.6375,722.2172 L621.4031,722.2172 Q621.0375,722.2172 620.8781,722.0766 Q620.7188,721.9359 620.7188,721.7016 Q620.7188,721.4766 620.8781,721.3359 Q621.0375,721.1953 621.4031,721.1953 L622.7719,721.1953 Q623.1375,721.1953 623.2969,721.3359 Q623.4563,721.4766 623.4563,721.7016 Q623.4563,721.9828 623.2125,722.1422 Q623.1,722.2172 622.7438,722.2172 L620.6531,727.2328 L619.6687,727.2328 L617.5781,722.2172 Q617.2219,722.2172 617.1094,722.1422 Q616.8656,721.9828 616.8656,721.7016 Q616.8656,721.4766 617.025,721.3359 Q617.1844,721.1953 617.55,721.1953 L618.9281,721.1953 Q619.2937,721.1953 619.4438,721.3359 Q619.6031,721.4766 619.6031,721.7016 Q619.6031,721.9359 619.4438,722.0766 Q619.2937,722.2172 618.9281,722.2172 L618.6844,722.2172 L620.1563,725.7422 Z " fill="#000000"/><text fill="#000000" font-family="sans-serif" font-size="7.2" font-style="italic" lengthAdjust="spacing" textLength="49.8" x="629.1" y="721.1777">&#171;value Object&#187;</text><text fill="#000000" font-family="sans-serif" font-size="8.4" lengthAdjust="spacing" textLength="51.6" x="628.2" y="732.0492">ContractType</text><line style="stroke:#181818;stroke-width:0.3;" x1="611.4" x2="681" y1="737.1574" y2="737.1574"/><line style="stroke:#181818;stroke-width:0.3;" x1="611.4" x2="681" y1="741.9574" y2="741.9574"/></g><!--class JobMode--><g id="elem_JobMode"><rect codeLine="10" fill="#F1F1F1" height="36.3492" id="JobMode" rx="1.5" ry="1.5" style="stroke:#181818;stroke-width:0.3;" width="66.6" x="702.9" y="710.4082"/><ellipse cx="711.9" cy="723.7828" fill="#F04800" rx="6.6" ry="6.6" style="stroke:#181818;stroke-width:0.6;"/><path d="M712.2563,725.7422 L713.7375,722.2172 L713.5031,722.2172 Q713.1375,722.2172 712.9781,722.0766 Q712.8188,721.9359 712.8188,721.7016 Q712.8188,721.4766 712.9781,721.3359 Q713.1375,721.1953 713.5031,721.1953 L714.8719,721.1953 Q715.2375,721.1953 715.3969,721.3359 Q715.5563,721.4766 715.5563,721.7016 Q715.5563,721.9828 715.3125,722.1422 Q715.2,722.2172 714.8438,722.2172 L712.7531,727.2328 L711.7688,727.2328 L709.6781,722.2172 Q709.3219,722.2172 709.2094,722.1422 Q708.9656,721.9828 708.9656,721.7016 Q708.9656,721.4766 709.125,721.3359 Q709.2844,721.1953 709.65,721.1953 L711.0281,721.1953 Q711.3938,721.1953 711.5437,721.3359 Q711.7031,721.4766 711.7031,721.7016 Q711.7031,721.9359 711.5437,722.0766 Q711.3938,722.2172 711.0281,722.2172 L710.7844,722.2172 L712.2563,725.7422 Z " fill="#000000"/><text fill="#000000" font-family="sans-serif" font-size="7.2" font-style="italic" lengthAdjust="spacing" textLength="49.8" x="719.1" y="721.1777">&#171;value Object&#187;</text><text fill="#000000" font-family="sans-serif" font-size="8.4" lengthAdjust="spacing" textLength="34.2" x="726.9" y="732.0492">JobMode</text><line style="stroke:#181818;stroke-width:0.3;" x1="703.5" x2="768.9" y1="737.1574" y2="737.1574"/><line style="stroke:#181818;stroke-width:0.3;" x1="703.5" x2="768.9" y1="741.9574" y2="741.9574"/></g><!--class NumberOfVacancies--><g id="elem_NumberOfVacancies"><rect codeLine="11" fill="#F1F1F1" height="36.3492" id="NumberOfVacancies" rx="1.5" ry="1.5" style="stroke:#181818;stroke-width:0.3;" width="96.6" x="790.5" y="710.4082"/><ellipse cx="799.5" cy="723.7828" fill="#F04800" rx="6.6" ry="6.6" style="stroke:#181818;stroke-width:0.6;"/><path d="M799.8562,725.7422 L801.3375,722.2172 L801.1031,722.2172 Q800.7375,722.2172 800.5781,722.0766 Q800.4187,721.9359 800.4187,721.7016 Q800.4187,721.4766 800.5781,721.3359 Q800.7375,721.1953 801.1031,721.1953 L802.4719,721.1953 Q802.8375,721.1953 802.9969,721.3359 Q803.1563,721.4766 803.1563,721.7016 Q803.1563,721.9828 802.9125,722.1422 Q802.8,722.2172 802.4438,722.2172 L800.3531,727.2328 L799.3688,727.2328 L797.2781,722.2172 Q796.9219,722.2172 796.8094,722.1422 Q796.5656,721.9828 796.5656,721.7016 Q796.5656,721.4766 796.725,721.3359 Q796.8844,721.1953 797.25,721.1953 L798.6281,721.1953 Q798.9938,721.1953 799.1438,721.3359 Q799.3031,721.4766 799.3031,721.7016 Q799.3031,721.9359 799.1438,722.0766 Q798.9938,722.2172 798.6281,722.2172 L798.3844,722.2172 L799.8562,725.7422 Z " fill="#000000"/><text fill="#000000" font-family="sans-serif" font-size="7.2" font-style="italic" lengthAdjust="spacing" textLength="49.8" x="821.7" y="721.1777">&#171;value Object&#187;</text><text fill="#000000" font-family="sans-serif" font-size="8.4" lengthAdjust="spacing" textLength="77.4" x="807.9" y="732.0492">NumberOfVacancies</text><line style="stroke:#181818;stroke-width:0.3;" x1="791.1" x2="886.5" y1="737.1574" y2="737.1574"/><line style="stroke:#181818;stroke-width:0.3;" x1="791.1" x2="886.5" y1="741.9574" y2="741.9574"/></g><!--class Application--><g id="elem_Application"><rect codeLine="16" fill="#F1F1F1" height="39.9727" id="Application" rx="1.5" ry="1.5" style="stroke:#181818;stroke-width:0.3;" width="60.6" x="308.7" y="360.0082"/><ellipse cx="317.7" cy="369.6082" fill="#ADD1B2" rx="6.6" ry="6.6" style="stroke:#181818;stroke-width:0.6;"/><path d="M317.0156,370.0863 L317.0156,371.5863 L319.6125,371.5863 L319.6125,371.0332 Q319.6125,370.6676 319.7531,370.5082 Q319.9031,370.3488 320.1281,370.3488 Q320.3531,370.3488 320.4938,370.5082 Q320.6344,370.6676 320.6344,371.0332 L320.6344,372.6082 L315.8344,372.6082 Q315.4594,372.6082 315.3,372.4676 Q315.15,372.327 315.15,372.0926 Q315.15,371.8676 315.3094,371.727 Q315.4688,371.5863 315.8344,371.5863 L315.9938,371.5863 L315.9938,367.5926 L315.8344,367.5926 Q315.4594,367.5926 315.3,367.452 Q315.15,367.3113 315.15,367.077 Q315.15,366.852 315.3,366.7113 Q315.4594,366.5707 315.8344,366.5707 L320.4094,366.5707 L320.4094,368.127 Q320.4094,368.4926 320.2688,368.652 Q320.1375,368.802 319.9031,368.802 Q319.6781,368.802 319.5375,368.652 Q319.3969,368.4926 319.3969,368.127 L319.3969,367.5926 L317.0156,367.5926 L317.0156,369.0645 L317.9063,369.0645 Q317.9063,368.6707 317.9813,368.5582 Q318.1406,368.3145 318.4219,368.3145 Q318.6469,368.3145 318.7875,368.4738 Q318.9281,368.6238 318.9281,368.9895 L318.9281,370.1707 Q318.9281,370.4988 318.8531,370.6113 Q318.6937,370.8457 318.4219,370.8457 Q318.1406,370.8457 317.9813,370.602 Q317.9063,370.4895 317.9063,370.0863 L317.0156,370.0863 Z " fill="#000000"/><text fill="#000000" font-family="sans-serif" font-size="8.4" lengthAdjust="spacing" textLength="41.4" x="326.1" y="373.0863">Application</text><line style="stroke:#181818;stroke-width:0.3;" x1="309.3" x2="368.7" y1="379.2082" y2="379.2082"/><text fill="#000000" font-family="sans-serif" font-size="8.4" lengthAdjust="spacing" textLength="47.4" x="312.3" y="390.6727">&#171;root entity&#187;</text><line style="stroke:#181818;stroke-width:0.3;" x1="309.3" x2="368.7" y1="395.1809" y2="395.1809"/></g><!--class ApplicationAttachedFile--><g id="elem_ApplicationAttachedFile"><rect codeLine="20" fill="#F1F1F1" height="36.3492" id="ApplicationAttachedFile" rx="1.5" ry="1.5" style="stroke:#181818;stroke-width:0.3;" width="108" x="13.2" y="447.6082"/><ellipse cx="22.2" cy="460.9828" fill="#F04800" rx="6.6" ry="6.6" style="stroke:#181818;stroke-width:0.6;"/><path d="M22.5563,462.9422 L24.0375,459.4172 L23.8031,459.4172 Q23.4375,459.4172 23.2781,459.2766 Q23.1188,459.1359 23.1188,458.9016 Q23.1188,458.6766 23.2781,458.5359 Q23.4375,458.3953 23.8031,458.3953 L25.1719,458.3953 Q25.5375,458.3953 25.6969,458.5359 Q25.8563,458.6766 25.8563,458.9016 Q25.8563,459.1828 25.6125,459.3422 Q25.5,459.4172 25.1438,459.4172 L23.0531,464.4328 L22.0687,464.4328 L19.9781,459.4172 Q19.6219,459.4172 19.5094,459.3422 Q19.2656,459.1828 19.2656,458.9016 Q19.2656,458.6766 19.425,458.5359 Q19.5844,458.3953 19.95,458.3953 L21.3281,458.3953 Q21.6937,458.3953 21.8438,458.5359 Q22.0031,458.6766 22.0031,458.9016 Q22.0031,459.1359 21.8438,459.2766 Q21.6937,459.4172 21.3281,459.4172 L21.0844,459.4172 L22.5563,462.9422 Z " fill="#000000"/><text fill="#000000" font-family="sans-serif" font-size="7.2" font-style="italic" lengthAdjust="spacing" textLength="49.8" x="50.1" y="458.3777">&#171;value Object&#187;</text><text fill="#000000" font-family="sans-serif" font-size="8.4" lengthAdjust="spacing" textLength="88.8" x="30.6" y="469.2492">ApplicationAttachedFile</text><line style="stroke:#181818;stroke-width:0.3;" x1="13.8" x2="120.6" y1="474.3574" y2="474.3574"/><line style="stroke:#181818;stroke-width:0.3;" x1="13.8" x2="120.6" y1="479.1574" y2="479.1574"/></g><!--class ApplicationRefCode--><g id="elem_ApplicationRefCode"><rect codeLine="21" fill="#F1F1F1" height="36.3492" id="ApplicationRefCode" rx="1.5" ry="1.5" style="stroke:#181818;stroke-width:0.3;" width="97.2" x="142.2" y="447.6082"/><ellipse cx="151.2" cy="460.9828" fill="#F09000" rx="6.6" ry="6.6" style="stroke:#181818;stroke-width:0.6;"/><path d="M151.5563,462.9422 L153.0375,459.4172 L152.8031,459.4172 Q152.4375,459.4172 152.2781,459.2766 Q152.1188,459.1359 152.1188,458.9016 Q152.1188,458.6766 152.2781,458.5359 Q152.4375,458.3953 152.8031,458.3953 L154.1719,458.3953 Q154.5375,458.3953 154.6969,458.5359 Q154.8563,458.6766 154.8563,458.9016 Q154.8563,459.1828 154.6125,459.3422 Q154.5,459.4172 154.1437,459.4172 L152.0531,464.4328 L151.0688,464.4328 L148.9781,459.4172 Q148.6219,459.4172 148.5094,459.3422 Q148.2656,459.1828 148.2656,458.9016 Q148.2656,458.6766 148.425,458.5359 Q148.5844,458.3953 148.95,458.3953 L150.3281,458.3953 Q150.6938,458.3953 150.8438,458.5359 Q151.0031,458.6766 151.0031,458.9016 Q151.0031,459.1359 150.8438,459.2766 Q150.6938,459.4172 150.3281,459.4172 L150.0844,459.4172 L151.5563,462.9422 Z " fill="#000000"/><text fill="#000000" font-family="sans-serif" font-size="7.2" font-style="italic" lengthAdjust="spacing" textLength="80.4" x="158.4" y="458.3777">&#171;Identifier value Object&#187;</text><text fill="#000000" font-family="sans-serif" font-size="8.4" lengthAdjust="spacing" textLength="75" x="161.1" y="469.2492">ApplicationRefCode</text><line style="stroke:#181818;stroke-width:0.3;" x1="142.8" x2="238.8" y1="474.3574" y2="474.3574"/><line style="stroke:#181818;stroke-width:0.3;" x1="142.8" x2="238.8" y1="479.1574" y2="479.1574"/></g><!--class ApplicationAttachedFilesLocation--><g id="elem_ApplicationAttachedFilesLocation"><rect codeLine="22" fill="#F1F1F1" height="36.3492" id="ApplicationAttachedFilesLocation" rx="1.5" ry="1.5" style="stroke:#181818;stroke-width:0.3;" width="144.6" x="260.7" y="447.6082"/><ellipse cx="269.7" cy="460.9828" fill="#F04800" rx="6.6" ry="6.6" style="stroke:#181818;stroke-width:0.6;"/><path d="M270.0563,462.9422 L271.5375,459.4172 L271.3031,459.4172 Q270.9375,459.4172 270.7781,459.2766 Q270.6188,459.1359 270.6188,458.9016 Q270.6188,458.6766 270.7781,458.5359 Q270.9375,458.3953 271.3031,458.3953 L272.6719,458.3953 Q273.0375,458.3953 273.1969,458.5359 Q273.3563,458.6766 273.3563,458.9016 Q273.3563,459.1828 273.1125,459.3422 Q273,459.4172 272.6438,459.4172 L270.5531,464.4328 L269.5687,464.4328 L267.4781,459.4172 Q267.1219,459.4172 267.0094,459.3422 Q266.7656,459.1828 266.7656,458.9016 Q266.7656,458.6766 266.925,458.5359 Q267.0844,458.3953 267.45,458.3953 L268.8281,458.3953 Q269.1937,458.3953 269.3438,458.5359 Q269.5031,458.6766 269.5031,458.9016 Q269.5031,459.1359 269.3438,459.2766 Q269.1937,459.4172 268.8281,459.4172 L268.5844,459.4172 L270.0563,462.9422 Z " fill="#000000"/><text fill="#000000" font-family="sans-serif" font-size="7.2" font-style="italic" lengthAdjust="spacing" textLength="49.8" x="315.9" y="458.3777">&#171;value Object&#187;</text><text fill="#000000" font-family="sans-serif" font-size="8.4" lengthAdjust="spacing" textLength="125.4" x="278.1" y="469.2492">ApplicationAttachedFilesLocation</text><line style="stroke:#181818;stroke-width:0.3;" x1="261.3" x2="404.7" y1="474.3574" y2="474.3574"/><line style="stroke:#181818;stroke-width:0.3;" x1="261.3" x2="404.7" y1="479.1574" y2="479.1574"/></g><!--class InterviewGrade--><g id="elem_InterviewGrade"><rect codeLine="23" fill="#F1F1F1" height="36.3492" id="InterviewGrade" rx="1.5" ry="1.5" style="stroke:#181818;stroke-width:0.3;" width="76.2" x="426.3" y="447.6082"/><ellipse cx="435.3" cy="460.9828" fill="#F04800" rx="6.6" ry="6.6" style="stroke:#181818;stroke-width:0.6;"/><path d="M435.6563,462.9422 L437.1375,459.4172 L436.9031,459.4172 Q436.5375,459.4172 436.3781,459.2766 Q436.2188,459.1359 436.2188,458.9016 Q436.2188,458.6766 436.3781,458.5359 Q436.5375,458.3953 436.9031,458.3953 L438.2719,458.3953 Q438.6375,458.3953 438.7969,458.5359 Q438.9563,458.6766 438.9563,458.9016 Q438.9563,459.1828 438.7125,459.3422 Q438.6,459.4172 438.2438,459.4172 L436.1531,464.4328 L435.1688,464.4328 L433.0781,459.4172 Q432.7219,459.4172 432.6094,459.3422 Q432.3656,459.1828 432.3656,458.9016 Q432.3656,458.6766 432.525,458.5359 Q432.6844,458.3953 433.05,458.3953 L434.4281,458.3953 Q434.7938,458.3953 434.9437,458.5359 Q435.1031,458.6766 435.1031,458.9016 Q435.1031,459.1359 434.9437,459.2766 Q434.7938,459.4172 434.4281,459.4172 L434.1844,459.4172 L435.6563,462.9422 Z " fill="#000000"/><text fill="#000000" font-family="sans-serif" font-size="7.2" font-style="italic" lengthAdjust="spacing" textLength="49.8" x="447.3" y="458.3777">&#171;value Object&#187;</text><text fill="#000000" font-family="sans-serif" font-size="8.4" lengthAdjust="spacing" textLength="57" x="443.7" y="469.2492">InterviewGrade</text><line style="stroke:#181818;stroke-width:0.3;" x1="426.9" x2="501.9" y1="474.3574" y2="474.3574"/><line style="stroke:#181818;stroke-width:0.3;" x1="426.9" x2="501.9" y1="479.1574" y2="479.1574"/></g><!--class ApplicationState--><g id="elem_ApplicationState"><rect codeLine="24" fill="#F1F1F1" height="36.3492" id="ApplicationState" rx="1.5" ry="1.5" style="stroke:#181818;stroke-width:0.3;" width="80.4" x="523.8" y="447.6082"/><ellipse cx="532.8" cy="460.9828" fill="#F04800" rx="6.6" ry="6.6" style="stroke:#181818;stroke-width:0.6;"/><path d="M533.1563,462.9422 L534.6375,459.4172 L534.4031,459.4172 Q534.0375,459.4172 533.8781,459.2766 Q533.7188,459.1359 533.7188,458.9016 Q533.7188,458.6766 533.8781,458.5359 Q534.0375,458.3953 534.4031,458.3953 L535.7719,458.3953 Q536.1375,458.3953 536.2969,458.5359 Q536.4563,458.6766 536.4563,458.9016 Q536.4563,459.1828 536.2125,459.3422 Q536.1,459.4172 535.7438,459.4172 L533.6531,464.4328 L532.6687,464.4328 L530.5781,459.4172 Q530.2219,459.4172 530.1094,459.3422 Q529.8656,459.1828 529.8656,458.9016 Q529.8656,458.6766 530.025,458.5359 Q530.1844,458.3953 530.55,458.3953 L531.9281,458.3953 Q532.2937,458.3953 532.4438,458.5359 Q532.6031,458.6766 532.6031,458.9016 Q532.6031,459.1359 532.4438,459.2766 Q532.2937,459.4172 531.9281,459.4172 L531.6844,459.4172 L533.1563,462.9422 Z " fill="#000000"/><text fill="#000000" font-family="sans-serif" font-size="7.2" font-style="italic" lengthAdjust="spacing" textLength="49.8" x="546.9" y="458.3777">&#171;value Object&#187;</text><text fill="#000000" font-family="sans-serif" font-size="8.4" lengthAdjust="spacing" textLength="61.2" x="541.2" y="469.2492">ApplicationState</text><line style="stroke:#181818;stroke-width:0.3;" x1="524.4" x2="603.6" y1="474.3574" y2="474.3574"/><line style="stroke:#181818;stroke-width:0.3;" x1="524.4" x2="603.6" y1="479.1574" y2="479.1574"/></g><!--class ApplicationEmail--><g id="elem_ApplicationEmail"><rect codeLine="25" fill="#F1F1F1" height="36.3492" id="ApplicationEmail" rx="1.5" ry="1.5" style="stroke:#181818;stroke-width:0.3;" width="81" x="520.5" y="361.8082"/><ellipse cx="529.5" cy="375.1828" fill="#F04800" rx="6.6" ry="6.6" style="stroke:#181818;stroke-width:0.6;"/><path d="M529.8562,377.1422 L531.3375,373.6172 L531.1031,373.6172 Q530.7375,373.6172 530.5781,373.4766 Q530.4187,373.3359 530.4187,373.1016 Q530.4187,372.8766 530.5781,372.7359 Q530.7375,372.5953 531.1031,372.5953 L532.4719,372.5953 Q532.8375,372.5953 532.9969,372.7359 Q533.1563,372.8766 533.1563,373.1016 Q533.1563,373.3828 532.9125,373.5422 Q532.8,373.6172 532.4438,373.6172 L530.3531,378.6328 L529.3688,378.6328 L527.2781,373.6172 Q526.9219,373.6172 526.8094,373.5422 Q526.5656,373.3828 526.5656,373.1016 Q526.5656,372.8766 526.725,372.7359 Q526.8844,372.5953 527.25,372.5953 L528.6281,372.5953 Q528.9938,372.5953 529.1438,372.7359 Q529.3031,372.8766 529.3031,373.1016 Q529.3031,373.3359 529.1438,373.4766 Q528.9938,373.6172 528.6281,373.6172 L528.3844,373.6172 L529.8562,377.1422 Z " fill="#000000"/><text fill="#000000" font-family="sans-serif" font-size="7.2" font-style="italic" lengthAdjust="spacing" textLength="49.8" x="543.9" y="372.5777">&#171;value Object&#187;</text><text fill="#000000" font-family="sans-serif" font-size="8.4" lengthAdjust="spacing" textLength="61.8" x="537.9" y="383.4492">ApplicationEmail</text><line style="stroke:#181818;stroke-width:0.3;" x1="521.1" x2="600.9" y1="388.5574" y2="388.5574"/><line style="stroke:#181818;stroke-width:0.3;" x1="521.1" x2="600.9" y1="393.3574" y2="393.3574"/></g><!--class Rank--><g id="elem_Rank"><rect codeLine="26" fill="#F1F1F1" height="36.3492" id="Rank" rx="1.5" ry="1.5" style="stroke:#181818;stroke-width:0.3;" width="66.6" x="432.9" y="361.8082"/><ellipse cx="441.9" cy="375.1828" fill="#F04800" rx="6.6" ry="6.6" style="stroke:#181818;stroke-width:0.6;"/><path d="M442.2562,377.1422 L443.7375,373.6172 L443.5031,373.6172 Q443.1375,373.6172 442.9781,373.4766 Q442.8187,373.3359 442.8187,373.1016 Q442.8187,372.8766 442.9781,372.7359 Q443.1375,372.5953 443.5031,372.5953 L444.8719,372.5953 Q445.2375,372.5953 445.3969,372.7359 Q445.5563,372.8766 445.5563,373.1016 Q445.5563,373.3828 445.3125,373.5422 Q445.2,373.6172 444.8438,373.6172 L442.7531,378.6328 L441.7688,378.6328 L439.6781,373.6172 Q439.3219,373.6172 439.2094,373.5422 Q438.9656,373.3828 438.9656,373.1016 Q438.9656,372.8766 439.125,372.7359 Q439.2844,372.5953 439.65,372.5953 L441.0281,372.5953 Q441.3938,372.5953 441.5438,372.7359 Q441.7031,372.8766 441.7031,373.1016 Q441.7031,373.3359 441.5438,373.4766 Q441.3938,373.6172 441.0281,373.6172 L440.7844,373.6172 L442.2562,377.1422 Z " fill="#000000"/><text fill="#000000" font-family="sans-serif" font-size="7.2" font-style="italic" lengthAdjust="spacing" textLength="49.8" x="449.1" y="372.5777">&#171;value Object&#187;</text><text fill="#000000" font-family="sans-serif" font-size="8.4" lengthAdjust="spacing" textLength="19.8" x="464.1" y="383.4492">Rank</text><line style="stroke:#181818;stroke-width:0.3;" x1="433.5" x2="498.9" y1="388.5574" y2="388.5574"/><line style="stroke:#181818;stroke-width:0.3;" x1="433.5" x2="498.9" y1="393.3574" y2="393.3574"/></g><!--class Candidate--><g id="elem_Candidate"><rect codeLine="30" fill="#F1F1F1" height="39.9727" id="Candidate" rx="1.5" ry="1.5" style="stroke:#181818;stroke-width:0.3;" width="58.2" x="309.9" y="122.4082"/><ellipse cx="318.9" cy="132.0082" fill="#ADD1B2" rx="6.6" ry="6.6" style="stroke:#181818;stroke-width:0.6;"/><path d="M318.2156,132.4863 L318.2156,133.9863 L320.8125,133.9863 L320.8125,133.4332 Q320.8125,133.0676 320.9531,132.9082 Q321.1031,132.7488 321.3281,132.7488 Q321.5531,132.7488 321.6937,132.9082 Q321.8344,133.0676 321.8344,133.4332 L321.8344,135.0082 L317.0344,135.0082 Q316.6594,135.0082 316.5,134.8676 Q316.35,134.727 316.35,134.4926 Q316.35,134.2676 316.5094,134.127 Q316.6688,133.9863 317.0344,133.9863 L317.1937,133.9863 L317.1937,129.9926 L317.0344,129.9926 Q316.6594,129.9926 316.5,129.852 Q316.35,129.7113 316.35,129.477 Q316.35,129.252 316.5,129.1113 Q316.6594,128.9707 317.0344,128.9707 L321.6094,128.9707 L321.6094,130.527 Q321.6094,130.8926 321.4688,131.052 Q321.3375,131.202 321.1031,131.202 Q320.8781,131.202 320.7375,131.052 Q320.5969,130.8926 320.5969,130.527 L320.5969,129.9926 L318.2156,129.9926 L318.2156,131.4645 L319.1063,131.4645 Q319.1063,131.0707 319.1813,130.9582 Q319.3406,130.7145 319.6219,130.7145 Q319.8469,130.7145 319.9875,130.8738 Q320.1281,131.0238 320.1281,131.3895 L320.1281,132.5707 Q320.1281,132.8988 320.0531,133.0113 Q319.8938,133.2457 319.6219,133.2457 Q319.3406,133.2457 319.1813,133.002 Q319.1063,132.8895 319.1063,132.4863 L318.2156,132.4863 Z " fill="#000000"/><text fill="#000000" font-family="sans-serif" font-size="8.4" lengthAdjust="spacing" textLength="39" x="327.3" y="135.4863">Candidate</text><line style="stroke:#181818;stroke-width:0.3;" x1="310.5" x2="367.5" y1="141.6082" y2="141.6082"/><text fill="#000000" font-family="sans-serif" font-size="8.4" lengthAdjust="spacing" textLength="47.4" x="313.5" y="153.0727">&#171;root entity&#187;</text><line style="stroke:#181818;stroke-width:0.3;" x1="310.5" x2="367.5" y1="157.5809" y2="157.5809"/></g><!--class CandidatePhoneNumber--><g id="elem_CandidatePhoneNumber"><rect codeLine="34" fill="#F1F1F1" height="36.3492" id="CandidatePhoneNumber" rx="1.5" ry="1.5" style="stroke:#181818;stroke-width:0.3;" width="112.2" x="282.9" y="38.4082"/><ellipse cx="291.9" cy="51.7828" fill="#F09000" rx="6.6" ry="6.6" style="stroke:#181818;stroke-width:0.6;"/><path d="M292.2562,53.7422 L293.7375,50.2172 L293.5031,50.2172 Q293.1375,50.2172 292.9781,50.0766 Q292.8187,49.9359 292.8187,49.7016 Q292.8187,49.4766 292.9781,49.3359 Q293.1375,49.1953 293.5031,49.1953 L294.8719,49.1953 Q295.2375,49.1953 295.3969,49.3359 Q295.5563,49.4766 295.5563,49.7016 Q295.5563,49.9828 295.3125,50.1422 Q295.2,50.2172 294.8438,50.2172 L292.7531,55.2328 L291.7688,55.2328 L289.6781,50.2172 Q289.3219,50.2172 289.2094,50.1422 Q288.9656,49.9828 288.9656,49.7016 Q288.9656,49.4766 289.125,49.3359 Q289.2844,49.1953 289.65,49.1953 L291.0281,49.1953 Q291.3938,49.1953 291.5438,49.3359 Q291.7031,49.4766 291.7031,49.7016 Q291.7031,49.9359 291.5438,50.0766 Q291.3938,50.2172 291.0281,50.2172 L290.7844,50.2172 L292.2562,53.7422 Z " fill="#000000"/><text fill="#000000" font-family="sans-serif" font-size="7.2" font-style="italic" lengthAdjust="spacing" textLength="75.6" x="309" y="49.1777">&#171;Identity value Object&#187;</text><text fill="#000000" font-family="sans-serif" font-size="8.4" lengthAdjust="spacing" textLength="93" x="300.3" y="60.0492">CandidatePhoneNumber</text><line style="stroke:#181818;stroke-width:0.3;" x1="283.5" x2="394.5" y1="65.1574" y2="65.1574"/><line style="stroke:#181818;stroke-width:0.3;" x1="283.5" x2="394.5" y1="69.9574" y2="69.9574"/></g><!--link Candidate to Application--><g id="link_Candidate_Application"><path codeLine="37" d="M339,162.7342 C339,173.7982 339,187.8742 339,200.4082 C339,200.4082 339,200.4082 339,286.2082 C339,311.6362 339,340.9702 339,359.8522 " fill="none" id="Candidate-Application" style="stroke:#181818;stroke-width:0.6;"/><polygon fill="#000000" points="342,246.3955,343.7634,240.9685,340.2366,240.9685,342,246.3955" style="stroke:#000000;stroke-width:0.6;"/><text fill="#000000" font-family="sans-serif" font-size="7.8" lengthAdjust="spacing" textLength="23.4" x="347.4" y="246.6252">makes</text><text fill="#000000" font-family="sans-serif" font-size="7.8" lengthAdjust="spacing" textLength="4.2" x="334.4391" y="175.5386">1</text><text fill="#000000" font-family="sans-serif" font-size="7.8" lengthAdjust="spacing" textLength="3" x="335.7141" y="353.274">*</text></g><!--link CandidatePhoneNumber to Candidate--><g id="link_CandidatePhoneNumber_Candidate"><path codeLine="38" d="M339,75.0442 C339,88.8502 339,108.0082 339,122.2762 " fill="none" id="CandidatePhoneNumber-Candidate" style="stroke:#181818;stroke-width:0.6;stroke-dasharray:7.0,7.0;"/><polygon fill="#000000" points="342,95.7955,340.2366,101.2226,343.7634,101.2226,342,95.7955" style="stroke:#000000;stroke-width:0.6;"/><text fill="#000000" font-family="sans-serif" font-size="7.8" lengthAdjust="spacing" textLength="30.6" x="347.4" y="102.0252">identifies</text></g><!--link JobOffer to JobRefCode--><g id="link_JobOffer_JobRefCode"><path codeLine="41" d="M619.248,588.6922 C599.226,603.4522 571.41,624.3982 547.8,643.8082 C520.836,665.9782 490.92,693.0082 472.044,710.3842 " fill="none" id="JobOffer-JobRefCode" style="stroke:#181818;stroke-width:0.6;"/><polygon fill="#000000" points="553.1122,647.684,547.8059,649.7828,550.0529,652.501,553.1122,647.684" style="stroke:#000000;stroke-width:0.6;"/><text fill="#000000" font-family="sans-serif" font-size="7.8" lengthAdjust="spacing" textLength="30.6" x="556.2" y="652.8252">identifies</text><text fill="#000000" font-family="sans-serif" font-size="7.8" lengthAdjust="spacing" textLength="4.2" x="609.8731" y="601.6487">1</text><text fill="#000000" font-family="sans-serif" font-size="7.8" lengthAdjust="spacing" textLength="4.2" x="471.5505" y="703.5237">1</text></g><!--link JobOffer to JobTitle--><g id="link_JobOffer_JobTitle"><path codeLine="42" d="M632.988,588.7582 C623.166,603.6382 609.648,624.7102 598.8,643.8082 C586.044,666.2662 572.856,692.9962 564.6,710.2462 " fill="none" id="JobOffer-JobTitle" style="stroke:#181818;stroke-width:0.6;"/><polygon fill="#000000" points="603.2716,646.9813,599.0728,650.8455,602.1461,652.5755,603.2716,646.9813" style="stroke:#000000;stroke-width:0.6;"/><text fill="#000000" font-family="sans-serif" font-size="7.8" lengthAdjust="spacing" textLength="33.6" x="607.2" y="652.8252">describes</text><text fill="#000000" font-family="sans-serif" font-size="7.8" lengthAdjust="spacing" textLength="4.2" x="626.1563" y="601.5668">1</text><text fill="#000000" font-family="sans-serif" font-size="7.8" lengthAdjust="spacing" textLength="4.2" x="561.6994" y="703.6474">1</text></g><!--link JobOffer to ContractType--><g id="link_JobOffer_ContractType"><path codeLine="43" d="M646.2,588.7642 C646.2,619.9222 646.2,680.1862 646.2,710.2102 " fill="none" id="JobOffer-ContractType" style="stroke:#181818;stroke-width:0.6;"/><polygon fill="#000000" points="649.2,646.5955,647.4366,652.0226,650.9634,652.0226,649.2,646.5955" style="stroke:#000000;stroke-width:0.6;"/><text fill="#000000" font-family="sans-serif" font-size="7.8" lengthAdjust="spacing" textLength="33.6" x="654.6" y="652.8252">describes</text><text fill="#000000" font-family="sans-serif" font-size="7.8" lengthAdjust="spacing" textLength="4.2" x="641.6391" y="601.5738">1</text><text fill="#000000" font-family="sans-serif" font-size="7.8" lengthAdjust="spacing" textLength="4.2" x="641.5669" y="703.604">1</text></g><!--link JobOffer to JobMode--><g id="link_JobOffer_JobMode"><path codeLine="44" d="M659.412,588.7582 C669.234,603.6382 682.752,624.7102 693.6,643.8082 C706.356,666.2662 719.544,692.9962 727.8,710.2462 " fill="none" id="JobOffer-JobMode" style="stroke:#181818;stroke-width:0.6;"/><polygon fill="#000000" points="701.1284,646.9813,702.2539,652.5755,705.3272,650.8455,701.1284,646.9813" style="stroke:#000000;stroke-width:0.6;"/><text fill="#000000" font-family="sans-serif" font-size="7.8" lengthAdjust="spacing" textLength="33.6" x="708" y="652.8252">describes</text><text fill="#000000" font-family="sans-serif" font-size="7.8" lengthAdjust="spacing" textLength="4.2" x="657.1219" y="601.5668">1</text><text fill="#000000" font-family="sans-serif" font-size="7.8" lengthAdjust="spacing" textLength="4.2" x="721.4344" y="703.6474">1</text></g><!--link JobOffer to NumberOfVacancies--><g id="link_JobOffer_NumberOfVacancies"><path codeLine="45" d="M673.53,588.1762 C694.146,602.8462 722.898,623.9062 747,643.8082 C773.526,665.7142 802.518,692.9302 820.674,710.4082 " fill="none" id="JobOffer-NumberOfVacancies" style="stroke:#181818;stroke-width:0.6;"/><polygon fill="#000000" points="760.8923,647.6785,763.9402,652.5028,766.1937,649.79,760.8923,647.6785" style="stroke:#000000;stroke-width:0.6;"/><text fill="#000000" font-family="sans-serif" font-size="7.8" lengthAdjust="spacing" textLength="33.6" x="768.6" y="652.8252">describes</text><text fill="#000000" font-family="sans-serif" font-size="7.8" lengthAdjust="spacing" textLength="4.2" x="674.5337" y="601.743">1</text><text fill="#000000" font-family="sans-serif" font-size="7.8" lengthAdjust="spacing" textLength="4.2" x="812.0496" y="703.553">1</text></g><!--link Application to JobOffer--><g id="link_Application_JobOffer"><path codeLine="47" d="M369.414,388.2262 C385.182,392.0242 404.778,396.5782 422.4,400.2082 C508.74,417.9982 554.442,383.5462 615,447.6082 C641.16,475.2802 646.007,518.3789 646.541,544.7189 " fill="none" id="Application-to-JobOffer" style="stroke:#181818;stroke-width:0.6;"/><polygon fill="#181818" points="646.614,548.3182,648.9041,542.8707,646.5532,545.3188,644.105,542.968,646.614,548.3182" style="stroke:#181818;stroke-width:0.6;"/><polygon fill="#000000" points="645.8123,467.4706,641.9537,463.2666,640.2196,466.3375,645.8123,467.4706" style="stroke:#000000;stroke-width:0.6;"/><text fill="#000000" font-family="sans-serif" font-size="7.8" lengthAdjust="spacing" textLength="36.6" x="648.6" y="469.2252">pertains to</text><text fill="#000000" font-family="sans-serif" font-size="7.8" lengthAdjust="spacing" textLength="3" x="374.1014" y="386.916">*</text><text fill="#000000" font-family="sans-serif" font-size="7.8" lengthAdjust="spacing" textLength="4.2" x="642.0821" y="541.5958">1</text></g><!--link Application to ApplicationEmail--><g id="link_Application_ApplicationEmail"><path codeLine="48" d="M360.18,359.9062 C375.954,346.3282 398.766,329.6062 422.4,322.2082 C459.552,310.5742 474.522,306.1762 510,322.2082 C527.82,330.2602 541.902,347.9602 550.716,361.6822 " fill="none" id="Application-ApplicationEmail" style="stroke:#181818;stroke-width:0.6;"/><polygon fill="#000000" points="431.3999,310.0235,425.9895,308.2096,425.9566,311.7362,431.3999,310.0235" style="stroke:#000000;stroke-width:0.6;"/><text fill="#000000" font-family="sans-serif" font-size="7.8" lengthAdjust="spacing" textLength="29.4" x="433.8" y="313.2252">contains</text><text fill="#000000" font-family="sans-serif" font-size="7.8" lengthAdjust="spacing" textLength="4.2" x="359.7364" y="353.1814">1</text><text fill="#000000" font-family="sans-serif" font-size="7.8" lengthAdjust="spacing" textLength="4.2" x="543.9618" y="355.0908">1</text></g><!--link Application to ApplicationRefCode--><g id="link_Application_ApplicationRefCode"><path codeLine="49" d="M308.652,398.0302 C283.332,412.4842 247.392,433.0042 221.874,447.5722 " fill="none" id="Application-ApplicationRefCode" style="stroke:#181818;stroke-width:0.6;"/><polygon fill="#000000" points="275.0053,422.5081,269.418,423.6675,271.1665,426.7302,275.0053,422.5081" style="stroke:#000000;stroke-width:0.6;"/><text fill="#000000" font-family="sans-serif" font-size="7.8" lengthAdjust="spacing" textLength="33.6" x="277.8" y="427.2252">describes</text><text fill="#000000" font-family="sans-serif" font-size="7.8" lengthAdjust="spacing" textLength="4.2" x="299.6862" y="409.8581">1</text><text fill="#000000" font-family="sans-serif" font-size="7.8" lengthAdjust="spacing" textLength="4.2" x="224.0121" y="440.7091">1</text></g><!--link Application to ApplicationAttachedFile--><g id="link_Application_ApplicationAttachedFile"><path codeLine="50" d="M308.646,389.5282 C283.086,397.0042 245.586,408.0982 213,418.2082 C182.514,427.6702 148.572,438.6082 121.11,447.5602 " fill="none" id="Application-ApplicationAttachedFile" style="stroke:#181818;stroke-width:0.6;"/><polygon fill="#000000" points="213.1341,424.8824,218.8399,424.9626,217.7973,421.5935,213.1341,424.8824" style="stroke:#000000;stroke-width:0.6;"/><text fill="#000000" font-family="sans-serif" font-size="7.8" lengthAdjust="spacing" textLength="29.4" x="221.4" y="427.2252">contains</text><text fill="#000000" font-family="sans-serif" font-size="7.8" lengthAdjust="spacing" textLength="4.2" x="299.6793" y="388.4092">1</text><text fill="#000000" font-family="sans-serif" font-size="7.8" lengthAdjust="spacing" textLength="3" x="126.1353" y="442.2193">*</text></g><!--link Application to ApplicationAttachedFilesLocation--><g id="link_Application_ApplicationAttachedFilesLocation"><path codeLine="51" d="M337.608,400.3282 C336.6,414.5842 335.238,433.7122 334.26,447.5242 " fill="none" id="Application-ApplicationAttachedFilesLocation" style="stroke:#181818;stroke-width:0.6;"/><polygon fill="#000000" points="338.7877,426.988,340.9307,421.6993,337.4128,421.4498,338.7877,426.988" style="stroke:#000000;stroke-width:0.6;"/><text fill="#000000" font-family="sans-serif" font-size="7.8" lengthAdjust="spacing" textLength="29.4" x="344.4" y="427.2252">contains</text><text fill="#000000" font-family="sans-serif" font-size="7.8" lengthAdjust="spacing" textLength="4.2" x="332.8078" y="413.1316">1</text><text fill="#000000" font-family="sans-serif" font-size="7.8" lengthAdjust="spacing" textLength="4.2" x="329.8867" y="440.9415">1</text></g><!--link Application to ApplicationState--><g id="link_Application_ApplicationState"><path codeLine="52" d="M369.312,390.0082 C392.286,397.2262 424.542,407.7442 452.4,418.2082 C476.418,427.2322 502.89,438.3502 524.022,447.5182 " fill="none" id="Application-ApplicationState" style="stroke:#181818;stroke-width:0.6;"/><polygon fill="#000000" points="485.812,425.0408,481.3395,421.497,480.1106,424.8027,485.812,425.0408" style="stroke:#000000;stroke-width:0.6;"/><text fill="#000000" font-family="sans-serif" font-size="7.8" lengthAdjust="spacing" textLength="29.4" x="488.4" y="427.2252">contains</text><text fill="#000000" font-family="sans-serif" font-size="7.8" lengthAdjust="spacing" textLength="4.2" x="374.0725" y="400.6578">1</text><text fill="#000000" font-family="sans-serif" font-size="7.8" lengthAdjust="spacing" textLength="4.2" x="514.6937" y="442.8983">1</text></g><!--link Application to InterviewGrade--><g id="link_Application_InterviewGrade"><path codeLine="53" d="M367.926,400.2262 C389.046,414.4702 417.456,433.6402 437.97,447.4762 " fill="none" id="Application-InterviewGrade" style="stroke:#181818;stroke-width:0.6;"/><polygon fill="#000000" points="414.687,425.6732,411.1741,421.1764,409.2018,424.1001,414.687,425.6732" style="stroke:#000000;stroke-width:0.6;"/><text fill="#000000" font-family="sans-serif" font-size="7.8" lengthAdjust="spacing" textLength="29.4" x="417.6" y="427.2252">contains</text><text fill="#000000" font-family="sans-serif" font-size="7.8" lengthAdjust="spacing" textLength="4.2" x="368.5044" y="413.171">1</text><text fill="#000000" font-family="sans-serif" font-size="7.8" lengthAdjust="spacing" textLength="4.2" x="427.8857" y="440.8836">1</text></g><!--link Application to Rank--><g id="link_Application_Rank"><path codeLine="54" d="M369.306,380.1082 C388.41,380.1082 413.1,380.1082 432.774,380.1082 " fill="none" id="Application-Rank" style="stroke:#181818;stroke-width:0.6;"/><polygon fill="#000000" points="379.8,372.6955,385.2271,374.4589,385.2271,370.9322,379.8,372.6955" style="stroke:#000000;stroke-width:0.6;"/><text fill="#000000" font-family="sans-serif" font-size="7.8" lengthAdjust="spacing" textLength="33.6" x="388.2" y="375.9252">describes</text></g><!--SRC=[dPHHJy8m4CVVzoaQV57Z32O-A25Bo886eqAKy5wwswYCTkaAX12-k-t6HYi3D_e0otQ_k-k_r_y8apcE0BtnwJ0CGVIYI4249MmTf5QVIIetvLUKlzMhsnMSImHPWETbxtTEzkV7E4qrymMXpmDGiTUJEtGLjf_RxVOD6WIQ2gdAjyBn4j1m-WD4UjvsP_DZAkCzhU379msV8NpEfC14ZZS9eFgOAlHHTba7-5mkfY26uGGJp0Y5z3zKwJBQwznBafWIB2bdXjIcraO4QgAtcLbAJ6OGlD0cyXa9h8DhU6ud-aZV-NvJjHiQC0bYHM7zAd1msKQ-fTBt8hA_m3IkJtvXDcym1Zvc0GrKRzNthVpSP01AQ3JZ3F8XhJn1LQ2gjqFHraCBkNgXrctB6iWEyj02po4rek-NYLjTN4VJOcXInt5A7oagP0-6KtICUDGz7PyxGmS5a191fsU2BLEe0nHsK2Vss0bioZ6rqrgwRi3NpFMAIdbEhLC2GcBAKYIvJUbwsU_HS6gCgErfx9WvWWuQcorMSVQXMsxIi6Qr0pHCab_YEj0VnpY9kFbzjPNu1G00]--></g></svg>