<?xml version="1.0" encoding="us-ascii" standalone="no"?><svg xmlns="http://www.w3.org/2000/svg" xmlns:xlink="http://www.w3.org/1999/xlink" contentStyleType="text/css" height="542.4px" preserveAspectRatio="none" style="width:455px;height:542px;background:#FFFFFF;" version="1.1" viewBox="0 0 455 542" width="455.2px" zoomAndPan="magnify"><defs/><g><!--class CandidateUI--><g id="elem_CandidateUI"><rect codeLine="2" fill="#F1F1F1" height="53.2969" id="CandidateUI" rx="2" ry="2" style="stroke:#181818;stroke-width:0.4000000000000001;" width="141.6" x="146.4" y="5.6"/><ellipse cx="183" cy="18.4" fill="#ADD1B2" rx="8.8" ry="8.8" style="stroke:#181818;stroke-width:0.8000000000000002;"/><path d="M185.2125,15.1 Q185.3375,14.925 185.4875,14.8375 Q185.6375,14.75 185.8125,14.75 Q186.1125,14.75 186.3,14.9625 Q186.4875,15.1625 186.4875,15.65 L186.4875,16.8125 Q186.4875,17.3 186.3,17.5125 Q186.1125,17.725 185.8125,17.725 Q185.5375,17.725 185.375,17.5625 Q185.2125,17.4125 185.125,17 Q185.0875,16.7125 184.9375,16.5625 Q184.675,16.2625 184.1875,16.0875 Q183.7,15.9125 183.2,15.9125 Q182.5875,15.9125 182.075,16.175 Q181.575,16.4375 181.175,17.0375 Q180.7875,17.6375 180.7875,18.4625 L180.7875,19.3375 Q180.7875,20.325 181.5,20.9875 Q182.2125,21.6375 183.4875,21.6375 Q184.2375,21.6375 184.7625,21.4375 Q185.075,21.3125 185.4125,20.9625 Q185.625,20.75 185.7375,20.6875 Q185.8625,20.625 186.025,20.625 Q186.2875,20.625 186.4875,20.8375 Q186.7,21.0375 186.7,21.3125 Q186.7,21.5875 186.425,21.9125 Q186.025,22.375 185.3875,22.6375 Q184.525,23 183.4875,23 Q182.275,23 181.3125,22.5 Q180.525,22.1 179.975,21.25 Q179.425,20.3875 179.425,19.3625 L179.425,18.4375 Q179.425,17.375 179.9125,16.4625 Q180.4125,15.5375 181.2875,15.05 Q182.1625,14.55 183.15,14.55 Q183.7375,14.55 184.25,14.6875 Q184.775,14.8125 185.2125,15.1 Z " fill="#000000"/><text fill="#000000" font-family="sans-serif" font-size="11.2" lengthAdjust="spacing" textLength="61.6" x="199.4" y="23.0375">CandidateUI</text><line style="stroke:#181818;stroke-width:0.4000000000000001;" x1="147.2" x2="287.2" y1="31.2" y2="31.2"/><line style="stroke:#181818;stroke-width:0.4000000000000001;" x1="147.2" x2="287.2" y1="37.6" y2="37.6"/><ellipse cx="155.2" cy="49.4484" fill="#84BE84" rx="2.4" ry="2.4" style="stroke:#038048;stroke-width:0.8000000000000002;"/><text fill="#000000" font-family="sans-serif" font-size="11.2" lengthAdjust="spacing" textLength="120.8" x="162.4" y="52.8859">changeJobOfferPhase()</text></g><!--class ListOwnCandidateApplicationsUI--><g id="elem_ListOwnCandidateApplicationsUI"><rect codeLine="7" fill="#F1F1F1" height="38.4" id="ListOwnCandidateApplicationsUI" rx="2" ry="2" style="stroke:#181818;stroke-width:0.4000000000000001;" width="188" x="123.2" y="107.2"/><ellipse cx="135.2" cy="120" fill="#ADD1B2" rx="8.8" ry="8.8" style="stroke:#181818;stroke-width:0.8000000000000002;"/><path d="M137.4125,116.7 Q137.5375,116.525 137.6875,116.4375 Q137.8375,116.35 138.0125,116.35 Q138.3125,116.35 138.5,116.5625 Q138.6875,116.7625 138.6875,117.25 L138.6875,118.4125 Q138.6875,118.9 138.5,119.1125 Q138.3125,119.325 138.0125,119.325 Q137.7375,119.325 137.575,119.1625 Q137.4125,119.0125 137.325,118.6 Q137.2875,118.3125 137.1375,118.1625 Q136.875,117.8625 136.3875,117.6875 Q135.9,117.5125 135.4,117.5125 Q134.7875,117.5125 134.275,117.775 Q133.775,118.0375 133.375,118.6375 Q132.9875,119.2375 132.9875,120.0625 L132.9875,120.9375 Q132.9875,121.925 133.7,122.5875 Q134.4125,123.2375 135.6875,123.2375 Q136.4375,123.2375 136.9625,123.0375 Q137.275,122.9125 137.6125,122.5625 Q137.825,122.35 137.9375,122.2875 Q138.0625,122.225 138.225,122.225 Q138.4875,122.225 138.6875,122.4375 Q138.9,122.6375 138.9,122.9125 Q138.9,123.1875 138.625,123.5125 Q138.225,123.975 137.5875,124.2375 Q136.725,124.6 135.6875,124.6 Q134.475,124.6 133.5125,124.1 Q132.725,123.7 132.175,122.85 Q131.625,121.9875 131.625,120.9625 L131.625,120.0375 Q131.625,118.975 132.1125,118.0625 Q132.6125,117.1375 133.4875,116.65 Q134.3625,116.15 135.35,116.15 Q135.9375,116.15 136.45,116.2875 Q136.975,116.4125 137.4125,116.7 Z " fill="#000000"/><text fill="#000000" font-family="sans-serif" font-size="11.2" lengthAdjust="spacing" textLength="162.4" x="146.4" y="124.6375">ListOwnCandidateApplicationsUI</text><line style="stroke:#181818;stroke-width:0.4000000000000001;" x1="124" x2="310.4" y1="132.8" y2="132.8"/><line style="stroke:#181818;stroke-width:0.4000000000000001;" x1="124" x2="310.4" y1="139.2" y2="139.2"/></g><!--class ListOwnCandidateApplicationsController--><g id="elem_ListOwnCandidateApplicationsController"><rect codeLine="11" fill="#F1F1F1" height="53.2969" id="ListOwnCandidateApplicationsController" rx="2" ry="2" style="stroke:#181818;stroke-width:0.4000000000000001;" width="228" x="103.2" y="193.6"/><ellipse cx="115.2" cy="206.4" fill="#ADD1B2" rx="8.8" ry="8.8" style="stroke:#181818;stroke-width:0.8000000000000002;"/><path d="M117.4125,203.1 Q117.5375,202.925 117.6875,202.8375 Q117.8375,202.75 118.0125,202.75 Q118.3125,202.75 118.5,202.9625 Q118.6875,203.1625 118.6875,203.65 L118.6875,204.8125 Q118.6875,205.3 118.5,205.5125 Q118.3125,205.725 118.0125,205.725 Q117.7375,205.725 117.575,205.5625 Q117.4125,205.4125 117.325,205 Q117.2875,204.7125 117.1375,204.5625 Q116.875,204.2625 116.3875,204.0875 Q115.9,203.9125 115.4,203.9125 Q114.7875,203.9125 114.275,204.175 Q113.775,204.4375 113.375,205.0375 Q112.9875,205.6375 112.9875,206.4625 L112.9875,207.3375 Q112.9875,208.325 113.7,208.9875 Q114.4125,209.6375 115.6875,209.6375 Q116.4375,209.6375 116.9625,209.4375 Q117.275,209.3125 117.6125,208.9625 Q117.825,208.75 117.9375,208.6875 Q118.0625,208.625 118.225,208.625 Q118.4875,208.625 118.6875,208.8375 Q118.9,209.0375 118.9,209.3125 Q118.9,209.5875 118.625,209.9125 Q118.225,210.375 117.5875,210.6375 Q116.725,211 115.6875,211 Q114.475,211 113.5125,210.5 Q112.725,210.1 112.175,209.25 Q111.625,208.3875 111.625,207.3625 L111.625,206.4375 Q111.625,205.375 112.1125,204.4625 Q112.6125,203.5375 113.4875,203.05 Q114.3625,202.55 115.35,202.55 Q115.9375,202.55 116.45,202.6875 Q116.975,202.8125 117.4125,203.1 Z " fill="#000000"/><text fill="#000000" font-family="sans-serif" font-size="11.2" lengthAdjust="spacing" textLength="202.4" x="126.4" y="211.0375">ListOwnCandidateApplicationsController</text><line style="stroke:#181818;stroke-width:0.4000000000000001;" x1="104" x2="330.4" y1="219.2" y2="219.2"/><line style="stroke:#181818;stroke-width:0.4000000000000001;" x1="104" x2="330.4" y1="225.6" y2="225.6"/><ellipse cx="112" cy="237.4484" fill="#84BE84" rx="2.4" ry="2.4" style="stroke:#038048;stroke-width:0.8000000000000002;"/><text fill="#000000" font-family="sans-serif" font-size="11.2" lengthAdjust="spacing" textLength="104.8" x="119.2" y="240.8859">listOwnApplications()</text></g><!--class ServerCandidateApplicationHandler--><g id="elem_ServerCandidateApplicationHandler"><rect codeLine="15" fill="#F1F1F1" height="53.2969" id="ServerCandidateApplicationHandler" rx="2" ry="2" style="stroke:#181818;stroke-width:0.4000000000000001;" width="205.6" x="114.4" y="295.2"/><ellipse cx="126.4" cy="308" fill="#ADD1B2" rx="8.8" ry="8.8" style="stroke:#181818;stroke-width:0.8000000000000002;"/><path d="M128.6125,304.7 Q128.7375,304.525 128.8875,304.4375 Q129.0375,304.35 129.2125,304.35 Q129.5125,304.35 129.7,304.5625 Q129.8875,304.7625 129.8875,305.25 L129.8875,306.4125 Q129.8875,306.9 129.7,307.1125 Q129.5125,307.325 129.2125,307.325 Q128.9375,307.325 128.775,307.1625 Q128.6125,307.0125 128.525,306.6 Q128.4875,306.3125 128.3375,306.1625 Q128.075,305.8625 127.5875,305.6875 Q127.1,305.5125 126.6,305.5125 Q125.9875,305.5125 125.475,305.775 Q124.975,306.0375 124.575,306.6375 Q124.1875,307.2375 124.1875,308.0625 L124.1875,308.9375 Q124.1875,309.925 124.9,310.5875 Q125.6125,311.2375 126.8875,311.2375 Q127.6375,311.2375 128.1625,311.0375 Q128.475,310.9125 128.8125,310.5625 Q129.025,310.35 129.1375,310.2875 Q129.2625,310.225 129.425,310.225 Q129.6875,310.225 129.8875,310.4375 Q130.1,310.6375 130.1,310.9125 Q130.1,311.1875 129.825,311.5125 Q129.425,311.975 128.7875,312.2375 Q127.925,312.6 126.8875,312.6 Q125.675,312.6 124.7125,312.1 Q123.925,311.7 123.375,310.85 Q122.825,309.9875 122.825,308.9625 L122.825,308.0375 Q122.825,306.975 123.3125,306.0625 Q123.8125,305.1375 124.6875,304.65 Q125.5625,304.15 126.55,304.15 Q127.1375,304.15 127.65,304.2875 Q128.175,304.4125 128.6125,304.7 Z " fill="#000000"/><text fill="#000000" font-family="sans-serif" font-size="11.2" lengthAdjust="spacing" textLength="180" x="137.6" y="312.6375">ServerCandidateApplicationHandler</text><line style="stroke:#181818;stroke-width:0.4000000000000001;" x1="115.2" x2="319.2" y1="320.8" y2="320.8"/><line style="stroke:#181818;stroke-width:0.4000000000000001;" x1="115.2" x2="319.2" y1="327.2" y2="327.2"/><ellipse cx="123.2" cy="339.0484" fill="#84BE84" rx="2.4" ry="2.4" style="stroke:#038048;stroke-width:0.8000000000000002;"/><text fill="#000000" font-family="sans-serif" font-size="11.2" lengthAdjust="spacing" textLength="159.2" x="130.4" y="342.4859">getCandidateOwnApplications()</text></g><!--class FollowUpServer--><g id="elem_FollowUpServer"><rect codeLine="19" fill="#F1F1F1" height="53.2969" id="FollowUpServer" rx="2" ry="2" style="stroke:#181818;stroke-width:0.4000000000000001;" width="169.6" x="132.4" y="396.8"/><ellipse cx="174.2" cy="409.6" fill="#ADD1B2" rx="8.8" ry="8.8" style="stroke:#181818;stroke-width:0.8000000000000002;"/><path d="M176.4125,406.3 Q176.5375,406.125 176.6875,406.0375 Q176.8375,405.95 177.0125,405.95 Q177.3125,405.95 177.5,406.1625 Q177.6875,406.3625 177.6875,406.85 L177.6875,408.0125 Q177.6875,408.5 177.5,408.7125 Q177.3125,408.925 177.0125,408.925 Q176.7375,408.925 176.575,408.7625 Q176.4125,408.6125 176.325,408.2 Q176.2875,407.9125 176.1375,407.7625 Q175.875,407.4625 175.3875,407.2875 Q174.9,407.1125 174.4,407.1125 Q173.7875,407.1125 173.275,407.375 Q172.775,407.6375 172.375,408.2375 Q171.9875,408.8375 171.9875,409.6625 L171.9875,410.5375 Q171.9875,411.525 172.7,412.1875 Q173.4125,412.8375 174.6875,412.8375 Q175.4375,412.8375 175.9625,412.6375 Q176.275,412.5125 176.6125,412.1625 Q176.825,411.95 176.9375,411.8875 Q177.0625,411.825 177.225,411.825 Q177.4875,411.825 177.6875,412.0375 Q177.9,412.2375 177.9,412.5125 Q177.9,412.7875 177.625,413.1125 Q177.225,413.575 176.5875,413.8375 Q175.725,414.2 174.6875,414.2 Q173.475,414.2 172.5125,413.7 Q171.725,413.3 171.175,412.45 Q170.625,411.5875 170.625,410.5625 L170.625,409.6375 Q170.625,408.575 171.1125,407.6625 Q171.6125,406.7375 172.4875,406.25 Q173.3625,405.75 174.35,405.75 Q174.9375,405.75 175.45,405.8875 Q175.975,406.0125 176.4125,406.3 Z " fill="#000000"/><text fill="#000000" font-family="sans-serif" font-size="11.2" lengthAdjust="spacing" textLength="79.2" x="190.6" y="414.2375">FollowUpServer</text><line style="stroke:#181818;stroke-width:0.4000000000000001;" x1="133.2" x2="301.2" y1="422.4" y2="422.4"/><line style="stroke:#181818;stroke-width:0.4000000000000001;" x1="133.2" x2="301.2" y1="428.8" y2="428.8"/><ellipse cx="141.2" cy="440.6484" fill="#84BE84" rx="2.4" ry="2.4" style="stroke:#038048;stroke-width:0.8000000000000002;"/><text fill="#000000" font-family="sans-serif" font-size="11.2" lengthAdjust="spacing" textLength="148.8" x="148.4" y="444.0859">getAllCandidateApplications()</text></g><!--class CandidateRepository--><g id="elem_CandidateRepository"><rect codeLine="23" fill="#F1F1F1" height="38.4" id="CandidateRepository" rx="2" ry="2" style="stroke:#181818;stroke-width:0.4000000000000001;" width="132" x="5.6" y="498.4"/><ellipse cx="17.6" cy="511.2" fill="#ADD1B2" rx="8.8" ry="8.8" style="stroke:#181818;stroke-width:0.8000000000000002;"/><path d="M19.8125,507.9 Q19.9375,507.725 20.0875,507.6375 Q20.2375,507.55 20.4125,507.55 Q20.7125,507.55 20.9,507.7625 Q21.0875,507.9625 21.0875,508.45 L21.0875,509.6125 Q21.0875,510.1 20.9,510.3125 Q20.7125,510.525 20.4125,510.525 Q20.1375,510.525 19.975,510.3625 Q19.8125,510.2125 19.725,509.8 Q19.6875,509.5125 19.5375,509.3625 Q19.275,509.0625 18.7875,508.8875 Q18.3,508.7125 17.8,508.7125 Q17.1875,508.7125 16.675,508.975 Q16.175,509.2375 15.775,509.8375 Q15.3875,510.4375 15.3875,511.2625 L15.3875,512.1375 Q15.3875,513.125 16.1,513.7875 Q16.8125,514.4375 18.0875,514.4375 Q18.8375,514.4375 19.3625,514.2375 Q19.675,514.1125 20.0125,513.7625 Q20.225,513.55 20.3375,513.4875 Q20.4625,513.425 20.625,513.425 Q20.8875,513.425 21.0875,513.6375 Q21.3,513.8375 21.3,514.1125 Q21.3,514.3875 21.025,514.7125 Q20.625,515.175 19.9875,515.4375 Q19.125,515.8 18.0875,515.8 Q16.875,515.8 15.9125,515.3 Q15.125,514.9 14.575,514.05 Q14.025,513.1875 14.025,512.1625 L14.025,511.2375 Q14.025,510.175 14.5125,509.2625 Q15.0125,508.3375 15.8875,507.85 Q16.7625,507.35 17.75,507.35 Q18.3375,507.35 18.85,507.4875 Q19.375,507.6125 19.8125,507.9 Z " fill="#000000"/><text fill="#000000" font-family="sans-serif" font-size="11.2" lengthAdjust="spacing" textLength="106.4" x="28.8" y="515.8375">CandidateRepository</text><line style="stroke:#181818;stroke-width:0.4000000000000001;" x1="6.4" x2="136.8" y1="524" y2="524"/><line style="stroke:#181818;stroke-width:0.4000000000000001;" x1="6.4" x2="136.8" y1="530.4" y2="530.4"/></g><!--class UserRepository--><g id="elem_UserRepository"><rect codeLine="25" fill="#F1F1F1" height="38.4" id="UserRepository" rx="2" ry="2" style="stroke:#181818;stroke-width:0.4000000000000001;" width="103.2" x="165.6" y="498.4"/><ellipse cx="177.6" cy="511.2" fill="#ADD1B2" rx="8.8" ry="8.8" style="stroke:#181818;stroke-width:0.8000000000000002;"/><path d="M179.8125,507.9 Q179.9375,507.725 180.0875,507.6375 Q180.2375,507.55 180.4125,507.55 Q180.7125,507.55 180.9,507.7625 Q181.0875,507.9625 181.0875,508.45 L181.0875,509.6125 Q181.0875,510.1 180.9,510.3125 Q180.7125,510.525 180.4125,510.525 Q180.1375,510.525 179.975,510.3625 Q179.8125,510.2125 179.725,509.8 Q179.6875,509.5125 179.5375,509.3625 Q179.275,509.0625 178.7875,508.8875 Q178.3,508.7125 177.8,508.7125 Q177.1875,508.7125 176.675,508.975 Q176.175,509.2375 175.775,509.8375 Q175.3875,510.4375 175.3875,511.2625 L175.3875,512.1375 Q175.3875,513.125 176.1,513.7875 Q176.8125,514.4375 178.0875,514.4375 Q178.8375,514.4375 179.3625,514.2375 Q179.675,514.1125 180.0125,513.7625 Q180.225,513.55 180.3375,513.4875 Q180.4625,513.425 180.625,513.425 Q180.8875,513.425 181.0875,513.6375 Q181.3,513.8375 181.3,514.1125 Q181.3,514.3875 181.025,514.7125 Q180.625,515.175 179.9875,515.4375 Q179.125,515.8 178.0875,515.8 Q176.875,515.8 175.9125,515.3 Q175.125,514.9 174.575,514.05 Q174.025,513.1875 174.025,512.1625 L174.025,511.2375 Q174.025,510.175 174.5125,509.2625 Q175.0125,508.3375 175.8875,507.85 Q176.7625,507.35 177.75,507.35 Q178.3375,507.35 178.85,507.4875 Q179.375,507.6125 179.8125,507.9 Z " fill="#000000"/><text fill="#000000" font-family="sans-serif" font-size="11.2" lengthAdjust="spacing" textLength="77.6" x="188.8" y="515.8375">UserRepository</text><line style="stroke:#181818;stroke-width:0.4000000000000001;" x1="166.4" x2="268" y1="524" y2="524"/><line style="stroke:#181818;stroke-width:0.4000000000000001;" x1="166.4" x2="268" y1="530.4" y2="530.4"/></g><!--class JobApplicationRepository--><g id="elem_JobApplicationRepository"><rect codeLine="27" fill="#F1F1F1" height="38.4" id="JobApplicationRepository" rx="2" ry="2" style="stroke:#181818;stroke-width:0.4000000000000001;" width="152.8" x="296.8" y="498.4"/><ellipse cx="308.8" cy="511.2" fill="#ADD1B2" rx="8.8" ry="8.8" style="stroke:#181818;stroke-width:0.8000000000000002;"/><path d="M311.0125,507.9 Q311.1375,507.725 311.2875,507.6375 Q311.4375,507.55 311.6125,507.55 Q311.9125,507.55 312.1,507.7625 Q312.2875,507.9625 312.2875,508.45 L312.2875,509.6125 Q312.2875,510.1 312.1,510.3125 Q311.9125,510.525 311.6125,510.525 Q311.3375,510.525 311.175,510.3625 Q311.0125,510.2125 310.925,509.8 Q310.8875,509.5125 310.7375,509.3625 Q310.475,509.0625 309.9875,508.8875 Q309.5,508.7125 309,508.7125 Q308.3875,508.7125 307.875,508.975 Q307.375,509.2375 306.975,509.8375 Q306.5875,510.4375 306.5875,511.2625 L306.5875,512.1375 Q306.5875,513.125 307.3,513.7875 Q308.0125,514.4375 309.2875,514.4375 Q310.0375,514.4375 310.5625,514.2375 Q310.875,514.1125 311.2125,513.7625 Q311.425,513.55 311.5375,513.4875 Q311.6625,513.425 311.825,513.425 Q312.0875,513.425 312.2875,513.6375 Q312.5,513.8375 312.5,514.1125 Q312.5,514.3875 312.225,514.7125 Q311.825,515.175 311.1875,515.4375 Q310.325,515.8 309.2875,515.8 Q308.075,515.8 307.1125,515.3 Q306.325,514.9 305.775,514.05 Q305.225,513.1875 305.225,512.1625 L305.225,511.2375 Q305.225,510.175 305.7125,509.2625 Q306.2125,508.3375 307.0875,507.85 Q307.9625,507.35 308.95,507.35 Q309.5375,507.35 310.05,507.4875 Q310.575,507.6125 311.0125,507.9 Z " fill="#000000"/><text fill="#000000" font-family="sans-serif" font-size="11.2" lengthAdjust="spacing" textLength="127.2" x="320" y="515.8375">JobApplicationRepository</text><line style="stroke:#181818;stroke-width:0.4000000000000001;" x1="297.6" x2="448.8" y1="524" y2="524"/><line style="stroke:#181818;stroke-width:0.4000000000000001;" x1="297.6" x2="448.8" y1="530.4" y2="530.4"/></g><!--link CandidateUI to ListOwnCandidateApplicationsUI--><g id="link_CandidateUI_ListOwnCandidateApplicationsUI"><path codeLine="29" d="M217.2,59.432 C217.2,74.584 217.2,88.488 217.2,102.136 " fill="none" id="CandidateUI-to-ListOwnCandidateApplicationsUI" style="stroke:#181818;stroke-width:0.8000000000000002;"/><polygon fill="#181818" points="217.2,106.936,220.4,99.736,217.2,102.936,214,99.736,217.2,106.936" style="stroke:#181818;stroke-width:0.8000000000000002;"/></g><!--link ListOwnCandidateApplicationsUI to ListOwnCandidateApplicationsController--><g id="link_ListOwnCandidateApplicationsUI_ListOwnCandidateApplicationsController"><path codeLine="30" d="M217.2,145.68 C217.2,159.368 217.2,173.416 217.2,188.656 " fill="none" id="ListOwnCandidateApplicationsUI-to-ListOwnCandidateApplicationsController" style="stroke:#181818;stroke-width:0.8000000000000002;"/><polygon fill="#181818" points="217.2,193.456,220.4,186.256,217.2,189.456,214,186.256,217.2,193.456" style="stroke:#181818;stroke-width:0.8000000000000002;"/></g><!--link ListOwnCandidateApplicationsController to ServerCandidateApplicationHandler--><g id="link_ListOwnCandidateApplicationsController_ServerCandidateApplicationHandler"><path codeLine="31" d="M217.2,247.216 C217.2,261.912 217.2,275.432 217.2,290.168 " fill="none" id="ListOwnCandidateApplicationsController-to-ServerCandidateApplicationHandler" style="stroke:#181818;stroke-width:0.8000000000000002;"/><polygon fill="#181818" points="217.2,294.968,220.4,287.768,217.2,290.968,214,287.768,217.2,294.968" style="stroke:#181818;stroke-width:0.8000000000000002;"/></g><!--link ServerCandidateApplicationHandler to FollowUpServer--><g id="link_ServerCandidateApplicationHandler_FollowUpServer"><path codeLine="33" d="M217.2,348.816 C217.2,363.512 217.2,377.032 217.2,391.768 " fill="none" id="ServerCandidateApplicationHandler-to-FollowUpServer" style="stroke:#181818;stroke-width:0.8000000000000002;stroke-dasharray:7.0,7.0;"/><polygon fill="#181818" points="217.2,396.568,220.4,389.368,217.2,392.568,214,389.368,217.2,396.568" style="stroke:#181818;stroke-width:0.8000000000000002;"/></g><!--link FollowUpServer to CandidateRepository--><g id="link_FollowUpServer_CandidateRepository"><path codeLine="35" d="M175.864,450.632 C151.904,465.84 126.3646,482.0438 104.8366,495.7078 " fill="none" id="FollowUpServer-to-CandidateRepository" style="stroke:#181818;stroke-width:0.8000000000000002;stroke-dasharray:7.0,7.0;"/><polygon fill="#181818" points="100.784,498.28,108.5777,497.1234,104.1612,496.1365,105.1481,491.7199,100.784,498.28" style="stroke:#181818;stroke-width:0.8000000000000002;"/></g><!--link FollowUpServer to UserRepository--><g id="link_FollowUpServer_UserRepository"><path codeLine="36" d="M217.2,450.632 C217.2,465.784 217.2,479.688 217.2,493.336 " fill="none" id="FollowUpServer-to-UserRepository" style="stroke:#181818;stroke-width:0.8000000000000002;stroke-dasharray:7.0,7.0;"/><polygon fill="#181818" points="217.2,498.136,220.4,490.936,217.2,494.136,214,490.936,217.2,498.136" style="stroke:#181818;stroke-width:0.8000000000000002;"/></g><!--link FollowUpServer to JobApplicationRepository--><g id="link_FollowUpServer_JobApplicationRepository"><path codeLine="37" d="M261.28,450.504 C287.048,465.768 314.8224,482.2173 337.9664,495.9293 " fill="none" id="FollowUpServer-to-JobApplicationRepository" style="stroke:#181818;stroke-width:0.8000000000000002;stroke-dasharray:7.0,7.0;"/><polygon fill="#181818" points="342.096,498.376,337.5327,491.9529,338.6546,496.3371,334.2704,497.4591,342.096,498.376" style="stroke:#181818;stroke-width:0.8000000000000002;"/></g><!--SRC=[ZP7H2i8W58RlprFiieZr28COH4MmAFO0jfrjWgYeD29wzroHsR2Sb_gTxyZ_LunedUI4rxGc1ijjSeF4daNL4TxYJfoBfa5rw8Z6sHpW3b0zH_PKcwBdRd8b9QCLCLHm_RHCGtF1ZHACeNelPY_QX-nY9pkXkg0AkJRsplEqQ1prnxUsoqLVofVN6run5lonF-o08qgXgH7gcjpSQwbH1HzigfvnXFXTf6aM2HeYFSGCd_nXOas3CLe2GBodvJ8RfGymQcD00Xc7iE-mGyIlrE41]--></g></svg>