<?xml version="1.0" encoding="us-ascii" standalone="no"?><svg xmlns="http://www.w3.org/2000/svg" xmlns:xlink="http://www.w3.org/1999/xlink" contentStyleType="text/css" height="708.8px" preserveAspectRatio="none" style="width:1283px;height:708px;background:#FFFFFF;" version="1.1" viewBox="0 0 1283 708" width="1283.2px" zoomAndPan="magnify"><defs/><g><rect fill="#FFFFFF" height="560.5547" style="stroke:#181818;stroke-width:0.8000000000000002;" width="8" x="28.4" y="74.8969"/><rect fill="#FFFFFF" height="477.2234" style="stroke:#181818;stroke-width:0.8000000000000002;" width="8" x="162.8" y="151.0281"/><rect fill="#FFFFFF" height="50.0656" style="stroke:#181818;stroke-width:0.8000000000000002;" width="8" x="294" y="176.0609"/><rect fill="#FFFFFF" height="25.0328" style="stroke:#181818;stroke-width:0.8000000000000002;" width="8" x="294" y="251.1594"/><rect fill="#FFFFFF" height="25.0328" style="stroke:#181818;stroke-width:0.8000000000000002;" width="8" x="294" y="603.2188"/><rect fill="#FFFFFF" height="25.0328" style="stroke:#181818;stroke-width:0.8000000000000002;" width="8" x="495.6" y="276.1922"/><rect fill="#FFFFFF" height="25.0328" style="stroke:#181818;stroke-width:0.8000000000000002;" width="8" x="495.6" y="578.1859"/><rect fill="#FFFFFF" height="50.0656" style="stroke:#181818;stroke-width:0.8000000000000002;" width="8" x="706" y="301.225"/><rect fill="#FFFFFF" height="25.0328" style="stroke:#181818;stroke-width:0.8000000000000002;" width="8" x="706" y="553.1531"/><rect fill="#FFFFFF" height="560.5547" style="stroke:#181818;stroke-width:0.8000000000000002;" width="8" x="947.6" y="74.8969"/><rect fill="#FFFFFF" height="25.0328" style="stroke:#181818;stroke-width:0.8000000000000002;" width="8" x="1211.6" y="376.3234"/><rect fill="#FFFFFF" height="25.0328" style="stroke:#181818;stroke-width:0.8000000000000002;" width="8" x="1211.6" y="426.3891"/><rect fill="#FFFFFF" height="25.0328" style="stroke:#181818;stroke-width:0.8000000000000002;" width="8" x="1211.6" y="497.4875"/><rect fill="none" height="65.4984" style="stroke:#000000;stroke-width:1.2000000000000002;" width="362" x="898.4" y="463.4219"/><line style="stroke:#181818;stroke-width:0.4000000000000001;stroke-dasharray:5.0,5.0;" x1="32" x2="32" y1="66.8969" y2="642.6516"/><line style="stroke:#181818;stroke-width:0.4000000000000001;stroke-dasharray:5.0,5.0;" x1="166.4" x2="166.4" y1="66.8969" y2="642.6516"/><line style="stroke:#181818;stroke-width:0.4000000000000001;stroke-dasharray:5.0,5.0;" x1="297.6" x2="297.6" y1="66.8969" y2="642.6516"/><line style="stroke:#181818;stroke-width:0.4000000000000001;stroke-dasharray:5.0,5.0;" x1="499.2" x2="499.2" y1="66.8969" y2="642.6516"/><line style="stroke:#181818;stroke-width:0.4000000000000001;stroke-dasharray:5.0,5.0;" x1="709.6" x2="709.6" y1="66.8969" y2="642.6516"/><line style="stroke:#181818;stroke-width:0.4000000000000001;stroke-dasharray:5.0,5.0;" x1="951.2" x2="951.2" y1="66.8969" y2="642.6516"/><line style="stroke:#181818;stroke-width:0.4000000000000001;stroke-dasharray:5.0,5.0;" x1="1215.6" x2="1215.6" y1="66.8969" y2="642.6516"/><text fill="#000000" font-family="sans-serif" font-size="11.2" lengthAdjust="spacing" textLength="52" x="4" y="64.0859">Candidate</text><ellipse cx="32.4" cy="10.8" fill="#E2E2F0" rx="6.4" ry="6.4" style="stroke:#181818;stroke-width:0.4000000000000001;"/><path d="M32.4,17.2 L32.4,38.8 M22,23.6 L42.8,23.6 M32.4,38.8 L22,50.8 M32.4,38.8 L42.8,50.8 " fill="none" style="stroke:#181818;stroke-width:0.4000000000000001;"/><text fill="#000000" font-family="sans-serif" font-size="11.2" lengthAdjust="spacing" textLength="52" x="4" y="653.9375">Candidate</text><ellipse cx="32.4" cy="663.5484" fill="#E2E2F0" rx="6.4" ry="6.4" style="stroke:#181818;stroke-width:0.4000000000000001;"/><path d="M32.4,669.9484 L32.4,691.5484 M22,676.3484 L42.8,676.3484 M32.4,691.5484 L22,703.5484 M32.4,691.5484 L42.8,703.5484 " fill="none" style="stroke:#181818;stroke-width:0.4000000000000001;"/><rect fill="#E2E2F0" height="26.0969" rx="2" ry="2" style="stroke:#181818;stroke-width:0.4000000000000001;" width="72.8" x="130.4" y="40"/><text fill="#000000" font-family="sans-serif" font-size="11.2" lengthAdjust="spacing" textLength="61.6" x="136" y="57.6859">CandidateUI</text><rect fill="#E2E2F0" height="26.0969" rx="2" ry="2" style="stroke:#181818;stroke-width:0.4000000000000001;" width="72.8" x="130.4" y="641.8516"/><text fill="#000000" font-family="sans-serif" font-size="11.2" lengthAdjust="spacing" textLength="61.6" x="136" y="659.5375">CandidateUI</text><rect fill="#E2E2F0" height="26.0969" rx="2" ry="2" style="stroke:#181818;stroke-width:0.4000000000000001;" width="173.6" x="211.2" y="40"/><text fill="#000000" font-family="sans-serif" font-size="11.2" lengthAdjust="spacing" textLength="162.4" x="216.8" y="57.6859">ListOwnCandidateApplicationsUI</text><rect fill="#E2E2F0" height="26.0969" rx="2" ry="2" style="stroke:#181818;stroke-width:0.4000000000000001;" width="173.6" x="211.2" y="641.8516"/><text fill="#000000" font-family="sans-serif" font-size="11.2" lengthAdjust="spacing" textLength="162.4" x="216.8" y="659.5375">ListOwnCandidateApplicationsUI</text><rect fill="#E2E2F0" height="26.0969" rx="2" ry="2" style="stroke:#181818;stroke-width:0.4000000000000001;" width="213.6" x="392.8" y="40"/><text fill="#000000" font-family="sans-serif" font-size="11.2" lengthAdjust="spacing" textLength="202.4" x="398.4" y="57.6859">ListOwnCandidateApplicationsController</text><rect fill="#E2E2F0" height="26.0969" rx="2" ry="2" style="stroke:#181818;stroke-width:0.4000000000000001;" width="213.6" x="392.8" y="641.8516"/><text fill="#000000" font-family="sans-serif" font-size="11.2" lengthAdjust="spacing" textLength="202.4" x="398.4" y="659.5375">ListOwnCandidateApplicationsController</text><rect fill="#E2E2F0" height="26.0969" rx="2" ry="2" style="stroke:#181818;stroke-width:0.4000000000000001;" width="191.2" x="614.4" y="40"/><text fill="#000000" font-family="sans-serif" font-size="11.2" lengthAdjust="spacing" textLength="180" x="620" y="57.6859">ServerCandidateApplicationHandler</text><rect fill="#E2E2F0" height="26.0969" rx="2" ry="2" style="stroke:#181818;stroke-width:0.4000000000000001;" width="191.2" x="614.4" y="641.8516"/><text fill="#000000" font-family="sans-serif" font-size="11.2" lengthAdjust="spacing" textLength="180" x="620" y="659.5375">ServerCandidateApplicationHandler</text><rect fill="#E2E2F0" height="26.0969" rx="2" ry="2" style="stroke:#181818;stroke-width:0.4000000000000001;" width="90.4" x="906.4" y="40"/><text fill="#000000" font-family="sans-serif" font-size="11.2" lengthAdjust="spacing" textLength="79.2" x="912" y="57.6859">FollowUpServer</text><rect fill="#E2E2F0" height="26.0969" rx="2" ry="2" style="stroke:#181818;stroke-width:0.4000000000000001;" width="90.4" x="906.4" y="641.8516"/><text fill="#000000" font-family="sans-serif" font-size="11.2" lengthAdjust="spacing" textLength="79.2" x="912" y="659.5375">FollowUpServer</text><rect fill="#E2E2F0" height="26.0969" rx="2" ry="2" style="stroke:#181818;stroke-width:0.4000000000000001;" width="73.6" x="1178.8" y="40"/><text fill="#000000" font-family="sans-serif" font-size="11.2" lengthAdjust="spacing" textLength="62.4" x="1184.4" y="57.6859">H2Database</text><rect fill="#E2E2F0" height="26.0969" rx="2" ry="2" style="stroke:#181818;stroke-width:0.4000000000000001;" width="73.6" x="1178.8" y="641.8516"/><text fill="#000000" font-family="sans-serif" font-size="11.2" lengthAdjust="spacing" textLength="62.4" x="1184.4" y="659.5375">H2Database</text><rect fill="#FFFFFF" height="560.5547" style="stroke:#181818;stroke-width:0.8000000000000002;" width="8" x="28.4" y="74.8969"/><rect fill="#FFFFFF" height="477.2234" style="stroke:#181818;stroke-width:0.8000000000000002;" width="8" x="162.8" y="151.0281"/><rect fill="#FFFFFF" height="50.0656" style="stroke:#181818;stroke-width:0.8000000000000002;" width="8" x="294" y="176.0609"/><rect fill="#FFFFFF" height="25.0328" style="stroke:#181818;stroke-width:0.8000000000000002;" width="8" x="294" y="251.1594"/><rect fill="#FFFFFF" height="25.0328" style="stroke:#181818;stroke-width:0.8000000000000002;" width="8" x="294" y="603.2188"/><rect fill="#FFFFFF" height="25.0328" style="stroke:#181818;stroke-width:0.8000000000000002;" width="8" x="495.6" y="276.1922"/><rect fill="#FFFFFF" height="25.0328" style="stroke:#181818;stroke-width:0.8000000000000002;" width="8" x="495.6" y="578.1859"/><rect fill="#FFFFFF" height="50.0656" style="stroke:#181818;stroke-width:0.8000000000000002;" width="8" x="706" y="301.225"/><rect fill="#FFFFFF" height="25.0328" style="stroke:#181818;stroke-width:0.8000000000000002;" width="8" x="706" y="553.1531"/><rect fill="#FFFFFF" height="560.5547" style="stroke:#181818;stroke-width:0.8000000000000002;" width="8" x="947.6" y="74.8969"/><rect fill="#FFFFFF" height="25.0328" style="stroke:#181818;stroke-width:0.8000000000000002;" width="8" x="1211.6" y="376.3234"/><rect fill="#FFFFFF" height="25.0328" style="stroke:#181818;stroke-width:0.8000000000000002;" width="8" x="1211.6" y="426.3891"/><rect fill="#FFFFFF" height="25.0328" style="stroke:#181818;stroke-width:0.8000000000000002;" width="8" x="1211.6" y="497.4875"/><path d="M959.2,78.8969 L959.2,127.6969 L1277.6,127.6969 L1277.6,86.8969 L1269.6,78.8969 L959.2,78.8969 " fill="#FEFFDD" style="stroke:#181818;stroke-width:0.4000000000000001;"/><path d="M1269.6,78.8969 L1269.6,86.8969 L1277.6,86.8969 L1269.6,78.8969 " fill="#FEFFDD" style="stroke:#181818;stroke-width:0.4000000000000001;"/><text fill="#000000" font-family="sans-serif" font-size="10.4" lengthAdjust="spacing" textLength="272" x="964" y="94.1195">The activation bar is always active, since these 2 programs</text><text fill="#000000" font-family="sans-serif" font-size="10.4" lengthAdjust="spacing" textLength="301.6" x="964" y="107.9523">are, infact, running at the same time in 2 hosts. It is possible that</text><text fill="#000000" font-family="sans-serif" font-size="10.4" lengthAdjust="spacing" textLength="265.6" x="964" y="121.7852">the server doing more operations than the one expressed.</text><polygon fill="#181818" points="153.2,147.8281,161.2,151.0281,153.2,154.2281,156.4,151.0281" style="stroke:#181818;stroke-width:0.8000000000000002;"/><line style="stroke:#181818;stroke-width:0.8000000000000002;" x1="36.4" x2="158" y1="151.0281" y2="151.0281"/><text fill="#000000" font-family="sans-serif" font-size="10.4" font-weight="bold" lengthAdjust="spacing" textLength="5.6" x="42" y="146.818">1</text><text fill="#000000" font-family="sans-serif" font-size="10.4" lengthAdjust="spacing" textLength="102.4" x="50.8" y="146.818">validate jobAplications</text><polygon fill="#181818" points="284.4,172.8609,292.4,176.0609,284.4,179.2609,287.6,176.0609" style="stroke:#181818;stroke-width:0.8000000000000002;"/><line style="stroke:#181818;stroke-width:0.8000000000000002;" x1="170.8" x2="289.2" y1="176.0609" y2="176.0609"/><text fill="#000000" font-family="sans-serif" font-size="10.4" font-weight="bold" lengthAdjust="spacing" textLength="5.6" x="176.4" y="171.8508">2</text><text fill="#000000" font-family="sans-serif" font-size="10.4" lengthAdjust="spacing" textLength="97.6" x="185.2" y="171.8508">validateApplications()</text><polygon fill="#181818" points="490,197.8938,498,201.0938,490,204.2938,493.2,201.0938" style="stroke:#181818;stroke-width:0.8000000000000002;"/><line style="stroke:#181818;stroke-width:0.8000000000000002;" x1="302" x2="494.8" y1="201.0938" y2="201.0938"/><text fill="#000000" font-family="sans-serif" font-size="10.4" font-weight="bold" lengthAdjust="spacing" textLength="5.6" x="307.6" y="196.8836">3</text><text fill="#000000" font-family="sans-serif" font-size="10.4" lengthAdjust="spacing" textLength="35.2" x="316.4" y="196.8836">create()</text><polygon fill="#181818" points="45.2,222.9266,37.2,226.1266,45.2,229.3266,42,226.1266" style="stroke:#181818;stroke-width:0.8000000000000002;"/><line style="stroke:#181818;stroke-width:0.8000000000000002;stroke-dasharray:2.0,2.0;" x1="40.4" x2="297.2" y1="226.1266" y2="226.1266"/><text fill="#000000" font-family="sans-serif" font-size="10.4" font-weight="bold" lengthAdjust="spacing" textLength="5.6" x="50" y="221.9164">4</text><text fill="#000000" font-family="sans-serif" font-size="10.4" lengthAdjust="spacing" textLength="84" x="58.8" y="221.9164">asks for password</text><polygon fill="#181818" points="284.4,247.9594,292.4,251.1594,284.4,254.3594,287.6,251.1594" style="stroke:#181818;stroke-width:0.8000000000000002;"/><line style="stroke:#181818;stroke-width:0.8000000000000002;" x1="36.4" x2="289.2" y1="251.1594" y2="251.1594"/><text fill="#000000" font-family="sans-serif" font-size="10.4" font-weight="bold" lengthAdjust="spacing" textLength="5.6" x="42" y="246.9492">5</text><text fill="#000000" font-family="sans-serif" font-size="10.4" lengthAdjust="spacing" textLength="44" x="50.8" y="246.9492">password</text><polygon fill="#181818" points="486,272.9922,494,276.1922,486,279.3922,489.2,276.1922" style="stroke:#181818;stroke-width:0.8000000000000002;"/><line style="stroke:#181818;stroke-width:0.8000000000000002;" x1="298" x2="490.8" y1="276.1922" y2="276.1922"/><text fill="#000000" font-family="sans-serif" font-size="10.4" font-weight="bold" lengthAdjust="spacing" textLength="5.6" x="303.6" y="271.982">6</text><text fill="#000000" font-family="sans-serif" font-size="10.4" lengthAdjust="spacing" textLength="141.6" x="312.4" y="271.982">listOwnApplications(password)</text><polygon fill="#181818" points="696.4,298.025,704.4,301.225,696.4,304.425,699.6,301.225" style="stroke:#181818;stroke-width:0.8000000000000002;"/><line style="stroke:#181818;stroke-width:0.8000000000000002;" x1="499.6" x2="701.2" y1="301.225" y2="301.225"/><text fill="#000000" font-family="sans-serif" font-size="10.4" font-weight="bold" lengthAdjust="spacing" textLength="5.6" x="505.2" y="297.0148">7</text><text fill="#000000" font-family="sans-serif" font-size="10.4" lengthAdjust="spacing" textLength="144.8" x="514" y="297.0148">getCandidateOwnApplications()</text><polygon fill="#181818" points="938,323.0578,946,326.2578,938,329.4578,941.2,326.2578" style="stroke:#181818;stroke-width:0.8000000000000002;"/><line style="stroke:#181818;stroke-width:0.8000000000000002;" x1="714" x2="942.8" y1="326.2578" y2="326.2578"/><text fill="#000000" font-family="sans-serif" font-size="10.4" font-weight="bold" lengthAdjust="spacing" textLength="5.6" x="719.6" y="322.0477">8</text><text fill="#000000" font-family="sans-serif" font-size="10.4" lengthAdjust="spacing" textLength="157.6" x="728.4" y="322.0477">sendVersionAndCode(sOut, code)</text><polygon fill="#181818" points="938,348.0906,946,351.2906,938,354.4906,941.2,351.2906" style="stroke:#181818;stroke-width:0.8000000000000002;"/><line style="stroke:#181818;stroke-width:0.8000000000000002;" x1="710" x2="942.8" y1="351.2906" y2="351.2906"/><text fill="#000000" font-family="sans-serif" font-size="10.4" font-weight="bold" lengthAdjust="spacing" textLength="5.6" x="715.6" y="347.0805">9</text><text fill="#000000" font-family="sans-serif" font-size="10.4" lengthAdjust="spacing" textLength="205.6" x="724.4" y="347.0805">sendCredentials(sOut, username, password)</text><polygon fill="#181818" points="1202,373.1234,1210,376.3234,1202,379.5234,1205.2,376.3234" style="stroke:#181818;stroke-width:0.8000000000000002;"/><line style="stroke:#181818;stroke-width:0.8000000000000002;" x1="955.6" x2="1206.8" y1="376.3234" y2="376.3234"/><text fill="#000000" font-family="sans-serif" font-size="10.4" font-weight="bold" lengthAdjust="spacing" textLength="11.2" x="961.2" y="372.1133">10</text><text fill="#000000" font-family="sans-serif" font-size="10.4" lengthAdjust="spacing" textLength="133.6" x="975.6" y="372.1133">findByRefCode(userRefCode)</text><polygon fill="#181818" points="964.4,398.1563,956.4,401.3563,964.4,404.5563,961.2,401.3563" style="stroke:#181818;stroke-width:0.8000000000000002;"/><line style="stroke:#181818;stroke-width:0.8000000000000002;stroke-dasharray:2.0,2.0;" x1="959.6" x2="1214.8" y1="401.3563" y2="401.3563"/><text fill="#000000" font-family="sans-serif" font-size="10.4" font-weight="bold" lengthAdjust="spacing" textLength="11.2" x="969.2" y="397.1461">11</text><text fill="#000000" font-family="sans-serif" font-size="10.4" lengthAdjust="spacing" textLength="44.8" x="983.6" y="397.1461">candidate</text><polygon fill="#181818" points="1202,423.1891,1210,426.3891,1202,429.5891,1205.2,426.3891" style="stroke:#181818;stroke-width:0.8000000000000002;"/><line style="stroke:#181818;stroke-width:0.8000000000000002;" x1="955.6" x2="1206.8" y1="426.3891" y2="426.3891"/><text fill="#000000" font-family="sans-serif" font-size="10.4" font-weight="bold" lengthAdjust="spacing" textLength="11.2" x="961.2" y="422.1789">12</text><text fill="#000000" font-family="sans-serif" font-size="10.4" lengthAdjust="spacing" textLength="183.2" x="975.6" y="422.1789">findApplicationsByCandidate(candidate)</text><polygon fill="#181818" points="964.4,448.2219,956.4,451.4219,964.4,454.6219,961.2,451.4219" style="stroke:#181818;stroke-width:0.8000000000000002;"/><line style="stroke:#181818;stroke-width:0.8000000000000002;stroke-dasharray:2.0,2.0;" x1="959.6" x2="1214.8" y1="451.4219" y2="451.4219"/><text fill="#000000" font-family="sans-serif" font-size="10.4" font-weight="bold" lengthAdjust="spacing" textLength="11.2" x="969.2" y="447.2117">13</text><text fill="#000000" font-family="sans-serif" font-size="10.4" lengthAdjust="spacing" textLength="55.2" x="983.6" y="447.2117">applications</text><path d="M898.4,463.4219 L956.8,463.4219 L956.8,470.8547 L948.8,478.8547 L898.4,478.8547 L898.4,463.4219 " fill="#EEEEEE" style="stroke:#000000;stroke-width:1.2000000000000002;"/><rect fill="none" height="65.4984" style="stroke:#000000;stroke-width:1.2000000000000002;" width="362" x="898.4" y="463.4219"/><text fill="#000000" font-family="sans-serif" font-size="10.4" font-weight="bold" lengthAdjust="spacing" textLength="22.4" x="910.4" y="475.4445">loop</text><polygon fill="#181818" points="1202,494.2875,1210,497.4875,1202,500.6875,1205.2,497.4875" style="stroke:#181818;stroke-width:0.8000000000000002;"/><line style="stroke:#181818;stroke-width:0.8000000000000002;" x1="955.6" x2="1206.8" y1="497.4875" y2="497.4875"/><text fill="#000000" font-family="sans-serif" font-size="10.4" font-weight="bold" lengthAdjust="spacing" textLength="11.2" x="961.2" y="493.2773">14</text><text fill="#000000" font-family="sans-serif" font-size="10.4" lengthAdjust="spacing" textLength="226.4" x="975.6" y="493.2773">findAllApplicationsOfJobOffer(applicationJobOffer)</text><polygon fill="#181818" points="964.4,519.3203,956.4,522.5203,964.4,525.7203,961.2,522.5203" style="stroke:#181818;stroke-width:0.8000000000000002;"/><line style="stroke:#181818;stroke-width:0.8000000000000002;stroke-dasharray:2.0,2.0;" x1="959.6" x2="1214.8" y1="522.5203" y2="522.5203"/><text fill="#000000" font-family="sans-serif" font-size="10.4" font-weight="bold" lengthAdjust="spacing" textLength="11.2" x="969.2" y="518.3102">15</text><text fill="#000000" font-family="sans-serif" font-size="10.4" lengthAdjust="spacing" textLength="88" x="983.6" y="518.3102">applicationsToOffer</text><polygon fill="#181818" points="722.8,549.9531,714.8,553.1531,722.8,556.3531,719.6,553.1531" style="stroke:#181818;stroke-width:0.8000000000000002;"/><line style="stroke:#181818;stroke-width:0.8000000000000002;stroke-dasharray:2.0,2.0;" x1="718" x2="946.8" y1="553.1531" y2="553.1531"/><text fill="#000000" font-family="sans-serif" font-size="10.4" font-weight="bold" lengthAdjust="spacing" textLength="11.2" x="727.6" y="548.943">16</text><text fill="#000000" font-family="sans-serif" font-size="10.4" lengthAdjust="spacing" textLength="105.6" x="742" y="548.943">applicationsInformation</text><polygon fill="#181818" points="512.4,574.9859,504.4,578.1859,512.4,581.3859,509.2,578.1859" style="stroke:#181818;stroke-width:0.8000000000000002;"/><line style="stroke:#181818;stroke-width:0.8000000000000002;stroke-dasharray:2.0,2.0;" x1="507.6" x2="709.2" y1="578.1859" y2="578.1859"/><text fill="#000000" font-family="sans-serif" font-size="10.4" font-weight="bold" lengthAdjust="spacing" textLength="11.2" x="517.2" y="573.9758">17</text><text fill="#000000" font-family="sans-serif" font-size="10.4" lengthAdjust="spacing" textLength="105.6" x="531.6" y="573.9758">applicationsInformation</text><polygon fill="#181818" points="310.8,600.0188,302.8,603.2188,310.8,606.4188,307.6,603.2188" style="stroke:#181818;stroke-width:0.8000000000000002;"/><line style="stroke:#181818;stroke-width:0.8000000000000002;stroke-dasharray:2.0,2.0;" x1="306" x2="498.8" y1="603.2188" y2="603.2188"/><text fill="#000000" font-family="sans-serif" font-size="10.4" font-weight="bold" lengthAdjust="spacing" textLength="11.2" x="315.6" y="599.0086">18</text><text fill="#000000" font-family="sans-serif" font-size="10.4" lengthAdjust="spacing" textLength="105.6" x="330" y="599.0086">applicationsInformation</text><polygon fill="#181818" points="45.2,625.0516,37.2,628.2516,45.2,631.4516,42,628.2516" style="stroke:#181818;stroke-width:0.8000000000000002;"/><line style="stroke:#181818;stroke-width:0.8000000000000002;stroke-dasharray:2.0,2.0;" x1="40.4" x2="297.2" y1="628.2516" y2="628.2516"/><text fill="#000000" font-family="sans-serif" font-size="10.4" font-weight="bold" lengthAdjust="spacing" textLength="11.2" x="50" y="624.0414">19</text><text fill="#000000" font-family="sans-serif" font-size="10.4" lengthAdjust="spacing" textLength="3.2" x="64.4" y="624.0414">&#160;</text><!--SRC=[nLPDRzim3BthL_2s14XReCSU1gGfXdOO461hTrTiEj4cIveeDyk_7-saZfoaiTAFLOV04Cd7noU5rAT528wkBYwSbYPKfJxFR7b1-AT2a-5PhkJSor88MGLhgdA6dh-pO3rCfCbLBWCAuQGFAbEE4RRR3tUT_M-AmdHfMlFOEQqo6PGrT8Bhn9hWhTRC8mxvWVuH_Q68MzxRzVx207RvuDPH7TFjvOqCSYO9cphL8wD5fRPREn36yfvNyyKU-Fq2OHF5R60cFIW2gPToHMi3Ze0KYmrXWOHm2SxRMdGIqhDDcOBTHk0hOvIPWmor8v0iEKBnZp8Six0Kw1pkGetkB96QwHfH1j5uDsGWjpL2QJs2TUZNajPUfi6q1W7_Eez4c9yBD3dKXGdH2W1dd-CJXYjub7fj-MLdu-qv2U2rBo2VT6s88HZn-Ds8aiI6mR21wkJfkMGGhPwSFQosrv3PPHxPp7nEIX0hoI2IVXCK_BzoacXfVTw2vPXQN_USUbNTo_J1EkgrO-UGdpWEEqdJ9OcZacAY1WCxAx4GBhct7N6rSmojmsxLmxtSYHKVOT_6z_TAEB3wI-AwkxsFYoJk8J_H4xkDJJwnEGveMd4to_Xp-CQ99XvpD459JPii5VSzmuro18VlqG5r-zKvY52l7L9CSpjDc6AXJ7wz-ev58qDDRVCzV1QnPHMD9JYoedndXrJAsa7s74AaH4BEX8hZstczQdKTj5J-N_NIxSodrmkWhNMlKaVhMA1fyTNEfaM1VX2HVThx6ANkRPFyZGIhtnIDQCcg9RRJcFATuK5QDj_Yg5plrWfF6Nkfp4zgKi-M_CwpB-NTaLBmo-TTycFf9Gyr8Lxs18cyuxSmhty0]--></g></svg>