<?xml version="1.0" encoding="us-ascii" standalone="no"?><svg xmlns="http://www.w3.org/2000/svg" xmlns:xlink="http://www.w3.org/1999/xlink" contentStyleType="text/css" height="640.2px" preserveAspectRatio="none" style="width:1214px;height:640px;background:#FFFFFF;" version="1.1" viewBox="0 0 1214 640" width="1214.4px" zoomAndPan="magnify"><defs/><g><!--cluster UserAggregate--><g id="cluster_UserAggregate"><path d="M381.9,3.6082 L446.1,3.6082 A2.25,2.25 0 0 1 447.6,5.1082 L451.8,18.3809 L758.7,18.3809 A1.5,1.5 0 0 1 760.2,19.8809 L760.2,282.9082 A1.5,1.5 0 0 1 758.7,284.4082 L381.9,284.4082 A1.5,1.5 0 0 1 380.4,282.9082 L380.4,5.1082 A1.5,1.5 0 0 1 381.9,3.6082 " fill="none" style="stroke:#000000;stroke-width:0.8999999999999999;"/><line style="stroke:#000000;stroke-width:0.8999999999999999;" x1="380.4" x2="451.8" y1="18.3809" y2="18.3809"/><text fill="#000000" font-family="sans-serif" font-size="8.4" font-weight="bold" lengthAdjust="spacing" textLength="63.6" x="382.8" y="13.8727">UserAggregate</text></g><!--cluster JobOfferAggregate--><g id="cluster_JobOfferAggregate"><path d="M533.1,405.6082 L614.7,405.6082 A2.25,2.25 0 0 1 616.2,407.1082 L620.4,420.3809 L1132.5,420.3809 A1.5,1.5 0 0 1 1134,421.8809 L1134,634.5082 A1.5,1.5 0 0 1 1132.5,636.0082 L533.1,636.0082 A1.5,1.5 0 0 1 531.6,634.5082 L531.6,407.1082 A1.5,1.5 0 0 1 533.1,405.6082 " fill="none" style="stroke:#000000;stroke-width:0.8999999999999999;"/><line style="stroke:#000000;stroke-width:0.8999999999999999;" x1="531.6" x2="620.4" y1="420.3809" y2="420.3809"/><text fill="#000000" font-family="sans-serif" font-size="8.4" font-weight="bold" lengthAdjust="spacing" textLength="81" x="534" y="415.8727">JobOfferAggregate</text></g><!--cluster ApplicationAggregate--><g id="cluster_ApplicationAggregate"><path d="M5.1,304.2082 L96.3,304.2082 A2.25,2.25 0 0 1 97.8,305.7082 L102,318.9809 L515.7,318.9809 A1.5,1.5 0 0 1 517.2,320.4809 L517.2,474.3082 A1.5,1.5 0 0 1 515.7,475.8082 L5.1,475.8082 A1.5,1.5 0 0 1 3.6,474.3082 L3.6,305.7082 A1.5,1.5 0 0 1 5.1,304.2082 " fill="none" style="stroke:#000000;stroke-width:0.8999999999999999;"/><line style="stroke:#000000;stroke-width:0.8999999999999999;" x1="3.6" x2="102" y1="318.9809" y2="318.9809"/><text fill="#000000" font-family="sans-serif" font-size="8.4" font-weight="bold" lengthAdjust="spacing" textLength="90.6" x="6" y="314.4727">ApplicationAggregate</text></g><!--class Customer--><g id="elem_Customer"><rect codeLine="5" fill="#F1F1F1" height="39.9727" id="Customer" rx="1.5" ry="1.5" style="stroke:#181818;stroke-width:0.3;" width="55.8" x="645.9" y="25.8082"/><ellipse cx="654.9" cy="35.4082" fill="#ADD1B2" rx="6.6" ry="6.6" style="stroke:#181818;stroke-width:0.6;"/><path d="M654.2156,35.8863 L654.2156,37.3863 L656.8125,37.3863 L656.8125,36.8332 Q656.8125,36.4676 656.9531,36.3082 Q657.1031,36.1488 657.3281,36.1488 Q657.5531,36.1488 657.6938,36.3082 Q657.8344,36.4676 657.8344,36.8332 L657.8344,38.4082 L653.0344,38.4082 Q652.6594,38.4082 652.5,38.2676 Q652.35,38.127 652.35,37.8926 Q652.35,37.6676 652.5094,37.527 Q652.6687,37.3863 653.0344,37.3863 L653.1938,37.3863 L653.1938,33.3926 L653.0344,33.3926 Q652.6594,33.3926 652.5,33.252 Q652.35,33.1113 652.35,32.877 Q652.35,32.652 652.5,32.5113 Q652.6594,32.3707 653.0344,32.3707 L657.6094,32.3707 L657.6094,33.927 Q657.6094,34.2926 657.4688,34.452 Q657.3375,34.602 657.1031,34.602 Q656.8781,34.602 656.7375,34.452 Q656.5969,34.2926 656.5969,33.927 L656.5969,33.3926 L654.2156,33.3926 L654.2156,34.8645 L655.1062,34.8645 Q655.1062,34.4707 655.1813,34.3582 Q655.3406,34.1145 655.6219,34.1145 Q655.8469,34.1145 655.9875,34.2738 Q656.1281,34.4238 656.1281,34.7895 L656.1281,35.9707 Q656.1281,36.2988 656.0531,36.4113 Q655.8938,36.6457 655.6219,36.6457 Q655.3406,36.6457 655.1813,36.402 Q655.1062,36.2895 655.1062,35.8863 L654.2156,35.8863 Z " fill="#000000"/><text fill="#000000" font-family="sans-serif" font-size="8.4" lengthAdjust="spacing" textLength="36.6" x="663.3" y="38.8863">Customer</text><line style="stroke:#181818;stroke-width:0.3;" x1="646.5" x2="701.1" y1="45.0082" y2="45.0082"/><text fill="#000000" font-family="sans-serif" font-size="8.4" lengthAdjust="spacing" textLength="30" x="649.5" y="56.4727">&#171;entity&#187;</text><line style="stroke:#181818;stroke-width:0.3;" x1="646.5" x2="701.1" y1="60.9809" y2="60.9809"/></g><!--class User--><g id="elem_User"><rect codeLine="9" fill="#F1F1F1" height="39.9727" id="User" rx="1.5" ry="1.5" style="stroke:#181818;stroke-width:0.3;" width="54.6" x="609.3" y="102.6082"/><ellipse cx="626.4" cy="112.2082" fill="#ADD1B2" rx="6.6" ry="6.6" style="stroke:#181818;stroke-width:0.6;"/><path d="M625.7156,112.6863 L625.7156,114.1863 L628.3125,114.1863 L628.3125,113.6332 Q628.3125,113.2676 628.4531,113.1082 Q628.6031,112.9488 628.8281,112.9488 Q629.0531,112.9488 629.1938,113.1082 Q629.3344,113.2676 629.3344,113.6332 L629.3344,115.2082 L624.5344,115.2082 Q624.1594,115.2082 624,115.0676 Q623.85,114.927 623.85,114.6926 Q623.85,114.4676 624.0094,114.327 Q624.1687,114.1863 624.5344,114.1863 L624.6938,114.1863 L624.6938,110.1926 L624.5344,110.1926 Q624.1594,110.1926 624,110.052 Q623.85,109.9113 623.85,109.677 Q623.85,109.452 624,109.3113 Q624.1594,109.1707 624.5344,109.1707 L629.1094,109.1707 L629.1094,110.727 Q629.1094,111.0926 628.9688,111.252 Q628.8375,111.402 628.6031,111.402 Q628.3781,111.402 628.2375,111.252 Q628.0969,111.0926 628.0969,110.727 L628.0969,110.1926 L625.7156,110.1926 L625.7156,111.6645 L626.6062,111.6645 Q626.6062,111.2707 626.6813,111.1582 Q626.8406,110.9145 627.1219,110.9145 Q627.3469,110.9145 627.4875,111.0738 Q627.6281,111.2238 627.6281,111.5895 L627.6281,112.7707 Q627.6281,113.0988 627.5531,113.2113 Q627.3938,113.4457 627.1219,113.4457 Q626.8406,113.4457 626.6813,113.202 Q626.6062,113.0895 626.6062,112.6863 L625.7156,112.6863 Z " fill="#000000"/><text fill="#000000" font-family="sans-serif" font-size="8.4" lengthAdjust="spacing" textLength="17.4" x="636.6" y="115.6863">User</text><line style="stroke:#181818;stroke-width:0.3;" x1="609.9" x2="663.3" y1="121.8082" y2="121.8082"/><text fill="#000000" font-family="sans-serif" font-size="8.4" lengthAdjust="spacing" textLength="47.4" x="612.9" y="133.2727">&#171;root entity&#187;</text><line style="stroke:#181818;stroke-width:0.3;" x1="609.9" x2="663.3" y1="137.7809" y2="137.7809"/></g><!--class EmailAddress--><g id="elem_EmailAddress"><rect codeLine="13" fill="#F1F1F1" height="36.3492" id="EmailAddress" rx="1.5" ry="1.5" style="stroke:#181818;stroke-width:0.3;" width="97.2" x="390" y="238.2082"/><ellipse cx="399" cy="251.5828" fill="#F09000" rx="6.6" ry="6.6" style="stroke:#181818;stroke-width:0.6;"/><path d="M399.3563,253.5422 L400.8375,250.0172 L400.6031,250.0172 Q400.2375,250.0172 400.0781,249.8766 Q399.9188,249.7359 399.9188,249.5016 Q399.9188,249.2766 400.0781,249.1359 Q400.2375,248.9953 400.6031,248.9953 L401.9719,248.9953 Q402.3375,248.9953 402.4969,249.1359 Q402.6563,249.2766 402.6563,249.5016 Q402.6563,249.7828 402.4125,249.9422 Q402.3,250.0172 401.9437,250.0172 L399.8531,255.0328 L398.8688,255.0328 L396.7781,250.0172 Q396.4219,250.0172 396.3094,249.9422 Q396.0656,249.7828 396.0656,249.5016 Q396.0656,249.2766 396.225,249.1359 Q396.3844,248.9953 396.75,248.9953 L398.1281,248.9953 Q398.4938,248.9953 398.6438,249.1359 Q398.8031,249.2766 398.8031,249.5016 Q398.8031,249.7359 398.6438,249.8766 Q398.4938,250.0172 398.1281,250.0172 L397.8844,250.0172 L399.3563,253.5422 Z " fill="#000000"/><text fill="#000000" font-family="sans-serif" font-size="7.2" font-style="italic" lengthAdjust="spacing" textLength="80.4" x="406.2" y="248.9777">&#171;Identifier value Object&#187;</text><text fill="#000000" font-family="sans-serif" font-size="8.4" lengthAdjust="spacing" textLength="51.6" x="420.6" y="259.8492">EmailAddress</text><line style="stroke:#181818;stroke-width:0.3;" x1="390.6" x2="486.6" y1="264.9574" y2="264.9574"/><line style="stroke:#181818;stroke-width:0.3;" x1="390.6" x2="486.6" y1="269.7574" y2="269.7574"/></g><!--class Password--><g id="elem_Password"><rect codeLine="14" fill="#F1F1F1" height="36.3492" id="Password" rx="1.5" ry="1.5" style="stroke:#181818;stroke-width:0.3;" width="66.6" x="508.5" y="238.2082"/><ellipse cx="517.5" cy="251.5828" fill="#F04800" rx="6.6" ry="6.6" style="stroke:#181818;stroke-width:0.6;"/><path d="M517.8562,253.5422 L519.3375,250.0172 L519.1031,250.0172 Q518.7375,250.0172 518.5781,249.8766 Q518.4187,249.7359 518.4187,249.5016 Q518.4187,249.2766 518.5781,249.1359 Q518.7375,248.9953 519.1031,248.9953 L520.4719,248.9953 Q520.8375,248.9953 520.9969,249.1359 Q521.1563,249.2766 521.1563,249.5016 Q521.1563,249.7828 520.9125,249.9422 Q520.8,250.0172 520.4438,250.0172 L518.3531,255.0328 L517.3688,255.0328 L515.2781,250.0172 Q514.9219,250.0172 514.8094,249.9422 Q514.5656,249.7828 514.5656,249.5016 Q514.5656,249.2766 514.725,249.1359 Q514.8844,248.9953 515.25,248.9953 L516.6281,248.9953 Q516.9938,248.9953 517.1438,249.1359 Q517.3031,249.2766 517.3031,249.5016 Q517.3031,249.7359 517.1438,249.8766 Q516.9938,250.0172 516.6281,250.0172 L516.3844,250.0172 L517.8562,253.5422 Z " fill="#000000"/><text fill="#000000" font-family="sans-serif" font-size="7.2" font-style="italic" lengthAdjust="spacing" textLength="49.8" x="524.7" y="248.9777">&#171;value Object&#187;</text><text fill="#000000" font-family="sans-serif" font-size="8.4" lengthAdjust="spacing" textLength="36.6" x="531.3" y="259.8492">Password</text><line style="stroke:#181818;stroke-width:0.3;" x1="509.1" x2="574.5" y1="264.9574" y2="264.9574"/><line style="stroke:#181818;stroke-width:0.3;" x1="509.1" x2="574.5" y1="269.7574" y2="269.7574"/></g><!--class Role--><g id="elem_Role"><rect codeLine="15" fill="#F1F1F1" height="36.3492" id="Role" rx="1.5" ry="1.5" style="stroke:#181818;stroke-width:0.3;" width="66.6" x="596.1" y="238.2082"/><ellipse cx="605.1" cy="251.5828" fill="#F04800" rx="6.6" ry="6.6" style="stroke:#181818;stroke-width:0.6;"/><path d="M605.4563,253.5422 L606.9375,250.0172 L606.7031,250.0172 Q606.3375,250.0172 606.1781,249.8766 Q606.0188,249.7359 606.0188,249.5016 Q606.0188,249.2766 606.1781,249.1359 Q606.3375,248.9953 606.7031,248.9953 L608.0719,248.9953 Q608.4375,248.9953 608.5969,249.1359 Q608.7563,249.2766 608.7563,249.5016 Q608.7563,249.7828 608.5125,249.9422 Q608.4,250.0172 608.0437,250.0172 L605.9531,255.0328 L604.9688,255.0328 L602.8781,250.0172 Q602.5219,250.0172 602.4094,249.9422 Q602.1656,249.7828 602.1656,249.5016 Q602.1656,249.2766 602.325,249.1359 Q602.4844,248.9953 602.85,248.9953 L604.2281,248.9953 Q604.5938,248.9953 604.7438,249.1359 Q604.9031,249.2766 604.9031,249.5016 Q604.9031,249.7359 604.7438,249.8766 Q604.5938,250.0172 604.2281,250.0172 L603.9844,250.0172 L605.4563,253.5422 Z " fill="#000000"/><text fill="#000000" font-family="sans-serif" font-size="7.2" font-style="italic" lengthAdjust="spacing" textLength="49.8" x="612.3" y="248.9777">&#171;value Object&#187;</text><text fill="#000000" font-family="sans-serif" font-size="8.4" lengthAdjust="spacing" textLength="17.4" x="628.5" y="259.8492">Role</text><line style="stroke:#181818;stroke-width:0.3;" x1="596.7" x2="662.1" y1="264.9574" y2="264.9574"/><line style="stroke:#181818;stroke-width:0.3;" x1="596.7" x2="662.1" y1="269.7574" y2="269.7574"/></g><!--class Name--><g id="elem_Name"><rect codeLine="16" fill="#F1F1F1" height="36.3492" id="Name" rx="1.5" ry="1.5" style="stroke:#181818;stroke-width:0.3;" width="66.6" x="683.7" y="238.2082"/><ellipse cx="692.7" cy="251.5828" fill="#F04800" rx="6.6" ry="6.6" style="stroke:#181818;stroke-width:0.6;"/><path d="M693.0563,253.5422 L694.5375,250.0172 L694.3031,250.0172 Q693.9375,250.0172 693.7781,249.8766 Q693.6188,249.7359 693.6188,249.5016 Q693.6188,249.2766 693.7781,249.1359 Q693.9375,248.9953 694.3031,248.9953 L695.6719,248.9953 Q696.0375,248.9953 696.1969,249.1359 Q696.3562,249.2766 696.3562,249.5016 Q696.3562,249.7828 696.1125,249.9422 Q696,250.0172 695.6438,250.0172 L693.5531,255.0328 L692.5688,255.0328 L690.4781,250.0172 Q690.1219,250.0172 690.0094,249.9422 Q689.7656,249.7828 689.7656,249.5016 Q689.7656,249.2766 689.925,249.1359 Q690.0844,248.9953 690.45,248.9953 L691.8281,248.9953 Q692.1938,248.9953 692.3438,249.1359 Q692.5031,249.2766 692.5031,249.5016 Q692.5031,249.7359 692.3438,249.8766 Q692.1938,250.0172 691.8281,250.0172 L691.5844,250.0172 L693.0563,253.5422 Z " fill="#000000"/><text fill="#000000" font-family="sans-serif" font-size="7.2" font-style="italic" lengthAdjust="spacing" textLength="49.8" x="699.9" y="248.9777">&#171;value Object&#187;</text><text fill="#000000" font-family="sans-serif" font-size="8.4" lengthAdjust="spacing" textLength="21.6" x="714" y="259.8492">Name</text><line style="stroke:#181818;stroke-width:0.3;" x1="684.3" x2="749.7" y1="264.9574" y2="264.9574"/><line style="stroke:#181818;stroke-width:0.3;" x1="684.3" x2="749.7" y1="269.7574" y2="269.7574"/></g><!--class JobOffer--><g id="elem_JobOffer"><rect codeLine="22" fill="#F1F1F1" height="39.9727" id="JobOffer" rx="1.5" ry="1.5" style="stroke:#181818;stroke-width:0.3;" width="54.6" x="800.7" y="427.8082"/><ellipse cx="811.05" cy="437.4082" fill="#ADD1B2" rx="6.6" ry="6.6" style="stroke:#181818;stroke-width:0.6;"/><path d="M810.3656,437.8863 L810.3656,439.3863 L812.9625,439.3863 L812.9625,438.8332 Q812.9625,438.4676 813.1031,438.3082 Q813.2531,438.1488 813.4781,438.1488 Q813.7031,438.1488 813.8438,438.3082 Q813.9844,438.4676 813.9844,438.8332 L813.9844,440.4082 L809.1844,440.4082 Q808.8094,440.4082 808.65,440.2676 Q808.5,440.127 808.5,439.8926 Q808.5,439.6676 808.6594,439.527 Q808.8188,439.3863 809.1844,439.3863 L809.3438,439.3863 L809.3438,435.3926 L809.1844,435.3926 Q808.8094,435.3926 808.65,435.252 Q808.5,435.1113 808.5,434.877 Q808.5,434.652 808.65,434.5113 Q808.8094,434.3707 809.1844,434.3707 L813.7594,434.3707 L813.7594,435.927 Q813.7594,436.2926 813.6188,436.452 Q813.4875,436.602 813.2531,436.602 Q813.0281,436.602 812.8875,436.452 Q812.7469,436.2926 812.7469,435.927 L812.7469,435.3926 L810.3656,435.3926 L810.3656,436.8645 L811.2563,436.8645 Q811.2563,436.4707 811.3313,436.3582 Q811.4906,436.1145 811.7719,436.1145 Q811.9969,436.1145 812.1375,436.2738 Q812.2781,436.4238 812.2781,436.7895 L812.2781,437.9707 Q812.2781,438.2988 812.2031,438.4113 Q812.0437,438.6457 811.7719,438.6457 Q811.4906,438.6457 811.3313,438.402 Q811.2563,438.2895 811.2563,437.8863 L810.3656,437.8863 Z " fill="#000000"/><text fill="#000000" font-family="sans-serif" font-size="8.4" lengthAdjust="spacing" textLength="32.4" x="819.75" y="440.8863">JobOffer</text><line style="stroke:#181818;stroke-width:0.3;" x1="801.3" x2="854.7" y1="447.0082" y2="447.0082"/><text fill="#000000" font-family="sans-serif" font-size="8.4" lengthAdjust="spacing" textLength="47.4" x="804.3" y="458.4727">&#171;root entity&#187;</text><line style="stroke:#181818;stroke-width:0.3;" x1="801.3" x2="854.7" y1="462.9809" y2="462.9809"/></g><!--class JobRefCode--><g id="elem_JobRefCode"><rect codeLine="26" fill="#F1F1F1" height="36.3492" id="JobRefCode" rx="1.5" ry="1.5" style="stroke:#181818;stroke-width:0.3;" width="97.2" x="541.2" y="589.8082"/><ellipse cx="550.2" cy="603.1828" fill="#F09000" rx="6.6" ry="6.6" style="stroke:#181818;stroke-width:0.6;"/><path d="M550.5563,605.1422 L552.0375,601.6172 L551.8031,601.6172 Q551.4375,601.6172 551.2781,601.4766 Q551.1188,601.3359 551.1188,601.1016 Q551.1188,600.8766 551.2781,600.7359 Q551.4375,600.5953 551.8031,600.5953 L553.1719,600.5953 Q553.5375,600.5953 553.6969,600.7359 Q553.8562,600.8766 553.8562,601.1016 Q553.8562,601.3828 553.6125,601.5422 Q553.5,601.6172 553.1438,601.6172 L551.0531,606.6328 L550.0688,606.6328 L547.9781,601.6172 Q547.6219,601.6172 547.5094,601.5422 Q547.2656,601.3828 547.2656,601.1016 Q547.2656,600.8766 547.425,600.7359 Q547.5844,600.5953 547.95,600.5953 L549.3281,600.5953 Q549.6938,600.5953 549.8438,600.7359 Q550.0031,600.8766 550.0031,601.1016 Q550.0031,601.3359 549.8438,601.4766 Q549.6938,601.6172 549.3281,601.6172 L549.0844,601.6172 L550.5563,605.1422 Z " fill="#000000"/><text fill="#000000" font-family="sans-serif" font-size="7.2" font-style="italic" lengthAdjust="spacing" textLength="80.4" x="557.4" y="600.5777">&#171;Identifier value Object&#187;</text><text fill="#000000" font-family="sans-serif" font-size="8.4" lengthAdjust="spacing" textLength="46.8" x="574.2" y="611.4492">JobRefCode</text><line style="stroke:#181818;stroke-width:0.3;" x1="541.8" x2="637.8" y1="616.5574" y2="616.5574"/><line style="stroke:#181818;stroke-width:0.3;" x1="541.8" x2="637.8" y1="621.3574" y2="621.3574"/></g><!--class JobTitle--><g id="elem_JobTitle"><rect codeLine="27" fill="#F1F1F1" height="36.3492" id="JobTitle" rx="1.5" ry="1.5" style="stroke:#181818;stroke-width:0.3;" width="66.6" x="659.7" y="589.8082"/><ellipse cx="668.7" cy="603.1828" fill="#F04800" rx="6.6" ry="6.6" style="stroke:#181818;stroke-width:0.6;"/><path d="M669.0563,605.1422 L670.5375,601.6172 L670.3031,601.6172 Q669.9375,601.6172 669.7781,601.4766 Q669.6188,601.3359 669.6188,601.1016 Q669.6188,600.8766 669.7781,600.7359 Q669.9375,600.5953 670.3031,600.5953 L671.6719,600.5953 Q672.0375,600.5953 672.1969,600.7359 Q672.3562,600.8766 672.3562,601.1016 Q672.3562,601.3828 672.1125,601.5422 Q672,601.6172 671.6438,601.6172 L669.5531,606.6328 L668.5688,606.6328 L666.4781,601.6172 Q666.1219,601.6172 666.0094,601.5422 Q665.7656,601.3828 665.7656,601.1016 Q665.7656,600.8766 665.925,600.7359 Q666.0844,600.5953 666.45,600.5953 L667.8281,600.5953 Q668.1938,600.5953 668.3438,600.7359 Q668.5031,600.8766 668.5031,601.1016 Q668.5031,601.3359 668.3438,601.4766 Q668.1938,601.6172 667.8281,601.6172 L667.5844,601.6172 L669.0563,605.1422 Z " fill="#000000"/><text fill="#000000" font-family="sans-serif" font-size="7.2" font-style="italic" lengthAdjust="spacing" textLength="49.8" x="675.9" y="600.5777">&#171;value Object&#187;</text><text fill="#000000" font-family="sans-serif" font-size="8.4" lengthAdjust="spacing" textLength="29.4" x="686.1" y="611.4492">JobTitle</text><line style="stroke:#181818;stroke-width:0.3;" x1="660.3" x2="725.7" y1="616.5574" y2="616.5574"/><line style="stroke:#181818;stroke-width:0.3;" x1="660.3" x2="725.7" y1="621.3574" y2="621.3574"/></g><!--class ContractType--><g id="elem_ContractType"><rect codeLine="28" fill="#F1F1F1" height="36.3492" id="ContractType" rx="1.5" ry="1.5" style="stroke:#181818;stroke-width:0.3;" width="70.8" x="747.6" y="589.8082"/><ellipse cx="756.6" cy="603.1828" fill="#F04800" rx="6.6" ry="6.6" style="stroke:#181818;stroke-width:0.6;"/><path d="M756.9563,605.1422 L758.4375,601.6172 L758.2031,601.6172 Q757.8375,601.6172 757.6781,601.4766 Q757.5188,601.3359 757.5188,601.1016 Q757.5188,600.8766 757.6781,600.7359 Q757.8375,600.5953 758.2031,600.5953 L759.5719,600.5953 Q759.9375,600.5953 760.0969,600.7359 Q760.2563,600.8766 760.2563,601.1016 Q760.2563,601.3828 760.0125,601.5422 Q759.9,601.6172 759.5437,601.6172 L757.4531,606.6328 L756.4688,606.6328 L754.3781,601.6172 Q754.0219,601.6172 753.9094,601.5422 Q753.6656,601.3828 753.6656,601.1016 Q753.6656,600.8766 753.825,600.7359 Q753.9844,600.5953 754.35,600.5953 L755.7281,600.5953 Q756.0938,600.5953 756.2438,600.7359 Q756.4031,600.8766 756.4031,601.1016 Q756.4031,601.3359 756.2438,601.4766 Q756.0938,601.6172 755.7281,601.6172 L755.4844,601.6172 L756.9563,605.1422 Z " fill="#000000"/><text fill="#000000" font-family="sans-serif" font-size="7.2" font-style="italic" lengthAdjust="spacing" textLength="49.8" x="765.9" y="600.5777">&#171;value Object&#187;</text><text fill="#000000" font-family="sans-serif" font-size="8.4" lengthAdjust="spacing" textLength="51.6" x="765" y="611.4492">ContractType</text><line style="stroke:#181818;stroke-width:0.3;" x1="748.2" x2="817.8" y1="616.5574" y2="616.5574"/><line style="stroke:#181818;stroke-width:0.3;" x1="748.2" x2="817.8" y1="621.3574" y2="621.3574"/></g><!--class JobMode--><g id="elem_JobMode"><rect codeLine="29" fill="#F1F1F1" height="36.3492" id="JobMode" rx="1.5" ry="1.5" style="stroke:#181818;stroke-width:0.3;" width="66.6" x="839.7" y="589.8082"/><ellipse cx="848.7" cy="603.1828" fill="#F04800" rx="6.6" ry="6.6" style="stroke:#181818;stroke-width:0.6;"/><path d="M849.0563,605.1422 L850.5375,601.6172 L850.3031,601.6172 Q849.9375,601.6172 849.7781,601.4766 Q849.6188,601.3359 849.6188,601.1016 Q849.6188,600.8766 849.7781,600.7359 Q849.9375,600.5953 850.3031,600.5953 L851.6719,600.5953 Q852.0375,600.5953 852.1969,600.7359 Q852.3562,600.8766 852.3562,601.1016 Q852.3562,601.3828 852.1125,601.5422 Q852,601.6172 851.6438,601.6172 L849.5531,606.6328 L848.5688,606.6328 L846.4781,601.6172 Q846.1219,601.6172 846.0094,601.5422 Q845.7656,601.3828 845.7656,601.1016 Q845.7656,600.8766 845.925,600.7359 Q846.0844,600.5953 846.45,600.5953 L847.8281,600.5953 Q848.1938,600.5953 848.3438,600.7359 Q848.5031,600.8766 848.5031,601.1016 Q848.5031,601.3359 848.3438,601.4766 Q848.1938,601.6172 847.8281,601.6172 L847.5844,601.6172 L849.0563,605.1422 Z " fill="#000000"/><text fill="#000000" font-family="sans-serif" font-size="7.2" font-style="italic" lengthAdjust="spacing" textLength="49.8" x="855.9" y="600.5777">&#171;value Object&#187;</text><text fill="#000000" font-family="sans-serif" font-size="8.4" lengthAdjust="spacing" textLength="34.2" x="863.7" y="611.4492">JobMode</text><line style="stroke:#181818;stroke-width:0.3;" x1="840.3" x2="905.7" y1="616.5574" y2="616.5574"/><line style="stroke:#181818;stroke-width:0.3;" x1="840.3" x2="905.7" y1="621.3574" y2="621.3574"/></g><!--class NumberOfVacancies--><g id="elem_NumberOfVacancies"><rect codeLine="30" fill="#F1F1F1" height="36.3492" id="NumberOfVacancies" rx="1.5" ry="1.5" style="stroke:#181818;stroke-width:0.3;" width="96.6" x="927.3" y="589.8082"/><ellipse cx="936.3" cy="603.1828" fill="#F04800" rx="6.6" ry="6.6" style="stroke:#181818;stroke-width:0.6;"/><path d="M936.6563,605.1422 L938.1375,601.6172 L937.9031,601.6172 Q937.5375,601.6172 937.3781,601.4766 Q937.2188,601.3359 937.2188,601.1016 Q937.2188,600.8766 937.3781,600.7359 Q937.5375,600.5953 937.9031,600.5953 L939.2719,600.5953 Q939.6375,600.5953 939.7969,600.7359 Q939.9563,600.8766 939.9563,601.1016 Q939.9563,601.3828 939.7125,601.5422 Q939.6,601.6172 939.2438,601.6172 L937.1531,606.6328 L936.1687,606.6328 L934.0781,601.6172 Q933.7219,601.6172 933.6094,601.5422 Q933.3656,601.3828 933.3656,601.1016 Q933.3656,600.8766 933.525,600.7359 Q933.6844,600.5953 934.05,600.5953 L935.4281,600.5953 Q935.7937,600.5953 935.9437,600.7359 Q936.1031,600.8766 936.1031,601.1016 Q936.1031,601.3359 935.9437,601.4766 Q935.7937,601.6172 935.4281,601.6172 L935.1844,601.6172 L936.6563,605.1422 Z " fill="#000000"/><text fill="#000000" font-family="sans-serif" font-size="7.2" font-style="italic" lengthAdjust="spacing" textLength="49.8" x="958.5" y="600.5777">&#171;value Object&#187;</text><text fill="#000000" font-family="sans-serif" font-size="8.4" lengthAdjust="spacing" textLength="77.4" x="944.7" y="611.4492">NumberOfVacancies</text><line style="stroke:#181818;stroke-width:0.3;" x1="927.9" x2="1023.3" y1="616.5574" y2="616.5574"/><line style="stroke:#181818;stroke-width:0.3;" x1="927.9" x2="1023.3" y1="621.3574" y2="621.3574"/></g><!--class JobsDescription--><g id="elem_JobsDescription"><rect codeLine="31" fill="#F1F1F1" height="36.3492" id="JobsDescription" rx="1.5" ry="1.5" style="stroke:#181818;stroke-width:0.3;" width="79.2" x="1045.2" y="589.8082"/><ellipse cx="1054.2" cy="603.1828" fill="#F04800" rx="6.6" ry="6.6" style="stroke:#181818;stroke-width:0.6;"/><path d="M1054.5562,605.1422 L1056.0375,601.6172 L1055.8031,601.6172 Q1055.4375,601.6172 1055.2781,601.4766 Q1055.1187,601.3359 1055.1187,601.1016 Q1055.1187,600.8766 1055.2781,600.7359 Q1055.4375,600.5953 1055.8031,600.5953 L1057.1719,600.5953 Q1057.5375,600.5953 1057.6969,600.7359 Q1057.8563,600.8766 1057.8563,601.1016 Q1057.8563,601.3828 1057.6125,601.5422 Q1057.5,601.6172 1057.1438,601.6172 L1055.0531,606.6328 L1054.0688,606.6328 L1051.9781,601.6172 Q1051.6219,601.6172 1051.5094,601.5422 Q1051.2656,601.3828 1051.2656,601.1016 Q1051.2656,600.8766 1051.425,600.7359 Q1051.5844,600.5953 1051.95,600.5953 L1053.3281,600.5953 Q1053.6938,600.5953 1053.8438,600.7359 Q1054.0031,600.8766 1054.0031,601.1016 Q1054.0031,601.3359 1053.8438,601.4766 Q1053.6938,601.6172 1053.3281,601.6172 L1053.0844,601.6172 L1054.5562,605.1422 Z " fill="#000000"/><text fill="#000000" font-family="sans-serif" font-size="7.2" font-style="italic" lengthAdjust="spacing" textLength="49.8" x="1067.7" y="600.5777">&#171;value Object&#187;</text><text fill="#000000" font-family="sans-serif" font-size="8.4" lengthAdjust="spacing" textLength="60" x="1062.6" y="611.4492">JobsDescription</text><line style="stroke:#181818;stroke-width:0.3;" x1="1045.8" x2="1123.8" y1="616.5574" y2="616.5574"/><line style="stroke:#181818;stroke-width:0.3;" x1="1045.8" x2="1123.8" y1="621.3574" y2="621.3574"/></g><!--class Application--><g id="elem_Application"><rect codeLine="37" fill="#F1F1F1" height="39.9727" id="Application" rx="1.5" ry="1.5" style="stroke:#181818;stroke-width:0.3;" width="60.6" x="302.7" y="326.4082"/><ellipse cx="311.7" cy="336.0082" fill="#ADD1B2" rx="6.6" ry="6.6" style="stroke:#181818;stroke-width:0.6;"/><path d="M311.0156,336.4863 L311.0156,337.9863 L313.6125,337.9863 L313.6125,337.4332 Q313.6125,337.0676 313.7531,336.9082 Q313.9031,336.7488 314.1281,336.7488 Q314.3531,336.7488 314.4938,336.9082 Q314.6344,337.0676 314.6344,337.4332 L314.6344,339.0082 L309.8344,339.0082 Q309.4594,339.0082 309.3,338.8676 Q309.15,338.727 309.15,338.4926 Q309.15,338.2676 309.3094,338.127 Q309.4688,337.9863 309.8344,337.9863 L309.9938,337.9863 L309.9938,333.9926 L309.8344,333.9926 Q309.4594,333.9926 309.3,333.852 Q309.15,333.7113 309.15,333.477 Q309.15,333.252 309.3,333.1113 Q309.4594,332.9707 309.8344,332.9707 L314.4094,332.9707 L314.4094,334.527 Q314.4094,334.8926 314.2688,335.052 Q314.1375,335.202 313.9031,335.202 Q313.6781,335.202 313.5375,335.052 Q313.3969,334.8926 313.3969,334.527 L313.3969,333.9926 L311.0156,333.9926 L311.0156,335.4645 L311.9063,335.4645 Q311.9063,335.0707 311.9813,334.9582 Q312.1406,334.7145 312.4219,334.7145 Q312.6469,334.7145 312.7875,334.8738 Q312.9281,335.0238 312.9281,335.3895 L312.9281,336.5707 Q312.9281,336.8988 312.8531,337.0113 Q312.6937,337.2457 312.4219,337.2457 Q312.1406,337.2457 311.9813,337.002 Q311.9063,336.8895 311.9063,336.4863 L311.0156,336.4863 Z " fill="#000000"/><text fill="#000000" font-family="sans-serif" font-size="8.4" lengthAdjust="spacing" textLength="41.4" x="320.1" y="339.4863">Application</text><line style="stroke:#181818;stroke-width:0.3;" x1="303.3" x2="362.7" y1="345.6082" y2="345.6082"/><text fill="#000000" font-family="sans-serif" font-size="8.4" lengthAdjust="spacing" textLength="47.4" x="306.3" y="357.0727">&#171;root entity&#187;</text><line style="stroke:#181818;stroke-width:0.3;" x1="303.3" x2="362.7" y1="361.5809" y2="361.5809"/></g><!--class ApplicationAttachedFile--><g id="elem_ApplicationAttachedFile"><rect codeLine="41" fill="#F1F1F1" height="36.3492" id="ApplicationAttachedFile" rx="1.5" ry="1.5" style="stroke:#181818;stroke-width:0.3;" width="108" x="13.2" y="429.6082"/><ellipse cx="22.2" cy="442.9828" fill="#F04800" rx="6.6" ry="6.6" style="stroke:#181818;stroke-width:0.6;"/><path d="M22.5563,444.9422 L24.0375,441.4172 L23.8031,441.4172 Q23.4375,441.4172 23.2781,441.2766 Q23.1188,441.1359 23.1188,440.9016 Q23.1188,440.6766 23.2781,440.5359 Q23.4375,440.3953 23.8031,440.3953 L25.1719,440.3953 Q25.5375,440.3953 25.6969,440.5359 Q25.8563,440.6766 25.8563,440.9016 Q25.8563,441.1828 25.6125,441.3422 Q25.5,441.4172 25.1438,441.4172 L23.0531,446.4328 L22.0687,446.4328 L19.9781,441.4172 Q19.6219,441.4172 19.5094,441.3422 Q19.2656,441.1828 19.2656,440.9016 Q19.2656,440.6766 19.425,440.5359 Q19.5844,440.3953 19.95,440.3953 L21.3281,440.3953 Q21.6937,440.3953 21.8438,440.5359 Q22.0031,440.6766 22.0031,440.9016 Q22.0031,441.1359 21.8438,441.2766 Q21.6937,441.4172 21.3281,441.4172 L21.0844,441.4172 L22.5563,444.9422 Z " fill="#000000"/><text fill="#000000" font-family="sans-serif" font-size="7.2" font-style="italic" lengthAdjust="spacing" textLength="49.8" x="50.1" y="440.3777">&#171;value Object&#187;</text><text fill="#000000" font-family="sans-serif" font-size="8.4" lengthAdjust="spacing" textLength="88.8" x="30.6" y="451.2492">ApplicationAttachedFile</text><line style="stroke:#181818;stroke-width:0.3;" x1="13.8" x2="120.6" y1="456.3574" y2="456.3574"/><line style="stroke:#181818;stroke-width:0.3;" x1="13.8" x2="120.6" y1="461.1574" y2="461.1574"/></g><!--class ApplicationRefCode--><g id="elem_ApplicationRefCode"><rect codeLine="42" fill="#F1F1F1" height="36.3492" id="ApplicationRefCode" rx="1.5" ry="1.5" style="stroke:#181818;stroke-width:0.3;" width="97.2" x="142.2" y="429.6082"/><ellipse cx="151.2" cy="442.9828" fill="#F09000" rx="6.6" ry="6.6" style="stroke:#181818;stroke-width:0.6;"/><path d="M151.5563,444.9422 L153.0375,441.4172 L152.8031,441.4172 Q152.4375,441.4172 152.2781,441.2766 Q152.1188,441.1359 152.1188,440.9016 Q152.1188,440.6766 152.2781,440.5359 Q152.4375,440.3953 152.8031,440.3953 L154.1719,440.3953 Q154.5375,440.3953 154.6969,440.5359 Q154.8563,440.6766 154.8563,440.9016 Q154.8563,441.1828 154.6125,441.3422 Q154.5,441.4172 154.1437,441.4172 L152.0531,446.4328 L151.0688,446.4328 L148.9781,441.4172 Q148.6219,441.4172 148.5094,441.3422 Q148.2656,441.1828 148.2656,440.9016 Q148.2656,440.6766 148.425,440.5359 Q148.5844,440.3953 148.95,440.3953 L150.3281,440.3953 Q150.6938,440.3953 150.8438,440.5359 Q151.0031,440.6766 151.0031,440.9016 Q151.0031,441.1359 150.8438,441.2766 Q150.6938,441.4172 150.3281,441.4172 L150.0844,441.4172 L151.5563,444.9422 Z " fill="#000000"/><text fill="#000000" font-family="sans-serif" font-size="7.2" font-style="italic" lengthAdjust="spacing" textLength="80.4" x="158.4" y="440.3777">&#171;Identifier value Object&#187;</text><text fill="#000000" font-family="sans-serif" font-size="8.4" lengthAdjust="spacing" textLength="75" x="161.1" y="451.2492">ApplicationRefCode</text><line style="stroke:#181818;stroke-width:0.3;" x1="142.8" x2="238.8" y1="456.3574" y2="456.3574"/><line style="stroke:#181818;stroke-width:0.3;" x1="142.8" x2="238.8" y1="461.1574" y2="461.1574"/></g><!--class ApplicationAttachedFilesLocation--><g id="elem_ApplicationAttachedFilesLocation"><rect codeLine="43" fill="#F1F1F1" height="36.3492" id="ApplicationAttachedFilesLocation" rx="1.5" ry="1.5" style="stroke:#181818;stroke-width:0.3;" width="144.6" x="260.7" y="429.6082"/><ellipse cx="269.7" cy="442.9828" fill="#F04800" rx="6.6" ry="6.6" style="stroke:#181818;stroke-width:0.6;"/><path d="M270.0563,444.9422 L271.5375,441.4172 L271.3031,441.4172 Q270.9375,441.4172 270.7781,441.2766 Q270.6188,441.1359 270.6188,440.9016 Q270.6188,440.6766 270.7781,440.5359 Q270.9375,440.3953 271.3031,440.3953 L272.6719,440.3953 Q273.0375,440.3953 273.1969,440.5359 Q273.3563,440.6766 273.3563,440.9016 Q273.3563,441.1828 273.1125,441.3422 Q273,441.4172 272.6438,441.4172 L270.5531,446.4328 L269.5687,446.4328 L267.4781,441.4172 Q267.1219,441.4172 267.0094,441.3422 Q266.7656,441.1828 266.7656,440.9016 Q266.7656,440.6766 266.925,440.5359 Q267.0844,440.3953 267.45,440.3953 L268.8281,440.3953 Q269.1937,440.3953 269.3438,440.5359 Q269.5031,440.6766 269.5031,440.9016 Q269.5031,441.1359 269.3438,441.2766 Q269.1937,441.4172 268.8281,441.4172 L268.5844,441.4172 L270.0563,444.9422 Z " fill="#000000"/><text fill="#000000" font-family="sans-serif" font-size="7.2" font-style="italic" lengthAdjust="spacing" textLength="49.8" x="315.9" y="440.3777">&#171;value Object&#187;</text><text fill="#000000" font-family="sans-serif" font-size="8.4" lengthAdjust="spacing" textLength="125.4" x="278.1" y="451.2492">ApplicationAttachedFilesLocation</text><line style="stroke:#181818;stroke-width:0.3;" x1="261.3" x2="404.7" y1="456.3574" y2="456.3574"/><line style="stroke:#181818;stroke-width:0.3;" x1="261.3" x2="404.7" y1="461.1574" y2="461.1574"/></g><!--class Rank--><g id="elem_Rank"><rect codeLine="44" fill="#F1F1F1" height="36.3492" id="Rank" rx="1.5" ry="1.5" style="stroke:#181818;stroke-width:0.3;" width="66.6" x="426.9" y="328.2082"/><ellipse cx="435.9" cy="341.5828" fill="#F04800" rx="6.6" ry="6.6" style="stroke:#181818;stroke-width:0.6;"/><path d="M436.2562,343.5422 L437.7375,340.0172 L437.5031,340.0172 Q437.1375,340.0172 436.9781,339.8766 Q436.8187,339.7359 436.8187,339.5016 Q436.8187,339.2766 436.9781,339.1359 Q437.1375,338.9953 437.5031,338.9953 L438.8719,338.9953 Q439.2375,338.9953 439.3969,339.1359 Q439.5563,339.2766 439.5563,339.5016 Q439.5563,339.7828 439.3125,339.9422 Q439.2,340.0172 438.8438,340.0172 L436.7531,345.0328 L435.7688,345.0328 L433.6781,340.0172 Q433.3219,340.0172 433.2094,339.9422 Q432.9656,339.7828 432.9656,339.5016 Q432.9656,339.2766 433.125,339.1359 Q433.2844,338.9953 433.65,338.9953 L435.0281,338.9953 Q435.3938,338.9953 435.5438,339.1359 Q435.7031,339.2766 435.7031,339.5016 Q435.7031,339.7359 435.5438,339.8766 Q435.3938,340.0172 435.0281,340.0172 L434.7844,340.0172 L436.2562,343.5422 Z " fill="#000000"/><text fill="#000000" font-family="sans-serif" font-size="7.2" font-style="italic" lengthAdjust="spacing" textLength="49.8" x="443.1" y="338.9777">&#171;value Object&#187;</text><text fill="#000000" font-family="sans-serif" font-size="8.4" lengthAdjust="spacing" textLength="19.8" x="458.1" y="349.8492">Rank</text><line style="stroke:#181818;stroke-width:0.3;" x1="427.5" x2="492.9" y1="354.9574" y2="354.9574"/><line style="stroke:#181818;stroke-width:0.3;" x1="427.5" x2="492.9" y1="359.7574" y2="359.7574"/></g><!--class ApplicationEmail--><g id="elem_ApplicationEmail"><rect codeLine="45" fill="#F1F1F1" height="36.3492" id="ApplicationEmail" rx="1.5" ry="1.5" style="stroke:#181818;stroke-width:0.3;" width="81" x="426.3" y="429.6082"/><ellipse cx="435.3" cy="442.9828" fill="#F04800" rx="6.6" ry="6.6" style="stroke:#181818;stroke-width:0.6;"/><path d="M435.6563,444.9422 L437.1375,441.4172 L436.9031,441.4172 Q436.5375,441.4172 436.3781,441.2766 Q436.2188,441.1359 436.2188,440.9016 Q436.2188,440.6766 436.3781,440.5359 Q436.5375,440.3953 436.9031,440.3953 L438.2719,440.3953 Q438.6375,440.3953 438.7969,440.5359 Q438.9563,440.6766 438.9563,440.9016 Q438.9563,441.1828 438.7125,441.3422 Q438.6,441.4172 438.2438,441.4172 L436.1531,446.4328 L435.1688,446.4328 L433.0781,441.4172 Q432.7219,441.4172 432.6094,441.3422 Q432.3656,441.1828 432.3656,440.9016 Q432.3656,440.6766 432.525,440.5359 Q432.6844,440.3953 433.05,440.3953 L434.4281,440.3953 Q434.7938,440.3953 434.9437,440.5359 Q435.1031,440.6766 435.1031,440.9016 Q435.1031,441.1359 434.9437,441.2766 Q434.7938,441.4172 434.4281,441.4172 L434.1844,441.4172 L435.6563,444.9422 Z " fill="#000000"/><text fill="#000000" font-family="sans-serif" font-size="7.2" font-style="italic" lengthAdjust="spacing" textLength="49.8" x="449.7" y="440.3777">&#171;value Object&#187;</text><text fill="#000000" font-family="sans-serif" font-size="8.4" lengthAdjust="spacing" textLength="61.8" x="443.7" y="451.2492">ApplicationEmail</text><line style="stroke:#181818;stroke-width:0.3;" x1="426.9" x2="506.7" y1="456.3574" y2="456.3574"/><line style="stroke:#181818;stroke-width:0.3;" x1="426.9" x2="506.7" y1="461.1574" y2="461.1574"/></g><!--class Address--><g id="elem_Address"><rect codeLine="49" fill="#F1F1F1" height="36.3492" id="Address" rx="1.5" ry="1.5" style="stroke:#181818;stroke-width:0.3;" width="66.6" x="1143.9" y="429.6082"/><ellipse cx="1152.9" cy="442.9828" fill="#F04800" rx="6.6" ry="6.6" style="stroke:#181818;stroke-width:0.6;"/><path d="M1153.2563,444.9422 L1154.7375,441.4172 L1154.5031,441.4172 Q1154.1375,441.4172 1153.9781,441.2766 Q1153.8188,441.1359 1153.8188,440.9016 Q1153.8188,440.6766 1153.9781,440.5359 Q1154.1375,440.3953 1154.5031,440.3953 L1155.8719,440.3953 Q1156.2375,440.3953 1156.3969,440.5359 Q1156.5562,440.6766 1156.5562,440.9016 Q1156.5562,441.1828 1156.3125,441.3422 Q1156.2,441.4172 1155.8438,441.4172 L1153.7531,446.4328 L1152.7688,446.4328 L1150.6781,441.4172 Q1150.3219,441.4172 1150.2094,441.3422 Q1149.9656,441.1828 1149.9656,440.9016 Q1149.9656,440.6766 1150.125,440.5359 Q1150.2844,440.3953 1150.65,440.3953 L1152.0281,440.3953 Q1152.3938,440.3953 1152.5438,440.5359 Q1152.7031,440.6766 1152.7031,440.9016 Q1152.7031,441.1359 1152.5438,441.2766 Q1152.3938,441.4172 1152.0281,441.4172 L1151.7844,441.4172 L1153.2563,444.9422 Z " fill="#000000"/><text fill="#000000" font-family="sans-serif" font-size="7.2" font-style="italic" lengthAdjust="spacing" textLength="49.8" x="1160.1" y="440.3777">&#171;value Object&#187;</text><text fill="#000000" font-family="sans-serif" font-size="8.4" lengthAdjust="spacing" textLength="31.2" x="1169.4" y="451.2492">Address</text><line style="stroke:#181818;stroke-width:0.3;" x1="1144.5" x2="1209.9" y1="456.3574" y2="456.3574"/><line style="stroke:#181818;stroke-width:0.3;" x1="1144.5" x2="1209.9" y1="461.1574" y2="461.1574"/></g><!--link User to EmailAddress--><g id="link_User_EmailAddress"><path codeLine="51" d="M609.132,136.3882 C587.73,146.9962 557.586,162.8542 532.8,179.4082 C505.554,197.6002 476.652,221.9182 458.16,238.2082 " fill="none" id="User-EmailAddress" style="stroke:#181818;stroke-width:0.6;"/><polygon fill="#000000" points="538.2872,183.5181,532.8018,185.0906,534.7738,188.0145,538.2872,183.5181" style="stroke:#000000;stroke-width:0.6;"/><text fill="#000000" font-family="sans-serif" font-size="7.8" lengthAdjust="spacing" textLength="30.6" x="541.2" y="188.4252">identifies</text><text fill="#000000" font-family="sans-serif" font-size="7.8" lengthAdjust="spacing" textLength="4.2" x="600.2196" y="136.0047">1</text><text fill="#000000" font-family="sans-serif" font-size="7.8" lengthAdjust="spacing" textLength="4.2" x="457.7794" y="231.353">1</text></g><!--link User to Role--><g id="link_User_Role"><path codeLine="52" d="M635.538,142.8742 C634.14,168.5902 631.71,213.3982 630.36,238.1722 " fill="none" id="User-Role" style="stroke:#181818;stroke-width:0.6;"/><polygon fill="#000000" points="636.1628,182.1999,634.1076,187.5233,637.6291,187.7147,636.1628,182.1999" style="stroke:#000000;stroke-width:0.6;"/><text fill="#000000" font-family="sans-serif" font-size="7.8" lengthAdjust="spacing" textLength="32.4" x="641.4" y="188.4252">classifies</text><text fill="#000000" font-family="sans-serif" font-size="7.8" lengthAdjust="spacing" textLength="4.2" x="630.7748" y="155.8275">1</text><text fill="#000000" font-family="sans-serif" font-size="7.8" lengthAdjust="spacing" textLength="4.2" x="625.9106" y="231.3091">1</text></g><!--link User to Name--><g id="link_User_Name"><path codeLine="53" d="M652.944,142.8982 C661.308,153.3862 671.346,166.7242 679.2,179.4082 C691.128,198.6802 702.3,222.2422 709.362,238.0822 " fill="none" id="User-Name" style="stroke:#181818;stroke-width:0.6;"/><polygon fill="#000000" points="686.6703,182.6148,687.9206,188.1825,690.9544,186.3842,686.6703,182.6148" style="stroke:#000000;stroke-width:0.6;"/><text fill="#000000" font-family="sans-serif" font-size="7.8" lengthAdjust="spacing" textLength="33.6" x="693.6" y="188.4252">describes</text><text fill="#000000" font-family="sans-serif" font-size="7.8" lengthAdjust="spacing" textLength="4.2" x="651.2812" y="155.8558">1</text><text fill="#000000" font-family="sans-serif" font-size="7.8" lengthAdjust="spacing" textLength="4.2" x="703.1535" y="231.4908">1</text></g><!--link User to Password--><g id="link_User_Password"><path codeLine="54" d="M616.542,142.8562 C606.462,153.2182 594.42,166.4602 585,179.4082 C571.182,198.4042 558.354,222.2302 550.332,238.1962 " fill="none" id="User-Password" style="stroke:#181818;stroke-width:0.6;"/><polygon fill="#000000" points="589.7112,182.7314,585.1672,186.1832,588.064,188.1948,589.7112,182.7314" style="stroke:#000000;stroke-width:0.6;"/><text fill="#000000" font-family="sans-serif" font-size="7.8" lengthAdjust="spacing" textLength="33.6" x="593.4" y="188.4252">describes</text><text fill="#000000" font-family="sans-serif" font-size="7.8" lengthAdjust="spacing" textLength="4.2" x="608.3951" y="155.8063">1</text><text fill="#000000" font-family="sans-serif" font-size="7.8" lengthAdjust="spacing" textLength="4.2" x="547.539" y="231.3383">1</text></g><!--link User to JobOffer--><g id="link_User_JobOffer"><path codeLine="55" d="M663.954,128.2162 C708.69,137.0302 792.6,157.1962 792.6,184.5082 C792.6,184.5082 792.6,184.5082 792.6,347.1082 C792.6,376.4422 806.256,407.9902 816.606,427.6882 " fill="none" id="User-JobOffer" style="stroke:#181818;stroke-width:0.6;"/><polygon fill="#000000" points="796.9624,259.2683,796.0688,253.6324,792.9268,255.234,796.9624,259.2683" style="stroke:#000000;stroke-width:0.6;"/><text fill="#000000" font-family="sans-serif" font-size="7.8" lengthAdjust="spacing" textLength="30" x="801" y="259.8252">registers</text><text fill="#000000" font-family="sans-serif" font-size="7.8" lengthAdjust="spacing" textLength="4.2" x="668.6482" y="126.5303">1</text><text fill="#000000" font-family="sans-serif" font-size="7.8" lengthAdjust="spacing" textLength="3" x="811.1481" y="421.1169">*</text></g><!--link Customer to User--><g id="link_Customer_User"><path codeLine="57" d="M664.122,66.1762 C658.614,77.3722 656.4994,81.6674 650.9974,92.8514 " fill="none" id="Customer-to-User" style="stroke:#181818;stroke-width:0.6;"/><polygon fill="none" points="646.23,102.5422,654.2277,94.4405,647.7672,91.2623,646.23,102.5422" style="stroke:#181818;stroke-width:0.6;"/></g><!--reverse link Customer to JobOffer--><g id="link_Customer_JobOffer"><path codeLine="58" d="M705.3096,52.3125 C758.0496,62.7405 863.4,87.7342 863.4,122.1082 C863.4,122.1082 863.4,122.1082 863.4,347.1082 C863.4,376.4422 849.744,407.9902 839.394,427.6882 " fill="none" id="Customer-backto-JobOffer" style="stroke:#181818;stroke-width:0.6;"/><polygon fill="#181818" points="701.778,51.6142,706.6099,55.0161,704.721,52.1961,707.541,50.3072,701.778,51.6142" style="stroke:#181818;stroke-width:0.6;"/><polygon fill="#000000" points="865.3908,211.7703,865.5558,217.4743,868.877,216.288,865.3908,211.7703" style="stroke:#000000;stroke-width:0.6;"/><text fill="#000000" font-family="sans-serif" font-size="7.8" lengthAdjust="spacing" textLength="60" x="871.8" y="217.8252">requests creation</text></g><!--link JobOffer to Address--><g id="link_JobOffer_Address"><path codeLine="60" d="M855.402,447.9082 C918.75,447.9082 1075.164,447.9082 1143.894,447.9082 " fill="none" id="JobOffer-Address" style="stroke:#181818;stroke-width:0.6;"/><polygon fill="#000000" points="978.3,440.4955,983.7271,442.2589,983.7271,438.7322,978.3,440.4955" style="stroke:#000000;stroke-width:0.6;"/><text fill="#000000" font-family="sans-serif" font-size="7.8" lengthAdjust="spacing" textLength="33.6" x="986.7" y="443.7252">describes</text></g><!--link JobOffer to JobRefCode--><g id="link_JobOffer_JobRefCode"><path codeLine="61" d="M800.688,462.1282 C773.202,476.2282 729.96,499.4722 694.8,523.2082 C663.798,544.1362 630.534,571.8322 609.942,589.6642 " fill="none" id="JobOffer-JobRefCode" style="stroke:#181818;stroke-width:0.6;"/><polygon fill="#000000" points="700.2939,527.328,694.8023,528.8786,696.7625,531.8104,700.2939,527.328" style="stroke:#000000;stroke-width:0.6;"/><text fill="#000000" font-family="sans-serif" font-size="7.8" lengthAdjust="spacing" textLength="30.6" x="703.2" y="532.2252">identifies</text><text fill="#000000" font-family="sans-serif" font-size="7.8" lengthAdjust="spacing" textLength="4.2" x="791.6166" y="461.889">1</text><text fill="#000000" font-family="sans-serif" font-size="7.8" lengthAdjust="spacing" textLength="4.2" x="609.4632" y="583.0691">1</text></g><!--link JobOffer to JobTitle--><g id="link_JobOffer_JobTitle"><path codeLine="62" d="M804.228,468.0922 C787.56,482.4382 765.294,502.8742 748.2,523.2082 C730.242,544.5682 713.238,572.0362 702.966,589.7062 " fill="none" id="JobOffer-JobTitle" style="stroke:#181818;stroke-width:0.6;"/><polygon fill="#000000" points="753.1196,526.6901,748.2919,529.7323,751.0021,531.989,753.1196,526.6901" style="stroke:#000000;stroke-width:0.6;"/><text fill="#000000" font-family="sans-serif" font-size="7.8" lengthAdjust="spacing" textLength="33.6" x="756.6" y="532.2252">describes</text><text fill="#000000" font-family="sans-serif" font-size="7.8" lengthAdjust="spacing" textLength="4.2" x="795.4196" y="481.0487">1</text><text fill="#000000" font-family="sans-serif" font-size="7.8" lengthAdjust="spacing" textLength="4.2" x="700.3884" y="583.1198">1</text></g><!--link JobOffer to ContractType--><g id="link_JobOffer_ContractType"><path codeLine="63" d="M819.078,468.1222 C812.616,482.9842 804.09,504.0502 798.6,523.2082 C792.144,545.7442 787.728,572.4562 785.286,589.6822 " fill="none" id="JobOffer-ContractType" style="stroke:#181818;stroke-width:0.6;"/><polygon fill="#000000" points="802.4035,526.1051,799.251,530.8616,802.6489,531.8062,802.4035,526.1051" style="stroke:#000000;stroke-width:0.6;"/><text fill="#000000" font-family="sans-serif" font-size="7.8" lengthAdjust="spacing" textLength="33.6" x="807" y="532.2252">describes</text><text fill="#000000" font-family="sans-serif" font-size="7.8" lengthAdjust="spacing" textLength="4.2" x="812.9836" y="480.9246">1</text><text fill="#000000" font-family="sans-serif" font-size="7.8" lengthAdjust="spacing" textLength="4.2" x="781.1244" y="583.0908">1</text></g><!--link JobOffer to JobMode--><g id="link_JobOffer_JobMode"><path codeLine="64" d="M833.562,468.1642 C842.382,499.3222 859.44,559.5862 867.936,589.6102 " fill="none" id="JobOffer-JobMode" style="stroke:#181818;stroke-width:0.6;"/><polygon fill="#000000" points="854.183,526.1089,853.9643,531.8111,857.3577,530.8506,854.183,526.1089" style="stroke:#000000;stroke-width:0.6;"/><text fill="#000000" font-family="sans-serif" font-size="7.8" lengthAdjust="spacing" textLength="33.6" x="860.4" y="532.2252">describes</text><text fill="#000000" font-family="sans-serif" font-size="7.8" lengthAdjust="spacing" textLength="4.2" x="829.957" y="480.9738">1</text><text fill="#000000" font-family="sans-serif" font-size="7.8" lengthAdjust="spacing" textLength="4.2" x="862.2584" y="583.004">1</text></g><!--link JobOffer to NumberOfVacancies--><g id="link_JobOffer_NumberOfVacancies"><path codeLine="65" d="M846.942,468.0262 C861.42,483.0142 881.814,504.2842 899.4,523.2082 C920.556,545.9662 944.52,572.6302 959.832,589.7782 " fill="none" id="JobOffer-NumberOfVacancies" style="stroke:#181818;stroke-width:0.6;"/><polygon fill="#000000" points="910.5603,526.7956,912.9571,531.9742,915.5432,529.5763,910.5603,526.7956" style="stroke:#000000;stroke-width:0.6;"/><text fill="#000000" font-family="sans-serif" font-size="7.8" lengthAdjust="spacing" textLength="33.6" x="918" y="532.2252">describes</text><text fill="#000000" font-family="sans-serif" font-size="7.8" lengthAdjust="spacing" textLength="4.2" x="845.742" y="480.971">1</text><text fill="#000000" font-family="sans-serif" font-size="7.8" lengthAdjust="spacing" textLength="4.2" x="951.7234" y="582.9164">1</text></g><!--link JobOffer to JobsDescription--><g id="link_JobOffer_JobsDescription"><path codeLine="66" d="M855.45,463.7902 C881.754,478.5802 922.446,501.8302 957,523.2082 C992.826,545.3722 1033.278,572.4082 1058.898,589.7842 " fill="none" id="JobOffer-JobsDescription" style="stroke:#181818;stroke-width:0.6;"/><polygon fill="#000000" points="974.8495,527.416,978.535,531.7725,980.3918,528.7742,974.8495,527.416" style="stroke:#000000;stroke-width:0.6;"/><text fill="#000000" font-family="sans-serif" font-size="7.8" lengthAdjust="spacing" textLength="39.6" x="982.8" y="532.2252">"describes"</text><text fill="#000000" font-family="sans-serif" font-size="7.8" lengthAdjust="spacing" textLength="4.2" x="860.1595" y="463.7576">1</text><text fill="#000000" font-family="sans-serif" font-size="7.8" lengthAdjust="spacing" textLength="4.2" x="1048.5726" y="582.9237">1</text></g><!--link Application to JobOffer--><g id="link_Application_JobOffer"><path codeLine="68" d="M363.444,354.5062 C379.218,358.2682 398.808,362.8282 416.4,366.6082 C560.568,397.5862 730.6556,429.3996 796.9316,441.6156 " fill="none" id="Application-to-JobOffer" style="stroke:#181818;stroke-width:0.6;"/><polygon fill="#181818" points="800.472,442.2682,795.5965,438.9291,797.5217,441.7244,794.7264,443.6496,800.472,442.2682" style="stroke:#181818;stroke-width:0.6;"/><polygon fill="#000000" points="557.3412,390.9865,552.3679,388.1886,551.6731,391.6461,557.3412,390.9865" style="stroke:#000000;stroke-width:0.6;"/><text fill="#000000" font-family="sans-serif" font-size="7.8" lengthAdjust="spacing" textLength="36.6" x="559.8" y="393.6252">pertains to</text><text fill="#000000" font-family="sans-serif" font-size="7.8" lengthAdjust="spacing" textLength="3" x="368.1358" y="353.1784">*</text><text fill="#000000" font-family="sans-serif" font-size="7.8" lengthAdjust="spacing" textLength="4.2" x="791.7352" y="438.8714">1</text></g><!--link Application to ApplicationEmail--><g id="link_Application_ApplicationEmail"><path codeLine="69" d="M363.318,365.1022 C379.35,375.0322 399.114,387.9322 415.8,400.8082 C427.278,409.6642 439.296,420.5422 448.788,429.5422 " fill="none" id="Application-ApplicationEmail" style="stroke:#181818;stroke-width:0.6;"/><polygon fill="#000000" points="415.1955,392.2016,411.9236,387.5264,409.8005,390.3424,415.1955,392.2016" style="stroke:#000000;stroke-width:0.6;"/><text fill="#000000" font-family="sans-serif" font-size="7.8" lengthAdjust="spacing" textLength="29.4" x="418.2" y="393.6252">contains</text><text fill="#000000" font-family="sans-serif" font-size="7.8" lengthAdjust="spacing" textLength="4.2" x="368.0794" y="365.3306">1</text><text fill="#000000" font-family="sans-serif" font-size="7.8" lengthAdjust="spacing" textLength="4.2" x="440.4399" y="422.9632">1</text></g><!--link Application to ApplicationRefCode--><g id="link_Application_ApplicationRefCode"><path codeLine="70" d="M302.676,365.8642 C286.818,375.9022 267.216,388.6642 250.2,400.8082 C237.516,409.8622 223.788,420.5422 212.73,429.3862 " fill="none" id="Application-ApplicationRefCode" style="stroke:#181818;stroke-width:0.6;"/><polygon fill="#000000" points="278.4505,388.6649,273.0003,390.3552,275.0347,393.236,278.4505,388.6649" style="stroke:#000000;stroke-width:0.6;"/><text fill="#000000" font-family="sans-serif" font-size="7.8" lengthAdjust="spacing" textLength="33.6" x="281.4" y="393.6252">describes</text><text fill="#000000" font-family="sans-serif" font-size="7.8" lengthAdjust="spacing" textLength="4.2" x="293.7137" y="366.2046">1</text><text fill="#000000" font-family="sans-serif" font-size="7.8" lengthAdjust="spacing" textLength="4.2" x="212.6199" y="422.775">1</text></g><!--link Application to ApplicationAttachedFile--><g id="link_Application_ApplicationAttachedFile"><path codeLine="71" d="M302.592,351.6322 C262.044,358.4542 188.73,373.5682 131.4,400.8082 C115.614,408.3082 99.69,419.8102 87.648,429.5002 " fill="none" id="Application-ApplicationAttachedFile" style="stroke:#181818;stroke-width:0.6;"/><polygon fill="#000000" points="168.7794,391.4173,174.4825,391.2267,173.2813,387.9109,168.7794,391.4173" style="stroke:#000000;stroke-width:0.6;"/><text fill="#000000" font-family="sans-serif" font-size="7.8" lengthAdjust="spacing" textLength="29.4" x="177" y="393.6252">contains</text><text fill="#000000" font-family="sans-serif" font-size="7.8" lengthAdjust="spacing" textLength="4.2" x="293.6174" y="349.8822">1</text><text fill="#000000" font-family="sans-serif" font-size="7.8" lengthAdjust="spacing" textLength="3" x="88.556" y="422.9125">*</text></g><!--link Application to ApplicationAttachedFilesLocation--><g id="link_Application_ApplicationAttachedFilesLocation"><path codeLine="72" d="M333,366.6682 C333,384.8902 333,411.8362 333,429.4822 " fill="none" id="Application-ApplicationAttachedFilesLocation" style="stroke:#181818;stroke-width:0.6;"/><polygon fill="#000000" points="336,393.3955,337.7634,387.9685,334.2366,387.9685,336,393.3955" style="stroke:#000000;stroke-width:0.6;"/><text fill="#000000" font-family="sans-serif" font-size="7.8" lengthAdjust="spacing" textLength="29.4" x="341.4" y="393.6252">contains</text><text fill="#000000" font-family="sans-serif" font-size="7.8" lengthAdjust="spacing" textLength="4.2" x="328.4259" y="379.6204">1</text><text fill="#000000" font-family="sans-serif" font-size="7.8" lengthAdjust="spacing" textLength="4.2" x="328.3669" y="422.8908">1</text></g><!--link Application to Rank--><g id="link_Application_Rank"><path codeLine="73" d="M363.306,346.5082 C382.41,346.5082 407.1,346.5082 426.774,346.5082 " fill="none" id="Application-Rank" style="stroke:#181818;stroke-width:0.6;"/><polygon fill="#000000" points="373.8,339.0955,379.2271,340.8589,379.2271,337.3322,373.8,339.0955" style="stroke:#000000;stroke-width:0.6;"/><text fill="#000000" font-family="sans-serif" font-size="7.8" lengthAdjust="spacing" textLength="33.6" x="382.2" y="342.3252">describes</text></g><!--SRC=[dLHDZzCm4BtxLup20LXXMYGE44MHgh988DYYrR9trvbapIPni1rMgzB_lexRVD5acv13ejZlpOpVUDxBEsCAxIyMHSfoKsRfMowp1K-PrfH6WYMAPOGKZD-p1E6dHhLA4eK9CxWZ1EnpcHjX7c5TQYCpLB1pgzKJ1EZsmj0jxNluAbGFgwGqC4HOLyN0PSP4keeYXVOd25xTldaHBpykbylNy2MgQB6m0V-mj4JOR7yXDs48ktqdmW_xUf0gQjZlFrJivoZNCaLu5j-3Nx4CpqOd-rRFhtAxYUDHJUljEJfPpZN6QnaTAu6vCja0DyAaE4EcjSoDOjpSF1PpvBAPlZTrJafqLMPRL9lubd6MSu5w1jTcqvzGSoKA8sH-bcbLRVgqAefKS5RnHbhLGSneLZUkCOpVOVHPp9A-4w7NzhbT7wb4VvE7nJb3m_Bx_pk1c_59ZJbIZtPmxieHPpRUEmyefUxRSnCVH2sIlL2dOES2FZXJ70MvsVSXSZTiEunf76WC5yc7d3hqXTTElmyXs3idj46bxTbhfwNqR-Xyj5qA7Bl332ppTudQQE0AdSg4DFiKMWs2jgOMSAp-K7x7MlwHR1H_S9B-SOV1FG-PGgZTOmhsr3ScPkWvXWzUG_8iYtIkhkiOfM5DR3jNe39Cv1gCx1DSAlSv6O6AnwqW5My2gUrAzr13l0jlr7DcvXnsYT4Wz60B_Ge9UG80]--></g></svg>