<?xml version="1.0" encoding="us-ascii" standalone="no"?><svg xmlns="http://www.w3.org/2000/svg" xmlns:xlink="http://www.w3.org/1999/xlink" contentStyleType="text/css" height="399px" preserveAspectRatio="none" style="width:715px;height:399px;background:#FFFFFF;" version="1.1" viewBox="0 0 715 399" width="715px" zoomAndPan="magnify"><defs/><g><text fill="#000000" font-family="sans-serif" font-size="14" font-weight="bold" lengthAdjust="spacing" textLength="180" x="266.75" y="30.1074">US3002 - Client Server SD</text><rect fill="#FFFFFF" height="232.0371" style="stroke:#181818;stroke-width:1.0;" width="10" x="102.5" y="111.5332"/><rect fill="#FFFFFF" height="264.3281" style="stroke:#181818;stroke-width:1.0;" width="10" x="411.5" y="88.2422"/><rect fill="#FFFFFF" height="31.291" style="stroke:#181818;stroke-width:1.0;" width="10" x="658.5" y="249.6973"/><line style="stroke:#181818;stroke-width:0.5;stroke-dasharray:5.0,5.0;" x1="107" x2="107" y1="78.2422" y2="361.5703"/><line style="stroke:#181818;stroke-width:0.5;stroke-dasharray:5.0,5.0;" x1="416" x2="416" y1="78.2422" y2="361.5703"/><line style="stroke:#181818;stroke-width:0.5;stroke-dasharray:5.0,5.0;" x1="663.5" x2="663.5" y1="78.2422" y2="361.5703"/><rect fill="#E2E2F0" height="32.6211" rx="2.5" ry="2.5" style="stroke:#181818;stroke-width:0.5;" width="205" x="5" y="44.6211"/><text fill="#000000" font-family="sans-serif" font-size="14" lengthAdjust="spacing" textLength="191" x="12" y="66.7285">ServerCustomerOffersHandler</text><rect fill="#E2E2F0" height="32.6211" rx="2.5" ry="2.5" style="stroke:#181818;stroke-width:0.5;" width="205" x="5" y="360.5703"/><text fill="#000000" font-family="sans-serif" font-size="14" lengthAdjust="spacing" textLength="191" x="12" y="382.6777">ServerCustomerOffersHandler</text><rect fill="#E2E2F0" height="32.6211" rx="2.5" ry="2.5" style="stroke:#181818;stroke-width:0.5;" width="113" x="360" y="44.6211"/><text fill="#000000" font-family="sans-serif" font-size="14" lengthAdjust="spacing" textLength="99" x="367" y="66.7285">FollowUpServer</text><rect fill="#E2E2F0" height="32.6211" rx="2.5" ry="2.5" style="stroke:#181818;stroke-width:0.5;" width="113" x="360" y="360.5703"/><text fill="#000000" font-family="sans-serif" font-size="14" lengthAdjust="spacing" textLength="99" x="367" y="382.6777">FollowUpServer</text><rect fill="#E2E2F0" height="32.6211" rx="2.5" ry="2.5" style="stroke:#181818;stroke-width:0.5;" width="92" x="617.5" y="44.6211"/><text fill="#000000" font-family="sans-serif" font-size="14" lengthAdjust="spacing" textLength="78" x="624.5" y="66.7285">H2Database</text><rect fill="#E2E2F0" height="32.6211" rx="2.5" ry="2.5" style="stroke:#181818;stroke-width:0.5;" width="92" x="617.5" y="360.5703"/><text fill="#000000" font-family="sans-serif" font-size="14" lengthAdjust="spacing" textLength="78" x="624.5" y="382.6777">H2Database</text><rect fill="#FFFFFF" height="232.0371" style="stroke:#181818;stroke-width:1.0;" width="10" x="102.5" y="111.5332"/><rect fill="#FFFFFF" height="264.3281" style="stroke:#181818;stroke-width:1.0;" width="10" x="411.5" y="88.2422"/><rect fill="#FFFFFF" height="31.291" style="stroke:#181818;stroke-width:1.0;" width="10" x="658.5" y="249.6973"/><polygon fill="#181818" points="90.5,107.5332,100.5,111.5332,90.5,115.5332,94.5,111.5332" style="stroke:#181818;stroke-width:1.0;"/><line style="stroke:#181818;stroke-width:1.0;" x1="0" x2="96.5" y1="111.5332" y2="111.5332"/><text fill="#000000" font-family="sans-serif" font-size="13" font-weight="bold" lengthAdjust="spacing" textLength="7" x="7" y="106.2705">8</text><text fill="#000000" font-family="sans-serif" font-size="13" lengthAdjust="spacing" textLength="4" x="18" y="106.2705">&#160;</text><polygon fill="#181818" points="399.5,138.8242,409.5,142.8242,399.5,146.8242,403.5,142.8242" style="stroke:#181818;stroke-width:1.0;"/><line style="stroke:#181818;stroke-width:1.0;" x1="112.5" x2="405.5" y1="142.8242" y2="142.8242"/><text fill="#000000" font-family="sans-serif" font-size="13" font-weight="bold" lengthAdjust="spacing" textLength="7" x="119.5" y="137.5615">9</text><text fill="#000000" font-family="sans-serif" font-size="13" lengthAdjust="spacing" textLength="197" x="130.5" y="137.5615">sendVersionAndCode(sOut, code)</text><polygon fill="#181818" points="399.5,170.1152,409.5,174.1152,399.5,178.1152,403.5,174.1152" style="stroke:#181818;stroke-width:1.0;"/><line style="stroke:#181818;stroke-width:1.0;" x1="112.5" x2="405.5" y1="174.1152" y2="174.1152"/><text fill="#000000" font-family="sans-serif" font-size="13" font-weight="bold" lengthAdjust="spacing" textLength="14" x="119.5" y="168.8525">10</text><text fill="#000000" font-family="sans-serif" font-size="13" lengthAdjust="spacing" textLength="257" x="137.5" y="168.8525">sendCredentials(sOut, username, password)</text><line style="stroke:#181818;stroke-width:1.0;" x1="421.5" x2="463.5" y1="205.4063" y2="205.4063"/><line style="stroke:#181818;stroke-width:1.0;" x1="463.5" x2="463.5" y1="205.4063" y2="218.4063"/><line style="stroke:#181818;stroke-width:1.0;" x1="422.5" x2="463.5" y1="218.4063" y2="218.4063"/><polygon fill="#181818" points="432.5,214.4063,422.5,218.4063,432.5,222.4063,428.5,218.4063" style="stroke:#181818;stroke-width:1.0;"/><text fill="#000000" font-family="sans-serif" font-size="13" font-weight="bold" lengthAdjust="spacing" textLength="14" x="428.5" y="200.1436">11</text><text fill="#000000" font-family="sans-serif" font-size="13" lengthAdjust="spacing" textLength="83" x="446.5" y="200.1436">retrieveOffers()</text><polygon fill="#181818" points="646.5,245.6973,656.5,249.6973,646.5,253.6973,650.5,249.6973" style="stroke:#181818;stroke-width:1.0;"/><line style="stroke:#181818;stroke-width:1.0;" x1="421.5" x2="652.5" y1="249.6973" y2="249.6973"/><text fill="#000000" font-family="sans-serif" font-size="13" font-weight="bold" lengthAdjust="spacing" textLength="14" x="428.5" y="244.4346">12</text><text fill="#000000" font-family="sans-serif" font-size="13" lengthAdjust="spacing" textLength="200" x="446.5" y="244.4346">findAllOffersOfCustomer(customer)</text><polygon fill="#181818" points="432.5,276.9883,422.5,280.9883,432.5,284.9883,428.5,280.9883" style="stroke:#181818;stroke-width:1.0;"/><line style="stroke:#181818;stroke-width:1.0;stroke-dasharray:2.0,2.0;" x1="426.5" x2="662.5" y1="280.9883" y2="280.9883"/><text fill="#000000" font-family="sans-serif" font-size="13" font-weight="bold" lengthAdjust="spacing" textLength="14" x="438.5" y="275.7256">13</text><text fill="#000000" font-family="sans-serif" font-size="13" lengthAdjust="spacing" textLength="51" x="456.5" y="275.7256">jobOffers</text><polygon fill="#181818" points="123.5,308.2793,113.5,312.2793,123.5,316.2793,119.5,312.2793" style="stroke:#181818;stroke-width:1.0;"/><line style="stroke:#181818;stroke-width:1.0;stroke-dasharray:2.0,2.0;" x1="117.5" x2="410.5" y1="312.2793" y2="312.2793"/><text fill="#000000" font-family="sans-serif" font-size="13" font-weight="bold" lengthAdjust="spacing" textLength="14" x="129.5" y="307.0166">14</text><text fill="#000000" font-family="sans-serif" font-size="13" lengthAdjust="spacing" textLength="51" x="147.5" y="307.0166">jobOffers</text><polygon fill="#181818" points="11,339.5703,1,343.5703,11,347.5703,7,343.5703" style="stroke:#181818;stroke-width:1.0;"/><line style="stroke:#181818;stroke-width:1.0;stroke-dasharray:2.0,2.0;" x1="5" x2="106.5" y1="343.5703" y2="343.5703"/><text fill="#000000" font-family="sans-serif" font-size="13" font-weight="bold" lengthAdjust="spacing" textLength="14" x="17" y="338.3076">15</text><text fill="#000000" font-family="sans-serif" font-size="13" lengthAdjust="spacing" textLength="51" x="35" y="338.3076">jobOffers</text><!--SRC=[TP11Ry8m38Nl-HMvZKfqHUmoeMaIj4mzJ4EYWhkRk5kcDEaI1_x-ChM58esROx_lENuFNqITNsLPfy5GQFMZi6tcyIUW4PXA1PyEMiP8aKP-g9uMYoLFUQuL6k8LkXCwNXMCTU182TN1fPq7JxP5jsiQTBu48tNKWkVb-gDut-vla3UhjJqVki4ngghj_XX584YTW71yJw5oMG113Hx_W6B360Io9hHrj7XcB7szxBhOZ0qs53oAUck-uXwDFCRFAclMHkPMuipl0isvY6LodyaTofY70kq787Xq1bgSymwyFrid8pumKzeXEOKdx4EQ9HDDiOdpHXcvrheVxvenqvaOYkHwMRm_8kdK_TlMFSaaJdNZacj0DsBsagR_3YOkOuw_]--></g></svg>