<?xml version="1.0" encoding="us-ascii" standalone="no"?><svg xmlns="http://www.w3.org/2000/svg" xmlns:xlink="http://www.w3.org/1999/xlink" contentStyleType="text/css" height="686px" preserveAspectRatio="none" style="width:957px;height:686px;background:#FFFFFF;" version="1.1" viewBox="0 0 957 686" width="957px" zoomAndPan="magnify"><defs/><g><!--class ServerCustomerOffersHandler--><g id="elem_ServerCustomerOffersHandler"><rect codeLine="2" fill="#F1F1F1" height="271.4531" id="ServerCustomerOffersHandler" rx="2.5" ry="2.5" style="stroke:#181818;stroke-width:0.5;" width="590" x="360" y="189"/><ellipse cx="555.25" cy="205" fill="#ADD1B2" rx="11" ry="11" style="stroke:#181818;stroke-width:1.0;"/><path d="M558.0156,200.875 Q558.1719,200.6563 558.3594,200.5469 Q558.5469,200.4375 558.7656,200.4375 Q559.1406,200.4375 559.375,200.7031 Q559.6094,200.9531 559.6094,201.5625 L559.6094,203.0156 Q559.6094,203.625 559.375,203.8906 Q559.1406,204.1563 558.7656,204.1563 Q558.4219,204.1563 558.2188,203.9531 Q558.0156,203.7656 557.9063,203.25 Q557.8594,202.8906 557.6719,202.7031 Q557.3438,202.3281 556.7344,202.1094 Q556.125,201.8906 555.5,201.8906 Q554.7344,201.8906 554.0938,202.2188 Q553.4688,202.5469 552.9688,203.2969 Q552.4844,204.0469 552.4844,205.0781 L552.4844,206.1719 Q552.4844,207.4063 553.375,208.2344 Q554.2656,209.0469 555.8594,209.0469 Q556.7969,209.0469 557.4531,208.7969 Q557.8438,208.6406 558.2656,208.2031 Q558.5313,207.9375 558.6719,207.8594 Q558.8281,207.7813 559.0313,207.7813 Q559.3594,207.7813 559.6094,208.0469 Q559.875,208.2969 559.875,208.6406 Q559.875,208.9844 559.5313,209.3906 Q559.0313,209.9688 558.2344,210.2969 Q557.1563,210.75 555.8594,210.75 Q554.3438,210.75 553.1406,210.125 Q552.1563,209.625 551.4688,208.5625 Q550.7813,207.4844 550.7813,206.2031 L550.7813,205.0469 Q550.7813,203.7188 551.3906,202.5781 Q552.0156,201.4219 553.1094,200.8125 Q554.2031,200.1875 555.4375,200.1875 Q556.1719,200.1875 556.8125,200.3594 Q557.4688,200.5156 558.0156,200.875 Z " fill="#000000"/><text fill="#000000" font-family="sans-serif" font-size="14" lengthAdjust="spacing" textLength="191" x="575.75" y="210.7969">ServerCustomerOffersHandler</text><line style="stroke:#181818;stroke-width:0.5;" x1="361" x2="949" y1="221" y2="221"/><rect fill="none" height="6" style="stroke:#C82930;stroke-width:1.0;" width="6" x="368" y="232.8105"/><text fill="#000000" font-family="sans-serif" font-size="14" lengthAdjust="spacing" textLength="201" x="380" y="240.1074">final AuthorizationService authz;</text><rect fill="none" height="6" style="stroke:#C82930;stroke-width:1.0;" width="6" x="368" y="251.4316"/><text fill="#000000" font-family="sans-serif" font-size="14" lengthAdjust="spacing" textLength="229" x="380" y="258.7285">static final int ASS_PORT_NUMBER;</text><rect fill="none" height="6" style="stroke:#C82930;stroke-width:1.0;" width="6" x="368" y="270.0527"/><text fill="#000000" font-family="sans-serif" font-size="14" lengthAdjust="spacing" textLength="172" x="380" y="277.3496">static InetAddress serverIP;</text><rect fill="none" height="6" style="stroke:#C82930;stroke-width:1.0;" width="6" x="368" y="288.6738"/><text fill="#000000" font-family="sans-serif" font-size="14" lengthAdjust="spacing" textLength="117" x="380" y="295.9707">static Socket sock;</text><rect fill="none" height="6" style="stroke:#C82930;stroke-width:1.0;" width="6" x="368" y="307.2949"/><text fill="#000000" font-family="sans-serif" font-size="14" lengthAdjust="spacing" textLength="96" x="380" y="314.5918">String serverIp;</text><rect fill="none" height="6" style="stroke:#C82930;stroke-width:1.0;" width="6" x="368" y="325.916"/><text fill="#000000" font-family="sans-serif" font-size="14" lengthAdjust="spacing" textLength="105" x="380" y="333.2129">String password;</text><line style="stroke:#181818;stroke-width:0.5;" x1="361" x2="949" y1="340.7266" y2="340.7266"/><ellipse cx="371" cy="355.5371" fill="#84BE84" rx="3" ry="3" style="stroke:#038048;stroke-width:1.0;"/><text fill="#000000" font-family="sans-serif" font-size="14" lengthAdjust="spacing" textLength="302" x="380" y="359.834">ServerCustomerOffersHandler(String password)</text><ellipse cx="371" cy="374.1582" fill="#84BE84" rx="3" ry="3" style="stroke:#038048;stroke-width:1.0;"/><text fill="#000000" font-family="sans-serif" font-size="14" lengthAdjust="spacing" textLength="241" x="380" y="378.4551">Iterable&lt;MessageDTO&gt; getMyOffers()</text><ellipse cx="371" cy="392.7793" fill="#84BE84" rx="3" ry="3" style="stroke:#038048;stroke-width:1.0;"/><text fill="#000000" font-family="sans-serif" font-size="14" lengthAdjust="spacing" textLength="424" x="380" y="397.0762">void sendEmail(MessageDTO message, ObjectOutputStream sOut)</text><ellipse cx="371" cy="411.4004" fill="#84BE84" rx="3" ry="3" style="stroke:#038048;stroke-width:1.0;"/><text fill="#000000" font-family="sans-serif" font-size="14" lengthAdjust="spacing" textLength="436" x="380" y="415.6973">static void sendVersionAndCode(ObjectOutputStream sOut, int code)</text><ellipse cx="371" cy="430.0215" fill="#84BE84" rx="3" ry="3" style="stroke:#038048;stroke-width:1.0;"/><text fill="#000000" font-family="sans-serif" font-size="14" lengthAdjust="spacing" textLength="564" x="380" y="434.3184">static void sendCredentials(ObjectOutputStream sOut, String username, String password)</text><ellipse cx="371" cy="448.6426" fill="#84BE84" rx="3" ry="3" style="stroke:#038048;stroke-width:1.0;"/><text fill="#000000" font-family="sans-serif" font-size="14" lengthAdjust="spacing" textLength="153" x="380" y="452.9395">static void closeSocket()</text></g><!--class ListCustomerOffersUI--><g id="elem_ListCustomerOffersUI"><rect codeLine="17" fill="#F1F1F1" height="122.4844" id="ListCustomerOffersUI" rx="2.5" ry="2.5" style="stroke:#181818;stroke-width:0.5;" width="426" x="7" y="7"/><ellipse cx="148.75" cy="23" fill="#ADD1B2" rx="11" ry="11" style="stroke:#181818;stroke-width:1.0;"/><path d="M151.5156,18.875 Q151.6719,18.6563 151.8594,18.5469 Q152.0469,18.4375 152.2656,18.4375 Q152.6406,18.4375 152.875,18.7031 Q153.1094,18.9531 153.1094,19.5625 L153.1094,21.0156 Q153.1094,21.625 152.875,21.8906 Q152.6406,22.1563 152.2656,22.1563 Q151.9219,22.1563 151.7188,21.9531 Q151.5156,21.7656 151.4063,21.25 Q151.3594,20.8906 151.1719,20.7031 Q150.8438,20.3281 150.2344,20.1094 Q149.625,19.8906 149,19.8906 Q148.2344,19.8906 147.5938,20.2188 Q146.9688,20.5469 146.4688,21.2969 Q145.9844,22.0469 145.9844,23.0781 L145.9844,24.1719 Q145.9844,25.4063 146.875,26.2344 Q147.7656,27.0469 149.3594,27.0469 Q150.2969,27.0469 150.9531,26.7969 Q151.3438,26.6406 151.7656,26.2031 Q152.0313,25.9375 152.1719,25.8594 Q152.3281,25.7813 152.5313,25.7813 Q152.8594,25.7813 153.1094,26.0469 Q153.375,26.2969 153.375,26.6406 Q153.375,26.9844 153.0313,27.3906 Q152.5313,27.9688 151.7344,28.2969 Q150.6563,28.75 149.3594,28.75 Q147.8438,28.75 146.6406,28.125 Q145.6563,27.625 144.9688,26.5625 Q144.2813,25.4844 144.2813,24.2031 L144.2813,23.0469 Q144.2813,21.7188 144.8906,20.5781 Q145.5156,19.4219 146.6094,18.8125 Q147.7031,18.1875 148.9375,18.1875 Q149.6719,18.1875 150.3125,18.3594 Q150.9688,18.5156 151.5156,18.875 Z " fill="#000000"/><text fill="#000000" font-family="sans-serif" font-size="14" lengthAdjust="spacing" textLength="134" x="169.25" y="28.7969">ListCustomerOffersUI</text><line style="stroke:#181818;stroke-width:0.5;" x1="8" x2="432" y1="39" y2="39"/><rect fill="none" height="6" style="stroke:#C82930;stroke-width:1.0;" width="6" x="15" y="50.8105"/><text fill="#000000" font-family="sans-serif" font-size="14" lengthAdjust="spacing" textLength="207" x="27" y="58.1074">ListCustomerOffersController ctrl</text><line style="stroke:#181818;stroke-width:0.5;" x1="8" x2="432" y1="65.6211" y2="65.6211"/><ellipse cx="18" cy="80.4316" fill="#84BE84" rx="3" ry="3" style="stroke:#038048;stroke-width:1.0;"/><text fill="#000000" font-family="sans-serif" font-size="14" lengthAdjust="spacing" textLength="400" x="27" y="84.7285">void displayReceivedOffers(Iterable&lt;MessageDTO&gt; messages)</text><ellipse cx="18" cy="99.0527" fill="#84BE84" rx="3" ry="3" style="stroke:#038048;stroke-width:1.0;"/><text fill="#000000" font-family="sans-serif" font-size="14" lengthAdjust="spacing" textLength="115" x="27" y="103.3496">boolean doShow()</text><ellipse cx="18" cy="117.6738" fill="#84BE84" rx="3" ry="3" style="stroke:#038048;stroke-width:1.0;"/><text fill="#000000" font-family="sans-serif" font-size="14" lengthAdjust="spacing" textLength="105" x="27" y="121.9707">String headline()</text></g><!--class ListCustomerOffersController--><g id="elem_ListCustomerOffersController"><rect codeLine="25" fill="#F1F1F1" height="66.6211" id="ListCustomerOffersController" rx="2.5" ry="2.5" style="stroke:#181818;stroke-width:0.5;" width="374" x="468" y="34.5"/><ellipse cx="558.75" cy="50.5" fill="#ADD1B2" rx="11" ry="11" style="stroke:#181818;stroke-width:1.0;"/><path d="M561.5156,46.375 Q561.6719,46.1563 561.8594,46.0469 Q562.0469,45.9375 562.2656,45.9375 Q562.6406,45.9375 562.875,46.2031 Q563.1094,46.4531 563.1094,47.0625 L563.1094,48.5156 Q563.1094,49.125 562.875,49.3906 Q562.6406,49.6563 562.2656,49.6563 Q561.9219,49.6563 561.7188,49.4531 Q561.5156,49.2656 561.4063,48.75 Q561.3594,48.3906 561.1719,48.2031 Q560.8438,47.8281 560.2344,47.6094 Q559.625,47.3906 559,47.3906 Q558.2344,47.3906 557.5938,47.7188 Q556.9688,48.0469 556.4688,48.7969 Q555.9844,49.5469 555.9844,50.5781 L555.9844,51.6719 Q555.9844,52.9063 556.875,53.7344 Q557.7656,54.5469 559.3594,54.5469 Q560.2969,54.5469 560.9531,54.2969 Q561.3438,54.1406 561.7656,53.7031 Q562.0313,53.4375 562.1719,53.3594 Q562.3281,53.2813 562.5313,53.2813 Q562.8594,53.2813 563.1094,53.5469 Q563.375,53.7969 563.375,54.1406 Q563.375,54.4844 563.0313,54.8906 Q562.5313,55.4688 561.7344,55.7969 Q560.6563,56.25 559.3594,56.25 Q557.8438,56.25 556.6406,55.625 Q555.6563,55.125 554.9688,54.0625 Q554.2813,52.9844 554.2813,51.7031 L554.2813,50.5469 Q554.2813,49.2188 554.8906,48.0781 Q555.5156,46.9219 556.6094,46.3125 Q557.7031,45.6875 558.9375,45.6875 Q559.6719,45.6875 560.3125,45.8594 Q560.9688,46.0156 561.5156,46.375 Z " fill="#000000"/><text fill="#000000" font-family="sans-serif" font-size="14" lengthAdjust="spacing" textLength="184" x="579.25" y="56.2969">ListCustomerOffersController</text><line style="stroke:#181818;stroke-width:0.5;" x1="469" x2="841" y1="66.5" y2="66.5"/><line style="stroke:#181818;stroke-width:0.5;" x1="469" x2="841" y1="74.5" y2="74.5"/><ellipse cx="479" cy="89.3105" fill="#84BE84" rx="3" ry="3" style="stroke:#038048;stroke-width:1.0;"/><text fill="#000000" font-family="sans-serif" font-size="14" lengthAdjust="spacing" textLength="348" x="488" y="93.6074">Iterable&lt;MessageDTO&gt; displayOffers(String password)</text></g><!--class MessageDTO--><g id="elem_MessageDTO"><rect codeLine="29" fill="#F1F1F1" height="159.7266" id="MessageDTO" rx="2.5" ry="2.5" style="stroke:#181818;stroke-width:0.5;" width="198" x="556" y="520"/><ellipse cx="607.25" cy="536" fill="#ADD1B2" rx="11" ry="11" style="stroke:#181818;stroke-width:1.0;"/><path d="M610.0156,531.875 Q610.1719,531.6563 610.3594,531.5469 Q610.5469,531.4375 610.7656,531.4375 Q611.1406,531.4375 611.375,531.7031 Q611.6094,531.9531 611.6094,532.5625 L611.6094,534.0156 Q611.6094,534.625 611.375,534.8906 Q611.1406,535.1563 610.7656,535.1563 Q610.4219,535.1563 610.2188,534.9531 Q610.0156,534.7656 609.9063,534.25 Q609.8594,533.8906 609.6719,533.7031 Q609.3438,533.3281 608.7344,533.1094 Q608.125,532.8906 607.5,532.8906 Q606.7344,532.8906 606.0938,533.2188 Q605.4688,533.5469 604.9688,534.2969 Q604.4844,535.0469 604.4844,536.0781 L604.4844,537.1719 Q604.4844,538.4063 605.375,539.2344 Q606.2656,540.0469 607.8594,540.0469 Q608.7969,540.0469 609.4531,539.7969 Q609.8438,539.6406 610.2656,539.2031 Q610.5313,538.9375 610.6719,538.8594 Q610.8281,538.7813 611.0313,538.7813 Q611.3594,538.7813 611.6094,539.0469 Q611.875,539.2969 611.875,539.6406 Q611.875,539.9844 611.5313,540.3906 Q611.0313,540.9688 610.2344,541.2969 Q609.1563,541.75 607.8594,541.75 Q606.3438,541.75 605.1406,541.125 Q604.1563,540.625 603.4688,539.5625 Q602.7813,538.4844 602.7813,537.2031 L602.7813,536.0469 Q602.7813,534.7188 603.3906,533.5781 Q604.0156,532.4219 605.1094,531.8125 Q606.2031,531.1875 607.4375,531.1875 Q608.1719,531.1875 608.8125,531.3594 Q609.4688,531.5156 610.0156,531.875 Z " fill="#000000"/><text fill="#000000" font-family="sans-serif" font-size="14" lengthAdjust="spacing" textLength="87" x="627.75" y="541.7969">MessageDTO</text><line style="stroke:#181818;stroke-width:0.5;" x1="557" x2="753" y1="552" y2="552"/><rect fill="none" height="6" style="stroke:#C82930;stroke-width:1.0;" width="6" x="564" y="563.8105"/><text fill="#000000" font-family="sans-serif" font-size="14" lengthAdjust="spacing" textLength="172" x="576" y="571.1074">static long serialVersionUID</text><rect fill="none" height="6" style="stroke:#C82930;stroke-width:1.0;" width="6" x="564" y="582.4316"/><text fill="#000000" font-family="sans-serif" font-size="14" lengthAdjust="spacing" textLength="69" x="576" y="589.7285">String data</text><line style="stroke:#181818;stroke-width:0.5;" x1="557" x2="753" y1="597.2422" y2="597.2422"/><ellipse cx="567" cy="612.0527" fill="#84BE84" rx="3" ry="3" style="stroke:#038048;stroke-width:1.0;"/><text fill="#000000" font-family="sans-serif" font-size="14" lengthAdjust="spacing" textLength="166" x="576" y="616.3496">MessageDTO(String data)</text><ellipse cx="567" cy="630.6738" fill="#84BE84" rx="3" ry="3" style="stroke:#038048;stroke-width:1.0;"/><text fill="#000000" font-family="sans-serif" font-size="14" lengthAdjust="spacing" textLength="101" x="576" y="634.9707">String getData()</text><ellipse cx="567" cy="649.2949" fill="#84BE84" rx="3" ry="3" style="stroke:#038048;stroke-width:1.0;"/><text fill="#000000" font-family="sans-serif" font-size="14" lengthAdjust="spacing" textLength="100" x="576" y="653.5918">String toString()</text><ellipse cx="567" cy="667.916" fill="#84BE84" rx="3" ry="3" style="stroke:#038048;stroke-width:1.0;"/><text fill="#000000" font-family="sans-serif" font-size="14" lengthAdjust="spacing" textLength="104" x="576" y="672.2129">byte[] getBytes()</text></g><!--link ListCustomerOffersUI to ListCustomerOffersController--><g id="link_ListCustomerOffersUI_ListCustomerOffersController"><path codeLine="38" d="M433.25,68 C444.8,68 450.35,68 461.9,68 " fill="none" id="ListCustomerOffersUI-to-ListCustomerOffersController" style="stroke:#181818;stroke-width:1.0;"/><polygon fill="#181818" points="467.9,68,458.9,64,462.9,68,458.9,72,467.9,68" style="stroke:#181818;stroke-width:1.0;"/></g><!--link ListCustomerOffersController to ServerCustomerOffersHandler--><g id="link_ListCustomerOffersController_ServerCustomerOffersHandler"><path codeLine="39" d="M655,101.75 C655,124.44 655,150.31 655,182.83 " fill="none" id="ListCustomerOffersController-to-ServerCustomerOffersHandler" style="stroke:#181818;stroke-width:1.0;stroke-dasharray:7.0,7.0;"/><polygon fill="#181818" points="655,188.83,659,179.83,655,183.83,651,179.83,655,188.83" style="stroke:#181818;stroke-width:1.0;"/></g><!--link ServerCustomerOffersHandler to MessageDTO--><g id="link_ServerCustomerOffersHandler_MessageDTO"><path codeLine="40" d="M655,460.25 C655,480.61 655,495.03 655,513.7 " fill="none" id="ServerCustomerOffersHandler-to-MessageDTO" style="stroke:#181818;stroke-width:1.0;stroke-dasharray:7.0,7.0;"/><polygon fill="#181818" points="655,519.7,659,510.7,655,514.7,651,510.7,655,519.7" style="stroke:#181818;stroke-width:1.0;"/></g><!--SRC=[VLJHJi8m57tdA_eu8_e36X844vU88qnyCSQKzWBLhYNj7GQD_-uTgwx862yht7jEppdt3g6vzom7jmKtAZtQ0bosN8BpTzn83OvzzLZuNB2bCbopOObhwzGdHsLD1LK26ASVFw-YNezK5m6Y3B9XdhzEizdZwyDySdCxQ-bD3U1GIWSaoUybfTEMjjoATq3cwH5NStJAh7w1cvRIXhn-M2URqdcNzUGVx2o2fGYEBpHSJqWiNy7uCHkm5U1aLrCaSVFMAacwZBmjkD990s55VUopRF460hCIDoNIjS0BvkbRp1BS_v4zqJKqWA6H8oiXES7GtsSlgAEBQ-H0Wa75jJzD5E8eAM732-YpZdpY2uIs7kgXXLY-UpsnNxnxvV4m-tbwi7773IDhq5bThQP0f__7B9NVQBwRWG2r1HccqJgk4BwFTI-irS0DapPVsu-3AGQtQ-1IAmDK8nidVKGoQp_dhHg2t23pAD2_eAAT-Jf-8xIj5v_c5xPYdewFzrzov96XXZE96beiqrwFgTAM1jhwS51Rx12UNohO3PryC_JgqJhoYq5dX2U0KSQNnD3nAky9klxbAdoJnmy0]--></g></svg>