<?xml version="1.0" encoding="us-ascii" standalone="no"?><svg xmlns="http://www.w3.org/2000/svg" xmlns:xlink="http://www.w3.org/1999/xlink" contentStyleType="text/css" height="781px" preserveAspectRatio="none" style="width:792px;height:781px;background:#FFFFFF;" version="1.1" viewBox="0 0 792 781" width="792px" zoomAndPan="magnify"><defs/><g><!--cluster UserAggregate--><g id="cluster_UserAggregate"><path d="M8.5,6.0137 L115.5,6.0137 A3.75,3.75 0 0 1 118,8.5137 L125,30.6348 L782.5,30.6348 A2.5,2.5 0 0 1 785,33.1348 L785,771.5137 A2.5,2.5 0 0 1 782.5,774.0137 L8.5,774.0137 A2.5,2.5 0 0 1 6,771.5137 L6,8.5137 A2.5,2.5 0 0 1 8.5,6.0137 " fill="none" style="stroke:#000000;stroke-width:1.5;"/><line style="stroke:#000000;stroke-width:1.5;" x1="6" x2="125" y1="30.6348" y2="30.6348"/><text fill="#000000" font-family="sans-serif" font-size="14" font-weight="bold" lengthAdjust="spacing" textLength="106" x="10" y="23.1211">UserAggregate</text></g><!--class LanguageEngineer--><g id="elem_LanguageEngineer"><rect codeLine="4" fill="#F1F1F1" height="66.6211" id="LanguageEngineer" rx="2.5" ry="2.5" style="stroke:#181818;stroke-width:0.5;" width="153" x="603.5" y="299.0137"/><ellipse cx="618.5" cy="315.0137" fill="#ADD1B2" rx="11" ry="11" style="stroke:#181818;stroke-width:1.0;"/><path d="M617.3594,315.8105 L617.3594,318.3105 L621.6875,318.3105 L621.6875,317.3887 Q621.6875,316.7793 621.9219,316.5137 Q622.1719,316.248 622.5469,316.248 Q622.9219,316.248 623.1563,316.5137 Q623.3906,316.7793 623.3906,317.3887 L623.3906,320.0137 L615.3906,320.0137 Q614.7656,320.0137 614.5,319.7793 Q614.25,319.5449 614.25,319.1543 Q614.25,318.7793 614.5156,318.5449 Q614.7813,318.3105 615.3906,318.3105 L615.6563,318.3105 L615.6563,311.6543 L615.3906,311.6543 Q614.7656,311.6543 614.5,311.4199 Q614.25,311.1855 614.25,310.7949 Q614.25,310.4199 614.5,310.1855 Q614.7656,309.9512 615.3906,309.9512 L623.0156,309.9512 L623.0156,312.5449 Q623.0156,313.1543 622.7813,313.4199 Q622.5625,313.6699 622.1719,313.6699 Q621.7969,313.6699 621.5625,313.4199 Q621.3281,313.1543 621.3281,312.5449 L621.3281,311.6543 L617.3594,311.6543 L617.3594,314.1074 L618.8438,314.1074 Q618.8438,313.4512 618.9688,313.2637 Q619.2344,312.8574 619.7031,312.8574 Q620.0781,312.8574 620.3125,313.123 Q620.5469,313.373 620.5469,313.9824 L620.5469,315.9512 Q620.5469,316.498 620.4219,316.6855 Q620.1563,317.0762 619.7031,317.0762 Q619.2344,317.0762 618.9688,316.6699 Q618.8438,316.4824 618.8438,315.8105 L617.3594,315.8105 Z " fill="#000000"/><text fill="#000000" font-family="sans-serif" font-size="14" lengthAdjust="spacing" textLength="121" x="632.5" y="320.8105">LanguageEngineer</text><line style="stroke:#181818;stroke-width:0.5;" x1="604.5" x2="755.5" y1="331.0137" y2="331.0137"/><text fill="#000000" font-family="sans-serif" font-size="14" lengthAdjust="spacing" textLength="50" x="609.5" y="350.1211">&#171;entity&#187;</text><line style="stroke:#181818;stroke-width:0.5;" x1="604.5" x2="755.5" y1="357.6348" y2="357.6348"/></g><!--class Admin--><g id="elem_Admin"><rect codeLine="7" fill="#F1F1F1" height="66.6211" id="Admin" rx="2.5" ry="2.5" style="stroke:#181818;stroke-width:0.5;" width="71" x="531.5" y="43.0137"/><ellipse cx="546.5" cy="59.0137" fill="#ADD1B2" rx="11" ry="11" style="stroke:#181818;stroke-width:1.0;"/><path d="M545.3594,59.8105 L545.3594,62.3105 L549.6875,62.3105 L549.6875,61.3887 Q549.6875,60.7793 549.9219,60.5137 Q550.1719,60.248 550.5469,60.248 Q550.9219,60.248 551.1563,60.5137 Q551.3906,60.7793 551.3906,61.3887 L551.3906,64.0137 L543.3906,64.0137 Q542.7656,64.0137 542.5,63.7793 Q542.25,63.5449 542.25,63.1543 Q542.25,62.7793 542.5156,62.5449 Q542.7813,62.3105 543.3906,62.3105 L543.6563,62.3105 L543.6563,55.6543 L543.3906,55.6543 Q542.7656,55.6543 542.5,55.4199 Q542.25,55.1855 542.25,54.7949 Q542.25,54.4199 542.5,54.1855 Q542.7656,53.9512 543.3906,53.9512 L551.0156,53.9512 L551.0156,56.5449 Q551.0156,57.1543 550.7813,57.4199 Q550.5625,57.6699 550.1719,57.6699 Q549.7969,57.6699 549.5625,57.4199 Q549.3281,57.1543 549.3281,56.5449 L549.3281,55.6543 L545.3594,55.6543 L545.3594,58.1074 L546.8438,58.1074 Q546.8438,57.4512 546.9688,57.2637 Q547.2344,56.8574 547.7031,56.8574 Q548.0781,56.8574 548.3125,57.123 Q548.5469,57.373 548.5469,57.9824 L548.5469,59.9512 Q548.5469,60.498 548.4219,60.6855 Q548.1563,61.0762 547.7031,61.0762 Q547.2344,61.0762 546.9688,60.6699 Q546.8438,60.4824 546.8438,59.8105 L545.3594,59.8105 Z " fill="#000000"/><text fill="#000000" font-family="sans-serif" font-size="14" lengthAdjust="spacing" textLength="39" x="560.5" y="64.8105">Admin</text><line style="stroke:#181818;stroke-width:0.5;" x1="532.5" x2="601.5" y1="75.0137" y2="75.0137"/><text fill="#000000" font-family="sans-serif" font-size="14" lengthAdjust="spacing" textLength="50" x="537.5" y="94.1211">&#171;entity&#187;</text><line style="stroke:#181818;stroke-width:0.5;" x1="532.5" x2="601.5" y1="101.6348" y2="101.6348"/></g><!--class CustomerManager--><g id="elem_CustomerManager"><rect codeLine="10" fill="#F1F1F1" height="66.6211" id="CustomerManager" rx="2.5" ry="2.5" style="stroke:#181818;stroke-width:0.5;" width="149" x="381.5" y="171.0137"/><ellipse cx="396.5" cy="187.0137" fill="#ADD1B2" rx="11" ry="11" style="stroke:#181818;stroke-width:1.0;"/><path d="M395.3594,187.8105 L395.3594,190.3105 L399.6875,190.3105 L399.6875,189.3887 Q399.6875,188.7793 399.9219,188.5137 Q400.1719,188.248 400.5469,188.248 Q400.9219,188.248 401.1563,188.5137 Q401.3906,188.7793 401.3906,189.3887 L401.3906,192.0137 L393.3906,192.0137 Q392.7656,192.0137 392.5,191.7793 Q392.25,191.5449 392.25,191.1543 Q392.25,190.7793 392.5156,190.5449 Q392.7813,190.3105 393.3906,190.3105 L393.6563,190.3105 L393.6563,183.6543 L393.3906,183.6543 Q392.7656,183.6543 392.5,183.4199 Q392.25,183.1855 392.25,182.7949 Q392.25,182.4199 392.5,182.1855 Q392.7656,181.9512 393.3906,181.9512 L401.0156,181.9512 L401.0156,184.5449 Q401.0156,185.1543 400.7813,185.4199 Q400.5625,185.6699 400.1719,185.6699 Q399.7969,185.6699 399.5625,185.4199 Q399.3281,185.1543 399.3281,184.5449 L399.3281,183.6543 L395.3594,183.6543 L395.3594,186.1074 L396.8438,186.1074 Q396.8438,185.4512 396.9688,185.2637 Q397.2344,184.8574 397.7031,184.8574 Q398.0781,184.8574 398.3125,185.123 Q398.5469,185.373 398.5469,185.9824 L398.5469,187.9512 Q398.5469,188.498 398.4219,188.6855 Q398.1563,189.0762 397.7031,189.0762 Q397.2344,189.0762 396.9688,188.6699 Q396.8438,188.4824 396.8438,187.8105 L395.3594,187.8105 Z " fill="#000000"/><text fill="#000000" font-family="sans-serif" font-size="14" lengthAdjust="spacing" textLength="117" x="410.5" y="192.8105">CustomerManager</text><line style="stroke:#181818;stroke-width:0.5;" x1="382.5" x2="529.5" y1="203.0137" y2="203.0137"/><text fill="#000000" font-family="sans-serif" font-size="14" lengthAdjust="spacing" textLength="50" x="387.5" y="222.1211">&#171;entity&#187;</text><line style="stroke:#181818;stroke-width:0.5;" x1="382.5" x2="529.5" y1="229.6348" y2="229.6348"/></g><!--class Operator--><g id="elem_Operator"><rect codeLine="13" fill="#F1F1F1" height="66.6211" id="Operator" rx="2.5" ry="2.5" style="stroke:#181818;stroke-width:0.5;" width="89" x="300.5" y="43.0137"/><ellipse cx="315.5" cy="59.0137" fill="#ADD1B2" rx="11" ry="11" style="stroke:#181818;stroke-width:1.0;"/><path d="M314.3594,59.8105 L314.3594,62.3105 L318.6875,62.3105 L318.6875,61.3887 Q318.6875,60.7793 318.9219,60.5137 Q319.1719,60.248 319.5469,60.248 Q319.9219,60.248 320.1563,60.5137 Q320.3906,60.7793 320.3906,61.3887 L320.3906,64.0137 L312.3906,64.0137 Q311.7656,64.0137 311.5,63.7793 Q311.25,63.5449 311.25,63.1543 Q311.25,62.7793 311.5156,62.5449 Q311.7813,62.3105 312.3906,62.3105 L312.6563,62.3105 L312.6563,55.6543 L312.3906,55.6543 Q311.7656,55.6543 311.5,55.4199 Q311.25,55.1855 311.25,54.7949 Q311.25,54.4199 311.5,54.1855 Q311.7656,53.9512 312.3906,53.9512 L320.0156,53.9512 L320.0156,56.5449 Q320.0156,57.1543 319.7813,57.4199 Q319.5625,57.6699 319.1719,57.6699 Q318.7969,57.6699 318.5625,57.4199 Q318.3281,57.1543 318.3281,56.5449 L318.3281,55.6543 L314.3594,55.6543 L314.3594,58.1074 L315.8438,58.1074 Q315.8438,57.4512 315.9688,57.2637 Q316.2344,56.8574 316.7031,56.8574 Q317.0781,56.8574 317.3125,57.123 Q317.5469,57.373 317.5469,57.9824 L317.5469,59.9512 Q317.5469,60.498 317.4219,60.6855 Q317.1563,61.0762 316.7031,61.0762 Q316.2344,61.0762 315.9688,60.6699 Q315.8438,60.4824 315.8438,59.8105 L314.3594,59.8105 Z " fill="#000000"/><text fill="#000000" font-family="sans-serif" font-size="14" lengthAdjust="spacing" textLength="57" x="329.5" y="64.8105">Operator</text><line style="stroke:#181818;stroke-width:0.5;" x1="301.5" x2="388.5" y1="75.0137" y2="75.0137"/><text fill="#000000" font-family="sans-serif" font-size="14" lengthAdjust="spacing" textLength="50" x="306.5" y="94.1211">&#171;entity&#187;</text><line style="stroke:#181818;stroke-width:0.5;" x1="301.5" x2="388.5" y1="101.6348" y2="101.6348"/></g><!--class Customer--><g id="elem_Customer"><rect codeLine="16" fill="#F1F1F1" height="66.6211" id="Customer" rx="2.5" ry="2.5" style="stroke:#181818;stroke-width:0.5;" width="93" x="215.5" y="299.0137"/><ellipse cx="230.5" cy="315.0137" fill="#ADD1B2" rx="11" ry="11" style="stroke:#181818;stroke-width:1.0;"/><path d="M229.3594,315.8105 L229.3594,318.3105 L233.6875,318.3105 L233.6875,317.3887 Q233.6875,316.7793 233.9219,316.5137 Q234.1719,316.248 234.5469,316.248 Q234.9219,316.248 235.1563,316.5137 Q235.3906,316.7793 235.3906,317.3887 L235.3906,320.0137 L227.3906,320.0137 Q226.7656,320.0137 226.5,319.7793 Q226.25,319.5449 226.25,319.1543 Q226.25,318.7793 226.5156,318.5449 Q226.7813,318.3105 227.3906,318.3105 L227.6563,318.3105 L227.6563,311.6543 L227.3906,311.6543 Q226.7656,311.6543 226.5,311.4199 Q226.25,311.1855 226.25,310.7949 Q226.25,310.4199 226.5,310.1855 Q226.7656,309.9512 227.3906,309.9512 L235.0156,309.9512 L235.0156,312.5449 Q235.0156,313.1543 234.7813,313.4199 Q234.5625,313.6699 234.1719,313.6699 Q233.7969,313.6699 233.5625,313.4199 Q233.3281,313.1543 233.3281,312.5449 L233.3281,311.6543 L229.3594,311.6543 L229.3594,314.1074 L230.8438,314.1074 Q230.8438,313.4512 230.9688,313.2637 Q231.2344,312.8574 231.7031,312.8574 Q232.0781,312.8574 232.3125,313.123 Q232.5469,313.373 232.5469,313.9824 L232.5469,315.9512 Q232.5469,316.498 232.4219,316.6855 Q232.1563,317.0762 231.7031,317.0762 Q231.2344,317.0762 230.9688,316.6699 Q230.8438,316.4824 230.8438,315.8105 L229.3594,315.8105 Z " fill="#000000"/><text fill="#000000" font-family="sans-serif" font-size="14" lengthAdjust="spacing" textLength="61" x="244.5" y="320.8105">Customer</text><line style="stroke:#181818;stroke-width:0.5;" x1="216.5" x2="307.5" y1="331.0137" y2="331.0137"/><text fill="#000000" font-family="sans-serif" font-size="14" lengthAdjust="spacing" textLength="50" x="221.5" y="350.1211">&#171;entity&#187;</text><line style="stroke:#181818;stroke-width:0.5;" x1="216.5" x2="307.5" y1="357.6348" y2="357.6348"/></g><!--class Candidate--><g id="elem_Candidate"><rect codeLine="19" fill="#F1F1F1" height="66.6211" id="Candidate" rx="2.5" ry="2.5" style="stroke:#181818;stroke-width:0.5;" width="97" x="83.5" y="299.0137"/><ellipse cx="98.5" cy="315.0137" fill="#ADD1B2" rx="11" ry="11" style="stroke:#181818;stroke-width:1.0;"/><path d="M97.3594,315.8105 L97.3594,318.3105 L101.6875,318.3105 L101.6875,317.3887 Q101.6875,316.7793 101.9219,316.5137 Q102.1719,316.248 102.5469,316.248 Q102.9219,316.248 103.1563,316.5137 Q103.3906,316.7793 103.3906,317.3887 L103.3906,320.0137 L95.3906,320.0137 Q94.7656,320.0137 94.5,319.7793 Q94.25,319.5449 94.25,319.1543 Q94.25,318.7793 94.5156,318.5449 Q94.7813,318.3105 95.3906,318.3105 L95.6563,318.3105 L95.6563,311.6543 L95.3906,311.6543 Q94.7656,311.6543 94.5,311.4199 Q94.25,311.1855 94.25,310.7949 Q94.25,310.4199 94.5,310.1855 Q94.7656,309.9512 95.3906,309.9512 L103.0156,309.9512 L103.0156,312.5449 Q103.0156,313.1543 102.7813,313.4199 Q102.5625,313.6699 102.1719,313.6699 Q101.7969,313.6699 101.5625,313.4199 Q101.3281,313.1543 101.3281,312.5449 L101.3281,311.6543 L97.3594,311.6543 L97.3594,314.1074 L98.8438,314.1074 Q98.8438,313.4512 98.9688,313.2637 Q99.2344,312.8574 99.7031,312.8574 Q100.0781,312.8574 100.3125,313.123 Q100.5469,313.373 100.5469,313.9824 L100.5469,315.9512 Q100.5469,316.498 100.4219,316.6855 Q100.1563,317.0762 99.7031,317.0762 Q99.2344,317.0762 98.9688,316.6699 Q98.8438,316.4824 98.8438,315.8105 L97.3594,315.8105 Z " fill="#000000"/><text fill="#000000" font-family="sans-serif" font-size="14" lengthAdjust="spacing" textLength="65" x="112.5" y="320.8105">Candidate</text><line style="stroke:#181818;stroke-width:0.5;" x1="84.5" x2="179.5" y1="331.0137" y2="331.0137"/><text fill="#000000" font-family="sans-serif" font-size="14" lengthAdjust="spacing" textLength="50" x="89.5" y="350.1211">&#171;entity&#187;</text><line style="stroke:#181818;stroke-width:0.5;" x1="84.5" x2="179.5" y1="357.6348" y2="357.6348"/></g><!--class EmailAddress--><g id="elem_EmailAddress"><rect codeLine="22" fill="#F1F1F1" height="60.582" id="EmailAddress" rx="2.5" ry="2.5" style="stroke:#181818;stroke-width:0.5;" width="162" x="22" y="697.0137"/><ellipse cx="37" cy="719.3047" fill="#F09000" rx="11" ry="11" style="stroke:#181818;stroke-width:1.0;"/><path d="M37.5938,722.5703 L40.0625,716.6953 L39.6719,716.6953 Q39.0625,716.6953 38.7969,716.4609 Q38.5313,716.2266 38.5313,715.8359 Q38.5313,715.4609 38.7969,715.2266 Q39.0625,714.9922 39.6719,714.9922 L41.9531,714.9922 Q42.5625,714.9922 42.8281,715.2266 Q43.0938,715.4609 43.0938,715.8359 Q43.0938,716.3047 42.6875,716.5703 Q42.5,716.6953 41.9063,716.6953 L38.4219,725.0547 L36.7813,725.0547 L33.2969,716.6953 Q32.7031,716.6953 32.5156,716.5703 Q32.1094,716.3047 32.1094,715.8359 Q32.1094,715.4609 32.375,715.2266 Q32.6406,714.9922 33.25,714.9922 L35.5469,714.9922 Q36.1563,714.9922 36.4063,715.2266 Q36.6719,715.4609 36.6719,715.8359 Q36.6719,716.2266 36.4063,716.4609 Q36.1563,716.6953 35.5469,716.6953 L35.1406,716.6953 L37.5938,722.5703 Z " fill="#000000"/><text fill="#000000" font-family="sans-serif" font-size="12" font-style="italic" lengthAdjust="spacing" textLength="134" x="49" y="714.9629">&#171;Identifier value Object&#187;</text><text fill="#000000" font-family="sans-serif" font-size="14" lengthAdjust="spacing" textLength="86" x="73" y="733.082">EmailAddress</text><line style="stroke:#181818;stroke-width:0.5;" x1="23" x2="183" y1="741.5957" y2="741.5957"/><line style="stroke:#181818;stroke-width:0.5;" x1="23" x2="183" y1="749.5957" y2="749.5957"/></g><!--class User--><g id="elem_User"><rect codeLine="23" fill="#F1F1F1" height="66.6211" id="User" rx="2.5" ry="2.5" style="stroke:#181818;stroke-width:0.5;" width="91" x="375.5" y="427.0137"/><ellipse cx="404" cy="443.0137" fill="#ADD1B2" rx="11" ry="11" style="stroke:#181818;stroke-width:1.0;"/><path d="M402.8594,443.8105 L402.8594,446.3105 L407.1875,446.3105 L407.1875,445.3887 Q407.1875,444.7793 407.4219,444.5137 Q407.6719,444.248 408.0469,444.248 Q408.4219,444.248 408.6563,444.5137 Q408.8906,444.7793 408.8906,445.3887 L408.8906,448.0137 L400.8906,448.0137 Q400.2656,448.0137 400,447.7793 Q399.75,447.5449 399.75,447.1543 Q399.75,446.7793 400.0156,446.5449 Q400.2813,446.3105 400.8906,446.3105 L401.1563,446.3105 L401.1563,439.6543 L400.8906,439.6543 Q400.2656,439.6543 400,439.4199 Q399.75,439.1855 399.75,438.7949 Q399.75,438.4199 400,438.1855 Q400.2656,437.9512 400.8906,437.9512 L408.5156,437.9512 L408.5156,440.5449 Q408.5156,441.1543 408.2813,441.4199 Q408.0625,441.6699 407.6719,441.6699 Q407.2969,441.6699 407.0625,441.4199 Q406.8281,441.1543 406.8281,440.5449 L406.8281,439.6543 L402.8594,439.6543 L402.8594,442.1074 L404.3438,442.1074 Q404.3438,441.4512 404.4688,441.2637 Q404.7344,440.8574 405.2031,440.8574 Q405.5781,440.8574 405.8125,441.123 Q406.0469,441.373 406.0469,441.9824 L406.0469,443.9512 Q406.0469,444.498 405.9219,444.6855 Q405.6563,445.0762 405.2031,445.0762 Q404.7344,445.0762 404.4688,444.6699 Q404.3438,444.4824 404.3438,443.8105 L402.8594,443.8105 Z " fill="#000000"/><text fill="#000000" font-family="sans-serif" font-size="14" lengthAdjust="spacing" textLength="29" x="421" y="448.8105">User</text><line style="stroke:#181818;stroke-width:0.5;" x1="376.5" x2="465.5" y1="459.0137" y2="459.0137"/><text fill="#000000" font-family="sans-serif" font-size="14" lengthAdjust="spacing" textLength="79" x="381.5" y="478.1211">&#171;root entity&#187;</text><line style="stroke:#181818;stroke-width:0.5;" x1="376.5" x2="465.5" y1="485.6348" y2="485.6348"/></g><!--class Password--><g id="elem_Password"><rect codeLine="27" fill="#F1F1F1" height="60.582" id="Password" rx="2.5" ry="2.5" style="stroke:#181818;stroke-width:0.5;" width="111" x="219.5" y="697.0137"/><ellipse cx="234.5" cy="719.3047" fill="#F04800" rx="11" ry="11" style="stroke:#181818;stroke-width:1.0;"/><path d="M235.0938,722.5703 L237.5625,716.6953 L237.1719,716.6953 Q236.5625,716.6953 236.2969,716.4609 Q236.0313,716.2266 236.0313,715.8359 Q236.0313,715.4609 236.2969,715.2266 Q236.5625,714.9922 237.1719,714.9922 L239.4531,714.9922 Q240.0625,714.9922 240.3281,715.2266 Q240.5938,715.4609 240.5938,715.8359 Q240.5938,716.3047 240.1875,716.5703 Q240,716.6953 239.4063,716.6953 L235.9219,725.0547 L234.2813,725.0547 L230.7969,716.6953 Q230.2031,716.6953 230.0156,716.5703 Q229.6094,716.3047 229.6094,715.8359 Q229.6094,715.4609 229.875,715.2266 Q230.1406,714.9922 230.75,714.9922 L233.0469,714.9922 Q233.6563,714.9922 233.9063,715.2266 Q234.1719,715.4609 234.1719,715.8359 Q234.1719,716.2266 233.9063,716.4609 Q233.6563,716.6953 233.0469,716.6953 L232.6406,716.6953 L235.0938,722.5703 Z " fill="#000000"/><text fill="#000000" font-family="sans-serif" font-size="12" font-style="italic" lengthAdjust="spacing" textLength="83" x="246.5" y="714.9629">&#171;value Object&#187;</text><text fill="#000000" font-family="sans-serif" font-size="14" lengthAdjust="spacing" textLength="61" x="257.5" y="733.082">Password</text><line style="stroke:#181818;stroke-width:0.5;" x1="220.5" x2="329.5" y1="741.5957" y2="741.5957"/><line style="stroke:#181818;stroke-width:0.5;" x1="220.5" x2="329.5" y1="749.5957" y2="749.5957"/></g><!--class Role--><g id="elem_Role"><rect codeLine="30" fill="#F1F1F1" height="60.582" id="Role" rx="2.5" ry="2.5" style="stroke:#181818;stroke-width:0.5;" width="111" x="365.5" y="697.0137"/><ellipse cx="380.5" cy="719.3047" fill="#F04800" rx="11" ry="11" style="stroke:#181818;stroke-width:1.0;"/><path d="M381.0938,722.5703 L383.5625,716.6953 L383.1719,716.6953 Q382.5625,716.6953 382.2969,716.4609 Q382.0313,716.2266 382.0313,715.8359 Q382.0313,715.4609 382.2969,715.2266 Q382.5625,714.9922 383.1719,714.9922 L385.4531,714.9922 Q386.0625,714.9922 386.3281,715.2266 Q386.5938,715.4609 386.5938,715.8359 Q386.5938,716.3047 386.1875,716.5703 Q386,716.6953 385.4063,716.6953 L381.9219,725.0547 L380.2813,725.0547 L376.7969,716.6953 Q376.2031,716.6953 376.0156,716.5703 Q375.6094,716.3047 375.6094,715.8359 Q375.6094,715.4609 375.875,715.2266 Q376.1406,714.9922 376.75,714.9922 L379.0469,714.9922 Q379.6563,714.9922 379.9063,715.2266 Q380.1719,715.4609 380.1719,715.8359 Q380.1719,716.2266 379.9063,716.4609 Q379.6563,716.6953 379.0469,716.6953 L378.6406,716.6953 L381.0938,722.5703 Z " fill="#000000"/><text fill="#000000" font-family="sans-serif" font-size="12" font-style="italic" lengthAdjust="spacing" textLength="83" x="392.5" y="714.9629">&#171;value Object&#187;</text><text fill="#000000" font-family="sans-serif" font-size="14" lengthAdjust="spacing" textLength="29" x="419.5" y="733.082">Role</text><line style="stroke:#181818;stroke-width:0.5;" x1="366.5" x2="475.5" y1="741.5957" y2="741.5957"/><line style="stroke:#181818;stroke-width:0.5;" x1="366.5" x2="475.5" y1="749.5957" y2="749.5957"/></g><!--class Name--><g id="elem_Name"><rect codeLine="33" fill="#F1F1F1" height="60.582" id="Name" rx="2.5" ry="2.5" style="stroke:#181818;stroke-width:0.5;" width="111" x="511.5" y="697.0137"/><ellipse cx="526.5" cy="719.3047" fill="#F04800" rx="11" ry="11" style="stroke:#181818;stroke-width:1.0;"/><path d="M527.0938,722.5703 L529.5625,716.6953 L529.1719,716.6953 Q528.5625,716.6953 528.2969,716.4609 Q528.0313,716.2266 528.0313,715.8359 Q528.0313,715.4609 528.2969,715.2266 Q528.5625,714.9922 529.1719,714.9922 L531.4531,714.9922 Q532.0625,714.9922 532.3281,715.2266 Q532.5938,715.4609 532.5938,715.8359 Q532.5938,716.3047 532.1875,716.5703 Q532,716.6953 531.4063,716.6953 L527.9219,725.0547 L526.2813,725.0547 L522.7969,716.6953 Q522.2031,716.6953 522.0156,716.5703 Q521.6094,716.3047 521.6094,715.8359 Q521.6094,715.4609 521.875,715.2266 Q522.1406,714.9922 522.75,714.9922 L525.0469,714.9922 Q525.6563,714.9922 525.9063,715.2266 Q526.1719,715.4609 526.1719,715.8359 Q526.1719,716.2266 525.9063,716.4609 Q525.6563,716.6953 525.0469,716.6953 L524.6406,716.6953 L527.0938,722.5703 Z " fill="#000000"/><text fill="#000000" font-family="sans-serif" font-size="12" font-style="italic" lengthAdjust="spacing" textLength="83" x="538.5" y="714.9629">&#171;value Object&#187;</text><text fill="#000000" font-family="sans-serif" font-size="14" lengthAdjust="spacing" textLength="36" x="562" y="733.082">Name</text><line style="stroke:#181818;stroke-width:0.5;" x1="512.5" x2="621.5" y1="741.5957" y2="741.5957"/><line style="stroke:#181818;stroke-width:0.5;" x1="512.5" x2="621.5" y1="749.5957" y2="749.5957"/></g><!--class Address--><g id="elem_Address"><rect codeLine="36" fill="#F1F1F1" height="60.582" id="Address" rx="2.5" ry="2.5" style="stroke:#181818;stroke-width:0.5;" width="111" x="657.5" y="697.0137"/><ellipse cx="672.5" cy="719.3047" fill="#F04800" rx="11" ry="11" style="stroke:#181818;stroke-width:1.0;"/><path d="M673.0938,722.5703 L675.5625,716.6953 L675.1719,716.6953 Q674.5625,716.6953 674.2969,716.4609 Q674.0313,716.2266 674.0313,715.8359 Q674.0313,715.4609 674.2969,715.2266 Q674.5625,714.9922 675.1719,714.9922 L677.4531,714.9922 Q678.0625,714.9922 678.3281,715.2266 Q678.5938,715.4609 678.5938,715.8359 Q678.5938,716.3047 678.1875,716.5703 Q678,716.6953 677.4063,716.6953 L673.9219,725.0547 L672.2813,725.0547 L668.7969,716.6953 Q668.2031,716.6953 668.0156,716.5703 Q667.6094,716.3047 667.6094,715.8359 Q667.6094,715.4609 667.875,715.2266 Q668.1406,714.9922 668.75,714.9922 L671.0469,714.9922 Q671.6563,714.9922 671.9063,715.2266 Q672.1719,715.4609 672.1719,715.8359 Q672.1719,716.2266 671.9063,716.4609 Q671.6563,716.6953 671.0469,716.6953 L670.6406,716.6953 L673.0938,722.5703 Z " fill="#000000"/><text fill="#000000" font-family="sans-serif" font-size="12" font-style="italic" lengthAdjust="spacing" textLength="83" x="684.5" y="714.9629">&#171;value Object&#187;</text><text fill="#000000" font-family="sans-serif" font-size="14" lengthAdjust="spacing" textLength="52" x="700" y="733.082">Address</text><line style="stroke:#181818;stroke-width:0.5;" x1="658.5" x2="767.5" y1="741.5957" y2="741.5957"/><line style="stroke:#181818;stroke-width:0.5;" x1="658.5" x2="767.5" y1="749.5957" y2="749.5957"/></g><!--link LanguageEngineer to User--><g id="link_LanguageEngineer_User"><path codeLine="42" d="M630.43,366.0737 C613.51,376.5637 594.24,387.8437 576,397.0137 C540.22,414.9937 514.8562,425.4931 483.5062,437.1231 " fill="none" id="LanguageEngineer-to-User" style="stroke:#181818;stroke-width:1.0;"/><polygon fill="none" points="466.63,443.3837,485.593,442.7485,481.4193,431.4977,466.63,443.3837" style="stroke:#181818;stroke-width:1.0;"/></g><!--link User to EmailAddress--><g id="link_User_EmailAddress"><path codeLine="43" d="M375.6,494.2637 C342.2,518.7737 296,553.5237 257,586.0137 C212.92,622.7237 164.39,667.8337 133.82,696.8737 " fill="none" id="User-EmailAddress" style="stroke:#181818;stroke-width:1.0;"/><polygon fill="#000000" points="265.8323,592.4477,257.012,596.0047,260.7872,600.5099,265.8323,592.4477" style="stroke:#000000;stroke-width:1.0;"/><text fill="#000000" font-family="sans-serif" font-size="13" lengthAdjust="spacing" textLength="51" x="271" y="601.042">identifies</text><text fill="#000000" font-family="sans-serif" font-size="13" lengthAdjust="spacing" textLength="7" x="360.5009" y="495.5295">1</text><text fill="#000000" font-family="sans-serif" font-size="13" lengthAdjust="spacing" textLength="7" x="132.4548" y="685.9025">1</text></g><!--link User to Address--><g id="link_User_Address"><path codeLine="44" d="M466.55,492.0337 C501.01,515.9637 548.75,550.9737 587,586.0137 C625.66,621.4237 665.21,667.4537 689.44,696.9937 " fill="none" id="User-Address" style="stroke:#181818;stroke-width:1.0;"/><polygon fill="#000000" points="607.3195,592.2748,611.9883,600.5605,615.9669,596.2339,607.3195,592.2748" style="stroke:#000000;stroke-width:1.0;"/><text fill="#000000" font-family="sans-serif" font-size="13" lengthAdjust="spacing" textLength="56" x="620" y="601.042">describes</text><text fill="#000000" font-family="sans-serif" font-size="13" lengthAdjust="spacing" textLength="7" x="474.3673" y="492.7842">1</text><text fill="#000000" font-family="sans-serif" font-size="13" lengthAdjust="spacing" textLength="7" x="676.5206" y="685.5639">1</text></g><!--link User to Role--><g id="link_User_Role"><path codeLine="45" d="M421,494.2737 C421,546.2037 421,646.6437 421,696.6837 " fill="none" id="User-Role" style="stroke:#181818;stroke-width:1.0;"/><polygon fill="#000000" points="426,590.6592,423.0611,599.7043,428.9389,599.7043,426,590.6592" style="stroke:#000000;stroke-width:1.0;"/><text fill="#000000" font-family="sans-serif" font-size="13" lengthAdjust="spacing" textLength="54" x="435" y="601.042">classifies</text><text fill="#000000" font-family="sans-serif" font-size="13" lengthAdjust="spacing" textLength="7" x="413.3984" y="515.623">1</text><text fill="#000000" font-family="sans-serif" font-size="13" lengthAdjust="spacing" textLength="7" x="413.2781" y="685.6733">1</text></g><!--link User to Name--><g id="link_User_Name"><path codeLine="46" d="M442.31,494.0237 C458.29,518.8437 480.35,554.1037 498,586.0137 C518.71,623.4637 540.06,668.0137 553.42,696.7537 " fill="none" id="User-Name" style="stroke:#181818;stroke-width:1.0;"/><polygon fill="#000000" points="510.5969,591.2745,512.3669,600.6189,517.5214,597.7939,510.5969,591.2745" style="stroke:#000000;stroke-width:1.0;"/><text fill="#000000" font-family="sans-serif" font-size="13" lengthAdjust="spacing" textLength="56" x="522" y="601.042">describes</text><text fill="#000000" font-family="sans-serif" font-size="13" lengthAdjust="spacing" textLength="7" x="438.4824" y="515.5947">1</text><text fill="#000000" font-family="sans-serif" font-size="13" lengthAdjust="spacing" textLength="7" x="542.8973" y="685.7577">1</text></g><!--link Admin to User--><g id="link_Admin_User"><path codeLine="47" d="M566.93,110.3137 C565.99,143.3437 562.09,195.3837 548,238.0137 C524.07,310.4037 485.4356,370.8689 455.7856,412.3589 " fill="none" id="Admin-to-User" style="stroke:#181818;stroke-width:1.0;"/><polygon fill="none" points="445.32,427.0037,460.6672,415.8474,450.904,408.8703,445.32,427.0037" style="stroke:#181818;stroke-width:1.0;"/></g><!--link CustomerManager to User--><g id="link_CustomerManager_User"><path codeLine="48" d="M451.5,238.2037 C444.78,286.9737 434.6569,360.4221 427.9469,409.1221 " fill="none" id="CustomerManager-to-User" style="stroke:#181818;stroke-width:1.0;"/><polygon fill="none" points="425.49,426.9537,433.8907,409.9411,422.003,408.3032,425.49,426.9537" style="stroke:#181818;stroke-width:1.0;"/></g><!--link User to Password--><g id="link_User_Password"><path codeLine="49" d="M398.77,494.1437 C382.29,518.8837 359.72,553.9837 342,586.0137 C321.34,623.3737 300.66,668.1437 287.85,696.9337 " fill="none" id="User-Password" style="stroke:#181818;stroke-width:1.0;"/><polygon fill="#000000" points="349.3994,591.2725,342.4804,597.7978,347.6373,600.6184,349.3994,591.2725" style="stroke:#000000;stroke-width:1.0;"/><text fill="#000000" font-family="sans-serif" font-size="13" lengthAdjust="spacing" textLength="56" x="356" y="601.042">describes</text><text fill="#000000" font-family="sans-serif" font-size="13" lengthAdjust="spacing" textLength="7" x="387.1868" y="515.7361">1</text><text fill="#000000" font-family="sans-serif" font-size="13" lengthAdjust="spacing" textLength="7" x="282.7784" y="685.9749">1</text></g><!--link Operator to User--><g id="link_Operator_User"><path codeLine="50" d="M347.58,110.2937 C350.46,142.8637 355.8,194.1637 364,238.0137 C376.7,305.9237 393.3882,366.5859 406.0282,409.5359 " fill="none" id="Operator-to-User" style="stroke:#181818;stroke-width:1.0;"/><polygon fill="none" points="411.11,426.8037,411.7841,407.842,400.2723,411.2299,411.11,426.8037" style="stroke:#181818;stroke-width:1.0;"/></g><!--link Customer to User--><g id="link_Customer_User"><path codeLine="51" d="M298.81,366.0437 C310.54,376.1537 323.68,387.2137 336,397.0137 C348.47,406.9337 347.7819,406.6693 360.5819,416.0693 " fill="none" id="Customer-to-User" style="stroke:#181818;stroke-width:1.0;"/><polygon fill="none" points="375.09,426.7237,364.1334,411.2333,357.0305,420.9053,375.09,426.7237" style="stroke:#181818;stroke-width:1.0;"/></g><!--link Candidate to User--><g id="link_Candidate_User"><path codeLine="52" d="M180.86,357.9837 C186.61,360.7437 192.42,363.4737 198,366.0137 C258.75,393.6737 313.3681,416.3072 358.6881,434.5972 " fill="none" id="Candidate-to-User" style="stroke:#181818;stroke-width:1.0;"/><polygon fill="none" points="375.38,441.3337,360.9336,429.0333,356.4426,440.1612,375.38,441.3337" style="stroke:#181818;stroke-width:1.0;"/></g><!--SRC=[bL9RJuCm57xdLpJpGKt4OUA3BeI4B3oOg3Cc-dv6psgLjgGKZPd-Tql7PI0ZIWY5q-_2-NgENup9YyLydcSWJIcoyrI9UPf1KVYK0zCWF2-7z0qOagS2TSoOHWO6jruY3JUVv1OaA-rs8XcNY9fiFL9VOOWE4qMkzDrGOYguh75xc7P_MHP62THt8Asmda2kSjHWbFw3s1G49ENKDZM6gGek4988u5bCgKRx4OOdpsT7c-0w289JSaChnePRctV8IYIhzIkc9eh8TgTGErKHzWBIIXaoICajIsVvO1yVIjFMxlAgiXjwU3Mp8pwg3CaaQuHq3mB_xJGCP8fNzsVlNrFZ-r-HYyTp6SqkPhRa- -wb5_o2y2PiQpg2xe0KYrJpzG6SYsYnEzl3QYwJljHkV1sa-UVXnFfJxRI7sfTjPtbCU2-VRbgxsWy0]--></g></svg>