<?xml version="1.0" encoding="us-ascii" standalone="no"?><svg xmlns="http://www.w3.org/2000/svg" xmlns:xlink="http://www.w3.org/1999/xlink" contentStyleType="text/css" height="452px" preserveAspectRatio="none" style="width:744px;height:452px;background:#FFFFFF;" version="1.1" viewBox="0 0 744 452" width="744px" zoomAndPan="magnify"><defs/><g><rect fill="#FFFFFF" height="404.8076" style="stroke:#181818;stroke-width:0.5;" width="5" x="16.25" y="24.3105"/><rect fill="#FFFFFF" height="78.2275" style="stroke:#181818;stroke-width:0.5;" width="5" x="75.25" y="35.9561"/><rect fill="#FFFFFF" height="50.9365" style="stroke:#181818;stroke-width:0.5;" width="5" x="75.25" y="161.1201"/><rect fill="#FFFFFF" height="46.1064" style="stroke:#181818;stroke-width:0.5;" width="5" x="75.25" y="290.2842"/><rect fill="#FFFFFF" height="41.291" style="stroke:#181818;stroke-width:0.5;" width="5" x="75.25" y="383.3271"/><rect fill="#FFFFFF" height="15.6455" style="stroke:#181818;stroke-width:0.5;" width="5" x="238.25" y="51.6016"/><rect fill="#FFFFFF" height="15.6455" style="stroke:#181818;stroke-width:0.5;" width="5" x="238.25" y="114.1836"/><rect fill="#FFFFFF" height="15.6455" style="stroke:#181818;stroke-width:0.5;" width="5" x="238.25" y="145.4746"/><rect fill="#FFFFFF" height="15.6455" style="stroke:#181818;stroke-width:0.5;" width="5" x="238.25" y="212.0566"/><rect fill="#FFFFFF" height="15.6455" style="stroke:#181818;stroke-width:0.5;" width="5" x="238.25" y="243.3477"/><rect fill="#FFFFFF" height="15.6455" style="stroke:#181818;stroke-width:0.5;" width="5" x="238.25" y="274.6387"/><rect fill="#FFFFFF" height="15.6455" style="stroke:#181818;stroke-width:0.5;" width="5" x="238.25" y="336.3906"/><rect fill="#FFFFFF" height="15.6455" style="stroke:#181818;stroke-width:0.5;" width="5" x="238.25" y="367.6816"/><rect fill="#FFFFFF" height="15.6455" style="stroke:#181818;stroke-width:0.5;" width="5" x="316.75" y="67.2471"/><rect fill="#FFFFFF" height="15.6455" style="stroke:#181818;stroke-width:0.5;" width="5" x="388.25" y="82.8926"/><rect fill="#FFFFFF" height="15.6455" style="stroke:#181818;stroke-width:0.5;" width="5" x="457.25" y="129.8291"/><rect fill="#FFFFFF" height="15.6455" style="stroke:#181818;stroke-width:0.5;" width="5" x="540.5" y="227.7021"/><rect fill="#FFFFFF" height="15.6455" style="stroke:#181818;stroke-width:0.5;" width="5" x="635.25" y="258.9932"/><rect fill="#FFFFFF" height="15.6455" style="stroke:#181818;stroke-width:0.5;" width="5" x="635.25" y="352.0361"/><rect fill="none" height="218.707" style="stroke:#000000;stroke-width:0.75;" width="640" x="45.75" y="190.7656"/><line style="stroke:#181818;stroke-width:0.25;stroke-dasharray:5.0,5.0;" x1="18.5" x2="18.5" y1="19.3105" y2="433.6182"/><line style="stroke:#181818;stroke-width:0.25;stroke-dasharray:5.0,5.0;" x1="77.75" x2="77.75" y1="19.3105" y2="433.6182"/><line style="stroke:#181818;stroke-width:0.25;stroke-dasharray:5.0,5.0;" x1="240.75" x2="240.75" y1="19.3105" y2="433.6182"/><line style="stroke:#181818;stroke-width:0.25;stroke-dasharray:5.0,5.0;" x1="319.25" x2="319.25" y1="19.3105" y2="433.6182"/><line style="stroke:#181818;stroke-width:0.25;stroke-dasharray:5.0,5.0;" x1="390.75" x2="390.75" y1="19.3105" y2="433.6182"/><line style="stroke:#181818;stroke-width:0.25;stroke-dasharray:5.0,5.0;" x1="459.75" x2="459.75" y1="19.3105" y2="433.6182"/><line style="stroke:#181818;stroke-width:0.25;stroke-dasharray:5.0,5.0;" x1="542.75" x2="542.75" y1="19.3105" y2="433.6182"/><line style="stroke:#181818;stroke-width:0.25;stroke-dasharray:5.0,5.0;" x1="637.75" x2="637.75" y1="19.3105" y2="433.6182"/><line style="stroke:#181818;stroke-width:0.25;stroke-dasharray:5.0,5.0;" x1="713.25" x2="713.25" y1="19.3105" y2="433.6182"/><rect fill="#E2E2F0" height="16.3105" rx="1.25" ry="1.25" style="stroke:#181818;stroke-width:0.25;" width="32.5" x="2.5" y="2.5"/><text fill="#000000" font-family="sans-serif" font-size="7" lengthAdjust="spacing" textLength="25.5" x="6" y="13.5537">AdminUI</text><rect fill="#E2E2F0" height="16.3105" rx="1.25" ry="1.25" style="stroke:#181818;stroke-width:0.25;" width="32.5" x="2.5" y="433.1182"/><text fill="#000000" font-family="sans-serif" font-size="7" lengthAdjust="spacing" textLength="25.5" x="6" y="444.1719">AdminUI</text><rect fill="#E2E2F0" height="16.3105" rx="1.25" ry="1.25" style="stroke:#181818;stroke-width:0.25;" width="54" x="50.75" y="2.5"/><text fill="#000000" font-family="sans-serif" font-size="7" lengthAdjust="spacing" textLength="47" x="54.25" y="13.5537">RegisterUserUI</text><rect fill="#E2E2F0" height="16.3105" rx="1.25" ry="1.25" style="stroke:#181818;stroke-width:0.25;" width="54" x="50.75" y="433.1182"/><text fill="#000000" font-family="sans-serif" font-size="7" lengthAdjust="spacing" textLength="47" x="54.25" y="444.1719">RegisterUserUI</text><rect fill="#E2E2F0" height="16.3105" rx="1.25" ry="1.25" style="stroke:#181818;stroke-width:0.25;" width="79" x="201.25" y="2.5"/><text fill="#000000" font-family="sans-serif" font-size="7" lengthAdjust="spacing" textLength="72" x="204.75" y="13.5537">RegisterUserController</text><rect fill="#E2E2F0" height="16.3105" rx="1.25" ry="1.25" style="stroke:#181818;stroke-width:0.25;" width="79" x="201.25" y="433.1182"/><text fill="#000000" font-family="sans-serif" font-size="7" lengthAdjust="spacing" textLength="72" x="204.75" y="444.1719">RegisterUserController</text><rect fill="#E2E2F0" height="16.3105" rx="1.25" ry="1.25" style="stroke:#181818;stroke-width:0.25;" width="68" x="285.25" y="2.5"/><text fill="#000000" font-family="sans-serif" font-size="7" lengthAdjust="spacing" textLength="61" x="288.75" y="13.5537">PersistenceContext</text><rect fill="#E2E2F0" height="16.3105" rx="1.25" ry="1.25" style="stroke:#181818;stroke-width:0.25;" width="68" x="285.25" y="433.1182"/><text fill="#000000" font-family="sans-serif" font-size="7" lengthAdjust="spacing" textLength="61" x="288.75" y="444.1719">PersistenceContext</text><rect fill="#E2E2F0" height="16.3105" rx="1.25" ry="1.25" style="stroke:#181818;stroke-width:0.25;" width="65" x="358.25" y="2.5"/><text fill="#000000" font-family="sans-serif" font-size="7" lengthAdjust="spacing" textLength="58" x="361.75" y="13.5537">RepositoryFactory</text><rect fill="#E2E2F0" height="16.3105" rx="1.25" ry="1.25" style="stroke:#181818;stroke-width:0.25;" width="65" x="358.25" y="433.1182"/><text fill="#000000" font-family="sans-serif" font-size="7" lengthAdjust="spacing" textLength="58" x="361.75" y="444.1719">RepositoryFactory</text><rect fill="#E2E2F0" height="16.3105" rx="1.25" ry="1.25" style="stroke:#181818;stroke-width:0.25;" width="63" x="428.25" y="2.5"/><text fill="#000000" font-family="sans-serif" font-size="7" lengthAdjust="spacing" textLength="56" x="431.75" y="13.5537">ListRolesServices</text><rect fill="#E2E2F0" height="16.3105" rx="1.25" ry="1.25" style="stroke:#181818;stroke-width:0.25;" width="63" x="428.25" y="433.1182"/><text fill="#000000" font-family="sans-serif" font-size="7" lengthAdjust="spacing" textLength="56" x="431.75" y="444.1719">ListRolesServices</text><rect fill="#E2E2F0" height="16.3105" rx="1.25" ry="1.25" style="stroke:#181818;stroke-width:0.25;" width="93.5" x="496.25" y="2.5"/><text fill="#000000" font-family="sans-serif" font-size="7" lengthAdjust="spacing" textLength="86.5" x="499.75" y="13.5537">PasswordGeneratorService</text><rect fill="#E2E2F0" height="16.3105" rx="1.25" ry="1.25" style="stroke:#181818;stroke-width:0.25;" width="93.5" x="496.25" y="433.1182"/><text fill="#000000" font-family="sans-serif" font-size="7" lengthAdjust="spacing" textLength="86.5" x="499.75" y="444.1719">PasswordGeneratorService</text><rect fill="#E2E2F0" height="16.3105" rx="1.25" ry="1.25" style="stroke:#181818;stroke-width:0.25;" width="86" x="594.75" y="2.5"/><text fill="#000000" font-family="sans-serif" font-size="7" lengthAdjust="spacing" textLength="79" x="598.25" y="13.5537">UserManagementService</text><rect fill="#E2E2F0" height="16.3105" rx="1.25" ry="1.25" style="stroke:#181818;stroke-width:0.25;" width="86" x="594.75" y="433.1182"/><text fill="#000000" font-family="sans-serif" font-size="7" lengthAdjust="spacing" textLength="79" x="598.25" y="444.1719">UserManagementService</text><rect fill="#E2E2F0" height="16.3105" rx="1.25" ry="1.25" style="stroke:#181818;stroke-width:0.25;" width="55.5" x="685.75" y="2.5"/><text fill="#000000" font-family="sans-serif" font-size="7" lengthAdjust="spacing" textLength="48.5" x="689.25" y="13.5537">UserRepository</text><rect fill="#E2E2F0" height="16.3105" rx="1.25" ry="1.25" style="stroke:#181818;stroke-width:0.25;" width="55.5" x="685.75" y="433.1182"/><text fill="#000000" font-family="sans-serif" font-size="7" lengthAdjust="spacing" textLength="48.5" x="689.25" y="444.1719">UserRepository</text><rect fill="#FFFFFF" height="404.8076" style="stroke:#181818;stroke-width:0.5;" width="5" x="16.25" y="24.3105"/><rect fill="#FFFFFF" height="78.2275" style="stroke:#181818;stroke-width:0.5;" width="5" x="75.25" y="35.9561"/><rect fill="#FFFFFF" height="50.9365" style="stroke:#181818;stroke-width:0.5;" width="5" x="75.25" y="161.1201"/><rect fill="#FFFFFF" height="46.1064" style="stroke:#181818;stroke-width:0.5;" width="5" x="75.25" y="290.2842"/><rect fill="#FFFFFF" height="41.291" style="stroke:#181818;stroke-width:0.5;" width="5" x="75.25" y="383.3271"/><rect fill="#FFFFFF" height="15.6455" style="stroke:#181818;stroke-width:0.5;" width="5" x="238.25" y="51.6016"/><rect fill="#FFFFFF" height="15.6455" style="stroke:#181818;stroke-width:0.5;" width="5" x="238.25" y="114.1836"/><rect fill="#FFFFFF" height="15.6455" style="stroke:#181818;stroke-width:0.5;" width="5" x="238.25" y="145.4746"/><rect fill="#FFFFFF" height="15.6455" style="stroke:#181818;stroke-width:0.5;" width="5" x="238.25" y="212.0566"/><rect fill="#FFFFFF" height="15.6455" style="stroke:#181818;stroke-width:0.5;" width="5" x="238.25" y="243.3477"/><rect fill="#FFFFFF" height="15.6455" style="stroke:#181818;stroke-width:0.5;" width="5" x="238.25" y="274.6387"/><rect fill="#FFFFFF" height="15.6455" style="stroke:#181818;stroke-width:0.5;" width="5" x="238.25" y="336.3906"/><rect fill="#FFFFFF" height="15.6455" style="stroke:#181818;stroke-width:0.5;" width="5" x="238.25" y="367.6816"/><rect fill="#FFFFFF" height="15.6455" style="stroke:#181818;stroke-width:0.5;" width="5" x="316.75" y="67.2471"/><rect fill="#FFFFFF" height="15.6455" style="stroke:#181818;stroke-width:0.5;" width="5" x="388.25" y="82.8926"/><rect fill="#FFFFFF" height="15.6455" style="stroke:#181818;stroke-width:0.5;" width="5" x="457.25" y="129.8291"/><rect fill="#FFFFFF" height="15.6455" style="stroke:#181818;stroke-width:0.5;" width="5" x="540.5" y="227.7021"/><rect fill="#FFFFFF" height="15.6455" style="stroke:#181818;stroke-width:0.5;" width="5" x="635.25" y="258.9932"/><rect fill="#FFFFFF" height="15.6455" style="stroke:#181818;stroke-width:0.5;" width="5" x="635.25" y="352.0361"/><polygon fill="#181818" points="69.25,33.9561,74.25,35.9561,69.25,37.9561,71.25,35.9561" style="stroke:#181818;stroke-width:0.5;"/><line style="stroke:#181818;stroke-width:0.5;" x1="21.25" x2="72.25" y1="35.9561" y2="35.9561"/><text fill="#000000" font-family="sans-serif" font-size="6.5" font-weight="bold" lengthAdjust="spacing" textLength="3.5" x="24.75" y="33.3247">1</text><text fill="#000000" font-family="sans-serif" font-size="6.5" lengthAdjust="spacing" textLength="39" x="30.25" y="33.3247">registerUser()</text><polygon fill="#181818" points="232.25,49.6016,237.25,51.6016,232.25,53.6016,234.25,51.6016" style="stroke:#181818;stroke-width:0.5;"/><line style="stroke:#181818;stroke-width:0.5;" x1="80.25" x2="235.25" y1="51.6016" y2="51.6016"/><text fill="#000000" font-family="sans-serif" font-size="6.5" font-weight="bold" lengthAdjust="spacing" textLength="3.5" x="83.75" y="48.9702">2</text><text fill="#000000" font-family="sans-serif" font-size="6.5" lengthAdjust="spacing" textLength="22" x="89.25" y="48.9702">create()</text><polygon fill="#181818" points="310.75,65.2471,315.75,67.2471,310.75,69.2471,312.75,67.2471" style="stroke:#181818;stroke-width:0.5;"/><line style="stroke:#181818;stroke-width:0.5;" x1="240.75" x2="313.75" y1="67.2471" y2="67.2471"/><text fill="#000000" font-family="sans-serif" font-size="6.5" font-weight="bold" lengthAdjust="spacing" textLength="3.5" x="244.25" y="64.6157">3</text><text fill="#000000" font-family="sans-serif" font-size="6.5" lengthAdjust="spacing" textLength="37.5" x="249.75" y="64.6157">repositories()</text><polygon fill="#181818" points="382.25,80.8926,387.25,82.8926,382.25,84.8926,384.25,82.8926" style="stroke:#181818;stroke-width:0.5;"/><line style="stroke:#181818;stroke-width:0.5;" x1="319.25" x2="385.25" y1="82.8926" y2="82.8926"/><text fill="#000000" font-family="sans-serif" font-size="6.5" font-weight="bold" lengthAdjust="spacing" textLength="3.5" x="322.75" y="80.2612">4</text><text fill="#000000" font-family="sans-serif" font-size="6.5" lengthAdjust="spacing" textLength="22" x="328.25" y="80.2612">create()</text><polygon fill="#181818" points="707.5,96.5381,712.5,98.5381,707.5,100.5381,709.5,98.5381" style="stroke:#181818;stroke-width:0.5;"/><line style="stroke:#181818;stroke-width:0.5;" x1="390.75" x2="710.5" y1="98.5381" y2="98.5381"/><text fill="#000000" font-family="sans-serif" font-size="6.5" font-weight="bold" lengthAdjust="spacing" textLength="3.5" x="394.25" y="95.9067">5</text><text fill="#000000" font-family="sans-serif" font-size="6.5" lengthAdjust="spacing" textLength="22" x="399.75" y="95.9067">create()</text><polygon fill="#181818" points="232.25,112.1836,237.25,114.1836,232.25,116.1836,234.25,114.1836" style="stroke:#181818;stroke-width:0.5;"/><line style="stroke:#181818;stroke-width:0.5;" x1="77.75" x2="235.25" y1="114.1836" y2="114.1836"/><text fill="#000000" font-family="sans-serif" font-size="6.5" font-weight="bold" lengthAdjust="spacing" textLength="3.5" x="81.25" y="111.5522">6</text><text fill="#000000" font-family="sans-serif" font-size="6.5" lengthAdjust="spacing" textLength="29.5" x="86.75" y="111.5522">getRoles()</text><polygon fill="#181818" points="451.25,127.8291,456.25,129.8291,451.25,131.8291,453.25,129.8291" style="stroke:#181818;stroke-width:0.5;"/><line style="stroke:#181818;stroke-width:0.5;" x1="240.75" x2="454.25" y1="129.8291" y2="129.8291"/><text fill="#000000" font-family="sans-serif" font-size="6.5" font-weight="bold" lengthAdjust="spacing" textLength="3.5" x="244.25" y="127.1978">7</text><text fill="#000000" font-family="sans-serif" font-size="6.5" lengthAdjust="spacing" textLength="29.5" x="249.75" y="127.1978">getRoles()</text><polygon fill="#181818" points="248.75,143.4746,243.75,145.4746,248.75,147.4746,246.75,145.4746" style="stroke:#181818;stroke-width:0.5;"/><line style="stroke:#181818;stroke-width:0.5;stroke-dasharray:2.0,2.0;" x1="245.75" x2="459.25" y1="145.4746" y2="145.4746"/><text fill="#000000" font-family="sans-serif" font-size="6.5" font-weight="bold" lengthAdjust="spacing" textLength="3.5" x="251.75" y="142.8433">8</text><text fill="#000000" font-family="sans-serif" font-size="6.5" lengthAdjust="spacing" textLength="14" x="257.25" y="142.8433">roles</text><polygon fill="#181818" points="85.75,159.1201,80.75,161.1201,85.75,163.1201,83.75,161.1201" style="stroke:#181818;stroke-width:0.5;"/><line style="stroke:#181818;stroke-width:0.5;stroke-dasharray:2.0,2.0;" x1="82.75" x2="240.25" y1="161.1201" y2="161.1201"/><text fill="#000000" font-family="sans-serif" font-size="6.5" font-weight="bold" lengthAdjust="spacing" textLength="3.5" x="88.75" y="158.4888">9</text><text fill="#000000" font-family="sans-serif" font-size="6.5" lengthAdjust="spacing" textLength="2" x="94.25" y="158.4888">&#160;</text><line style="stroke:#181818;stroke-width:0.5;" x1="80.25" x2="101.25" y1="176.7656" y2="176.7656"/><line style="stroke:#181818;stroke-width:0.5;" x1="101.25" x2="101.25" y1="176.7656" y2="183.2656"/><line style="stroke:#181818;stroke-width:0.5;" x1="80.75" x2="101.25" y1="183.2656" y2="183.2656"/><polygon fill="#181818" points="85.75,181.2656,80.75,183.2656,85.75,185.2656,83.75,183.2656" style="stroke:#181818;stroke-width:0.5;"/><text fill="#000000" font-family="sans-serif" font-size="6.5" font-weight="bold" lengthAdjust="spacing" textLength="7" x="83.75" y="174.1343">10</text><text fill="#000000" font-family="sans-serif" font-size="6.5" lengthAdjust="spacing" textLength="27" x="92.75" y="174.1343">doShow()</text><path d="M45.75,190.7656 L76.25,190.7656 L76.25,195.4111 L71.25,200.4111 L45.75,200.4111 L45.75,190.7656 " fill="#EEEEEE" style="stroke:#000000;stroke-width:0.75;"/><rect fill="none" height="218.707" style="stroke:#000000;stroke-width:0.75;" width="640" x="45.75" y="190.7656"/><text fill="#000000" font-family="sans-serif" font-size="6.5" font-weight="bold" lengthAdjust="spacing" textLength="8" x="53.25" y="198.2798">alt</text><text fill="#000000" font-family="sans-serif" font-size="5.5" font-weight="bold" lengthAdjust="spacing" textLength="128.5" x="83.75" y="197.7007">[if automatic generation chosen for password]</text><polygon fill="#181818" points="232.25,210.0566,237.25,212.0566,232.25,214.0566,234.25,212.0566" style="stroke:#181818;stroke-width:0.5;"/><line style="stroke:#181818;stroke-width:0.5;" x1="77.75" x2="235.25" y1="212.0566" y2="212.0566"/><text fill="#000000" font-family="sans-serif" font-size="6.5" font-weight="bold" lengthAdjust="spacing" textLength="7" x="81.25" y="209.4253">11</text><text fill="#000000" font-family="sans-serif" font-size="6.5" lengthAdjust="spacing" textLength="116" x="90.25" y="209.4253">registerUser(email, role, name, address)</text><polygon fill="#181818" points="534.5,225.7021,539.5,227.7021,534.5,229.7021,536.5,227.7021" style="stroke:#181818;stroke-width:0.5;"/><line style="stroke:#181818;stroke-width:0.5;" x1="240.75" x2="537.5" y1="227.7021" y2="227.7021"/><text fill="#000000" font-family="sans-serif" font-size="6.5" font-weight="bold" lengthAdjust="spacing" textLength="7" x="244.25" y="225.0708">12</text><text fill="#000000" font-family="sans-serif" font-size="6.5" lengthAdjust="spacing" textLength="41.5" x="253.25" y="225.0708">getPassword()</text><polygon fill="#181818" points="248.75,241.3477,243.75,243.3477,248.75,245.3477,246.75,243.3477" style="stroke:#181818;stroke-width:0.5;"/><line style="stroke:#181818;stroke-width:0.5;stroke-dasharray:2.0,2.0;" x1="245.75" x2="542.5" y1="243.3477" y2="243.3477"/><text fill="#000000" font-family="sans-serif" font-size="6.5" font-weight="bold" lengthAdjust="spacing" textLength="7" x="251.75" y="240.7163">13</text><text fill="#000000" font-family="sans-serif" font-size="6.5" lengthAdjust="spacing" textLength="27.5" x="260.75" y="240.7163">password</text><polygon fill="#181818" points="629.25,256.9932,634.25,258.9932,629.25,260.9932,631.25,258.9932" style="stroke:#181818;stroke-width:0.5;"/><line style="stroke:#181818;stroke-width:0.5;" x1="240.75" x2="632.25" y1="258.9932" y2="258.9932"/><text fill="#000000" font-family="sans-serif" font-size="6.5" font-weight="bold" lengthAdjust="spacing" textLength="7" x="244.25" y="256.3618">14</text><text fill="#000000" font-family="sans-serif" font-size="6.5" lengthAdjust="spacing" textLength="180" x="253.25" y="256.3618">addUser(email, password, name, emailAddress, address, role)</text><polygon fill="#181818" points="248.75,272.6387,243.75,274.6387,248.75,276.6387,246.75,274.6387" style="stroke:#181818;stroke-width:0.5;"/><line style="stroke:#181818;stroke-width:0.5;stroke-dasharray:2.0,2.0;" x1="245.75" x2="637.25" y1="274.6387" y2="274.6387"/><text fill="#000000" font-family="sans-serif" font-size="6.5" font-weight="bold" lengthAdjust="spacing" textLength="7" x="251.75" y="272.0073">15</text><text fill="#000000" font-family="sans-serif" font-size="6.5" lengthAdjust="spacing" textLength="12.5" x="260.75" y="272.0073">user</text><polygon fill="#181818" points="85.75,288.2842,80.75,290.2842,85.75,292.2842,83.75,290.2842" style="stroke:#181818;stroke-width:0.5;"/><line style="stroke:#181818;stroke-width:0.5;stroke-dasharray:2.0,2.0;" x1="82.75" x2="240.25" y1="290.2842" y2="290.2842"/><text fill="#000000" font-family="sans-serif" font-size="6.5" font-weight="bold" lengthAdjust="spacing" textLength="7" x="88.75" y="287.6528">16</text><text fill="#000000" font-family="sans-serif" font-size="6.5" lengthAdjust="spacing" textLength="12.5" x="97.75" y="287.6528">user</text><line style="stroke:#181818;stroke-width:0.5;" x1="80.25" x2="101.25" y1="305.9297" y2="305.9297"/><line style="stroke:#181818;stroke-width:0.5;" x1="101.25" x2="101.25" y1="305.9297" y2="312.4297"/><line style="stroke:#181818;stroke-width:0.5;" x1="80.75" x2="101.25" y1="312.4297" y2="312.4297"/><polygon fill="#181818" points="85.75,310.4297,80.75,312.4297,85.75,314.4297,83.75,312.4297" style="stroke:#181818;stroke-width:0.5;"/><text fill="#000000" font-family="sans-serif" font-size="6.5" font-weight="bold" lengthAdjust="spacing" textLength="7" x="83.75" y="303.2983">17</text><text fill="#000000" font-family="sans-serif" font-size="6.5" lengthAdjust="spacing" textLength="27" x="92.75" y="303.2983">doShow()</text><line style="stroke:#000000;stroke-width:0.5;stroke-dasharray:2.0,2.0;" x1="45.75" x2="685.75" y1="316.9297" y2="316.9297"/><text fill="#000000" font-family="sans-serif" font-size="5.5" font-weight="bold" lengthAdjust="spacing" textLength="128" x="48.25" y="322.8647">[if manual generation is chosen for password]</text><polygon fill="#181818" points="232.25,334.3906,237.25,336.3906,232.25,338.3906,234.25,336.3906" style="stroke:#181818;stroke-width:0.5;"/><line style="stroke:#181818;stroke-width:0.5;" x1="77.75" x2="235.25" y1="336.3906" y2="336.3906"/><text fill="#000000" font-family="sans-serif" font-size="6.5" font-weight="bold" lengthAdjust="spacing" textLength="7" x="81.25" y="333.7593">18</text><text fill="#000000" font-family="sans-serif" font-size="6.5" lengthAdjust="spacing" textLength="139.5" x="90.25" y="333.7593">registerUser(email,role,name,address,password)</text><polygon fill="#181818" points="629.25,350.0361,634.25,352.0361,629.25,354.0361,631.25,352.0361" style="stroke:#181818;stroke-width:0.5;"/><line style="stroke:#181818;stroke-width:0.5;" x1="240.75" x2="632.25" y1="352.0361" y2="352.0361"/><text fill="#000000" font-family="sans-serif" font-size="6.5" font-weight="bold" lengthAdjust="spacing" textLength="7" x="244.25" y="349.4048">19</text><text fill="#000000" font-family="sans-serif" font-size="6.5" lengthAdjust="spacing" textLength="180" x="253.25" y="349.4048">addUser(email, password, name, emailAddress, address, role)</text><polygon fill="#181818" points="248.75,365.6816,243.75,367.6816,248.75,369.6816,246.75,367.6816" style="stroke:#181818;stroke-width:0.5;"/><line style="stroke:#181818;stroke-width:0.5;stroke-dasharray:2.0,2.0;" x1="245.75" x2="637.25" y1="367.6816" y2="367.6816"/><text fill="#000000" font-family="sans-serif" font-size="6.5" font-weight="bold" lengthAdjust="spacing" textLength="7" x="251.75" y="365.0503">20</text><text fill="#000000" font-family="sans-serif" font-size="6.5" lengthAdjust="spacing" textLength="12.5" x="260.75" y="365.0503">user</text><polygon fill="#181818" points="85.75,381.3271,80.75,383.3271,85.75,385.3271,83.75,383.3271" style="stroke:#181818;stroke-width:0.5;"/><line style="stroke:#181818;stroke-width:0.5;stroke-dasharray:2.0,2.0;" x1="82.75" x2="240.25" y1="383.3271" y2="383.3271"/><text fill="#000000" font-family="sans-serif" font-size="6.5" font-weight="bold" lengthAdjust="spacing" textLength="7" x="88.75" y="380.6958">21</text><text fill="#000000" font-family="sans-serif" font-size="6.5" lengthAdjust="spacing" textLength="2" x="97.75" y="380.6958">&#160;</text><line style="stroke:#181818;stroke-width:0.5;" x1="80.25" x2="101.25" y1="398.9727" y2="398.9727"/><line style="stroke:#181818;stroke-width:0.5;" x1="101.25" x2="101.25" y1="398.9727" y2="405.4727"/><line style="stroke:#181818;stroke-width:0.5;" x1="80.75" x2="101.25" y1="405.4727" y2="405.4727"/><polygon fill="#181818" points="85.75,403.4727,80.75,405.4727,85.75,407.4727,83.75,405.4727" style="stroke:#181818;stroke-width:0.5;"/><text fill="#000000" font-family="sans-serif" font-size="6.5" font-weight="bold" lengthAdjust="spacing" textLength="7" x="83.75" y="396.3413">22</text><text fill="#000000" font-family="sans-serif" font-size="6.5" lengthAdjust="spacing" textLength="27" x="92.75" y="396.3413">doShow()</text><polygon fill="#181818" points="26.75,422.6182,21.75,424.6182,26.75,426.6182,24.75,424.6182" style="stroke:#181818;stroke-width:0.5;"/><line style="stroke:#181818;stroke-width:0.5;stroke-dasharray:2.0,2.0;" x1="23.75" x2="77.25" y1="424.6182" y2="424.6182"/><text fill="#000000" font-family="sans-serif" font-size="6.5" font-weight="bold" lengthAdjust="spacing" textLength="7" x="29.75" y="421.9868">23</text><text fill="#000000" font-family="sans-serif" font-size="6.5" lengthAdjust="spacing" textLength="2" x="38.75" y="421.9868">&#160;</text><!--SRC=[xLRBJiCm4BpdAtm3f9RUUq12I20aa1283rYIRMl9Zs0xFFwUpRDEOXVIKea3XpQIlJjhp-niSh9nBhVBnI8Ne5mXnNcgvSBYQu4gnNd6OMr09WaKJgj2lg19aXoCuodFAO5TPfAhvzlUsYEkkNLedYtzubjNMZcZXI18F-G1ZIrZg7mPWHzkW91hovqsdzUGbe_UxXrbFcg1zWdD6q_Hzg71sdTjiXjKQ82IcwXUK7cqUr2mHedAnIAsnqY8dDJnDt3OiT4ysVnYG0PRCkCjd9vjSmUi3V86I5lk234rI00nB8_c209XZqclJjhSaQCbz0o_m-_s0ne6AbHt6gZfNySh603q3ZFiY34gbUgh5gaJmlgn3ckiUo_E5UcwlqQZtlvHoP0yOvUCiUUxRchAKB_Y677VUuuiC-LYapnKkJ7JJnlzJlGb81pZArOEEWdaTUAscX9SAvPkj4N5Ljgml9aXPFi9hT4pFKhWObQHE6CA9Fr3bXcqzZYD4njxTV-qknCT7XkbqM8x6wfZrVTyhCJ-J0HdEvKd-drbsjEqwbJBbxL4dLQrW9D82xzQmeVQILT12txXCF2lMJ1GyJ0dVcD551PBBqfG1GZVYDm6lNYO4oiZLagtqhR0n_7ZVnV-vHS1gepHks2KGqdjvrsqARu0]--></g></svg>