<?xml version="1.0" encoding="us-ascii" standalone="no"?><svg xmlns="http://www.w3.org/2000/svg" xmlns:xlink="http://www.w3.org/1999/xlink" contentStyleType="text/css" height="1331px" preserveAspectRatio="none" style="width:1033px;height:1331px;background:#FFFFFF;" version="1.1" viewBox="0 0 1033 1331" width="1033px" zoomAndPan="magnify"><defs/><g><!--class AdminUI--><g id="elem_AdminUI"><rect codeLine="3" fill="#F1F1F1" height="103.8633" id="AdminUI" rx="2.5" ry="2.5" style="stroke:#181818;stroke-width:0.5;" width="123" x="345.5" y="7"/><ellipse cx="378.5" cy="23" fill="#ADD1B2" rx="11" ry="11" style="stroke:#181818;stroke-width:1.0;"/><path d="M381.2656,18.875 Q381.4219,18.6563 381.6094,18.5469 Q381.7969,18.4375 382.0156,18.4375 Q382.3906,18.4375 382.625,18.7031 Q382.8594,18.9531 382.8594,19.5625 L382.8594,21.0156 Q382.8594,21.625 382.625,21.8906 Q382.3906,22.1563 382.0156,22.1563 Q381.6719,22.1563 381.4688,21.9531 Q381.2656,21.7656 381.1563,21.25 Q381.1094,20.8906 380.9219,20.7031 Q380.5938,20.3281 379.9844,20.1094 Q379.375,19.8906 378.75,19.8906 Q377.9844,19.8906 377.3438,20.2188 Q376.7188,20.5469 376.2188,21.2969 Q375.7344,22.0469 375.7344,23.0781 L375.7344,24.1719 Q375.7344,25.4063 376.625,26.2344 Q377.5156,27.0469 379.1094,27.0469 Q380.0469,27.0469 380.7031,26.7969 Q381.0938,26.6406 381.5156,26.2031 Q381.7813,25.9375 381.9219,25.8594 Q382.0781,25.7813 382.2813,25.7813 Q382.6094,25.7813 382.8594,26.0469 Q383.125,26.2969 383.125,26.6406 Q383.125,26.9844 382.7813,27.3906 Q382.2813,27.9688 381.4844,28.2969 Q380.4063,28.75 379.1094,28.75 Q377.5938,28.75 376.3906,28.125 Q375.4063,27.625 374.7188,26.5625 Q374.0313,25.4844 374.0313,24.2031 L374.0313,23.0469 Q374.0313,21.7188 374.6406,20.5781 Q375.2656,19.4219 376.3594,18.8125 Q377.4531,18.1875 378.6875,18.1875 Q379.4219,18.1875 380.0625,18.3594 Q380.7188,18.5156 381.2656,18.875 Z " fill="#000000"/><text fill="#000000" font-family="sans-serif" font-size="14" lengthAdjust="spacing" textLength="51" x="396.5" y="28.7969">AdminUI</text><line style="stroke:#181818;stroke-width:0.5;" x1="346.5" x2="467.5" y1="39" y2="39"/><line style="stroke:#181818;stroke-width:0.5;" x1="346.5" x2="467.5" y1="47" y2="47"/><ellipse cx="356.5" cy="61.8105" fill="#84BE84" rx="3" ry="3" style="stroke:#038048;stroke-width:1.0;"/><text fill="#000000" font-family="sans-serif" font-size="14" lengthAdjust="spacing" textLength="87" x="365.5" y="66.1074">registerUser()</text><ellipse cx="356.5" cy="80.4316" fill="#84BE84" rx="3" ry="3" style="stroke:#038048;stroke-width:1.0;"/><text fill="#000000" font-family="sans-serif" font-size="14" lengthAdjust="spacing" textLength="81" x="365.5" y="84.7285">getUserList()</text><ellipse cx="356.5" cy="99.0527" fill="#84BE84" rx="3" ry="3" style="stroke:#038048;stroke-width:1.0;"/><text fill="#000000" font-family="sans-serif" font-size="14" lengthAdjust="spacing" textLength="97" x="365.5" y="103.3496">manageUsers()</text></g><!--class UserActivationUI--><g id="elem_UserActivationUI"><rect codeLine="9" fill="#F1F1F1" height="122.4844" id="UserActivationUI" rx="2.5" ry="2.5" style="stroke:#181818;stroke-width:0.5;" width="158" x="240" y="172"/><ellipse cx="265.8" cy="188" fill="#ADD1B2" rx="11" ry="11" style="stroke:#181818;stroke-width:1.0;"/><path d="M268.5656,183.875 Q268.7219,183.6563 268.9094,183.5469 Q269.0969,183.4375 269.3156,183.4375 Q269.6906,183.4375 269.925,183.7031 Q270.1594,183.9531 270.1594,184.5625 L270.1594,186.0156 Q270.1594,186.625 269.925,186.8906 Q269.6906,187.1563 269.3156,187.1563 Q268.9719,187.1563 268.7688,186.9531 Q268.5656,186.7656 268.4563,186.25 Q268.4094,185.8906 268.2219,185.7031 Q267.8938,185.3281 267.2844,185.1094 Q266.675,184.8906 266.05,184.8906 Q265.2844,184.8906 264.6438,185.2188 Q264.0188,185.5469 263.5188,186.2969 Q263.0344,187.0469 263.0344,188.0781 L263.0344,189.1719 Q263.0344,190.4063 263.925,191.2344 Q264.8156,192.0469 266.4094,192.0469 Q267.3469,192.0469 268.0031,191.7969 Q268.3938,191.6406 268.8156,191.2031 Q269.0813,190.9375 269.2219,190.8594 Q269.3781,190.7813 269.5813,190.7813 Q269.9094,190.7813 270.1594,191.0469 Q270.425,191.2969 270.425,191.6406 Q270.425,191.9844 270.0813,192.3906 Q269.5813,192.9688 268.7844,193.2969 Q267.7063,193.75 266.4094,193.75 Q264.8938,193.75 263.6906,193.125 Q262.7063,192.625 262.0188,191.5625 Q261.3313,190.4844 261.3313,189.2031 L261.3313,188.0469 Q261.3313,186.7188 261.9406,185.5781 Q262.5656,184.4219 263.6594,183.8125 Q264.7531,183.1875 265.9875,183.1875 Q266.7219,183.1875 267.3625,183.3594 Q268.0188,183.5156 268.5656,183.875 Z " fill="#000000"/><text fill="#000000" font-family="sans-serif" font-size="14" lengthAdjust="spacing" textLength="102" x="282.2" y="193.7969">UserActivationUI</text><line style="stroke:#181818;stroke-width:0.5;" x1="241" x2="397" y1="204" y2="204"/><line style="stroke:#181818;stroke-width:0.5;" x1="241" x2="397" y1="212" y2="212"/><ellipse cx="251" cy="226.8105" fill="#84BE84" rx="3" ry="3" style="stroke:#038048;stroke-width:1.0;"/><text fill="#000000" font-family="sans-serif" font-size="14" lengthAdjust="spacing" textLength="81" x="260" y="231.1074">getUserList()</text><ellipse cx="251" cy="245.4316" fill="#84BE84" rx="3" ry="3" style="stroke:#038048;stroke-width:1.0;"/><text fill="#000000" font-family="sans-serif" font-size="14" lengthAdjust="spacing" textLength="60" x="260" y="249.7285">doShow()</text><ellipse cx="251" cy="264.0527" fill="#84BE84" rx="3" ry="3" style="stroke:#038048;stroke-width:1.0;"/><text fill="#000000" font-family="sans-serif" font-size="14" lengthAdjust="spacing" textLength="116" x="260" y="268.3496">activateUser(user)</text><ellipse cx="251" cy="282.6738" fill="#84BE84" rx="3" ry="3" style="stroke:#038048;stroke-width:1.0;"/><text fill="#000000" font-family="sans-serif" font-size="14" lengthAdjust="spacing" textLength="132" x="260" y="286.9707">deactivateUser(user)</text></g><!--class UserActivationController--><g id="elem_UserActivationController"><rect codeLine="16" fill="#F1F1F1" height="103.8633" id="UserActivationController" rx="2.5" ry="2.5" style="stroke:#181818;stroke-width:0.5;" width="184" x="227" y="355"/><ellipse cx="242" cy="371" fill="#ADD1B2" rx="11" ry="11" style="stroke:#181818;stroke-width:1.0;"/><path d="M244.7656,366.875 Q244.9219,366.6563 245.1094,366.5469 Q245.2969,366.4375 245.5156,366.4375 Q245.8906,366.4375 246.125,366.7031 Q246.3594,366.9531 246.3594,367.5625 L246.3594,369.0156 Q246.3594,369.625 246.125,369.8906 Q245.8906,370.1563 245.5156,370.1563 Q245.1719,370.1563 244.9688,369.9531 Q244.7656,369.7656 244.6563,369.25 Q244.6094,368.8906 244.4219,368.7031 Q244.0938,368.3281 243.4844,368.1094 Q242.875,367.8906 242.25,367.8906 Q241.4844,367.8906 240.8438,368.2188 Q240.2188,368.5469 239.7188,369.2969 Q239.2344,370.0469 239.2344,371.0781 L239.2344,372.1719 Q239.2344,373.4063 240.125,374.2344 Q241.0156,375.0469 242.6094,375.0469 Q243.5469,375.0469 244.2031,374.7969 Q244.5938,374.6406 245.0156,374.2031 Q245.2813,373.9375 245.4219,373.8594 Q245.5781,373.7813 245.7813,373.7813 Q246.1094,373.7813 246.3594,374.0469 Q246.625,374.2969 246.625,374.6406 Q246.625,374.9844 246.2813,375.3906 Q245.7813,375.9688 244.9844,376.2969 Q243.9063,376.75 242.6094,376.75 Q241.0938,376.75 239.8906,376.125 Q238.9063,375.625 238.2188,374.5625 Q237.5313,373.4844 237.5313,372.2031 L237.5313,371.0469 Q237.5313,369.7188 238.1406,368.5781 Q238.7656,367.4219 239.8594,366.8125 Q240.9531,366.1875 242.1875,366.1875 Q242.9219,366.1875 243.5625,366.3594 Q244.2188,366.5156 244.7656,366.875 Z " fill="#000000"/><text fill="#000000" font-family="sans-serif" font-size="14" lengthAdjust="spacing" textLength="152" x="256" y="376.7969">UserActivationController</text><line style="stroke:#181818;stroke-width:0.5;" x1="228" x2="410" y1="387" y2="387"/><line style="stroke:#181818;stroke-width:0.5;" x1="228" x2="410" y1="395" y2="395"/><ellipse cx="238" cy="409.8105" fill="#84BE84" rx="3" ry="3" style="stroke:#038048;stroke-width:1.0;"/><text fill="#000000" font-family="sans-serif" font-size="14" lengthAdjust="spacing" textLength="81" x="247" y="414.1074">getUserList()</text><ellipse cx="238" cy="428.4316" fill="#84BE84" rx="3" ry="3" style="stroke:#038048;stroke-width:1.0;"/><text fill="#000000" font-family="sans-serif" font-size="14" lengthAdjust="spacing" textLength="116" x="247" y="432.7285">activateUser(user)</text><ellipse cx="238" cy="447.0527" fill="#84BE84" rx="3" ry="3" style="stroke:#038048;stroke-width:1.0;"/><text fill="#000000" font-family="sans-serif" font-size="14" lengthAdjust="spacing" textLength="132" x="247" y="451.3496">deactivateUser(user)</text></g><!--class PersistenceContext--><g id="elem_PersistenceContext"><rect codeLine="22" fill="#F1F1F1" height="66.6211" id="PersistenceContext" rx="2.5" ry="2.5" style="stroke:#181818;stroke-width:0.5;" width="154" x="194" y="621.5"/><ellipse cx="209" cy="637.5" fill="#ADD1B2" rx="11" ry="11" style="stroke:#181818;stroke-width:1.0;"/><path d="M211.7656,633.375 Q211.9219,633.1563 212.1094,633.0469 Q212.2969,632.9375 212.5156,632.9375 Q212.8906,632.9375 213.125,633.2031 Q213.3594,633.4531 213.3594,634.0625 L213.3594,635.5156 Q213.3594,636.125 213.125,636.3906 Q212.8906,636.6563 212.5156,636.6563 Q212.1719,636.6563 211.9688,636.4531 Q211.7656,636.2656 211.6563,635.75 Q211.6094,635.3906 211.4219,635.2031 Q211.0938,634.8281 210.4844,634.6094 Q209.875,634.3906 209.25,634.3906 Q208.4844,634.3906 207.8438,634.7188 Q207.2188,635.0469 206.7188,635.7969 Q206.2344,636.5469 206.2344,637.5781 L206.2344,638.6719 Q206.2344,639.9063 207.125,640.7344 Q208.0156,641.5469 209.6094,641.5469 Q210.5469,641.5469 211.2031,641.2969 Q211.5938,641.1406 212.0156,640.7031 Q212.2813,640.4375 212.4219,640.3594 Q212.5781,640.2813 212.7813,640.2813 Q213.1094,640.2813 213.3594,640.5469 Q213.625,640.7969 213.625,641.1406 Q213.625,641.4844 213.2813,641.8906 Q212.7813,642.4688 211.9844,642.7969 Q210.9063,643.25 209.6094,643.25 Q208.0938,643.25 206.8906,642.625 Q205.9063,642.125 205.2188,641.0625 Q204.5313,639.9844 204.5313,638.7031 L204.5313,637.5469 Q204.5313,636.2188 205.1406,635.0781 Q205.7656,633.9219 206.8594,633.3125 Q207.9531,632.6875 209.1875,632.6875 Q209.9219,632.6875 210.5625,632.8594 Q211.2188,633.0156 211.7656,633.375 Z " fill="#000000"/><text fill="#000000" font-family="sans-serif" font-size="14" lengthAdjust="spacing" textLength="122" x="223" y="643.2969">PersistenceContext</text><line style="stroke:#181818;stroke-width:0.5;" x1="195" x2="347" y1="653.5" y2="653.5"/><line style="stroke:#181818;stroke-width:0.5;" x1="195" x2="347" y1="661.5" y2="661.5"/><ellipse cx="205" cy="676.3105" fill="#84BE84" rx="3" ry="3" style="stroke:#038048;stroke-width:1.0;"/><text fill="#000000" font-family="sans-serif" font-size="14" lengthAdjust="spacing" textLength="84" x="214" y="680.6074">repositories()</text></g><!--class RepositoryFactory--><g id="elem_RepositoryFactory"><rect codeLine="26" fill="#F1F1F1" height="178.3477" id="RepositoryFactory" rx="2.5" ry="2.5" style="stroke:#181818;stroke-width:0.5;" width="308" x="54" y="935"/><ellipse cx="145.75" cy="951" fill="#ADD1B2" rx="11" ry="11" style="stroke:#181818;stroke-width:1.0;"/><path d="M148.5156,946.875 Q148.6719,946.6563 148.8594,946.5469 Q149.0469,946.4375 149.2656,946.4375 Q149.6406,946.4375 149.875,946.7031 Q150.1094,946.9531 150.1094,947.5625 L150.1094,949.0156 Q150.1094,949.625 149.875,949.8906 Q149.6406,950.1563 149.2656,950.1563 Q148.9219,950.1563 148.7188,949.9531 Q148.5156,949.7656 148.4063,949.25 Q148.3594,948.8906 148.1719,948.7031 Q147.8438,948.3281 147.2344,948.1094 Q146.625,947.8906 146,947.8906 Q145.2344,947.8906 144.5938,948.2188 Q143.9688,948.5469 143.4688,949.2969 Q142.9844,950.0469 142.9844,951.0781 L142.9844,952.1719 Q142.9844,953.4063 143.875,954.2344 Q144.7656,955.0469 146.3594,955.0469 Q147.2969,955.0469 147.9531,954.7969 Q148.3438,954.6406 148.7656,954.2031 Q149.0313,953.9375 149.1719,953.8594 Q149.3281,953.7813 149.5313,953.7813 Q149.8594,953.7813 150.1094,954.0469 Q150.375,954.2969 150.375,954.6406 Q150.375,954.9844 150.0313,955.3906 Q149.5313,955.9688 148.7344,956.2969 Q147.6563,956.75 146.3594,956.75 Q144.8438,956.75 143.6406,956.125 Q142.6563,955.625 141.9688,954.5625 Q141.2813,953.4844 141.2813,952.2031 L141.2813,951.0469 Q141.2813,949.7188 141.8906,948.5781 Q142.5156,947.4219 143.6094,946.8125 Q144.7031,946.1875 145.9375,946.1875 Q146.6719,946.1875 147.3125,946.3594 Q147.9688,946.5156 148.5156,946.875 Z " fill="#000000"/><text fill="#000000" font-family="sans-serif" font-size="14" lengthAdjust="spacing" textLength="116" x="166.25" y="956.7969">RepositoryFactory</text><line style="stroke:#181818;stroke-width:0.5;" x1="55" x2="361" y1="967" y2="967"/><line style="stroke:#181818;stroke-width:0.5;" x1="55" x2="361" y1="975" y2="975"/><ellipse cx="65" cy="989.8105" fill="#84BE84" rx="3" ry="3" style="stroke:#038048;stroke-width:1.0;"/><text fill="#000000" font-family="sans-serif" font-size="14" lengthAdjust="spacing" textLength="173" x="74" y="994.1074">newTransactionalContext();</text><ellipse cx="65" cy="1008.4316" fill="#84BE84" rx="3" ry="3" style="stroke:#038048;stroke-width:1.0;"/><text fill="#000000" font-family="sans-serif" font-size="14" lengthAdjust="spacing" textLength="215" x="74" y="1012.7285">users(TransactionalContext var1);</text><ellipse cx="65" cy="1027.0527" fill="#84BE84" rx="3" ry="3" style="stroke:#038048;stroke-width:1.0;"/><text fill="#000000" font-family="sans-serif" font-size="14" lengthAdjust="spacing" textLength="49" x="74" y="1031.3496">users();</text><ellipse cx="65" cy="1045.6738" fill="#84BE84" rx="3" ry="3" style="stroke:#038048;stroke-width:1.0;"/><text fill="#000000" font-family="sans-serif" font-size="14" lengthAdjust="spacing" textLength="249" x="74" y="1049.9707">clientUsers(TransactionalContext var1);</text><ellipse cx="65" cy="1064.2949" fill="#84BE84" rx="3" ry="3" style="stroke:#038048;stroke-width:1.0;"/><text fill="#000000" font-family="sans-serif" font-size="14" lengthAdjust="spacing" textLength="83" x="74" y="1068.5918">clientUsers();</text><ellipse cx="65" cy="1082.916" fill="#84BE84" rx="3" ry="3" style="stroke:#038048;stroke-width:1.0;"/><text fill="#000000" font-family="sans-serif" font-size="14" lengthAdjust="spacing" textLength="282" x="74" y="1087.2129">signupRequests(TransactionalContext var1);</text><ellipse cx="65" cy="1101.5371" fill="#84BE84" rx="3" ry="3" style="stroke:#038048;stroke-width:1.0;"/><text fill="#000000" font-family="sans-serif" font-size="14" lengthAdjust="spacing" textLength="116" x="74" y="1105.834">signupRequests();</text></g><!--class UserManagementService--><g id="elem_UserManagementService"><rect codeLine="39" fill="#F1F1F1" height="234.2109" id="UserManagementService" rx="2.5" ry="2.5" style="stroke:#181818;stroke-width:0.5;" width="227" x="383.5" y="538"/><ellipse cx="415.15" cy="554" fill="#ADD1B2" rx="11" ry="11" style="stroke:#181818;stroke-width:1.0;"/><path d="M417.9156,549.875 Q418.0719,549.6563 418.2594,549.5469 Q418.4469,549.4375 418.6656,549.4375 Q419.0406,549.4375 419.275,549.7031 Q419.5094,549.9531 419.5094,550.5625 L419.5094,552.0156 Q419.5094,552.625 419.275,552.8906 Q419.0406,553.1563 418.6656,553.1563 Q418.3219,553.1563 418.1188,552.9531 Q417.9156,552.7656 417.8063,552.25 Q417.7594,551.8906 417.5719,551.7031 Q417.2438,551.3281 416.6344,551.1094 Q416.025,550.8906 415.4,550.8906 Q414.6344,550.8906 413.9938,551.2188 Q413.3688,551.5469 412.8688,552.2969 Q412.3844,553.0469 412.3844,554.0781 L412.3844,555.1719 Q412.3844,556.4063 413.275,557.2344 Q414.1656,558.0469 415.7594,558.0469 Q416.6969,558.0469 417.3531,557.7969 Q417.7438,557.6406 418.1656,557.2031 Q418.4313,556.9375 418.5719,556.8594 Q418.7281,556.7813 418.9313,556.7813 Q419.2594,556.7813 419.5094,557.0469 Q419.775,557.2969 419.775,557.6406 Q419.775,557.9844 419.4313,558.3906 Q418.9313,558.9688 418.1344,559.2969 Q417.0563,559.75 415.7594,559.75 Q414.2438,559.75 413.0406,559.125 Q412.0563,558.625 411.3688,557.5625 Q410.6813,556.4844 410.6813,555.2031 L410.6813,554.0469 Q410.6813,552.7188 411.2906,551.5781 Q411.9156,550.4219 413.0094,549.8125 Q414.1031,549.1875 415.3375,549.1875 Q416.0719,549.1875 416.7125,549.3594 Q417.3688,549.5156 417.9156,549.875 Z " fill="#000000"/><text fill="#000000" font-family="sans-serif" font-size="14" lengthAdjust="spacing" textLength="158" x="432.85" y="559.7969">UserManagementService</text><line style="stroke:#181818;stroke-width:0.5;" x1="384.5" x2="609.5" y1="570" y2="570"/><rect fill="none" height="6" style="stroke:#C82930;stroke-width:1.0;" width="6" x="391.5" y="581.8105"/><text fill="#000000" font-family="sans-serif" font-size="14" lengthAdjust="spacing" textLength="201" x="403.5" y="589.1074">userRepository: UserRepository</text><rect fill="none" height="6" style="stroke:#C82930;stroke-width:1.0;" width="6" x="391.5" y="600.4316"/><text fill="#000000" font-family="sans-serif" font-size="14" lengthAdjust="spacing" textLength="174" x="403.5" y="607.7285">encoder: PasswordEncoder</text><rect fill="none" height="6" style="stroke:#C82930;stroke-width:1.0;" width="6" x="391.5" y="619.0527"/><text fill="#000000" font-family="sans-serif" font-size="14" lengthAdjust="spacing" textLength="142" x="403.5" y="626.3496">policy: PasswordPolicy</text><line style="stroke:#181818;stroke-width:0.5;" x1="384.5" x2="609.5" y1="633.8633" y2="633.8633"/><ellipse cx="394.5" cy="648.6738" fill="#84BE84" rx="3" ry="3" style="stroke:#038048;stroke-width:1.0;"/><text fill="#000000" font-family="sans-serif" font-size="14" lengthAdjust="spacing" textLength="113" x="403.5" y="652.9707">registerNewUser()</text><ellipse cx="394.5" cy="667.2949" fill="#84BE84" rx="3" ry="3" style="stroke:#038048;stroke-width:1.0;"/><text fill="#000000" font-family="sans-serif" font-size="14" lengthAdjust="spacing" textLength="83" x="403.5" y="671.5918">activeUsers()</text><ellipse cx="394.5" cy="685.916" fill="#84BE84" rx="3" ry="3" style="stroke:#038048;stroke-width:1.0;"/><text fill="#000000" font-family="sans-serif" font-size="14" lengthAdjust="spacing" textLength="119" x="403.5" y="690.2129">deactivatedUsers()</text><ellipse cx="394.5" cy="704.5371" fill="#84BE84" rx="3" ry="3" style="stroke:#038048;stroke-width:1.0;"/><text fill="#000000" font-family="sans-serif" font-size="14" lengthAdjust="spacing" textLength="60" x="403.5" y="708.834">allUsers()</text><ellipse cx="394.5" cy="723.1582" fill="#84BE84" rx="3" ry="3" style="stroke:#038048;stroke-width:1.0;"/><text fill="#000000" font-family="sans-serif" font-size="14" lengthAdjust="spacing" textLength="98" x="403.5" y="727.4551">userOfIdentity()</text><ellipse cx="394.5" cy="741.7793" fill="#84BE84" rx="3" ry="3" style="stroke:#038048;stroke-width:1.0;"/><text fill="#000000" font-family="sans-serif" font-size="14" lengthAdjust="spacing" textLength="104" x="403.5" y="746.0762">deactivateUser()</text><ellipse cx="394.5" cy="760.4004" fill="#84BE84" rx="3" ry="3" style="stroke:#038048;stroke-width:1.0;"/><text fill="#000000" font-family="sans-serif" font-size="14" lengthAdjust="spacing" textLength="88" x="403.5" y="764.6973">activateUser()</text></g><!--class UserRepository--><g id="elem_UserRepository"><rect codeLine="51" fill="#F1F1F1" height="48" id="UserRepository" rx="2.5" ry="2.5" style="stroke:#181818;stroke-width:0.5;" width="129" x="372.5" y="1276"/><ellipse cx="387.5" cy="1292" fill="#ADD1B2" rx="11" ry="11" style="stroke:#181818;stroke-width:1.0;"/><path d="M390.2656,1287.875 Q390.4219,1287.6563 390.6094,1287.5469 Q390.7969,1287.4375 391.0156,1287.4375 Q391.3906,1287.4375 391.625,1287.7031 Q391.8594,1287.9531 391.8594,1288.5625 L391.8594,1290.0156 Q391.8594,1290.625 391.625,1290.8906 Q391.3906,1291.1563 391.0156,1291.1563 Q390.6719,1291.1563 390.4688,1290.9531 Q390.2656,1290.7656 390.1563,1290.25 Q390.1094,1289.8906 389.9219,1289.7031 Q389.5938,1289.3281 388.9844,1289.1094 Q388.375,1288.8906 387.75,1288.8906 Q386.9844,1288.8906 386.3438,1289.2188 Q385.7188,1289.5469 385.2188,1290.2969 Q384.7344,1291.0469 384.7344,1292.0781 L384.7344,1293.1719 Q384.7344,1294.4063 385.625,1295.2344 Q386.5156,1296.0469 388.1094,1296.0469 Q389.0469,1296.0469 389.7031,1295.7969 Q390.0938,1295.6406 390.5156,1295.2031 Q390.7813,1294.9375 390.9219,1294.8594 Q391.0781,1294.7813 391.2813,1294.7813 Q391.6094,1294.7813 391.8594,1295.0469 Q392.125,1295.2969 392.125,1295.6406 Q392.125,1295.9844 391.7813,1296.3906 Q391.2813,1296.9688 390.4844,1297.2969 Q389.4063,1297.75 388.1094,1297.75 Q386.5938,1297.75 385.3906,1297.125 Q384.4063,1296.625 383.7188,1295.5625 Q383.0313,1294.4844 383.0313,1293.2031 L383.0313,1292.0469 Q383.0313,1290.7188 383.6406,1289.5781 Q384.2656,1288.4219 385.3594,1287.8125 Q386.4531,1287.1875 387.6875,1287.1875 Q388.4219,1287.1875 389.0625,1287.3594 Q389.7188,1287.5156 390.2656,1287.875 Z " fill="#000000"/><text fill="#000000" font-family="sans-serif" font-size="14" lengthAdjust="spacing" textLength="97" x="401.5" y="1297.7969">UserRepository</text><line style="stroke:#181818;stroke-width:0.5;" x1="373.5" x2="500.5" y1="1308" y2="1308"/><line style="stroke:#181818;stroke-width:0.5;" x1="373.5" x2="500.5" y1="1316" y2="1316"/></g><!--class RegisterUserController--><g id="elem_RegisterUserController"><rect codeLine="55" fill="#F1F1F1" height="66.6211" id="RegisterUserController" rx="2.5" ry="2.5" style="stroke:#181818;stroke-width:0.5;" width="176" x="448" y="373.5"/><ellipse cx="463" cy="389.5" fill="#ADD1B2" rx="11" ry="11" style="stroke:#181818;stroke-width:1.0;"/><path d="M465.7656,385.375 Q465.9219,385.1563 466.1094,385.0469 Q466.2969,384.9375 466.5156,384.9375 Q466.8906,384.9375 467.125,385.2031 Q467.3594,385.4531 467.3594,386.0625 L467.3594,387.5156 Q467.3594,388.125 467.125,388.3906 Q466.8906,388.6563 466.5156,388.6563 Q466.1719,388.6563 465.9688,388.4531 Q465.7656,388.2656 465.6563,387.75 Q465.6094,387.3906 465.4219,387.2031 Q465.0938,386.8281 464.4844,386.6094 Q463.875,386.3906 463.25,386.3906 Q462.4844,386.3906 461.8438,386.7188 Q461.2188,387.0469 460.7188,387.7969 Q460.2344,388.5469 460.2344,389.5781 L460.2344,390.6719 Q460.2344,391.9063 461.125,392.7344 Q462.0156,393.5469 463.6094,393.5469 Q464.5469,393.5469 465.2031,393.2969 Q465.5938,393.1406 466.0156,392.7031 Q466.2813,392.4375 466.4219,392.3594 Q466.5781,392.2813 466.7813,392.2813 Q467.1094,392.2813 467.3594,392.5469 Q467.625,392.7969 467.625,393.1406 Q467.625,393.4844 467.2813,393.8906 Q466.7813,394.4688 465.9844,394.7969 Q464.9063,395.25 463.6094,395.25 Q462.0938,395.25 460.8906,394.625 Q459.9063,394.125 459.2188,393.0625 Q458.5313,391.9844 458.5313,390.7031 L458.5313,389.5469 Q458.5313,388.2188 459.1406,387.0781 Q459.7656,385.9219 460.8594,385.3125 Q461.9531,384.6875 463.1875,384.6875 Q463.9219,384.6875 464.5625,384.8594 Q465.2188,385.0156 465.7656,385.375 Z " fill="#000000"/><text fill="#000000" font-family="sans-serif" font-size="14" lengthAdjust="spacing" textLength="144" x="477" y="395.2969">RegisterUserController</text><line style="stroke:#181818;stroke-width:0.5;" x1="449" x2="623" y1="405.5" y2="405.5"/><line style="stroke:#181818;stroke-width:0.5;" x1="449" x2="623" y1="413.5" y2="413.5"/><ellipse cx="459" cy="428.3105" fill="#84BE84" rx="3" ry="3" style="stroke:#038048;stroke-width:1.0;"/><text fill="#000000" font-family="sans-serif" font-size="14" lengthAdjust="spacing" textLength="87" x="468" y="432.6074">registerUser()</text></g><!--class SysUserDTO--><g id="elem_SysUserDTO"><rect codeLine="59" fill="#F1F1F1" height="215.5898" id="SysUserDTO" rx="2.5" ry="2.5" style="stroke:#181818;stroke-width:0.5;" width="152" x="7" y="547"/><ellipse cx="39.1" cy="563" fill="#ADD1B2" rx="11" ry="11" style="stroke:#181818;stroke-width:1.0;"/><path d="M41.8656,558.875 Q42.0219,558.6563 42.2094,558.5469 Q42.3969,558.4375 42.6156,558.4375 Q42.9906,558.4375 43.225,558.7031 Q43.4594,558.9531 43.4594,559.5625 L43.4594,561.0156 Q43.4594,561.625 43.225,561.8906 Q42.9906,562.1563 42.6156,562.1563 Q42.2719,562.1563 42.0688,561.9531 Q41.8656,561.7656 41.7563,561.25 Q41.7094,560.8906 41.5219,560.7031 Q41.1938,560.3281 40.5844,560.1094 Q39.975,559.8906 39.35,559.8906 Q38.5844,559.8906 37.9438,560.2188 Q37.3188,560.5469 36.8188,561.2969 Q36.3344,562.0469 36.3344,563.0781 L36.3344,564.1719 Q36.3344,565.4063 37.225,566.2344 Q38.1156,567.0469 39.7094,567.0469 Q40.6469,567.0469 41.3031,566.7969 Q41.6938,566.6406 42.1156,566.2031 Q42.3813,565.9375 42.5219,565.8594 Q42.6781,565.7813 42.8813,565.7813 Q43.2094,565.7813 43.4594,566.0469 Q43.725,566.2969 43.725,566.6406 Q43.725,566.9844 43.3813,567.3906 Q42.8813,567.9688 42.0844,568.2969 Q41.0063,568.75 39.7094,568.75 Q38.1938,568.75 36.9906,568.125 Q36.0063,567.625 35.3188,566.5625 Q34.6313,565.4844 34.6313,564.2031 L34.6313,563.0469 Q34.6313,561.7188 35.2406,560.5781 Q35.8656,559.4219 36.9594,558.8125 Q38.0531,558.1875 39.2875,558.1875 Q40.0219,558.1875 40.6625,558.3594 Q41.3188,558.5156 41.8656,558.875 Z " fill="#000000"/><text fill="#000000" font-family="sans-serif" font-size="14" lengthAdjust="spacing" textLength="82" x="56.9" y="568.7969">SysUserDTO</text><line style="stroke:#181818;stroke-width:0.5;" x1="8" x2="158" y1="579" y2="579"/><rect fill="none" height="6" style="stroke:#C82930;stroke-width:1.0;" width="6" x="15" y="590.8105"/><text fill="#000000" font-family="sans-serif" font-size="14" lengthAdjust="spacing" textLength="76" x="27" y="598.1074">String name</text><rect fill="none" height="6" style="stroke:#C82930;stroke-width:1.0;" width="6" x="15" y="609.4316"/><text fill="#000000" font-family="sans-serif" font-size="14" lengthAdjust="spacing" textLength="126" x="27" y="616.7285">String emailAddress</text><rect fill="none" height="6" style="stroke:#C82930;stroke-width:1.0;" width="6" x="15" y="628.0527"/><text fill="#000000" font-family="sans-serif" font-size="14" lengthAdjust="spacing" textLength="92" x="27" y="635.3496">String address</text><rect fill="none" height="6" style="stroke:#C82930;stroke-width:1.0;" width="6" x="15" y="646.6738"/><text fill="#000000" font-family="sans-serif" font-size="14" lengthAdjust="spacing" textLength="96" x="27" y="653.9707">BaseRoles role</text><rect fill="none" height="6" style="stroke:#C82930;stroke-width:1.0;" width="6" x="15" y="665.2949"/><text fill="#000000" font-family="sans-serif" font-size="14" lengthAdjust="spacing" textLength="92" x="27" y="672.5918">boolean active</text><line style="stroke:#181818;stroke-width:0.5;" x1="8" x2="158" y1="680.1055" y2="680.1055"/><ellipse cx="18" cy="694.916" fill="#84BE84" rx="3" ry="3" style="stroke:#038048;stroke-width:1.0;"/><text fill="#000000" font-family="sans-serif" font-size="14" lengthAdjust="spacing" textLength="59" x="27" y="699.2129">toString()</text><ellipse cx="18" cy="713.5371" fill="#84BE84" rx="3" ry="3" style="stroke:#038048;stroke-width:1.0;"/><text fill="#000000" font-family="sans-serif" font-size="14" lengthAdjust="spacing" textLength="66" x="27" y="717.834">getName()</text><ellipse cx="18" cy="732.1582" fill="#84BE84" rx="3" ry="3" style="stroke:#038048;stroke-width:1.0;"/><text fill="#000000" font-family="sans-serif" font-size="14" lengthAdjust="spacing" textLength="116" x="27" y="736.4551">getEmailAddress()</text><ellipse cx="18" cy="750.7793" fill="#84BE84" rx="3" ry="3" style="stroke:#038048;stroke-width:1.0;"/><text fill="#000000" font-family="sans-serif" font-size="14" lengthAdjust="spacing" textLength="70" x="27" y="755.0762">getStatus()</text></g><!--class PasswordGeneratorService--><g id="elem_PasswordGeneratorService"><rect codeLine="80" fill="#F1F1F1" height="66.6211" id="PasswordGeneratorService" rx="2.5" ry="2.5" style="stroke:#181818;stroke-width:0.5;" width="208" x="646" y="621.5"/><ellipse cx="662.35" cy="637.5" fill="#ADD1B2" rx="11" ry="11" style="stroke:#181818;stroke-width:1.0;"/><path d="M665.1156,633.375 Q665.2719,633.1563 665.4594,633.0469 Q665.6469,632.9375 665.8656,632.9375 Q666.2406,632.9375 666.475,633.2031 Q666.7094,633.4531 666.7094,634.0625 L666.7094,635.5156 Q666.7094,636.125 666.475,636.3906 Q666.2406,636.6563 665.8656,636.6563 Q665.5219,636.6563 665.3188,636.4531 Q665.1156,636.2656 665.0063,635.75 Q664.9594,635.3906 664.7719,635.2031 Q664.4438,634.8281 663.8344,634.6094 Q663.225,634.3906 662.6,634.3906 Q661.8344,634.3906 661.1938,634.7188 Q660.5688,635.0469 660.0688,635.7969 Q659.5844,636.5469 659.5844,637.5781 L659.5844,638.6719 Q659.5844,639.9063 660.475,640.7344 Q661.3656,641.5469 662.9594,641.5469 Q663.8969,641.5469 664.5531,641.2969 Q664.9438,641.1406 665.3656,640.7031 Q665.6313,640.4375 665.7719,640.3594 Q665.9281,640.2813 666.1313,640.2813 Q666.4594,640.2813 666.7094,640.5469 Q666.975,640.7969 666.975,641.1406 Q666.975,641.4844 666.6313,641.8906 Q666.1313,642.4688 665.3344,642.7969 Q664.2563,643.25 662.9594,643.25 Q661.4438,643.25 660.2406,642.625 Q659.2563,642.125 658.5688,641.0625 Q657.8813,639.9844 657.8813,638.7031 L657.8813,637.5469 Q657.8813,636.2188 658.4906,635.0781 Q659.1156,633.9219 660.2094,633.3125 Q661.3031,632.6875 662.5375,632.6875 Q663.2719,632.6875 663.9125,632.8594 Q664.5688,633.0156 665.1156,633.375 Z " fill="#000000"/><text fill="#000000" font-family="sans-serif" font-size="14" lengthAdjust="spacing" textLength="173" x="676.65" y="643.2969">PasswordGeneratorService</text><line style="stroke:#181818;stroke-width:0.5;" x1="647" x2="853" y1="653.5" y2="653.5"/><line style="stroke:#181818;stroke-width:0.5;" x1="647" x2="853" y1="661.5" y2="661.5"/><ellipse cx="657" cy="676.3105" fill="#84BE84" rx="3" ry="3" style="stroke:#038048;stroke-width:1.0;"/><text fill="#000000" font-family="sans-serif" font-size="14" lengthAdjust="spacing" textLength="182" x="666" y="680.6074">generateModeledPassword()</text></g><!--class ListRolesService--><g id="elem_ListRolesService"><rect codeLine="76" fill="#F1F1F1" height="66.6211" id="ListRolesService" rx="2.5" ry="2.5" style="stroke:#181818;stroke-width:0.5;" width="137" x="889.5" y="621.5"/><ellipse cx="904.5" cy="637.5" fill="#ADD1B2" rx="11" ry="11" style="stroke:#181818;stroke-width:1.0;"/><path d="M907.2656,633.375 Q907.4219,633.1563 907.6094,633.0469 Q907.7969,632.9375 908.0156,632.9375 Q908.3906,632.9375 908.625,633.2031 Q908.8594,633.4531 908.8594,634.0625 L908.8594,635.5156 Q908.8594,636.125 908.625,636.3906 Q908.3906,636.6563 908.0156,636.6563 Q907.6719,636.6563 907.4688,636.4531 Q907.2656,636.2656 907.1563,635.75 Q907.1094,635.3906 906.9219,635.2031 Q906.5938,634.8281 905.9844,634.6094 Q905.375,634.3906 904.75,634.3906 Q903.9844,634.3906 903.3438,634.7188 Q902.7188,635.0469 902.2188,635.7969 Q901.7344,636.5469 901.7344,637.5781 L901.7344,638.6719 Q901.7344,639.9063 902.625,640.7344 Q903.5156,641.5469 905.1094,641.5469 Q906.0469,641.5469 906.7031,641.2969 Q907.0938,641.1406 907.5156,640.7031 Q907.7813,640.4375 907.9219,640.3594 Q908.0781,640.2813 908.2813,640.2813 Q908.6094,640.2813 908.8594,640.5469 Q909.125,640.7969 909.125,641.1406 Q909.125,641.4844 908.7813,641.8906 Q908.2813,642.4688 907.4844,642.7969 Q906.4063,643.25 905.1094,643.25 Q903.5938,643.25 902.3906,642.625 Q901.4063,642.125 900.7188,641.0625 Q900.0313,639.9844 900.0313,638.7031 L900.0313,637.5469 Q900.0313,636.2188 900.6406,635.0781 Q901.2656,633.9219 902.3594,633.3125 Q903.4531,632.6875 904.6875,632.6875 Q905.4219,632.6875 906.0625,632.8594 Q906.7188,633.0156 907.2656,633.375 Z " fill="#000000"/><text fill="#000000" font-family="sans-serif" font-size="14" lengthAdjust="spacing" textLength="105" x="918.5" y="643.2969">ListRolesService</text><line style="stroke:#181818;stroke-width:0.5;" x1="890.5" x2="1025.5" y1="653.5" y2="653.5"/><line style="stroke:#181818;stroke-width:0.5;" x1="890.5" x2="1025.5" y1="661.5" y2="661.5"/><ellipse cx="900.5" cy="676.3105" fill="#84BE84" rx="3" ry="3" style="stroke:#038048;stroke-width:1.0;"/><text fill="#000000" font-family="sans-serif" font-size="14" lengthAdjust="spacing" textLength="109" x="909.5" y="680.6074">listSystemRoles()</text></g><!--class RegisterUserUI--><g id="elem_RegisterUserUI"><rect codeLine="82" fill="#F1F1F1" height="48" id="RegisterUserUI" rx="2.5" ry="2.5" style="stroke:#181818;stroke-width:0.5;" width="126" x="452" y="209"/><ellipse cx="467" cy="225" fill="#ADD1B2" rx="11" ry="11" style="stroke:#181818;stroke-width:1.0;"/><path d="M469.7656,220.875 Q469.9219,220.6563 470.1094,220.5469 Q470.2969,220.4375 470.5156,220.4375 Q470.8906,220.4375 471.125,220.7031 Q471.3594,220.9531 471.3594,221.5625 L471.3594,223.0156 Q471.3594,223.625 471.125,223.8906 Q470.8906,224.1563 470.5156,224.1563 Q470.1719,224.1563 469.9688,223.9531 Q469.7656,223.7656 469.6563,223.25 Q469.6094,222.8906 469.4219,222.7031 Q469.0938,222.3281 468.4844,222.1094 Q467.875,221.8906 467.25,221.8906 Q466.4844,221.8906 465.8438,222.2188 Q465.2188,222.5469 464.7188,223.2969 Q464.2344,224.0469 464.2344,225.0781 L464.2344,226.1719 Q464.2344,227.4063 465.125,228.2344 Q466.0156,229.0469 467.6094,229.0469 Q468.5469,229.0469 469.2031,228.7969 Q469.5938,228.6406 470.0156,228.2031 Q470.2813,227.9375 470.4219,227.8594 Q470.5781,227.7813 470.7813,227.7813 Q471.1094,227.7813 471.3594,228.0469 Q471.625,228.2969 471.625,228.6406 Q471.625,228.9844 471.2813,229.3906 Q470.7813,229.9688 469.9844,230.2969 Q468.9063,230.75 467.6094,230.75 Q466.0938,230.75 464.8906,230.125 Q463.9063,229.625 463.2188,228.5625 Q462.5313,227.4844 462.5313,226.2031 L462.5313,225.0469 Q462.5313,223.7188 463.1406,222.5781 Q463.7656,221.4219 464.8594,220.8125 Q465.9531,220.1875 467.1875,220.1875 Q467.9219,220.1875 468.5625,220.3594 Q469.2188,220.5156 469.7656,220.875 Z " fill="#000000"/><text fill="#000000" font-family="sans-serif" font-size="14" lengthAdjust="spacing" textLength="94" x="481" y="230.7969">RegisterUserUI</text><line style="stroke:#181818;stroke-width:0.5;" x1="453" x2="577" y1="241" y2="241"/><line style="stroke:#181818;stroke-width:0.5;" x1="453" x2="577" y1="249" y2="249"/></g><!--class SystemUserBuilder--><g id="elem_SystemUserBuilder"><rect codeLine="83" fill="#F1F1F1" height="345.9375" id="SystemUserBuilder" rx="2.5" ry="2.5" style="stroke:#181818;stroke-width:0.5;" width="200" x="397" y="851"/><ellipse cx="434.05" cy="867" fill="#ADD1B2" rx="11" ry="11" style="stroke:#181818;stroke-width:1.0;"/><path d="M436.8156,862.875 Q436.9719,862.6563 437.1594,862.5469 Q437.3469,862.4375 437.5656,862.4375 Q437.9406,862.4375 438.175,862.7031 Q438.4094,862.9531 438.4094,863.5625 L438.4094,865.0156 Q438.4094,865.625 438.175,865.8906 Q437.9406,866.1563 437.5656,866.1563 Q437.2219,866.1563 437.0188,865.9531 Q436.8156,865.7656 436.7063,865.25 Q436.6594,864.8906 436.4719,864.7031 Q436.1438,864.3281 435.5344,864.1094 Q434.925,863.8906 434.3,863.8906 Q433.5344,863.8906 432.8938,864.2188 Q432.2688,864.5469 431.7688,865.2969 Q431.2844,866.0469 431.2844,867.0781 L431.2844,868.1719 Q431.2844,869.4063 432.175,870.2344 Q433.0656,871.0469 434.6594,871.0469 Q435.5969,871.0469 436.2531,870.7969 Q436.6438,870.6406 437.0656,870.2031 Q437.3313,869.9375 437.4719,869.8594 Q437.6281,869.7813 437.8313,869.7813 Q438.1594,869.7813 438.4094,870.0469 Q438.675,870.2969 438.675,870.6406 Q438.675,870.9844 438.3313,871.3906 Q437.8313,871.9688 437.0344,872.2969 Q435.9563,872.75 434.6594,872.75 Q433.1438,872.75 431.9406,872.125 Q430.9563,871.625 430.2688,870.5625 Q429.5813,869.4844 429.5813,868.2031 L429.5813,867.0469 Q429.5813,865.7188 430.1906,864.5781 Q430.8156,863.4219 431.9094,862.8125 Q433.0031,862.1875 434.2375,862.1875 Q434.9719,862.1875 435.6125,862.3594 Q436.2688,862.5156 436.8156,862.875 Z " fill="#000000"/><text fill="#000000" font-family="sans-serif" font-size="14" lengthAdjust="spacing" textLength="119" x="452.95" y="872.7969">SystemUserBuilder</text><line style="stroke:#181818;stroke-width:0.5;" x1="398" x2="596" y1="883" y2="883"/><rect fill="none" height="6" style="stroke:#C82930;stroke-width:1.0;" width="6" x="405" y="894.8105"/><text fill="#000000" font-family="sans-serif" font-size="14" lengthAdjust="spacing" textLength="135" x="417" y="902.1074">username: Username</text><rect fill="none" height="6" style="stroke:#C82930;stroke-width:1.0;" width="6" x="405" y="913.4316"/><text fill="#000000" font-family="sans-serif" font-size="14" lengthAdjust="spacing" textLength="129" x="417" y="920.7285">password: Password</text><rect fill="none" height="6" style="stroke:#C82930;stroke-width:1.0;" width="6" x="405" y="932.0527"/><text fill="#000000" font-family="sans-serif" font-size="14" lengthAdjust="spacing" textLength="79" x="417" y="939.3496">name: Name</text><rect fill="none" height="6" style="stroke:#C82930;stroke-width:1.0;" width="6" x="405" y="950.6738"/><text fill="#000000" font-family="sans-serif" font-size="14" lengthAdjust="spacing" textLength="127" x="417" y="957.9707">email: EmailAddress</text><rect fill="none" height="6" style="stroke:#C82930;stroke-width:1.0;" width="6" x="405" y="969.2949"/><text fill="#000000" font-family="sans-serif" font-size="14" lengthAdjust="spacing" textLength="133" x="417" y="976.5918">createdOn: Calendar</text><rect fill="none" height="6" style="stroke:#C82930;stroke-width:1.0;" width="6" x="405" y="987.916"/><text fill="#000000" font-family="sans-serif" font-size="14" lengthAdjust="spacing" textLength="89" x="417" y="995.2129">roles: RoleSet</text><rect fill="none" height="6" style="stroke:#C82930;stroke-width:1.0;" width="6" x="405" y="1006.5371"/><text fill="#000000" font-family="sans-serif" font-size="14" lengthAdjust="spacing" textLength="142" x="417" y="1013.834">policy: PasswordPolicy</text><rect fill="none" height="6" style="stroke:#C82930;stroke-width:1.0;" width="6" x="405" y="1025.1582"/><text fill="#000000" font-family="sans-serif" font-size="14" lengthAdjust="spacing" textLength="174" x="417" y="1032.4551">encoder: PasswordEncoder</text><line style="stroke:#181818;stroke-width:0.5;" x1="398" x2="596" y1="1039.9688" y2="1039.9688"/><ellipse cx="408" cy="1054.7793" fill="#84BE84" rx="3" ry="3" style="stroke:#038048;stroke-width:1.0;"/><text fill="#000000" font-family="sans-serif" font-size="14" lengthAdjust="spacing" textLength="34" x="417" y="1059.0762">with()</text><ellipse cx="408" cy="1073.4004" fill="#84BE84" rx="3" ry="3" style="stroke:#038048;stroke-width:1.0;"/><text fill="#000000" font-family="sans-serif" font-size="14" lengthAdjust="spacing" textLength="98" x="417" y="1077.6973">withUsername()</text><ellipse cx="408" cy="1092.0215" fill="#84BE84" rx="3" ry="3" style="stroke:#038048;stroke-width:1.0;"/><text fill="#000000" font-family="sans-serif" font-size="14" lengthAdjust="spacing" textLength="95" x="417" y="1096.3184">withPassword()</text><ellipse cx="408" cy="1110.6426" fill="#84BE84" rx="3" ry="3" style="stroke:#038048;stroke-width:1.0;"/><text fill="#000000" font-family="sans-serif" font-size="14" lengthAdjust="spacing" textLength="70" x="417" y="1114.9395">withName()</text><ellipse cx="408" cy="1129.2637" fill="#84BE84" rx="3" ry="3" style="stroke:#038048;stroke-width:1.0;"/><text fill="#000000" font-family="sans-serif" font-size="14" lengthAdjust="spacing" textLength="68" x="417" y="1133.5605">withEmail()</text><ellipse cx="408" cy="1147.8848" fill="#84BE84" rx="3" ry="3" style="stroke:#038048;stroke-width:1.0;"/><text fill="#000000" font-family="sans-serif" font-size="14" lengthAdjust="spacing" textLength="70" x="417" y="1152.1816">withRoles()</text><ellipse cx="408" cy="1166.5059" fill="#84BE84" rx="3" ry="3" style="stroke:#038048;stroke-width:1.0;"/><text fill="#000000" font-family="sans-serif" font-size="14" lengthAdjust="spacing" textLength="77" x="417" y="1170.8027">createdOn()</text><ellipse cx="408" cy="1185.127" fill="#84BE84" rx="3" ry="3" style="stroke:#038048;stroke-width:1.0;"/><text fill="#000000" font-family="sans-serif" font-size="14" lengthAdjust="spacing" textLength="40" x="417" y="1189.4238">build()</text></g><!--link UserActivationController to SysUserDTO--><g id="link_UserActivationController_SysUserDTO"><path codeLine="102" d="M258.59,459.13 C232.32,482.31 201.74,510.62 176,538 C170.34,544.02 168.5961,545.8302 162.9561,552.2902 " fill="none" id="UserActivationController-to-SysUserDTO" style="stroke:#181818;stroke-width:1.0;stroke-dasharray:7.0,7.0;"/><polygon fill="#181818" points="159.01,556.81,167.9423,552.661,162.2984,553.0435,161.9159,547.3996,159.01,556.81" style="stroke:#181818;stroke-width:1.0;"/></g><!--link UserActivationUI to SysUserDTO--><g id="link_UserActivationUI_SysUserDTO"><path codeLine="103" d="M257,294.11 C240.04,312.59 222.6,333.7 209,355 C170.88,414.7 141.8747,482.2701 120.1247,541.2901 " fill="none" id="UserActivationUI-to-SysUserDTO" style="stroke:#181818;stroke-width:1.0;stroke-dasharray:7.0,7.0;"/><polygon fill="#181818" points="118.05,546.92,124.9153,539.8583,119.7789,542.2284,117.4088,537.092,118.05,546.92" style="stroke:#181818;stroke-width:1.0;"/></g><!--link UserManagementService to SystemUserBuilder--><g id="link_UserManagementService_SystemUserBuilder"><path codeLine="105" d="M497,772.12 C497,797.22 497,818.26 497,844.98 " fill="none" id="UserManagementService-to-SystemUserBuilder" style="stroke:#181818;stroke-width:1.0;stroke-dasharray:7.0,7.0;"/><polygon fill="#181818" points="497,850.98,501,841.98,497,845.98,493,841.98,497,850.98" style="stroke:#181818;stroke-width:1.0;"/></g><!--link AdminUI to RegisterUserUI--><g id="link_AdminUI_RegisterUserUI"><path codeLine="106" d="M439.11,111.14 C459.51,143.62 481.7192,179.0088 497.3492,203.8988 " fill="none" id="AdminUI-to-RegisterUserUI" style="stroke:#181818;stroke-width:1.0;stroke-dasharray:7.0,7.0;"/><polygon fill="#181818" points="500.54,208.98,499.1413,199.231,497.881,204.7457,492.3663,203.4854,500.54,208.98" style="stroke:#181818;stroke-width:1.0;"/></g><!--link RegisterUserUI to RegisterUserController--><g id="link_RegisterUserUI_RegisterUserController"><path codeLine="107" d="M517.83,257.2 C521.48,287.09 527.1237,333.2841 531.2637,367.2341 " fill="none" id="RegisterUserUI-to-RegisterUserController" style="stroke:#181818;stroke-width:1.0;stroke-dasharray:7.0,7.0;"/><polygon fill="#181818" points="531.99,373.19,534.8712,363.772,531.3848,368.2268,526.93,364.7404,531.99,373.19" style="stroke:#181818;stroke-width:1.0;"/></g><!--link RegisterUserController to PasswordGeneratorService--><g id="link_RegisterUserController_PasswordGeneratorService"><path codeLine="108" d="M564.42,440.67 C605.35,487.72 676.5325,569.5427 717.5225,616.6727 " fill="none" id="RegisterUserController-to-PasswordGeneratorService" style="stroke:#181818;stroke-width:1.0;stroke-dasharray:7.0,7.0;"/><polygon fill="#181818" points="721.46,621.2,718.572,611.7841,718.1788,617.4273,712.5356,617.0341,721.46,621.2" style="stroke:#181818;stroke-width:1.0;"/></g><!--link UserActivationController to UserManagementService--><g id="link_UserActivationController_UserManagementService"><path codeLine="109" d="M411.32,452.32 C441.44,467.59 468.4,482.49 473,489 C483.2,503.42 488.4545,514.5043 492.7445,531.9143 " fill="none" id="UserActivationController-to-UserManagementService" style="stroke:#181818;stroke-width:1.0;stroke-dasharray:7.0,7.0;"/><polygon fill="#181818" points="494.18,537.74,495.9105,528.0444,492.9837,532.8852,488.1429,529.9584,494.18,537.74" style="stroke:#181818;stroke-width:1.0;"/></g><!--link UserActivationController to UserManagementService--><g id="link_UserActivationController_UserManagementService"><path codeLine="117" d="M354.35,459.05 C365.37,474.81 377.61,492.18 389,508 C396,517.72 399.7595,522.9359 407.1195,533.0059 " fill="none" id="UserActivationController-to-UserManagementService-1" style="stroke:#181818;stroke-width:1.0;"/><polygon fill="#181818" points="410.66,537.85,408.5787,528.2236,407.7096,533.8133,402.1199,532.9442,410.66,537.85" style="stroke:#181818;stroke-width:1.0;"/><text fill="#000000" font-family="sans-serif" font-size="13" lengthAdjust="spacing" textLength="74" x="390" y="504.0283">getUserList()</text></g><!--link RegisterUserController to UserManagementService--><g id="link_RegisterUserController_UserManagementService"><path codeLine="110" d="M530.82,440.67 C526.83,465.83 521.9997,496.294 516.3497,531.924 " fill="none" id="RegisterUserController-to-UserManagementService" style="stroke:#181818;stroke-width:1.0;stroke-dasharray:7.0,7.0;"/><polygon fill="#181818" points="515.41,537.85,520.7702,529.5875,516.1931,532.9117,512.8689,528.3346,515.41,537.85" style="stroke:#181818;stroke-width:1.0;"/></g><!--link RegisterUserController to ListRolesService--><g id="link_RegisterUserController_ListRolesService"><path codeLine="111" d="M624.17,427.55 C696.2,446.75 797.87,481.53 872,538 C901.51,560.48 922.6134,590.5651 937.7234,616.3151 " fill="none" id="RegisterUserController-to-ListRolesService" style="stroke:#181818;stroke-width:1.0;stroke-dasharray:7.0,7.0;"/><polygon fill="#181818" points="940.76,621.49,939.655,611.7033,938.2295,617.1776,932.7552,615.7521,940.76,621.49" style="stroke:#181818;stroke-width:1.0;"/></g><!--link AdminUI to UserActivationUI--><g id="link_AdminUI_UserActivationUI"><path codeLine="112" d="M380.84,111.14 C371.06,130.25 362.5927,146.7884 352.4427,166.6284 " fill="none" id="AdminUI-to-UserActivationUI" style="stroke:#181818;stroke-width:1.0;stroke-dasharray:7.0,7.0;"/><polygon fill="#181818" points="349.71,171.97,357.3701,165.7795,351.9873,167.5187,350.248,162.1358,349.71,171.97" style="stroke:#181818;stroke-width:1.0;"/></g><!--link UserActivationUI to UserActivationController--><g id="link_UserActivationUI_UserActivationController"><path codeLine="113" d="M319,294.16 C319,313.92 319,329.69 319,348.73 " fill="none" id="UserActivationUI-to-UserActivationController" style="stroke:#181818;stroke-width:1.0;stroke-dasharray:7.0,7.0;"/><polygon fill="#181818" points="319,354.73,323,345.73,319,349.73,315,345.73,319,354.73" style="stroke:#181818;stroke-width:1.0;"/></g><!--link UserActivationController to PersistenceContext--><g id="link_UserActivationController_PersistenceContext"><path codeLine="114" d="M287.34,459.28 C282.73,468.85 278.65,479 276,489 C264.14,533.74 264.8172,581.7156 267.2572,615.4556 " fill="none" id="UserActivationController-to-PersistenceContext" style="stroke:#181818;stroke-width:1.0;stroke-dasharray:7.0,7.0;"/><polygon fill="#181818" points="267.69,621.44,271.0304,612.1749,267.3294,616.453,263.0513,612.752,267.69,621.44" style="stroke:#181818;stroke-width:1.0;"/><text fill="#000000" font-family="sans-serif" font-size="13" lengthAdjust="spacing" textLength="75" x="277" y="504.0283">repositories()</text></g><!--link PersistenceContext to RepositoryFactory--><g id="link_PersistenceContext_RepositoryFactory"><path codeLine="115" d="M265.41,688.57 C256.01,743.3 237.7648,849.6064 224.1548,928.9164 " fill="none" id="PersistenceContext-to-RepositoryFactory" style="stroke:#181818;stroke-width:1.0;"/><polygon fill="#181818" points="223.14,934.83,228.6046,926.6362,223.9857,929.902,220.7198,925.2831,223.14,934.83" style="stroke:#181818;stroke-width:1.0;"/><text fill="#000000" font-family="sans-serif" font-size="13" lengthAdjust="spacing" textLength="44" x="246" y="817.0283">create()</text></g><!--link RepositoryFactory to UserRepository--><g id="link_RepositoryFactory_UserRepository"><path codeLine="116" d="M281.72,1113.2 C329.44,1170.31 384.1924,1235.8161 413.9024,1271.3661 " fill="none" id="RepositoryFactory-to-UserRepository" style="stroke:#181818;stroke-width:1.0;"/><polygon fill="#181818" points="417.75,1275.97,415.0479,1266.4991,414.5437,1272.1334,408.9093,1271.6292,417.75,1275.97" style="stroke:#181818;stroke-width:1.0;"/><text fill="#000000" font-family="sans-serif" font-size="13" lengthAdjust="spacing" textLength="44" x="388" y="1242.0283">create()</text></g><!--link UserManagementService to UserRepository--><g id="link_UserManagementService_UserRepository"><path codeLine="118" d="M581.12,772.19 C595.1,797.08 607.48,824.03 615,851 C656.33,999.12 692.1,1063.95 615,1197 C590.71,1238.91 547.599,1262.9493 507.269,1278.2693 " fill="none" id="UserManagementService-to-UserRepository" style="stroke:#181818;stroke-width:1.0;"/><polygon fill="#181818" points="501.66,1280.4,511.4939,1280.9433,506.3341,1278.6245,508.653,1273.4647,501.66,1280.4" style="stroke:#181818;stroke-width:1.0;"/><text fill="#000000" font-family="sans-serif" font-size="13" lengthAdjust="spacing" textLength="43" x="661" y="1029.5283">findAll()</text></g><!--SRC=[dLRRJXin47tVh_1RGL50VTrAbSAb5L89YC07cDqXMFBQgUrD6Y7-lMDxlROtkv0s3oHpvkOvCsFpvTMOZIxFppUS2jCs_AoIpNd5gTRpcj6rearHE94iweQ9fvktWk1dfc3Dj07rf46Td7fi3SQAlr0He8OAkWQBQeJUGomBB2h3jjGm6OEE1AZbwbNkWaIzZmjuqkAVO0KZcebibr8O9Ja7DPtr__BSOvMM5561JG9_J4_MHcfcf6AGqV0GyFqFZ8jVRqKn4x1xL5HecqaAohjG9wVVV33IEZR7RCYMggy3krwiE0DXdevqJgrxKBErQ3SFyBi5ROw9Cd10t2cGWAGrjsv66aot0hLb5H1FsznL43agdNMKEoEaMzQWIdAF0NTIrTSUwDGRoLcrZzfx9tVd2rEyX5qwoCHrkHzRZyNUrxc2Sfu3zjXtBpSrLiJCVYJ0OQu8lYVCn5ez8u6yC3rn1G-6Uh2VlTDghorqzNWNI5uPnSIQ2Df0Za136L_KjGAjSmtDm0kguK5oq0HF468yI_nDHSUaR_lCI1yWkJ2Mc3OHhvES2RmorBJPweHs_WG1YY95tUpqE-rWkCL9u507wpI2tNTtxDoJ8uma6MYSygYSeot1M-qzaexnB7ZHCewpcKsuPTxFTjA3JPSh3cwdyDRBQEdQL9BhmsvL2koqtecIN58EegPXAMoZT4biXIimds_A9ris8pjcNlk9ja8e9mEJDaHmERHobMH8w4HtDOMoUkJPikexDNNNaxFvzsJuY-4BDDGNupTJPvLti-YUHgVDHw38nGEBUC1Y77OUKuFtSRMZ5NoKvfyTXYkK4J5aU9pogGe-BktmfIKb6Roo8pPpn_xWpKLFFr7eSwXqFlbTd3fCdd8-nITwv_zmZ5kDfdrXebvmknj_0G00]--></g></svg>