<?xml version="1.0" encoding="us-ascii" standalone="no"?><svg xmlns="http://www.w3.org/2000/svg" xmlns:xlink="http://www.w3.org/1999/xlink" contentStyleType="text/css" height="523.8px" preserveAspectRatio="none" style="width:603px;height:523px;background:#FFFFFF;" version="1.1" viewBox="0 0 603 523" width="603.6px" zoomAndPan="magnify"><defs/><g><rect fill="#FFFFFF" height="13.9746" style="stroke:#181818;stroke-width:0.6;" width="6" x="19.5" y="29.1727"/><rect fill="#FFFFFF" height="93.873" style="stroke:#181818;stroke-width:0.6;" width="6" x="96.3" y="43.1473"/><rect fill="#FFFFFF" height="61.1238" style="stroke:#181818;stroke-width:0.6;" width="6" x="96.3" y="230.8934"/><rect fill="#FFFFFF" height="55.3277" style="stroke:#181818;stroke-width:0.6;" width="6" x="96.3" y="348.341"/><rect fill="#FFFFFF" height="36.1746" style="stroke:#181818;stroke-width:0.6;" width="6" x="96.3" y="459.9926"/><rect fill="#FFFFFF" height="18.7746" style="stroke:#181818;stroke-width:0.6;" width="6" x="190.5" y="61.9219"/><rect fill="#FFFFFF" height="18.7746" style="stroke:#181818;stroke-width:0.6;" width="6" x="190.5" y="137.0203"/><rect fill="#FFFFFF" height="18.7746" style="stroke:#181818;stroke-width:0.6;" width="6" x="190.5" y="212.1188"/><rect fill="#FFFFFF" height="18.7746" style="stroke:#181818;stroke-width:0.6;" width="6" x="190.5" y="292.0172"/><rect fill="#FFFFFF" height="18.7746" style="stroke:#181818;stroke-width:0.6;" width="6" x="190.5" y="329.5664"/><rect fill="#FFFFFF" height="18.7746" style="stroke:#181818;stroke-width:0.6;" width="6" x="190.5" y="403.6688"/><rect fill="#FFFFFF" height="18.7746" style="stroke:#181818;stroke-width:0.6;" width="6" x="190.5" y="441.218"/><rect fill="#FFFFFF" height="18.7746" style="stroke:#181818;stroke-width:0.6;" width="6" x="284.1" y="80.6965"/><rect fill="#FFFFFF" height="18.7746" style="stroke:#181818;stroke-width:0.6;" width="6" x="369.9" y="99.4711"/><rect fill="#FFFFFF" height="18.7746" style="stroke:#181818;stroke-width:0.6;" width="6" x="448.2" y="174.5695"/><rect fill="#FFFFFF" height="18.7746" style="stroke:#181818;stroke-width:0.6;" width="6" x="539.1" y="155.7949"/><rect fill="#FFFFFF" height="18.7746" style="stroke:#181818;stroke-width:0.6;" width="6" x="539.1" y="193.3441"/><rect fill="#FFFFFF" height="18.7746" style="stroke:#181818;stroke-width:0.6;" width="6" x="539.1" y="310.7918"/><rect fill="#FFFFFF" height="18.7746" style="stroke:#181818;stroke-width:0.6;" width="6" x="539.1" y="422.4434"/><rect fill="none" height="224.8992" style="stroke:#000000;stroke-width:0.8999999999999999;" width="541.2" x="58.5" y="266.468"/><line style="stroke:#181818;stroke-width:0.3;stroke-dasharray:5.0,5.0;" x1="22.2" x2="22.2" y1="23.1727" y2="501.5672"/><line style="stroke:#181818;stroke-width:0.3;stroke-dasharray:5.0,5.0;" x1="99.3" x2="99.3" y1="23.1727" y2="501.5672"/><line style="stroke:#181818;stroke-width:0.3;stroke-dasharray:5.0,5.0;" x1="193.5" x2="193.5" y1="23.1727" y2="501.5672"/><line style="stroke:#181818;stroke-width:0.3;stroke-dasharray:5.0,5.0;" x1="287.1" x2="287.1" y1="23.1727" y2="501.5672"/><line style="stroke:#181818;stroke-width:0.3;stroke-dasharray:5.0,5.0;" x1="372.9" x2="372.9" y1="23.1727" y2="501.5672"/><line style="stroke:#181818;stroke-width:0.3;stroke-dasharray:5.0,5.0;" x1="450.9" x2="450.9" y1="23.1727" y2="501.5672"/><line style="stroke:#181818;stroke-width:0.3;stroke-dasharray:5.0,5.0;" x1="542.1" x2="542.1" y1="23.1727" y2="501.5672"/><rect fill="#E2E2F0" height="19.5727" rx="1.5" ry="1.5" style="stroke:#181818;stroke-width:0.3;" width="39" x="3" y="3"/><text fill="#000000" font-family="sans-serif" font-size="8.4" lengthAdjust="spacing" textLength="30.6" x="7.2" y="16.2645">AdminUI</text><rect fill="#E2E2F0" height="19.5727" rx="1.5" ry="1.5" style="stroke:#181818;stroke-width:0.3;" width="39" x="3" y="500.9672"/><text fill="#000000" font-family="sans-serif" font-size="8.4" lengthAdjust="spacing" textLength="30.6" x="7.2" y="514.2316">AdminUI</text><rect fill="#E2E2F0" height="19.5727" rx="1.5" ry="1.5" style="stroke:#181818;stroke-width:0.3;" width="69.6" x="64.5" y="3"/><text fill="#000000" font-family="sans-serif" font-size="8.4" lengthAdjust="spacing" textLength="61.2" x="68.7" y="16.2645">UserActivationUI</text><rect fill="#E2E2F0" height="19.5727" rx="1.5" ry="1.5" style="stroke:#181818;stroke-width:0.3;" width="69.6" x="64.5" y="500.9672"/><text fill="#000000" font-family="sans-serif" font-size="8.4" lengthAdjust="spacing" textLength="61.2" x="68.7" y="514.2316">UserActivationUI</text><rect fill="#E2E2F0" height="19.5727" rx="1.5" ry="1.5" style="stroke:#181818;stroke-width:0.3;" width="93.6" x="146.7" y="3"/><text fill="#000000" font-family="sans-serif" font-size="8.4" lengthAdjust="spacing" textLength="85.2" x="150.9" y="16.2645">ManageUserController</text><rect fill="#E2E2F0" height="19.5727" rx="1.5" ry="1.5" style="stroke:#181818;stroke-width:0.3;" width="93.6" x="146.7" y="500.9672"/><text fill="#000000" font-family="sans-serif" font-size="8.4" lengthAdjust="spacing" textLength="85.2" x="150.9" y="514.2316">ManageUserController</text><rect fill="#E2E2F0" height="19.5727" rx="1.5" ry="1.5" style="stroke:#181818;stroke-width:0.3;" width="81.6" x="246.3" y="3"/><text fill="#000000" font-family="sans-serif" font-size="8.4" lengthAdjust="spacing" textLength="73.2" x="250.5" y="16.2645">PersistenceContext</text><rect fill="#E2E2F0" height="19.5727" rx="1.5" ry="1.5" style="stroke:#181818;stroke-width:0.3;" width="81.6" x="246.3" y="500.9672"/><text fill="#000000" font-family="sans-serif" font-size="8.4" lengthAdjust="spacing" textLength="73.2" x="250.5" y="514.2316">PersistenceContext</text><rect fill="#E2E2F0" height="19.5727" rx="1.5" ry="1.5" style="stroke:#181818;stroke-width:0.3;" width="78" x="333.9" y="3"/><text fill="#000000" font-family="sans-serif" font-size="8.4" lengthAdjust="spacing" textLength="69.6" x="338.1" y="16.2645">RepositoryFactory</text><rect fill="#E2E2F0" height="19.5727" rx="1.5" ry="1.5" style="stroke:#181818;stroke-width:0.3;" width="78" x="333.9" y="500.9672"/><text fill="#000000" font-family="sans-serif" font-size="8.4" lengthAdjust="spacing" textLength="69.6" x="338.1" y="514.2316">RepositoryFactory</text><rect fill="#E2E2F0" height="19.5727" rx="1.5" ry="1.5" style="stroke:#181818;stroke-width:0.3;" width="66.6" x="417.9" y="3"/><text fill="#000000" font-family="sans-serif" font-size="8.4" lengthAdjust="spacing" textLength="58.2" x="422.1" y="16.2645">UserRepository</text><rect fill="#E2E2F0" height="19.5727" rx="1.5" ry="1.5" style="stroke:#181818;stroke-width:0.3;" width="66.6" x="417.9" y="500.9672"/><text fill="#000000" font-family="sans-serif" font-size="8.4" lengthAdjust="spacing" textLength="58.2" x="422.1" y="514.2316">UserRepository</text><rect fill="#E2E2F0" height="19.5727" rx="1.5" ry="1.5" style="stroke:#181818;stroke-width:0.3;" width="103.2" x="490.5" y="3"/><text fill="#000000" font-family="sans-serif" font-size="8.4" lengthAdjust="spacing" textLength="94.8" x="494.7" y="16.2645">UserManagementService</text><rect fill="#E2E2F0" height="19.5727" rx="1.5" ry="1.5" style="stroke:#181818;stroke-width:0.3;" width="103.2" x="490.5" y="500.9672"/><text fill="#000000" font-family="sans-serif" font-size="8.4" lengthAdjust="spacing" textLength="94.8" x="494.7" y="514.2316">UserManagementService</text><rect fill="#FFFFFF" height="13.9746" style="stroke:#181818;stroke-width:0.6;" width="6" x="19.5" y="29.1727"/><rect fill="#FFFFFF" height="93.873" style="stroke:#181818;stroke-width:0.6;" width="6" x="96.3" y="43.1473"/><rect fill="#FFFFFF" height="61.1238" style="stroke:#181818;stroke-width:0.6;" width="6" x="96.3" y="230.8934"/><rect fill="#FFFFFF" height="55.3277" style="stroke:#181818;stroke-width:0.6;" width="6" x="96.3" y="348.341"/><rect fill="#FFFFFF" height="36.1746" style="stroke:#181818;stroke-width:0.6;" width="6" x="96.3" y="459.9926"/><rect fill="#FFFFFF" height="18.7746" style="stroke:#181818;stroke-width:0.6;" width="6" x="190.5" y="61.9219"/><rect fill="#FFFFFF" height="18.7746" style="stroke:#181818;stroke-width:0.6;" width="6" x="190.5" y="137.0203"/><rect fill="#FFFFFF" height="18.7746" style="stroke:#181818;stroke-width:0.6;" width="6" x="190.5" y="212.1188"/><rect fill="#FFFFFF" height="18.7746" style="stroke:#181818;stroke-width:0.6;" width="6" x="190.5" y="292.0172"/><rect fill="#FFFFFF" height="18.7746" style="stroke:#181818;stroke-width:0.6;" width="6" x="190.5" y="329.5664"/><rect fill="#FFFFFF" height="18.7746" style="stroke:#181818;stroke-width:0.6;" width="6" x="190.5" y="403.6688"/><rect fill="#FFFFFF" height="18.7746" style="stroke:#181818;stroke-width:0.6;" width="6" x="190.5" y="441.218"/><rect fill="#FFFFFF" height="18.7746" style="stroke:#181818;stroke-width:0.6;" width="6" x="284.1" y="80.6965"/><rect fill="#FFFFFF" height="18.7746" style="stroke:#181818;stroke-width:0.6;" width="6" x="369.9" y="99.4711"/><rect fill="#FFFFFF" height="18.7746" style="stroke:#181818;stroke-width:0.6;" width="6" x="448.2" y="174.5695"/><rect fill="#FFFFFF" height="18.7746" style="stroke:#181818;stroke-width:0.6;" width="6" x="539.1" y="155.7949"/><rect fill="#FFFFFF" height="18.7746" style="stroke:#181818;stroke-width:0.6;" width="6" x="539.1" y="193.3441"/><rect fill="#FFFFFF" height="18.7746" style="stroke:#181818;stroke-width:0.6;" width="6" x="539.1" y="310.7918"/><rect fill="#FFFFFF" height="18.7746" style="stroke:#181818;stroke-width:0.6;" width="6" x="539.1" y="422.4434"/><polygon fill="#181818" points="89.1,40.7473,95.1,43.1473,89.1,45.5473,91.5,43.1473" style="stroke:#181818;stroke-width:0.6;"/><line style="stroke:#181818;stroke-width:0.6;" x1="22.5" x2="92.7" y1="43.1473" y2="43.1473"/><text fill="#000000" font-family="sans-serif" font-size="7.8" font-weight="bold" lengthAdjust="spacing" textLength="4.2" x="26.7" y="39.9896">1</text><text fill="#000000" font-family="sans-serif" font-size="7.8" lengthAdjust="spacing" textLength="52.8" x="33.3" y="39.9896">manageUsers()</text><polygon fill="#181818" points="183.3,59.5219,189.3,61.9219,183.3,64.3219,185.7,61.9219" style="stroke:#181818;stroke-width:0.6;"/><line style="stroke:#181818;stroke-width:0.6;" x1="102.3" x2="186.9" y1="61.9219" y2="61.9219"/><text fill="#000000" font-family="sans-serif" font-size="7.8" font-weight="bold" lengthAdjust="spacing" textLength="4.2" x="106.5" y="58.7643">2</text><text fill="#000000" font-family="sans-serif" font-size="7.8" lengthAdjust="spacing" textLength="26.4" x="113.1" y="58.7643">create()</text><polygon fill="#181818" points="276.9,78.2965,282.9,80.6965,276.9,83.0965,279.3,80.6965" style="stroke:#181818;stroke-width:0.6;"/><line style="stroke:#181818;stroke-width:0.6;" x1="193.5" x2="280.5" y1="80.6965" y2="80.6965"/><text fill="#000000" font-family="sans-serif" font-size="7.8" font-weight="bold" lengthAdjust="spacing" textLength="4.2" x="197.7" y="77.5389">3</text><text fill="#000000" font-family="sans-serif" font-size="7.8" lengthAdjust="spacing" textLength="45" x="204.3" y="77.5389">repositories()</text><polygon fill="#181818" points="362.7,97.0711,368.7,99.4711,362.7,101.8711,365.1,99.4711" style="stroke:#181818;stroke-width:0.6;"/><line style="stroke:#181818;stroke-width:0.6;" x1="287.1" x2="366.3" y1="99.4711" y2="99.4711"/><text fill="#000000" font-family="sans-serif" font-size="7.8" font-weight="bold" lengthAdjust="spacing" textLength="4.2" x="291.3" y="96.3135">4</text><text fill="#000000" font-family="sans-serif" font-size="7.8" lengthAdjust="spacing" textLength="26.4" x="297.9" y="96.3135">create()</text><polygon fill="#181818" points="444,115.8457,450,118.2457,444,120.6457,446.4,118.2457" style="stroke:#181818;stroke-width:0.6;"/><line style="stroke:#181818;stroke-width:0.6;" x1="372.9" x2="447.6" y1="118.2457" y2="118.2457"/><text fill="#000000" font-family="sans-serif" font-size="7.8" font-weight="bold" lengthAdjust="spacing" textLength="4.2" x="377.1" y="115.0881">5</text><text fill="#000000" font-family="sans-serif" font-size="7.8" lengthAdjust="spacing" textLength="26.4" x="383.7" y="115.0881">create()</text><polygon fill="#181818" points="183.3,134.6203,189.3,137.0203,183.3,139.4203,185.7,137.0203" style="stroke:#181818;stroke-width:0.6;"/><line style="stroke:#181818;stroke-width:0.6;" x1="99.3" x2="186.9" y1="137.0203" y2="137.0203"/><text fill="#000000" font-family="sans-serif" font-size="7.8" font-weight="bold" lengthAdjust="spacing" textLength="4.2" x="103.5" y="133.8627">6</text><text fill="#000000" font-family="sans-serif" font-size="7.8" lengthAdjust="spacing" textLength="44.4" x="110.1" y="133.8627">getUserList()</text><polygon fill="#181818" points="531.9,153.3949,537.9,155.7949,531.9,158.1949,534.3,155.7949" style="stroke:#181818;stroke-width:0.6;"/><line style="stroke:#181818;stroke-width:0.6;" x1="193.5" x2="535.5" y1="155.7949" y2="155.7949"/><text fill="#000000" font-family="sans-serif" font-size="7.8" font-weight="bold" lengthAdjust="spacing" textLength="4.2" x="197.7" y="152.6373">7</text><text fill="#000000" font-family="sans-serif" font-size="7.8" lengthAdjust="spacing" textLength="44.4" x="204.3" y="152.6373">getUserList()</text><polygon fill="#181818" points="460.8,172.1695,454.8,174.5695,460.8,176.9695,458.4,174.5695" style="stroke:#181818;stroke-width:0.6;"/><line style="stroke:#181818;stroke-width:0.6;" x1="457.2" x2="541.5" y1="174.5695" y2="174.5695"/><text fill="#000000" font-family="sans-serif" font-size="7.8" font-weight="bold" lengthAdjust="spacing" textLength="4.2" x="464.4" y="171.4119">8</text><text fill="#000000" font-family="sans-serif" font-size="7.8" lengthAdjust="spacing" textLength="25.8" x="471" y="171.4119">findAll()</text><polygon fill="#181818" points="531.9,190.9441,537.9,193.3441,531.9,195.7441,534.3,193.3441" style="stroke:#181818;stroke-width:0.6;"/><line style="stroke:#181818;stroke-width:0.6;stroke-dasharray:2.0,2.0;" x1="451.2" x2="535.5" y1="193.3441" y2="193.3441"/><text fill="#000000" font-family="sans-serif" font-size="7.8" font-weight="bold" lengthAdjust="spacing" textLength="4.2" x="455.4" y="190.1865">9</text><text fill="#000000" font-family="sans-serif" font-size="7.8" lengthAdjust="spacing" textLength="19.2" x="462" y="190.1865">users</text><polygon fill="#181818" points="203.1,209.7188,197.1,212.1188,203.1,214.5187,200.7,212.1188" style="stroke:#181818;stroke-width:0.6;"/><line style="stroke:#181818;stroke-width:0.6;stroke-dasharray:2.0,2.0;" x1="199.5" x2="541.5" y1="212.1188" y2="212.1188"/><text fill="#000000" font-family="sans-serif" font-size="7.8" font-weight="bold" lengthAdjust="spacing" textLength="8.4" x="206.7" y="208.9611">10</text><text fill="#000000" font-family="sans-serif" font-size="7.8" lengthAdjust="spacing" textLength="19.2" x="217.5" y="208.9611">users</text><polygon fill="#181818" points="108.9,228.4934,102.9,230.8934,108.9,233.2934,106.5,230.8934" style="stroke:#181818;stroke-width:0.6;"/><line style="stroke:#181818;stroke-width:0.6;stroke-dasharray:2.0,2.0;" x1="105.3" x2="192.9" y1="230.8934" y2="230.8934"/><text fill="#000000" font-family="sans-serif" font-size="7.8" font-weight="bold" lengthAdjust="spacing" textLength="8.4" x="112.5" y="227.7357">11</text><text fill="#000000" font-family="sans-serif" font-size="7.8" lengthAdjust="spacing" textLength="19.2" x="123.3" y="227.7357">users</text><line style="stroke:#181818;stroke-width:0.6;" x1="102.3" x2="127.5" y1="249.668" y2="249.668"/><line style="stroke:#181818;stroke-width:0.6;" x1="127.5" x2="127.5" y1="249.668" y2="257.468"/><line style="stroke:#181818;stroke-width:0.6;" x1="102.9" x2="127.5" y1="257.468" y2="257.468"/><polygon fill="#181818" points="108.9,255.068,102.9,257.468,108.9,259.868,106.5,257.468" style="stroke:#181818;stroke-width:0.6;"/><text fill="#000000" font-family="sans-serif" font-size="7.8" font-weight="bold" lengthAdjust="spacing" textLength="8.4" x="106.5" y="246.5104">12</text><text fill="#000000" font-family="sans-serif" font-size="7.8" lengthAdjust="spacing" textLength="32.4" x="117.3" y="246.5104">doShow()</text><path d="M58.5,266.468 L95.1,266.468 L95.1,272.0426 L89.1,278.0426 L58.5,278.0426 L58.5,266.468 " fill="#EEEEEE" style="stroke:#000000;stroke-width:0.8999999999999999;"/><rect fill="none" height="224.8992" style="stroke:#000000;stroke-width:0.8999999999999999;" width="541.2" x="58.5" y="266.468"/><text fill="#000000" font-family="sans-serif" font-size="7.8" font-weight="bold" lengthAdjust="spacing" textLength="9.6" x="67.5" y="275.485">alt</text><text fill="#000000" font-family="sans-serif" font-size="6.6" font-weight="bold" lengthAdjust="spacing" textLength="50.4" x="104.1" y="274.79">[if deactivating]</text><polygon fill="#181818" points="183.3,289.6172,189.3,292.0172,183.3,294.4172,185.7,292.0172" style="stroke:#181818;stroke-width:0.6;"/><line style="stroke:#181818;stroke-width:0.6;" x1="99.3" x2="186.9" y1="292.0172" y2="292.0172"/><text fill="#000000" font-family="sans-serif" font-size="7.8" font-weight="bold" lengthAdjust="spacing" textLength="8.4" x="103.5" y="288.8596">13</text><text fill="#000000" font-family="sans-serif" font-size="7.8" lengthAdjust="spacing" textLength="55.8" x="114.3" y="288.8596">deactivate(User)</text><polygon fill="#181818" points="531.9,308.3918,537.9,310.7918,531.9,313.1918,534.3,310.7918" style="stroke:#181818;stroke-width:0.6;"/><line style="stroke:#181818;stroke-width:0.6;" x1="193.5" x2="535.5" y1="310.7918" y2="310.7918"/><text fill="#000000" font-family="sans-serif" font-size="7.8" font-weight="bold" lengthAdjust="spacing" textLength="8.4" x="197.7" y="307.6342">14</text><text fill="#000000" font-family="sans-serif" font-size="7.8" lengthAdjust="spacing" textLength="70.8" x="208.5" y="307.6342">deactivateUser(user)</text><polygon fill="#181818" points="203.1,327.1664,197.1,329.5664,203.1,331.9664,200.7,329.5664" style="stroke:#181818;stroke-width:0.6;"/><line style="stroke:#181818;stroke-width:0.6;stroke-dasharray:2.0,2.0;" x1="199.5" x2="541.5" y1="329.5664" y2="329.5664"/><text fill="#000000" font-family="sans-serif" font-size="7.8" font-weight="bold" lengthAdjust="spacing" textLength="8.4" x="206.7" y="326.4088">15</text><text fill="#000000" font-family="sans-serif" font-size="7.8" lengthAdjust="spacing" textLength="15" x="217.5" y="326.4088">user</text><polygon fill="#181818" points="108.9,345.941,102.9,348.341,108.9,350.741,106.5,348.341" style="stroke:#181818;stroke-width:0.6;"/><line style="stroke:#181818;stroke-width:0.6;stroke-dasharray:2.0,2.0;" x1="105.3" x2="192.9" y1="348.341" y2="348.341"/><text fill="#000000" font-family="sans-serif" font-size="7.8" font-weight="bold" lengthAdjust="spacing" textLength="8.4" x="112.5" y="345.1834">16</text><text fill="#000000" font-family="sans-serif" font-size="7.8" lengthAdjust="spacing" textLength="66" x="123.3" y="345.1834">operation message</text><line style="stroke:#181818;stroke-width:0.6;" x1="102.3" x2="127.5" y1="367.1156" y2="367.1156"/><line style="stroke:#181818;stroke-width:0.6;" x1="127.5" x2="127.5" y1="367.1156" y2="374.9156"/><line style="stroke:#181818;stroke-width:0.6;" x1="102.9" x2="127.5" y1="374.9156" y2="374.9156"/><polygon fill="#181818" points="108.9,372.5156,102.9,374.9156,108.9,377.3156,106.5,374.9156" style="stroke:#181818;stroke-width:0.6;"/><text fill="#000000" font-family="sans-serif" font-size="7.8" font-weight="bold" lengthAdjust="spacing" textLength="8.4" x="106.5" y="363.958">17</text><text fill="#000000" font-family="sans-serif" font-size="7.8" lengthAdjust="spacing" textLength="32.4" x="117.3" y="363.958">doShow()</text><line style="stroke:#000000;stroke-width:0.6;stroke-dasharray:2.0,2.0;" x1="58.5" x2="599.7" y1="380.3156" y2="380.3156"/><text fill="#000000" font-family="sans-serif" font-size="6.6" font-weight="bold" lengthAdjust="spacing" textLength="42" x="61.5" y="387.4377">[if activating]</text><polygon fill="#181818" points="183.3,401.2688,189.3,403.6688,183.3,406.0687,185.7,403.6688" style="stroke:#181818;stroke-width:0.6;"/><line style="stroke:#181818;stroke-width:0.6;" x1="99.3" x2="186.9" y1="403.6688" y2="403.6688"/><text fill="#000000" font-family="sans-serif" font-size="7.8" font-weight="bold" lengthAdjust="spacing" textLength="8.4" x="103.5" y="400.5111">18</text><text fill="#000000" font-family="sans-serif" font-size="7.8" lengthAdjust="spacing" textLength="47.4" x="114.3" y="400.5111">activate(User)</text><polygon fill="#181818" points="531.9,420.0434,537.9,422.4434,531.9,424.8434,534.3,422.4434" style="stroke:#181818;stroke-width:0.6;"/><line style="stroke:#181818;stroke-width:0.6;" x1="193.5" x2="535.5" y1="422.4434" y2="422.4434"/><text fill="#000000" font-family="sans-serif" font-size="7.8" font-weight="bold" lengthAdjust="spacing" textLength="8.4" x="197.7" y="419.2857">19</text><text fill="#000000" font-family="sans-serif" font-size="7.8" lengthAdjust="spacing" textLength="62.4" x="208.5" y="419.2857">activateUser(user)</text><polygon fill="#181818" points="203.1,438.818,197.1,441.218,203.1,443.618,200.7,441.218" style="stroke:#181818;stroke-width:0.6;"/><line style="stroke:#181818;stroke-width:0.6;stroke-dasharray:2.0,2.0;" x1="199.5" x2="541.5" y1="441.218" y2="441.218"/><text fill="#000000" font-family="sans-serif" font-size="7.8" font-weight="bold" lengthAdjust="spacing" textLength="8.4" x="206.7" y="438.0604">20</text><text fill="#000000" font-family="sans-serif" font-size="7.8" lengthAdjust="spacing" textLength="15" x="217.5" y="438.0604">user</text><polygon fill="#181818" points="108.9,457.5926,102.9,459.9926,108.9,462.3926,106.5,459.9926" style="stroke:#181818;stroke-width:0.6;"/><line style="stroke:#181818;stroke-width:0.6;stroke-dasharray:2.0,2.0;" x1="105.3" x2="192.9" y1="459.9926" y2="459.9926"/><text fill="#000000" font-family="sans-serif" font-size="7.8" font-weight="bold" lengthAdjust="spacing" textLength="8.4" x="112.5" y="456.835">21</text><text fill="#000000" font-family="sans-serif" font-size="7.8" lengthAdjust="spacing" textLength="66" x="123.3" y="456.835">operation message</text><line style="stroke:#181818;stroke-width:0.6;" x1="102.3" x2="127.5" y1="478.7672" y2="478.7672"/><line style="stroke:#181818;stroke-width:0.6;" x1="127.5" x2="127.5" y1="478.7672" y2="486.5672"/><line style="stroke:#181818;stroke-width:0.6;" x1="102.9" x2="127.5" y1="486.5672" y2="486.5672"/><polygon fill="#181818" points="108.9,484.1672,102.9,486.5672,108.9,488.9672,106.5,486.5672" style="stroke:#181818;stroke-width:0.6;"/><text fill="#000000" font-family="sans-serif" font-size="7.8" font-weight="bold" lengthAdjust="spacing" textLength="8.4" x="106.5" y="475.6096">22</text><text fill="#000000" font-family="sans-serif" font-size="7.8" lengthAdjust="spacing" textLength="32.4" x="117.3" y="475.6096">doShow()</text><!--SRC=[xLJBJiCm4BpxAtoZ74hlFI1LI4X8826gVe1nji6I7y7U5FXxR5gSXvrKGIXSE3NrhcTcTtPzyO9OkVLgLKcciLRoYXkrSl1QW-QmB0GhBLE4i1gDhjKpM48gPb5mKVaBT5CeeNTtdRET0xlXA0uCXUa77vXc9OIK6wFH6YazP3lX4QmJ3WDzo81tx8IVe39EeB4Vjuo7duIwoV2oZp8WwYId3xgyJdJIDLLHdLjSaWAI-_4WAJ91ymovOZqBj-0XF454otObUzkZfXtocFQxQW4zwLdi6CsqEuFlMPF6jmjfqMK0OomrBqKz6TC41dXIh0aEb83XxDuBxQ8cjlxCed1oZ2dGk0Lx41p6UCTDoiAHF4ckVtkXYusKQQafQ2VSMgKUvdAao3giJv-f1NL6mV35WOA7RSug6QbvWiVvzoCXFE_hsKSaGrEOxOjvytOI9f6AFOsCGfTJzg1HkWYnELUXOGePYxfF_uiRCJuWSyw7gS1-_QCAdFFNvfmLa0x2iBH6PSgi_Dca_C_9p7EY2-hVbKy0]--></g></svg>