<?xml version="1.0" encoding="us-ascii" standalone="no"?><svg xmlns="http://www.w3.org/2000/svg" xmlns:xlink="http://www.w3.org/1999/xlink" contentStyleType="text/css" height="1219px" preserveAspectRatio="none" style="width:1013px;height:1219px;background:#FFFFFF;" version="1.1" viewBox="0 0 1013 1219" width="1013px" zoomAndPan="magnify"><defs/><g><!--class OperatorUI--><g id="elem_OperatorUI"><rect codeLine="2" fill="#F1F1F1" height="66.6211" id="OperatorUI" rx="2.5" ry="2.5" style="stroke:#181818;stroke-width:0.5;" width="177" x="399" y="7"/><ellipse cx="448.75" cy="23" fill="#ADD1B2" rx="11" ry="11" style="stroke:#181818;stroke-width:1.0;"/><path d="M451.5156,18.875 Q451.6719,18.6563 451.8594,18.5469 Q452.0469,18.4375 452.2656,18.4375 Q452.6406,18.4375 452.875,18.7031 Q453.1094,18.9531 453.1094,19.5625 L453.1094,21.0156 Q453.1094,21.625 452.875,21.8906 Q452.6406,22.1563 452.2656,22.1563 Q451.9219,22.1563 451.7188,21.9531 Q451.5156,21.7656 451.4063,21.25 Q451.3594,20.8906 451.1719,20.7031 Q450.8438,20.3281 450.2344,20.1094 Q449.625,19.8906 449,19.8906 Q448.2344,19.8906 447.5938,20.2188 Q446.9688,20.5469 446.4688,21.2969 Q445.9844,22.0469 445.9844,23.0781 L445.9844,24.1719 Q445.9844,25.4063 446.875,26.2344 Q447.7656,27.0469 449.3594,27.0469 Q450.2969,27.0469 450.9531,26.7969 Q451.3438,26.6406 451.7656,26.2031 Q452.0313,25.9375 452.1719,25.8594 Q452.3281,25.7813 452.5313,25.7813 Q452.8594,25.7813 453.1094,26.0469 Q453.375,26.2969 453.375,26.6406 Q453.375,26.9844 453.0313,27.3906 Q452.5313,27.9688 451.7344,28.2969 Q450.6563,28.75 449.3594,28.75 Q447.8438,28.75 446.6406,28.125 Q445.6563,27.625 444.9688,26.5625 Q444.2813,25.4844 444.2813,24.2031 L444.2813,23.0469 Q444.2813,21.7188 444.8906,20.5781 Q445.5156,19.4219 446.6094,18.8125 Q447.7031,18.1875 448.9375,18.1875 Q449.6719,18.1875 450.3125,18.3594 Q450.9688,18.5156 451.5156,18.875 Z " fill="#000000"/><text fill="#000000" font-family="sans-serif" font-size="14" lengthAdjust="spacing" textLength="69" x="469.25" y="28.7969">OperatorUI</text><line style="stroke:#181818;stroke-width:0.5;" x1="400" x2="575" y1="39" y2="39"/><line style="stroke:#181818;stroke-width:0.5;" x1="400" x2="575" y1="47" y2="47"/><ellipse cx="410" cy="61.8105" fill="#84BE84" rx="3" ry="3" style="stroke:#038048;stroke-width:1.0;"/><text fill="#000000" font-family="sans-serif" font-size="14" lengthAdjust="spacing" textLength="151" x="419" y="66.1074">changeJobOfferPhase()</text></g><!--class UploadRequirementsFileUI--><g id="elem_UploadRequirementsFileUI"><rect codeLine="7" fill="#F1F1F1" height="48" id="UploadRequirementsFileUI" rx="2.5" ry="2.5" style="stroke:#181818;stroke-width:0.5;" width="199" x="388" y="135"/><ellipse cx="403" cy="151" fill="#ADD1B2" rx="11" ry="11" style="stroke:#181818;stroke-width:1.0;"/><path d="M405.7656,146.875 Q405.9219,146.6563 406.1094,146.5469 Q406.2969,146.4375 406.5156,146.4375 Q406.8906,146.4375 407.125,146.7031 Q407.3594,146.9531 407.3594,147.5625 L407.3594,149.0156 Q407.3594,149.625 407.125,149.8906 Q406.8906,150.1563 406.5156,150.1563 Q406.1719,150.1563 405.9688,149.9531 Q405.7656,149.7656 405.6563,149.25 Q405.6094,148.8906 405.4219,148.7031 Q405.0938,148.3281 404.4844,148.1094 Q403.875,147.8906 403.25,147.8906 Q402.4844,147.8906 401.8438,148.2188 Q401.2188,148.5469 400.7188,149.2969 Q400.2344,150.0469 400.2344,151.0781 L400.2344,152.1719 Q400.2344,153.4063 401.125,154.2344 Q402.0156,155.0469 403.6094,155.0469 Q404.5469,155.0469 405.2031,154.7969 Q405.5938,154.6406 406.0156,154.2031 Q406.2813,153.9375 406.4219,153.8594 Q406.5781,153.7813 406.7813,153.7813 Q407.1094,153.7813 407.3594,154.0469 Q407.625,154.2969 407.625,154.6406 Q407.625,154.9844 407.2813,155.3906 Q406.7813,155.9688 405.9844,156.2969 Q404.9063,156.75 403.6094,156.75 Q402.0938,156.75 400.8906,156.125 Q399.9063,155.625 399.2188,154.5625 Q398.5313,153.4844 398.5313,152.2031 L398.5313,151.0469 Q398.5313,149.7188 399.1406,148.5781 Q399.7656,147.4219 400.8594,146.8125 Q401.9531,146.1875 403.1875,146.1875 Q403.9219,146.1875 404.5625,146.3594 Q405.2188,146.5156 405.7656,146.875 Z " fill="#000000"/><text fill="#000000" font-family="sans-serif" font-size="14" lengthAdjust="spacing" textLength="167" x="417" y="156.7969">UploadRequirementsFileUI</text><line style="stroke:#181818;stroke-width:0.5;" x1="389" x2="586" y1="167" y2="167"/><line style="stroke:#181818;stroke-width:0.5;" x1="389" x2="586" y1="175" y2="175"/></g><!--class UploadRequirementsFileController--><g id="elem_UploadRequirementsFileController"><rect codeLine="11" fill="#F1F1F1" height="159.7266" id="UploadRequirementsFileController" rx="2.5" ry="2.5" style="stroke:#181818;stroke-width:0.5;" width="284" x="345.5" y="244"/><ellipse cx="376.25" cy="260" fill="#ADD1B2" rx="11" ry="11" style="stroke:#181818;stroke-width:1.0;"/><path d="M379.0156,255.875 Q379.1719,255.6563 379.3594,255.5469 Q379.5469,255.4375 379.7656,255.4375 Q380.1406,255.4375 380.375,255.7031 Q380.6094,255.9531 380.6094,256.5625 L380.6094,258.0156 Q380.6094,258.625 380.375,258.8906 Q380.1406,259.1563 379.7656,259.1563 Q379.4219,259.1563 379.2188,258.9531 Q379.0156,258.7656 378.9063,258.25 Q378.8594,257.8906 378.6719,257.7031 Q378.3438,257.3281 377.7344,257.1094 Q377.125,256.8906 376.5,256.8906 Q375.7344,256.8906 375.0938,257.2188 Q374.4688,257.5469 373.9688,258.2969 Q373.4844,259.0469 373.4844,260.0781 L373.4844,261.1719 Q373.4844,262.4063 374.375,263.2344 Q375.2656,264.0469 376.8594,264.0469 Q377.7969,264.0469 378.4531,263.7969 Q378.8438,263.6406 379.2656,263.2031 Q379.5313,262.9375 379.6719,262.8594 Q379.8281,262.7813 380.0313,262.7813 Q380.3594,262.7813 380.6094,263.0469 Q380.875,263.2969 380.875,263.6406 Q380.875,263.9844 380.5313,264.3906 Q380.0313,264.9688 379.2344,265.2969 Q378.1563,265.75 376.8594,265.75 Q375.3438,265.75 374.1406,265.125 Q373.1563,264.625 372.4688,263.5625 Q371.7813,262.4844 371.7813,261.2031 L371.7813,260.0469 Q371.7813,258.7188 372.3906,257.5781 Q373.0156,256.4219 374.1094,255.8125 Q375.2031,255.1875 376.4375,255.1875 Q377.1719,255.1875 377.8125,255.3594 Q378.4688,255.5156 379.0156,255.875 Z " fill="#000000"/><text fill="#000000" font-family="sans-serif" font-size="14" lengthAdjust="spacing" textLength="217" x="393.75" y="265.7969">UploadRequirementsFileController</text><line style="stroke:#181818;stroke-width:0.5;" x1="346.5" x2="628.5" y1="276" y2="276"/><line style="stroke:#181818;stroke-width:0.5;" x1="346.5" x2="628.5" y1="284" y2="284"/><ellipse cx="356.5" cy="298.8105" fill="#84BE84" rx="3" ry="3" style="stroke:#038048;stroke-width:1.0;"/><text fill="#000000" font-family="sans-serif" font-size="14" lengthAdjust="spacing" textLength="91" x="365.5" y="303.1074">getJobOffers()</text><ellipse cx="356.5" cy="317.4316" fill="#84BE84" rx="3" ry="3" style="stroke:#038048;stroke-width:1.0;"/><text fill="#000000" font-family="sans-serif" font-size="14" lengthAdjust="spacing" textLength="128" x="365.5" y="321.7285">getJobApplications()</text><ellipse cx="356.5" cy="336.0527" fill="#84BE84" rx="3" ry="3" style="stroke:#038048;stroke-width:1.0;"/><text fill="#000000" font-family="sans-serif" font-size="14" lengthAdjust="spacing" textLength="258" x="365.5" y="340.3496">checkIfApplicationHasRequirementsFile()</text><ellipse cx="356.5" cy="354.6738" fill="#84BE84" rx="3" ry="3" style="stroke:#038048;stroke-width:1.0;"/><text fill="#000000" font-family="sans-serif" font-size="14" lengthAdjust="spacing" textLength="201" x="365.5" y="358.9707">deleteCurrentRequirementFile()</text><ellipse cx="356.5" cy="373.2949" fill="#84BE84" rx="3" ry="3" style="stroke:#038048;stroke-width:1.0;"/><text fill="#000000" font-family="sans-serif" font-size="14" lengthAdjust="spacing" textLength="130" x="365.5" y="377.5918">validateResponses()</text><ellipse cx="356.5" cy="391.916" fill="#84BE84" rx="3" ry="3" style="stroke:#038048;stroke-width:1.0;"/><text fill="#000000" font-family="sans-serif" font-size="14" lengthAdjust="spacing" textLength="111" x="365.5" y="396.2129">saveResponses()</text></g><!--class PersistenceContext--><g id="elem_PersistenceContext"><rect codeLine="20" fill="#F1F1F1" height="66.6211" id="PersistenceContext" rx="2.5" ry="2.5" style="stroke:#181818;stroke-width:0.5;" width="154" x="264.5" y="483"/><ellipse cx="279.5" cy="499" fill="#ADD1B2" rx="11" ry="11" style="stroke:#181818;stroke-width:1.0;"/><path d="M282.2656,494.875 Q282.4219,494.6563 282.6094,494.5469 Q282.7969,494.4375 283.0156,494.4375 Q283.3906,494.4375 283.625,494.7031 Q283.8594,494.9531 283.8594,495.5625 L283.8594,497.0156 Q283.8594,497.625 283.625,497.8906 Q283.3906,498.1563 283.0156,498.1563 Q282.6719,498.1563 282.4688,497.9531 Q282.2656,497.7656 282.1563,497.25 Q282.1094,496.8906 281.9219,496.7031 Q281.5938,496.3281 280.9844,496.1094 Q280.375,495.8906 279.75,495.8906 Q278.9844,495.8906 278.3438,496.2188 Q277.7188,496.5469 277.2188,497.2969 Q276.7344,498.0469 276.7344,499.0781 L276.7344,500.1719 Q276.7344,501.4063 277.625,502.2344 Q278.5156,503.0469 280.1094,503.0469 Q281.0469,503.0469 281.7031,502.7969 Q282.0938,502.6406 282.5156,502.2031 Q282.7813,501.9375 282.9219,501.8594 Q283.0781,501.7813 283.2813,501.7813 Q283.6094,501.7813 283.8594,502.0469 Q284.125,502.2969 284.125,502.6406 Q284.125,502.9844 283.7813,503.3906 Q283.2813,503.9688 282.4844,504.2969 Q281.4063,504.75 280.1094,504.75 Q278.5938,504.75 277.3906,504.125 Q276.4063,503.625 275.7188,502.5625 Q275.0313,501.4844 275.0313,500.2031 L275.0313,499.0469 Q275.0313,497.7188 275.6406,496.5781 Q276.2656,495.4219 277.3594,494.8125 Q278.4531,494.1875 279.6875,494.1875 Q280.4219,494.1875 281.0625,494.3594 Q281.7188,494.5156 282.2656,494.875 Z " fill="#000000"/><text fill="#000000" font-family="sans-serif" font-size="14" lengthAdjust="spacing" textLength="122" x="293.5" y="504.7969">PersistenceContext</text><line style="stroke:#181818;stroke-width:0.5;" x1="265.5" x2="417.5" y1="515" y2="515"/><line style="stroke:#181818;stroke-width:0.5;" x1="265.5" x2="417.5" y1="523" y2="523"/><ellipse cx="275.5" cy="537.8105" fill="#84BE84" rx="3" ry="3" style="stroke:#038048;stroke-width:1.0;"/><text fill="#000000" font-family="sans-serif" font-size="14" lengthAdjust="spacing" textLength="84" x="284.5" y="542.1074">repositories()</text></g><!--class RepositoryFactory--><g id="elem_RepositoryFactory"><rect codeLine="24" fill="#F1F1F1" height="178.3477" id="RepositoryFactory" rx="2.5" ry="2.5" style="stroke:#181818;stroke-width:0.5;" width="296" x="219.5" y="695"/><ellipse cx="305.25" cy="711" fill="#ADD1B2" rx="11" ry="11" style="stroke:#181818;stroke-width:1.0;"/><path d="M308.0156,706.875 Q308.1719,706.6563 308.3594,706.5469 Q308.5469,706.4375 308.7656,706.4375 Q309.1406,706.4375 309.375,706.7031 Q309.6094,706.9531 309.6094,707.5625 L309.6094,709.0156 Q309.6094,709.625 309.375,709.8906 Q309.1406,710.1563 308.7656,710.1563 Q308.4219,710.1563 308.2188,709.9531 Q308.0156,709.7656 307.9063,709.25 Q307.8594,708.8906 307.6719,708.7031 Q307.3438,708.3281 306.7344,708.1094 Q306.125,707.8906 305.5,707.8906 Q304.7344,707.8906 304.0938,708.2188 Q303.4688,708.5469 302.9688,709.2969 Q302.4844,710.0469 302.4844,711.0781 L302.4844,712.1719 Q302.4844,713.4063 303.375,714.2344 Q304.2656,715.0469 305.8594,715.0469 Q306.7969,715.0469 307.4531,714.7969 Q307.8438,714.6406 308.2656,714.2031 Q308.5313,713.9375 308.6719,713.8594 Q308.8281,713.7813 309.0313,713.7813 Q309.3594,713.7813 309.6094,714.0469 Q309.875,714.2969 309.875,714.6406 Q309.875,714.9844 309.5313,715.3906 Q309.0313,715.9688 308.2344,716.2969 Q307.1563,716.75 305.8594,716.75 Q304.3438,716.75 303.1406,716.125 Q302.1563,715.625 301.4688,714.5625 Q300.7813,713.4844 300.7813,712.2031 L300.7813,711.0469 Q300.7813,709.7188 301.3906,708.5781 Q302.0156,707.4219 303.1094,706.8125 Q304.2031,706.1875 305.4375,706.1875 Q306.1719,706.1875 306.8125,706.3594 Q307.4688,706.5156 308.0156,706.875 Z " fill="#000000"/><text fill="#000000" font-family="sans-serif" font-size="14" lengthAdjust="spacing" textLength="116" x="325.75" y="716.7969">RepositoryFactory</text><line style="stroke:#181818;stroke-width:0.5;" x1="220.5" x2="514.5" y1="727" y2="727"/><line style="stroke:#181818;stroke-width:0.5;" x1="220.5" x2="514.5" y1="735" y2="735"/><ellipse cx="230.5" cy="749.8105" fill="#84BE84" rx="3" ry="3" style="stroke:#038048;stroke-width:1.0;"/><text fill="#000000" font-family="sans-serif" font-size="14" lengthAdjust="spacing" textLength="173" x="239.5" y="754.1074">newTransactionalContext();</text><ellipse cx="230.5" cy="768.4316" fill="#84BE84" rx="3" ry="3" style="stroke:#038048;stroke-width:1.0;"/><text fill="#000000" font-family="sans-serif" font-size="14" lengthAdjust="spacing" textLength="230" x="239.5" y="772.7285">users(TransactionalContext autoTx);</text><ellipse cx="230.5" cy="787.0527" fill="#84BE84" rx="3" ry="3" style="stroke:#038048;stroke-width:1.0;"/><text fill="#000000" font-family="sans-serif" font-size="14" lengthAdjust="spacing" textLength="49" x="239.5" y="791.3496">users();</text><ellipse cx="230.5" cy="805.6738" fill="#84BE84" rx="3" ry="3" style="stroke:#038048;stroke-width:1.0;"/><text fill="#000000" font-family="sans-serif" font-size="14" lengthAdjust="spacing" textLength="253" x="239.5" y="809.9707">jobOffers(TransactionalContext autoTx);</text><ellipse cx="230.5" cy="824.2949" fill="#84BE84" rx="3" ry="3" style="stroke:#038048;stroke-width:1.0;"/><text fill="#000000" font-family="sans-serif" font-size="14" lengthAdjust="spacing" textLength="72" x="239.5" y="828.5918">jobOffers();</text><ellipse cx="230.5" cy="842.916" fill="#84BE84" rx="3" ry="3" style="stroke:#038048;stroke-width:1.0;"/><text fill="#000000" font-family="sans-serif" font-size="14" lengthAdjust="spacing" textLength="270" x="239.5" y="847.2129">applications(TransactionalContext autoTx);</text><ellipse cx="230.5" cy="861.5371" fill="#84BE84" rx="3" ry="3" style="stroke:#038048;stroke-width:1.0;"/><text fill="#000000" font-family="sans-serif" font-size="14" lengthAdjust="spacing" textLength="89" x="239.5" y="865.834">applications();</text></g><!--class AuthorizationService--><g id="elem_AuthorizationService"><rect codeLine="35" fill="#F1F1F1" height="66.6211" id="AuthorizationService" rx="2.5" ry="2.5" style="stroke:#181818;stroke-width:0.5;" width="223" x="376" y="589"/><ellipse cx="418.9" cy="605" fill="#ADD1B2" rx="11" ry="11" style="stroke:#181818;stroke-width:1.0;"/><path d="M421.6656,600.875 Q421.8219,600.6563 422.0094,600.5469 Q422.1969,600.4375 422.4156,600.4375 Q422.7906,600.4375 423.025,600.7031 Q423.2594,600.9531 423.2594,601.5625 L423.2594,603.0156 Q423.2594,603.625 423.025,603.8906 Q422.7906,604.1563 422.4156,604.1563 Q422.0719,604.1563 421.8688,603.9531 Q421.6656,603.7656 421.5563,603.25 Q421.5094,602.8906 421.3219,602.7031 Q420.9938,602.3281 420.3844,602.1094 Q419.775,601.8906 419.15,601.8906 Q418.3844,601.8906 417.7438,602.2188 Q417.1188,602.5469 416.6188,603.2969 Q416.1344,604.0469 416.1344,605.0781 L416.1344,606.1719 Q416.1344,607.4063 417.025,608.2344 Q417.9156,609.0469 419.5094,609.0469 Q420.4469,609.0469 421.1031,608.7969 Q421.4938,608.6406 421.9156,608.2031 Q422.1813,607.9375 422.3219,607.8594 Q422.4781,607.7813 422.6813,607.7813 Q423.0094,607.7813 423.2594,608.0469 Q423.525,608.2969 423.525,608.6406 Q423.525,608.9844 423.1813,609.3906 Q422.6813,609.9688 421.8844,610.2969 Q420.8063,610.75 419.5094,610.75 Q417.9938,610.75 416.7906,610.125 Q415.8063,609.625 415.1188,608.5625 Q414.4313,607.4844 414.4313,606.2031 L414.4313,605.0469 Q414.4313,603.7188 415.0406,602.5781 Q415.6656,601.4219 416.7594,600.8125 Q417.8531,600.1875 419.0875,600.1875 Q419.8219,600.1875 420.4625,600.3594 Q421.1188,600.5156 421.6656,600.875 Z " fill="#000000"/><text fill="#000000" font-family="sans-serif" font-size="14" lengthAdjust="spacing" textLength="129" x="439.1" y="610.7969">AuthorizationService</text><line style="stroke:#181818;stroke-width:0.5;" x1="377" x2="598" y1="621" y2="621"/><line style="stroke:#181818;stroke-width:0.5;" x1="377" x2="598" y1="629" y2="629"/><ellipse cx="387" cy="643.8105" fill="#84BE84" rx="3" ry="3" style="stroke:#038048;stroke-width:1.0;"/><text fill="#000000" font-family="sans-serif" font-size="14" lengthAdjust="spacing" textLength="197" x="396" y="648.1074">loggedinUserWithPermissions()</text></g><!--class ListJobOfferService--><g id="elem_ListJobOfferService"><rect codeLine="39" fill="#F1F1F1" height="66.6211" id="ListJobOfferService" rx="2.5" ry="2.5" style="stroke:#181818;stroke-width:0.5;" width="235" x="7" y="903"/><ellipse cx="58.75" cy="919" fill="#ADD1B2" rx="11" ry="11" style="stroke:#181818;stroke-width:1.0;"/><path d="M61.5156,914.875 Q61.6719,914.6563 61.8594,914.5469 Q62.0469,914.4375 62.2656,914.4375 Q62.6406,914.4375 62.875,914.7031 Q63.1094,914.9531 63.1094,915.5625 L63.1094,917.0156 Q63.1094,917.625 62.875,917.8906 Q62.6406,918.1563 62.2656,918.1563 Q61.9219,918.1563 61.7188,917.9531 Q61.5156,917.7656 61.4063,917.25 Q61.3594,916.8906 61.1719,916.7031 Q60.8438,916.3281 60.2344,916.1094 Q59.625,915.8906 59,915.8906 Q58.2344,915.8906 57.5938,916.2188 Q56.9688,916.5469 56.4688,917.2969 Q55.9844,918.0469 55.9844,919.0781 L55.9844,920.1719 Q55.9844,921.4063 56.875,922.2344 Q57.7656,923.0469 59.3594,923.0469 Q60.2969,923.0469 60.9531,922.7969 Q61.3438,922.6406 61.7656,922.2031 Q62.0313,921.9375 62.1719,921.8594 Q62.3281,921.7813 62.5313,921.7813 Q62.8594,921.7813 63.1094,922.0469 Q63.375,922.2969 63.375,922.6406 Q63.375,922.9844 63.0313,923.3906 Q62.5313,923.9688 61.7344,924.2969 Q60.6563,924.75 59.3594,924.75 Q57.8438,924.75 56.6406,924.125 Q55.6563,923.625 54.9688,922.5625 Q54.2813,921.4844 54.2813,920.2031 L54.2813,919.0469 Q54.2813,917.7188 54.8906,916.5781 Q55.5156,915.4219 56.6094,914.8125 Q57.7031,914.1875 58.9375,914.1875 Q59.6719,914.1875 60.3125,914.3594 Q60.9688,914.5156 61.5156,914.875 Z " fill="#000000"/><text fill="#000000" font-family="sans-serif" font-size="14" lengthAdjust="spacing" textLength="123" x="79.25" y="924.7969">ListJobOfferService</text><line style="stroke:#181818;stroke-width:0.5;" x1="8" x2="241" y1="935" y2="935"/><line style="stroke:#181818;stroke-width:0.5;" x1="8" x2="241" y1="943" y2="943"/><ellipse cx="18" cy="957.8105" fill="#84BE84" rx="3" ry="3" style="stroke:#038048;stroke-width:1.0;"/><text fill="#000000" font-family="sans-serif" font-size="14" lengthAdjust="spacing" textLength="209" x="27" y="962.1074">getJobRequirementsOfJobOffer()</text></g><!--class ListJobApplicationService--><g id="elem_ListJobApplicationService"><rect codeLine="43" fill="#F1F1F1" height="85.2422" id="ListJobApplicationService" rx="2.5" ry="2.5" style="stroke:#181818;stroke-width:0.5;" width="257" x="604" y="580"/><ellipse cx="648.25" cy="596" fill="#ADD1B2" rx="11" ry="11" style="stroke:#181818;stroke-width:1.0;"/><path d="M651.0156,591.875 Q651.1719,591.6563 651.3594,591.5469 Q651.5469,591.4375 651.7656,591.4375 Q652.1406,591.4375 652.375,591.7031 Q652.6094,591.9531 652.6094,592.5625 L652.6094,594.0156 Q652.6094,594.625 652.375,594.8906 Q652.1406,595.1563 651.7656,595.1563 Q651.4219,595.1563 651.2188,594.9531 Q651.0156,594.7656 650.9063,594.25 Q650.8594,593.8906 650.6719,593.7031 Q650.3438,593.3281 649.7344,593.1094 Q649.125,592.8906 648.5,592.8906 Q647.7344,592.8906 647.0938,593.2188 Q646.4688,593.5469 645.9688,594.2969 Q645.4844,595.0469 645.4844,596.0781 L645.4844,597.1719 Q645.4844,598.4063 646.375,599.2344 Q647.2656,600.0469 648.8594,600.0469 Q649.7969,600.0469 650.4531,599.7969 Q650.8438,599.6406 651.2656,599.2031 Q651.5313,598.9375 651.6719,598.8594 Q651.8281,598.7813 652.0313,598.7813 Q652.3594,598.7813 652.6094,599.0469 Q652.875,599.2969 652.875,599.6406 Q652.875,599.9844 652.5313,600.3906 Q652.0313,600.9688 651.2344,601.2969 Q650.1563,601.75 648.8594,601.75 Q647.3438,601.75 646.1406,601.125 Q645.1563,600.625 644.4688,599.5625 Q643.7813,598.4844 643.7813,597.2031 L643.7813,596.0469 Q643.7813,594.7188 644.3906,593.5781 Q645.0156,592.4219 646.1094,591.8125 Q647.2031,591.1875 648.4375,591.1875 Q649.1719,591.1875 649.8125,591.3594 Q650.4688,591.5156 651.0156,591.875 Z " fill="#000000"/><text fill="#000000" font-family="sans-serif" font-size="14" lengthAdjust="spacing" textLength="160" x="668.75" y="601.7969">ListJobApplicationService</text><line style="stroke:#181818;stroke-width:0.5;" x1="605" x2="860" y1="612" y2="612"/><line style="stroke:#181818;stroke-width:0.5;" x1="605" x2="860" y1="620" y2="620"/><ellipse cx="615" cy="634.8105" fill="#84BE84" rx="3" ry="3" style="stroke:#038048;stroke-width:1.0;"/><text fill="#000000" font-family="sans-serif" font-size="14" lengthAdjust="spacing" textLength="140" x="624" y="639.1074">findApplicationByRef()</text><ellipse cx="615" cy="653.4316" fill="#84BE84" rx="3" ry="3" style="stroke:#038048;stroke-width:1.0;"/><text fill="#000000" font-family="sans-serif" font-size="14" lengthAdjust="spacing" textLength="231" x="624" y="657.7285">getJobApplicationsOfJobOfferCode()</text></g><!--class PluginHandler--><g id="elem_PluginHandler"><rect codeLine="48" fill="#F1F1F1" height="66.6211" id="PluginHandler" rx="2.5" ry="2.5" style="stroke:#181818;stroke-width:0.5;" width="193" x="665" y="290.5"/><ellipse cx="713.25" cy="306.5" fill="#ADD1B2" rx="11" ry="11" style="stroke:#181818;stroke-width:1.0;"/><path d="M716.0156,302.375 Q716.1719,302.1563 716.3594,302.0469 Q716.5469,301.9375 716.7656,301.9375 Q717.1406,301.9375 717.375,302.2031 Q717.6094,302.4531 717.6094,303.0625 L717.6094,304.5156 Q717.6094,305.125 717.375,305.3906 Q717.1406,305.6563 716.7656,305.6563 Q716.4219,305.6563 716.2188,305.4531 Q716.0156,305.2656 715.9063,304.75 Q715.8594,304.3906 715.6719,304.2031 Q715.3438,303.8281 714.7344,303.6094 Q714.125,303.3906 713.5,303.3906 Q712.7344,303.3906 712.0938,303.7188 Q711.4688,304.0469 710.9688,304.7969 Q710.4844,305.5469 710.4844,306.5781 L710.4844,307.6719 Q710.4844,308.9063 711.375,309.7344 Q712.2656,310.5469 713.8594,310.5469 Q714.7969,310.5469 715.4531,310.2969 Q715.8438,310.1406 716.2656,309.7031 Q716.5313,309.4375 716.6719,309.3594 Q716.8281,309.2813 717.0313,309.2813 Q717.3594,309.2813 717.6094,309.5469 Q717.875,309.7969 717.875,310.1406 Q717.875,310.4844 717.5313,310.8906 Q717.0313,311.4688 716.2344,311.7969 Q715.1563,312.25 713.8594,312.25 Q712.3438,312.25 711.1406,311.625 Q710.1563,311.125 709.4688,310.0625 Q708.7813,308.9844 708.7813,307.7031 L708.7813,306.5469 Q708.7813,305.2188 709.3906,304.0781 Q710.0156,302.9219 711.1094,302.3125 Q712.2031,301.6875 713.4375,301.6875 Q714.1719,301.6875 714.8125,301.8594 Q715.4688,302.0156 716.0156,302.375 Z " fill="#000000"/><text fill="#000000" font-family="sans-serif" font-size="14" lengthAdjust="spacing" textLength="88" x="733.75" y="312.2969">PluginHandler</text><line style="stroke:#181818;stroke-width:0.5;" x1="666" x2="857" y1="322.5" y2="322.5"/><line style="stroke:#181818;stroke-width:0.5;" x1="666" x2="857" y1="330.5" y2="330.5"/><ellipse cx="676" cy="345.3105" fill="#84BE84" rx="3" ry="3" style="stroke:#038048;stroke-width:1.0;"/><text fill="#000000" font-family="sans-serif" font-size="14" lengthAdjust="spacing" textLength="167" x="685" y="349.6074">activateCheckerFunction()</text></g><!--class JobAplicationManagementService--><g id="elem_JobAplicationManagementService"><rect codeLine="52" fill="#F1F1F1" height="85.2422" id="JobAplicationManagementService" rx="2.5" ry="2.5" style="stroke:#181818;stroke-width:0.5;" width="244" x="762.5" y="1000"/><ellipse cx="777.5" cy="1016" fill="#ADD1B2" rx="11" ry="11" style="stroke:#181818;stroke-width:1.0;"/><path d="M780.2656,1011.875 Q780.4219,1011.6563 780.6094,1011.5469 Q780.7969,1011.4375 781.0156,1011.4375 Q781.3906,1011.4375 781.625,1011.7031 Q781.8594,1011.9531 781.8594,1012.5625 L781.8594,1014.0156 Q781.8594,1014.625 781.625,1014.8906 Q781.3906,1015.1563 781.0156,1015.1563 Q780.6719,1015.1563 780.4688,1014.9531 Q780.2656,1014.7656 780.1563,1014.25 Q780.1094,1013.8906 779.9219,1013.7031 Q779.5938,1013.3281 778.9844,1013.1094 Q778.375,1012.8906 777.75,1012.8906 Q776.9844,1012.8906 776.3438,1013.2188 Q775.7188,1013.5469 775.2188,1014.2969 Q774.7344,1015.0469 774.7344,1016.0781 L774.7344,1017.1719 Q774.7344,1018.4063 775.625,1019.2344 Q776.5156,1020.0469 778.1094,1020.0469 Q779.0469,1020.0469 779.7031,1019.7969 Q780.0938,1019.6406 780.5156,1019.2031 Q780.7813,1018.9375 780.9219,1018.8594 Q781.0781,1018.7813 781.2813,1018.7813 Q781.6094,1018.7813 781.8594,1019.0469 Q782.125,1019.2969 782.125,1019.6406 Q782.125,1019.9844 781.7813,1020.3906 Q781.2813,1020.9688 780.4844,1021.2969 Q779.4063,1021.75 778.1094,1021.75 Q776.5938,1021.75 775.3906,1021.125 Q774.4063,1020.625 773.7188,1019.5625 Q773.0313,1018.4844 773.0313,1017.2031 L773.0313,1016.0469 Q773.0313,1014.7188 773.6406,1013.5781 Q774.2656,1012.4219 775.3594,1011.8125 Q776.4531,1011.1875 777.6875,1011.1875 Q778.4219,1011.1875 779.0625,1011.3594 Q779.7188,1011.5156 780.2656,1011.875 Z " fill="#000000"/><text fill="#000000" font-family="sans-serif" font-size="14" lengthAdjust="spacing" textLength="212" x="791.5" y="1021.7969">JobAplicationManagementService</text><line style="stroke:#181818;stroke-width:0.5;" x1="763.5" x2="1005.5" y1="1032" y2="1032"/><line style="stroke:#181818;stroke-width:0.5;" x1="763.5" x2="1005.5" y1="1040" y2="1040"/><ellipse cx="773.5" cy="1054.8105" fill="#84BE84" rx="3" ry="3" style="stroke:#038048;stroke-width:1.0;"/><text fill="#000000" font-family="sans-serif" font-size="14" lengthAdjust="spacing" textLength="80" x="782.5" y="1059.1074">removeFile()</text><ellipse cx="773.5" cy="1073.4316" fill="#84BE84" rx="3" ry="3" style="stroke:#038048;stroke-width:1.0;"/><text fill="#000000" font-family="sans-serif" font-size="14" lengthAdjust="spacing" textLength="111" x="782.5" y="1077.7285">saveResponses()</text></g><!--class JobOfferRepository--><g id="elem_JobOfferRepository"><rect codeLine="57" fill="#F1F1F1" height="48" id="JobOfferRepository" rx="2.5" ry="2.5" style="stroke:#181818;stroke-width:0.5;" width="154" x="151.5" y="1164"/><ellipse cx="166.5" cy="1180" fill="#ADD1B2" rx="11" ry="11" style="stroke:#181818;stroke-width:1.0;"/><path d="M169.2656,1175.875 Q169.4219,1175.6563 169.6094,1175.5469 Q169.7969,1175.4375 170.0156,1175.4375 Q170.3906,1175.4375 170.625,1175.7031 Q170.8594,1175.9531 170.8594,1176.5625 L170.8594,1178.0156 Q170.8594,1178.625 170.625,1178.8906 Q170.3906,1179.1563 170.0156,1179.1563 Q169.6719,1179.1563 169.4688,1178.9531 Q169.2656,1178.7656 169.1563,1178.25 Q169.1094,1177.8906 168.9219,1177.7031 Q168.5938,1177.3281 167.9844,1177.1094 Q167.375,1176.8906 166.75,1176.8906 Q165.9844,1176.8906 165.3438,1177.2188 Q164.7188,1177.5469 164.2188,1178.2969 Q163.7344,1179.0469 163.7344,1180.0781 L163.7344,1181.1719 Q163.7344,1182.4063 164.625,1183.2344 Q165.5156,1184.0469 167.1094,1184.0469 Q168.0469,1184.0469 168.7031,1183.7969 Q169.0938,1183.6406 169.5156,1183.2031 Q169.7813,1182.9375 169.9219,1182.8594 Q170.0781,1182.7813 170.2813,1182.7813 Q170.6094,1182.7813 170.8594,1183.0469 Q171.125,1183.2969 171.125,1183.6406 Q171.125,1183.9844 170.7813,1184.3906 Q170.2813,1184.9688 169.4844,1185.2969 Q168.4063,1185.75 167.1094,1185.75 Q165.5938,1185.75 164.3906,1185.125 Q163.4063,1184.625 162.7188,1183.5625 Q162.0313,1182.4844 162.0313,1181.2031 L162.0313,1180.0469 Q162.0313,1178.7188 162.6406,1177.5781 Q163.2656,1176.4219 164.3594,1175.8125 Q165.4531,1175.1875 166.6875,1175.1875 Q167.4219,1175.1875 168.0625,1175.3594 Q168.7188,1175.5156 169.2656,1175.875 Z " fill="#000000"/><text fill="#000000" font-family="sans-serif" font-size="14" lengthAdjust="spacing" textLength="122" x="180.5" y="1185.7969">JobOfferRepository</text><line style="stroke:#181818;stroke-width:0.5;" x1="152.5" x2="304.5" y1="1196" y2="1196"/><line style="stroke:#181818;stroke-width:0.5;" x1="152.5" x2="304.5" y1="1204" y2="1204"/></g><!--class UserRepository--><g id="elem_UserRepository"><rect codeLine="61" fill="#F1F1F1" height="48" id="UserRepository" rx="2.5" ry="2.5" style="stroke:#181818;stroke-width:0.5;" width="129" x="354" y="1164"/><ellipse cx="369" cy="1180" fill="#ADD1B2" rx="11" ry="11" style="stroke:#181818;stroke-width:1.0;"/><path d="M371.7656,1175.875 Q371.9219,1175.6563 372.1094,1175.5469 Q372.2969,1175.4375 372.5156,1175.4375 Q372.8906,1175.4375 373.125,1175.7031 Q373.3594,1175.9531 373.3594,1176.5625 L373.3594,1178.0156 Q373.3594,1178.625 373.125,1178.8906 Q372.8906,1179.1563 372.5156,1179.1563 Q372.1719,1179.1563 371.9688,1178.9531 Q371.7656,1178.7656 371.6563,1178.25 Q371.6094,1177.8906 371.4219,1177.7031 Q371.0938,1177.3281 370.4844,1177.1094 Q369.875,1176.8906 369.25,1176.8906 Q368.4844,1176.8906 367.8438,1177.2188 Q367.2188,1177.5469 366.7188,1178.2969 Q366.2344,1179.0469 366.2344,1180.0781 L366.2344,1181.1719 Q366.2344,1182.4063 367.125,1183.2344 Q368.0156,1184.0469 369.6094,1184.0469 Q370.5469,1184.0469 371.2031,1183.7969 Q371.5938,1183.6406 372.0156,1183.2031 Q372.2813,1182.9375 372.4219,1182.8594 Q372.5781,1182.7813 372.7813,1182.7813 Q373.1094,1182.7813 373.3594,1183.0469 Q373.625,1183.2969 373.625,1183.6406 Q373.625,1183.9844 373.2813,1184.3906 Q372.7813,1184.9688 371.9844,1185.2969 Q370.9063,1185.75 369.6094,1185.75 Q368.0938,1185.75 366.8906,1185.125 Q365.9063,1184.625 365.2188,1183.5625 Q364.5313,1182.4844 364.5313,1181.2031 L364.5313,1180.0469 Q364.5313,1178.7188 365.1406,1177.5781 Q365.7656,1176.4219 366.8594,1175.8125 Q367.9531,1175.1875 369.1875,1175.1875 Q369.9219,1175.1875 370.5625,1175.3594 Q371.2188,1175.5156 371.7656,1175.875 Z " fill="#000000"/><text fill="#000000" font-family="sans-serif" font-size="14" lengthAdjust="spacing" textLength="97" x="383" y="1185.7969">UserRepository</text><line style="stroke:#181818;stroke-width:0.5;" x1="355" x2="482" y1="1196" y2="1196"/><line style="stroke:#181818;stroke-width:0.5;" x1="355" x2="482" y1="1204" y2="1204"/></g><!--class JobAplicationRepository--><g id="elem_JobAplicationRepository"><rect codeLine="65" fill="#F1F1F1" height="48" id="JobAplicationRepository" rx="2.5" ry="2.5" style="stroke:#181818;stroke-width:0.5;" width="183" x="618" y="1164"/><ellipse cx="633" cy="1180" fill="#ADD1B2" rx="11" ry="11" style="stroke:#181818;stroke-width:1.0;"/><path d="M635.7656,1175.875 Q635.9219,1175.6563 636.1094,1175.5469 Q636.2969,1175.4375 636.5156,1175.4375 Q636.8906,1175.4375 637.125,1175.7031 Q637.3594,1175.9531 637.3594,1176.5625 L637.3594,1178.0156 Q637.3594,1178.625 637.125,1178.8906 Q636.8906,1179.1563 636.5156,1179.1563 Q636.1719,1179.1563 635.9688,1178.9531 Q635.7656,1178.7656 635.6563,1178.25 Q635.6094,1177.8906 635.4219,1177.7031 Q635.0938,1177.3281 634.4844,1177.1094 Q633.875,1176.8906 633.25,1176.8906 Q632.4844,1176.8906 631.8438,1177.2188 Q631.2188,1177.5469 630.7188,1178.2969 Q630.2344,1179.0469 630.2344,1180.0781 L630.2344,1181.1719 Q630.2344,1182.4063 631.125,1183.2344 Q632.0156,1184.0469 633.6094,1184.0469 Q634.5469,1184.0469 635.2031,1183.7969 Q635.5938,1183.6406 636.0156,1183.2031 Q636.2813,1182.9375 636.4219,1182.8594 Q636.5781,1182.7813 636.7813,1182.7813 Q637.1094,1182.7813 637.3594,1183.0469 Q637.625,1183.2969 637.625,1183.6406 Q637.625,1183.9844 637.2813,1184.3906 Q636.7813,1184.9688 635.9844,1185.2969 Q634.9063,1185.75 633.6094,1185.75 Q632.0938,1185.75 630.8906,1185.125 Q629.9063,1184.625 629.2188,1183.5625 Q628.5313,1182.4844 628.5313,1181.2031 L628.5313,1180.0469 Q628.5313,1178.7188 629.1406,1177.5781 Q629.7656,1176.4219 630.8594,1175.8125 Q631.9531,1175.1875 633.1875,1175.1875 Q633.9219,1175.1875 634.5625,1175.3594 Q635.2188,1175.5156 635.7656,1175.875 Z " fill="#000000"/><text fill="#000000" font-family="sans-serif" font-size="14" lengthAdjust="spacing" textLength="151" x="647" y="1185.7969">JobAplicationRepository</text><line style="stroke:#181818;stroke-width:0.5;" x1="619" x2="800" y1="1196" y2="1196"/><line style="stroke:#181818;stroke-width:0.5;" x1="619" x2="800" y1="1204" y2="1204"/></g><!--link OperatorUI to UploadRequirementsFileUI--><g id="link_OperatorUI_UploadRequirementsFileUI"><path codeLine="69" d="M487.5,74.26 C487.5,93.51 487.5,111.38 487.5,128.71 " fill="none" id="OperatorUI-to-UploadRequirementsFileUI" style="stroke:#181818;stroke-width:1.0;stroke-dasharray:7.0,7.0;"/><polygon fill="#181818" points="487.5,134.71,491.5,125.71,487.5,129.71,483.5,125.71,487.5,134.71" style="stroke:#181818;stroke-width:1.0;"/></g><!--link UploadRequirementsFileUI to UploadRequirementsFileController--><g id="link_UploadRequirementsFileUI_UploadRequirementsFileController"><path codeLine="71" d="M487.5,183.01 C487.5,199.07 487.5,215.53 487.5,237.77 " fill="none" id="UploadRequirementsFileUI-to-UploadRequirementsFileController" style="stroke:#181818;stroke-width:1.0;stroke-dasharray:7.0,7.0;"/><polygon fill="#181818" points="487.5,243.77,491.5,234.77,487.5,238.77,483.5,234.77,487.5,243.77" style="stroke:#181818;stroke-width:1.0;"/></g><!--link UploadRequirementsFileController to PersistenceContext--><g id="link_UploadRequirementsFileController_PersistenceContext"><path codeLine="74" d="M404.03,404.23 C395.61,413.88 387.58,423.9 380.5,434 C369.97,449.03 363.3148,461.8387 356.5848,477.2987 " fill="none" id="UploadRequirementsFileController-to-PersistenceContext" style="stroke:#181818;stroke-width:1.0;stroke-dasharray:7.0,7.0;"/><polygon fill="#181818" points="354.19,482.8,361.4498,476.1445,356.1857,478.2155,354.1147,472.9514,354.19,482.8" style="stroke:#181818;stroke-width:1.0;"/><text fill="#000000" font-family="sans-serif" font-size="13" lengthAdjust="spacing" textLength="79" x="381.5" y="449.0283">repositories ()</text></g><!--link UploadRequirementsFileController to AuthorizationService--><g id="link_UploadRequirementsFileController_AuthorizationService"><path codeLine="75" d="M487.5,404.07 C487.5,464.45 487.5,538.58 487.5,582.76 " fill="none" id="UploadRequirementsFileController-to-AuthorizationService" style="stroke:#181818;stroke-width:1.0;"/><polygon fill="#181818" points="487.5,588.76,491.5,579.76,487.5,583.76,483.5,579.76,487.5,588.76" style="stroke:#181818;stroke-width:1.0;"/></g><!--link UploadRequirementsFileController to ListJobOfferService--><g id="link_UploadRequirementsFileController_ListJobOfferService"><path codeLine="76" d="M345.41,393.96 C308.67,417.7 272.26,447.45 246.5,483 C149.48,616.92 129.9271,817.4279 125.8571,896.8479 " fill="none" id="UploadRequirementsFileController-to-ListJobOfferService" style="stroke:#181818;stroke-width:1.0;"/><polygon fill="#181818" points="125.55,902.84,130.0054,894.0565,125.8059,897.8466,122.0159,893.6471,125.55,902.84" style="stroke:#181818;stroke-width:1.0;"/></g><!--link UploadRequirementsFileController to ListJobApplicationService--><g id="link_UploadRequirementsFileController_ListJobApplicationService"><path codeLine="77" d="M552.83,404.07 C599.47,460.51 656.5388,529.5641 694.0988,575.0341 " fill="none" id="UploadRequirementsFileController-to-ListJobApplicationService" style="stroke:#181818;stroke-width:1.0;"/><polygon fill="#181818" points="697.92,579.66,695.2722,570.1737,694.7357,575.8051,689.1043,575.2686,697.92,579.66" style="stroke:#181818;stroke-width:1.0;"/></g><!--link UploadRequirementsFileController to PluginHandler--><g id="link_UploadRequirementsFileController_PluginHandler"><path codeLine="78" d="M629.58,324 C641.35,324 647.12,324 658.88,324 " fill="none" id="UploadRequirementsFileController-to-PluginHandler" style="stroke:#181818;stroke-width:1.0;"/><polygon fill="#181818" points="664.88,324,655.88,320,659.88,324,655.88,328,664.88,324" style="stroke:#181818;stroke-width:1.0;"/></g><!--link UploadRequirementsFileController to JobAplicationManagementService--><g id="link_UploadRequirementsFileController_JobAplicationManagementService"><path codeLine="79" d="M629.61,403.53 C723.97,458.88 835.33,531.49 862.5,580 C939.34,717.16 912.6058,908.9404 895.2958,994.0504 " fill="none" id="UploadRequirementsFileController-to-JobAplicationManagementService" style="stroke:#181818;stroke-width:1.0;"/><polygon fill="#181818" points="894.1,999.93,899.8135,991.9078,895.0965,995.0303,891.974,990.3133,894.1,999.93" style="stroke:#181818;stroke-width:1.0;"/></g><!--link JobAplicationManagementService to JobAplicationRepository--><g id="link_JobAplicationManagementService_JobAplicationRepository"><path codeLine="81" d="M833.88,1085.01 C802.59,1110.67 768.2294,1138.8353 742.3294,1160.0753 " fill="none" id="JobAplicationManagementService-to-JobAplicationRepository" style="stroke:#181818;stroke-width:1.0;stroke-dasharray:7.0,7.0;"/><polygon fill="#181818" points="737.69,1163.88,747.1856,1161.2659,741.5562,1160.7094,742.1127,1155.08,737.69,1163.88" style="stroke:#181818;stroke-width:1.0;"/><text fill="#000000" font-family="sans-serif" font-size="13" lengthAdjust="spacing" textLength="34" x="797.5" y="1130.0283">save()</text></g><!--link ListJobOfferService to JobOfferRepository--><g id="link_ListJobOfferService_JobOfferRepository"><path codeLine="83" d="M138.1,970.12 C159.4,1021.24 197.8409,1113.4521 216.4709,1158.1321 " fill="none" id="ListJobOfferService-to-JobOfferRepository" style="stroke:#181818;stroke-width:1.0;stroke-dasharray:7.0,7.0;"/><polygon fill="#181818" points="218.78,1163.67,219.0083,1153.8238,216.8557,1159.0551,211.6244,1156.9026,218.78,1163.67" style="stroke:#181818;stroke-width:1.0;"/></g><!--link ListJobApplicationService to JobAplicationRepository--><g id="link_ListJobApplicationService_JobAplicationRepository"><path codeLine="85" d="M730.79,665.39 C726.24,776.86 714.1951,1072.035 710.6851,1157.885 " fill="none" id="ListJobApplicationService-to-JobAplicationRepository" style="stroke:#181818;stroke-width:1.0;stroke-dasharray:7.0,7.0;"/><polygon fill="#181818" points="710.44,1163.88,714.8043,1155.0509,710.6443,1158.8842,706.811,1154.7241,710.44,1163.88" style="stroke:#181818;stroke-width:1.0;"/></g><!--link AuthorizationService to UserRepository--><g id="link_AuthorizationService_UserRepository"><path codeLine="87" d="M512.14,656.15 C519.83,667.85 527.58,681.49 532.5,695 C592.16,858.81 657.45,931.66 574.5,1085 C554.56,1121.86 520.2967,1144.9494 485.9367,1161.3194 " fill="none" id="AuthorizationService-to-UserRepository" style="stroke:#181818;stroke-width:1.0;stroke-dasharray:7.0,7.0;"/><polygon fill="#181818" points="480.52,1163.9,490.3654,1163.6401,485.0339,1161.7495,486.9246,1156.4179,480.52,1163.9" style="stroke:#181818;stroke-width:1.0;"/></g><!--link PersistenceContext to RepositoryFactory--><g id="link_PersistenceContext_RepositoryFactory"><path codeLine="89" d="M323.05,550.29 C318.72,559.61 314.72,569.95 312.5,580 C304.36,616.89 304.33,628.12 312.5,665 C314.7,674.93 315.7439,679.3943 319.4039,689.2643 " fill="none" id="PersistenceContext-to-RepositoryFactory" style="stroke:#181818;stroke-width:1.0;"/><polygon fill="#181818" points="321.49,694.89,322.1113,685.0608,319.7516,690.2019,314.6104,687.8422,321.49,694.89" style="stroke:#181818;stroke-width:1.0;"/><text fill="#000000" font-family="sans-serif" font-size="13" lengthAdjust="spacing" textLength="44" x="313.5" y="628.0283">create()</text></g><!--link RepositoryFactory to JobOfferRepository--><g id="link_RepositoryFactory_JobOfferRepository"><path codeLine="91" d="M337,873.22 C304.63,966.83 257.541,1103.0095 238.451,1158.2095 " fill="none" id="RepositoryFactory-to-JobOfferRepository" style="stroke:#181818;stroke-width:1.0;"/><polygon fill="#181818" points="236.49,1163.88,243.2119,1156.6816,238.1242,1159.1546,235.6512,1154.0669,236.49,1163.88" style="stroke:#181818;stroke-width:1.0;"/><text fill="#000000" font-family="sans-serif" font-size="13" lengthAdjust="spacing" textLength="44" x="292.5" y="1048.0283">create()</text></g><!--link RepositoryFactory to UserRepository--><g id="link_RepositoryFactory_UserRepository"><path codeLine="92" d="M378.69,873.22 C390.57,966.83 407.8041,1102.7278 414.8141,1157.9278 " fill="none" id="RepositoryFactory-to-UserRepository" style="stroke:#181818;stroke-width:1.0;"/><polygon fill="#181818" points="415.57,1163.88,418.4043,1154.4478,414.9401,1158.9198,410.468,1155.4556,415.57,1163.88" style="stroke:#181818;stroke-width:1.0;"/><text fill="#000000" font-family="sans-serif" font-size="13" lengthAdjust="spacing" textLength="44" x="406.5" y="1048.0283">create()</text></g><!--link RepositoryFactory to JobAplicationRepository--><g id="link_RepositoryFactory_JobAplicationRepository"><path codeLine="93" d="M442.55,873.22 C522.19,966.83 638.9822,1104.11 685.9422,1159.31 " fill="none" id="RepositoryFactory-to-JobAplicationRepository" style="stroke:#181818;stroke-width:1.0;"/><polygon fill="#181818" points="689.83,1163.88,687.0449,1154.4331,686.5902,1160.0717,680.9516,1159.6169,689.83,1163.88" style="stroke:#181818;stroke-width:1.0;"/><text fill="#000000" font-family="sans-serif" font-size="13" lengthAdjust="spacing" textLength="44" x="621.5" y="1048.0283">create()</text></g><!--SRC=[bLNRRjim37tNL_YnnP1yG0OKQ0C4Qz4YHTPWpvfCssfLoPDajzsmVn_jHhRaI8ddby0a3o_7XmmJr9XiMuEcLkdzRVQ7PFXyOHML9TofdzkY0FrOKGCNbuJy9OJrY7qj5CrtyAlX6bv1MhFX0dhykQ2rabOh8K2xOba9rfKoMCOtNjUru8nQhkJeOXMmbzl2ytsZPbfdYCv1W8LrepMwlAWWgAM2vzJ23aoDfM0iPcWRM8Vn7h5RRYn8riy4xzODfA5MXYEXF4JidFrZGrdtum0ItfuqbGQjE0mLXtmNbryFJJIceoOMaz76ggVtIUJm-ZpmEWSyHWycwd-0EJa205h7yQyRMo4dltlVTz0jPp1eGAYoX9pBFVR_WziAsNtbnXo- -v3Z7XbtMfcc-5IChuDjuM8ZEJpvJ3CLNEQU- -PZ1yK9OOvbrYg7G2EYAJcgK-Q-tZi6MnJRkjCnw4qZUqfzO5_15NYWafRzHDD6SKxLGg3af5vTZwCAmsqrILVGp56CTpsMowlaQI0aUJJIiF5Oa1JUkoTTdiXMhZ9_8JFav6ocnU8gAjTvo8X8_mjuhCmPSCtBocAEG7BpofuM6o5dnDZHdfB8gjTZzzyHsznFu4ILGsXaGPSdQX4IFJ2zk4nO82AIZeVZ-xpAc0RSr6w0O-_YGDvqhJnK0ZHPjlE0DBy3yXy0]--></g></svg>