<?xml version="1.0" encoding="us-ascii" standalone="no"?><svg xmlns="http://www.w3.org/2000/svg" xmlns:xlink="http://www.w3.org/1999/xlink" contentStyleType="text/css" height="925px" preserveAspectRatio="none" style="width:2496px;height:925px;background:#FFFFFF;" version="1.1" viewBox="0 0 2496 925" width="2496px" zoomAndPan="magnify"><defs/><g><!--cluster JobOfferAggregate--><g id="cluster_JobOfferAggregate"><path d="M8.5,323 L144.5,323 A3.75,3.75 0 0 1 147,325.5 L154,347.6211 L840.5,347.6211 A2.5,2.5 0 0 1 843,350.1211 L843,915.5 A2.5,2.5 0 0 1 840.5,918 L8.5,918 A2.5,2.5 0 0 1 6,915.5 L6,325.5 A2.5,2.5 0 0 1 8.5,323 " fill="none" style="stroke:#000000;stroke-width:1.5;"/><line style="stroke:#000000;stroke-width:1.5;" x1="6" x2="154" y1="347.6211" y2="347.6211"/><text fill="#000000" font-family="sans-serif" font-size="14" font-weight="bold" lengthAdjust="spacing" textLength="135" x="10" y="340.1074">JobOfferAggregate</text></g><!--cluster PluginAggregate--><g id="cluster_PluginAggregate"><path d="M1474.5,513 L1592.5,513 A3.75,3.75 0 0 1 1595,515.5 L1602,537.6211 L1958.5,537.6211 A2.5,2.5 0 0 1 1961,540.1211 L1961,791.5 A2.5,2.5 0 0 1 1958.5,794 L1474.5,794 A2.5,2.5 0 0 1 1472,791.5 L1472,515.5 A2.5,2.5 0 0 1 1474.5,513 " fill="none" style="stroke:#000000;stroke-width:1.5;"/><line style="stroke:#000000;stroke-width:1.5;" x1="1472" x2="1602" y1="537.6211" y2="537.6211"/><text fill="#000000" font-family="sans-serif" font-size="14" font-weight="bold" lengthAdjust="spacing" textLength="117" x="1476" y="530.1074">PluginAggregate</text></g><!--cluster RequirementsSpecification--><g id="cluster_RequirementsSpecification"><path d="M869.5,326 L1060.5,326 A3.75,3.75 0 0 1 1063,328.5 L1070,350.6211 L1445.5,350.6211 A2.5,2.5 0 0 1 1448,353.1211 L1448,791.5 A2.5,2.5 0 0 1 1445.5,794 L869.5,794 A2.5,2.5 0 0 1 867,791.5 L867,328.5 A2.5,2.5 0 0 1 869.5,326 " fill="none" style="stroke:#000000;stroke-width:1.5;"/><line style="stroke:#000000;stroke-width:1.5;" x1="867" x2="1070" y1="350.6211" y2="350.6211"/><text fill="#000000" font-family="sans-serif" font-size="14" font-weight="bold" lengthAdjust="spacing" textLength="190" x="871" y="343.1074">RequirementsSpecification</text></g><!--cluster ApplicationAggregate--><g id="cluster_ApplicationAggregate"><path d="M1474.5,133 L1626.5,133 A3.75,3.75 0 0 1 1629,135.5 L1636,157.6211 L2486.5,157.6211 A2.5,2.5 0 0 1 2489,160.1211 L2489,458.5 A2.5,2.5 0 0 1 2486.5,461 L1474.5,461 A2.5,2.5 0 0 1 1472,458.5 L1472,135.5 A2.5,2.5 0 0 1 1474.5,133 " fill="none" style="stroke:#000000;stroke-width:1.5;"/><line style="stroke:#000000;stroke-width:1.5;" x1="1472" x2="1636" y1="157.6211" y2="157.6211"/><text fill="#000000" font-family="sans-serif" font-size="14" font-weight="bold" lengthAdjust="spacing" textLength="151" x="1476" y="150.1074">ApplicationAggregate</text></g><!--class JobOffer--><g id="elem_JobOffer"><rect codeLine="3" fill="#F1F1F1" height="66.6211" id="JobOffer" rx="2.5" ry="2.5" style="stroke:#181818;stroke-width:0.5;" width="91" x="615.5" y="381"/><ellipse cx="632.75" cy="397" fill="#ADD1B2" rx="11" ry="11" style="stroke:#181818;stroke-width:1.0;"/><path d="M631.6094,397.7969 L631.6094,400.2969 L635.9375,400.2969 L635.9375,399.375 Q635.9375,398.7656 636.1719,398.5 Q636.4219,398.2344 636.7969,398.2344 Q637.1719,398.2344 637.4063,398.5 Q637.6406,398.7656 637.6406,399.375 L637.6406,402 L629.6406,402 Q629.0156,402 628.75,401.7656 Q628.5,401.5313 628.5,401.1406 Q628.5,400.7656 628.7656,400.5313 Q629.0313,400.2969 629.6406,400.2969 L629.9063,400.2969 L629.9063,393.6406 L629.6406,393.6406 Q629.0156,393.6406 628.75,393.4063 Q628.5,393.1719 628.5,392.7813 Q628.5,392.4063 628.75,392.1719 Q629.0156,391.9375 629.6406,391.9375 L637.2656,391.9375 L637.2656,394.5313 Q637.2656,395.1406 637.0313,395.4063 Q636.8125,395.6563 636.4219,395.6563 Q636.0469,395.6563 635.8125,395.4063 Q635.5781,395.1406 635.5781,394.5313 L635.5781,393.6406 L631.6094,393.6406 L631.6094,396.0938 L633.0938,396.0938 Q633.0938,395.4375 633.2188,395.25 Q633.4844,394.8438 633.9531,394.8438 Q634.3281,394.8438 634.5625,395.1094 Q634.7969,395.3594 634.7969,395.9688 L634.7969,397.9375 Q634.7969,398.4844 634.6719,398.6719 Q634.4063,399.0625 633.9531,399.0625 Q633.4844,399.0625 633.2188,398.6563 Q633.0938,398.4688 633.0938,397.7969 L631.6094,397.7969 Z " fill="#000000"/><text fill="#000000" font-family="sans-serif" font-size="14" lengthAdjust="spacing" textLength="54" x="647.25" y="402.7969">JobOffer</text><line style="stroke:#181818;stroke-width:0.5;" x1="616.5" x2="705.5" y1="413" y2="413"/><text fill="#000000" font-family="sans-serif" font-size="14" lengthAdjust="spacing" textLength="79" x="621.5" y="432.1074">&#171;root entity&#187;</text><line style="stroke:#181818;stroke-width:0.5;" x1="616.5" x2="705.5" y1="439.6211" y2="439.6211"/></g><!--class JobRefCode--><g id="elem_JobRefCode"><rect codeLine="7" fill="#F1F1F1" height="60.582" id="JobRefCode" rx="2.5" ry="2.5" style="stroke:#181818;stroke-width:0.5;" width="162" x="22" y="841"/><ellipse cx="37" cy="863.291" fill="#F09000" rx="11" ry="11" style="stroke:#181818;stroke-width:1.0;"/><path d="M37.5938,866.5566 L40.0625,860.6816 L39.6719,860.6816 Q39.0625,860.6816 38.7969,860.4473 Q38.5313,860.2129 38.5313,859.8223 Q38.5313,859.4473 38.7969,859.2129 Q39.0625,858.9785 39.6719,858.9785 L41.9531,858.9785 Q42.5625,858.9785 42.8281,859.2129 Q43.0938,859.4473 43.0938,859.8223 Q43.0938,860.291 42.6875,860.5566 Q42.5,860.6816 41.9063,860.6816 L38.4219,869.041 L36.7813,869.041 L33.2969,860.6816 Q32.7031,860.6816 32.5156,860.5566 Q32.1094,860.291 32.1094,859.8223 Q32.1094,859.4473 32.375,859.2129 Q32.6406,858.9785 33.25,858.9785 L35.5469,858.9785 Q36.1563,858.9785 36.4063,859.2129 Q36.6719,859.4473 36.6719,859.8223 Q36.6719,860.2129 36.4063,860.4473 Q36.1563,860.6816 35.5469,860.6816 L35.1406,860.6816 L37.5938,866.5566 Z " fill="#000000"/><text fill="#000000" font-family="sans-serif" font-size="12" font-style="italic" lengthAdjust="spacing" textLength="134" x="49" y="858.9492">&#171;Identifier value Object&#187;</text><text fill="#000000" font-family="sans-serif" font-size="14" lengthAdjust="spacing" textLength="78" x="77" y="877.0684">JobRefCode</text><line style="stroke:#181818;stroke-width:0.5;" x1="23" x2="183" y1="885.582" y2="885.582"/><line style="stroke:#181818;stroke-width:0.5;" x1="23" x2="183" y1="893.582" y2="893.582"/></g><!--class JobTitle--><g id="elem_JobTitle"><rect codeLine="8" fill="#F1F1F1" height="60.582" id="JobTitle" rx="2.5" ry="2.5" style="stroke:#181818;stroke-width:0.5;" width="111" x="219.5" y="841"/><ellipse cx="234.5" cy="863.291" fill="#F04800" rx="11" ry="11" style="stroke:#181818;stroke-width:1.0;"/><path d="M235.0938,866.5566 L237.5625,860.6816 L237.1719,860.6816 Q236.5625,860.6816 236.2969,860.4473 Q236.0313,860.2129 236.0313,859.8223 Q236.0313,859.4473 236.2969,859.2129 Q236.5625,858.9785 237.1719,858.9785 L239.4531,858.9785 Q240.0625,858.9785 240.3281,859.2129 Q240.5938,859.4473 240.5938,859.8223 Q240.5938,860.291 240.1875,860.5566 Q240,860.6816 239.4063,860.6816 L235.9219,869.041 L234.2813,869.041 L230.7969,860.6816 Q230.2031,860.6816 230.0156,860.5566 Q229.6094,860.291 229.6094,859.8223 Q229.6094,859.4473 229.875,859.2129 Q230.1406,858.9785 230.75,858.9785 L233.0469,858.9785 Q233.6563,858.9785 233.9063,859.2129 Q234.1719,859.4473 234.1719,859.8223 Q234.1719,860.2129 233.9063,860.4473 Q233.6563,860.6816 233.0469,860.6816 L232.6406,860.6816 L235.0938,866.5566 Z " fill="#000000"/><text fill="#000000" font-family="sans-serif" font-size="12" font-style="italic" lengthAdjust="spacing" textLength="83" x="246.5" y="858.9492">&#171;value Object&#187;</text><text fill="#000000" font-family="sans-serif" font-size="14" lengthAdjust="spacing" textLength="49" x="263.5" y="877.0684">JobTitle</text><line style="stroke:#181818;stroke-width:0.5;" x1="220.5" x2="329.5" y1="885.582" y2="885.582"/><line style="stroke:#181818;stroke-width:0.5;" x1="220.5" x2="329.5" y1="893.582" y2="893.582"/></g><!--class ContractType--><g id="elem_ContractType"><rect codeLine="9" fill="#F1F1F1" height="60.582" id="ContractType" rx="2.5" ry="2.5" style="stroke:#181818;stroke-width:0.5;" width="118" x="366" y="841"/><ellipse cx="381" cy="863.291" fill="#F04800" rx="11" ry="11" style="stroke:#181818;stroke-width:1.0;"/><path d="M381.5938,866.5566 L384.0625,860.6816 L383.6719,860.6816 Q383.0625,860.6816 382.7969,860.4473 Q382.5313,860.2129 382.5313,859.8223 Q382.5313,859.4473 382.7969,859.2129 Q383.0625,858.9785 383.6719,858.9785 L385.9531,858.9785 Q386.5625,858.9785 386.8281,859.2129 Q387.0938,859.4473 387.0938,859.8223 Q387.0938,860.291 386.6875,860.5566 Q386.5,860.6816 385.9063,860.6816 L382.4219,869.041 L380.7813,869.041 L377.2969,860.6816 Q376.7031,860.6816 376.5156,860.5566 Q376.1094,860.291 376.1094,859.8223 Q376.1094,859.4473 376.375,859.2129 Q376.6406,858.9785 377.25,858.9785 L379.5469,858.9785 Q380.1563,858.9785 380.4063,859.2129 Q380.6719,859.4473 380.6719,859.8223 Q380.6719,860.2129 380.4063,860.4473 Q380.1563,860.6816 379.5469,860.6816 L379.1406,860.6816 L381.5938,866.5566 Z " fill="#000000"/><text fill="#000000" font-family="sans-serif" font-size="12" font-style="italic" lengthAdjust="spacing" textLength="83" x="396.5" y="858.9492">&#171;value Object&#187;</text><text fill="#000000" font-family="sans-serif" font-size="14" lengthAdjust="spacing" textLength="86" x="395" y="877.0684">ContractType</text><line style="stroke:#181818;stroke-width:0.5;" x1="367" x2="483" y1="885.582" y2="885.582"/><line style="stroke:#181818;stroke-width:0.5;" x1="367" x2="483" y1="893.582" y2="893.582"/></g><!--class JobMode--><g id="elem_JobMode"><rect codeLine="10" fill="#F1F1F1" height="60.582" id="JobMode" rx="2.5" ry="2.5" style="stroke:#181818;stroke-width:0.5;" width="111" x="519.5" y="841"/><ellipse cx="534.5" cy="863.291" fill="#F04800" rx="11" ry="11" style="stroke:#181818;stroke-width:1.0;"/><path d="M535.0938,866.5566 L537.5625,860.6816 L537.1719,860.6816 Q536.5625,860.6816 536.2969,860.4473 Q536.0313,860.2129 536.0313,859.8223 Q536.0313,859.4473 536.2969,859.2129 Q536.5625,858.9785 537.1719,858.9785 L539.4531,858.9785 Q540.0625,858.9785 540.3281,859.2129 Q540.5938,859.4473 540.5938,859.8223 Q540.5938,860.291 540.1875,860.5566 Q540,860.6816 539.4063,860.6816 L535.9219,869.041 L534.2813,869.041 L530.7969,860.6816 Q530.2031,860.6816 530.0156,860.5566 Q529.6094,860.291 529.6094,859.8223 Q529.6094,859.4473 529.875,859.2129 Q530.1406,858.9785 530.75,858.9785 L533.0469,858.9785 Q533.6563,858.9785 533.9063,859.2129 Q534.1719,859.4473 534.1719,859.8223 Q534.1719,860.2129 533.9063,860.4473 Q533.6563,860.6816 533.0469,860.6816 L532.6406,860.6816 L535.0938,866.5566 Z " fill="#000000"/><text fill="#000000" font-family="sans-serif" font-size="12" font-style="italic" lengthAdjust="spacing" textLength="83" x="546.5" y="858.9492">&#171;value Object&#187;</text><text fill="#000000" font-family="sans-serif" font-size="14" lengthAdjust="spacing" textLength="57" x="559.5" y="877.0684">JobMode</text><line style="stroke:#181818;stroke-width:0.5;" x1="520.5" x2="629.5" y1="885.582" y2="885.582"/><line style="stroke:#181818;stroke-width:0.5;" x1="520.5" x2="629.5" y1="893.582" y2="893.582"/></g><!--class NumberOfVacancies--><g id="elem_NumberOfVacancies"><rect codeLine="11" fill="#F1F1F1" height="60.582" id="NumberOfVacancies" rx="2.5" ry="2.5" style="stroke:#181818;stroke-width:0.5;" width="161" x="665.5" y="841"/><ellipse cx="680.5" cy="863.291" fill="#F04800" rx="11" ry="11" style="stroke:#181818;stroke-width:1.0;"/><path d="M681.0938,866.5566 L683.5625,860.6816 L683.1719,860.6816 Q682.5625,860.6816 682.2969,860.4473 Q682.0313,860.2129 682.0313,859.8223 Q682.0313,859.4473 682.2969,859.2129 Q682.5625,858.9785 683.1719,858.9785 L685.4531,858.9785 Q686.0625,858.9785 686.3281,859.2129 Q686.5938,859.4473 686.5938,859.8223 Q686.5938,860.291 686.1875,860.5566 Q686,860.6816 685.4063,860.6816 L681.9219,869.041 L680.2813,869.041 L676.7969,860.6816 Q676.2031,860.6816 676.0156,860.5566 Q675.6094,860.291 675.6094,859.8223 Q675.6094,859.4473 675.875,859.2129 Q676.1406,858.9785 676.75,858.9785 L679.0469,858.9785 Q679.6563,858.9785 679.9063,859.2129 Q680.1719,859.4473 680.1719,859.8223 Q680.1719,860.2129 679.9063,860.4473 Q679.6563,860.6816 679.0469,860.6816 L678.6406,860.6816 L681.0938,866.5566 Z " fill="#000000"/><text fill="#000000" font-family="sans-serif" font-size="12" font-style="italic" lengthAdjust="spacing" textLength="83" x="717.5" y="858.9492">&#171;value Object&#187;</text><text fill="#000000" font-family="sans-serif" font-size="14" lengthAdjust="spacing" textLength="129" x="694.5" y="877.0684">NumberOfVacancies</text><line style="stroke:#181818;stroke-width:0.5;" x1="666.5" x2="825.5" y1="885.582" y2="885.582"/><line style="stroke:#181818;stroke-width:0.5;" x1="666.5" x2="825.5" y1="893.582" y2="893.582"/></g><!--class RegisteredPlugin--><g id="elem_RegisteredPlugin"><rect codeLine="16" fill="#F1F1F1" height="66.6211" id="RegisteredPlugin" rx="2.5" ry="2.5" style="stroke:#181818;stroke-width:0.5;" width="140" x="1564" y="571"/><ellipse cx="1579" cy="587" fill="#ADD1B2" rx="11" ry="11" style="stroke:#181818;stroke-width:1.0;"/><path d="M1577.8594,587.7969 L1577.8594,590.2969 L1582.1875,590.2969 L1582.1875,589.375 Q1582.1875,588.7656 1582.4219,588.5 Q1582.6719,588.2344 1583.0469,588.2344 Q1583.4219,588.2344 1583.6563,588.5 Q1583.8906,588.7656 1583.8906,589.375 L1583.8906,592 L1575.8906,592 Q1575.2656,592 1575,591.7656 Q1574.75,591.5313 1574.75,591.1406 Q1574.75,590.7656 1575.0156,590.5313 Q1575.2813,590.2969 1575.8906,590.2969 L1576.1563,590.2969 L1576.1563,583.6406 L1575.8906,583.6406 Q1575.2656,583.6406 1575,583.4063 Q1574.75,583.1719 1574.75,582.7813 Q1574.75,582.4063 1575,582.1719 Q1575.2656,581.9375 1575.8906,581.9375 L1583.5156,581.9375 L1583.5156,584.5313 Q1583.5156,585.1406 1583.2813,585.4063 Q1583.0625,585.6563 1582.6719,585.6563 Q1582.2969,585.6563 1582.0625,585.4063 Q1581.8281,585.1406 1581.8281,584.5313 L1581.8281,583.6406 L1577.8594,583.6406 L1577.8594,586.0938 L1579.3438,586.0938 Q1579.3438,585.4375 1579.4688,585.25 Q1579.7344,584.8438 1580.2031,584.8438 Q1580.5781,584.8438 1580.8125,585.1094 Q1581.0469,585.3594 1581.0469,585.9688 L1581.0469,587.9375 Q1581.0469,588.4844 1580.9219,588.6719 Q1580.6563,589.0625 1580.2031,589.0625 Q1579.7344,589.0625 1579.4688,588.6563 Q1579.3438,588.4688 1579.3438,587.7969 L1577.8594,587.7969 Z " fill="#000000"/><text fill="#000000" font-family="sans-serif" font-size="14" lengthAdjust="spacing" textLength="108" x="1593" y="592.7969">RegisteredPlugin</text><line style="stroke:#181818;stroke-width:0.5;" x1="1565" x2="1703" y1="603" y2="603"/><text fill="#000000" font-family="sans-serif" font-size="14" lengthAdjust="spacing" textLength="79" x="1570" y="622.1074">&#171;root entity&#187;</text><line style="stroke:#181818;stroke-width:0.5;" x1="1565" x2="1703" y1="629.6211" y2="629.6211"/></g><!--class PluginFileName--><g id="elem_PluginFileName"><rect codeLine="20" fill="#F1F1F1" height="60.582" id="PluginFileName" rx="2.5" ry="2.5" style="stroke:#181818;stroke-width:0.5;" width="162" x="1488" y="717"/><ellipse cx="1503" cy="739.291" fill="#F09000" rx="11" ry="11" style="stroke:#181818;stroke-width:1.0;"/><path d="M1503.5938,742.5566 L1506.0625,736.6816 L1505.6719,736.6816 Q1505.0625,736.6816 1504.7969,736.4473 Q1504.5313,736.2129 1504.5313,735.8223 Q1504.5313,735.4473 1504.7969,735.2129 Q1505.0625,734.9785 1505.6719,734.9785 L1507.9531,734.9785 Q1508.5625,734.9785 1508.8281,735.2129 Q1509.0938,735.4473 1509.0938,735.8223 Q1509.0938,736.291 1508.6875,736.5566 Q1508.5,736.6816 1507.9063,736.6816 L1504.4219,745.041 L1502.7813,745.041 L1499.2969,736.6816 Q1498.7031,736.6816 1498.5156,736.5566 Q1498.1094,736.291 1498.1094,735.8223 Q1498.1094,735.4473 1498.375,735.2129 Q1498.6406,734.9785 1499.25,734.9785 L1501.5469,734.9785 Q1502.1563,734.9785 1502.4063,735.2129 Q1502.6719,735.4473 1502.6719,735.8223 Q1502.6719,736.2129 1502.4063,736.4473 Q1502.1563,736.6816 1501.5469,736.6816 L1501.1406,736.6816 L1503.5938,742.5566 Z " fill="#000000"/><text fill="#000000" font-family="sans-serif" font-size="12" font-style="italic" lengthAdjust="spacing" textLength="134" x="1515" y="734.9492">&#171;Identifier value Object&#187;</text><text fill="#000000" font-family="sans-serif" font-size="14" lengthAdjust="spacing" textLength="98" x="1533" y="753.0684">PluginFileName</text><line style="stroke:#181818;stroke-width:0.5;" x1="1489" x2="1649" y1="761.582" y2="761.582"/><line style="stroke:#181818;stroke-width:0.5;" x1="1489" x2="1649" y1="769.582" y2="769.582"/></g><!--class PluginName--><g id="elem_PluginName"><rect codeLine="21" fill="#F1F1F1" height="60.582" id="PluginName" rx="2.5" ry="2.5" style="stroke:#181818;stroke-width:0.5;" width="111" x="1685.5" y="717"/><ellipse cx="1700.5" cy="739.291" fill="#F04800" rx="11" ry="11" style="stroke:#181818;stroke-width:1.0;"/><path d="M1701.0938,742.5566 L1703.5625,736.6816 L1703.1719,736.6816 Q1702.5625,736.6816 1702.2969,736.4473 Q1702.0313,736.2129 1702.0313,735.8223 Q1702.0313,735.4473 1702.2969,735.2129 Q1702.5625,734.9785 1703.1719,734.9785 L1705.4531,734.9785 Q1706.0625,734.9785 1706.3281,735.2129 Q1706.5938,735.4473 1706.5938,735.8223 Q1706.5938,736.291 1706.1875,736.5566 Q1706,736.6816 1705.4063,736.6816 L1701.9219,745.041 L1700.2813,745.041 L1696.7969,736.6816 Q1696.2031,736.6816 1696.0156,736.5566 Q1695.6094,736.291 1695.6094,735.8223 Q1695.6094,735.4473 1695.875,735.2129 Q1696.1406,734.9785 1696.75,734.9785 L1699.0469,734.9785 Q1699.6563,734.9785 1699.9063,735.2129 Q1700.1719,735.4473 1700.1719,735.8223 Q1700.1719,736.2129 1699.9063,736.4473 Q1699.6563,736.6816 1699.0469,736.6816 L1698.6406,736.6816 L1701.0938,742.5566 Z " fill="#000000"/><text fill="#000000" font-family="sans-serif" font-size="12" font-style="italic" lengthAdjust="spacing" textLength="83" x="1712.5" y="734.9492">&#171;value Object&#187;</text><text fill="#000000" font-family="sans-serif" font-size="14" lengthAdjust="spacing" textLength="75" x="1716.5" y="753.0684">PluginName</text><line style="stroke:#181818;stroke-width:0.5;" x1="1686.5" x2="1795.5" y1="761.582" y2="761.582"/><line style="stroke:#181818;stroke-width:0.5;" x1="1686.5" x2="1795.5" y1="769.582" y2="769.582"/></g><!--class PluginType--><g id="elem_PluginType"><rect codeLine="22" fill="#F1F1F1" height="60.582" id="PluginType" rx="2.5" ry="2.5" style="stroke:#181818;stroke-width:0.5;" width="113" x="1831.5" y="717"/><ellipse cx="1846.5" cy="739.291" fill="#EB937F" rx="11" ry="11" style="stroke:#181818;stroke-width:1.0;"/><path d="M1845.3594,740.0879 L1845.3594,742.5879 L1849.6875,742.5879 L1849.6875,741.666 Q1849.6875,741.0566 1849.9219,740.791 Q1850.1719,740.5254 1850.5469,740.5254 Q1850.9219,740.5254 1851.1563,740.791 Q1851.3906,741.0566 1851.3906,741.666 L1851.3906,744.291 L1843.3906,744.291 Q1842.7656,744.291 1842.5,744.0566 Q1842.25,743.8223 1842.25,743.4316 Q1842.25,743.0566 1842.5156,742.8223 Q1842.7813,742.5879 1843.3906,742.5879 L1843.6563,742.5879 L1843.6563,735.9316 L1843.3906,735.9316 Q1842.7656,735.9316 1842.5,735.6973 Q1842.25,735.4629 1842.25,735.0723 Q1842.25,734.6973 1842.5,734.4629 Q1842.7656,734.2285 1843.3906,734.2285 L1851.0156,734.2285 L1851.0156,736.8223 Q1851.0156,737.4316 1850.7813,737.6973 Q1850.5625,737.9473 1850.1719,737.9473 Q1849.7969,737.9473 1849.5625,737.6973 Q1849.3281,737.4316 1849.3281,736.8223 L1849.3281,735.9316 L1845.3594,735.9316 L1845.3594,738.3848 L1846.8438,738.3848 Q1846.8438,737.7285 1846.9688,737.541 Q1847.2344,737.1348 1847.7031,737.1348 Q1848.0781,737.1348 1848.3125,737.4004 Q1848.5469,737.6504 1848.5469,738.2598 L1848.5469,740.2285 Q1848.5469,740.7754 1848.4219,740.9629 Q1848.1563,741.3535 1847.7031,741.3535 Q1847.2344,741.3535 1846.9688,740.9473 Q1846.8438,740.7598 1846.8438,740.0879 L1845.3594,740.0879 Z " fill="#000000"/><text fill="#000000" font-family="sans-serif" font-size="12" font-style="italic" lengthAdjust="spacing" textLength="85" x="1858.5" y="734.9492">&#171;enum Object&#187;</text><text fill="#000000" font-family="sans-serif" font-size="14" lengthAdjust="spacing" textLength="71" x="1865.5" y="753.0684">PluginType</text><line style="stroke:#181818;stroke-width:0.5;" x1="1832.5" x2="1943.5" y1="761.582" y2="761.582"/><line style="stroke:#181818;stroke-width:0.5;" x1="1832.5" x2="1943.5" y1="769.582" y2="769.582"/></g><!--class RequirementSpecification--><g id="elem_RequirementSpecification"><rect codeLine="27" fill="#F1F1F1" height="66.6211" id="RequirementSpecification" rx="2.5" ry="2.5" style="stroke:#181818;stroke-width:0.5;" width="193" x="1021.5" y="571"/><ellipse cx="1036.5" cy="587" fill="#ADD1B2" rx="11" ry="11" style="stroke:#181818;stroke-width:1.0;"/><path d="M1035.3594,587.7969 L1035.3594,590.2969 L1039.6875,590.2969 L1039.6875,589.375 Q1039.6875,588.7656 1039.9219,588.5 Q1040.1719,588.2344 1040.5469,588.2344 Q1040.9219,588.2344 1041.1563,588.5 Q1041.3906,588.7656 1041.3906,589.375 L1041.3906,592 L1033.3906,592 Q1032.7656,592 1032.5,591.7656 Q1032.25,591.5313 1032.25,591.1406 Q1032.25,590.7656 1032.5156,590.5313 Q1032.7813,590.2969 1033.3906,590.2969 L1033.6563,590.2969 L1033.6563,583.6406 L1033.3906,583.6406 Q1032.7656,583.6406 1032.5,583.4063 Q1032.25,583.1719 1032.25,582.7813 Q1032.25,582.4063 1032.5,582.1719 Q1032.7656,581.9375 1033.3906,581.9375 L1041.0156,581.9375 L1041.0156,584.5313 Q1041.0156,585.1406 1040.7813,585.4063 Q1040.5625,585.6563 1040.1719,585.6563 Q1039.7969,585.6563 1039.5625,585.4063 Q1039.3281,585.1406 1039.3281,584.5313 L1039.3281,583.6406 L1035.3594,583.6406 L1035.3594,586.0938 L1036.8438,586.0938 Q1036.8438,585.4375 1036.9688,585.25 Q1037.2344,584.8438 1037.7031,584.8438 Q1038.0781,584.8438 1038.3125,585.1094 Q1038.5469,585.3594 1038.5469,585.9688 L1038.5469,587.9375 Q1038.5469,588.4844 1038.4219,588.6719 Q1038.1563,589.0625 1037.7031,589.0625 Q1037.2344,589.0625 1036.9688,588.6563 Q1036.8438,588.4688 1036.8438,587.7969 L1035.3594,587.7969 Z " fill="#000000"/><text fill="#000000" font-family="sans-serif" font-size="14" lengthAdjust="spacing" textLength="161" x="1050.5" y="592.7969">RequirementSpecification</text><line style="stroke:#181818;stroke-width:0.5;" x1="1022.5" x2="1213.5" y1="603" y2="603"/><text fill="#000000" font-family="sans-serif" font-size="14" lengthAdjust="spacing" textLength="79" x="1027.5" y="622.1074">&#171;root entity&#187;</text><line style="stroke:#181818;stroke-width:0.5;" x1="1022.5" x2="1213.5" y1="629.6211" y2="629.6211"/></g><!--class RequirementSpecificationDescription--><g id="elem_RequirementSpecificationDescription"><rect codeLine="31" fill="#F1F1F1" height="60.582" id="RequirementSpecificationDescription" rx="2.5" ry="2.5" style="stroke:#181818;stroke-width:0.5;" width="264" x="883" y="717"/><ellipse cx="898" cy="739.291" fill="#F04800" rx="11" ry="11" style="stroke:#181818;stroke-width:1.0;"/><path d="M898.5938,742.5566 L901.0625,736.6816 L900.6719,736.6816 Q900.0625,736.6816 899.7969,736.4473 Q899.5313,736.2129 899.5313,735.8223 Q899.5313,735.4473 899.7969,735.2129 Q900.0625,734.9785 900.6719,734.9785 L902.9531,734.9785 Q903.5625,734.9785 903.8281,735.2129 Q904.0938,735.4473 904.0938,735.8223 Q904.0938,736.291 903.6875,736.5566 Q903.5,736.6816 902.9063,736.6816 L899.4219,745.041 L897.7813,745.041 L894.2969,736.6816 Q893.7031,736.6816 893.5156,736.5566 Q893.1094,736.291 893.1094,735.8223 Q893.1094,735.4473 893.375,735.2129 Q893.6406,734.9785 894.25,734.9785 L896.5469,734.9785 Q897.1563,734.9785 897.4063,735.2129 Q897.6719,735.4473 897.6719,735.8223 Q897.6719,736.2129 897.4063,736.4473 Q897.1563,736.6816 896.5469,736.6816 L896.1406,736.6816 L898.5938,742.5566 Z " fill="#000000"/><text fill="#000000" font-family="sans-serif" font-size="12" font-style="italic" lengthAdjust="spacing" textLength="83" x="986.5" y="734.9492">&#171;value Object&#187;</text><text fill="#000000" font-family="sans-serif" font-size="14" lengthAdjust="spacing" textLength="232" x="912" y="753.0684">RequirementSpecificationDescription</text><line style="stroke:#181818;stroke-width:0.5;" x1="884" x2="1146" y1="761.582" y2="761.582"/><line style="stroke:#181818;stroke-width:0.5;" x1="884" x2="1146" y1="769.582" y2="769.582"/></g><!--class RequirementSpecificationAnswer--><g id="elem_RequirementSpecificationAnswer"><rect codeLine="32" fill="#F1F1F1" height="60.582" id="RequirementSpecificationAnswer" rx="2.5" ry="2.5" style="stroke:#181818;stroke-width:0.5;" width="239" x="998.5" y="384"/><ellipse cx="1013.5" cy="406.291" fill="#F04800" rx="11" ry="11" style="stroke:#181818;stroke-width:1.0;"/><path d="M1014.0938,409.5566 L1016.5625,403.6816 L1016.1719,403.6816 Q1015.5625,403.6816 1015.2969,403.4473 Q1015.0313,403.2129 1015.0313,402.8223 Q1015.0313,402.4473 1015.2969,402.2129 Q1015.5625,401.9785 1016.1719,401.9785 L1018.4531,401.9785 Q1019.0625,401.9785 1019.3281,402.2129 Q1019.5938,402.4473 1019.5938,402.8223 Q1019.5938,403.291 1019.1875,403.5566 Q1019,403.6816 1018.4063,403.6816 L1014.9219,412.041 L1013.2813,412.041 L1009.7969,403.6816 Q1009.2031,403.6816 1009.0156,403.5566 Q1008.6094,403.291 1008.6094,402.8223 Q1008.6094,402.4473 1008.875,402.2129 Q1009.1406,401.9785 1009.75,401.9785 L1012.0469,401.9785 Q1012.6563,401.9785 1012.9063,402.2129 Q1013.1719,402.4473 1013.1719,402.8223 Q1013.1719,403.2129 1012.9063,403.4473 Q1012.6563,403.6816 1012.0469,403.6816 L1011.6406,403.6816 L1014.0938,409.5566 Z " fill="#000000"/><text fill="#000000" font-family="sans-serif" font-size="12" font-style="italic" lengthAdjust="spacing" textLength="83" x="1089.5" y="401.9492">&#171;value Object&#187;</text><text fill="#000000" font-family="sans-serif" font-size="14" lengthAdjust="spacing" textLength="207" x="1027.5" y="420.0684">RequirementSpecificationAnswer</text><line style="stroke:#181818;stroke-width:0.5;" x1="999.5" x2="1236.5" y1="428.582" y2="428.582"/><line style="stroke:#181818;stroke-width:0.5;" x1="999.5" x2="1236.5" y1="436.582" y2="436.582"/></g><!--class RequirementSpecificationRefCode--><g id="elem_RequirementSpecificationRefCode"><rect codeLine="33" fill="#F1F1F1" height="60.582" id="RequirementSpecificationRefCode" rx="2.5" ry="2.5" style="stroke:#181818;stroke-width:0.5;" width="249" x="1182.5" y="717"/><ellipse cx="1197.5" cy="739.291" fill="#F09000" rx="11" ry="11" style="stroke:#181818;stroke-width:1.0;"/><path d="M1198.0938,742.5566 L1200.5625,736.6816 L1200.1719,736.6816 Q1199.5625,736.6816 1199.2969,736.4473 Q1199.0313,736.2129 1199.0313,735.8223 Q1199.0313,735.4473 1199.2969,735.2129 Q1199.5625,734.9785 1200.1719,734.9785 L1202.4531,734.9785 Q1203.0625,734.9785 1203.3281,735.2129 Q1203.5938,735.4473 1203.5938,735.8223 Q1203.5938,736.291 1203.1875,736.5566 Q1203,736.6816 1202.4063,736.6816 L1198.9219,745.041 L1197.2813,745.041 L1193.7969,736.6816 Q1193.2031,736.6816 1193.0156,736.5566 Q1192.6094,736.291 1192.6094,735.8223 Q1192.6094,735.4473 1192.875,735.2129 Q1193.1406,734.9785 1193.75,734.9785 L1196.0469,734.9785 Q1196.6563,734.9785 1196.9063,735.2129 Q1197.1719,735.4473 1197.1719,735.8223 Q1197.1719,736.2129 1196.9063,736.4473 Q1196.6563,736.6816 1196.0469,736.6816 L1195.6406,736.6816 L1198.0938,742.5566 Z " fill="#000000"/><text fill="#000000" font-family="sans-serif" font-size="12" font-style="italic" lengthAdjust="spacing" textLength="134" x="1253" y="734.9492">&#171;Identifier value Object&#187;</text><text fill="#000000" font-family="sans-serif" font-size="14" lengthAdjust="spacing" textLength="217" x="1211.5" y="753.0684">RequirementSpecificationRefCode</text><line style="stroke:#181818;stroke-width:0.5;" x1="1183.5" x2="1430.5" y1="761.582" y2="761.582"/><line style="stroke:#181818;stroke-width:0.5;" x1="1183.5" x2="1430.5" y1="769.582" y2="769.582"/></g><!--class Application--><g id="elem_Application"><rect codeLine="38" fill="#F1F1F1" height="66.6211" id="Application" rx="2.5" ry="2.5" style="stroke:#181818;stroke-width:0.5;" width="101" x="1733.5" y="191"/><ellipse cx="1748.5" cy="207" fill="#ADD1B2" rx="11" ry="11" style="stroke:#181818;stroke-width:1.0;"/><path d="M1747.3594,207.7969 L1747.3594,210.2969 L1751.6875,210.2969 L1751.6875,209.375 Q1751.6875,208.7656 1751.9219,208.5 Q1752.1719,208.2344 1752.5469,208.2344 Q1752.9219,208.2344 1753.1563,208.5 Q1753.3906,208.7656 1753.3906,209.375 L1753.3906,212 L1745.3906,212 Q1744.7656,212 1744.5,211.7656 Q1744.25,211.5313 1744.25,211.1406 Q1744.25,210.7656 1744.5156,210.5313 Q1744.7813,210.2969 1745.3906,210.2969 L1745.6563,210.2969 L1745.6563,203.6406 L1745.3906,203.6406 Q1744.7656,203.6406 1744.5,203.4063 Q1744.25,203.1719 1744.25,202.7813 Q1744.25,202.4063 1744.5,202.1719 Q1744.7656,201.9375 1745.3906,201.9375 L1753.0156,201.9375 L1753.0156,204.5313 Q1753.0156,205.1406 1752.7813,205.4063 Q1752.5625,205.6563 1752.1719,205.6563 Q1751.7969,205.6563 1751.5625,205.4063 Q1751.3281,205.1406 1751.3281,204.5313 L1751.3281,203.6406 L1747.3594,203.6406 L1747.3594,206.0938 L1748.8438,206.0938 Q1748.8438,205.4375 1748.9688,205.25 Q1749.2344,204.8438 1749.7031,204.8438 Q1750.0781,204.8438 1750.3125,205.1094 Q1750.5469,205.3594 1750.5469,205.9688 L1750.5469,207.9375 Q1750.5469,208.4844 1750.4219,208.6719 Q1750.1563,209.0625 1749.7031,209.0625 Q1749.2344,209.0625 1748.9688,208.6563 Q1748.8438,208.4688 1748.8438,207.7969 L1747.3594,207.7969 Z " fill="#000000"/><text fill="#000000" font-family="sans-serif" font-size="14" lengthAdjust="spacing" textLength="69" x="1762.5" y="212.7969">Application</text><line style="stroke:#181818;stroke-width:0.5;" x1="1734.5" x2="1833.5" y1="223" y2="223"/><text fill="#000000" font-family="sans-serif" font-size="14" lengthAdjust="spacing" textLength="79" x="1739.5" y="242.1074">&#171;root entity&#187;</text><line style="stroke:#181818;stroke-width:0.5;" x1="1734.5" x2="1833.5" y1="249.6211" y2="249.6211"/></g><!--class ApplicationAttachedFile--><g id="elem_ApplicationAttachedFile"><rect codeLine="42" fill="#F1F1F1" height="60.582" id="ApplicationAttachedFile" rx="2.5" ry="2.5" style="stroke:#181818;stroke-width:0.5;" width="180" x="1488" y="384"/><ellipse cx="1503" cy="406.291" fill="#F04800" rx="11" ry="11" style="stroke:#181818;stroke-width:1.0;"/><path d="M1503.5938,409.5566 L1506.0625,403.6816 L1505.6719,403.6816 Q1505.0625,403.6816 1504.7969,403.4473 Q1504.5313,403.2129 1504.5313,402.8223 Q1504.5313,402.4473 1504.7969,402.2129 Q1505.0625,401.9785 1505.6719,401.9785 L1507.9531,401.9785 Q1508.5625,401.9785 1508.8281,402.2129 Q1509.0938,402.4473 1509.0938,402.8223 Q1509.0938,403.291 1508.6875,403.5566 Q1508.5,403.6816 1507.9063,403.6816 L1504.4219,412.041 L1502.7813,412.041 L1499.2969,403.6816 Q1498.7031,403.6816 1498.5156,403.5566 Q1498.1094,403.291 1498.1094,402.8223 Q1498.1094,402.4473 1498.375,402.2129 Q1498.6406,401.9785 1499.25,401.9785 L1501.5469,401.9785 Q1502.1563,401.9785 1502.4063,402.2129 Q1502.6719,402.4473 1502.6719,402.8223 Q1502.6719,403.2129 1502.4063,403.4473 Q1502.1563,403.6816 1501.5469,403.6816 L1501.1406,403.6816 L1503.5938,409.5566 Z " fill="#000000"/><text fill="#000000" font-family="sans-serif" font-size="12" font-style="italic" lengthAdjust="spacing" textLength="83" x="1549.5" y="401.9492">&#171;value Object&#187;</text><text fill="#000000" font-family="sans-serif" font-size="14" lengthAdjust="spacing" textLength="148" x="1517" y="420.0684">ApplicationAttachedFile</text><line style="stroke:#181818;stroke-width:0.5;" x1="1489" x2="1667" y1="428.582" y2="428.582"/><line style="stroke:#181818;stroke-width:0.5;" x1="1489" x2="1667" y1="436.582" y2="436.582"/></g><!--class ApplicationRefCode--><g id="elem_ApplicationRefCode"><rect codeLine="43" fill="#F1F1F1" height="60.582" id="ApplicationRefCode" rx="2.5" ry="2.5" style="stroke:#181818;stroke-width:0.5;" width="162" x="1703" y="384"/><ellipse cx="1718" cy="406.291" fill="#F09000" rx="11" ry="11" style="stroke:#181818;stroke-width:1.0;"/><path d="M1718.5938,409.5566 L1721.0625,403.6816 L1720.6719,403.6816 Q1720.0625,403.6816 1719.7969,403.4473 Q1719.5313,403.2129 1719.5313,402.8223 Q1719.5313,402.4473 1719.7969,402.2129 Q1720.0625,401.9785 1720.6719,401.9785 L1722.9531,401.9785 Q1723.5625,401.9785 1723.8281,402.2129 Q1724.0938,402.4473 1724.0938,402.8223 Q1724.0938,403.291 1723.6875,403.5566 Q1723.5,403.6816 1722.9063,403.6816 L1719.4219,412.041 L1717.7813,412.041 L1714.2969,403.6816 Q1713.7031,403.6816 1713.5156,403.5566 Q1713.1094,403.291 1713.1094,402.8223 Q1713.1094,402.4473 1713.375,402.2129 Q1713.6406,401.9785 1714.25,401.9785 L1716.5469,401.9785 Q1717.1563,401.9785 1717.4063,402.2129 Q1717.6719,402.4473 1717.6719,402.8223 Q1717.6719,403.2129 1717.4063,403.4473 Q1717.1563,403.6816 1716.5469,403.6816 L1716.1406,403.6816 L1718.5938,409.5566 Z " fill="#000000"/><text fill="#000000" font-family="sans-serif" font-size="12" font-style="italic" lengthAdjust="spacing" textLength="134" x="1730" y="401.9492">&#171;Identifier value Object&#187;</text><text fill="#000000" font-family="sans-serif" font-size="14" lengthAdjust="spacing" textLength="125" x="1734.5" y="420.0684">ApplicationRefCode</text><line style="stroke:#181818;stroke-width:0.5;" x1="1704" x2="1864" y1="428.582" y2="428.582"/><line style="stroke:#181818;stroke-width:0.5;" x1="1704" x2="1864" y1="436.582" y2="436.582"/></g><!--class ApplicationAttachedFilesLocation--><g id="elem_ApplicationAttachedFilesLocation"><rect codeLine="44" fill="#F1F1F1" height="60.582" id="ApplicationAttachedFilesLocation" rx="2.5" ry="2.5" style="stroke:#181818;stroke-width:0.5;" width="241" x="1900.5" y="384"/><ellipse cx="1915.5" cy="406.291" fill="#F04800" rx="11" ry="11" style="stroke:#181818;stroke-width:1.0;"/><path d="M1916.0938,409.5566 L1918.5625,403.6816 L1918.1719,403.6816 Q1917.5625,403.6816 1917.2969,403.4473 Q1917.0313,403.2129 1917.0313,402.8223 Q1917.0313,402.4473 1917.2969,402.2129 Q1917.5625,401.9785 1918.1719,401.9785 L1920.4531,401.9785 Q1921.0625,401.9785 1921.3281,402.2129 Q1921.5938,402.4473 1921.5938,402.8223 Q1921.5938,403.291 1921.1875,403.5566 Q1921,403.6816 1920.4063,403.6816 L1916.9219,412.041 L1915.2813,412.041 L1911.7969,403.6816 Q1911.2031,403.6816 1911.0156,403.5566 Q1910.6094,403.291 1910.6094,402.8223 Q1910.6094,402.4473 1910.875,402.2129 Q1911.1406,401.9785 1911.75,401.9785 L1914.0469,401.9785 Q1914.6563,401.9785 1914.9063,402.2129 Q1915.1719,402.4473 1915.1719,402.8223 Q1915.1719,403.2129 1914.9063,403.4473 Q1914.6563,403.6816 1914.0469,403.6816 L1913.6406,403.6816 L1916.0938,409.5566 Z " fill="#000000"/><text fill="#000000" font-family="sans-serif" font-size="12" font-style="italic" lengthAdjust="spacing" textLength="83" x="1992.5" y="401.9492">&#171;value Object&#187;</text><text fill="#000000" font-family="sans-serif" font-size="14" lengthAdjust="spacing" textLength="209" x="1929.5" y="420.0684">ApplicationAttachedFilesLocation</text><line style="stroke:#181818;stroke-width:0.5;" x1="1901.5" x2="2140.5" y1="428.582" y2="428.582"/><line style="stroke:#181818;stroke-width:0.5;" x1="1901.5" x2="2140.5" y1="436.582" y2="436.582"/></g><!--class InterviewGrade--><g id="elem_InterviewGrade"><rect codeLine="45" fill="#F1F1F1" height="60.582" id="InterviewGrade" rx="2.5" ry="2.5" style="stroke:#181818;stroke-width:0.5;" width="127" x="2176.5" y="384"/><ellipse cx="2191.5" cy="406.291" fill="#F04800" rx="11" ry="11" style="stroke:#181818;stroke-width:1.0;"/><path d="M2192.0938,409.5566 L2194.5625,403.6816 L2194.1719,403.6816 Q2193.5625,403.6816 2193.2969,403.4473 Q2193.0313,403.2129 2193.0313,402.8223 Q2193.0313,402.4473 2193.2969,402.2129 Q2193.5625,401.9785 2194.1719,401.9785 L2196.4531,401.9785 Q2197.0625,401.9785 2197.3281,402.2129 Q2197.5938,402.4473 2197.5938,402.8223 Q2197.5938,403.291 2197.1875,403.5566 Q2197,403.6816 2196.4063,403.6816 L2192.9219,412.041 L2191.2813,412.041 L2187.7969,403.6816 Q2187.2031,403.6816 2187.0156,403.5566 Q2186.6094,403.291 2186.6094,402.8223 Q2186.6094,402.4473 2186.875,402.2129 Q2187.1406,401.9785 2187.75,401.9785 L2190.0469,401.9785 Q2190.6563,401.9785 2190.9063,402.2129 Q2191.1719,402.4473 2191.1719,402.8223 Q2191.1719,403.2129 2190.9063,403.4473 Q2190.6563,403.6816 2190.0469,403.6816 L2189.6406,403.6816 L2192.0938,409.5566 Z " fill="#000000"/><text fill="#000000" font-family="sans-serif" font-size="12" font-style="italic" lengthAdjust="spacing" textLength="83" x="2211.5" y="401.9492">&#171;value Object&#187;</text><text fill="#000000" font-family="sans-serif" font-size="14" lengthAdjust="spacing" textLength="95" x="2205.5" y="420.0684">InterviewGrade</text><line style="stroke:#181818;stroke-width:0.5;" x1="2177.5" x2="2302.5" y1="428.582" y2="428.582"/><line style="stroke:#181818;stroke-width:0.5;" x1="2177.5" x2="2302.5" y1="436.582" y2="436.582"/></g><!--class ApplicationState--><g id="elem_ApplicationState"><rect codeLine="46" fill="#F1F1F1" height="60.582" id="ApplicationState" rx="2.5" ry="2.5" style="stroke:#181818;stroke-width:0.5;" width="134" x="2339" y="384"/><ellipse cx="2354" cy="406.291" fill="#F04800" rx="11" ry="11" style="stroke:#181818;stroke-width:1.0;"/><path d="M2354.5938,409.5566 L2357.0625,403.6816 L2356.6719,403.6816 Q2356.0625,403.6816 2355.7969,403.4473 Q2355.5313,403.2129 2355.5313,402.8223 Q2355.5313,402.4473 2355.7969,402.2129 Q2356.0625,401.9785 2356.6719,401.9785 L2358.9531,401.9785 Q2359.5625,401.9785 2359.8281,402.2129 Q2360.0938,402.4473 2360.0938,402.8223 Q2360.0938,403.291 2359.6875,403.5566 Q2359.5,403.6816 2358.9063,403.6816 L2355.4219,412.041 L2353.7813,412.041 L2350.2969,403.6816 Q2349.7031,403.6816 2349.5156,403.5566 Q2349.1094,403.291 2349.1094,402.8223 Q2349.1094,402.4473 2349.375,402.2129 Q2349.6406,401.9785 2350.25,401.9785 L2352.5469,401.9785 Q2353.1563,401.9785 2353.4063,402.2129 Q2353.6719,402.4473 2353.6719,402.8223 Q2353.6719,403.2129 2353.4063,403.4473 Q2353.1563,403.6816 2352.5469,403.6816 L2352.1406,403.6816 L2354.5938,409.5566 Z " fill="#000000"/><text fill="#000000" font-family="sans-serif" font-size="12" font-style="italic" lengthAdjust="spacing" textLength="83" x="2377.5" y="401.9492">&#171;value Object&#187;</text><text fill="#000000" font-family="sans-serif" font-size="14" lengthAdjust="spacing" textLength="102" x="2368" y="420.0684">ApplicationState</text><line style="stroke:#181818;stroke-width:0.5;" x1="2340" x2="2472" y1="428.582" y2="428.582"/><line style="stroke:#181818;stroke-width:0.5;" x1="2340" x2="2472" y1="436.582" y2="436.582"/></g><!--class ApplicationEmail--><g id="elem_ApplicationEmail"><rect codeLine="47" fill="#F1F1F1" height="60.582" id="ApplicationEmail" rx="2.5" ry="2.5" style="stroke:#181818;stroke-width:0.5;" width="135" x="2086.5" y="194"/><ellipse cx="2101.5" cy="216.291" fill="#F04800" rx="11" ry="11" style="stroke:#181818;stroke-width:1.0;"/><path d="M2102.0938,219.5566 L2104.5625,213.6816 L2104.1719,213.6816 Q2103.5625,213.6816 2103.2969,213.4473 Q2103.0313,213.2129 2103.0313,212.8223 Q2103.0313,212.4473 2103.2969,212.2129 Q2103.5625,211.9785 2104.1719,211.9785 L2106.4531,211.9785 Q2107.0625,211.9785 2107.3281,212.2129 Q2107.5938,212.4473 2107.5938,212.8223 Q2107.5938,213.291 2107.1875,213.5566 Q2107,213.6816 2106.4063,213.6816 L2102.9219,222.041 L2101.2813,222.041 L2097.7969,213.6816 Q2097.2031,213.6816 2097.0156,213.5566 Q2096.6094,213.291 2096.6094,212.8223 Q2096.6094,212.4473 2096.875,212.2129 Q2097.1406,211.9785 2097.75,211.9785 L2100.0469,211.9785 Q2100.6563,211.9785 2100.9063,212.2129 Q2101.1719,212.4473 2101.1719,212.8223 Q2101.1719,213.2129 2100.9063,213.4473 Q2100.6563,213.6816 2100.0469,213.6816 L2099.6406,213.6816 L2102.0938,219.5566 Z " fill="#000000"/><text fill="#000000" font-family="sans-serif" font-size="12" font-style="italic" lengthAdjust="spacing" textLength="83" x="2125.5" y="211.9492">&#171;value Object&#187;</text><text fill="#000000" font-family="sans-serif" font-size="14" lengthAdjust="spacing" textLength="103" x="2115.5" y="230.0684">ApplicationEmail</text><line style="stroke:#181818;stroke-width:0.5;" x1="2087.5" x2="2220.5" y1="238.582" y2="238.582"/><line style="stroke:#181818;stroke-width:0.5;" x1="2087.5" x2="2220.5" y1="246.582" y2="246.582"/></g><!--class Rank--><g id="elem_Rank"><rect codeLine="48" fill="#F1F1F1" height="60.582" id="Rank" rx="2.5" ry="2.5" style="stroke:#181818;stroke-width:0.5;" width="111" x="1940.5" y="194"/><ellipse cx="1955.5" cy="216.291" fill="#F04800" rx="11" ry="11" style="stroke:#181818;stroke-width:1.0;"/><path d="M1956.0938,219.5566 L1958.5625,213.6816 L1958.1719,213.6816 Q1957.5625,213.6816 1957.2969,213.4473 Q1957.0313,213.2129 1957.0313,212.8223 Q1957.0313,212.4473 1957.2969,212.2129 Q1957.5625,211.9785 1958.1719,211.9785 L1960.4531,211.9785 Q1961.0625,211.9785 1961.3281,212.2129 Q1961.5938,212.4473 1961.5938,212.8223 Q1961.5938,213.291 1961.1875,213.5566 Q1961,213.6816 1960.4063,213.6816 L1956.9219,222.041 L1955.2813,222.041 L1951.7969,213.6816 Q1951.2031,213.6816 1951.0156,213.5566 Q1950.6094,213.291 1950.6094,212.8223 Q1950.6094,212.4473 1950.875,212.2129 Q1951.1406,211.9785 1951.75,211.9785 L1954.0469,211.9785 Q1954.6563,211.9785 1954.9063,212.2129 Q1955.1719,212.4473 1955.1719,212.8223 Q1955.1719,213.2129 1954.9063,213.4473 Q1954.6563,213.6816 1954.0469,213.6816 L1953.6406,213.6816 L1956.0938,219.5566 Z " fill="#000000"/><text fill="#000000" font-family="sans-serif" font-size="12" font-style="italic" lengthAdjust="spacing" textLength="83" x="1967.5" y="211.9492">&#171;value Object&#187;</text><text fill="#000000" font-family="sans-serif" font-size="14" lengthAdjust="spacing" textLength="33" x="1992.5" y="230.0684">Rank</text><line style="stroke:#181818;stroke-width:0.5;" x1="1941.5" x2="2050.5" y1="238.582" y2="238.582"/><line style="stroke:#181818;stroke-width:0.5;" x1="1941.5" x2="2050.5" y1="246.582" y2="246.582"/></g><!--class RequirementsAssessment--><g id="elem_RequirementsAssessment"><rect codeLine="51" fill="#F1F1F1" height="60.582" id="RequirementsAssessment" rx="2.5" ry="2.5" style="stroke:#181818;stroke-width:0.5;" width="196" x="927" y="7"/><ellipse cx="942" cy="29.291" fill="#0000FF" rx="11" ry="11" style="stroke:#181818;stroke-width:1.0;"/><path d="M942.5938,32.5566 L945.0625,26.6816 L944.6719,26.6816 Q944.0625,26.6816 943.7969,26.4473 Q943.5313,26.2129 943.5313,25.8223 Q943.5313,25.4473 943.7969,25.2129 Q944.0625,24.9785 944.6719,24.9785 L946.9531,24.9785 Q947.5625,24.9785 947.8281,25.2129 Q948.0938,25.4473 948.0938,25.8223 Q948.0938,26.291 947.6875,26.5566 Q947.5,26.6816 946.9063,26.6816 L943.4219,35.041 L941.7813,35.041 L938.2969,26.6816 Q937.7031,26.6816 937.5156,26.5566 Q937.1094,26.291 937.1094,25.8223 Q937.1094,25.4473 937.375,25.2129 Q937.6406,24.9785 938.25,24.9785 L940.5469,24.9785 Q941.1563,24.9785 941.4063,25.2129 Q941.6719,25.4473 941.6719,25.8223 Q941.6719,26.2129 941.4063,26.4473 Q941.1563,26.6816 940.5469,26.6816 L940.1406,26.6816 L942.5938,32.5566 Z " fill="#000000"/><text fill="#000000" font-family="sans-serif" font-size="12" font-style="italic" lengthAdjust="spacing" textLength="88" x="994" y="24.9492">&#171;value Service&#187;</text><text fill="#000000" font-family="sans-serif" font-size="14" lengthAdjust="spacing" textLength="164" x="956" y="43.0684">RequirementsAssessment</text><line style="stroke:#181818;stroke-width:0.5;" x1="928" x2="1122" y1="51.582" y2="51.582"/><line style="stroke:#181818;stroke-width:0.5;" x1="928" x2="1122" y1="59.582" y2="59.582"/></g><!--class CustomerEntity--><g id="elem_CustomerEntity"><rect fill="#F1F1F1" height="48" id="CustomerEntity" rx="2.5" ry="2.5" style="stroke:#181818;stroke-width:0.5;" width="128" x="597" y="200.5"/><ellipse cx="612" cy="216.5" fill="#ADD1B2" rx="11" ry="11" style="stroke:#181818;stroke-width:1.0;"/><path d="M614.7656,212.375 Q614.9219,212.1563 615.1094,212.0469 Q615.2969,211.9375 615.5156,211.9375 Q615.8906,211.9375 616.125,212.2031 Q616.3594,212.4531 616.3594,213.0625 L616.3594,214.5156 Q616.3594,215.125 616.125,215.3906 Q615.8906,215.6563 615.5156,215.6563 Q615.1719,215.6563 614.9688,215.4531 Q614.7656,215.2656 614.6563,214.75 Q614.6094,214.3906 614.4219,214.2031 Q614.0938,213.8281 613.4844,213.6094 Q612.875,213.3906 612.25,213.3906 Q611.4844,213.3906 610.8438,213.7188 Q610.2188,214.0469 609.7188,214.7969 Q609.2344,215.5469 609.2344,216.5781 L609.2344,217.6719 Q609.2344,218.9063 610.125,219.7344 Q611.0156,220.5469 612.6094,220.5469 Q613.5469,220.5469 614.2031,220.2969 Q614.5938,220.1406 615.0156,219.7031 Q615.2813,219.4375 615.4219,219.3594 Q615.5781,219.2813 615.7813,219.2813 Q616.1094,219.2813 616.3594,219.5469 Q616.625,219.7969 616.625,220.1406 Q616.625,220.4844 616.2813,220.8906 Q615.7813,221.4688 614.9844,221.7969 Q613.9063,222.25 612.6094,222.25 Q611.0938,222.25 609.8906,221.625 Q608.9063,221.125 608.2188,220.0625 Q607.5313,218.9844 607.5313,217.7031 L607.5313,216.5469 Q607.5313,215.2188 608.1406,214.0781 Q608.7656,212.9219 609.8594,212.3125 Q610.9531,211.6875 612.1875,211.6875 Q612.9219,211.6875 613.5625,211.8594 Q614.2188,212.0156 614.7656,212.375 Z " fill="#000000"/><text fill="#000000" font-family="sans-serif" font-size="14" lengthAdjust="spacing" textLength="96" x="626" y="222.2969">CustomerEntity</text><line style="stroke:#181818;stroke-width:0.5;" x1="598" x2="724" y1="232.5" y2="232.5"/><line style="stroke:#181818;stroke-width:0.5;" x1="598" x2="724" y1="240.5" y2="240.5"/></g><!--link JobOffer to RequirementsAssessment--><g id="link_JobOffer_RequirementsAssessment"><path codeLine="53" d="M692.7,380.84 C761.35,310.12 923.14,143.44 992.5,71.98 " fill="none" id="JobOffer-to-RequirementsAssessment" style="stroke:#181818;stroke-width:1.0;stroke-dasharray:7.0,7.0;"/><polygon fill="#181818" points="996.13,68.24,986.9958,71.9233,992.6519,71.8321,992.7432,77.4882,996.13,68.24" style="stroke:#181818;stroke-width:1.0;"/></g><!--link RequirementsAssessment to Application--><g id="link_RequirementsAssessment_Application"><path codeLine="54" d="M1123.06,62.4 C1284.13,101.66 1599.62,178.56 1727.83,209.81 " fill="none" id="RequirementsAssessment-to-Application" style="stroke:#181818;stroke-width:1.0;stroke-dasharray:7.0,7.0;"/><polygon fill="#181818" points="1733.05,211.08,1725.2387,205.0814,1728.1894,209.9077,1723.363,212.8584,1733.05,211.08" style="stroke:#181818;stroke-width:1.0;"/></g><!--link JobOffer to JobRefCode--><g id="link_JobOffer_JobRefCode"><path codeLine="56" d="M615.35,424.58 C563.14,436.57 476.76,461.44 414,505 C276.08,600.72 162.6,772.2 120.53,840.87 " fill="none" id="JobOffer-JobRefCode" style="stroke:#181818;stroke-width:1.0;"/><polygon fill="#000000" points="250.8261,674.4266,242.0126,678.0007,245.7966,682.4985,250.8261,674.4266" style="stroke:#000000;stroke-width:1.0;"/><text fill="#000000" font-family="sans-serif" font-size="13" lengthAdjust="spacing" textLength="51" x="256" y="683.0283">identifies</text><text fill="#000000" font-family="sans-serif" font-size="13" lengthAdjust="spacing" textLength="7" x="600.5167" y="421.9135">1</text><text fill="#000000" font-family="sans-serif" font-size="13" lengthAdjust="spacing" textLength="7" x="116.4237" y="829.9009">1</text></g><!--link JobOffer to JobTitle--><g id="link_JobOffer_JobTitle"><path codeLine="57" d="M615.37,441.61 C589.25,457.86 556.85,480.31 532,505 C422.23,614.08 327.47,775.12 290.99,840.89 " fill="none" id="JobOffer-JobTitle" style="stroke:#181818;stroke-width:1.0;"/><polygon fill="#000000" points="406.1528,673.7648,398.1683,678.9319,402.7304,682.6382,406.1528,673.7648" style="stroke:#000000;stroke-width:1.0;"/><text fill="#000000" font-family="sans-serif" font-size="13" lengthAdjust="spacing" textLength="56" x="412" y="683.0283">describes</text><text fill="#000000" font-family="sans-serif" font-size="13" lengthAdjust="spacing" textLength="7" x="600.5399" y="441.6577">1</text><text fill="#000000" font-family="sans-serif" font-size="13" lengthAdjust="spacing" textLength="7" x="286.5661" y="829.925">1</text></g><!--link JobOffer to ContractType--><g id="link_JobOffer_ContractType"><path codeLine="58" d="M641.96,448.02 C632.2,464.9 620.25,485.94 610,505 C543.66,628.41 469.87,778.32 439.38,840.87 " fill="none" id="JobOffer-ContractType" style="stroke:#181818;stroke-width:1.0;"/><polygon fill="#000000" points="531.2916,673.2016,524.534,679.8938,529.7581,682.5877,531.2916,673.2016" style="stroke:#000000;stroke-width:1.0;"/><text fill="#000000" font-family="sans-serif" font-size="13" lengthAdjust="spacing" textLength="56" x="538" y="683.0283">describes</text><text fill="#000000" font-family="sans-serif" font-size="13" lengthAdjust="spacing" textLength="7" x="630.9451" y="469.5928">1</text><text fill="#000000" font-family="sans-serif" font-size="13" lengthAdjust="spacing" textLength="7" x="434.624" y="829.9009">1</text></g><!--link JobOffer to JobMode--><g id="link_JobOffer_JobMode"><path codeLine="59" d="M654.82,448.22 C638.77,533.09 596.01,759.32 580.62,840.76 " fill="none" id="JobOffer-JobMode" style="stroke:#181818;stroke-width:1.0;"/><polygon fill="#000000" points="618.9287,672.7325,614.3609,681.0743,620.1365,682.1661,618.9287,672.7325" style="stroke:#000000;stroke-width:1.0;"/><text fill="#000000" font-family="sans-serif" font-size="13" lengthAdjust="spacing" textLength="56" x="627" y="683.0283">describes</text><text fill="#000000" font-family="sans-serif" font-size="13" lengthAdjust="spacing" textLength="7" x="646.1563" y="469.5625">1</text><text fill="#000000" font-family="sans-serif" font-size="13" lengthAdjust="spacing" textLength="7" x="574.0573" y="829.7682">1</text></g><!--link JobOffer to NumberOfVacancies--><g id="link_JobOffer_NumberOfVacancies"><path codeLine="60" d="M667.11,448.22 C682.97,533.09 725.23,759.32 740.44,840.76 " fill="none" id="JobOffer-NumberOfVacancies" style="stroke:#181818;stroke-width:1.0;"/><polygon fill="#000000" points="715.0818,672.7305,713.8539,682.1615,719.6318,681.0821,715.0818,672.7305" style="stroke:#000000;stroke-width:1.0;"/><text fill="#000000" font-family="sans-serif" font-size="13" lengthAdjust="spacing" textLength="56" x="725" y="683.0283">describes</text><text fill="#000000" font-family="sans-serif" font-size="13" lengthAdjust="spacing" textLength="7" x="660.5586" y="469.5625">1</text><text fill="#000000" font-family="sans-serif" font-size="13" lengthAdjust="spacing" textLength="7" x="731.5714" y="829.7682">1</text></g><!--link JobOffer to RequirementSpecification--><g id="link_JobOffer_RequirementSpecification"><path codeLine="61" d="M706.91,434.39 C784.66,466.37 943.12,531.56 1039,571 " fill="none" id="JobOffer-RequirementSpecification" style="stroke:#181818;stroke-width:1.0;"/><polygon fill="#000000" points="848.376,485.5978,855.6229,491.7568,857.859,486.3209,848.376,485.5978" style="stroke:#000000;stroke-width:1.0;"/><text fill="#000000" font-family="sans-serif" font-size="13" lengthAdjust="spacing" textLength="7" x="714.4759" y="433.2137">1</text><text fill="#000000" font-family="sans-serif" font-size="13" lengthAdjust="spacing" textLength="7" x="1015.7578" y="559.8255">1</text></g><!--link CustomerEntity to JobOffer--><g id="link_CustomerEntity_JobOffer"><path codeLine="62" d="M661,248.55 C661,280.27 661,337.75 661,375.78 " fill="none" id="CustomerEntity-to-JobOffer" style="stroke:#181818;stroke-width:1.0;"/><polygon fill="#181818" points="661,380.78,665,371.78,661,375.78,657,371.78,661,380.78" style="stroke:#181818;stroke-width:1.0;"/><polygon fill="#000000" points="666,292.6455,663.0611,301.6906,668.9389,301.6906,666,292.6455" style="stroke:#000000;stroke-width:1.0;"/><text fill="#000000" font-family="sans-serif" font-size="13" lengthAdjust="spacing" textLength="42" x="675" y="303.0283">"posts"</text><text fill="#000000" font-family="sans-serif" font-size="13" lengthAdjust="spacing" textLength="7" x="653.1469" y="270.5479">1</text><text fill="#000000" font-family="sans-serif" font-size="13" lengthAdjust="spacing" textLength="7" x="653.3328" y="369.824">1</text></g><!--link RequirementSpecification to RequirementSpecificationDescription--><g id="link_RequirementSpecification_RequirementSpecificationDescription"><path codeLine="64" d="M1094.11,638.2 C1076.76,661.96 1053.47,693.84 1036.65,716.86 " fill="none" id="RequirementSpecification-RequirementSpecificationDescription" style="stroke:#181818;stroke-width:1.0;"/><polygon fill="#000000" points="1076.9493,673.608,1069.2408,679.1783,1073.9871,682.6455,1076.9493,673.608" style="stroke:#000000;stroke-width:1.0;"/><text fill="#000000" font-family="sans-serif" font-size="13" lengthAdjust="spacing" textLength="66" x="1083" y="683.0283">"describes"</text><text fill="#000000" font-family="sans-serif" font-size="13" lengthAdjust="spacing" textLength="7" x="1082.4023" y="659.539">1</text><text fill="#000000" font-family="sans-serif" font-size="13" lengthAdjust="spacing" textLength="7" x="1033.3934" y="705.8888">1</text></g><!--link RequirementSpecification to RequirementSpecificationRefCode--><g id="link_RequirementSpecification_RequirementSpecificationRefCode"><path codeLine="65" d="M1161.84,638.2 C1193.68,661.96 1236.42,693.84 1267.26,716.86 " fill="none" id="RequirementSpecification-RequirementSpecificationRefCode" style="stroke:#181818;stroke-width:1.0;"/><polygon fill="#000000" points="1223.9926,674.6554,1229.4845,682.4201,1232.9996,677.7091,1223.9926,674.6554" style="stroke:#000000;stroke-width:1.0;"/><text fill="#000000" font-family="sans-serif" font-size="13" lengthAdjust="spacing" textLength="61" x="1237" y="683.0283">"identifies"</text><text fill="#000000" font-family="sans-serif" font-size="13" lengthAdjust="spacing" textLength="7" x="1161.7734" y="659.539">1</text><text fill="#000000" font-family="sans-serif" font-size="13" lengthAdjust="spacing" textLength="7" x="1251.3418" y="705.8888">1</text></g><!--link RequirementSpecificationAnswer to RequirementSpecification--><g id="link_RequirementSpecificationAnswer_RequirementSpecification"><path codeLine="66" d="M1118,445.29 C1118,479.46 1118,535.3 1118,570.69 " fill="none" id="RequirementSpecificationAnswer-RequirementSpecification" style="stroke:#181818;stroke-width:1.0;"/><polygon fill="#000000" points="1123,492.6455,1125.9389,483.6004,1120.0611,483.6004,1123,492.6455" style="stroke:#000000;stroke-width:1.0;"/><text fill="#000000" font-family="sans-serif" font-size="13" lengthAdjust="spacing" textLength="66" x="1132" y="493.0283">"describes"</text><text fill="#000000" font-family="sans-serif" font-size="13" lengthAdjust="spacing" textLength="5" x="1112.5391" y="466.6278">*</text><text fill="#000000" font-family="sans-serif" font-size="13" lengthAdjust="spacing" textLength="7" x="1110.3328" y="559.7168">1</text></g><!--link RequirementSpecification to RegisteredPlugin--><g id="link_RequirementSpecification_RegisteredPlugin"><path codeLine="67" d="M1214.75,604.5 C1316.31,604.5 1473.49,604.5 1563.77,604.5 " fill="none" id="RequirementSpecification-RegisteredPlugin" style="stroke:#181818;stroke-width:1.0;"/><polygon fill="#000000" points="1347.25,592.1455,1356.2951,595.0844,1356.2951,589.2066,1347.25,592.1455" style="stroke:#000000;stroke-width:1.0;"/><text fill="#000000" font-family="sans-serif" font-size="13" lengthAdjust="spacing" textLength="69" x="1361.25" y="597.5283">"configures"</text><text fill="#000000" font-family="sans-serif" font-size="13" lengthAdjust="spacing" textLength="7" x="1222.4254" y="600.9032">1</text><text fill="#000000" font-family="sans-serif" font-size="13" lengthAdjust="spacing" textLength="7" x="1549.1666" y="600.6863">1</text></g><!--link RegisteredPlugin to PluginFileName--><g id="link_RegisteredPlugin_PluginFileName"><path codeLine="69" d="M1618.92,638.2 C1607.97,661.96 1593.28,693.84 1582.67,716.86 " fill="none" id="RegisteredPlugin-PluginFileName" style="stroke:#181818;stroke-width:1.0;"/><polygon fill="#000000" points="1610.0927,673.1045,1603.6378,680.0892,1608.9761,682.5493,1610.0927,673.1045" style="stroke:#000000;stroke-width:1.0;"/><text fill="#000000" font-family="sans-serif" font-size="13" lengthAdjust="spacing" textLength="42" x="1617" y="683.0283">locates</text></g><!--link RegisteredPlugin to PluginName--><g id="link_RegisteredPlugin_PluginName"><path codeLine="70" d="M1658.82,638.2 C1676.84,661.96 1701.04,693.84 1718.5,716.86 " fill="none" id="RegisteredPlugin-PluginName" style="stroke:#181818;stroke-width:1.0;"/><polygon fill="#000000" points="1694.9778,673.6622,1698.1037,682.6444,1702.7863,679.0917,1694.9778,673.6622" style="stroke:#000000;stroke-width:1.0;"/><text fill="#000000" font-family="sans-serif" font-size="13" lengthAdjust="spacing" textLength="51" x="1707" y="683.0283">identifies</text></g><!--link RegisteredPlugin to PluginType--><g id="link_RegisteredPlugin_PluginType"><path codeLine="71" d="M1704.27,636.34 C1724.78,645.93 1747.04,656.9 1767,668 C1793.81,682.91 1822.67,701.52 1845.48,716.88 " fill="none" id="RegisteredPlugin-PluginType" style="stroke:#181818;stroke-width:1.0;"/><polygon fill="#000000" points="1797.6568,675.1683,1804.0577,682.2025,1806.9698,677.0967,1797.6568,675.1683" style="stroke:#000000;stroke-width:1.0;"/><text fill="#000000" font-family="sans-serif" font-size="13" lengthAdjust="spacing" textLength="54" x="1811" y="683.0283">classifies</text></g><!--link Application to JobOffer--><g id="link_Application_JobOffer"><path codeLine="73" d="M1733.42,232.02 C1612.33,247.4 1296.13,286.2 1031,307 C994.62,309.85 902.38,306.07 867,315 C810.82,329.19 751.63,359.29 711.19,382.5 " fill="none" id="Application-to-JobOffer" style="stroke:#181818;stroke-width:1.0;"/><polygon fill="#181818" points="706.85,385.01,716.6441,383.9726,711.1797,382.5093,712.643,377.045,706.85,385.01" style="stroke:#181818;stroke-width:1.0;"/><polygon fill="#000000" points="1238.0533,298.3737,1247.43,299.964,1246.5739,294.1488,1238.0533,298.3737" style="stroke:#000000;stroke-width:1.0;"/><text fill="#000000" font-family="sans-serif" font-size="13" lengthAdjust="spacing" textLength="61" x="1252" y="303.0283">pertains to</text><text fill="#000000" font-family="sans-serif" font-size="13" lengthAdjust="spacing" textLength="5" x="1720.6239" y="228.9536">*</text><text fill="#000000" font-family="sans-serif" font-size="13" lengthAdjust="spacing" textLength="7" x="714.4067" y="376.2724">1</text></g><!--link Application to ApplicationEmail--><g id="link_Application_ApplicationEmail"><path codeLine="74" d="M1819.3,190.83 C1845.59,168.2 1883.61,140.33 1923,128 C1984.92,108.61 2009.87,101.28 2069,128 C2098.7,141.42 2122.17,170.92 2136.86,193.79 " fill="none" id="Application-ApplicationEmail" style="stroke:#181818;stroke-width:1.0;"/><polygon fill="#000000" points="1937.9998,107.6921,1928.9825,104.669,1928.9277,110.5466,1937.9998,107.6921" style="stroke:#000000;stroke-width:1.0;"/><text fill="#000000" font-family="sans-serif" font-size="13" lengthAdjust="spacing" textLength="49" x="1942" y="113.0283">contains</text><text fill="#000000" font-family="sans-serif" font-size="13" lengthAdjust="spacing" textLength="7" x="1818.5606" y="179.622">1</text><text fill="#000000" font-family="sans-serif" font-size="13" lengthAdjust="spacing" textLength="7" x="2125.603" y="182.8044">1</text></g><!--link Application to ApplicationRefCode--><g id="link_Application_ApplicationRefCode"><path codeLine="75" d="M1784,258.25 C1784,293.7 1784,349.74 1784,383.91 " fill="none" id="Application-ApplicationRefCode" style="stroke:#181818;stroke-width:1.0;"/><polygon fill="#000000" points="1789,292.6455,1786.0611,301.6906,1791.9389,301.6906,1789,292.6455" style="stroke:#000000;stroke-width:1.0;"/><text fill="#000000" font-family="sans-serif" font-size="13" lengthAdjust="spacing" textLength="56" x="1798" y="303.0283">describes</text><text fill="#000000" font-family="sans-serif" font-size="13" lengthAdjust="spacing" textLength="7" x="1776.3984" y="279.5976">1</text><text fill="#000000" font-family="sans-serif" font-size="13" lengthAdjust="spacing" textLength="7" x="1776.2781" y="372.9491">1</text></g><!--link Application to ApplicationAttachedFile--><g id="link_Application_ApplicationAttachedFile"><path codeLine="76" d="M1745.65,258.32 C1734.71,267.81 1722.82,278.25 1712,288 C1676.26,320.23 1636.06,358.1 1609.1,383.75 " fill="none" id="Application-ApplicationAttachedFile" style="stroke:#181818;stroke-width:1.0;"/><polygon fill="#000000" points="1713.3177,301.0279,1721.9672,297.0735,1717.9909,292.7447,1713.3177,301.0279" style="stroke:#000000;stroke-width:1.0;"/><text fill="#000000" font-family="sans-serif" font-size="13" lengthAdjust="spacing" textLength="49" x="1726" y="303.0283">contains</text><text fill="#000000" font-family="sans-serif" font-size="13" lengthAdjust="spacing" textLength="7" x="1731.457" y="279.6796">1</text><text fill="#000000" font-family="sans-serif" font-size="13" lengthAdjust="spacing" textLength="5" x="1609.9988" y="372.7561">*</text></g><!--link Application to ApplicationAttachedFilesLocation--><g id="link_Application_ApplicationAttachedFilesLocation"><path codeLine="77" d="M1825.42,258.25 C1837.54,267.83 1850.8,278.33 1863,288 C1904.31,320.75 1951.66,358.37 1983.67,383.81 " fill="none" id="Application-ApplicationAttachedFilesLocation" style="stroke:#181818;stroke-width:1.0;"/><polygon fill="#000000" points="1892.9169,300.7533,1887.6579,292.829,1884.0045,297.4336,1892.9169,300.7533" style="stroke:#000000;stroke-width:1.0;"/><text fill="#000000" font-family="sans-serif" font-size="13" lengthAdjust="spacing" textLength="49" x="1898" y="303.0283">contains</text><text fill="#000000" font-family="sans-serif" font-size="13" lengthAdjust="spacing" textLength="7" x="1824.9375" y="279.5976">1</text><text fill="#000000" font-family="sans-serif" font-size="13" lengthAdjust="spacing" textLength="7" x="1968.2488" y="372.8285">1</text></g><!--link Application to ApplicationState--><g id="link_Application_ApplicationState"><path codeLine="78" d="M1834.54,238.86 C1860.77,245.41 1893.44,252.95 1923,258 C2099.14,288.12 2167.42,223.65 2321,315 C2349.34,331.86 2373,361.53 2388.1,383.91 " fill="none" id="Application-ApplicationState" style="stroke:#181818;stroke-width:1.0;"/><polygon fill="#000000" points="2311.8367,298.9129,2303.832,293.7772,2302.3421,299.4631,2311.8367,298.9129" style="stroke:#000000;stroke-width:1.0;"/><text fill="#000000" font-family="sans-serif" font-size="13" lengthAdjust="spacing" textLength="49" x="2316" y="303.0283">contains</text><text fill="#000000" font-family="sans-serif" font-size="13" lengthAdjust="spacing" textLength="7" x="1842.4771" y="256.2951">1</text><text fill="#000000" font-family="sans-serif" font-size="13" lengthAdjust="spacing" textLength="7" x="2376.6862" y="372.9491">1</text></g><!--link Application to InterviewGrade--><g id="link_Application_InterviewGrade"><path codeLine="79" d="M1834.79,237.4 C1936.44,261.26 2155.51,312.82 2159,315 C2186.23,332.01 2208.6,361.35 2222.88,383.6 " fill="none" id="Application-InterviewGrade" style="stroke:#181818;stroke-width:1.0;"/><polygon fill="#000000" points="2134.679,299.4082,2127.2507,293.4692,2125.1785,298.9697,2134.679,299.4082" style="stroke:#000000;stroke-width:1.0;"/><text fill="#000000" font-family="sans-serif" font-size="13" lengthAdjust="spacing" textLength="49" x="2139" y="303.0283">contains</text><text fill="#000000" font-family="sans-serif" font-size="13" lengthAdjust="spacing" textLength="7" x="1842.4245" y="235.0942">1</text><text fill="#000000" font-family="sans-serif" font-size="13" lengthAdjust="spacing" textLength="7" x="2211.6271" y="372.5752">1</text></g><!--link Application to Rank--><g id="link_Application_Rank"><path codeLine="80" d="M1834.51,224.5 C1866.35,224.5 1907.5,224.5 1940.29,224.5 " fill="none" id="Application-Rank" style="stroke:#181818;stroke-width:1.0;"/><polygon fill="#000000" points="1852,212.1455,1861.0451,215.0844,1861.0451,209.2066,1852,212.1455" style="stroke:#000000;stroke-width:1.0;"/><text fill="#000000" font-family="sans-serif" font-size="13" lengthAdjust="spacing" textLength="56" x="1866" y="217.5283">describes</text></g><!--SRC=[fLLTRzem57tFhx2obwqQ5PFsi4Ke4g8mTTeAWghlnhb9tUPhjjEgglhVPpi9E0I3q-Q1HEQUutlFlJvUOVA84q2_Y-qoZe5DauH1WWMyUaW-yrnGyRBx5zMhwfbCM54813eW3FNwcwTVinHphZ1hY6T513BsyzrNz2aU_noFnr_GTQHGCPLyJpYj02st3q146Bw-TV6tLAGDMeA__r3W4uXPaGk6YRXzAG6vm-H6VtTPkW1kgcmBR1dVOO9pGe6VWqfTLetEgxHAQ6weRCgyXeHo0GoYEWmDqRk6B6WADpZRLpD4yfgY0pyXnZoliWQY5PzCP7PowNZXQ_XNKGQPp8DlIY0o6O85BV932NPXdQX1KjX8he0JHalDvznj6zaqvyzIpW_pT0w9KyCCLQTbcRRv79yf8sAGXYQp49ZSGwHcoxrUWs1uYMVpu7-AfYZdXAvpURIUA3p_OZXwNo4R8VLz5tAUOPeE61QSFpguIc-o-9Hpu5nzDd0fzNYnQE4RfG21C4IImDlP-kLbQ67nBEGAOPHdSFdVV3IIZ_umBe40qRRXqZ3jyRNf1oZIXtLx8hZZzow0rkbTOlicVnAbNrRp2Wu1ar5LDaLKN1GPiEQu1YX4VbbmmNtFi_8vx6bwNO3yNUfoxm_nxjlfx_jvYhJnIV_2HIOpp_1Cdemczw9bFBWu9HCfyfWc5QkpyteXCfc3ApD0gJ8LtLvxU1FQ6MPxT3ERH1tKDjepFRdM9MpdinuHDGKbC85fpf4ekW1Lk_xjsOk2oR8rh8_fWVQjD0Vx6Ex2jzu70_Syxk43IMeRTW4TUBuLCgeTjwl4Vm00]--></g></svg>