<?xml version="1.0" encoding="us-ascii" standalone="no"?><svg xmlns="http://www.w3.org/2000/svg" xmlns:xlink="http://www.w3.org/1999/xlink" contentStyleType="text/css" height="858px" preserveAspectRatio="none" style="width:727px;height:858px;background:#FFFFFF;" version="1.1" viewBox="0 0 727 858" width="727px" zoomAndPan="magnify"><defs/><g><!--class OperatorUI--><g id="elem_OperatorUI"><rect codeLine="2" fill="#F1F1F1" height="66.6211" id="OperatorUI" rx="2.5" ry="2.5" style="stroke:#181818;stroke-width:0.5;" width="134" x="342" y="7"/><ellipse cx="371.85" cy="23" fill="#ADD1B2" rx="11" ry="11" style="stroke:#181818;stroke-width:1.0;"/><path d="M374.6156,18.875 Q374.7719,18.6563 374.9594,18.5469 Q375.1469,18.4375 375.3656,18.4375 Q375.7406,18.4375 375.975,18.7031 Q376.2094,18.9531 376.2094,19.5625 L376.2094,21.0156 Q376.2094,21.625 375.975,21.8906 Q375.7406,22.1563 375.3656,22.1563 Q375.0219,22.1563 374.8188,21.9531 Q374.6156,21.7656 374.5063,21.25 Q374.4594,20.8906 374.2719,20.7031 Q373.9438,20.3281 373.3344,20.1094 Q372.725,19.8906 372.1,19.8906 Q371.3344,19.8906 370.6938,20.2188 Q370.0688,20.5469 369.5688,21.2969 Q369.0844,22.0469 369.0844,23.0781 L369.0844,24.1719 Q369.0844,25.4063 369.975,26.2344 Q370.8656,27.0469 372.4594,27.0469 Q373.3969,27.0469 374.0531,26.7969 Q374.4438,26.6406 374.8656,26.2031 Q375.1313,25.9375 375.2719,25.8594 Q375.4281,25.7813 375.6313,25.7813 Q375.9594,25.7813 376.2094,26.0469 Q376.475,26.2969 376.475,26.6406 Q376.475,26.9844 376.1313,27.3906 Q375.6313,27.9688 374.8344,28.2969 Q373.7563,28.75 372.4594,28.75 Q370.9438,28.75 369.7406,28.125 Q368.7563,27.625 368.0688,26.5625 Q367.3813,25.4844 367.3813,24.2031 L367.3813,23.0469 Q367.3813,21.7188 367.9906,20.5781 Q368.6156,19.4219 369.7094,18.8125 Q370.8031,18.1875 372.0375,18.1875 Q372.7719,18.1875 373.4125,18.3594 Q374.0688,18.5156 374.6156,18.875 Z " fill="#000000"/><text fill="#000000" font-family="sans-serif" font-size="14" lengthAdjust="spacing" textLength="69" x="389.15" y="28.7969">OperatorUI</text><line style="stroke:#181818;stroke-width:0.5;" x1="343" x2="475" y1="39" y2="39"/><line style="stroke:#181818;stroke-width:0.5;" x1="343" x2="475" y1="47" y2="47"/><ellipse cx="353" cy="61.8105" fill="#84BE84" rx="3" ry="3" style="stroke:#038048;stroke-width:1.0;"/><text fill="#000000" font-family="sans-serif" font-size="14" lengthAdjust="spacing" textLength="108" x="362" y="66.1074">exportTemplate()</text></g><!--class ExportJobRequirementsTemplateUI--><g id="elem_ExportJobRequirementsTemplateUI"><rect codeLine="6" fill="#F1F1F1" height="48" id="ExportJobRequirementsTemplateUI" rx="2.5" ry="2.5" style="stroke:#181818;stroke-width:0.5;" width="253" x="282.5" y="135"/><ellipse cx="297.5" cy="151" fill="#ADD1B2" rx="11" ry="11" style="stroke:#181818;stroke-width:1.0;"/><path d="M300.2656,146.875 Q300.4219,146.6563 300.6094,146.5469 Q300.7969,146.4375 301.0156,146.4375 Q301.3906,146.4375 301.625,146.7031 Q301.8594,146.9531 301.8594,147.5625 L301.8594,149.0156 Q301.8594,149.625 301.625,149.8906 Q301.3906,150.1563 301.0156,150.1563 Q300.6719,150.1563 300.4688,149.9531 Q300.2656,149.7656 300.1563,149.25 Q300.1094,148.8906 299.9219,148.7031 Q299.5938,148.3281 298.9844,148.1094 Q298.375,147.8906 297.75,147.8906 Q296.9844,147.8906 296.3438,148.2188 Q295.7188,148.5469 295.2188,149.2969 Q294.7344,150.0469 294.7344,151.0781 L294.7344,152.1719 Q294.7344,153.4063 295.625,154.2344 Q296.5156,155.0469 298.1094,155.0469 Q299.0469,155.0469 299.7031,154.7969 Q300.0938,154.6406 300.5156,154.2031 Q300.7813,153.9375 300.9219,153.8594 Q301.0781,153.7813 301.2813,153.7813 Q301.6094,153.7813 301.8594,154.0469 Q302.125,154.2969 302.125,154.6406 Q302.125,154.9844 301.7813,155.3906 Q301.2813,155.9688 300.4844,156.2969 Q299.4063,156.75 298.1094,156.75 Q296.5938,156.75 295.3906,156.125 Q294.4063,155.625 293.7188,154.5625 Q293.0313,153.4844 293.0313,152.2031 L293.0313,151.0469 Q293.0313,149.7188 293.6406,148.5781 Q294.2656,147.4219 295.3594,146.8125 Q296.4531,146.1875 297.6875,146.1875 Q298.4219,146.1875 299.0625,146.3594 Q299.7188,146.5156 300.2656,146.875 Z " fill="#000000"/><text fill="#000000" font-family="sans-serif" font-size="14" lengthAdjust="spacing" textLength="221" x="311.5" y="156.7969">ExportJobRequirementsTemplateUI</text><line style="stroke:#181818;stroke-width:0.5;" x1="283.5" x2="534.5" y1="167" y2="167"/><line style="stroke:#181818;stroke-width:0.5;" x1="283.5" x2="534.5" y1="175" y2="175"/></g><!--class ExportJobRequirementsTemplateController--><g id="elem_ExportJobRequirementsTemplateController"><rect codeLine="8" fill="#F1F1F1" height="85.2422" id="ExportJobRequirementsTemplateController" rx="2.5" ry="2.5" style="stroke:#181818;stroke-width:0.5;" width="303" x="257.5" y="244"/><ellipse cx="272.5" cy="260" fill="#ADD1B2" rx="11" ry="11" style="stroke:#181818;stroke-width:1.0;"/><path d="M275.2656,255.875 Q275.4219,255.6563 275.6094,255.5469 Q275.7969,255.4375 276.0156,255.4375 Q276.3906,255.4375 276.625,255.7031 Q276.8594,255.9531 276.8594,256.5625 L276.8594,258.0156 Q276.8594,258.625 276.625,258.8906 Q276.3906,259.1563 276.0156,259.1563 Q275.6719,259.1563 275.4688,258.9531 Q275.2656,258.7656 275.1563,258.25 Q275.1094,257.8906 274.9219,257.7031 Q274.5938,257.3281 273.9844,257.1094 Q273.375,256.8906 272.75,256.8906 Q271.9844,256.8906 271.3438,257.2188 Q270.7188,257.5469 270.2188,258.2969 Q269.7344,259.0469 269.7344,260.0781 L269.7344,261.1719 Q269.7344,262.4063 270.625,263.2344 Q271.5156,264.0469 273.1094,264.0469 Q274.0469,264.0469 274.7031,263.7969 Q275.0938,263.6406 275.5156,263.2031 Q275.7813,262.9375 275.9219,262.8594 Q276.0781,262.7813 276.2813,262.7813 Q276.6094,262.7813 276.8594,263.0469 Q277.125,263.2969 277.125,263.6406 Q277.125,263.9844 276.7813,264.3906 Q276.2813,264.9688 275.4844,265.2969 Q274.4063,265.75 273.1094,265.75 Q271.5938,265.75 270.3906,265.125 Q269.4063,264.625 268.7188,263.5625 Q268.0313,262.4844 268.0313,261.2031 L268.0313,260.0469 Q268.0313,258.7188 268.6406,257.5781 Q269.2656,256.4219 270.3594,255.8125 Q271.4531,255.1875 272.6875,255.1875 Q273.4219,255.1875 274.0625,255.3594 Q274.7188,255.5156 275.2656,255.875 Z " fill="#000000"/><text fill="#000000" font-family="sans-serif" font-size="14" lengthAdjust="spacing" textLength="271" x="286.5" y="265.7969">ExportJobRequirementsTemplateController</text><line style="stroke:#181818;stroke-width:0.5;" x1="258.5" x2="559.5" y1="276" y2="276"/><line style="stroke:#181818;stroke-width:0.5;" x1="258.5" x2="559.5" y1="284" y2="284"/><ellipse cx="268.5" cy="298.8105" fill="#84BE84" rx="3" ry="3" style="stroke:#038048;stroke-width:1.0;"/><text fill="#000000" font-family="sans-serif" font-size="14" lengthAdjust="spacing" textLength="194" x="277.5" y="303.1074">getAllJobRequirementPlugins()</text><ellipse cx="268.5" cy="317.4316" fill="#84BE84" rx="3" ry="3" style="stroke:#038048;stroke-width:1.0;"/><text fill="#000000" font-family="sans-serif" font-size="14" lengthAdjust="spacing" textLength="126" x="277.5" y="321.7285">generateTemplate()</text></g><!--class PersistenceContext--><g id="elem_PersistenceContext"><rect codeLine="14" fill="#F1F1F1" height="66.6211" id="PersistenceContext" rx="2.5" ry="2.5" style="stroke:#181818;stroke-width:0.5;" width="154" x="332" y="408"/><ellipse cx="347" cy="424" fill="#ADD1B2" rx="11" ry="11" style="stroke:#181818;stroke-width:1.0;"/><path d="M349.7656,419.875 Q349.9219,419.6563 350.1094,419.5469 Q350.2969,419.4375 350.5156,419.4375 Q350.8906,419.4375 351.125,419.7031 Q351.3594,419.9531 351.3594,420.5625 L351.3594,422.0156 Q351.3594,422.625 351.125,422.8906 Q350.8906,423.1563 350.5156,423.1563 Q350.1719,423.1563 349.9688,422.9531 Q349.7656,422.7656 349.6563,422.25 Q349.6094,421.8906 349.4219,421.7031 Q349.0938,421.3281 348.4844,421.1094 Q347.875,420.8906 347.25,420.8906 Q346.4844,420.8906 345.8438,421.2188 Q345.2188,421.5469 344.7188,422.2969 Q344.2344,423.0469 344.2344,424.0781 L344.2344,425.1719 Q344.2344,426.4063 345.125,427.2344 Q346.0156,428.0469 347.6094,428.0469 Q348.5469,428.0469 349.2031,427.7969 Q349.5938,427.6406 350.0156,427.2031 Q350.2813,426.9375 350.4219,426.8594 Q350.5781,426.7813 350.7813,426.7813 Q351.1094,426.7813 351.3594,427.0469 Q351.625,427.2969 351.625,427.6406 Q351.625,427.9844 351.2813,428.3906 Q350.7813,428.9688 349.9844,429.2969 Q348.9063,429.75 347.6094,429.75 Q346.0938,429.75 344.8906,429.125 Q343.9063,428.625 343.2188,427.5625 Q342.5313,426.4844 342.5313,425.2031 L342.5313,424.0469 Q342.5313,422.7188 343.1406,421.5781 Q343.7656,420.4219 344.8594,419.8125 Q345.9531,419.1875 347.1875,419.1875 Q347.9219,419.1875 348.5625,419.3594 Q349.2188,419.5156 349.7656,419.875 Z " fill="#000000"/><text fill="#000000" font-family="sans-serif" font-size="14" lengthAdjust="spacing" textLength="122" x="361" y="429.7969">PersistenceContext</text><line style="stroke:#181818;stroke-width:0.5;" x1="333" x2="485" y1="440" y2="440"/><line style="stroke:#181818;stroke-width:0.5;" x1="333" x2="485" y1="448" y2="448"/><ellipse cx="343" cy="462.8105" fill="#84BE84" rx="3" ry="3" style="stroke:#038048;stroke-width:1.0;"/><text fill="#000000" font-family="sans-serif" font-size="14" lengthAdjust="spacing" textLength="84" x="352" y="467.1074">repositories()</text></g><!--class RepositoryFactory--><g id="elem_RepositoryFactory"><rect codeLine="18" fill="#F1F1F1" height="103.8633" id="RepositoryFactory" rx="2.5" ry="2.5" style="stroke:#181818;stroke-width:0.5;" width="266" x="290" y="620"/><ellipse cx="360.75" cy="636" fill="#ADD1B2" rx="11" ry="11" style="stroke:#181818;stroke-width:1.0;"/><path d="M363.5156,631.875 Q363.6719,631.6563 363.8594,631.5469 Q364.0469,631.4375 364.2656,631.4375 Q364.6406,631.4375 364.875,631.7031 Q365.1094,631.9531 365.1094,632.5625 L365.1094,634.0156 Q365.1094,634.625 364.875,634.8906 Q364.6406,635.1563 364.2656,635.1563 Q363.9219,635.1563 363.7188,634.9531 Q363.5156,634.7656 363.4063,634.25 Q363.3594,633.8906 363.1719,633.7031 Q362.8438,633.3281 362.2344,633.1094 Q361.625,632.8906 361,632.8906 Q360.2344,632.8906 359.5938,633.2188 Q358.9688,633.5469 358.4688,634.2969 Q357.9844,635.0469 357.9844,636.0781 L357.9844,637.1719 Q357.9844,638.4063 358.875,639.2344 Q359.7656,640.0469 361.3594,640.0469 Q362.2969,640.0469 362.9531,639.7969 Q363.3438,639.6406 363.7656,639.2031 Q364.0313,638.9375 364.1719,638.8594 Q364.3281,638.7813 364.5313,638.7813 Q364.8594,638.7813 365.1094,639.0469 Q365.375,639.2969 365.375,639.6406 Q365.375,639.9844 365.0313,640.3906 Q364.5313,640.9688 363.7344,641.2969 Q362.6563,641.75 361.3594,641.75 Q359.8438,641.75 358.6406,641.125 Q357.6563,640.625 356.9688,639.5625 Q356.2813,638.4844 356.2813,637.2031 L356.2813,636.0469 Q356.2813,634.7188 356.8906,633.5781 Q357.5156,632.4219 358.6094,631.8125 Q359.7031,631.1875 360.9375,631.1875 Q361.6719,631.1875 362.3125,631.3594 Q362.9688,631.5156 363.5156,631.875 Z " fill="#000000"/><text fill="#000000" font-family="sans-serif" font-size="14" lengthAdjust="spacing" textLength="116" x="381.25" y="641.7969">RepositoryFactory</text><line style="stroke:#181818;stroke-width:0.5;" x1="291" x2="555" y1="652" y2="652"/><line style="stroke:#181818;stroke-width:0.5;" x1="291" x2="555" y1="660" y2="660"/><ellipse cx="301" cy="674.8105" fill="#84BE84" rx="3" ry="3" style="stroke:#038048;stroke-width:1.0;"/><text fill="#000000" font-family="sans-serif" font-size="14" lengthAdjust="spacing" textLength="173" x="310" y="679.1074">newTransactionalContext();</text><ellipse cx="301" cy="693.4316" fill="#84BE84" rx="3" ry="3" style="stroke:#038048;stroke-width:1.0;"/><text fill="#000000" font-family="sans-serif" font-size="14" lengthAdjust="spacing" textLength="240" x="310" y="697.7285">plugins(TransactionalContext autoTx);</text><ellipse cx="301" cy="712.0527" fill="#84BE84" rx="3" ry="3" style="stroke:#038048;stroke-width:1.0;"/><text fill="#000000" font-family="sans-serif" font-size="14" lengthAdjust="spacing" textLength="59" x="310" y="716.3496">plugins();</text></g><!--class PluginHandler--><g id="elem_PluginHandler"><rect codeLine="25" fill="#F1F1F1" height="66.6211" id="PluginHandler" rx="2.5" ry="2.5" style="stroke:#181818;stroke-width:0.5;" width="199" x="521.5" y="408"/><ellipse cx="572.75" cy="424" fill="#ADD1B2" rx="11" ry="11" style="stroke:#181818;stroke-width:1.0;"/><path d="M575.5156,419.875 Q575.6719,419.6563 575.8594,419.5469 Q576.0469,419.4375 576.2656,419.4375 Q576.6406,419.4375 576.875,419.7031 Q577.1094,419.9531 577.1094,420.5625 L577.1094,422.0156 Q577.1094,422.625 576.875,422.8906 Q576.6406,423.1563 576.2656,423.1563 Q575.9219,423.1563 575.7188,422.9531 Q575.5156,422.7656 575.4063,422.25 Q575.3594,421.8906 575.1719,421.7031 Q574.8438,421.3281 574.2344,421.1094 Q573.625,420.8906 573,420.8906 Q572.2344,420.8906 571.5938,421.2188 Q570.9688,421.5469 570.4688,422.2969 Q569.9844,423.0469 569.9844,424.0781 L569.9844,425.1719 Q569.9844,426.4063 570.875,427.2344 Q571.7656,428.0469 573.3594,428.0469 Q574.2969,428.0469 574.9531,427.7969 Q575.3438,427.6406 575.7656,427.2031 Q576.0313,426.9375 576.1719,426.8594 Q576.3281,426.7813 576.5313,426.7813 Q576.8594,426.7813 577.1094,427.0469 Q577.375,427.2969 577.375,427.6406 Q577.375,427.9844 577.0313,428.3906 Q576.5313,428.9688 575.7344,429.2969 Q574.6563,429.75 573.3594,429.75 Q571.8438,429.75 570.6406,429.125 Q569.6563,428.625 568.9688,427.5625 Q568.2813,426.4844 568.2813,425.2031 L568.2813,424.0469 Q568.2813,422.7188 568.8906,421.5781 Q569.5156,420.4219 570.6094,419.8125 Q571.7031,419.1875 572.9375,419.1875 Q573.6719,419.1875 574.3125,419.3594 Q574.9688,419.5156 575.5156,419.875 Z " fill="#000000"/><text fill="#000000" font-family="sans-serif" font-size="14" lengthAdjust="spacing" textLength="88" x="593.25" y="429.7969">PluginHandler</text><line style="stroke:#181818;stroke-width:0.5;" x1="522.5" x2="719.5" y1="440" y2="440"/><line style="stroke:#181818;stroke-width:0.5;" x1="522.5" x2="719.5" y1="448" y2="448"/><ellipse cx="532.5" cy="462.8105" fill="#84BE84" rx="3" ry="3" style="stroke:#038048;stroke-width:1.0;"/><text fill="#000000" font-family="sans-serif" font-size="14" lengthAdjust="spacing" textLength="173" x="541.5" y="467.1074">activateTemplateFunction()</text></g><!--class ManagePluginService--><g id="elem_ManagePluginService"><rect codeLine="29" fill="#F1F1F1" height="85.2422" id="ManagePluginService" rx="2.5" ry="2.5" style="stroke:#181818;stroke-width:0.5;" width="388" x="7" y="505"/><ellipse cx="128.25" cy="521" fill="#ADD1B2" rx="11" ry="11" style="stroke:#181818;stroke-width:1.0;"/><path d="M131.0156,516.875 Q131.1719,516.6563 131.3594,516.5469 Q131.5469,516.4375 131.7656,516.4375 Q132.1406,516.4375 132.375,516.7031 Q132.6094,516.9531 132.6094,517.5625 L132.6094,519.0156 Q132.6094,519.625 132.375,519.8906 Q132.1406,520.1563 131.7656,520.1563 Q131.4219,520.1563 131.2188,519.9531 Q131.0156,519.7656 130.9063,519.25 Q130.8594,518.8906 130.6719,518.7031 Q130.3438,518.3281 129.7344,518.1094 Q129.125,517.8906 128.5,517.8906 Q127.7344,517.8906 127.0938,518.2188 Q126.4688,518.5469 125.9688,519.2969 Q125.4844,520.0469 125.4844,521.0781 L125.4844,522.1719 Q125.4844,523.4063 126.375,524.2344 Q127.2656,525.0469 128.8594,525.0469 Q129.7969,525.0469 130.4531,524.7969 Q130.8438,524.6406 131.2656,524.2031 Q131.5313,523.9375 131.6719,523.8594 Q131.8281,523.7813 132.0313,523.7813 Q132.3594,523.7813 132.6094,524.0469 Q132.875,524.2969 132.875,524.6406 Q132.875,524.9844 132.5313,525.3906 Q132.0313,525.9688 131.2344,526.2969 Q130.1563,526.75 128.8594,526.75 Q127.3438,526.75 126.1406,526.125 Q125.1563,525.625 124.4688,524.5625 Q123.7813,523.4844 123.7813,522.2031 L123.7813,521.0469 Q123.7813,519.7188 124.3906,518.5781 Q125.0156,517.4219 126.1094,516.8125 Q127.2031,516.1875 128.4375,516.1875 Q129.1719,516.1875 129.8125,516.3594 Q130.4688,516.5156 131.0156,516.875 Z " fill="#000000"/><text fill="#000000" font-family="sans-serif" font-size="14" lengthAdjust="spacing" textLength="137" x="148.75" y="526.7969">ManagePluginService</text><line style="stroke:#181818;stroke-width:0.5;" x1="8" x2="394" y1="537" y2="537"/><rect fill="none" height="6" style="stroke:#C82930;stroke-width:1.0;" width="6" x="15" y="548.8105"/><text fill="#000000" font-family="sans-serif" font-size="14" lengthAdjust="spacing" textLength="362" x="27" y="556.1074">registeredPluginRepository: RegisteredPluginsRepository</text><line style="stroke:#181818;stroke-width:0.5;" x1="8" x2="394" y1="563.6211" y2="563.6211"/><ellipse cx="18" cy="578.4316" fill="#84BE84" rx="3" ry="3" style="stroke:#038048;stroke-width:1.0;"/><text fill="#000000" font-family="sans-serif" font-size="14" lengthAdjust="spacing" textLength="158" x="27" y="582.7285">findAllJobRequirements()</text></g><!--class RegisteredPluginsRepository--><g id="elem_RegisteredPluginsRepository"><rect codeLine="34" fill="#F1F1F1" height="48" id="RegisteredPluginsRepository" rx="2.5" ry="2.5" style="stroke:#181818;stroke-width:0.5;" width="215" x="146.5" y="803"/><ellipse cx="161.5" cy="819" fill="#ADD1B2" rx="11" ry="11" style="stroke:#181818;stroke-width:1.0;"/><path d="M164.2656,814.875 Q164.4219,814.6563 164.6094,814.5469 Q164.7969,814.4375 165.0156,814.4375 Q165.3906,814.4375 165.625,814.7031 Q165.8594,814.9531 165.8594,815.5625 L165.8594,817.0156 Q165.8594,817.625 165.625,817.8906 Q165.3906,818.1563 165.0156,818.1563 Q164.6719,818.1563 164.4688,817.9531 Q164.2656,817.7656 164.1563,817.25 Q164.1094,816.8906 163.9219,816.7031 Q163.5938,816.3281 162.9844,816.1094 Q162.375,815.8906 161.75,815.8906 Q160.9844,815.8906 160.3438,816.2188 Q159.7188,816.5469 159.2188,817.2969 Q158.7344,818.0469 158.7344,819.0781 L158.7344,820.1719 Q158.7344,821.4063 159.625,822.2344 Q160.5156,823.0469 162.1094,823.0469 Q163.0469,823.0469 163.7031,822.7969 Q164.0938,822.6406 164.5156,822.2031 Q164.7813,821.9375 164.9219,821.8594 Q165.0781,821.7813 165.2813,821.7813 Q165.6094,821.7813 165.8594,822.0469 Q166.125,822.2969 166.125,822.6406 Q166.125,822.9844 165.7813,823.3906 Q165.2813,823.9688 164.4844,824.2969 Q163.4063,824.75 162.1094,824.75 Q160.5938,824.75 159.3906,824.125 Q158.4063,823.625 157.7188,822.5625 Q157.0313,821.4844 157.0313,820.2031 L157.0313,819.0469 Q157.0313,817.7188 157.6406,816.5781 Q158.2656,815.4219 159.3594,814.8125 Q160.4531,814.1875 161.6875,814.1875 Q162.4219,814.1875 163.0625,814.3594 Q163.7188,814.5156 164.2656,814.875 Z " fill="#000000"/><text fill="#000000" font-family="sans-serif" font-size="14" lengthAdjust="spacing" textLength="183" x="175.5" y="824.7969">RegisteredPluginsRepository</text><line style="stroke:#181818;stroke-width:0.5;" x1="147.5" x2="360.5" y1="835" y2="835"/><line style="stroke:#181818;stroke-width:0.5;" x1="147.5" x2="360.5" y1="843" y2="843"/></g><!--link OperatorUI to ExportJobRequirementsTemplateUI--><g id="link_OperatorUI_ExportJobRequirementsTemplateUI"><path codeLine="38" d="M409,74.26 C409,91.71 409,112.95 409,129.67 " fill="none" id="OperatorUI-to-ExportJobRequirementsTemplateUI" style="stroke:#181818;stroke-width:1.0;stroke-dasharray:7.0,7.0;"/><polygon fill="#181818" points="409,134.71,413,125.71,409,129.71,405,125.71,409,134.71" style="stroke:#181818;stroke-width:1.0;"/></g><!--link ExportJobRequirementsTemplateUI to ExportJobRequirementsTemplateController--><g id="link_ExportJobRequirementsTemplateUI_ExportJobRequirementsTemplateController"><path codeLine="39" d="M409,183.02 C409,198.54 409,219.58 409,238.55 " fill="none" id="ExportJobRequirementsTemplateUI-to-ExportJobRequirementsTemplateController" style="stroke:#181818;stroke-width:1.0;stroke-dasharray:7.0,7.0;"/><polygon fill="#181818" points="409,243.84,413,234.84,409,238.84,405,234.84,409,243.84" style="stroke:#181818;stroke-width:1.0;"/></g><!--link ExportJobRequirementsTemplateController to PluginHandler--><g id="link_ExportJobRequirementsTemplateController_PluginHandler"><path codeLine="41" d="M466.65,329.11 C499.51,352.82 540.25,382.22 571.63,404.87 " fill="none" id="ExportJobRequirementsTemplateController-to-PluginHandler" style="stroke:#181818;stroke-width:1.0;stroke-dasharray:7.0,7.0;"/><polygon fill="#181818" points="575.79,407.87,570.8337,399.3591,571.7359,404.9436,566.1514,405.8458,575.79,407.87" style="stroke:#181818;stroke-width:1.0;"/></g><!--link ExportJobRequirementsTemplateController to PersistenceContext--><g id="link_ExportJobRequirementsTemplateController_PersistenceContext"><path codeLine="42" d="M409,329.31 C409,352.24 409,380.46 409,402.72 " fill="none" id="ExportJobRequirementsTemplateController-to-PersistenceContext" style="stroke:#181818;stroke-width:1.0;stroke-dasharray:7.0,7.0;"/><polygon fill="#181818" points="409,407.96,413,398.96,409,402.96,405,398.96,409,407.96" style="stroke:#181818;stroke-width:1.0;"/><text fill="#000000" font-family="sans-serif" font-size="13" lengthAdjust="spacing" textLength="79" x="410" y="374.0283">repositories ()</text></g><!--link ExportJobRequirementsTemplateController to ManagePluginService--><g id="link_ExportJobRequirementsTemplateController_ManagePluginService"><path codeLine="43" d="M375.58,329.11 C337.83,376.12 276.58,452.39 237.57,500.96 " fill="none" id="ExportJobRequirementsTemplateController-to-ManagePluginService" style="stroke:#181818;stroke-width:1.0;stroke-dasharray:7.0,7.0;"/><polygon fill="#181818" points="234.34,504.99,243.0918,500.4727,237.4687,501.0898,236.8515,495.4668,234.34,504.99" style="stroke:#181818;stroke-width:1.0;"/></g><!--link ManagePluginService to RegisteredPluginsRepository--><g id="link_ManagePluginService_RegisteredPluginsRepository"><path codeLine="45" d="M208.93,590.04 C219.86,647.23 239.23,748.69 248.61,797.8 " fill="none" id="ManagePluginService-to-RegisteredPluginsRepository" style="stroke:#181818;stroke-width:1.0;stroke-dasharray:7.0,7.0;"/><polygon fill="#181818" points="249.6,802.96,251.8325,793.3675,248.6579,798.0496,243.9758,794.8749,249.6,802.96" style="stroke:#181818;stroke-width:1.0;"/></g><!--link PersistenceContext to RepositoryFactory--><g id="link_PersistenceContext_RepositoryFactory"><path codeLine="47" d="M411.01,475.24 C413.23,511.6 416.87,570.94 419.55,614.77 " fill="none" id="PersistenceContext-to-RepositoryFactory" style="stroke:#181818;stroke-width:1.0;"/><polygon fill="#181818" points="419.86,619.77,423.2859,610.5362,419.5454,614.7799,415.3017,611.0395,419.86,619.77" style="stroke:#181818;stroke-width:1.0;"/><text fill="#000000" font-family="sans-serif" font-size="13" lengthAdjust="spacing" textLength="44" x="419" y="553.0283">create()</text></g><!--link RepositoryFactory to RegisteredPluginsRepository--><g id="link_RepositoryFactory_RegisteredPluginsRepository"><path codeLine="49" d="M366.26,724.37 C338.52,749.48 306.29,778.66 283.5,799.29 " fill="none" id="RepositoryFactory-to-RegisteredPluginsRepository" style="stroke:#181818;stroke-width:1.0;"/><polygon fill="#181818" points="279.64,802.78,289.0055,799.7325,283.3565,799.4352,283.6538,793.7861,279.64,802.78" style="stroke:#181818;stroke-width:1.0;"/><text fill="#000000" font-family="sans-serif" font-size="13" lengthAdjust="spacing" textLength="44" x="335" y="769.0283">create()</text></g><!--SRC=[bLFHIiCm57tFL-HnGxeFg30GSJX17BFxWDXUIo1BwaqwAyL_DsaRczhERdifv9nxpZtttgM2QKrV2a1c51wsj2RK_cwWAXIQ18w5O0OMI_9DIDfm7nhaIRtjuQFa24UGHdlYOLjVHhnNqg0I0h0chIFDmTm9CUJlH9bpgQs_vqZNAGIDEU3NSmUekJOWqyO1AkC38HHASvkHWmxZxFtxruQbxkCB97mcoAIshrn99ZgznVAswwNeUfjYKLOQbLGZhdtehTjmZqncTWpUbZgbKn1nKyf6EspwcKcMGrl_2dZYANJr4KN8tGGGiXRl0yOsx13JFTYvltEPZRRmPs1dDMmFZXTSqsgrdZiOCeFFQ_ItHCY5n4PqCF_hAiTd5jFmmgYTs3M24mibP6hBbllV4ib4Pr6qdhZocAO8xJ-8ZD6svloYW-eV]--></g></svg>