<?xml version="1.0" encoding="us-ascii" standalone="no"?><svg xmlns="http://www.w3.org/2000/svg" xmlns:xlink="http://www.w3.org/1999/xlink" contentStyleType="text/css" height="450px" preserveAspectRatio="none" style="width:940px;height:450px;background:#FFFFFF;" version="1.1" viewBox="0 0 940 450" width="940px" zoomAndPan="magnify"><defs/><g><!--cluster UserAggregate--><g id="cluster_UserAggregate"><path d="M266.5,6 L387.5,6 A3.75,3.75 0 0 1 390,8.5 L397,28.2969 L930.5,28.2969 A2.5,2.5 0 0 1 933,30.7969 L933,440.5 A2.5,2.5 0 0 1 930.5,443 L266.5,443 A2.5,2.5 0 0 1 264,440.5 L264,8.5 A2.5,2.5 0 0 1 266.5,6 " fill="none" style="stroke:#000000;stroke-width:1.5;"/><line style="stroke:#000000;stroke-width:1.5;" x1="264" x2="397" y1="28.2969" y2="28.2969"/><text fill="#000000" font-family="sans-serif" font-size="14" font-weight="bold" lengthAdjust="spacing" textLength="120" x="268" y="20.9951">UserAggregate</text></g><!--cluster CandidateAggregate--><g id="cluster_CandidateAggregate"><path d="M8.5,10 L171.5,10 A3.75,3.75 0 0 1 174,12.5 L181,32.2969 L237.5,32.2969 A2.5,2.5 0 0 1 240,34.7969 L240,259.5 A2.5,2.5 0 0 1 237.5,262 L8.5,262 A2.5,2.5 0 0 1 6,259.5 L6,12.5 A2.5,2.5 0 0 1 8.5,10 " fill="none" style="stroke:#000000;stroke-width:1.5;"/><line style="stroke:#000000;stroke-width:1.5;" x1="6" x2="181" y1="32.2969" y2="32.2969"/><text fill="#000000" font-family="sans-serif" font-size="14" font-weight="bold" lengthAdjust="spacing" textLength="162" x="10" y="24.9951">CandidateAggregate</text></g><!--class Operator--><g id="elem_Operator"><rect codeLine="3" fill="#F1F1F1" height="64.2969" id="Operator" rx="2.5" ry="2.5" style="stroke:#181818;stroke-width:0.5;" width="93" x="505.5" y="41"/><ellipse cx="520.5" cy="57" fill="#ADD1B2" rx="11" ry="11" style="stroke:#181818;stroke-width:1.0;"/><path d="M524.6094,63 L516.8906,63 L516.8906,50.6094 L524.6094,50.6094 L524.6094,52.7656 L519.3438,52.7656 L519.3438,55.4375 L524.1094,55.4375 L524.1094,57.5938 L519.3438,57.5938 L519.3438,60.8438 L524.6094,60.8438 L524.6094,63 Z " fill="#000000"/><text fill="#000000" font-family="sans-serif" font-size="14" lengthAdjust="spacing" textLength="61" x="534.5" y="61.8467">Operator</text><line style="stroke:#181818;stroke-width:0.5;" x1="506.5" x2="597.5" y1="73" y2="73"/><text fill="#000000" font-family="sans-serif" font-size="14" lengthAdjust="spacing" textLength="56" x="511.5" y="89.9951">&#171;entity&#187;</text><line style="stroke:#181818;stroke-width:0.5;" x1="506.5" x2="597.5" y1="97.2969" y2="97.2969"/></g><!--class User--><g id="elem_User"><rect codeLine="6" fill="#F1F1F1" height="64.2969" id="User" rx="2.5" ry="2.5" style="stroke:#181818;stroke-width:0.5;" width="100" x="502" y="182"/><ellipse cx="533.2" cy="198" fill="#ADD1B2" rx="11" ry="11" style="stroke:#181818;stroke-width:1.0;"/><path d="M537.3094,204 L529.5906,204 L529.5906,191.6094 L537.3094,191.6094 L537.3094,193.7656 L532.0438,193.7656 L532.0438,196.4375 L536.8094,196.4375 L536.8094,198.5938 L532.0438,198.5938 L532.0438,201.8438 L537.3094,201.8438 L537.3094,204 Z " fill="#000000"/><text fill="#000000" font-family="sans-serif" font-size="14" lengthAdjust="spacing" textLength="32" x="550.8" y="202.8467">User</text><line style="stroke:#181818;stroke-width:0.5;" x1="503" x2="601" y1="214" y2="214"/><text fill="#000000" font-family="sans-serif" font-size="14" lengthAdjust="spacing" textLength="88" x="508" y="230.9951">&#171;root entity&#187;</text><line style="stroke:#181818;stroke-width:0.5;" x1="503" x2="601" y1="238.2969" y2="238.2969"/></g><!--class EmailAddress--><g id="elem_EmailAddress"><rect codeLine="9" fill="#F1F1F1" height="56.2656" id="EmailAddress" rx="2.5" ry="2.5" style="stroke:#181818;stroke-width:0.5;" width="178" x="280" y="371"/><ellipse cx="295" cy="391.1328" fill="#F09000" rx="11" ry="11" style="stroke:#181818;stroke-width:1.0;"/><path d="M295.1094,395.5859 L297.2969,385.2422 L299.7656,385.2422 L296.8125,397.6328 L293.4219,397.6328 L290.4688,385.2422 L292.9375,385.2422 L295.1094,395.5859 Z " fill="#000000"/><text fill="#000000" font-family="sans-serif" font-size="12" font-style="italic" lengthAdjust="spacing" textLength="150" x="307" y="387.1387">&#171;Identifier value Object&#187;</text><text fill="#000000" font-family="sans-serif" font-size="14" lengthAdjust="spacing" textLength="93" x="335.5" y="402.9639">EmailAddress</text><line style="stroke:#181818;stroke-width:0.5;" x1="281" x2="457" y1="411.2656" y2="411.2656"/><line style="stroke:#181818;stroke-width:0.5;" x1="281" x2="457" y1="419.2656" y2="419.2656"/></g><!--class Password--><g id="elem_Password"><rect codeLine="10" fill="#F1F1F1" height="56.2656" id="Password" rx="2.5" ry="2.5" style="stroke:#181818;stroke-width:0.5;" width="118" x="493" y="371"/><ellipse cx="508" cy="391.1328" fill="#F04800" rx="11" ry="11" style="stroke:#181818;stroke-width:1.0;"/><path d="M508.1094,395.5859 L510.2969,385.2422 L512.7656,385.2422 L509.8125,397.6328 L506.4219,397.6328 L503.4688,385.2422 L505.9375,385.2422 L508.1094,395.5859 Z " fill="#000000"/><text fill="#000000" font-family="sans-serif" font-size="12" font-style="italic" lengthAdjust="spacing" textLength="90" x="520" y="387.1387">&#171;value Object&#187;</text><text fill="#000000" font-family="sans-serif" font-size="14" lengthAdjust="spacing" textLength="67" x="531.5" y="402.9639">Password</text><line style="stroke:#181818;stroke-width:0.5;" x1="494" x2="610" y1="411.2656" y2="411.2656"/><line style="stroke:#181818;stroke-width:0.5;" x1="494" x2="610" y1="419.2656" y2="419.2656"/></g><!--class Role--><g id="elem_Role"><rect codeLine="11" fill="#F1F1F1" height="56.2656" id="Role" rx="2.5" ry="2.5" style="stroke:#181818;stroke-width:0.5;" width="118" x="646" y="371"/><ellipse cx="661" cy="391.1328" fill="#F04800" rx="11" ry="11" style="stroke:#181818;stroke-width:1.0;"/><path d="M661.1094,395.5859 L663.2969,385.2422 L665.7656,385.2422 L662.8125,397.6328 L659.4219,397.6328 L656.4688,385.2422 L658.9375,385.2422 L661.1094,395.5859 Z " fill="#000000"/><text fill="#000000" font-family="sans-serif" font-size="12" font-style="italic" lengthAdjust="spacing" textLength="90" x="673" y="387.1387">&#171;value Object&#187;</text><text fill="#000000" font-family="sans-serif" font-size="14" lengthAdjust="spacing" textLength="31" x="702.5" y="402.9639">Role</text><line style="stroke:#181818;stroke-width:0.5;" x1="647" x2="763" y1="411.2656" y2="411.2656"/><line style="stroke:#181818;stroke-width:0.5;" x1="647" x2="763" y1="419.2656" y2="419.2656"/></g><!--class Name--><g id="elem_Name"><rect codeLine="12" fill="#F1F1F1" height="56.2656" id="Name" rx="2.5" ry="2.5" style="stroke:#181818;stroke-width:0.5;" width="118" x="799" y="371"/><ellipse cx="814" cy="391.1328" fill="#F04800" rx="11" ry="11" style="stroke:#181818;stroke-width:1.0;"/><path d="M814.1094,395.5859 L816.2969,385.2422 L818.7656,385.2422 L815.8125,397.6328 L812.4219,397.6328 L809.4688,385.2422 L811.9375,385.2422 L814.1094,395.5859 Z " fill="#000000"/><text fill="#000000" font-family="sans-serif" font-size="12" font-style="italic" lengthAdjust="spacing" textLength="90" x="826" y="387.1387">&#171;value Object&#187;</text><text fill="#000000" font-family="sans-serif" font-size="14" lengthAdjust="spacing" textLength="40" x="851" y="402.9639">Name</text><line style="stroke:#181818;stroke-width:0.5;" x1="800" x2="916" y1="411.2656" y2="411.2656"/><line style="stroke:#181818;stroke-width:0.5;" x1="800" x2="916" y1="419.2656" y2="419.2656"/></g><!--class Candidate--><g id="elem_Candidate"><rect codeLine="15" fill="#F1F1F1" height="64.2969" id="Candidate" rx="2.5" ry="2.5" style="stroke:#181818;stroke-width:0.5;" width="102" x="109" y="182"/><ellipse cx="124" cy="198" fill="#ADD1B2" rx="11" ry="11" style="stroke:#181818;stroke-width:1.0;"/><path d="M128.1094,204 L120.3906,204 L120.3906,191.6094 L128.1094,191.6094 L128.1094,193.7656 L122.8438,193.7656 L122.8438,196.4375 L127.6094,196.4375 L127.6094,198.5938 L122.8438,198.5938 L122.8438,201.8438 L128.1094,201.8438 L128.1094,204 Z " fill="#000000"/><text fill="#000000" font-family="sans-serif" font-size="14" lengthAdjust="spacing" textLength="70" x="138" y="202.8467">Candidate</text><line style="stroke:#181818;stroke-width:0.5;" x1="110" x2="210" y1="214" y2="214"/><text fill="#000000" font-family="sans-serif" font-size="14" lengthAdjust="spacing" textLength="88" x="115" y="230.9951">&#171;root entity&#187;</text><line style="stroke:#181818;stroke-width:0.5;" x1="110" x2="210" y1="238.2969" y2="238.2969"/></g><!--class CandidatePhoneNumber--><g id="elem_CandidatePhoneNumber"><rect codeLine="18" fill="#F1F1F1" height="56.2656" id="CandidatePhoneNumber" rx="2.5" ry="2.5" style="stroke:#181818;stroke-width:0.5;" width="202" x="22" y="45"/><ellipse cx="37" cy="65.1328" fill="#F09000" rx="11" ry="11" style="stroke:#181818;stroke-width:1.0;"/><path d="M37.1094,69.5859 L39.2969,59.2422 L41.7656,59.2422 L38.8125,71.6328 L35.4219,71.6328 L32.4688,59.2422 L34.9375,59.2422 L37.1094,69.5859 Z " fill="#000000"/><text fill="#000000" font-family="sans-serif" font-size="12" font-style="italic" lengthAdjust="spacing" textLength="142" x="65" y="61.1387">&#171;Identity value Object&#187;</text><text fill="#000000" font-family="sans-serif" font-size="14" lengthAdjust="spacing" textLength="170" x="51" y="76.9639">CandidatePhoneNumber</text><line style="stroke:#181818;stroke-width:0.5;" x1="23" x2="223" y1="85.2656" y2="85.2656"/><line style="stroke:#181818;stroke-width:0.5;" x1="23" x2="223" y1="93.2656" y2="93.2656"/></g><!--link CandidatePhoneNumber to Candidate--><g id="link_CandidatePhoneNumber_Candidate"><path codeLine="21" d="M130.22,101.13 C136.36,124.2 145.18,157.34 151.63,181.56 " fill="none" id="CandidatePhoneNumber-Candidate" style="stroke:#181818;stroke-width:1.0;stroke-dasharray:7.0,7.0;"/><polygon fill="#000000" points="150.2862,148.3981,150.7995,138.9014,145.1194,140.4134,150.2862,148.3981" style="stroke:#000000;stroke-width:1.0;"/><text fill="#000000" font-family="sans-serif" font-size="13" lengthAdjust="spacing" textLength="57" x="158" y="148.0669">identifies</text></g><!--link Operator to User--><g id="link_Operator_User"><path codeLine="22" d="M552,105.19 C552,128.09 552,141.04 552,163.91 " fill="none" id="Operator-to-User" style="stroke:#181818;stroke-width:1.0;"/><polygon fill="none" points="552,181.91,558,163.91,546,163.91,552,181.91" style="stroke:#181818;stroke-width:1.0;"/></g><!--link Candidate to User--><g id="link_Candidate_User"><path codeLine="23" d="M211.3,214 C308.12,214 386.94,214 483.76,214 " fill="none" id="Candidate-to-User" style="stroke:#181818;stroke-width:1.0;"/><polygon fill="none" points="501.76,214,483.76,208,483.76,220,501.76,214" style="stroke:#181818;stroke-width:1.0;"/></g><!--link User to EmailAddress--><g id="link_User_EmailAddress"><path codeLine="24" d="M520.96,246.04 C485.88,281.12 429.34,337.66 396.01,370.99 " fill="none" id="User-EmailAddress" style="stroke:#181818;stroke-width:1.0;"/><text fill="#000000" font-family="sans-serif" font-size="13" lengthAdjust="spacing" textLength="8" x="505.733" y="266.2451">1</text><text fill="#000000" font-family="sans-serif" font-size="13" lengthAdjust="spacing" textLength="8" x="393.3311" y="359.8299">1</text></g><!--link User to Password--><g id="link_User_Password"><path codeLine="25" d="M552,246.04 C552,281.12 552,337.66 552,370.99 " fill="none" id="User-Password" style="stroke:#181818;stroke-width:1.0;"/><text fill="#000000" font-family="sans-serif" font-size="13" lengthAdjust="spacing" textLength="8" x="543.175" y="266.2451">1</text><text fill="#000000" font-family="sans-serif" font-size="13" lengthAdjust="spacing" textLength="8" x="543.075" y="359.8299">1</text></g><!--link User to Role--><g id="link_User_Role"><path codeLine="26" d="M577.95,246.04 C607.28,281.12 654.55,337.66 682.41,370.99 " fill="none" id="User-Role" style="stroke:#181818;stroke-width:1.0;"/><text fill="#000000" font-family="sans-serif" font-size="13" lengthAdjust="spacing" textLength="8" x="574.4772" y="266.2451">1</text><text fill="#000000" font-family="sans-serif" font-size="13" lengthAdjust="spacing" textLength="8" x="668.2611" y="359.8299">1</text></g><!--link User to Name--><g id="link_User_Name"><path codeLine="27" d="M602.19,245.01 C660.68,280 756.5,337.3 812.78,370.96 " fill="none" id="User-Name" style="stroke:#181818;stroke-width:1.0;"/><text fill="#000000" font-family="sans-serif" font-size="13" lengthAdjust="spacing" textLength="8" x="605.4488" y="266.4437">1</text><text fill="#000000" font-family="sans-serif" font-size="13" lengthAdjust="spacing" textLength="8" x="793.3979" y="359.7929">1</text></g><!--SRC=[bL7HIiCm57rklk8oNnHMgU23ZX8OOm- -R4NGzxlbheksZQIP8dN_RXAx6DQ2c8U4d7FFuN9EWTjNB0cUMjBpijHKeY7eMB9iZ3IVi7uZZKPf1oLvJXxbd2N7CEAaFQsLCX3FW3sB2jiMbZNAQYw49ll9yyldwSKkky-ox0eUX9FifBLvn-f0iDwyqDPm3btiKDZhGsaHrBTtJdqkWLZpg2g2_mXMMDFVyqTMzBaji15IsCn2U9rtwxC9DFp0xfp7vB1uXQ0fzggXrQ7Us6364hF-exknKOVhDDfc1XpaAVQMXPRJz8lxGdyz842-wCdDn4wb_eqx7RAdleQCQsM8kkY_0G00]--></g></svg>