<?xml version="1.0" encoding="us-ascii" standalone="no"?><svg xmlns="http://www.w3.org/2000/svg" xmlns:xlink="http://www.w3.org/1999/xlink" contentStyleType="text/css" height="1336px" preserveAspectRatio="none" style="width:1641px;height:1336px;background:#FFFFFF;" version="1.1" viewBox="0 0 1641 1336" width="1641px" zoomAndPan="magnify"><defs/><g><!--class OperatorUI--><g id="elem_OperatorUI"><rect codeLine="3" fill="#F1F1F1" height="64.2969" id="OperatorUI" rx="2.5" ry="2.5" style="stroke:#181818;stroke-width:0.5;" width="159" x="1269" y="7"/><ellipse cx="1307.85" cy="23" fill="#ADD1B2" rx="11" ry="11" style="stroke:#181818;stroke-width:1.0;"/><path d="M1310.8188,28.6406 Q1310.2406,28.9375 1309.6,29.0781 Q1308.9594,29.2344 1308.2563,29.2344 Q1305.7563,29.2344 1304.4281,27.5938 Q1303.1156,25.9375 1303.1156,22.8125 Q1303.1156,19.6875 1304.4281,18.0313 Q1305.7563,16.375 1308.2563,16.375 Q1308.9594,16.375 1309.6,16.5313 Q1310.2563,16.6875 1310.8188,16.9844 L1310.8188,19.7031 Q1310.1938,19.125 1309.6,18.8594 Q1309.0063,18.5781 1308.3813,18.5781 Q1307.0375,18.5781 1306.35,19.6563 Q1305.6625,20.7188 1305.6625,22.8125 Q1305.6625,24.9063 1306.35,25.9844 Q1307.0375,27.0469 1308.3813,27.0469 Q1309.0063,27.0469 1309.6,26.7813 Q1310.1938,26.5 1310.8188,25.9219 L1310.8188,28.6406 Z " fill="#000000"/><text fill="#000000" font-family="sans-serif" font-size="14" lengthAdjust="spacing" textLength="74" x="1327.15" y="27.8467">OperatorUI</text><line style="stroke:#181818;stroke-width:0.5;" x1="1270" x2="1427" y1="39" y2="39"/><line style="stroke:#181818;stroke-width:0.5;" x1="1270" x2="1427" y1="47" y2="47"/><ellipse cx="1280" cy="60.6484" fill="#84BE84" rx="3" ry="3" style="stroke:#038048;stroke-width:1.0;"/><text fill="#000000" font-family="sans-serif" font-size="14" lengthAdjust="spacing" textLength="133" x="1289" y="63.9951">registerCandidate()</text></g><!--class PersistenceContext--><g id="elem_PersistenceContext"><rect codeLine="7" fill="#F1F1F1" height="64.2969" id="PersistenceContext" rx="2.5" ry="2.5" style="stroke:#181818;stroke-width:0.5;" width="168" x="583.5" y="479.5"/><ellipse cx="598.5" cy="495.5" fill="#ADD1B2" rx="11" ry="11" style="stroke:#181818;stroke-width:1.0;"/><path d="M601.4688,501.1406 Q600.8906,501.4375 600.25,501.5781 Q599.6094,501.7344 598.9063,501.7344 Q596.4063,501.7344 595.0781,500.0938 Q593.7656,498.4375 593.7656,495.3125 Q593.7656,492.1875 595.0781,490.5313 Q596.4063,488.875 598.9063,488.875 Q599.6094,488.875 600.25,489.0313 Q600.9063,489.1875 601.4688,489.4844 L601.4688,492.2031 Q600.8438,491.625 600.25,491.3594 Q599.6563,491.0781 599.0313,491.0781 Q597.6875,491.0781 597,492.1563 Q596.3125,493.2188 596.3125,495.3125 Q596.3125,497.4063 597,498.4844 Q597.6875,499.5469 599.0313,499.5469 Q599.6563,499.5469 600.25,499.2813 Q600.8438,499 601.4688,498.4219 L601.4688,501.1406 Z " fill="#000000"/><text fill="#000000" font-family="sans-serif" font-size="14" lengthAdjust="spacing" textLength="136" x="612.5" y="500.3467">PersistenceContext</text><line style="stroke:#181818;stroke-width:0.5;" x1="584.5" x2="750.5" y1="511.5" y2="511.5"/><line style="stroke:#181818;stroke-width:0.5;" x1="584.5" x2="750.5" y1="519.5" y2="519.5"/><ellipse cx="594.5" cy="533.1484" fill="#84BE84" rx="3" ry="3" style="stroke:#038048;stroke-width:1.0;"/><text fill="#000000" font-family="sans-serif" font-size="14" lengthAdjust="spacing" textLength="92" x="603.5" y="536.4951">repositories()</text></g><!--class RepositoryFactory--><g id="elem_RepositoryFactory"><rect codeLine="11" fill="#F1F1F1" height="129.4844" id="RepositoryFactory" rx="2.5" ry="2.5" style="stroke:#181818;stroke-width:0.5;" width="329" x="537" y="806.5"/><ellipse cx="635.25" cy="822.5" fill="#ADD1B2" rx="11" ry="11" style="stroke:#181818;stroke-width:1.0;"/><path d="M638.2188,828.1406 Q637.6406,828.4375 637,828.5781 Q636.3594,828.7344 635.6563,828.7344 Q633.1563,828.7344 631.8281,827.0938 Q630.5156,825.4375 630.5156,822.3125 Q630.5156,819.1875 631.8281,817.5313 Q633.1563,815.875 635.6563,815.875 Q636.3594,815.875 637,816.0313 Q637.6563,816.1875 638.2188,816.4844 L638.2188,819.2031 Q637.5938,818.625 637,818.3594 Q636.4063,818.0781 635.7813,818.0781 Q634.4375,818.0781 633.75,819.1563 Q633.0625,820.2188 633.0625,822.3125 Q633.0625,824.4063 633.75,825.4844 Q634.4375,826.5469 635.7813,826.5469 Q636.4063,826.5469 637,826.2813 Q637.5938,826 638.2188,825.4219 L638.2188,828.1406 Z " fill="#000000"/><text fill="#000000" font-family="sans-serif" font-size="14" lengthAdjust="spacing" textLength="124" x="655.75" y="827.3467">RepositoryFactory</text><line style="stroke:#181818;stroke-width:0.5;" x1="538" x2="865" y1="838.5" y2="838.5"/><line style="stroke:#181818;stroke-width:0.5;" x1="538" x2="865" y1="846.5" y2="846.5"/><ellipse cx="548" cy="860.1484" fill="#84BE84" rx="3" ry="3" style="stroke:#038048;stroke-width:1.0;"/><text fill="#000000" font-family="sans-serif" font-size="14" lengthAdjust="spacing" textLength="185" x="557" y="863.4951">newTransactionalContext()</text><ellipse cx="548" cy="876.4453" fill="#84BE84" rx="3" ry="3" style="stroke:#038048;stroke-width:1.0;"/><text fill="#000000" font-family="sans-serif" font-size="14" lengthAdjust="spacing" textLength="228" x="557" y="879.792">users(TransactionalContext var1)</text><ellipse cx="548" cy="892.7422" fill="#84BE84" rx="3" ry="3" style="stroke:#038048;stroke-width:1.0;"/><text fill="#000000" font-family="sans-serif" font-size="14" lengthAdjust="spacing" textLength="49" x="557" y="896.0889">users()</text><ellipse cx="548" cy="909.0391" fill="#84BE84" rx="3" ry="3" style="stroke:#038048;stroke-width:1.0;"/><text fill="#000000" font-family="sans-serif" font-size="14" lengthAdjust="spacing" textLength="303" x="557" y="912.3857">signupRequests(TransactionalContext var1)</text><ellipse cx="548" cy="925.3359" fill="#84BE84" rx="3" ry="3" style="stroke:#038048;stroke-width:1.0;"/><text fill="#000000" font-family="sans-serif" font-size="14" lengthAdjust="spacing" textLength="124" x="557" y="928.6826">signupRequests()</text></g><!--class ListUsersController--><g id="elem_ListUsersController"><rect codeLine="19" fill="#F1F1F1" height="145.7813" id="ListUsersController" rx="2.5" ry="2.5" style="stroke:#181818;stroke-width:0.5;" width="353" x="7" y="438.5"/><ellipse cx="114.25" cy="454.5" fill="#ADD1B2" rx="11" ry="11" style="stroke:#181818;stroke-width:1.0;"/><path d="M117.2188,460.1406 Q116.6406,460.4375 116,460.5781 Q115.3594,460.7344 114.6563,460.7344 Q112.1563,460.7344 110.8281,459.0938 Q109.5156,457.4375 109.5156,454.3125 Q109.5156,451.1875 110.8281,449.5313 Q112.1563,447.875 114.6563,447.875 Q115.3594,447.875 116,448.0313 Q116.6563,448.1875 117.2188,448.4844 L117.2188,451.2031 Q116.5938,450.625 116,450.3594 Q115.4063,450.0781 114.7813,450.0781 Q113.4375,450.0781 112.75,451.1563 Q112.0625,452.2188 112.0625,454.3125 Q112.0625,456.4063 112.75,457.4844 Q113.4375,458.5469 114.7813,458.5469 Q115.4063,458.5469 116,458.2813 Q116.5938,458 117.2188,457.4219 L117.2188,460.1406 Z " fill="#000000"/><text fill="#000000" font-family="sans-serif" font-size="14" lengthAdjust="spacing" textLength="130" x="134.75" y="459.3467">ListUsersController</text><line style="stroke:#181818;stroke-width:0.5;" x1="8" x2="359" y1="470.5" y2="470.5"/><rect fill="none" height="6" style="stroke:#C82930;stroke-width:1.0;" width="6" x="15" y="481.1484"/><text fill="#000000" font-family="sans-serif" font-size="14" lengthAdjust="spacing" textLength="193" x="27" y="487.4951">authz : AuthorizationService</text><rect fill="none" height="6" style="stroke:#C82930;stroke-width:1.0;" width="6" x="15" y="497.4453"/><text fill="#000000" font-family="sans-serif" font-size="14" lengthAdjust="spacing" textLength="241" x="27" y="503.792">userSvc : UserManagementService</text><rect fill="none" height="6" style="stroke:#C82930;stroke-width:1.0;" width="6" x="15" y="513.7422"/><text fill="#000000" font-family="sans-serif" font-size="14" lengthAdjust="spacing" textLength="255" x="27" y="520.0889">filtService : FilteredUserListingService</text><line style="stroke:#181818;stroke-width:0.5;" x1="8" x2="359" y1="527.3906" y2="527.3906"/><ellipse cx="18" cy="541.0391" fill="#84BE84" rx="3" ry="3" style="stroke:#038048;stroke-width:1.0;"/><text fill="#000000" font-family="sans-serif" font-size="14" lengthAdjust="spacing" textLength="235" x="27" y="544.3857">allUsers() : Iterable&lt;SystemUser&gt;</text><ellipse cx="18" cy="557.3359" fill="#84BE84" rx="3" ry="3" style="stroke:#038048;stroke-width:1.0;"/><text fill="#000000" font-family="sans-serif" font-size="14" lengthAdjust="spacing" textLength="327" x="27" y="560.6826">find(final Username u) : Optional&lt;SystemUser&gt;</text><ellipse cx="18" cy="573.6328" fill="#84BE84" rx="3" ry="3" style="stroke:#038048;stroke-width:1.0;"/><text fill="#000000" font-family="sans-serif" font-size="14" lengthAdjust="spacing" textLength="292" x="27" y="576.9795">backOfficeusers() : Iterable&lt;SystemUser&gt;</text></g><!--class CandidateService--><g id="elem_CandidateService"><rect codeLine="28" fill="#F1F1F1" height="113.1875" id="CandidateService" rx="2.5" ry="2.5" style="stroke:#181818;stroke-width:0.5;" width="388" x="775.5" y="647"/><ellipse cx="905.25" cy="663" fill="#ADD1B2" rx="11" ry="11" style="stroke:#181818;stroke-width:1.0;"/><path d="M908.2188,668.6406 Q907.6406,668.9375 907,669.0781 Q906.3594,669.2344 905.6563,669.2344 Q903.1563,669.2344 901.8281,667.5938 Q900.5156,665.9375 900.5156,662.8125 Q900.5156,659.6875 901.8281,658.0313 Q903.1563,656.375 905.6563,656.375 Q906.3594,656.375 907,656.5313 Q907.6563,656.6875 908.2188,656.9844 L908.2188,659.7031 Q907.5938,659.125 907,658.8594 Q906.4063,658.5781 905.7813,658.5781 Q904.4375,658.5781 903.75,659.6563 Q903.0625,660.7188 903.0625,662.8125 Q903.0625,664.9063 903.75,665.9844 Q904.4375,667.0469 905.7813,667.0469 Q906.4063,667.0469 907,666.7813 Q907.5938,666.5 908.2188,665.9219 L908.2188,668.6406 Z " fill="#000000"/><text fill="#000000" font-family="sans-serif" font-size="14" lengthAdjust="spacing" textLength="120" x="925.75" y="667.8467">CandidateService</text><line style="stroke:#181818;stroke-width:0.5;" x1="776.5" x2="1162.5" y1="679" y2="679"/><rect fill="none" height="6" style="stroke:#C82930;stroke-width:1.0;" width="6" x="783.5" y="689.6484"/><text fill="#000000" font-family="sans-serif" font-size="14" lengthAdjust="spacing" textLength="193" x="795.5" y="695.9951">authz : AuthorizationService</text><rect fill="none" height="6" style="stroke:#C82930;stroke-width:1.0;" width="6" x="783.5" y="705.9453"/><text fill="#000000" font-family="sans-serif" font-size="14" lengthAdjust="spacing" textLength="190" x="795.5" y="712.292">repo : ClientUserRepository</text><ellipse cx="786.5" cy="725.2422" fill="none" rx="3" ry="3" style="stroke:#038048;stroke-width:1.0;"/><text fill="#000000" font-family="sans-serif" font-size="14" lengthAdjust="spacing" textLength="362" x="795.5" y="728.5889">findClientUserByMecNumber : Optional&lt;ClientUser&gt;</text><ellipse cx="786.5" cy="741.5391" fill="none" rx="3" ry="3" style="stroke:#038048;stroke-width:1.0;"/><text fill="#000000" font-family="sans-serif" font-size="14" lengthAdjust="spacing" textLength="349" x="795.5" y="744.8857">findClientUserByUsername : Optional&lt;ClientUser&gt;</text><line style="stroke:#181818;stroke-width:0.5;" x1="776.5" x2="1162.5" y1="752.1875" y2="752.1875"/></g><!--class CandidateFactory--><g id="elem_CandidateFactory"><rect codeLine="56" fill="#F1F1F1" height="129.4844" id="CandidateFactory" rx="2.5" ry="2.5" style="stroke:#181818;stroke-width:0.5;" width="333" x="1169" y="639"/><ellipse cx="1271.25" cy="655" fill="#ADD1B2" rx="11" ry="11" style="stroke:#181818;stroke-width:1.0;"/><path d="M1274.2188,660.6406 Q1273.6406,660.9375 1273,661.0781 Q1272.3594,661.2344 1271.6563,661.2344 Q1269.1563,661.2344 1267.8281,659.5938 Q1266.5156,657.9375 1266.5156,654.8125 Q1266.5156,651.6875 1267.8281,650.0313 Q1269.1563,648.375 1271.6563,648.375 Q1272.3594,648.375 1273,648.5313 Q1273.6563,648.6875 1274.2188,648.9844 L1274.2188,651.7031 Q1273.5938,651.125 1273,650.8594 Q1272.4063,650.5781 1271.7813,650.5781 Q1270.4375,650.5781 1269.75,651.6563 Q1269.0625,652.7188 1269.0625,654.8125 Q1269.0625,656.9063 1269.75,657.9844 Q1270.4375,659.0469 1271.7813,659.0469 Q1272.4063,659.0469 1273,658.7813 Q1273.5938,658.5 1274.2188,657.9219 L1274.2188,660.6406 Z " fill="#000000"/><text fill="#000000" font-family="sans-serif" font-size="14" lengthAdjust="spacing" textLength="120" x="1291.75" y="659.8467">CandidateFactory</text><line style="stroke:#181818;stroke-width:0.5;" x1="1170" x2="1501" y1="671" y2="671"/><rect fill="none" height="6" style="stroke:#C82930;stroke-width:1.0;" width="6" x="1177" y="681.6484"/><text fill="#000000" font-family="sans-serif" font-size="14" lengthAdjust="spacing" textLength="228" x="1189" y="687.9951">number : MecanographicNumber</text><rect fill="none" height="6" style="stroke:#C82930;stroke-width:1.0;" width="6" x="1177" y="697.9453"/><text fill="#000000" font-family="sans-serif" font-size="14" lengthAdjust="spacing" textLength="127" x="1189" y="704.292">user : SystemUser</text><line style="stroke:#181818;stroke-width:0.5;" x1="1170" x2="1501" y1="711.5938" y2="711.5938"/><ellipse cx="1180" cy="725.2422" fill="#84BE84" rx="3" ry="3" style="stroke:#038048;stroke-width:1.0;"/><text fill="#000000" font-family="sans-serif" font-size="14" lengthAdjust="spacing" textLength="285" x="1189" y="728.5889">newCandidate(user, number) : Candidate</text><ellipse cx="1180" cy="749.6875" fill="#84BE84" rx="3" ry="3" style="stroke:#038048;stroke-width:1.0;"/><text fill="#000000" font-family="sans-serif" font-size="14" lengthAdjust="spacing" textLength="241" x="1189" y="744.8857">createCandidate(SystemUser user,</text><text fill="#000000" font-family="sans-serif" font-size="14" lengthAdjust="spacing" textLength="307" x="1189" y="761.1826">MecanographicNumber number) : Candidate</text></g><!--class UserManagementService--><g id="elem_UserManagementService"><rect codeLine="41" fill="#F1F1F1" height="145.7813" id="UserManagementService" rx="2.5" ry="2.5" style="stroke:#181818;stroke-width:0.5;" width="246" x="255.5" y="798"/><ellipse cx="288.95" cy="814" fill="#ADD1B2" rx="11" ry="11" style="stroke:#181818;stroke-width:1.0;"/><path d="M291.9188,819.6406 Q291.3406,819.9375 290.7,820.0781 Q290.0594,820.2344 289.3563,820.2344 Q286.8563,820.2344 285.5281,818.5938 Q284.2156,816.9375 284.2156,813.8125 Q284.2156,810.6875 285.5281,809.0313 Q286.8563,807.375 289.3563,807.375 Q290.0594,807.375 290.7,807.5313 Q291.3563,807.6875 291.9188,807.9844 L291.9188,810.7031 Q291.2938,810.125 290.7,809.8594 Q290.1063,809.5781 289.4813,809.5781 Q288.1375,809.5781 287.45,810.6563 Q286.7625,811.7188 286.7625,813.8125 Q286.7625,815.9063 287.45,816.9844 Q288.1375,818.0469 289.4813,818.0469 Q290.1063,818.0469 290.7,817.7813 Q291.2938,817.5 291.9188,816.9219 L291.9188,819.6406 Z " fill="#000000"/><text fill="#000000" font-family="sans-serif" font-size="14" lengthAdjust="spacing" textLength="173" x="307.05" y="818.8467">UserManagementService</text><line style="stroke:#181818;stroke-width:0.5;" x1="256.5" x2="500.5" y1="830" y2="830"/><rect fill="none" height="6" style="stroke:#C82930;stroke-width:1.0;" width="6" x="263.5" y="840.6484"/><text fill="#000000" font-family="sans-serif" font-size="14" lengthAdjust="spacing" textLength="220" x="275.5" y="846.9951">userRepository: UserRepository</text><rect fill="none" height="6" style="stroke:#C82930;stroke-width:1.0;" width="6" x="263.5" y="856.9453"/><text fill="#000000" font-family="sans-serif" font-size="14" lengthAdjust="spacing" textLength="192" x="275.5" y="863.292">encoder: PasswordEncoder</text><rect fill="none" height="6" style="stroke:#C82930;stroke-width:1.0;" width="6" x="263.5" y="873.2422"/><text fill="#000000" font-family="sans-serif" font-size="14" lengthAdjust="spacing" textLength="154" x="275.5" y="879.5889">policy: PasswordPolicy</text><line style="stroke:#181818;stroke-width:0.5;" x1="256.5" x2="500.5" y1="886.8906" y2="886.8906"/><ellipse cx="266.5" cy="900.5391" fill="#84BE84" rx="3" ry="3" style="stroke:#038048;stroke-width:1.0;"/><text fill="#000000" font-family="sans-serif" font-size="14" lengthAdjust="spacing" textLength="125" x="275.5" y="903.8857">registerNewUser()</text><ellipse cx="266.5" cy="916.8359" fill="#84BE84" rx="3" ry="3" style="stroke:#038048;stroke-width:1.0;"/><text fill="#000000" font-family="sans-serif" font-size="14" lengthAdjust="spacing" textLength="64" x="275.5" y="920.1826">allUsers()</text><ellipse cx="266.5" cy="933.1328" fill="#84BE84" rx="3" ry="3" style="stroke:#038048;stroke-width:1.0;"/><text fill="#000000" font-family="sans-serif" font-size="14" lengthAdjust="spacing" textLength="106" x="275.5" y="936.4795">userOfIdentity()</text></g><!--class UserRepository--><g id="elem_UserRepository"><rect codeLine="50" fill="#F1F1F1" height="48" id="UserRepository" rx="2.5" ry="2.5" style="stroke:#181818;stroke-width:0.5;" width="138" x="552.5" y="1151.5"/><ellipse cx="567.5" cy="1167.5" fill="#ADD1B2" rx="11" ry="11" style="stroke:#181818;stroke-width:1.0;"/><path d="M570.4688,1173.1406 Q569.8906,1173.4375 569.25,1173.5781 Q568.6094,1173.7344 567.9063,1173.7344 Q565.4063,1173.7344 564.0781,1172.0938 Q562.7656,1170.4375 562.7656,1167.3125 Q562.7656,1164.1875 564.0781,1162.5313 Q565.4063,1160.875 567.9063,1160.875 Q568.6094,1160.875 569.25,1161.0313 Q569.9063,1161.1875 570.4688,1161.4844 L570.4688,1164.2031 Q569.8438,1163.625 569.25,1163.3594 Q568.6563,1163.0781 568.0313,1163.0781 Q566.6875,1163.0781 566,1164.1563 Q565.3125,1165.2188 565.3125,1167.3125 Q565.3125,1169.4063 566,1170.4844 Q566.6875,1171.5469 568.0313,1171.5469 Q568.6563,1171.5469 569.25,1171.2813 Q569.8438,1171 570.4688,1170.4219 L570.4688,1173.1406 Z " fill="#000000"/><text fill="#000000" font-family="sans-serif" font-size="14" lengthAdjust="spacing" textLength="106" x="581.5" y="1172.3467">UserRepository</text><line style="stroke:#181818;stroke-width:0.5;" x1="553.5" x2="689.5" y1="1183.5" y2="1183.5"/><line style="stroke:#181818;stroke-width:0.5;" x1="553.5" x2="689.5" y1="1191.5" y2="1191.5"/></g><!--class CandidateRepository--><g id="elem_CandidateRepository"><rect codeLine="53" fill="#F1F1F1" height="48" id="CandidateRepository" rx="2.5" ry="2.5" style="stroke:#181818;stroke-width:0.5;" width="176" x="881.5" y="1151.5"/><ellipse cx="896.5" cy="1167.5" fill="#ADD1B2" rx="11" ry="11" style="stroke:#181818;stroke-width:1.0;"/><path d="M899.4688,1173.1406 Q898.8906,1173.4375 898.25,1173.5781 Q897.6094,1173.7344 896.9063,1173.7344 Q894.4063,1173.7344 893.0781,1172.0938 Q891.7656,1170.4375 891.7656,1167.3125 Q891.7656,1164.1875 893.0781,1162.5313 Q894.4063,1160.875 896.9063,1160.875 Q897.6094,1160.875 898.25,1161.0313 Q898.9063,1161.1875 899.4688,1161.4844 L899.4688,1164.2031 Q898.8438,1163.625 898.25,1163.3594 Q897.6563,1163.0781 897.0313,1163.0781 Q895.6875,1163.0781 895,1164.1563 Q894.3125,1165.2188 894.3125,1167.3125 Q894.3125,1169.4063 895,1170.4844 Q895.6875,1171.5469 897.0313,1171.5469 Q897.6563,1171.5469 898.25,1171.2813 Q898.8438,1171 899.4688,1170.4219 L899.4688,1173.1406 Z " fill="#000000"/><text fill="#000000" font-family="sans-serif" font-size="14" lengthAdjust="spacing" textLength="144" x="910.5" y="1172.3467">CandidateRepository</text><line style="stroke:#181818;stroke-width:0.5;" x1="882.5" x2="1056.5" y1="1183.5" y2="1183.5"/><line style="stroke:#181818;stroke-width:0.5;" x1="882.5" x2="1056.5" y1="1191.5" y2="1191.5"/></g><!--class RegisterCandidateController--><g id="elem_RegisterCandidateController"><rect codeLine="60" fill="#F1F1F1" height="64.2969" id="RegisterCandidateController" rx="2.5" ry="2.5" style="stroke:#181818;stroke-width:0.5;" width="402" x="919.5" y="273"/><ellipse cx="1018.75" cy="289" fill="#ADD1B2" rx="11" ry="11" style="stroke:#181818;stroke-width:1.0;"/><path d="M1021.7188,294.6406 Q1021.1406,294.9375 1020.5,295.0781 Q1019.8594,295.2344 1019.1563,295.2344 Q1016.6563,295.2344 1015.3281,293.5938 Q1014.0156,291.9375 1014.0156,288.8125 Q1014.0156,285.6875 1015.3281,284.0313 Q1016.6563,282.375 1019.1563,282.375 Q1019.8594,282.375 1020.5,282.5313 Q1021.1563,282.6875 1021.7188,282.9844 L1021.7188,285.7031 Q1021.0938,285.125 1020.5,284.8594 Q1019.9063,284.5781 1019.2813,284.5781 Q1017.9375,284.5781 1017.25,285.6563 Q1016.5625,286.7188 1016.5625,288.8125 Q1016.5625,290.9063 1017.25,291.9844 Q1017.9375,293.0469 1019.2813,293.0469 Q1019.9063,293.0469 1020.5,292.7813 Q1021.0938,292.5 1021.7188,291.9219 L1021.7188,294.6406 Z " fill="#000000"/><text fill="#000000" font-family="sans-serif" font-size="14" lengthAdjust="spacing" textLength="195" x="1039.25" y="293.8467">RegisterCandidateController</text><line style="stroke:#181818;stroke-width:0.5;" x1="920.5" x2="1320.5" y1="305" y2="305"/><line style="stroke:#181818;stroke-width:0.5;" x1="920.5" x2="1320.5" y1="313" y2="313"/><ellipse cx="930.5" cy="326.6484" fill="#84BE84" rx="3" ry="3" style="stroke:#038048;stroke-width:1.0;"/><text fill="#000000" font-family="sans-serif" font-size="14" lengthAdjust="spacing" textLength="376" x="939.5" y="329.9951">registerCandidate(number, email, firstName, lastName)</text></g><!--class PasswordGeneratorService--><g id="elem_PasswordGeneratorService"><rect codeLine="68" fill="#F1F1F1" height="64.2969" id="PasswordGeneratorService" rx="2.5" ry="2.5" style="stroke:#181818;stroke-width:0.5;" width="226" x="786.5" y="479.5"/><ellipse cx="804.65" cy="495.5" fill="#ADD1B2" rx="11" ry="11" style="stroke:#181818;stroke-width:1.0;"/><path d="M807.6188,501.1406 Q807.0406,501.4375 806.4,501.5781 Q805.7594,501.7344 805.0563,501.7344 Q802.5563,501.7344 801.2281,500.0938 Q799.9156,498.4375 799.9156,495.3125 Q799.9156,492.1875 801.2281,490.5313 Q802.5563,488.875 805.0563,488.875 Q805.7594,488.875 806.4,489.0313 Q807.0563,489.1875 807.6188,489.4844 L807.6188,492.2031 Q806.9938,491.625 806.4,491.3594 Q805.8063,491.0781 805.1813,491.0781 Q803.8375,491.0781 803.15,492.1563 Q802.4625,493.2188 802.4625,495.3125 Q802.4625,497.4063 803.15,498.4844 Q803.8375,499.5469 805.1813,499.5469 Q805.8063,499.5469 806.4,499.2813 Q806.9938,499 807.6188,498.4219 L807.6188,501.1406 Z " fill="#000000"/><text fill="#000000" font-family="sans-serif" font-size="14" lengthAdjust="spacing" textLength="187" x="819.35" y="500.3467">PasswordGeneratorService</text><line style="stroke:#181818;stroke-width:0.5;" x1="787.5" x2="1011.5" y1="511.5" y2="511.5"/><line style="stroke:#181818;stroke-width:0.5;" x1="787.5" x2="1011.5" y1="519.5" y2="519.5"/><ellipse cx="797.5" cy="533.1484" fill="#84BE84" rx="3" ry="3" style="stroke:#038048;stroke-width:1.0;"/><text fill="#000000" font-family="sans-serif" font-size="14" lengthAdjust="spacing" textLength="200" x="806.5" y="536.4951">generateModeledPassword()</text></g><!--class RegisterCandidateUI--><g id="elem_RegisterCandidateUI"><rect codeLine="71" fill="#F1F1F1" height="48" id="RegisterCandidateUI" rx="2.5" ry="2.5" style="stroke:#181818;stroke-width:0.5;" width="173" x="1262" y="148"/><ellipse cx="1277" cy="164" fill="#ADD1B2" rx="11" ry="11" style="stroke:#181818;stroke-width:1.0;"/><path d="M1279.9688,169.6406 Q1279.3906,169.9375 1278.75,170.0781 Q1278.1094,170.2344 1277.4063,170.2344 Q1274.9063,170.2344 1273.5781,168.5938 Q1272.2656,166.9375 1272.2656,163.8125 Q1272.2656,160.6875 1273.5781,159.0313 Q1274.9063,157.375 1277.4063,157.375 Q1278.1094,157.375 1278.75,157.5313 Q1279.4063,157.6875 1279.9688,157.9844 L1279.9688,160.7031 Q1279.3438,160.125 1278.75,159.8594 Q1278.1563,159.5781 1277.5313,159.5781 Q1276.1875,159.5781 1275.5,160.6563 Q1274.8125,161.7188 1274.8125,163.8125 Q1274.8125,165.9063 1275.5,166.9844 Q1276.1875,168.0469 1277.5313,168.0469 Q1278.1563,168.0469 1278.75,167.7813 Q1279.3438,167.5 1279.9688,166.9219 L1279.9688,169.6406 Z " fill="#000000"/><text fill="#000000" font-family="sans-serif" font-size="14" lengthAdjust="spacing" textLength="141" x="1291" y="168.8467">RegisterCandidateUI</text><line style="stroke:#181818;stroke-width:0.5;" x1="1263" x2="1434" y1="180" y2="180"/><line style="stroke:#181818;stroke-width:0.5;" x1="1263" x2="1434" y1="188" y2="188"/></g><!--class ListRolesService--><g id="elem_ListRolesService"><rect codeLine="74" fill="#F1F1F1" height="64.2969" id="ListRolesService" rx="2.5" ry="2.5" style="stroke:#181818;stroke-width:0.5;" width="145" x="1048" y="479.5"/><ellipse cx="1063.45" cy="495.5" fill="#ADD1B2" rx="11" ry="11" style="stroke:#181818;stroke-width:1.0;"/><path d="M1066.4188,501.1406 Q1065.8406,501.4375 1065.2,501.5781 Q1064.5594,501.7344 1063.8563,501.7344 Q1061.3563,501.7344 1060.0281,500.0938 Q1058.7156,498.4375 1058.7156,495.3125 Q1058.7156,492.1875 1060.0281,490.5313 Q1061.3563,488.875 1063.8563,488.875 Q1064.5594,488.875 1065.2,489.0313 Q1065.8563,489.1875 1066.4188,489.4844 L1066.4188,492.2031 Q1065.7938,491.625 1065.2,491.3594 Q1064.6063,491.0781 1063.9813,491.0781 Q1062.6375,491.0781 1061.95,492.1563 Q1061.2625,493.2188 1061.2625,495.3125 Q1061.2625,497.4063 1061.95,498.4844 Q1062.6375,499.5469 1063.9813,499.5469 Q1064.6063,499.5469 1065.2,499.2813 Q1065.7938,499 1066.4188,498.4219 L1066.4188,501.1406 Z " fill="#000000"/><text fill="#000000" font-family="sans-serif" font-size="14" lengthAdjust="spacing" textLength="112" x="1077.55" y="500.3467">ListRolesService</text><line style="stroke:#181818;stroke-width:0.5;" x1="1049" x2="1192" y1="511.5" y2="511.5"/><line style="stroke:#181818;stroke-width:0.5;" x1="1049" x2="1192" y1="519.5" y2="519.5"/><ellipse cx="1059" cy="533.1484" fill="#84BE84" rx="3" ry="3" style="stroke:#038048;stroke-width:1.0;"/><text fill="#000000" font-family="sans-serif" font-size="14" lengthAdjust="spacing" textLength="119" x="1068" y="536.4951">listSystemRoles()</text></g><!--class SystemUserBuilder--><g id="elem_SystemUserBuilder"><rect codeLine="78" fill="#F1F1F1" height="308.75" id="SystemUserBuilder" rx="2.5" ry="2.5" style="stroke:#181818;stroke-width:0.5;" width="218" x="269.5" y="1021"/><ellipse cx="309.25" cy="1037" fill="#ADD1B2" rx="11" ry="11" style="stroke:#181818;stroke-width:1.0;"/><path d="M312.2188,1042.6406 Q311.6406,1042.9375 311,1043.0781 Q310.3594,1043.2344 309.6563,1043.2344 Q307.1563,1043.2344 305.8281,1041.5938 Q304.5156,1039.9375 304.5156,1036.8125 Q304.5156,1033.6875 305.8281,1032.0313 Q307.1563,1030.375 309.6563,1030.375 Q310.3594,1030.375 311,1030.5313 Q311.6563,1030.6875 312.2188,1030.9844 L312.2188,1033.7031 Q311.5938,1033.125 311,1032.8594 Q310.4063,1032.5781 309.7813,1032.5781 Q308.4375,1032.5781 307.75,1033.6563 Q307.0625,1034.7188 307.0625,1036.8125 Q307.0625,1038.9063 307.75,1039.9844 Q308.4375,1041.0469 309.7813,1041.0469 Q310.4063,1041.0469 311,1040.7813 Q311.5938,1040.5 312.2188,1039.9219 L312.2188,1042.6406 Z " fill="#000000"/><text fill="#000000" font-family="sans-serif" font-size="14" lengthAdjust="spacing" textLength="131" x="328.75" y="1041.8467">SystemUserBuilder</text><line style="stroke:#181818;stroke-width:0.5;" x1="270.5" x2="486.5" y1="1053" y2="1053"/><rect fill="none" height="6" style="stroke:#C82930;stroke-width:1.0;" width="6" x="277.5" y="1063.6484"/><text fill="#000000" font-family="sans-serif" font-size="14" lengthAdjust="spacing" textLength="150" x="289.5" y="1069.9951">username: Username</text><rect fill="none" height="6" style="stroke:#C82930;stroke-width:1.0;" width="6" x="277.5" y="1079.9453"/><text fill="#000000" font-family="sans-serif" font-size="14" lengthAdjust="spacing" textLength="143" x="289.5" y="1086.292">password: Password</text><rect fill="none" height="6" style="stroke:#C82930;stroke-width:1.0;" width="6" x="277.5" y="1096.2422"/><text fill="#000000" font-family="sans-serif" font-size="14" lengthAdjust="spacing" textLength="88" x="289.5" y="1102.5889">name: Name</text><rect fill="none" height="6" style="stroke:#C82930;stroke-width:1.0;" width="6" x="277.5" y="1112.5391"/><text fill="#000000" font-family="sans-serif" font-size="14" lengthAdjust="spacing" textLength="138" x="289.5" y="1118.8857">email: EmailAddress</text><rect fill="none" height="6" style="stroke:#C82930;stroke-width:1.0;" width="6" x="277.5" y="1128.8359"/><text fill="#000000" font-family="sans-serif" font-size="14" lengthAdjust="spacing" textLength="143" x="289.5" y="1135.1826">createdOn: Calendar</text><rect fill="none" height="6" style="stroke:#C82930;stroke-width:1.0;" width="6" x="277.5" y="1145.1328"/><text fill="#000000" font-family="sans-serif" font-size="14" lengthAdjust="spacing" textLength="97" x="289.5" y="1151.4795">roles: RoleSet</text><rect fill="none" height="6" style="stroke:#C82930;stroke-width:1.0;" width="6" x="277.5" y="1161.4297"/><text fill="#000000" font-family="sans-serif" font-size="14" lengthAdjust="spacing" textLength="154" x="289.5" y="1167.7764">policy: PasswordPolicy</text><rect fill="none" height="6" style="stroke:#C82930;stroke-width:1.0;" width="6" x="277.5" y="1177.7266"/><text fill="#000000" font-family="sans-serif" font-size="14" lengthAdjust="spacing" textLength="192" x="289.5" y="1184.0732">encoder: PasswordEncoder</text><line style="stroke:#181818;stroke-width:0.5;" x1="270.5" x2="486.5" y1="1191.375" y2="1191.375"/><ellipse cx="280.5" cy="1205.0234" fill="#84BE84" rx="3" ry="3" style="stroke:#038048;stroke-width:1.0;"/><text fill="#000000" font-family="sans-serif" font-size="14" lengthAdjust="spacing" textLength="38" x="289.5" y="1208.3701">with()</text><ellipse cx="280.5" cy="1221.3203" fill="#84BE84" rx="3" ry="3" style="stroke:#038048;stroke-width:1.0;"/><text fill="#000000" font-family="sans-serif" font-size="14" lengthAdjust="spacing" textLength="109" x="289.5" y="1224.667">withUsername()</text><ellipse cx="280.5" cy="1237.6172" fill="#84BE84" rx="3" ry="3" style="stroke:#038048;stroke-width:1.0;"/><text fill="#000000" font-family="sans-serif" font-size="14" lengthAdjust="spacing" textLength="105" x="289.5" y="1240.9639">withPassword()</text><ellipse cx="280.5" cy="1253.9141" fill="#84BE84" rx="3" ry="3" style="stroke:#038048;stroke-width:1.0;"/><text fill="#000000" font-family="sans-serif" font-size="14" lengthAdjust="spacing" textLength="78" x="289.5" y="1257.2607">withName()</text><ellipse cx="280.5" cy="1270.2109" fill="#84BE84" rx="3" ry="3" style="stroke:#038048;stroke-width:1.0;"/><text fill="#000000" font-family="sans-serif" font-size="14" lengthAdjust="spacing" textLength="74" x="289.5" y="1273.5576">withEmail()</text><ellipse cx="280.5" cy="1286.5078" fill="#84BE84" rx="3" ry="3" style="stroke:#038048;stroke-width:1.0;"/><text fill="#000000" font-family="sans-serif" font-size="14" lengthAdjust="spacing" textLength="77" x="289.5" y="1289.8545">withRoles()</text><ellipse cx="280.5" cy="1302.8047" fill="#84BE84" rx="3" ry="3" style="stroke:#038048;stroke-width:1.0;"/><text fill="#000000" font-family="sans-serif" font-size="14" lengthAdjust="spacing" textLength="83" x="289.5" y="1306.1514">createdOn()</text><ellipse cx="280.5" cy="1319.1016" fill="#84BE84" rx="3" ry="3" style="stroke:#038048;stroke-width:1.0;"/><text fill="#000000" font-family="sans-serif" font-size="14" lengthAdjust="spacing" textLength="43" x="289.5" y="1322.4482">build()</text></g><!--class CandidateDTO--><g id="elem_CandidateDTO"><rect codeLine="97" fill="#F1F1F1" height="194.6719" id="CandidateDTO" rx="2.5" ry="2.5" style="stroke:#181818;stroke-width:0.5;" width="245" x="1389" y="414"/><ellipse cx="1456.75" cy="430" fill="#ADD1B2" rx="11" ry="11" style="stroke:#181818;stroke-width:1.0;"/><path d="M1459.7188,435.6406 Q1459.1406,435.9375 1458.5,436.0781 Q1457.8594,436.2344 1457.1563,436.2344 Q1454.6563,436.2344 1453.3281,434.5938 Q1452.0156,432.9375 1452.0156,429.8125 Q1452.0156,426.6875 1453.3281,425.0313 Q1454.6563,423.375 1457.1563,423.375 Q1457.8594,423.375 1458.5,423.5313 Q1459.1563,423.6875 1459.7188,423.9844 L1459.7188,426.7031 Q1459.0938,426.125 1458.5,425.8594 Q1457.9063,425.5781 1457.2813,425.5781 Q1455.9375,425.5781 1455.25,426.6563 Q1454.5625,427.7188 1454.5625,429.8125 Q1454.5625,431.9063 1455.25,432.9844 Q1455.9375,434.0469 1457.2813,434.0469 Q1457.9063,434.0469 1458.5,433.7813 Q1459.0938,433.5 1459.7188,432.9219 L1459.7188,435.6406 Z " fill="#000000"/><text fill="#000000" font-family="sans-serif" font-size="14" lengthAdjust="spacing" textLength="101" x="1477.25" y="434.8467">CandidateDTO</text><line style="stroke:#181818;stroke-width:0.5;" x1="1390" x2="1633" y1="446" y2="446"/><rect fill="none" height="6" style="stroke:#C82930;stroke-width:1.0;" width="6" x="1397" y="456.6484"/><text fill="#000000" font-family="sans-serif" font-size="14" lengthAdjust="spacing" textLength="109" x="1409" y="462.9951">String firstName</text><rect fill="none" height="6" style="stroke:#C82930;stroke-width:1.0;" width="6" x="1397" y="472.9453"/><text fill="#000000" font-family="sans-serif" font-size="14" lengthAdjust="spacing" textLength="108" x="1409" y="479.292">String lastName</text><rect fill="none" height="6" style="stroke:#C82930;stroke-width:1.0;" width="6" x="1397" y="489.2422"/><text fill="#000000" font-family="sans-serif" font-size="14" lengthAdjust="spacing" textLength="137" x="1409" y="495.5889">String EmailAddress</text><rect fill="none" height="6" style="stroke:#C82930;stroke-width:1.0;" width="6" x="1397" y="505.5391"/><text fill="#000000" font-family="sans-serif" font-size="14" lengthAdjust="spacing" textLength="219" x="1409" y="511.8857">MecanographicNumber number</text><line style="stroke:#181818;stroke-width:0.5;" x1="1390" x2="1633" y1="519.1875" y2="519.1875"/><ellipse cx="1400" cy="532.8359" fill="#84BE84" rx="3" ry="3" style="stroke:#038048;stroke-width:1.0;"/><text fill="#000000" font-family="sans-serif" font-size="14" lengthAdjust="spacing" textLength="64" x="1409" y="536.1826">toString()</text><ellipse cx="1400" cy="549.1328" fill="#84BE84" rx="3" ry="3" style="stroke:#038048;stroke-width:1.0;"/><text fill="#000000" font-family="sans-serif" font-size="14" lengthAdjust="spacing" textLength="102" x="1409" y="552.4795">getFirstName()</text><ellipse cx="1400" cy="565.4297" fill="#84BE84" rx="3" ry="3" style="stroke:#038048;stroke-width:1.0;"/><text fill="#000000" font-family="sans-serif" font-size="14" lengthAdjust="spacing" textLength="101" x="1409" y="568.7764">getLastName()</text><ellipse cx="1400" cy="581.7266" fill="#84BE84" rx="3" ry="3" style="stroke:#038048;stroke-width:1.0;"/><text fill="#000000" font-family="sans-serif" font-size="14" lengthAdjust="spacing" textLength="126" x="1409" y="585.0732">getEmailAddress()</text><ellipse cx="1400" cy="598.0234" fill="#84BE84" rx="3" ry="3" style="stroke:#038048;stroke-width:1.0;"/><text fill="#000000" font-family="sans-serif" font-size="14" lengthAdjust="spacing" textLength="88" x="1409" y="601.3701">getNumber()</text></g><!--link OperatorUI to RegisterCandidateUI--><g id="link_OperatorUI_RegisterCandidateUI"><path codeLine="109" d="M1348.5,71.05 C1348.5,94.65 1348.5,120.6 1348.5,141.97 " fill="none" id="OperatorUI-to-RegisterCandidateUI" style="stroke:#181818;stroke-width:1.0;stroke-dasharray:7.0,7.0;"/><polygon fill="#181818" points="1348.5,147.97,1352.5,138.97,1348.5,142.97,1344.5,138.97,1348.5,147.97" style="stroke:#181818;stroke-width:1.0;"/><text fill="#000000" font-family="sans-serif" font-size="13" lengthAdjust="spacing" textLength="124" x="1349.5" y="114.0669">registerCandidate()</text></g><!--link RegisterCandidateUI to RegisterCandidateController--><g id="link_RegisterCandidateUI_RegisterCandidateController"><path codeLine="110" d="M1308.26,196.12 C1271.06,217.49 1220.6924,246.4309 1179.6524,270.0109 " fill="none" id="RegisterCandidateUI-to-RegisterCandidateController" style="stroke:#181818;stroke-width:1.0;stroke-dasharray:7.0,7.0;"/><polygon fill="#181818" points="1174.45,273,1184.2464,271.9846,1178.7854,270.5091,1180.2609,265.048,1174.45,273" style="stroke:#181818;stroke-width:1.0;"/><text fill="#000000" font-family="sans-serif" font-size="13" lengthAdjust="spacing" textLength="51" x="1256.5" y="239.0669">create()</text></g><!--link RegisterCandidateUI to CandidateDTO--><g id="link_RegisterCandidateUI_CandidateDTO"><path codeLine="111" d="M1359.7,196.2 C1381.03,240.35 1425.9504,333.3672 1462.1904,408.3972 " fill="none" id="RegisterCandidateUI-to-CandidateDTO" style="stroke:#181818;stroke-width:1.0;stroke-dasharray:7.0,7.0;"/><polygon fill="#181818" points="1464.8,413.8,1464.4875,403.9561,1462.6253,409.2977,1457.2838,407.4355,1464.8,413.8" style="stroke:#181818;stroke-width:1.0;"/></g><!--link RegisterCandidateController to PersistenceContext--><g id="link_RegisterCandidateController_PersistenceContext"><path codeLine="112" d="M965.06,337.08 C901.35,353.96 828.61,378.77 768.5,414 C739.42,431.05 716.1375,453.5556 697.2775,474.6656 " fill="none" id="RegisterCandidateController-to-PersistenceContext" style="stroke:#181818;stroke-width:1.0;stroke-dasharray:7.0,7.0;"/><polygon fill="#181818" points="693.28,479.14,702.2591,475.0934,696.6112,475.4113,696.2933,469.7634,693.28,479.14" style="stroke:#181818;stroke-width:1.0;"/><text fill="#000000" font-family="sans-serif" font-size="13" lengthAdjust="spacing" textLength="85" x="870.5" y="380.0669">repositories()</text></g><!--link RegisterCandidateController to PasswordGeneratorService--><g id="link_RegisterCandidateController_PasswordGeneratorService"><path codeLine="113" d="M1086.93,337.06 C1045.28,375.61 979.0644,436.8856 937.4244,475.4056 " fill="none" id="RegisterCandidateController-to-PasswordGeneratorService" style="stroke:#181818;stroke-width:1.0;stroke-dasharray:7.0,7.0;"/><polygon fill="#181818" points="933.02,479.48,942.3429,476.3047,936.6904,476.0846,936.9104,470.4321,933.02,479.48" style="stroke:#181818;stroke-width:1.0;"/></g><!--link RegisterCandidateController to UserManagementService--><g id="link_RegisterCandidateController_UserManagementService"><path codeLine="114" d="M919.26,312.1 C744.86,321.91 510.83,347.46 447.5,414 C338.37,528.65 439.62,612.8 408.5,768 C406.54,777.77 405.6178,782.1631 402.9478,792.1631 " fill="none" id="RegisterCandidateController-to-UserManagementService" style="stroke:#181818;stroke-width:1.0;stroke-dasharray:7.0,7.0;"/><polygon fill="#181818" points="401.4,797.96,407.5863,790.2965,402.6898,793.1292,399.8571,788.2328,401.4,797.96" style="stroke:#181818;stroke-width:1.0;"/><text fill="#000000" font-family="sans-serif" font-size="13" lengthAdjust="spacing" textLength="116" x="448.5" y="516.0669">registerNewUser()</text></g><!--link RegisterCandidateController to CandidateFactory--><g id="link_RegisterCandidateController_CandidateFactory"><path codeLine="115" d="M1270.21,337.2 C1283.66,345.04 1295.83,354.81 1305.5,367 C1366.75,444.19 1361.2973,559.1921 1349.7773,632.8321 " fill="none" id="RegisterCandidateController-to-CandidateFactory" style="stroke:#181818;stroke-width:1.0;stroke-dasharray:7.0,7.0;"/><polygon fill="#181818" points="1348.85,638.76,1354.1929,630.4864,1349.6228,633.8201,1346.2891,629.2499,1348.85,638.76" style="stroke:#181818;stroke-width:1.0;"/></g><!--link RegisterCandidateController to ListRolesService--><g id="link_RegisterCandidateController_ListRolesService"><path codeLine="116" d="M1120.5,337.06 C1120.5,375.61 1120.5,434.96 1120.5,473.48 " fill="none" id="RegisterCandidateController-to-ListRolesService" style="stroke:#181818;stroke-width:1.0;stroke-dasharray:7.0,7.0;"/><polygon fill="#181818" points="1120.5,479.48,1124.5,470.48,1120.5,474.48,1116.5,470.48,1120.5,479.48" style="stroke:#181818;stroke-width:1.0;"/></g><!--link RegisterCandidateController to ListUsersController--><g id="link_RegisterCandidateController_ListUsersController"><path codeLine="117" d="M919.19,309.52 C731.45,315.11 466.26,329.57 369.5,367 C328.23,382.96 293.1039,407.2868 261.0539,434.4968 " fill="none" id="RegisterCandidateController-to-ListUsersController" style="stroke:#181818;stroke-width:1.0;stroke-dasharray:7.0,7.0;"/><polygon fill="#181818" points="256.48,438.38,265.9297,435.6045,260.2916,435.144,260.7521,429.5059,256.48,438.38" style="stroke:#181818;stroke-width:1.0;"/><text fill="#000000" font-family="sans-serif" font-size="13" lengthAdjust="spacing" textLength="33" x="370.5" y="380.0669">find()</text></g><!--link RegisterCandidateController to CandidateService--><g id="link_RegisterCandidateController_CandidateService"><path codeLine="118" d="M1156.6,337.05 C1176.66,356.78 1199.7,384.17 1210.5,414 C1240,495.49 1259.46,537.49 1210.5,609 C1204.68,617.49 1177.6881,629.7771 1138.2481,644.7771 " fill="none" id="RegisterCandidateController-to-CandidateService" style="stroke:#181818;stroke-width:1.0;stroke-dasharray:7.0,7.0;"/><polygon fill="#181818" points="1132.64,646.91,1142.4741,647.4494,1137.3134,645.1326,1139.6302,639.9719,1132.64,646.91" style="stroke:#181818;stroke-width:1.0;"/><text fill="#000000" font-family="sans-serif" font-size="13" lengthAdjust="spacing" textLength="101" x="1195.5" y="380.0669">findByNumber()</text></g><!--link RegisterCandidateController to CandidateDTO--><g id="link_RegisterCandidateController_CandidateDTO"><path codeLine="119" d="M1290.05,337.07 C1314.83,344.95 1339.41,354.77 1361.5,367 C1384.04,379.48 1401.2459,392.1599 1420.7459,409.7599 " fill="none" id="RegisterCandidateController-to-CandidateDTO" style="stroke:#181818;stroke-width:1.0;stroke-dasharray:7.0,7.0;"/><polygon fill="#181818" points="1425.2,413.78,1421.1989,404.7805,1421.4883,410.4299,1415.8388,410.7192,1425.2,413.78" style="stroke:#181818;stroke-width:1.0;"/></g><!--link CandidateService to CandidateRepository--><g id="link_CandidateService_CandidateRepository"><path codeLine="120" d="M969.5,760.26 C969.5,863.36 969.5,1073.78 969.5,1145.13 " fill="none" id="CandidateService-to-CandidateRepository" style="stroke:#181818;stroke-width:1.0;stroke-dasharray:7.0,7.0;"/><polygon fill="#181818" points="969.5,1151.13,973.5,1142.13,969.5,1146.13,965.5,1142.13,969.5,1151.13" style="stroke:#181818;stroke-width:1.0;"/><text fill="#000000" font-family="sans-serif" font-size="13" lengthAdjust="spacing" textLength="69" x="970.5" y="875.5669">ofIdentity()</text></g><!--link CandidateFactory to CandidateRepository--><g id="link_CandidateFactory_CandidateRepository"><path codeLine="121" d="M1285.76,768.38 C1203.28,874.29 1045.6066,1076.7762 991.4266,1146.3462 " fill="none" id="CandidateFactory-to-CandidateRepository" style="stroke:#181818;stroke-width:1.0;stroke-dasharray:7.0,7.0;"/><polygon fill="#181818" points="987.74,1151.08,996.4258,1146.437,990.8122,1147.1352,990.114,1141.5216,987.74,1151.08" style="stroke:#181818;stroke-width:1.0;"/></g><!--link ListUsersController to UserManagementService--><g id="link_ListUsersController_UserManagementService"><path codeLine="122" d="M212.89,584.62 C235.25,636.88 268.12,708.51 303.5,768 C309.4,777.92 312.6145,783.127 319.4345,792.977 " fill="none" id="ListUsersController-to-UserManagementService" style="stroke:#181818;stroke-width:1.0;stroke-dasharray:7.0,7.0;"/><polygon fill="#181818" points="322.85,797.91,321.0154,788.2335,320.0037,793.7992,314.4381,792.7876,322.85,797.91" style="stroke:#181818;stroke-width:1.0;"/><text fill="#000000" font-family="sans-serif" font-size="13" lengthAdjust="spacing" textLength="99" x="304.5" y="708.0669">userOfIdentity()</text></g><!--link PersistenceContext to RepositoryFactory--><g id="link_PersistenceContext_RepositoryFactory"><path codeLine="123" d="M670.46,543.6 C676.01,601.95 687.5117,722.947 694.8617,800.197 " fill="none" id="PersistenceContext-to-RepositoryFactory" style="stroke:#181818;stroke-width:1.0;"/><polygon fill="#181818" points="695.43,806.17,698.5596,796.8316,694.9564,801.1925,690.5955,797.5893,695.43,806.17" style="stroke:#181818;stroke-width:1.0;"/><text fill="#000000" font-family="sans-serif" font-size="13" lengthAdjust="spacing" textLength="51" x="692.5" y="708.0669">create()</text></g><!--link RepositoryFactory to UserRepository--><g id="link_RepositoryFactory_UserRepository"><path codeLine="124" d="M669.86,935.51 C664.48,948.05 659.38,961.27 655.5,974 C636.46,1036.48 627.7606,1107.3882 624.0806,1145.2382 " fill="none" id="RepositoryFactory-to-UserRepository" style="stroke:#181818;stroke-width:1.0;"/><polygon fill="#181818" points="623.5,1151.21,628.3522,1142.6393,623.9838,1146.2335,620.3897,1141.8652,623.5,1151.21" style="stroke:#181818;stroke-width:1.0;"/><text fill="#000000" font-family="sans-serif" font-size="13" lengthAdjust="spacing" textLength="51" x="656.5" y="987.0669">create()</text></g><!--link RepositoryFactory to CandidateRepository--><g id="link_RepositoryFactory_CandidateRepository"><path codeLine="125" d="M758.01,935.78 C817.75,1003.21 904.8108,1101.4893 945.1108,1146.9693 " fill="none" id="RepositoryFactory-to-CandidateRepository" style="stroke:#181818;stroke-width:1.0;"/><polygon fill="#181818" points="949.09,1151.46,946.115,1142.0712,945.774,1147.7178,940.1274,1147.3768,949.09,1151.46" style="stroke:#181818;stroke-width:1.0;"/><text fill="#000000" font-family="sans-serif" font-size="13" lengthAdjust="spacing" textLength="51" x="805.5" y="987.0669">create()</text></g><!--link UserManagementService to UserRepository--><g id="link_UserManagementService_UserRepository"><path codeLine="126" d="M440.77,944.14 C461.33,968.35 484.14,995.64 504.5,1021 C541.01,1066.46 578.3652,1116.2212 600.8352,1146.5112 " fill="none" id="UserManagementService-to-UserRepository" style="stroke:#181818;stroke-width:1.0;"/><polygon fill="#181818" points="604.41,1151.33,602.2604,1141.7186,601.431,1147.3143,595.8353,1146.4849,604.41,1151.33" style="stroke:#181818;stroke-width:1.0;"/></g><!--link UserManagementService to SystemUserBuilder--><g id="link_UserManagementService_SystemUserBuilder"><path codeLine="127" d="M378.5,944.07 C378.5,967.31 378.5,988.03 378.5,1014.85 " fill="none" id="UserManagementService-to-SystemUserBuilder" style="stroke:#181818;stroke-width:1.0;stroke-dasharray:7.0,7.0;"/><polygon fill="#181818" points="378.5,1020.85,382.5,1011.85,378.5,1015.85,374.5,1011.85,378.5,1020.85" style="stroke:#181818;stroke-width:1.0;"/></g><!--SRC=[bLR1Rjim33tNNw7RCYHfiQin56YxTYZG9aMotdPHR2OH9ikUB3TBY_txA4ksP4U9inxgc7manQSdMf-sIXLbV7LLS2fKbV7B9C-k4axBSfeokf4qYwBwbSmBa5JbylMHV4G4_yP4meQL2kGT5IbBgOBHv-XlWty1MMglIE0k5mh-A2-ko4k6kHYKViYYiUyVQA8V674n9W9sFoGL9TfOBYYtwJ3IfAjAB3KAGSWRbL-wiEQjP1jH5GluNK6fpeZkuRrLFs6Nhpgt3fCvvo1jfrD2AxLz9p6vmIUs-qvrWIN8DvQ0XUXbBTyI1EaaprJG3MGWL1UrPhon8F81tq12gYDqUIOsFdnCAEUlfbr4FoAMhZXyNUvnFpBjkBQuDHFf2FzHNbSND0DIwPXvOQZmOuWDMj7artoznchLoHh4STGgfEdX78A8nMYv8EIECwH5PtOw8LuVpd-xVuPaLcKht0cl5GUuFXRNaX0E2pJaANLAH5CJwrEHu_4fjiokHFirN-Xr75bvkmEa4HERH_FQUbpfe4nQGgiEFqPKxjs2y53cASYOl632NIxJUsEmxYBdBDaxxqlztZlqCzZftEs1SfBppjjy_PZY8fdQ-oUcjuSV0Le7t9tva4X0a-FGqLklOV9J1BRZDCUB_cJhdEsBqEWp-IO4Cihu19KbIpL3AKq8Pgn_-SFHCliTX9cgtMqSaurnm3Dk2uUqmO_Eot6yZtfwTqRN8kTGsj2cEaUxOR7s-bKTkRSLuwatwofxTk9sb3HoiWjrWh8EWvuvPCrTJExruoPD9PIbzPWzJkT2RnS7aT96h5AlC2PweKjGmmeUKF-Ox9ZQjYBMBqqx7QEt8yuuwwFgJZgMXb1ZQTjgBIlDgazuktNVVipDb5agYGFVASopDLBpJ1qoqNpyB6XTgzo4uGekj0hLGrEbjJpHdi6lq1fDPjE8TtMud5u7HHa7BnCXP323TpnZI-g9S9_Iw5Gk3GxSO-B-3MOmnv6ZEXWOdlLnO0WFPUgFpi60_cmuAw1_3uhD3UC_bkTwr96t-rP7PsVGctgGheFmFYunoVrFrC47vaXS56hsr8OTV0m3ifhMokvVWJjwxZlhcDxdT3WWJ4GR5UuXKEa8KlDmy9c8_W40]--></g></svg>