<?xml version="1.0" encoding="us-ascii" standalone="no"?><svg xmlns="http://www.w3.org/2000/svg" xmlns:xlink="http://www.w3.org/1999/xlink" contentStyleType="text/css" height="1288px" preserveAspectRatio="none" style="width:2560px;height:1288px;background:#FFFFFF;" version="1.1" viewBox="0 0 2560 1288" width="2560px" zoomAndPan="magnify"><defs/><g><rect fill="#FFFFFF" height="1189.25" style="stroke:#181818;stroke-width:1.0;" width="10" x="59" y="46.2969"/><rect fill="#FFFFFF" height="174.7969" style="stroke:#181818;stroke-width:1.0;" width="10" x="291" y="67.4297"/><rect fill="#FFFFFF" height="29.1328" style="stroke:#181818;stroke-width:1.0;" width="10" x="291" y="295.4922"/><rect fill="#FFFFFF" height="866.6563" style="stroke:#181818;stroke-width:1.0;" width="10" x="291" y="368.8906"/><rect fill="#FFFFFF" height="29.1328" style="stroke:#181818;stroke-width:1.0;" width="10" x="523" y="96.5625"/><rect fill="#FFFFFF" height="751.125" style="stroke:#181818;stroke-width:1.0;" width="10" x="523" y="413.1563"/><rect fill="#FFFFFF" height="29.1328" style="stroke:#181818;stroke-width:1.0;" width="10" x="712.5" y="125.6953"/><rect fill="#FFFFFF" height="58.2656" style="stroke:#181818;stroke-width:1.0;" width="10" x="866.5" y="154.8281"/><rect fill="#FFFFFF" height="706.8594" style="stroke:#181818;stroke-width:1.0;" width="10" x="1041.5" y="457.4219"/><rect fill="#FFFFFF" height="40.1328" style="stroke:#181818;stroke-width:1.0;" width="10" x="1046.5" y="998.6172"/><rect fill="#FFFFFF" height="29.1328" style="stroke:#181818;stroke-width:1.0;" width="10" x="1268.5" y="588.7578"/><rect fill="#FFFFFF" height="29.1328" style="stroke:#181818;stroke-width:1.0;" width="10" x="1416" y="711.2891"/><rect fill="#FFFFFF" height="29.1328" style="stroke:#181818;stroke-width:1.0;" width="10" x="1565" y="793.6875"/><rect fill="#FFFFFF" height="29.1328" style="stroke:#181818;stroke-width:1.0;" width="10" x="1742.5" y="851.9531"/><rect fill="#FFFFFF" height="29.1328" style="stroke:#181818;stroke-width:1.0;" width="10" x="1946.5" y="925.3516"/><rect fill="#FFFFFF" height="29.1328" style="stroke:#181818;stroke-width:1.0;" width="10" x="2117" y="1099.0156"/><rect fill="none" height="425.9297" style="stroke:#000000;stroke-width:1.5;" width="1339" x="10" y="257.2266"/><rect fill="none" height="207.0625" style="stroke:#000000;stroke-width:1.5;" width="1114.5" x="940.5" y="755.4219"/><rect fill="none" height="75.3984" style="stroke:#000000;stroke-width:1.5;" width="1258.5" x="940.5" y="1060.75"/><line style="stroke:#181818;stroke-width:0.5;stroke-dasharray:5.0,5.0;" x1="64" x2="64" y1="36.2969" y2="1253.5469"/><line style="stroke:#181818;stroke-width:0.5;stroke-dasharray:5.0,5.0;" x1="295.5" x2="295.5" y1="36.2969" y2="1253.5469"/><line style="stroke:#181818;stroke-width:0.5;stroke-dasharray:5.0,5.0;" x1="527.5" x2="527.5" y1="36.2969" y2="1253.5469"/><line style="stroke:#181818;stroke-width:0.5;stroke-dasharray:5.0,5.0;" x1="717.5" x2="717.5" y1="36.2969" y2="1253.5469"/><line style="stroke:#181818;stroke-width:0.5;stroke-dasharray:5.0,5.0;" x1="871.5" x2="871.5" y1="36.2969" y2="1253.5469"/><line style="stroke:#181818;stroke-width:0.5;stroke-dasharray:5.0,5.0;" x1="1046.5" x2="1046.5" y1="36.2969" y2="1253.5469"/><line style="stroke:#181818;stroke-width:0.5;stroke-dasharray:5.0,5.0;" x1="1273" x2="1273" y1="36.2969" y2="1253.5469"/><line style="stroke:#181818;stroke-width:0.5;stroke-dasharray:5.0,5.0;" x1="1421" x2="1421" y1="36.2969" y2="1253.5469"/><line style="stroke:#181818;stroke-width:0.5;stroke-dasharray:5.0,5.0;" x1="1570" x2="1570" y1="36.2969" y2="1253.5469"/><line style="stroke:#181818;stroke-width:0.5;stroke-dasharray:5.0,5.0;" x1="1747" x2="1747" y1="36.2969" y2="1253.5469"/><line style="stroke:#181818;stroke-width:0.5;stroke-dasharray:5.0,5.0;" x1="1951" x2="1951" y1="36.2969" y2="1253.5469"/><line style="stroke:#181818;stroke-width:0.5;stroke-dasharray:5.0,5.0;" x1="2122" x2="2122" y1="36.2969" y2="1253.5469"/><line style="stroke:#181818;stroke-width:0.5;stroke-dasharray:5.0,5.0;" x1="2292" x2="2292" y1="36.2969" y2="1253.5469"/><line style="stroke:#181818;stroke-width:0.5;stroke-dasharray:5.0,5.0;" x1="2475" x2="2475" y1="36.2969" y2="1253.5469"/><rect fill="#E2E2F0" height="30.2969" rx="2.5" ry="2.5" style="stroke:#181818;stroke-width:0.5;" width="88" x="20" y="5"/><text fill="#000000" font-family="sans-serif" font-size="14" lengthAdjust="spacing" textLength="74" x="27" y="24.9951">OperatorUI</text><rect fill="#E2E2F0" height="30.2969" rx="2.5" ry="2.5" style="stroke:#181818;stroke-width:0.5;" width="88" x="20" y="1252.5469"/><text fill="#000000" font-family="sans-serif" font-size="14" lengthAdjust="spacing" textLength="74" x="27" y="1272.542">OperatorUI</text><rect fill="#E2E2F0" height="30.2969" rx="2.5" ry="2.5" style="stroke:#181818;stroke-width:0.5;" width="155" x="218.5" y="5"/><text fill="#000000" font-family="sans-serif" font-size="14" lengthAdjust="spacing" textLength="141" x="225.5" y="24.9951">RegisterCandidateUI</text><rect fill="#E2E2F0" height="30.2969" rx="2.5" ry="2.5" style="stroke:#181818;stroke-width:0.5;" width="155" x="218.5" y="1252.5469"/><text fill="#000000" font-family="sans-serif" font-size="14" lengthAdjust="spacing" textLength="141" x="225.5" y="1272.542">RegisterCandidateUI</text><rect fill="#E2E2F0" height="30.2969" rx="2.5" ry="2.5" style="stroke:#181818;stroke-width:0.5;" width="209" x="423.5" y="5"/><text fill="#000000" font-family="sans-serif" font-size="14" lengthAdjust="spacing" textLength="195" x="430.5" y="24.9951">RegisterCandidateController</text><rect fill="#E2E2F0" height="30.2969" rx="2.5" ry="2.5" style="stroke:#181818;stroke-width:0.5;" width="209" x="423.5" y="1252.5469"/><text fill="#000000" font-family="sans-serif" font-size="14" lengthAdjust="spacing" textLength="195" x="430.5" y="1272.542">RegisterCandidateController</text><rect fill="#E2E2F0" height="30.2969" rx="2.5" ry="2.5" style="stroke:#181818;stroke-width:0.5;" width="150" x="642.5" y="5"/><text fill="#000000" font-family="sans-serif" font-size="14" lengthAdjust="spacing" textLength="136" x="649.5" y="24.9951">PersistenceContext</text><rect fill="#E2E2F0" height="30.2969" rx="2.5" ry="2.5" style="stroke:#181818;stroke-width:0.5;" width="150" x="642.5" y="1252.5469"/><text fill="#000000" font-family="sans-serif" font-size="14" lengthAdjust="spacing" textLength="136" x="649.5" y="1272.542">PersistenceContext</text><rect fill="#E2E2F0" height="30.2969" rx="2.5" ry="2.5" style="stroke:#181818;stroke-width:0.5;" width="138" x="802.5" y="5"/><text fill="#000000" font-family="sans-serif" font-size="14" lengthAdjust="spacing" textLength="124" x="809.5" y="24.9951">RepositoryFactory</text><rect fill="#E2E2F0" height="30.2969" rx="2.5" ry="2.5" style="stroke:#181818;stroke-width:0.5;" width="138" x="802.5" y="1252.5469"/><text fill="#000000" font-family="sans-serif" font-size="14" lengthAdjust="spacing" textLength="124" x="809.5" y="1272.542">RepositoryFactory</text><rect fill="#E2E2F0" height="30.2969" rx="2.5" ry="2.5" style="stroke:#181818;stroke-width:0.5;" width="192" x="950.5" y="5"/><text fill="#000000" font-family="sans-serif" font-size="14" lengthAdjust="spacing" textLength="178" x="957.5" y="24.9951">RegisterCandidateService</text><rect fill="#E2E2F0" height="30.2969" rx="2.5" ry="2.5" style="stroke:#181818;stroke-width:0.5;" width="192" x="950.5" y="1252.5469"/><text fill="#000000" font-family="sans-serif" font-size="14" lengthAdjust="spacing" textLength="178" x="957.5" y="1272.542">RegisterCandidateService</text><rect fill="#E2E2F0" height="30.2969" rx="2.5" ry="2.5" style="stroke:#181818;stroke-width:0.5;" width="131" x="1208" y="5"/><text fill="#000000" font-family="sans-serif" font-size="14" lengthAdjust="spacing" textLength="117" x="1215" y="24.9951">ImportFileService</text><rect fill="#E2E2F0" height="30.2969" rx="2.5" ry="2.5" style="stroke:#181818;stroke-width:0.5;" width="131" x="1208" y="1252.5469"/><text fill="#000000" font-family="sans-serif" font-size="14" lengthAdjust="spacing" textLength="117" x="1215" y="1272.542">ImportFileService</text><rect fill="#E2E2F0" height="30.2969" rx="2.5" ry="2.5" style="stroke:#181818;stroke-width:0.5;" width="144" x="1349" y="5"/><text fill="#000000" font-family="sans-serif" font-size="14" lengthAdjust="spacing" textLength="130" x="1356" y="24.9951">ListUsersController</text><rect fill="#E2E2F0" height="30.2969" rx="2.5" ry="2.5" style="stroke:#181818;stroke-width:0.5;" width="144" x="1349" y="1252.5469"/><text fill="#000000" font-family="sans-serif" font-size="14" lengthAdjust="spacing" textLength="130" x="1356" y="1272.542">ListUsersController</text><rect fill="#E2E2F0" height="30.2969" rx="2.5" ry="2.5" style="stroke:#181818;stroke-width:0.5;" width="134" x="1503" y="5"/><text fill="#000000" font-family="sans-serif" font-size="14" lengthAdjust="spacing" textLength="120" x="1510" y="24.9951">ListRolesServices</text><rect fill="#E2E2F0" height="30.2969" rx="2.5" ry="2.5" style="stroke:#181818;stroke-width:0.5;" width="134" x="1503" y="1252.5469"/><text fill="#000000" font-family="sans-serif" font-size="14" lengthAdjust="spacing" textLength="120" x="1510" y="1272.542">ListRolesServices</text><rect fill="#E2E2F0" height="30.2969" rx="2.5" ry="2.5" style="stroke:#181818;stroke-width:0.5;" width="201" x="1647" y="5"/><text fill="#000000" font-family="sans-serif" font-size="14" lengthAdjust="spacing" textLength="187" x="1654" y="24.9951">PasswordGeneratorService</text><rect fill="#E2E2F0" height="30.2969" rx="2.5" ry="2.5" style="stroke:#181818;stroke-width:0.5;" width="201" x="1647" y="1252.5469"/><text fill="#000000" font-family="sans-serif" font-size="14" lengthAdjust="spacing" textLength="187" x="1654" y="1272.542">PasswordGeneratorService</text><rect fill="#E2E2F0" height="30.2969" rx="2.5" ry="2.5" style="stroke:#181818;stroke-width:0.5;" width="187" x="1858" y="5"/><text fill="#000000" font-family="sans-serif" font-size="14" lengthAdjust="spacing" textLength="173" x="1865" y="24.9951">UserManagementService</text><rect fill="#E2E2F0" height="30.2969" rx="2.5" ry="2.5" style="stroke:#181818;stroke-width:0.5;" width="187" x="1858" y="1252.5469"/><text fill="#000000" font-family="sans-serif" font-size="14" lengthAdjust="spacing" textLength="173" x="1865" y="1272.542">UserManagementService</text><rect fill="#E2E2F0" height="30.2969" rx="2.5" ry="2.5" style="stroke:#181818;stroke-width:0.5;" width="134" x="2055" y="5"/><text fill="#000000" font-family="sans-serif" font-size="14" lengthAdjust="spacing" textLength="120" x="2062" y="24.9951">CandidateFactory</text><rect fill="#E2E2F0" height="30.2969" rx="2.5" ry="2.5" style="stroke:#181818;stroke-width:0.5;" width="134" x="2055" y="1252.5469"/><text fill="#000000" font-family="sans-serif" font-size="14" lengthAdjust="spacing" textLength="120" x="2062" y="1272.542">CandidateFactory</text><rect fill="#E2E2F0" height="30.2969" rx="2.5" ry="2.5" style="stroke:#181818;stroke-width:0.5;" width="187" x="2199" y="5"/><text fill="#000000" font-family="sans-serif" font-size="14" lengthAdjust="spacing" textLength="173" x="2206" y="24.9951">UserManagementService</text><rect fill="#E2E2F0" height="30.2969" rx="2.5" ry="2.5" style="stroke:#181818;stroke-width:0.5;" width="187" x="2199" y="1252.5469"/><text fill="#000000" font-family="sans-serif" font-size="14" lengthAdjust="spacing" textLength="173" x="2206" y="1272.542">UserManagementService</text><rect fill="#E2E2F0" height="30.2969" rx="2.5" ry="2.5" style="stroke:#181818;stroke-width:0.5;" width="158" x="2396" y="5"/><text fill="#000000" font-family="sans-serif" font-size="14" lengthAdjust="spacing" textLength="144" x="2403" y="24.9951">CandidateRepository</text><rect fill="#E2E2F0" height="30.2969" rx="2.5" ry="2.5" style="stroke:#181818;stroke-width:0.5;" width="158" x="2396" y="1252.5469"/><text fill="#000000" font-family="sans-serif" font-size="14" lengthAdjust="spacing" textLength="144" x="2403" y="1272.542">CandidateRepository</text><rect fill="#FFFFFF" height="1189.25" style="stroke:#181818;stroke-width:1.0;" width="10" x="59" y="46.2969"/><rect fill="#FFFFFF" height="174.7969" style="stroke:#181818;stroke-width:1.0;" width="10" x="291" y="67.4297"/><rect fill="#FFFFFF" height="29.1328" style="stroke:#181818;stroke-width:1.0;" width="10" x="291" y="295.4922"/><rect fill="#FFFFFF" height="866.6563" style="stroke:#181818;stroke-width:1.0;" width="10" x="291" y="368.8906"/><rect fill="#FFFFFF" height="29.1328" style="stroke:#181818;stroke-width:1.0;" width="10" x="523" y="96.5625"/><rect fill="#FFFFFF" height="751.125" style="stroke:#181818;stroke-width:1.0;" width="10" x="523" y="413.1563"/><rect fill="#FFFFFF" height="29.1328" style="stroke:#181818;stroke-width:1.0;" width="10" x="712.5" y="125.6953"/><rect fill="#FFFFFF" height="58.2656" style="stroke:#181818;stroke-width:1.0;" width="10" x="866.5" y="154.8281"/><rect fill="#FFFFFF" height="706.8594" style="stroke:#181818;stroke-width:1.0;" width="10" x="1041.5" y="457.4219"/><rect fill="#FFFFFF" height="40.1328" style="stroke:#181818;stroke-width:1.0;" width="10" x="1046.5" y="998.6172"/><rect fill="#FFFFFF" height="29.1328" style="stroke:#181818;stroke-width:1.0;" width="10" x="1268.5" y="588.7578"/><rect fill="#FFFFFF" height="29.1328" style="stroke:#181818;stroke-width:1.0;" width="10" x="1416" y="711.2891"/><rect fill="#FFFFFF" height="29.1328" style="stroke:#181818;stroke-width:1.0;" width="10" x="1565" y="793.6875"/><rect fill="#FFFFFF" height="29.1328" style="stroke:#181818;stroke-width:1.0;" width="10" x="1742.5" y="851.9531"/><rect fill="#FFFFFF" height="29.1328" style="stroke:#181818;stroke-width:1.0;" width="10" x="1946.5" y="925.3516"/><rect fill="#FFFFFF" height="29.1328" style="stroke:#181818;stroke-width:1.0;" width="10" x="2117" y="1099.0156"/><polygon fill="#181818" points="279,63.4297,289,67.4297,279,71.4297,283,67.4297" style="stroke:#181818;stroke-width:1.0;"/><line style="stroke:#181818;stroke-width:1.0;" x1="69" x2="285" y1="67.4297" y2="67.4297"/><text fill="#000000" font-family="sans-serif" font-size="13" font-weight="bold" lengthAdjust="spacing" textLength="9" x="76" y="62.3638">1</text><text fill="#000000" font-family="sans-serif" font-size="13" lengthAdjust="spacing" textLength="124" x="89" y="62.3638">registerCandidate()</text><polygon fill="#181818" points="511,92.5625,521,96.5625,511,100.5625,515,96.5625" style="stroke:#181818;stroke-width:1.0;"/><line style="stroke:#181818;stroke-width:1.0;" x1="301" x2="517" y1="96.5625" y2="96.5625"/><text fill="#000000" font-family="sans-serif" font-size="13" font-weight="bold" lengthAdjust="spacing" textLength="9" x="308" y="91.4966">2</text><text fill="#000000" font-family="sans-serif" font-size="13" lengthAdjust="spacing" textLength="51" x="321" y="91.4966">create()</text><polygon fill="#181818" points="700.5,121.6953,710.5,125.6953,700.5,129.6953,704.5,125.6953" style="stroke:#181818;stroke-width:1.0;"/><line style="stroke:#181818;stroke-width:1.0;" x1="528" x2="706.5" y1="125.6953" y2="125.6953"/><text fill="#000000" font-family="sans-serif" font-size="13" font-weight="bold" lengthAdjust="spacing" textLength="9" x="535" y="120.6294">3</text><text fill="#000000" font-family="sans-serif" font-size="13" lengthAdjust="spacing" textLength="85" x="548" y="120.6294">repositories()</text><polygon fill="#181818" points="854.5,150.8281,864.5,154.8281,854.5,158.8281,858.5,154.8281" style="stroke:#181818;stroke-width:1.0;"/><line style="stroke:#181818;stroke-width:1.0;" x1="717.5" x2="860.5" y1="154.8281" y2="154.8281"/><text fill="#000000" font-family="sans-serif" font-size="13" font-weight="bold" lengthAdjust="spacing" textLength="9" x="724.5" y="149.7622">4</text><text fill="#000000" font-family="sans-serif" font-size="13" lengthAdjust="spacing" textLength="51" x="737.5" y="149.7622">create()</text><polygon fill="#181818" points="2280.5,179.9609,2290.5,183.9609,2280.5,187.9609,2284.5,183.9609" style="stroke:#181818;stroke-width:1.0;"/><line style="stroke:#181818;stroke-width:1.0;" x1="876.5" x2="2286.5" y1="183.9609" y2="183.9609"/><text fill="#000000" font-family="sans-serif" font-size="13" font-weight="bold" lengthAdjust="spacing" textLength="9" x="883.5" y="178.895">5</text><text fill="#000000" font-family="sans-serif" font-size="13" lengthAdjust="spacing" textLength="51" x="896.5" y="178.895">create()</text><polygon fill="#181818" points="2463,209.0938,2473,213.0938,2463,217.0938,2467,213.0938" style="stroke:#181818;stroke-width:1.0;"/><line style="stroke:#181818;stroke-width:1.0;" x1="871.5" x2="2469" y1="213.0938" y2="213.0938"/><text fill="#000000" font-family="sans-serif" font-size="13" font-weight="bold" lengthAdjust="spacing" textLength="9" x="878.5" y="208.0278">6</text><text fill="#000000" font-family="sans-serif" font-size="13" lengthAdjust="spacing" textLength="51" x="891.5" y="208.0278">create()</text><polygon fill="#181818" points="80,238.2266,70,242.2266,80,246.2266,76,242.2266" style="stroke:#181818;stroke-width:1.0;"/><line style="stroke:#181818;stroke-width:1.0;stroke-dasharray:2.0,2.0;" x1="74" x2="295" y1="242.2266" y2="242.2266"/><text fill="#000000" font-family="sans-serif" font-size="13" font-weight="bold" lengthAdjust="spacing" textLength="9" x="86" y="237.1606">7</text><text fill="#000000" font-family="sans-serif" font-size="13" lengthAdjust="spacing" textLength="173" x="99" y="237.1606">file import or manual insert</text><path d="M10,257.2266 L74,257.2266 L74,264.3594 L64,274.3594 L10,274.3594 L10,257.2266 " fill="#EEEEEE" style="stroke:#000000;stroke-width:1.5;"/><rect fill="none" height="425.9297" style="stroke:#000000;stroke-width:1.5;" width="1339" x="10" y="257.2266"/><text fill="#000000" font-family="sans-serif" font-size="13" font-weight="bold" lengthAdjust="spacing" textLength="19" x="25" y="270.2935">alt</text><text fill="#000000" font-family="sans-serif" font-size="11" font-weight="bold" lengthAdjust="spacing" textLength="98" x="89" y="269.437">[manual insert]</text><polygon fill="#181818" points="279,291.4922,289,295.4922,279,299.4922,283,295.4922" style="stroke:#181818;stroke-width:1.0;"/><line style="stroke:#181818;stroke-width:1.0;" x1="69" x2="285" y1="295.4922" y2="295.4922"/><text fill="#000000" font-family="sans-serif" font-size="13" font-weight="bold" lengthAdjust="spacing" textLength="9" x="76" y="290.4263">8</text><text fill="#000000" font-family="sans-serif" font-size="13" lengthAdjust="spacing" textLength="88" x="89" y="290.4263">manual insert</text><polygon fill="#181818" points="80,320.625,70,324.625,80,328.625,76,324.625" style="stroke:#181818;stroke-width:1.0;"/><line style="stroke:#181818;stroke-width:1.0;stroke-dasharray:2.0,2.0;" x1="74" x2="295" y1="324.625" y2="324.625"/><text fill="#000000" font-family="sans-serif" font-size="13" font-weight="bold" lengthAdjust="spacing" textLength="9" x="86" y="319.5591">9</text><text fill="#000000" font-family="sans-serif" font-size="13" lengthAdjust="spacing" textLength="108" x="99" y="319.5591">request user info</text><polygon fill="#181818" points="279,364.8906,289,368.8906,279,372.8906,283,368.8906" style="stroke:#181818;stroke-width:1.0;"/><line style="stroke:#181818;stroke-width:1.0;" x1="69" x2="285" y1="368.8906" y2="368.8906"/><text fill="#000000" font-family="sans-serif" font-size="13" font-weight="bold" lengthAdjust="spacing" textLength="18" x="76" y="356.2583">10</text><text fill="#000000" font-family="sans-serif" font-size="13" lengthAdjust="spacing" textLength="151" x="98" y="348.6919">gives user info(number,</text><text fill="#000000" font-family="sans-serif" font-size="13" lengthAdjust="spacing" textLength="181" x="98" y="363.8247">email, firstName, lastName)</text><polygon fill="#181818" points="511,409.1563,521,413.1563,511,417.1563,515,413.1563" style="stroke:#181818;stroke-width:1.0;"/><line style="stroke:#181818;stroke-width:1.0;" x1="301" x2="517" y1="413.1563" y2="413.1563"/><text fill="#000000" font-family="sans-serif" font-size="13" font-weight="bold" lengthAdjust="spacing" textLength="18" x="308" y="400.5239">11</text><text fill="#000000" font-family="sans-serif" font-size="13" lengthAdjust="spacing" textLength="173" x="330" y="392.9575">registerCandidate(number,</text><text fill="#000000" font-family="sans-serif" font-size="13" lengthAdjust="spacing" textLength="181" x="330" y="408.0903">email, firstName, lastName)</text><polygon fill="#181818" points="1029.5,453.4219,1039.5,457.4219,1029.5,461.4219,1033.5,457.4219" style="stroke:#181818;stroke-width:1.0;"/><line style="stroke:#181818;stroke-width:1.0;" x1="533" x2="1035.5" y1="457.4219" y2="457.4219"/><text fill="#000000" font-family="sans-serif" font-size="13" font-weight="bold" lengthAdjust="spacing" textLength="18" x="540" y="444.7896">12</text><text fill="#000000" font-family="sans-serif" font-size="13" lengthAdjust="spacing" textLength="173" x="562" y="437.2231">registerCandidate(number,</text><text fill="#000000" font-family="sans-serif" font-size="13" lengthAdjust="spacing" textLength="181" x="562" y="452.356">email, firstName, lastName)</text><line style="stroke:#000000;stroke-width:1.0;stroke-dasharray:2.0,2.0;" x1="10" x2="1349" y1="466.4219" y2="466.4219"/><text fill="#000000" font-family="sans-serif" font-size="11" font-weight="bold" lengthAdjust="spacing" textLength="76" x="15" y="476.6323">[file import]</text><polygon fill="#181818" points="279,497.3594,289,501.3594,279,505.3594,283,501.3594" style="stroke:#181818;stroke-width:1.0;"/><line style="stroke:#181818;stroke-width:1.0;" x1="69" x2="285" y1="501.3594" y2="501.3594"/><text fill="#000000" font-family="sans-serif" font-size="13" font-weight="bold" lengthAdjust="spacing" textLength="18" x="76" y="496.2935">13</text><text fill="#000000" font-family="sans-serif" font-size="13" lengthAdjust="spacing" textLength="64" x="98" y="496.2935">file import</text><polygon fill="#181818" points="511,526.4922,521,530.4922,511,534.4922,515,530.4922" style="stroke:#181818;stroke-width:1.0;"/><line style="stroke:#181818;stroke-width:1.0;" x1="301" x2="517" y1="530.4922" y2="530.4922"/><text fill="#000000" font-family="sans-serif" font-size="13" font-weight="bold" lengthAdjust="spacing" textLength="18" x="308" y="525.4263">14</text><text fill="#000000" font-family="sans-serif" font-size="13" lengthAdjust="spacing" textLength="158" x="330" y="525.4263">importCandidateInfo(file)</text><polygon fill="#181818" points="1029.5,555.625,1039.5,559.625,1029.5,563.625,1033.5,559.625" style="stroke:#181818;stroke-width:1.0;"/><line style="stroke:#181818;stroke-width:1.0;" x1="533" x2="1035.5" y1="559.625" y2="559.625"/><text fill="#000000" font-family="sans-serif" font-size="13" font-weight="bold" lengthAdjust="spacing" textLength="18" x="540" y="554.5591">15</text><text fill="#000000" font-family="sans-serif" font-size="13" lengthAdjust="spacing" textLength="158" x="562" y="554.5591">importCandidateInfo(file)</text><polygon fill="#181818" points="1256.5,584.7578,1266.5,588.7578,1256.5,592.7578,1260.5,588.7578" style="stroke:#181818;stroke-width:1.0;"/><line style="stroke:#181818;stroke-width:1.0;" x1="1051.5" x2="1262.5" y1="588.7578" y2="588.7578"/><text fill="#000000" font-family="sans-serif" font-size="13" font-weight="bold" lengthAdjust="spacing" textLength="18" x="1058.5" y="583.6919">16</text><text fill="#000000" font-family="sans-serif" font-size="13" lengthAdjust="spacing" textLength="158" x="1080.5" y="583.6919">importCandidateInfo(file)</text><polygon fill="#181818" points="1062.5,613.8906,1052.5,617.8906,1062.5,621.8906,1058.5,617.8906" style="stroke:#181818;stroke-width:1.0;"/><line style="stroke:#181818;stroke-width:1.0;stroke-dasharray:2.0,2.0;" x1="1056.5" x2="1272.5" y1="617.8906" y2="617.8906"/><text fill="#000000" font-family="sans-serif" font-size="13" font-weight="bold" lengthAdjust="spacing" textLength="18" x="1068.5" y="612.8247">17</text><text fill="#000000" font-family="sans-serif" font-size="13" lengthAdjust="spacing" textLength="82" x="1090.5" y="612.8247">canidate info</text><line style="stroke:#181818;stroke-width:1.0;" x1="1051.5" x2="1093.5" y1="662.1563" y2="662.1563"/><line style="stroke:#181818;stroke-width:1.0;" x1="1093.5" x2="1093.5" y1="662.1563" y2="675.1563"/><line style="stroke:#181818;stroke-width:1.0;" x1="1052.5" x2="1093.5" y1="675.1563" y2="675.1563"/><polygon fill="#181818" points="1062.5,671.1563,1052.5,675.1563,1062.5,679.1563,1058.5,675.1563" style="stroke:#181818;stroke-width:1.0;"/><text fill="#000000" font-family="sans-serif" font-size="13" font-weight="bold" lengthAdjust="spacing" textLength="18" x="1058.5" y="649.5239">18</text><text fill="#000000" font-family="sans-serif" font-size="13" lengthAdjust="spacing" textLength="173" x="1080.5" y="641.9575">registerCandidate(number,</text><text fill="#000000" font-family="sans-serif" font-size="13" lengthAdjust="spacing" textLength="181" x="1080.5" y="657.0903">email, firstName, lastName)</text><polygon fill="#181818" points="1404,707.2891,1414,711.2891,1404,715.2891,1408,711.2891" style="stroke:#181818;stroke-width:1.0;"/><line style="stroke:#181818;stroke-width:1.0;" x1="1051.5" x2="1410" y1="711.2891" y2="711.2891"/><text fill="#000000" font-family="sans-serif" font-size="13" font-weight="bold" lengthAdjust="spacing" textLength="18" x="1058.5" y="706.2231">19</text><text fill="#000000" font-family="sans-serif" font-size="13" lengthAdjust="spacing" textLength="68" x="1080.5" y="706.2231">find(email)</text><polygon fill="#181818" points="1062.5,736.4219,1052.5,740.4219,1062.5,744.4219,1058.5,740.4219" style="stroke:#181818;stroke-width:1.0;"/><line style="stroke:#181818;stroke-width:1.0;stroke-dasharray:2.0,2.0;" x1="1056.5" x2="1420" y1="740.4219" y2="740.4219"/><text fill="#000000" font-family="sans-serif" font-size="13" font-weight="bold" lengthAdjust="spacing" textLength="18" x="1068.5" y="735.356">20</text><text fill="#000000" font-family="sans-serif" font-size="13" lengthAdjust="spacing" textLength="28" x="1090.5" y="735.356">user</text><path d="M940.5,755.4219 L1010.5,755.4219 L1010.5,762.5547 L1000.5,772.5547 L940.5,772.5547 L940.5,755.4219 " fill="#EEEEEE" style="stroke:#000000;stroke-width:1.5;"/><rect fill="none" height="207.0625" style="stroke:#000000;stroke-width:1.5;" width="1114.5" x="940.5" y="755.4219"/><text fill="#000000" font-family="sans-serif" font-size="13" font-weight="bold" lengthAdjust="spacing" textLength="25" x="955.5" y="768.4888">opt</text><text fill="#000000" font-family="sans-serif" font-size="11" font-weight="bold" lengthAdjust="spacing" textLength="168" x="1025.5" y="767.6323">[user is not in the system]</text><polygon fill="#181818" points="1553,789.6875,1563,793.6875,1553,797.6875,1557,793.6875" style="stroke:#181818;stroke-width:1.0;"/><line style="stroke:#181818;stroke-width:1.0;" x1="1051.5" x2="1559" y1="793.6875" y2="793.6875"/><text fill="#000000" font-family="sans-serif" font-size="13" font-weight="bold" lengthAdjust="spacing" textLength="18" x="1058.5" y="788.6216">21</text><text fill="#000000" font-family="sans-serif" font-size="13" lengthAdjust="spacing" textLength="65" x="1080.5" y="788.6216">getRoles()</text><polygon fill="#181818" points="1062.5,818.8203,1052.5,822.8203,1062.5,826.8203,1058.5,822.8203" style="stroke:#181818;stroke-width:1.0;"/><line style="stroke:#181818;stroke-width:1.0;stroke-dasharray:2.0,2.0;" x1="1056.5" x2="1569" y1="822.8203" y2="822.8203"/><text fill="#000000" font-family="sans-serif" font-size="13" font-weight="bold" lengthAdjust="spacing" textLength="18" x="1068.5" y="817.7544">22</text><text fill="#000000" font-family="sans-serif" font-size="13" lengthAdjust="spacing" textLength="31" x="1090.5" y="817.7544">roles</text><polygon fill="#181818" points="1730.5,847.9531,1740.5,851.9531,1730.5,855.9531,1734.5,851.9531" style="stroke:#181818;stroke-width:1.0;"/><line style="stroke:#181818;stroke-width:1.0;" x1="1051.5" x2="1736.5" y1="851.9531" y2="851.9531"/><text fill="#000000" font-family="sans-serif" font-size="13" font-weight="bold" lengthAdjust="spacing" textLength="18" x="1058.5" y="846.8872">23</text><text fill="#000000" font-family="sans-serif" font-size="13" lengthAdjust="spacing" textLength="91" x="1080.5" y="846.8872">getPassword()</text><polygon fill="#181818" points="1062.5,877.0859,1052.5,881.0859,1062.5,885.0859,1058.5,881.0859" style="stroke:#181818;stroke-width:1.0;"/><line style="stroke:#181818;stroke-width:1.0;stroke-dasharray:2.0,2.0;" x1="1056.5" x2="1746.5" y1="881.0859" y2="881.0859"/><text fill="#000000" font-family="sans-serif" font-size="13" font-weight="bold" lengthAdjust="spacing" textLength="18" x="1068.5" y="876.02">24</text><text fill="#000000" font-family="sans-serif" font-size="13" lengthAdjust="spacing" textLength="60" x="1090.5" y="876.02">password</text><polygon fill="#181818" points="1934.5,921.3516,1944.5,925.3516,1934.5,929.3516,1938.5,925.3516" style="stroke:#181818;stroke-width:1.0;"/><line style="stroke:#181818;stroke-width:1.0;" x1="1051.5" x2="1940.5" y1="925.3516" y2="925.3516"/><text fill="#000000" font-family="sans-serif" font-size="13" font-weight="bold" lengthAdjust="spacing" textLength="18" x="1058.5" y="912.7192">25</text><text fill="#000000" font-family="sans-serif" font-size="13" lengthAdjust="spacing" textLength="263" x="1080.5" y="905.1528">registerNewUser(email, password, name,</text><text fill="#000000" font-family="sans-serif" font-size="13" lengthAdjust="spacing" textLength="183" x="1080.5" y="920.2856">emailAddress, address, role)</text><polygon fill="#181818" points="1062.5,950.4844,1052.5,954.4844,1062.5,958.4844,1058.5,954.4844" style="stroke:#181818;stroke-width:1.0;"/><line style="stroke:#181818;stroke-width:1.0;stroke-dasharray:2.0,2.0;" x1="1056.5" x2="1950.5" y1="954.4844" y2="954.4844"/><text fill="#000000" font-family="sans-serif" font-size="13" font-weight="bold" lengthAdjust="spacing" textLength="18" x="1068.5" y="949.4185">26</text><text fill="#000000" font-family="sans-serif" font-size="13" lengthAdjust="spacing" textLength="28" x="1090.5" y="949.4185">user</text><line style="stroke:#181818;stroke-width:1.0;" x1="1051.5" x2="1098.5" y1="985.6172" y2="985.6172"/><line style="stroke:#181818;stroke-width:1.0;" x1="1098.5" x2="1098.5" y1="985.6172" y2="998.6172"/><line style="stroke:#181818;stroke-width:1.0;" x1="1057.5" x2="1098.5" y1="998.6172" y2="998.6172"/><polygon fill="#181818" points="1067.5,994.6172,1057.5,998.6172,1067.5,1002.6172,1063.5,998.6172" style="stroke:#181818;stroke-width:1.0;"/><text fill="#000000" font-family="sans-serif" font-size="13" font-weight="bold" lengthAdjust="spacing" textLength="18" x="1063.5" y="980.5513">27</text><text fill="#000000" font-family="sans-serif" font-size="13" lengthAdjust="spacing" textLength="151" x="1085.5" y="980.5513">findByNumber(number)</text><line style="stroke:#181818;stroke-width:1.0;stroke-dasharray:2.0,2.0;" x1="1056.5" x2="1098.5" y1="1037.75" y2="1037.75"/><line style="stroke:#181818;stroke-width:1.0;stroke-dasharray:2.0,2.0;" x1="1098.5" x2="1098.5" y1="1037.75" y2="1050.75"/><line style="stroke:#181818;stroke-width:1.0;stroke-dasharray:2.0,2.0;" x1="1051.5" x2="1098.5" y1="1050.75" y2="1050.75"/><polygon fill="#181818" points="1061.5,1046.75,1051.5,1050.75,1061.5,1054.75,1057.5,1050.75" style="stroke:#181818;stroke-width:1.0;"/><text fill="#000000" font-family="sans-serif" font-size="13" font-weight="bold" lengthAdjust="spacing" textLength="18" x="1063.5" y="1032.6841">28</text><text fill="#000000" font-family="sans-serif" font-size="13" lengthAdjust="spacing" textLength="63" x="1085.5" y="1032.6841">candidate</text><path d="M940.5,1060.75 L1010.5,1060.75 L1010.5,1067.8828 L1000.5,1077.8828 L940.5,1077.8828 L940.5,1060.75 " fill="#EEEEEE" style="stroke:#000000;stroke-width:1.5;"/><rect fill="none" height="75.3984" style="stroke:#000000;stroke-width:1.5;" width="1258.5" x="940.5" y="1060.75"/><text fill="#000000" font-family="sans-serif" font-size="13" font-weight="bold" lengthAdjust="spacing" textLength="25" x="955.5" y="1073.8169">opt</text><text fill="#000000" font-family="sans-serif" font-size="11" font-weight="bold" lengthAdjust="spacing" textLength="189" x="1025.5" y="1072.9604">[candidate not in the system]</text><polygon fill="#181818" points="2105,1095.0156,2115,1099.0156,2105,1103.0156,2109,1099.0156" style="stroke:#181818;stroke-width:1.0;"/><line style="stroke:#181818;stroke-width:1.0;" x1="1051.5" x2="2111" y1="1099.0156" y2="1099.0156"/><text fill="#000000" font-family="sans-serif" font-size="13" font-weight="bold" lengthAdjust="spacing" textLength="18" x="1058.5" y="1093.9497">29</text><text fill="#000000" font-family="sans-serif" font-size="13" lengthAdjust="spacing" textLength="186" x="1080.5" y="1093.9497">newCandidate(user, number)</text><polygon fill="#181818" points="1062.5,1124.1484,1052.5,1128.1484,1062.5,1132.1484,1058.5,1128.1484" style="stroke:#181818;stroke-width:1.0;"/><line style="stroke:#181818;stroke-width:1.0;stroke-dasharray:2.0,2.0;" x1="1056.5" x2="2121" y1="1128.1484" y2="1128.1484"/><text fill="#000000" font-family="sans-serif" font-size="13" font-weight="bold" lengthAdjust="spacing" textLength="18" x="1068.5" y="1123.0825">30</text><text fill="#000000" font-family="sans-serif" font-size="13" lengthAdjust="spacing" textLength="63" x="1090.5" y="1123.0825">candidate</text><polygon fill="#181818" points="312,1160.2813,302,1164.2813,312,1168.2813,308,1164.2813" style="stroke:#181818;stroke-width:1.0;"/><line style="stroke:#181818;stroke-width:1.0;stroke-dasharray:2.0,2.0;" x1="306" x2="1045.5" y1="1164.2813" y2="1164.2813"/><text fill="#000000" font-family="sans-serif" font-size="13" font-weight="bold" lengthAdjust="spacing" textLength="18" x="318" y="1159.2153">31</text><text fill="#000000" font-family="sans-serif" font-size="13" lengthAdjust="spacing" textLength="63" x="340" y="1159.2153">candidate</text><line style="stroke:#181818;stroke-width:1.0;" x1="301" x2="343" y1="1193.4141" y2="1193.4141"/><line style="stroke:#181818;stroke-width:1.0;" x1="343" x2="343" y1="1193.4141" y2="1206.4141"/><line style="stroke:#181818;stroke-width:1.0;" x1="302" x2="343" y1="1206.4141" y2="1206.4141"/><polygon fill="#181818" points="312,1202.4141,302,1206.4141,312,1210.4141,308,1206.4141" style="stroke:#181818;stroke-width:1.0;"/><text fill="#000000" font-family="sans-serif" font-size="13" font-weight="bold" lengthAdjust="spacing" textLength="18" x="308" y="1188.3481">32</text><text fill="#000000" font-family="sans-serif" font-size="13" lengthAdjust="spacing" textLength="60" x="330" y="1188.3481">doShow()</text><polygon fill="#181818" points="75,1231.5469,65,1235.5469,75,1239.5469,71,1235.5469" style="stroke:#181818;stroke-width:1.0;"/><line style="stroke:#181818;stroke-width:1.0;stroke-dasharray:2.0,2.0;" x1="69" x2="295" y1="1235.5469" y2="1235.5469"/><text fill="#000000" font-family="sans-serif" font-size="13" font-weight="bold" lengthAdjust="spacing" textLength="18" x="81" y="1230.481">33</text><text fill="#000000" font-family="sans-serif" font-size="13" lengthAdjust="spacing" textLength="4" x="103" y="1230.481">&#160;</text><!--SRC=[hPLDRzim38RFzg_GRIcGhlSU1cn6NGH8sy1PRhjeDfiAi2LFKfhrtu-aFoBPQRPXkxH1zF3bAv9YFhnutxhRcvksbjeVclfZQPeR1pyEe4kuhfJSMzcagJnuem_DTx1fsahhLQbQ311FBLZfZTsjX7JYQRDRHSS5x9NpO3EfArL93nrNPB_ZCgEzDNKDblZiQx6E-0rOHm7eaKZuwGdRt1NRYMnhd49xRxaiwHydlziyNKw-1VkgIk3CiU2gQOtrkQf3PfN7q1hLTWuTnfTOxx8PLfWQN2_b69hSO2ETEnfRtOFk2XtatTp7BELya5hkeG7j0t3t48FZHOEgPFaVQXNdfKwbPhKYnPaflNh5esuiw8-u_iIz5xV2Jek-k0eYU41IHZ64seyXfOKfnuF1nuXH-rcvTwB08Ln1J9-2ULmuY6pXL8GvWZ3c0cyqFunZsAu8WuPli-8TAOxjxuKSr-HMFECy2SMZ9OmLZTG7MGkbiGS-ZSAvBBBsKoQPL7Tw72iaKmEMthlpue0u1ZsRD9bbdQROgrSSsJ5YqMs7vJSDZLJr4YzbdN-K3In5BRjFLpCdWvMnn_En-5lThid9C1JPzl-euWH0xI3irRmcuU7qPjtNeuCLrOpugudNInnFAgwRYrZWcZPJGlpre5vApVoyoyGEAVwfQA2hDErqSELnLNIru93mwT8wfFFH6erIEEm4fAOTfj89RJpQ5lu5X7j3PyteTyqFVm_TFbr4DQ2DcX0m9h84HNSdPj32hTff3QitbgEbcn0pohKz5oaIDYZY-WtA-GX7MgwBleP3z59eBcHVtCzLPS6vfP331t8TEQ6jdf1sNC7G1I5XFvYYTdnvU-HUzYsDLkgMuM1Wkkv7YtJRTMOylD2RB4SL3SVJ695DlEwGENXaEGRbvtA7bqBgTAVJspl1KwUpNm2E29vjPROlvaZxEzoBPpPly0KHlm00]--></g></svg>