<?xml version="1.0" encoding="us-ascii" standalone="no"?><svg xmlns="http://www.w3.org/2000/svg" xmlns:xlink="http://www.w3.org/1999/xlink" contentStyleType="text/css" height="532px" preserveAspectRatio="none" style="width:755px;height:532px;background:#FFFFFF;" version="1.1" viewBox="0 0 755 532" width="755.6px" zoomAndPan="magnify"><defs/><g><!--cluster UserAggregate--><g id="cluster_UserAggregate"><path d="M75.4,2.4055 L118.2,2.4055 A1.5,1.5 0 0 1 119.2,3.4055 L122,12.2539 L326.6,12.2539 A1,1 0 0 1 327.6,13.2539 L327.6,314.2055 A1,1 0 0 1 326.6,315.2055 L75.4,315.2055 A1,1 0 0 1 74.4,314.2055 L74.4,3.4055 A1,1 0 0 1 75.4,2.4055 " fill="none" style="stroke:#000000;stroke-width:0.6000000000000001;"/><line style="stroke:#000000;stroke-width:0.6000000000000001;" x1="74.4" x2="122" y1="12.2539" y2="12.2539"/><text fill="#000000" font-family="sans-serif" font-size="5.6" font-weight="bold" lengthAdjust="spacing" textLength="42.4" x="76" y="9.2484">UserAggregate</text></g><!--cluster CandidateAggregate--><g id="cluster_CandidateAggregate"><path d="M389.4,3.6055 L447.4,3.6055 A1.5,1.5 0 0 1 448.4,4.6055 L451.2,13.4539 L475.4,13.4539 A1,1 0 0 1 476.4,14.4539 L476.4,116.2055 A1,1 0 0 1 475.4,117.2055 L389.4,117.2055 A1,1 0 0 1 388.4,116.2055 L388.4,4.6055 A1,1 0 0 1 389.4,3.6055 " fill="none" style="stroke:#000000;stroke-width:0.6000000000000001;"/><line style="stroke:#000000;stroke-width:0.6000000000000001;" x1="388.4" x2="451.2" y1="13.4539" y2="13.4539"/><text fill="#000000" font-family="sans-serif" font-size="5.6" font-weight="bold" lengthAdjust="spacing" textLength="57.6" x="390" y="10.4484">CandidateAggregate</text></g><!--cluster JobOfferAggregate--><g id="cluster_JobOfferAggregate"><path d="M3.4,336.0055 L57.8,336.0055 A1.5,1.5 0 0 1 58.8,337.0055 L61.6,345.8539 L403,345.8539 A1,1 0 0 1 404,346.8539 L404,528.2055 A1,1 0 0 1 403,529.2055 L3.4,529.2055 A1,1 0 0 1 2.4,528.2055 L2.4,337.0055 A1,1 0 0 1 3.4,336.0055 " fill="none" style="stroke:#000000;stroke-width:0.6000000000000001;"/><line style="stroke:#000000;stroke-width:0.6000000000000001;" x1="2.4" x2="61.6" y1="345.8539" y2="345.8539"/><text fill="#000000" font-family="sans-serif" font-size="5.6" font-weight="bold" lengthAdjust="spacing" textLength="54" x="4" y="342.8484">JobOfferAggregate</text></g><!--cluster ApplicationAggregate--><g id="cluster_ApplicationAggregate"><path d="M414.6,260.0055 L475.4,260.0055 A1.5,1.5 0 0 1 476.4,261.0055 L479.2,269.8539 L751.8,269.8539 A1,1 0 0 1 752.8,270.8539 L752.8,390.2055 A1,1 0 0 1 751.8,391.2055 L414.6,391.2055 A1,1 0 0 1 413.6,390.2055 L413.6,261.0055 A1,1 0 0 1 414.6,260.0055 " fill="none" style="stroke:#000000;stroke-width:0.6000000000000001;"/><line style="stroke:#000000;stroke-width:0.6000000000000001;" x1="413.6" x2="479.2" y1="269.8539" y2="269.8539"/><text fill="#000000" font-family="sans-serif" font-size="5.6" font-weight="bold" lengthAdjust="spacing" textLength="60.4" x="415.2" y="266.8484">ApplicationAggregate</text></g><!--class CustomerManager--><g id="elem_CustomerManager"><rect codeLine="5" fill="#F1F1F1" height="26.6484" id="CustomerManager" rx="1" ry="1" style="stroke:#181818;stroke-width:0.20000000000000004;" width="59.6" x="235.4" y="25.6055"/><ellipse cx="241.4" cy="32.0055" fill="#ADD1B2" rx="4.4" ry="4.4" style="stroke:#181818;stroke-width:0.4000000000000001;"/><path d="M240.9438,32.3242 L240.9438,33.3242 L242.675,33.3242 L242.675,32.9555 Q242.675,32.7117 242.7688,32.6055 Q242.8688,32.4992 243.0188,32.4992 Q243.1688,32.4992 243.2625,32.6055 Q243.3563,32.7117 243.3563,32.9555 L243.3563,34.0055 L240.1563,34.0055 Q239.9063,34.0055 239.8,33.9117 Q239.7,33.818 239.7,33.6617 Q239.7,33.5117 239.8063,33.418 Q239.9125,33.3242 240.1563,33.3242 L240.2625,33.3242 L240.2625,30.6617 L240.1563,30.6617 Q239.9063,30.6617 239.8,30.568 Q239.7,30.4742 239.7,30.318 Q239.7,30.168 239.8,30.0742 Q239.9063,29.9805 240.1563,29.9805 L243.2063,29.9805 L243.2063,31.018 Q243.2063,31.2617 243.1125,31.368 Q243.025,31.468 242.8688,31.468 Q242.7188,31.468 242.625,31.368 Q242.5313,31.2617 242.5313,31.018 L242.5313,30.6617 L240.9438,30.6617 L240.9438,31.643 L241.5375,31.643 Q241.5375,31.3805 241.5875,31.3055 Q241.6938,31.143 241.8813,31.143 Q242.0313,31.143 242.125,31.2492 Q242.2188,31.3492 242.2188,31.593 L242.2188,32.3805 Q242.2188,32.5992 242.1688,32.6742 Q242.0625,32.8305 241.8813,32.8305 Q241.6938,32.8305 241.5875,32.668 Q241.5375,32.593 241.5375,32.3242 L240.9438,32.3242 Z " fill="#000000"/><text fill="#000000" font-family="sans-serif" font-size="5.6" lengthAdjust="spacing" textLength="46.8" x="247" y="34.3242">CustomerManager</text><line style="stroke:#181818;stroke-width:0.20000000000000004;" x1="235.8" x2="294.6" y1="38.4055" y2="38.4055"/><text fill="#000000" font-family="sans-serif" font-size="5.6" lengthAdjust="spacing" textLength="20" x="237.8" y="46.0484">&#171;entity&#187;</text><line style="stroke:#181818;stroke-width:0.20000000000000004;" x1="235.8" x2="294.6" y1="49.0539" y2="49.0539"/></g><!--class User--><g id="elem_User"><rect codeLine="9" fill="#F1F1F1" height="26.6484" id="User" rx="1" ry="1" style="stroke:#181818;stroke-width:0.20000000000000004;" width="36.4" x="247" y="136.0055"/><ellipse cx="258.4" cy="142.4055" fill="#ADD1B2" rx="4.4" ry="4.4" style="stroke:#181818;stroke-width:0.4000000000000001;"/><path d="M257.9438,142.7242 L257.9438,143.7242 L259.675,143.7242 L259.675,143.3555 Q259.675,143.1117 259.7688,143.0055 Q259.8688,142.8992 260.0188,142.8992 Q260.1688,142.8992 260.2625,143.0055 Q260.3563,143.1117 260.3563,143.3555 L260.3563,144.4055 L257.1563,144.4055 Q256.9063,144.4055 256.8,144.3117 Q256.7,144.218 256.7,144.0617 Q256.7,143.9117 256.8063,143.818 Q256.9125,143.7242 257.1563,143.7242 L257.2625,143.7242 L257.2625,141.0617 L257.1563,141.0617 Q256.9063,141.0617 256.8,140.968 Q256.7,140.8742 256.7,140.718 Q256.7,140.568 256.8,140.4742 Q256.9063,140.3805 257.1563,140.3805 L260.2063,140.3805 L260.2063,141.418 Q260.2063,141.6617 260.1125,141.768 Q260.025,141.868 259.8688,141.868 Q259.7188,141.868 259.625,141.768 Q259.5313,141.6617 259.5313,141.418 L259.5313,141.0617 L257.9438,141.0617 L257.9438,142.043 L258.5375,142.043 Q258.5375,141.7805 258.5875,141.7055 Q258.6938,141.543 258.8813,141.543 Q259.0313,141.543 259.125,141.6492 Q259.2188,141.7492 259.2188,141.993 L259.2188,142.7805 Q259.2188,142.9992 259.1688,143.0742 Q259.0625,143.2305 258.8813,143.2305 Q258.6938,143.2305 258.5875,143.068 Q258.5375,142.993 258.5375,142.7242 L257.9438,142.7242 Z " fill="#000000"/><text fill="#000000" font-family="sans-serif" font-size="5.6" lengthAdjust="spacing" textLength="11.6" x="265.2" y="144.7242">User</text><line style="stroke:#181818;stroke-width:0.20000000000000004;" x1="247.4" x2="283" y1="148.8055" y2="148.8055"/><text fill="#000000" font-family="sans-serif" font-size="5.6" lengthAdjust="spacing" textLength="31.6" x="249.4" y="156.4484">&#171;root entity&#187;</text><line style="stroke:#181818;stroke-width:0.20000000000000004;" x1="247.4" x2="283" y1="159.4539" y2="159.4539"/></g><!--class EmailAddress--><g id="elem_EmailAddress"><rect codeLine="13" fill="#F1F1F1" height="24.2328" id="EmailAddress" rx="1" ry="1" style="stroke:#181818;stroke-width:0.20000000000000004;" width="64.8" x="80.8" y="284.4055"/><ellipse cx="86.8" cy="293.3219" fill="#F09000" rx="4.4" ry="4.4" style="stroke:#181818;stroke-width:0.4000000000000001;"/><path d="M87.0375,294.6281 L88.025,292.2781 L87.8688,292.2781 Q87.625,292.2781 87.5188,292.1844 Q87.4125,292.0906 87.4125,291.9344 Q87.4125,291.7844 87.5188,291.6906 Q87.625,291.5969 87.8688,291.5969 L88.7813,291.5969 Q89.025,291.5969 89.1313,291.6906 Q89.2375,291.7844 89.2375,291.9344 Q89.2375,292.1219 89.075,292.2281 Q89,292.2781 88.7625,292.2781 L87.3688,295.6219 L86.7125,295.6219 L85.3188,292.2781 Q85.0813,292.2781 85.0063,292.2281 Q84.8438,292.1219 84.8438,291.9344 Q84.8438,291.7844 84.95,291.6906 Q85.0563,291.5969 85.3,291.5969 L86.2188,291.5969 Q86.4625,291.5969 86.5625,291.6906 Q86.6688,291.7844 86.6688,291.9344 Q86.6688,292.0906 86.5625,292.1844 Q86.4625,292.2781 86.2188,292.2781 L86.0563,292.2781 L87.0375,294.6281 Z " fill="#000000"/><text fill="#000000" font-family="sans-serif" font-size="4.8" font-style="italic" lengthAdjust="spacing" textLength="53.6" x="91.6" y="291.5852">&#171;Identifier value Object&#187;</text><text fill="#000000" font-family="sans-serif" font-size="5.6" lengthAdjust="spacing" textLength="34.4" x="101.2" y="298.8328">EmailAddress</text><line style="stroke:#181818;stroke-width:0.20000000000000004;" x1="81.2" x2="145.2" y1="302.2383" y2="302.2383"/><line style="stroke:#181818;stroke-width:0.20000000000000004;" x1="81.2" x2="145.2" y1="305.4383" y2="305.4383"/></g><!--class Password--><g id="elem_Password"><rect codeLine="14" fill="#F1F1F1" height="24.2328" id="Password" rx="1" ry="1" style="stroke:#181818;stroke-width:0.20000000000000004;" width="44.4" x="159.8" y="284.4055"/><ellipse cx="165.8" cy="293.3219" fill="#F04800" rx="4.4" ry="4.4" style="stroke:#181818;stroke-width:0.4000000000000001;"/><path d="M166.0375,294.6281 L167.025,292.2781 L166.8688,292.2781 Q166.625,292.2781 166.5188,292.1844 Q166.4125,292.0906 166.4125,291.9344 Q166.4125,291.7844 166.5188,291.6906 Q166.625,291.5969 166.8688,291.5969 L167.7813,291.5969 Q168.025,291.5969 168.1313,291.6906 Q168.2375,291.7844 168.2375,291.9344 Q168.2375,292.1219 168.075,292.2281 Q168,292.2781 167.7625,292.2781 L166.3688,295.6219 L165.7125,295.6219 L164.3188,292.2781 Q164.0813,292.2781 164.0063,292.2281 Q163.8438,292.1219 163.8438,291.9344 Q163.8438,291.7844 163.95,291.6906 Q164.0563,291.5969 164.3,291.5969 L165.2188,291.5969 Q165.4625,291.5969 165.5625,291.6906 Q165.6688,291.7844 165.6688,291.9344 Q165.6688,292.0906 165.5625,292.1844 Q165.4625,292.2781 165.2188,292.2781 L165.0563,292.2781 L166.0375,294.6281 Z " fill="#000000"/><text fill="#000000" font-family="sans-serif" font-size="4.8" font-style="italic" lengthAdjust="spacing" textLength="33.2" x="170.6" y="291.5852">&#171;value Object&#187;</text><text fill="#000000" font-family="sans-serif" font-size="5.6" lengthAdjust="spacing" textLength="24.4" x="175" y="298.8328">Password</text><line style="stroke:#181818;stroke-width:0.20000000000000004;" x1="160.2" x2="203.8" y1="302.2383" y2="302.2383"/><line style="stroke:#181818;stroke-width:0.20000000000000004;" x1="160.2" x2="203.8" y1="305.4383" y2="305.4383"/></g><!--class Role--><g id="elem_Role"><rect codeLine="15" fill="#F1F1F1" height="24.2328" id="Role" rx="1" ry="1" style="stroke:#181818;stroke-width:0.20000000000000004;" width="44.4" x="218.2" y="284.4055"/><ellipse cx="224.2" cy="293.3219" fill="#F04800" rx="4.4" ry="4.4" style="stroke:#181818;stroke-width:0.4000000000000001;"/><path d="M224.4375,294.6281 L225.425,292.2781 L225.2688,292.2781 Q225.025,292.2781 224.9188,292.1844 Q224.8125,292.0906 224.8125,291.9344 Q224.8125,291.7844 224.9188,291.6906 Q225.025,291.5969 225.2688,291.5969 L226.1813,291.5969 Q226.425,291.5969 226.5313,291.6906 Q226.6375,291.7844 226.6375,291.9344 Q226.6375,292.1219 226.475,292.2281 Q226.4,292.2781 226.1625,292.2781 L224.7688,295.6219 L224.1125,295.6219 L222.7188,292.2781 Q222.4813,292.2781 222.4063,292.2281 Q222.2438,292.1219 222.2438,291.9344 Q222.2438,291.7844 222.35,291.6906 Q222.4563,291.5969 222.7,291.5969 L223.6188,291.5969 Q223.8625,291.5969 223.9625,291.6906 Q224.0688,291.7844 224.0688,291.9344 Q224.0688,292.0906 223.9625,292.1844 Q223.8625,292.2781 223.6188,292.2781 L223.4563,292.2781 L224.4375,294.6281 Z " fill="#000000"/><text fill="#000000" font-family="sans-serif" font-size="4.8" font-style="italic" lengthAdjust="spacing" textLength="33.2" x="229" y="291.5852">&#171;value Object&#187;</text><text fill="#000000" font-family="sans-serif" font-size="5.6" lengthAdjust="spacing" textLength="11.6" x="239.8" y="298.8328">Role</text><line style="stroke:#181818;stroke-width:0.20000000000000004;" x1="218.6" x2="262.2" y1="302.2383" y2="302.2383"/><line style="stroke:#181818;stroke-width:0.20000000000000004;" x1="218.6" x2="262.2" y1="305.4383" y2="305.4383"/></g><!--class Name--><g id="elem_Name"><rect codeLine="16" fill="#F1F1F1" height="24.2328" id="Name" rx="1" ry="1" style="stroke:#181818;stroke-width:0.20000000000000004;" width="44.4" x="276.6" y="284.4055"/><ellipse cx="282.6" cy="293.3219" fill="#F04800" rx="4.4" ry="4.4" style="stroke:#181818;stroke-width:0.4000000000000001;"/><path d="M282.8375,294.6281 L283.825,292.2781 L283.6688,292.2781 Q283.425,292.2781 283.3188,292.1844 Q283.2125,292.0906 283.2125,291.9344 Q283.2125,291.7844 283.3188,291.6906 Q283.425,291.5969 283.6688,291.5969 L284.5813,291.5969 Q284.825,291.5969 284.9313,291.6906 Q285.0375,291.7844 285.0375,291.9344 Q285.0375,292.1219 284.875,292.2281 Q284.8,292.2781 284.5625,292.2781 L283.1688,295.6219 L282.5125,295.6219 L281.1188,292.2781 Q280.8813,292.2781 280.8063,292.2281 Q280.6438,292.1219 280.6438,291.9344 Q280.6438,291.7844 280.75,291.6906 Q280.8563,291.5969 281.1,291.5969 L282.0188,291.5969 Q282.2625,291.5969 282.3625,291.6906 Q282.4688,291.7844 282.4688,291.9344 Q282.4688,292.0906 282.3625,292.1844 Q282.2625,292.2781 282.0188,292.2781 L281.8563,292.2781 L282.8375,294.6281 Z " fill="#000000"/><text fill="#000000" font-family="sans-serif" font-size="4.8" font-style="italic" lengthAdjust="spacing" textLength="33.2" x="287.4" y="291.5852">&#171;value Object&#187;</text><text fill="#000000" font-family="sans-serif" font-size="5.6" lengthAdjust="spacing" textLength="14.4" x="296.8" y="298.8328">Name</text><line style="stroke:#181818;stroke-width:0.20000000000000004;" x1="277" x2="320.6" y1="302.2383" y2="302.2383"/><line style="stroke:#181818;stroke-width:0.20000000000000004;" x1="277" x2="320.6" y1="305.4383" y2="305.4383"/></g><!--class Candidate--><g id="elem_Candidate"><rect codeLine="20" fill="#F1F1F1" height="26.6484" id="Candidate" rx="1" ry="1" style="stroke:#181818;stroke-width:0.20000000000000004;" width="38.8" x="413" y="84.0055"/><ellipse cx="419" cy="90.4055" fill="#ADD1B2" rx="4.4" ry="4.4" style="stroke:#181818;stroke-width:0.4000000000000001;"/><path d="M418.5438,90.7242 L418.5438,91.7242 L420.275,91.7242 L420.275,91.3555 Q420.275,91.1117 420.3688,91.0055 Q420.4688,90.8992 420.6188,90.8992 Q420.7688,90.8992 420.8625,91.0055 Q420.9563,91.1117 420.9563,91.3555 L420.9563,92.4055 L417.7563,92.4055 Q417.5063,92.4055 417.4,92.3117 Q417.3,92.218 417.3,92.0617 Q417.3,91.9117 417.4063,91.818 Q417.5125,91.7242 417.7563,91.7242 L417.8625,91.7242 L417.8625,89.0617 L417.7563,89.0617 Q417.5063,89.0617 417.4,88.968 Q417.3,88.8742 417.3,88.718 Q417.3,88.568 417.4,88.4742 Q417.5063,88.3805 417.7563,88.3805 L420.8063,88.3805 L420.8063,89.418 Q420.8063,89.6617 420.7125,89.768 Q420.625,89.868 420.4688,89.868 Q420.3188,89.868 420.225,89.768 Q420.1313,89.6617 420.1313,89.418 L420.1313,89.0617 L418.5438,89.0617 L418.5438,90.043 L419.1375,90.043 Q419.1375,89.7805 419.1875,89.7055 Q419.2938,89.543 419.4813,89.543 Q419.6313,89.543 419.725,89.6492 Q419.8188,89.7492 419.8188,89.993 L419.8188,90.7805 Q419.8188,90.9992 419.7688,91.0742 Q419.6625,91.2305 419.4813,91.2305 Q419.2938,91.2305 419.1875,91.068 Q419.1375,90.993 419.1375,90.7242 L418.5438,90.7242 Z " fill="#000000"/><text fill="#000000" font-family="sans-serif" font-size="5.6" lengthAdjust="spacing" textLength="26" x="424.6" y="92.7242">Candidate</text><line style="stroke:#181818;stroke-width:0.20000000000000004;" x1="413.4" x2="451.4" y1="96.8055" y2="96.8055"/><text fill="#000000" font-family="sans-serif" font-size="5.6" lengthAdjust="spacing" textLength="31.6" x="415.4" y="104.4484">&#171;root entity&#187;</text><line style="stroke:#181818;stroke-width:0.20000000000000004;" x1="413.4" x2="451.4" y1="107.4539" y2="107.4539"/></g><!--class CandidatePhoneNumber--><g id="elem_CandidatePhoneNumber"><rect codeLine="24" fill="#F1F1F1" height="24.2328" id="CandidatePhoneNumber" rx="1" ry="1" style="stroke:#181818;stroke-width:0.20000000000000004;" width="74.8" x="395" y="26.8055"/><ellipse cx="401" cy="35.7219" fill="#F09000" rx="4.4" ry="4.4" style="stroke:#181818;stroke-width:0.4000000000000001;"/><path d="M401.2375,37.0281 L402.225,34.6781 L402.0688,34.6781 Q401.825,34.6781 401.7188,34.5844 Q401.6125,34.4906 401.6125,34.3344 Q401.6125,34.1844 401.7188,34.0906 Q401.825,33.9969 402.0688,33.9969 L402.9813,33.9969 Q403.225,33.9969 403.3313,34.0906 Q403.4375,34.1844 403.4375,34.3344 Q403.4375,34.5219 403.275,34.6281 Q403.2,34.6781 402.9625,34.6781 L401.5688,38.0219 L400.9125,38.0219 L399.5188,34.6781 Q399.2813,34.6781 399.2063,34.6281 Q399.0438,34.5219 399.0438,34.3344 Q399.0438,34.1844 399.15,34.0906 Q399.2563,33.9969 399.5,33.9969 L400.4188,33.9969 Q400.6625,33.9969 400.7625,34.0906 Q400.8688,34.1844 400.8688,34.3344 Q400.8688,34.4906 400.7625,34.5844 Q400.6625,34.6781 400.4188,34.6781 L400.2563,34.6781 L401.2375,37.0281 Z " fill="#000000"/><text fill="#000000" font-family="sans-serif" font-size="4.8" font-style="italic" lengthAdjust="spacing" textLength="50.4" x="412.4" y="33.9852">&#171;Identity value Object&#187;</text><text fill="#000000" font-family="sans-serif" font-size="5.6" lengthAdjust="spacing" textLength="62" x="406.6" y="41.2328">CandidatePhoneNumber</text><line style="stroke:#181818;stroke-width:0.20000000000000004;" x1="395.4" x2="469.4" y1="44.6383" y2="44.6383"/><line style="stroke:#181818;stroke-width:0.20000000000000004;" x1="395.4" x2="469.4" y1="47.8383" y2="47.8383"/></g><!--class JobOffer--><g id="elem_JobOffer"><rect codeLine="29" fill="#F1F1F1" height="26.6484" id="JobOffer" rx="1" ry="1" style="stroke:#181818;stroke-width:0.20000000000000004;" width="36.4" x="280.2" y="359.2055"/><ellipse cx="287.1" cy="365.6055" fill="#ADD1B2" rx="4.4" ry="4.4" style="stroke:#181818;stroke-width:0.4000000000000001;"/><path d="M286.6438,365.9242 L286.6438,366.9242 L288.375,366.9242 L288.375,366.5555 Q288.375,366.3117 288.4688,366.2055 Q288.5688,366.0992 288.7188,366.0992 Q288.8688,366.0992 288.9625,366.2055 Q289.0563,366.3117 289.0563,366.5555 L289.0563,367.6055 L285.8563,367.6055 Q285.6063,367.6055 285.5,367.5117 Q285.4,367.418 285.4,367.2617 Q285.4,367.1117 285.5063,367.018 Q285.6125,366.9242 285.8563,366.9242 L285.9625,366.9242 L285.9625,364.2617 L285.8563,364.2617 Q285.6063,364.2617 285.5,364.168 Q285.4,364.0742 285.4,363.918 Q285.4,363.768 285.5,363.6742 Q285.6063,363.5805 285.8563,363.5805 L288.9063,363.5805 L288.9063,364.618 Q288.9063,364.8617 288.8125,364.968 Q288.725,365.068 288.5688,365.068 Q288.4188,365.068 288.325,364.968 Q288.2313,364.8617 288.2313,364.618 L288.2313,364.2617 L286.6438,364.2617 L286.6438,365.243 L287.2375,365.243 Q287.2375,364.9805 287.2875,364.9055 Q287.3938,364.743 287.5813,364.743 Q287.7313,364.743 287.825,364.8492 Q287.9188,364.9492 287.9188,365.193 L287.9188,365.9805 Q287.9188,366.1992 287.8688,366.2742 Q287.7625,366.4305 287.5813,366.4305 Q287.3938,366.4305 287.2875,366.268 Q287.2375,366.193 287.2375,365.9242 L286.6438,365.9242 Z " fill="#000000"/><text fill="#000000" font-family="sans-serif" font-size="5.6" lengthAdjust="spacing" textLength="21.6" x="292.9" y="367.9242">JobOffer</text><line style="stroke:#181818;stroke-width:0.20000000000000004;" x1="280.6" x2="316.2" y1="372.0055" y2="372.0055"/><text fill="#000000" font-family="sans-serif" font-size="5.6" lengthAdjust="spacing" textLength="31.6" x="282.6" y="379.6484">&#171;root entity&#187;</text><line style="stroke:#181818;stroke-width:0.20000000000000004;" x1="280.6" x2="316.2" y1="382.6539" y2="382.6539"/></g><!--class JobRefCode--><g id="elem_JobRefCode"><rect codeLine="33" fill="#F1F1F1" height="24.2328" id="JobRefCode" rx="1" ry="1" style="stroke:#181818;stroke-width:0.20000000000000004;" width="64.8" x="8.8" y="498.4055"/><ellipse cx="14.8" cy="507.3219" fill="#F09000" rx="4.4" ry="4.4" style="stroke:#181818;stroke-width:0.4000000000000001;"/><path d="M15.0375,508.6281 L16.025,506.2781 L15.8688,506.2781 Q15.625,506.2781 15.5188,506.1844 Q15.4125,506.0906 15.4125,505.9344 Q15.4125,505.7844 15.5188,505.6906 Q15.625,505.5969 15.8688,505.5969 L16.7813,505.5969 Q17.025,505.5969 17.1313,505.6906 Q17.2375,505.7844 17.2375,505.9344 Q17.2375,506.1219 17.075,506.2281 Q17,506.2781 16.7625,506.2781 L15.3688,509.6219 L14.7125,509.6219 L13.3188,506.2781 Q13.0813,506.2781 13.0063,506.2281 Q12.8438,506.1219 12.8438,505.9344 Q12.8438,505.7844 12.95,505.6906 Q13.0563,505.5969 13.3,505.5969 L14.2188,505.5969 Q14.4625,505.5969 14.5625,505.6906 Q14.6688,505.7844 14.6688,505.9344 Q14.6688,506.0906 14.5625,506.1844 Q14.4625,506.2781 14.2188,506.2781 L14.0563,506.2781 L15.0375,508.6281 Z " fill="#000000"/><text fill="#000000" font-family="sans-serif" font-size="4.8" font-style="italic" lengthAdjust="spacing" textLength="53.6" x="19.6" y="505.5852">&#171;Identifier value Object&#187;</text><text fill="#000000" font-family="sans-serif" font-size="5.6" lengthAdjust="spacing" textLength="31.2" x="30.8" y="512.8328">JobRefCode</text><line style="stroke:#181818;stroke-width:0.20000000000000004;" x1="9.2" x2="73.2" y1="516.2383" y2="516.2383"/><line style="stroke:#181818;stroke-width:0.20000000000000004;" x1="9.2" x2="73.2" y1="519.4383" y2="519.4383"/></g><!--class JobTitle--><g id="elem_JobTitle"><rect codeLine="34" fill="#F1F1F1" height="24.2328" id="JobTitle" rx="1" ry="1" style="stroke:#181818;stroke-width:0.20000000000000004;" width="44.4" x="87.8" y="498.4055"/><ellipse cx="93.8" cy="507.3219" fill="#F04800" rx="4.4" ry="4.4" style="stroke:#181818;stroke-width:0.4000000000000001;"/><path d="M94.0375,508.6281 L95.025,506.2781 L94.8688,506.2781 Q94.625,506.2781 94.5188,506.1844 Q94.4125,506.0906 94.4125,505.9344 Q94.4125,505.7844 94.5188,505.6906 Q94.625,505.5969 94.8688,505.5969 L95.7813,505.5969 Q96.025,505.5969 96.1313,505.6906 Q96.2375,505.7844 96.2375,505.9344 Q96.2375,506.1219 96.075,506.2281 Q96,506.2781 95.7625,506.2781 L94.3688,509.6219 L93.7125,509.6219 L92.3188,506.2781 Q92.0813,506.2781 92.0063,506.2281 Q91.8438,506.1219 91.8438,505.9344 Q91.8438,505.7844 91.95,505.6906 Q92.0563,505.5969 92.3,505.5969 L93.2188,505.5969 Q93.4625,505.5969 93.5625,505.6906 Q93.6688,505.7844 93.6688,505.9344 Q93.6688,506.0906 93.5625,506.1844 Q93.4625,506.2781 93.2188,506.2781 L93.0563,506.2781 L94.0375,508.6281 Z " fill="#000000"/><text fill="#000000" font-family="sans-serif" font-size="4.8" font-style="italic" lengthAdjust="spacing" textLength="33.2" x="98.6" y="505.5852">&#171;value Object&#187;</text><text fill="#000000" font-family="sans-serif" font-size="5.6" lengthAdjust="spacing" textLength="19.6" x="105.4" y="512.8328">JobTitle</text><line style="stroke:#181818;stroke-width:0.20000000000000004;" x1="88.2" x2="131.8" y1="516.2383" y2="516.2383"/><line style="stroke:#181818;stroke-width:0.20000000000000004;" x1="88.2" x2="131.8" y1="519.4383" y2="519.4383"/></g><!--class ContractType--><g id="elem_ContractType"><rect codeLine="35" fill="#F1F1F1" height="24.2328" id="ContractType" rx="1" ry="1" style="stroke:#181818;stroke-width:0.20000000000000004;" width="47.2" x="146.4" y="498.4055"/><ellipse cx="152.4" cy="507.3219" fill="#F04800" rx="4.4" ry="4.4" style="stroke:#181818;stroke-width:0.4000000000000001;"/><path d="M152.6375,508.6281 L153.625,506.2781 L153.4688,506.2781 Q153.225,506.2781 153.1188,506.1844 Q153.0125,506.0906 153.0125,505.9344 Q153.0125,505.7844 153.1188,505.6906 Q153.225,505.5969 153.4688,505.5969 L154.3813,505.5969 Q154.625,505.5969 154.7313,505.6906 Q154.8375,505.7844 154.8375,505.9344 Q154.8375,506.1219 154.675,506.2281 Q154.6,506.2781 154.3625,506.2781 L152.9688,509.6219 L152.3125,509.6219 L150.9188,506.2781 Q150.6813,506.2781 150.6063,506.2281 Q150.4438,506.1219 150.4438,505.9344 Q150.4438,505.7844 150.55,505.6906 Q150.6563,505.5969 150.9,505.5969 L151.8188,505.5969 Q152.0625,505.5969 152.1625,505.6906 Q152.2688,505.7844 152.2688,505.9344 Q152.2688,506.0906 152.1625,506.1844 Q152.0625,506.2781 151.8188,506.2781 L151.6563,506.2781 L152.6375,508.6281 Z " fill="#000000"/><text fill="#000000" font-family="sans-serif" font-size="4.8" font-style="italic" lengthAdjust="spacing" textLength="33.2" x="158.6" y="505.5852">&#171;value Object&#187;</text><text fill="#000000" font-family="sans-serif" font-size="5.6" lengthAdjust="spacing" textLength="34.4" x="158" y="512.8328">ContractType</text><line style="stroke:#181818;stroke-width:0.20000000000000004;" x1="146.8" x2="193.2" y1="516.2383" y2="516.2383"/><line style="stroke:#181818;stroke-width:0.20000000000000004;" x1="146.8" x2="193.2" y1="519.4383" y2="519.4383"/></g><!--class JobMode--><g id="elem_JobMode"><rect codeLine="36" fill="#F1F1F1" height="24.2328" id="JobMode" rx="1" ry="1" style="stroke:#181818;stroke-width:0.20000000000000004;" width="44.4" x="207.8" y="498.4055"/><ellipse cx="213.8" cy="507.3219" fill="#F04800" rx="4.4" ry="4.4" style="stroke:#181818;stroke-width:0.4000000000000001;"/><path d="M214.0375,508.6281 L215.025,506.2781 L214.8688,506.2781 Q214.625,506.2781 214.5188,506.1844 Q214.4125,506.0906 214.4125,505.9344 Q214.4125,505.7844 214.5188,505.6906 Q214.625,505.5969 214.8688,505.5969 L215.7813,505.5969 Q216.025,505.5969 216.1313,505.6906 Q216.2375,505.7844 216.2375,505.9344 Q216.2375,506.1219 216.075,506.2281 Q216,506.2781 215.7625,506.2781 L214.3688,509.6219 L213.7125,509.6219 L212.3188,506.2781 Q212.0813,506.2781 212.0063,506.2281 Q211.8438,506.1219 211.8438,505.9344 Q211.8438,505.7844 211.95,505.6906 Q212.0563,505.5969 212.3,505.5969 L213.2188,505.5969 Q213.4625,505.5969 213.5625,505.6906 Q213.6688,505.7844 213.6688,505.9344 Q213.6688,506.0906 213.5625,506.1844 Q213.4625,506.2781 213.2188,506.2781 L213.0563,506.2781 L214.0375,508.6281 Z " fill="#000000"/><text fill="#000000" font-family="sans-serif" font-size="4.8" font-style="italic" lengthAdjust="spacing" textLength="33.2" x="218.6" y="505.5852">&#171;value Object&#187;</text><text fill="#000000" font-family="sans-serif" font-size="5.6" lengthAdjust="spacing" textLength="22.8" x="223.8" y="512.8328">JobMode</text><line style="stroke:#181818;stroke-width:0.20000000000000004;" x1="208.2" x2="251.8" y1="516.2383" y2="516.2383"/><line style="stroke:#181818;stroke-width:0.20000000000000004;" x1="208.2" x2="251.8" y1="519.4383" y2="519.4383"/></g><!--class NumberOfVacancies--><g id="elem_NumberOfVacancies"><rect codeLine="37" fill="#F1F1F1" height="24.2328" id="NumberOfVacancies" rx="1" ry="1" style="stroke:#181818;stroke-width:0.20000000000000004;" width="64.4" x="266.2" y="498.4055"/><ellipse cx="272.2" cy="507.3219" fill="#F04800" rx="4.4" ry="4.4" style="stroke:#181818;stroke-width:0.4000000000000001;"/><path d="M272.4375,508.6281 L273.425,506.2781 L273.2688,506.2781 Q273.025,506.2781 272.9188,506.1844 Q272.8125,506.0906 272.8125,505.9344 Q272.8125,505.7844 272.9188,505.6906 Q273.025,505.5969 273.2688,505.5969 L274.1813,505.5969 Q274.425,505.5969 274.5313,505.6906 Q274.6375,505.7844 274.6375,505.9344 Q274.6375,506.1219 274.475,506.2281 Q274.4,506.2781 274.1625,506.2781 L272.7688,509.6219 L272.1125,509.6219 L270.7188,506.2781 Q270.4813,506.2781 270.4063,506.2281 Q270.2438,506.1219 270.2438,505.9344 Q270.2438,505.7844 270.35,505.6906 Q270.4563,505.5969 270.7,505.5969 L271.6188,505.5969 Q271.8625,505.5969 271.9625,505.6906 Q272.0688,505.7844 272.0688,505.9344 Q272.0688,506.0906 271.9625,506.1844 Q271.8625,506.2781 271.6188,506.2781 L271.4563,506.2781 L272.4375,508.6281 Z " fill="#000000"/><text fill="#000000" font-family="sans-serif" font-size="4.8" font-style="italic" lengthAdjust="spacing" textLength="33.2" x="287" y="505.5852">&#171;value Object&#187;</text><text fill="#000000" font-family="sans-serif" font-size="5.6" lengthAdjust="spacing" textLength="51.6" x="277.8" y="512.8328">NumberOfVacancies</text><line style="stroke:#181818;stroke-width:0.20000000000000004;" x1="266.6" x2="330.2" y1="516.2383" y2="516.2383"/><line style="stroke:#181818;stroke-width:0.20000000000000004;" x1="266.6" x2="330.2" y1="519.4383" y2="519.4383"/></g><!--class JobsDescription--><g id="elem_JobsDescription"><rect codeLine="38" fill="#F1F1F1" height="24.2328" id="JobsDescription" rx="1" ry="1" style="stroke:#181818;stroke-width:0.20000000000000004;" width="52.8" x="344.8" y="498.4055"/><ellipse cx="350.8" cy="507.3219" fill="#F04800" rx="4.4" ry="4.4" style="stroke:#181818;stroke-width:0.4000000000000001;"/><path d="M351.0375,508.6281 L352.025,506.2781 L351.8688,506.2781 Q351.625,506.2781 351.5188,506.1844 Q351.4125,506.0906 351.4125,505.9344 Q351.4125,505.7844 351.5188,505.6906 Q351.625,505.5969 351.8688,505.5969 L352.7813,505.5969 Q353.025,505.5969 353.1313,505.6906 Q353.2375,505.7844 353.2375,505.9344 Q353.2375,506.1219 353.075,506.2281 Q353,506.2781 352.7625,506.2781 L351.3688,509.6219 L350.7125,509.6219 L349.3188,506.2781 Q349.0813,506.2781 349.0063,506.2281 Q348.8438,506.1219 348.8438,505.9344 Q348.8438,505.7844 348.95,505.6906 Q349.0563,505.5969 349.3,505.5969 L350.2188,505.5969 Q350.4625,505.5969 350.5625,505.6906 Q350.6688,505.7844 350.6688,505.9344 Q350.6688,506.0906 350.5625,506.1844 Q350.4625,506.2781 350.2188,506.2781 L350.0563,506.2781 L351.0375,508.6281 Z " fill="#000000"/><text fill="#000000" font-family="sans-serif" font-size="4.8" font-style="italic" lengthAdjust="spacing" textLength="33.2" x="359.8" y="505.5852">&#171;value Object&#187;</text><text fill="#000000" font-family="sans-serif" font-size="5.6" lengthAdjust="spacing" textLength="40" x="356.4" y="512.8328">JobsDescription</text><line style="stroke:#181818;stroke-width:0.20000000000000004;" x1="345.2" x2="397.2" y1="516.2383" y2="516.2383"/><line style="stroke:#181818;stroke-width:0.20000000000000004;" x1="345.2" x2="397.2" y1="519.4383" y2="519.4383"/></g><!--class Application--><g id="elem_Application"><rect codeLine="43" fill="#F1F1F1" height="26.6484" id="Application" rx="1" ry="1" style="stroke:#181818;stroke-width:0.20000000000000004;" width="40.4" x="515.4" y="283.2055"/><ellipse cx="521.4" cy="289.6055" fill="#ADD1B2" rx="4.4" ry="4.4" style="stroke:#181818;stroke-width:0.4000000000000001;"/><path d="M520.9438,289.9242 L520.9438,290.9242 L522.675,290.9242 L522.675,290.5555 Q522.675,290.3117 522.7688,290.2055 Q522.8688,290.0992 523.0188,290.0992 Q523.1688,290.0992 523.2625,290.2055 Q523.3563,290.3117 523.3563,290.5555 L523.3563,291.6055 L520.1563,291.6055 Q519.9063,291.6055 519.8,291.5117 Q519.7,291.418 519.7,291.2617 Q519.7,291.1117 519.8063,291.018 Q519.9125,290.9242 520.1563,290.9242 L520.2625,290.9242 L520.2625,288.2617 L520.1563,288.2617 Q519.9063,288.2617 519.8,288.168 Q519.7,288.0742 519.7,287.918 Q519.7,287.768 519.8,287.6742 Q519.9063,287.5805 520.1563,287.5805 L523.2063,287.5805 L523.2063,288.618 Q523.2063,288.8617 523.1125,288.968 Q523.025,289.068 522.8688,289.068 Q522.7188,289.068 522.625,288.968 Q522.5313,288.8617 522.5313,288.618 L522.5313,288.2617 L520.9438,288.2617 L520.9438,289.243 L521.5375,289.243 Q521.5375,288.9805 521.5875,288.9055 Q521.6938,288.743 521.8813,288.743 Q522.0313,288.743 522.125,288.8492 Q522.2188,288.9492 522.2188,289.193 L522.2188,289.9805 Q522.2188,290.1992 522.1688,290.2742 Q522.0625,290.4305 521.8813,290.4305 Q521.6938,290.4305 521.5875,290.268 Q521.5375,290.193 521.5375,289.9242 L520.9438,289.9242 Z " fill="#000000"/><text fill="#000000" font-family="sans-serif" font-size="5.6" lengthAdjust="spacing" textLength="27.6" x="527" y="291.9242">Application</text><line style="stroke:#181818;stroke-width:0.20000000000000004;" x1="515.8" x2="555.4" y1="296.0055" y2="296.0055"/><text fill="#000000" font-family="sans-serif" font-size="5.6" lengthAdjust="spacing" textLength="31.6" x="517.8" y="303.6484">&#171;root entity&#187;</text><line style="stroke:#181818;stroke-width:0.20000000000000004;" x1="515.8" x2="555.4" y1="306.6539" y2="306.6539"/></g><!--class ApplicationAttachedFile--><g id="elem_ApplicationAttachedFile"><rect codeLine="47" fill="#F1F1F1" height="24.2328" id="ApplicationAttachedFile" rx="1" ry="1" style="stroke:#181818;stroke-width:0.20000000000000004;" width="72" x="420" y="360.4055"/><ellipse cx="426" cy="369.3219" fill="#F04800" rx="4.4" ry="4.4" style="stroke:#181818;stroke-width:0.4000000000000001;"/><path d="M426.2375,370.6281 L427.225,368.2781 L427.0688,368.2781 Q426.825,368.2781 426.7188,368.1844 Q426.6125,368.0906 426.6125,367.9344 Q426.6125,367.7844 426.7188,367.6906 Q426.825,367.5969 427.0688,367.5969 L427.9813,367.5969 Q428.225,367.5969 428.3313,367.6906 Q428.4375,367.7844 428.4375,367.9344 Q428.4375,368.1219 428.275,368.2281 Q428.2,368.2781 427.9625,368.2781 L426.5688,371.6219 L425.9125,371.6219 L424.5188,368.2781 Q424.2813,368.2781 424.2063,368.2281 Q424.0438,368.1219 424.0438,367.9344 Q424.0438,367.7844 424.15,367.6906 Q424.2563,367.5969 424.5,367.5969 L425.4188,367.5969 Q425.6625,367.5969 425.7625,367.6906 Q425.8688,367.7844 425.8688,367.9344 Q425.8688,368.0906 425.7625,368.1844 Q425.6625,368.2781 425.4188,368.2781 L425.2563,368.2781 L426.2375,370.6281 Z " fill="#000000"/><text fill="#000000" font-family="sans-serif" font-size="4.8" font-style="italic" lengthAdjust="spacing" textLength="33.2" x="444.6" y="367.5852">&#171;value Object&#187;</text><text fill="#000000" font-family="sans-serif" font-size="5.6" lengthAdjust="spacing" textLength="59.2" x="431.6" y="374.8328">ApplicationAttachedFile</text><line style="stroke:#181818;stroke-width:0.20000000000000004;" x1="420.4" x2="491.6" y1="378.2383" y2="378.2383"/><line style="stroke:#181818;stroke-width:0.20000000000000004;" x1="420.4" x2="491.6" y1="381.4383" y2="381.4383"/></g><!--class ApplicationRefCode--><g id="elem_ApplicationRefCode"><rect codeLine="48" fill="#F1F1F1" height="24.2328" id="ApplicationRefCode" rx="1" ry="1" style="stroke:#181818;stroke-width:0.20000000000000004;" width="64.8" x="506" y="360.4055"/><ellipse cx="512" cy="369.3219" fill="#F09000" rx="4.4" ry="4.4" style="stroke:#181818;stroke-width:0.4000000000000001;"/><path d="M512.2375,370.6281 L513.225,368.2781 L513.0688,368.2781 Q512.825,368.2781 512.7188,368.1844 Q512.6125,368.0906 512.6125,367.9344 Q512.6125,367.7844 512.7188,367.6906 Q512.825,367.5969 513.0688,367.5969 L513.9813,367.5969 Q514.225,367.5969 514.3313,367.6906 Q514.4375,367.7844 514.4375,367.9344 Q514.4375,368.1219 514.275,368.2281 Q514.2,368.2781 513.9625,368.2781 L512.5688,371.6219 L511.9125,371.6219 L510.5188,368.2781 Q510.2813,368.2781 510.2063,368.2281 Q510.0438,368.1219 510.0438,367.9344 Q510.0438,367.7844 510.15,367.6906 Q510.2563,367.5969 510.5,367.5969 L511.4188,367.5969 Q511.6625,367.5969 511.7625,367.6906 Q511.8688,367.7844 511.8688,367.9344 Q511.8688,368.0906 511.7625,368.1844 Q511.6625,368.2781 511.4188,368.2781 L511.2563,368.2781 L512.2375,370.6281 Z " fill="#000000"/><text fill="#000000" font-family="sans-serif" font-size="4.8" font-style="italic" lengthAdjust="spacing" textLength="53.6" x="516.8" y="367.5852">&#171;Identifier value Object&#187;</text><text fill="#000000" font-family="sans-serif" font-size="5.6" lengthAdjust="spacing" textLength="50" x="518.6" y="374.8328">ApplicationRefCode</text><line style="stroke:#181818;stroke-width:0.20000000000000004;" x1="506.4" x2="570.4" y1="378.2383" y2="378.2383"/><line style="stroke:#181818;stroke-width:0.20000000000000004;" x1="506.4" x2="570.4" y1="381.4383" y2="381.4383"/></g><!--class ApplicationAttachedFilesLocation--><g id="elem_ApplicationAttachedFilesLocation"><rect codeLine="49" fill="#F1F1F1" height="24.2328" id="ApplicationAttachedFilesLocation" rx="1" ry="1" style="stroke:#181818;stroke-width:0.20000000000000004;" width="96.4" x="585" y="360.4055"/><ellipse cx="591" cy="369.3219" fill="#F04800" rx="4.4" ry="4.4" style="stroke:#181818;stroke-width:0.4000000000000001;"/><path d="M591.2375,370.6281 L592.225,368.2781 L592.0688,368.2781 Q591.825,368.2781 591.7188,368.1844 Q591.6125,368.0906 591.6125,367.9344 Q591.6125,367.7844 591.7188,367.6906 Q591.825,367.5969 592.0688,367.5969 L592.9813,367.5969 Q593.225,367.5969 593.3313,367.6906 Q593.4375,367.7844 593.4375,367.9344 Q593.4375,368.1219 593.275,368.2281 Q593.2,368.2781 592.9625,368.2781 L591.5688,371.6219 L590.9125,371.6219 L589.5188,368.2781 Q589.2813,368.2781 589.2063,368.2281 Q589.0438,368.1219 589.0438,367.9344 Q589.0438,367.7844 589.15,367.6906 Q589.2563,367.5969 589.5,367.5969 L590.4188,367.5969 Q590.6625,367.5969 590.7625,367.6906 Q590.8688,367.7844 590.8688,367.9344 Q590.8688,368.0906 590.7625,368.1844 Q590.6625,368.2781 590.4188,368.2781 L590.2563,368.2781 L591.2375,370.6281 Z " fill="#000000"/><text fill="#000000" font-family="sans-serif" font-size="4.8" font-style="italic" lengthAdjust="spacing" textLength="33.2" x="621.8" y="367.5852">&#171;value Object&#187;</text><text fill="#000000" font-family="sans-serif" font-size="5.6" lengthAdjust="spacing" textLength="83.6" x="596.6" y="374.8328">ApplicationAttachedFilesLocation</text><line style="stroke:#181818;stroke-width:0.20000000000000004;" x1="585.4" x2="681" y1="378.2383" y2="378.2383"/><line style="stroke:#181818;stroke-width:0.20000000000000004;" x1="585.4" x2="681" y1="381.4383" y2="381.4383"/></g><!--class InterviewGrade--><g id="elem_InterviewGrade"><rect codeLine="50" fill="#F1F1F1" height="24.2328" id="InterviewGrade" rx="1" ry="1" style="stroke:#181818;stroke-width:0.20000000000000004;" width="50.8" x="695.4" y="360.4055"/><ellipse cx="701.4" cy="369.3219" fill="#F04800" rx="4.4" ry="4.4" style="stroke:#181818;stroke-width:0.4000000000000001;"/><path d="M701.6375,370.6281 L702.625,368.2781 L702.4688,368.2781 Q702.225,368.2781 702.1188,368.1844 Q702.0125,368.0906 702.0125,367.9344 Q702.0125,367.7844 702.1188,367.6906 Q702.225,367.5969 702.4688,367.5969 L703.3813,367.5969 Q703.625,367.5969 703.7313,367.6906 Q703.8375,367.7844 703.8375,367.9344 Q703.8375,368.1219 703.675,368.2281 Q703.6,368.2781 703.3625,368.2781 L701.9688,371.6219 L701.3125,371.6219 L699.9188,368.2781 Q699.6813,368.2781 699.6063,368.2281 Q699.4438,368.1219 699.4438,367.9344 Q699.4438,367.7844 699.55,367.6906 Q699.6563,367.5969 699.9,367.5969 L700.8188,367.5969 Q701.0625,367.5969 701.1625,367.6906 Q701.2688,367.7844 701.2688,367.9344 Q701.2688,368.0906 701.1625,368.1844 Q701.0625,368.2781 700.8188,368.2781 L700.6563,368.2781 L701.6375,370.6281 Z " fill="#000000"/><text fill="#000000" font-family="sans-serif" font-size="4.8" font-style="italic" lengthAdjust="spacing" textLength="33.2" x="709.4" y="367.5852">&#171;value Object&#187;</text><text fill="#000000" font-family="sans-serif" font-size="5.6" lengthAdjust="spacing" textLength="38" x="707" y="374.8328">InterviewGrade</text><line style="stroke:#181818;stroke-width:0.20000000000000004;" x1="695.8" x2="745.8" y1="378.2383" y2="378.2383"/><line style="stroke:#181818;stroke-width:0.20000000000000004;" x1="695.8" x2="745.8" y1="381.4383" y2="381.4383"/></g><!--class ApplicationState--><g id="elem_ApplicationState"><rect codeLine="51" fill="#F1F1F1" height="24.2328" id="ApplicationState" rx="1" ry="1" style="stroke:#181818;stroke-width:0.20000000000000004;" width="53.6" x="422.4" y="284.4055"/><ellipse cx="428.4" cy="293.3219" fill="#F04800" rx="4.4" ry="4.4" style="stroke:#181818;stroke-width:0.4000000000000001;"/><path d="M428.6375,294.6281 L429.625,292.2781 L429.4688,292.2781 Q429.225,292.2781 429.1188,292.1844 Q429.0125,292.0906 429.0125,291.9344 Q429.0125,291.7844 429.1188,291.6906 Q429.225,291.5969 429.4688,291.5969 L430.3813,291.5969 Q430.625,291.5969 430.7313,291.6906 Q430.8375,291.7844 430.8375,291.9344 Q430.8375,292.1219 430.675,292.2281 Q430.6,292.2781 430.3625,292.2781 L428.9688,295.6219 L428.3125,295.6219 L426.9188,292.2781 Q426.6813,292.2781 426.6063,292.2281 Q426.4438,292.1219 426.4438,291.9344 Q426.4438,291.7844 426.55,291.6906 Q426.6563,291.5969 426.9,291.5969 L427.8188,291.5969 Q428.0625,291.5969 428.1625,291.6906 Q428.2688,291.7844 428.2688,291.9344 Q428.2688,292.0906 428.1625,292.1844 Q428.0625,292.2781 427.8188,292.2781 L427.6563,292.2781 L428.6375,294.6281 Z " fill="#000000"/><text fill="#000000" font-family="sans-serif" font-size="4.8" font-style="italic" lengthAdjust="spacing" textLength="33.2" x="437.8" y="291.5852">&#171;value Object&#187;</text><text fill="#000000" font-family="sans-serif" font-size="5.6" lengthAdjust="spacing" textLength="40.8" x="434" y="298.8328">ApplicationState</text><line style="stroke:#181818;stroke-width:0.20000000000000004;" x1="422.8" x2="475.6" y1="302.2383" y2="302.2383"/><line style="stroke:#181818;stroke-width:0.20000000000000004;" x1="422.8" x2="475.6" y1="305.4383" y2="305.4383"/></g><!--class ApplicationEmail--><g id="elem_ApplicationEmail"><rect codeLine="52" fill="#F1F1F1" height="24.2328" id="ApplicationEmail" rx="1" ry="1" style="stroke:#181818;stroke-width:0.20000000000000004;" width="54" x="656.6" y="284.4055"/><ellipse cx="662.6" cy="293.3219" fill="#F04800" rx="4.4" ry="4.4" style="stroke:#181818;stroke-width:0.4000000000000001;"/><path d="M662.8375,294.6281 L663.825,292.2781 L663.6688,292.2781 Q663.425,292.2781 663.3188,292.1844 Q663.2125,292.0906 663.2125,291.9344 Q663.2125,291.7844 663.3188,291.6906 Q663.425,291.5969 663.6688,291.5969 L664.5813,291.5969 Q664.825,291.5969 664.9313,291.6906 Q665.0375,291.7844 665.0375,291.9344 Q665.0375,292.1219 664.875,292.2281 Q664.8,292.2781 664.5625,292.2781 L663.1688,295.6219 L662.5125,295.6219 L661.1188,292.2781 Q660.8813,292.2781 660.8063,292.2281 Q660.6438,292.1219 660.6438,291.9344 Q660.6438,291.7844 660.75,291.6906 Q660.8563,291.5969 661.1,291.5969 L662.0188,291.5969 Q662.2625,291.5969 662.3625,291.6906 Q662.4688,291.7844 662.4688,291.9344 Q662.4688,292.0906 662.3625,292.1844 Q662.2625,292.2781 662.0188,292.2781 L661.8563,292.2781 L662.8375,294.6281 Z " fill="#000000"/><text fill="#000000" font-family="sans-serif" font-size="4.8" font-style="italic" lengthAdjust="spacing" textLength="33.2" x="672.2" y="291.5852">&#171;value Object&#187;</text><text fill="#000000" font-family="sans-serif" font-size="5.6" lengthAdjust="spacing" textLength="41.2" x="668.2" y="298.8328">ApplicationEmail</text><line style="stroke:#181818;stroke-width:0.20000000000000004;" x1="657" x2="710.2" y1="302.2383" y2="302.2383"/><line style="stroke:#181818;stroke-width:0.20000000000000004;" x1="657" x2="710.2" y1="305.4383" y2="305.4383"/></g><!--class Rank--><g id="elem_Rank"><rect codeLine="53" fill="#F1F1F1" height="24.2328" id="Rank" rx="1" ry="1" style="stroke:#181818;stroke-width:0.20000000000000004;" width="44.4" x="598.2" y="284.4055"/><ellipse cx="604.2" cy="293.3219" fill="#F04800" rx="4.4" ry="4.4" style="stroke:#181818;stroke-width:0.4000000000000001;"/><path d="M604.4375,294.6281 L605.425,292.2781 L605.2688,292.2781 Q605.025,292.2781 604.9188,292.1844 Q604.8125,292.0906 604.8125,291.9344 Q604.8125,291.7844 604.9188,291.6906 Q605.025,291.5969 605.2688,291.5969 L606.1813,291.5969 Q606.425,291.5969 606.5313,291.6906 Q606.6375,291.7844 606.6375,291.9344 Q606.6375,292.1219 606.475,292.2281 Q606.4,292.2781 606.1625,292.2781 L604.7688,295.6219 L604.1125,295.6219 L602.7188,292.2781 Q602.4813,292.2781 602.4063,292.2281 Q602.2438,292.1219 602.2438,291.9344 Q602.2438,291.7844 602.35,291.6906 Q602.4563,291.5969 602.7,291.5969 L603.6188,291.5969 Q603.8625,291.5969 603.9625,291.6906 Q604.0688,291.7844 604.0688,291.9344 Q604.0688,292.0906 603.9625,292.1844 Q603.8625,292.2781 603.6188,292.2781 L603.4563,292.2781 L604.4375,294.6281 Z " fill="#000000"/><text fill="#000000" font-family="sans-serif" font-size="4.8" font-style="italic" lengthAdjust="spacing" textLength="33.2" x="609" y="291.5852">&#171;value Object&#187;</text><text fill="#000000" font-family="sans-serif" font-size="5.6" lengthAdjust="spacing" textLength="13.2" x="619" y="298.8328">Rank</text><line style="stroke:#181818;stroke-width:0.20000000000000004;" x1="598.6" x2="642.2" y1="302.2383" y2="302.2383"/><line style="stroke:#181818;stroke-width:0.20000000000000004;" x1="598.6" x2="642.2" y1="305.4383" y2="305.4383"/></g><!--class Address--><g id="elem_Address"><rect codeLine="55" fill="#F1F1F1" height="24.2328" id="Address" rx="1" ry="1" style="stroke:#181818;stroke-width:0.20000000000000004;" width="44.4" x="410.6" y="417.6055"/><ellipse cx="416.6" cy="426.5219" fill="#F04800" rx="4.4" ry="4.4" style="stroke:#181818;stroke-width:0.4000000000000001;"/><path d="M416.8375,427.8281 L417.825,425.4781 L417.6688,425.4781 Q417.425,425.4781 417.3188,425.3844 Q417.2125,425.2906 417.2125,425.1344 Q417.2125,424.9844 417.3188,424.8906 Q417.425,424.7969 417.6688,424.7969 L418.5813,424.7969 Q418.825,424.7969 418.9313,424.8906 Q419.0375,424.9844 419.0375,425.1344 Q419.0375,425.3219 418.875,425.4281 Q418.8,425.4781 418.5625,425.4781 L417.1688,428.8219 L416.5125,428.8219 L415.1188,425.4781 Q414.8813,425.4781 414.8063,425.4281 Q414.6438,425.3219 414.6438,425.1344 Q414.6438,424.9844 414.75,424.8906 Q414.8563,424.7969 415.1,424.7969 L416.0188,424.7969 Q416.2625,424.7969 416.3625,424.8906 Q416.4688,424.9844 416.4688,425.1344 Q416.4688,425.2906 416.3625,425.3844 Q416.2625,425.4781 416.0188,425.4781 L415.8563,425.4781 L416.8375,427.8281 Z " fill="#000000"/><text fill="#000000" font-family="sans-serif" font-size="4.8" font-style="italic" lengthAdjust="spacing" textLength="33.2" x="421.4" y="424.7852">&#171;value Object&#187;</text><text fill="#000000" font-family="sans-serif" font-size="5.6" lengthAdjust="spacing" textLength="20.8" x="427.6" y="432.0328">Address</text><line style="stroke:#181818;stroke-width:0.20000000000000004;" x1="411" x2="454.6" y1="435.4383" y2="435.4383"/><line style="stroke:#181818;stroke-width:0.20000000000000004;" x1="411" x2="454.6" y1="438.6383" y2="438.6383"/></g><!--link User to Role--><g id="link_User_Role"><path codeLine="57" d="M258.824,162.9135 C253.66,174.2375 246.748,191.1935 243.6,206.8055 C238.088,234.1335 238.732,267.0895 239.612,284.3495 " fill="none" id="User-Role" style="stroke:#181818;stroke-width:0.4000000000000001;"/><polygon fill="#000000" points="245.9125,208.6882,244.186,212.0781,246.5083,212.4455,245.9125,208.6882" style="stroke:#000000;stroke-width:0.4000000000000001;"/><text fill="#000000" font-family="sans-serif" font-size="5.2" lengthAdjust="spacing" textLength="21.6" x="249.2" y="212.8168">classifies</text><text fill="#000000" font-family="sans-serif" font-size="5.2" lengthAdjust="spacing" textLength="2.8" x="254.6875" y="171.4539">1</text><text fill="#000000" font-family="sans-serif" font-size="5.2" lengthAdjust="spacing" textLength="2.8" x="236.3607" y="279.961">1</text></g><!--link User to Name--><g id="link_User_Name"><path codeLine="58" d="M268.212,162.9255 C274.696,191.1735 289.888,257.3775 296.092,284.4015 " fill="none" id="User-Name" style="stroke:#181818;stroke-width:0.4000000000000001;"/><polygon fill="#000000" points="281.1526,208.7144,280.8162,212.5037,283.1077,211.9777,281.1526,208.7144" style="stroke:#000000;stroke-width:0.4000000000000001;"/><text fill="#000000" font-family="sans-serif" font-size="5.2" lengthAdjust="spacing" textLength="22.4" x="285.2" y="212.8168">describes</text><text fill="#000000" font-family="sans-serif" font-size="5.2" lengthAdjust="spacing" textLength="2.8" x="265.6891" y="171.468">1</text><text fill="#000000" font-family="sans-serif" font-size="5.2" lengthAdjust="spacing" textLength="2.8" x="292.3934" y="279.8304">1</text></g><!--link User to EmailAddress--><g id="link_User_EmailAddress"><path codeLine="59" d="M246.872,159.1055 C228.12,169.1895 198.804,186.5815 177.6,206.8055 C152.336,230.8975 130.364,266.0735 119.832,284.2855 " fill="none" id="User-EmailAddress" style="stroke:#181818;stroke-width:0.4000000000000001;"/><polygon fill="#000000" points="181.0246,209.2599,177.6224,210.962,179.2726,212.6367,181.0246,209.2599" style="stroke:#000000;stroke-width:0.4000000000000001;"/><text fill="#000000" font-family="sans-serif" font-size="5.2" lengthAdjust="spacing" textLength="20.4" x="183.2" y="212.8168">identifies</text><text fill="#000000" font-family="sans-serif" font-size="5.2" lengthAdjust="spacing" textLength="2.8" x="241.0512" y="158.902">1</text><text fill="#000000" font-family="sans-serif" font-size="5.2" lengthAdjust="spacing" textLength="2.8" x="118.1111" y="279.8838">1</text></g><!--link User to Password--><g id="link_User_Password"><path codeLine="60" d="M249.356,162.8255 C237.272,173.5175 221.016,189.6415 210.8,206.8055 C195.664,232.2375 187.512,266.5455 184.052,284.3615 " fill="none" id="User-Password" style="stroke:#181818;stroke-width:0.4000000000000001;"/><polygon fill="#000000" points="213.7466,208.9019,210.9986,211.5326,213.0697,212.6454,213.7466,208.9019" style="stroke:#000000;stroke-width:0.4000000000000001;"/><text fill="#000000" font-family="sans-serif" font-size="5.2" lengthAdjust="spacing" textLength="22.4" x="216.4" y="212.8168">describes</text><text fill="#000000" font-family="sans-serif" font-size="5.2" lengthAdjust="spacing" textLength="2.8" x="243.4844" y="171.4567">1</text><text fill="#000000" font-family="sans-serif" font-size="5.2" lengthAdjust="spacing" textLength="2.8" x="181.3865" y="279.9755">1</text></g><!--link User to JobOffer--><g id="link_User_JobOffer"><path codeLine="61" d="M283.496,151.5055 C306.324,154.7535 342.4,164.0775 342.4,190.6055 C342.4,190.6055 342.4,190.6055 342.4,297.0055 C342.4,321.5095 324.78,345.1135 311.84,359.1455 " fill="none" id="User-JobOffer" style="stroke:#181818;stroke-width:0.4000000000000001;"/><polygon fill="#000000" points="344.6705,232.2453,345.3459,228.5015,343.0164,228.8195,344.6705,232.2453" style="stroke:#000000;stroke-width:0.4000000000000001;"/><text fill="#000000" font-family="sans-serif" font-size="5.2" lengthAdjust="spacing" textLength="20" x="348" y="232.4168">registers</text><text fill="#000000" font-family="sans-serif" font-size="5.2" lengthAdjust="spacing" textLength="2.8" x="286.6351" y="150.131">1</text><text fill="#000000" font-family="sans-serif" font-size="5.2" lengthAdjust="spacing" textLength="2" x="312.2891" y="354.6639">*</text></g><!--link CustomerManager to User--><g id="link_CustomerManager_User"><path codeLine="63" d="M265.2,52.4095 C265.2,73.4455 265.2,107.5135 265.2,128.6495 " fill="none" id="CustomerManager-to-User" style="stroke:#181818;stroke-width:0.4000000000000001;"/><polygon fill="none" points="265.2,135.8495,267.6,128.6495,262.8,128.6495,265.2,135.8495" style="stroke:#181818;stroke-width:0.4000000000000001;"/></g><!--link Candidate to User--><g id="link_Candidate_User"><path codeLine="64" d="M412.892,103.7775 C380.288,113.7615 322.0604,131.5932 290.3204,141.3132 " fill="none" id="Candidate-to-User" style="stroke:#181818;stroke-width:0.4000000000000001;"/><polygon fill="none" points="283.436,143.4215,291.0232,143.608,289.6177,139.0184,283.436,143.4215" style="stroke:#181818;stroke-width:0.4000000000000001;"/></g><!--link Candidate to Application--><g id="link_Candidate_Application"><path codeLine="65" d="M451.896,107.5575 C466.22,116.2575 483.2,130.4735 483.2,149.0055 C483.2,149.0055 483.2,149.0055 483.2,230.6055 C483.2,252.5415 501.312,271.3575 516.236,283.1415 " fill="none" id="Candidate-Application" style="stroke:#181818;stroke-width:0.4000000000000001;"/><polygon fill="#000000" points="485.8881,192.9416,485.7471,189.14,483.5395,189.9489,485.8881,192.9416" style="stroke:#000000;stroke-width:0.4000000000000001;"/><text fill="#000000" font-family="sans-serif" font-size="5.2" lengthAdjust="spacing" textLength="15.6" x="488.8" y="193.2168">makes</text><text fill="#000000" font-family="sans-serif" font-size="5.2" lengthAdjust="spacing" textLength="2.8" x="454.9651" y="107.3802">1</text><text fill="#000000" font-family="sans-serif" font-size="5.2" lengthAdjust="spacing" textLength="2" x="510.2268" y="278.6591">*</text></g><!--link CandidatePhoneNumber to Candidate--><g id="link_CandidatePhoneNumber_Candidate"><path codeLine="66" d="M432.4,51.3415 C432.4,60.8615 432.4,74.1855 432.4,83.9815 " fill="none" id="CandidatePhoneNumber-Candidate" style="stroke:#181818;stroke-width:0.4000000000000001;stroke-dasharray:7.0,7.0;"/><polygon fill="#000000" points="434.4,70.2637,435.5756,66.6456,433.2244,66.6456,434.4,70.2637" style="stroke:#000000;stroke-width:0.4000000000000001;"/><text fill="#000000" font-family="sans-serif" font-size="5.2" lengthAdjust="spacing" textLength="20.4" x="438" y="70.4168">identifies</text></g><!--link Application to JobOffer--><g id="link_Application_JobOffer"><path codeLine="68" d="M515.384,306.2775 C505.784,310.4175 494.056,315.0975 483.2,318.4055 C479.424,319.5575 417.408,331.7655 413.6,332.8055 C378.836,342.3055 341.5255,355.7822 318.9775,364.2902 " fill="none" id="Application-to-JobOffer" style="stroke:#181818;stroke-width:0.4000000000000001;"/><polygon fill="#181818" points="316.732,365.1375,320.6651,365.3635,318.6032,364.4314,319.5353,362.3696,316.732,365.1375" style="stroke:#181818;stroke-width:0.4000000000000001;"/><polygon fill="#000000" points="465.2819,326.4302,469.0848,326.5327,468.4188,324.2779,465.2819,326.4302" style="stroke:#000000;stroke-width:0.4000000000000001;"/><text fill="#000000" font-family="sans-serif" font-size="5.2" lengthAdjust="spacing" textLength="24.4" x="470.8" y="328.0168">pertains to</text><text fill="#000000" font-family="sans-serif" font-size="5.2" lengthAdjust="spacing" textLength="2" x="510.1353" y="306.0697">*</text><text fill="#000000" font-family="sans-serif" font-size="5.2" lengthAdjust="spacing" textLength="2.8" x="319.7535" y="362.3052">1</text></g><!--link Application to ApplicationEmail--><g id="link_Application_ApplicationEmail"><path codeLine="69" d="M549.2,283.1215 C559.692,273.7215 575.092,261.9775 591.2,256.8055 C615.912,248.8735 626.028,245.9415 649.6,256.8055 C661.816,262.4375 671.268,274.8575 677.072,284.3375 " fill="none" id="Application-ApplicationEmail" style="stroke:#181818;stroke-width:0.4000000000000001;"/><polygon fill="#000000" points="597.1999,249.8827,593.5932,248.6728,593.5709,251.0238,597.1999,249.8827" style="stroke:#000000;stroke-width:0.4000000000000001;"/><text fill="#000000" font-family="sans-serif" font-size="5.2" lengthAdjust="spacing" textLength="19.6" x="598.8" y="252.0168">contains</text><text fill="#000000" font-family="sans-serif" font-size="5.2" lengthAdjust="spacing" textLength="2.8" x="548.7256" y="278.7398">1</text><text fill="#000000" font-family="sans-serif" font-size="5.2" lengthAdjust="spacing" textLength="2.8" x="672.6369" y="279.9465">1</text></g><!--link Application to ApplicationRefCode--><g id="link_Application_ApplicationRefCode"><path codeLine="70" d="M536.088,310.1055 C536.616,324.2855 537.452,346.7015 537.96,360.3695 " fill="none" id="Application-ApplicationRefCode" style="stroke:#181818;stroke-width:0.4000000000000001;"/><polygon fill="#000000" points="538.3256,323.8651,537.2855,327.5243,539.635,327.4368,538.3256,323.8651" style="stroke:#000000;stroke-width:0.4000000000000001;"/><text fill="#000000" font-family="sans-serif" font-size="5.2" lengthAdjust="spacing" textLength="22.4" x="542" y="328.0168">describes</text><text fill="#000000" font-family="sans-serif" font-size="5.2" lengthAdjust="spacing" textLength="2.8" x="533.1313" y="318.6445">1</text><text fill="#000000" font-family="sans-serif" font-size="5.2" lengthAdjust="spacing" textLength="2.8" x="534.7805" y="355.9851">1</text></g><!--link Application to ApplicationAttachedFile--><g id="link_Application_ApplicationAttachedFile"><path codeLine="71" d="M520.672,310.1215 C516.416,313.9175 511.796,318.0935 507.6,322.0055 C493.748,334.9175 478.22,350.1255 467.852,360.3935 " fill="none" id="Application-ApplicationAttachedFile" style="stroke:#181818;stroke-width:0.4000000000000001;"/><polygon fill="#000000" points="508.1513,327.2425,511.5825,325.5997,509.9616,323.8966,508.1513,327.2425" style="stroke:#000000;stroke-width:0.4000000000000001;"/><text fill="#000000" font-family="sans-serif" font-size="5.2" lengthAdjust="spacing" textLength="19.6" x="513.2" y="328.0168">contains</text><text fill="#000000" font-family="sans-serif" font-size="5.2" lengthAdjust="spacing" textLength="2.8" x="515.0656" y="318.6633">1</text><text fill="#000000" font-family="sans-serif" font-size="5.2" lengthAdjust="spacing" textLength="2" x="468.2259" y="355.8207">*</text></g><!--link Application to ApplicationAttachedFilesLocation--><g id="link_Application_ApplicationAttachedFilesLocation"><path codeLine="72" d="M552.488,310.0175 C570.876,324.1855 600.024,346.6455 617.804,360.3415 " fill="none" id="Application-ApplicationAttachedFilesLocation" style="stroke:#181818;stroke-width:0.4000000000000001;"/><polygon fill="#000000" points="579.1843,327.0843,577.0358,323.9449,575.6008,325.8074,579.1843,327.0843" style="stroke:#000000;stroke-width:0.4000000000000001;"/><text fill="#000000" font-family="sans-serif" font-size="5.2" lengthAdjust="spacing" textLength="19.6" x="581.2" y="328.0168">contains</text><text fill="#000000" font-family="sans-serif" font-size="5.2" lengthAdjust="spacing" textLength="2.8" x="552.4468" y="318.6473">1</text><text fill="#000000" font-family="sans-serif" font-size="5.2" lengthAdjust="spacing" textLength="2.8" x="611.5398" y="355.9513">1</text></g><!--link ApplicationState to Application--><g id="link_ApplicationState_Application"><path codeLine="73" d="M476.064,296.6055 C488.744,296.6055 503.628,296.6055 515.344,296.6055 " fill="none" id="ApplicationState-Application" style="stroke:#181818;stroke-width:0.4000000000000001;"/><polygon fill="#000000" points="482.9,291.6637,486.518,292.8392,486.518,290.4881,482.9,291.6637" style="stroke:#000000;stroke-width:0.4000000000000001;"/><text fill="#000000" font-family="sans-serif" font-size="5.2" lengthAdjust="spacing" textLength="19.6" x="488.5" y="293.8168">contains</text><text fill="#000000" font-family="sans-serif" font-size="5.2" lengthAdjust="spacing" textLength="2.8" x="479.1554" y="295.0604">1</text><text fill="#000000" font-family="sans-serif" font-size="5.2" lengthAdjust="spacing" textLength="2.8" x="509.3633" y="294.9371">1</text></g><!--link Application to InterviewGrade--><g id="link_Application_InterviewGrade"><path codeLine="74" d="M555.84,306.0335 C566.228,310.3495 579.196,315.2495 591.2,318.4055 C633.436,329.5175 650.388,311.3015 688.4,332.8055 C699.732,339.2175 708.732,351.2535 714.344,360.3455 " fill="none" id="Application-InterviewGrade" style="stroke:#181818;stroke-width:0.4000000000000001;"/><polygon fill="#000000" points="685.492,326.512,682.4504,324.2271,681.6883,326.4513,685.492,326.512" style="stroke:#000000;stroke-width:0.4000000000000001;"/><text fill="#000000" font-family="sans-serif" font-size="5.2" lengthAdjust="spacing" textLength="19.6" x="687.2" y="328.0168">contains</text><text fill="#000000" font-family="sans-serif" font-size="5.2" lengthAdjust="spacing" textLength="2.8" x="559.0184" y="305.7498">1</text><text fill="#000000" font-family="sans-serif" font-size="5.2" lengthAdjust="spacing" textLength="2.8" x="709.9237" y="355.9562">1</text></g><!--link Application to Rank--><g id="link_Application_Rank"><path codeLine="75" d="M555.804,296.6055 C568.54,296.6055 585,296.6055 598.116,296.6055 " fill="none" id="Application-Rank" style="stroke:#181818;stroke-width:0.4000000000000001;"/><polygon fill="#000000" points="562.8,291.6637,566.418,292.8392,566.418,290.4881,562.8,291.6637" style="stroke:#000000;stroke-width:0.4000000000000001;"/><text fill="#000000" font-family="sans-serif" font-size="5.2" lengthAdjust="spacing" textLength="22.4" x="568.4" y="293.8168">describes</text></g><!--link JobOffer to Address--><g id="link_JobOffer_Address"><path codeLine="77" d="M316.664,380.6695 C341.068,390.9095 384.272,409.0415 410.548,420.0695 " fill="none" id="JobOffer-Address" style="stroke:#181818;stroke-width:0.4000000000000001;"/><polygon fill="#000000" points="373.7558,401.0897,376.6371,403.5738,377.5469,401.4058,373.7558,401.0897" style="stroke:#000000;stroke-width:0.4000000000000001;"/><text fill="#000000" font-family="sans-serif" font-size="5.2" lengthAdjust="spacing" textLength="22.4" x="379.2" y="404.0168">describes</text></g><!--link JobOffer to JobRefCode--><g id="link_JobOffer_JobRefCode"><path codeLine="78" d="M280.164,380.0255 C259.276,388.2695 224.192,402.7095 195.2,417.6055 C144.352,443.7335 87.392,479.9055 59.124,498.3495 " fill="none" id="JobOffer-JobRefCode" style="stroke:#181818;stroke-width:0.4000000000000001;"/><polygon fill="#000000" points="133.7633,456.9198,130.0187,457.5909,131.1283,459.6637,133.7633,456.9198" style="stroke:#000000;stroke-width:0.4000000000000001;"/><text fill="#000000" font-family="sans-serif" font-size="5.2" lengthAdjust="spacing" textLength="20.4" x="135.6" y="460.0168">identifies</text><text fill="#000000" font-family="sans-serif" font-size="5.2" lengthAdjust="spacing" textLength="2.8" x="274.2345" y="379.4988">1</text><text fill="#000000" font-family="sans-serif" font-size="5.2" lengthAdjust="spacing" textLength="2.8" x="59.7321" y="493.961">1</text></g><!--link JobOffer to JobTitle--><g id="link_JobOffer_JobTitle"><path codeLine="79" d="M280.068,384.7055 C266.432,393.5175 247.448,406.0255 231.2,417.6055 C192.06,445.4975 147.496,480.3855 124.876,498.3295 " fill="none" id="JobOffer-JobTitle" style="stroke:#181818;stroke-width:0.4000000000000001;"/><polygon fill="#000000" points="185.2137,456.6822,181.6,457.871,182.9889,459.768,185.2137,456.6822" style="stroke:#000000;stroke-width:0.4000000000000001;"/><text fill="#000000" font-family="sans-serif" font-size="5.2" lengthAdjust="spacing" textLength="22.4" x="187.2" y="460.0168">describes</text><text fill="#000000" font-family="sans-serif" font-size="5.2" lengthAdjust="spacing" textLength="2.8" x="274.2465" y="392.7108">1</text><text fill="#000000" font-family="sans-serif" font-size="5.2" lengthAdjust="spacing" textLength="2.8" x="124.8554" y="493.9369">1</text></g><!--link JobOffer to ContractType--><g id="link_JobOffer_ContractType"><path codeLine="80" d="M286.204,386.0375 C261.352,412.5935 205.176,472.6215 181.192,498.2455 " fill="none" id="JobOffer-ContractType" style="stroke:#181818;stroke-width:0.4000000000000001;"/><polygon fill="#000000" points="226.1666,456.4034,222.8361,458.2418,224.5527,459.8483,226.1666,456.4034" style="stroke:#000000;stroke-width:0.4000000000000001;"/><text fill="#000000" font-family="sans-serif" font-size="5.2" lengthAdjust="spacing" textLength="22.4" x="228.4" y="460.0168">describes</text><text fill="#000000" font-family="sans-serif" font-size="5.2" lengthAdjust="spacing" textLength="2.8" x="280.9822" y="394.6709">1</text><text fill="#000000" font-family="sans-serif" font-size="5.2" lengthAdjust="spacing" textLength="2.8" x="180.4116" y="493.8355">1</text></g><!--link JobOffer to JobMode--><g id="link_JobOffer_JobMode"><path codeLine="81" d="M291.904,386.0375 C278.664,412.5935 248.74,472.6215 235.964,498.2455 " fill="none" id="JobOffer-JobMode" style="stroke:#181818;stroke-width:0.4000000000000001;"/><polygon fill="#000000" points="260.8923,456.0738,258.226,458.7872,260.3302,459.8362,260.8923,456.0738" style="stroke:#000000;stroke-width:0.4000000000000001;"/><text fill="#000000" font-family="sans-serif" font-size="5.2" lengthAdjust="spacing" textLength="22.4" x="263.6" y="460.0168">describes</text><text fill="#000000" font-family="sans-serif" font-size="5.2" lengthAdjust="spacing" textLength="2.8" x="287.6975" y="394.6709">1</text><text fill="#000000" font-family="sans-serif" font-size="5.2" lengthAdjust="spacing" textLength="2.8" x="234.1053" y="493.8355">1</text></g><!--link JobOffer to NumberOfVacancies--><g id="link_JobOffer_NumberOfVacancies"><path codeLine="82" d="M298.4,386.0375 C298.4,412.5935 298.4,472.6215 298.4,498.2455 " fill="none" id="JobOffer-NumberOfVacancies" style="stroke:#181818;stroke-width:0.4000000000000001;"/><polygon fill="#000000" points="300.4,455.8637,299.2244,459.4817,301.5756,459.4817,300.4,455.8637" style="stroke:#000000;stroke-width:0.4000000000000001;"/><text fill="#000000" font-family="sans-serif" font-size="5.2" lengthAdjust="spacing" textLength="22.4" x="304" y="460.0168">describes</text><text fill="#000000" font-family="sans-serif" font-size="5.2" lengthAdjust="spacing" textLength="2.8" x="295.3506" y="394.6709">1</text><text fill="#000000" font-family="sans-serif" font-size="5.2" lengthAdjust="spacing" textLength="2.8" x="295.3113" y="493.8355">1</text></g><!--link JobOffer to JobsDescription--><g id="link_JobOffer_JobsDescription"><path codeLine="83" d="M305.316,386.0375 C319.404,412.5935 351.256,472.6215 364.856,498.2455 " fill="none" id="JobOffer-JobsDescription" style="stroke:#181818;stroke-width:0.4000000000000001;"/><polygon fill="#000000" points="345.8626,456.097,346.52,459.844,348.5968,458.7419,345.8626,456.097" style="stroke:#000000;stroke-width:0.4000000000000001;"/><text fill="#000000" font-family="sans-serif" font-size="5.2" lengthAdjust="spacing" textLength="26.4" x="350.4" y="460.0168">"describes"</text><text fill="#000000" font-family="sans-serif" font-size="5.2" lengthAdjust="spacing" textLength="2.8" x="303.4985" y="394.6709">1</text><text fill="#000000" font-family="sans-serif" font-size="5.2" lengthAdjust="spacing" textLength="2.8" x="360.4588" y="493.8355">1</text></g><!--SRC=[dLLTRzem57tthx3Ompwq52RjOOjG9CIwgTDQ4ElwRc87F18xiarHnVZlinsIs910qZn449zpxlNzVBjMAfVXS9YdYAbjbjx4F1l6AP8o2315Au4o0EOetg0LWNya4PFLIf0LKcGF0DJFBLDKlS3fLYgU4N6Fc4OAkBU7vXcFYOL4aVrqy6X6qSCApXLi8aoDJ_0sGpITO2o8_ZCUltlw-2OPVHsDHk_X7JQqX6h1PvHk2Pmj_v9OHH7S7no5kNxjkC0L-_CNmxv4MV2Km8ju3_w0Cd9L_L17TOeOfbX7r0cj6zdok4-SAj9ypHbvs6PB7PQcU6a35vtxoPUp96bDUtdSnpVDMP1aol4nIh1l2hN08rKfwP72AMTAe5WzlkHzKgajtLT-TZ9KX7gMFA4OiPWIsOEhhSblHCQ2veforgU69dcUqXWPMakc70JiaorNMIaKhmd-Jg_4thkL8-2b_NhMssHSF-GlVhnKPuVkc2BYcPBT3u7mwoxoMvb-V0tJ3h3kp0LYcsle0pXQEOx5QtXWX-xWqm06-h4_x8GBePtx9XEwQXjGTh254DiINRQ0l0aTGbecjnbTJUCsMSnth41_6DJJ9eGHr4LEfSwa1E1q-MZylyZk5b1FpwPlfI-5lDiYnaA6DaI2nb5w4pXpsM3hUmBWwXZT88Yi9S_zd0Y5A9DGSPzWNBBliwenj5WFCaCxvvoHocxpGzl4y-_kjNbFcysjULaa9Oaw4oewh8lratPkfGH5C_dH05LEj5fTjUCQL2EymdMMs4cHj-ABdUNRRmPxsweBeTnJNR3d6wgZ1MytXN1GaGQQzHy0]--></g></svg>