<?xml version="1.0" encoding="us-ascii" standalone="no"?><svg xmlns="http://www.w3.org/2000/svg" xmlns:xlink="http://www.w3.org/1999/xlink" contentStyleType="text/css" height="1307px" preserveAspectRatio="none" style="width:1316px;height:1307px;background:#FFFFFF;" version="1.1" viewBox="0 0 1316 1307" width="1316px" zoomAndPan="magnify"><defs/><g><!--class CustomerManagerUI--><g id="elem_CustomerManagerUI"><rect codeLine="3" fill="#F1F1F1" height="48" id="CustomerManagerUI" rx="2.5" ry="2.5" style="stroke:#181818;stroke-width:0.5;" width="161" x="353" y="35"/><ellipse cx="368" cy="51" fill="#ADD1B2" rx="11" ry="11" style="stroke:#181818;stroke-width:1.0;"/><path d="M370.7656,46.875 Q370.9219,46.6563 371.1094,46.5469 Q371.2969,46.4375 371.5156,46.4375 Q371.8906,46.4375 372.125,46.7031 Q372.3594,46.9531 372.3594,47.5625 L372.3594,49.0156 Q372.3594,49.625 372.125,49.8906 Q371.8906,50.1563 371.5156,50.1563 Q371.1719,50.1563 370.9688,49.9531 Q370.7656,49.7656 370.6563,49.25 Q370.6094,48.8906 370.4219,48.7031 Q370.0938,48.3281 369.4844,48.1094 Q368.875,47.8906 368.25,47.8906 Q367.4844,47.8906 366.8438,48.2188 Q366.2188,48.5469 365.7188,49.2969 Q365.2344,50.0469 365.2344,51.0781 L365.2344,52.1719 Q365.2344,53.4063 366.125,54.2344 Q367.0156,55.0469 368.6094,55.0469 Q369.5469,55.0469 370.2031,54.7969 Q370.5938,54.6406 371.0156,54.2031 Q371.2813,53.9375 371.4219,53.8594 Q371.5781,53.7813 371.7813,53.7813 Q372.1094,53.7813 372.3594,54.0469 Q372.625,54.2969 372.625,54.6406 Q372.625,54.9844 372.2813,55.3906 Q371.7813,55.9688 370.9844,56.2969 Q369.9063,56.75 368.6094,56.75 Q367.0938,56.75 365.8906,56.125 Q364.9063,55.625 364.2188,54.5625 Q363.5313,53.4844 363.5313,52.2031 L363.5313,51.0469 Q363.5313,49.7188 364.1406,48.5781 Q364.7656,47.4219 365.8594,46.8125 Q366.9531,46.1875 368.1875,46.1875 Q368.9219,46.1875 369.5625,46.3594 Q370.2188,46.5156 370.7656,46.875 Z " fill="#000000"/><text fill="#000000" font-family="sans-serif" font-size="14" lengthAdjust="spacing" textLength="129" x="382" y="56.7969">CustomerManagerUI</text><line style="stroke:#181818;stroke-width:0.5;" x1="354" x2="513" y1="67" y2="67"/><line style="stroke:#181818;stroke-width:0.5;" x1="354" x2="513" y1="75" y2="75"/></g><!--class ListSortedApplicantsUI--><g id="elem_ListSortedApplicantsUI"><rect codeLine="6" fill="#F1F1F1" height="103.8633" id="ListSortedApplicantsUI" rx="2.5" ry="2.5" style="stroke:#181818;stroke-width:0.5;" width="307" x="549" y="7"/><ellipse cx="627.75" cy="23" fill="#ADD1B2" rx="11" ry="11" style="stroke:#181818;stroke-width:1.0;"/><path d="M630.5156,18.875 Q630.6719,18.6563 630.8594,18.5469 Q631.0469,18.4375 631.2656,18.4375 Q631.6406,18.4375 631.875,18.7031 Q632.1094,18.9531 632.1094,19.5625 L632.1094,21.0156 Q632.1094,21.625 631.875,21.8906 Q631.6406,22.1563 631.2656,22.1563 Q630.9219,22.1563 630.7188,21.9531 Q630.5156,21.7656 630.4063,21.25 Q630.3594,20.8906 630.1719,20.7031 Q629.8438,20.3281 629.2344,20.1094 Q628.625,19.8906 628,19.8906 Q627.2344,19.8906 626.5938,20.2188 Q625.9688,20.5469 625.4688,21.2969 Q624.9844,22.0469 624.9844,23.0781 L624.9844,24.1719 Q624.9844,25.4063 625.875,26.2344 Q626.7656,27.0469 628.3594,27.0469 Q629.2969,27.0469 629.9531,26.7969 Q630.3438,26.6406 630.7656,26.2031 Q631.0313,25.9375 631.1719,25.8594 Q631.3281,25.7813 631.5313,25.7813 Q631.8594,25.7813 632.1094,26.0469 Q632.375,26.2969 632.375,26.6406 Q632.375,26.9844 632.0313,27.3906 Q631.5313,27.9688 630.7344,28.2969 Q629.6563,28.75 628.3594,28.75 Q626.8438,28.75 625.6406,28.125 Q624.6563,27.625 623.9688,26.5625 Q623.2813,25.4844 623.2813,24.2031 L623.2813,23.0469 Q623.2813,21.7188 623.8906,20.5781 Q624.5156,19.4219 625.6094,18.8125 Q626.7031,18.1875 627.9375,18.1875 Q628.6719,18.1875 629.3125,18.3594 Q629.9688,18.5156 630.5156,18.875 Z " fill="#000000"/><text fill="#000000" font-family="sans-serif" font-size="14" lengthAdjust="spacing" textLength="141" x="648.25" y="28.7969">ListSortedApplicantsUI</text><line style="stroke:#181818;stroke-width:0.5;" x1="550" x2="855" y1="39" y2="39"/><rect fill="none" height="6" style="stroke:#C82930;stroke-width:1.0;" width="6" x="557" y="50.8105"/><text fill="#000000" font-family="sans-serif" font-size="14" lengthAdjust="spacing" textLength="281" x="569" y="58.1074">theController: ListSortedApplicantsController</text><line style="stroke:#181818;stroke-width:0.5;" x1="550" x2="855" y1="65.6211" y2="65.6211"/><ellipse cx="560" cy="80.4316" fill="#84BE84" rx="3" ry="3" style="stroke:#038048;stroke-width:1.0;"/><text fill="#000000" font-family="sans-serif" font-size="14" lengthAdjust="spacing" textLength="142" x="569" y="84.7285">listCustomerJobOffer()</text><ellipse cx="560" cy="99.0527" fill="#84BE84" rx="3" ry="3" style="stroke:#038048;stroke-width:1.0;"/><text fill="#000000" font-family="sans-serif" font-size="14" lengthAdjust="spacing" textLength="60" x="569" y="103.3496">doShow()</text></g><!--class ListSortedApplicantsController--><g id="elem_ListSortedApplicantsController"><rect codeLine="12" fill="#F1F1F1" height="141.1055" id="ListSortedApplicantsController" rx="2.5" ry="2.5" style="stroke:#181818;stroke-width:0.5;" width="398" x="503.5" y="172"/><ellipse cx="602.75" cy="188" fill="#ADD1B2" rx="11" ry="11" style="stroke:#181818;stroke-width:1.0;"/><path d="M605.5156,183.875 Q605.6719,183.6563 605.8594,183.5469 Q606.0469,183.4375 606.2656,183.4375 Q606.6406,183.4375 606.875,183.7031 Q607.1094,183.9531 607.1094,184.5625 L607.1094,186.0156 Q607.1094,186.625 606.875,186.8906 Q606.6406,187.1563 606.2656,187.1563 Q605.9219,187.1563 605.7188,186.9531 Q605.5156,186.7656 605.4063,186.25 Q605.3594,185.8906 605.1719,185.7031 Q604.8438,185.3281 604.2344,185.1094 Q603.625,184.8906 603,184.8906 Q602.2344,184.8906 601.5938,185.2188 Q600.9688,185.5469 600.4688,186.2969 Q599.9844,187.0469 599.9844,188.0781 L599.9844,189.1719 Q599.9844,190.4063 600.875,191.2344 Q601.7656,192.0469 603.3594,192.0469 Q604.2969,192.0469 604.9531,191.7969 Q605.3438,191.6406 605.7656,191.2031 Q606.0313,190.9375 606.1719,190.8594 Q606.3281,190.7813 606.5313,190.7813 Q606.8594,190.7813 607.1094,191.0469 Q607.375,191.2969 607.375,191.6406 Q607.375,191.9844 607.0313,192.3906 Q606.5313,192.9688 605.7344,193.2969 Q604.6563,193.75 603.3594,193.75 Q601.8438,193.75 600.6406,193.125 Q599.6563,192.625 598.9688,191.5625 Q598.2813,190.4844 598.2813,189.2031 L598.2813,188.0469 Q598.2813,186.7188 598.8906,185.5781 Q599.5156,184.4219 600.6094,183.8125 Q601.7031,183.1875 602.9375,183.1875 Q603.6719,183.1875 604.3125,183.3594 Q604.9688,183.5156 605.5156,183.875 Z " fill="#000000"/><text fill="#000000" font-family="sans-serif" font-size="14" lengthAdjust="spacing" textLength="191" x="623.25" y="193.7969">ListSortedApplicantsController</text><line style="stroke:#181818;stroke-width:0.5;" x1="504.5" x2="900.5" y1="204" y2="204"/><rect fill="none" height="6" style="stroke:#C82930;stroke-width:1.0;" width="6" x="511.5" y="215.8105"/><text fill="#000000" font-family="sans-serif" font-size="14" lengthAdjust="spacing" textLength="171" x="523.5" y="223.1074">authz: AuthorizationService</text><rect fill="none" height="6" style="stroke:#C82930;stroke-width:1.0;" width="6" x="511.5" y="234.4316"/><text fill="#000000" font-family="sans-serif" font-size="14" lengthAdjust="spacing" textLength="248" x="523.5" y="241.7285">offerListingService: ListJobOfferService</text><rect fill="none" height="6" style="stroke:#C82930;stroke-width:1.0;" width="6" x="511.5" y="253.0527"/><text fill="#000000" font-family="sans-serif" font-size="14" lengthAdjust="spacing" textLength="324" x="523.5" y="260.3496">applicationListingService: ListJobApplicationService</text><line style="stroke:#181818;stroke-width:0.5;" x1="504.5" x2="900.5" y1="267.8633" y2="267.8633"/><ellipse cx="514.5" cy="282.6738" fill="#84BE84" rx="3" ry="3" style="stroke:#038048;stroke-width:1.0;"/><text fill="#000000" font-family="sans-serif" font-size="14" lengthAdjust="spacing" textLength="183" x="523.5" y="286.9707">jobOfferList(): List&lt;JobOffer&gt;</text><ellipse cx="514.5" cy="301.2949" fill="#84BE84" rx="3" ry="3" style="stroke:#038048;stroke-width:1.0;"/><text fill="#000000" font-family="sans-serif" font-size="14" lengthAdjust="spacing" textLength="372" x="523.5" y="305.5918">getSortedApplicants(offer: JobOffer): List&lt;JobApplications&gt;</text></g><!--class ListJobApplicationService--><g id="elem_ListJobApplicationService"><rect codeLine="20" fill="#F1F1F1" height="85.2422" id="ListJobApplicationService" rx="2.5" ry="2.5" style="stroke:#181818;stroke-width:0.5;" width="455" x="11" y="200"/><ellipse cx="154.25" cy="216" fill="#ADD1B2" rx="11" ry="11" style="stroke:#181818;stroke-width:1.0;"/><path d="M157.0156,211.875 Q157.1719,211.6563 157.3594,211.5469 Q157.5469,211.4375 157.7656,211.4375 Q158.1406,211.4375 158.375,211.7031 Q158.6094,211.9531 158.6094,212.5625 L158.6094,214.0156 Q158.6094,214.625 158.375,214.8906 Q158.1406,215.1563 157.7656,215.1563 Q157.4219,215.1563 157.2188,214.9531 Q157.0156,214.7656 156.9063,214.25 Q156.8594,213.8906 156.6719,213.7031 Q156.3438,213.3281 155.7344,213.1094 Q155.125,212.8906 154.5,212.8906 Q153.7344,212.8906 153.0938,213.2188 Q152.4688,213.5469 151.9688,214.2969 Q151.4844,215.0469 151.4844,216.0781 L151.4844,217.1719 Q151.4844,218.4063 152.375,219.2344 Q153.2656,220.0469 154.8594,220.0469 Q155.7969,220.0469 156.4531,219.7969 Q156.8438,219.6406 157.2656,219.2031 Q157.5313,218.9375 157.6719,218.8594 Q157.8281,218.7813 158.0313,218.7813 Q158.3594,218.7813 158.6094,219.0469 Q158.875,219.2969 158.875,219.6406 Q158.875,219.9844 158.5313,220.3906 Q158.0313,220.9688 157.2344,221.2969 Q156.1563,221.75 154.8594,221.75 Q153.3438,221.75 152.1406,221.125 Q151.1563,220.625 150.4688,219.5625 Q149.7813,218.4844 149.7813,217.2031 L149.7813,216.0469 Q149.7813,214.7188 150.3906,213.5781 Q151.0156,212.4219 152.1094,211.8125 Q153.2031,211.1875 154.4375,211.1875 Q155.1719,211.1875 155.8125,211.3594 Q156.4688,211.5156 157.0156,211.875 Z " fill="#000000"/><text fill="#000000" font-family="sans-serif" font-size="14" lengthAdjust="spacing" textLength="160" x="174.75" y="221.7969">ListJobApplicationService</text><line style="stroke:#181818;stroke-width:0.5;" x1="12" x2="465" y1="232" y2="232"/><rect fill="none" height="6" style="stroke:#C82930;stroke-width:1.0;" width="6" x="19" y="243.8105"/><text fill="#000000" font-family="sans-serif" font-size="14" lengthAdjust="spacing" textLength="196" x="31" y="251.1074">repo: JobApplicationRepository</text><line style="stroke:#181818;stroke-width:0.5;" x1="12" x2="465" y1="258.6211" y2="258.6211"/><ellipse cx="22" cy="273.4316" fill="#84BE84" rx="3" ry="3" style="stroke:#038048;stroke-width:1.0;"/><text fill="#000000" font-family="sans-serif" font-size="14" lengthAdjust="spacing" textLength="429" x="31" y="277.7285">getApplicationsByJobOffer(offer: JobOffer): Iterable&lt;JobApplication&gt;</text></g><!--class ListJobOfferService--><g id="elem_ListJobOfferService"><rect codeLine="25" fill="#F1F1F1" height="85.2422" id="ListJobOfferService" rx="2.5" ry="2.5" style="stroke:#181818;stroke-width:0.5;" width="414" x="895.5" y="449.5"/><ellipse cx="1036.75" cy="465.5" fill="#ADD1B2" rx="11" ry="11" style="stroke:#181818;stroke-width:1.0;"/><path d="M1039.5156,461.375 Q1039.6719,461.1563 1039.8594,461.0469 Q1040.0469,460.9375 1040.2656,460.9375 Q1040.6406,460.9375 1040.875,461.2031 Q1041.1094,461.4531 1041.1094,462.0625 L1041.1094,463.5156 Q1041.1094,464.125 1040.875,464.3906 Q1040.6406,464.6563 1040.2656,464.6563 Q1039.9219,464.6563 1039.7188,464.4531 Q1039.5156,464.2656 1039.4063,463.75 Q1039.3594,463.3906 1039.1719,463.2031 Q1038.8438,462.8281 1038.2344,462.6094 Q1037.625,462.3906 1037,462.3906 Q1036.2344,462.3906 1035.5938,462.7188 Q1034.9688,463.0469 1034.4688,463.7969 Q1033.9844,464.5469 1033.9844,465.5781 L1033.9844,466.6719 Q1033.9844,467.9063 1034.875,468.7344 Q1035.7656,469.5469 1037.3594,469.5469 Q1038.2969,469.5469 1038.9531,469.2969 Q1039.3438,469.1406 1039.7656,468.7031 Q1040.0313,468.4375 1040.1719,468.3594 Q1040.3281,468.2813 1040.5313,468.2813 Q1040.8594,468.2813 1041.1094,468.5469 Q1041.375,468.7969 1041.375,469.1406 Q1041.375,469.4844 1041.0313,469.8906 Q1040.5313,470.4688 1039.7344,470.7969 Q1038.6563,471.25 1037.3594,471.25 Q1035.8438,471.25 1034.6406,470.625 Q1033.6563,470.125 1032.9688,469.0625 Q1032.2813,467.9844 1032.2813,466.7031 L1032.2813,465.5469 Q1032.2813,464.2188 1032.8906,463.0781 Q1033.5156,461.9219 1034.6094,461.3125 Q1035.7031,460.6875 1036.9375,460.6875 Q1037.6719,460.6875 1038.3125,460.8594 Q1038.9688,461.0156 1039.5156,461.375 Z " fill="#000000"/><text fill="#000000" font-family="sans-serif" font-size="14" lengthAdjust="spacing" textLength="123" x="1057.25" y="471.2969">ListJobOfferService</text><line style="stroke:#181818;stroke-width:0.5;" x1="896.5" x2="1308.5" y1="481.5" y2="481.5"/><rect fill="none" height="6" style="stroke:#C82930;stroke-width:1.0;" width="6" x="903.5" y="493.3105"/><text fill="#000000" font-family="sans-serif" font-size="14" lengthAdjust="spacing" textLength="159" x="915.5" y="500.6074">repo: JobOfferRepository</text><line style="stroke:#181818;stroke-width:0.5;" x1="896.5" x2="1308.5" y1="508.1211" y2="508.1211"/><ellipse cx="906.5" cy="522.9316" fill="#84BE84" rx="3" ry="3" style="stroke:#038048;stroke-width:1.0;"/><text fill="#000000" font-family="sans-serif" font-size="14" lengthAdjust="spacing" textLength="388" x="915.5" y="527.2285">getJobOffersByUser(customer: Customer): Iterable&lt;JobOffer&gt;</text></g><!--class PersistenceContext--><g id="elem_PersistenceContext"><rect codeLine="31" fill="#F1F1F1" height="66.6211" id="PersistenceContext" rx="2.5" ry="2.5" style="stroke:#181818;stroke-width:0.5;" width="154" x="625.5" y="343"/><ellipse cx="640.5" cy="359" fill="#ADD1B2" rx="11" ry="11" style="stroke:#181818;stroke-width:1.0;"/><path d="M643.2656,354.875 Q643.4219,354.6563 643.6094,354.5469 Q643.7969,354.4375 644.0156,354.4375 Q644.3906,354.4375 644.625,354.7031 Q644.8594,354.9531 644.8594,355.5625 L644.8594,357.0156 Q644.8594,357.625 644.625,357.8906 Q644.3906,358.1563 644.0156,358.1563 Q643.6719,358.1563 643.4688,357.9531 Q643.2656,357.7656 643.1563,357.25 Q643.1094,356.8906 642.9219,356.7031 Q642.5938,356.3281 641.9844,356.1094 Q641.375,355.8906 640.75,355.8906 Q639.9844,355.8906 639.3438,356.2188 Q638.7188,356.5469 638.2188,357.2969 Q637.7344,358.0469 637.7344,359.0781 L637.7344,360.1719 Q637.7344,361.4063 638.625,362.2344 Q639.5156,363.0469 641.1094,363.0469 Q642.0469,363.0469 642.7031,362.7969 Q643.0938,362.6406 643.5156,362.2031 Q643.7813,361.9375 643.9219,361.8594 Q644.0781,361.7813 644.2813,361.7813 Q644.6094,361.7813 644.8594,362.0469 Q645.125,362.2969 645.125,362.6406 Q645.125,362.9844 644.7813,363.3906 Q644.2813,363.9688 643.4844,364.2969 Q642.4063,364.75 641.1094,364.75 Q639.5938,364.75 638.3906,364.125 Q637.4063,363.625 636.7188,362.5625 Q636.0313,361.4844 636.0313,360.2031 L636.0313,359.0469 Q636.0313,357.7188 636.6406,356.5781 Q637.2656,355.4219 638.3594,354.8125 Q639.4531,354.1875 640.6875,354.1875 Q641.4219,354.1875 642.0625,354.3594 Q642.7188,354.5156 643.2656,354.875 Z " fill="#000000"/><text fill="#000000" font-family="sans-serif" font-size="14" lengthAdjust="spacing" textLength="122" x="654.5" y="364.7969">PersistenceContext</text><line style="stroke:#181818;stroke-width:0.5;" x1="626.5" x2="778.5" y1="375" y2="375"/><line style="stroke:#181818;stroke-width:0.5;" x1="626.5" x2="778.5" y1="383" y2="383"/><ellipse cx="636.5" cy="397.8105" fill="#84BE84" rx="3" ry="3" style="stroke:#038048;stroke-width:1.0;"/><text fill="#000000" font-family="sans-serif" font-size="14" lengthAdjust="spacing" textLength="84" x="645.5" y="402.1074">repositories()</text></g><!--class RepositoryFactory--><g id="elem_RepositoryFactory"><rect codeLine="35" fill="#F1F1F1" height="103.8633" id="RepositoryFactory" rx="2.5" ry="2.5" style="stroke:#181818;stroke-width:0.5;" width="316" x="544.5" y="440"/><ellipse cx="640.25" cy="456" fill="#ADD1B2" rx="11" ry="11" style="stroke:#181818;stroke-width:1.0;"/><path d="M643.0156,451.875 Q643.1719,451.6563 643.3594,451.5469 Q643.5469,451.4375 643.7656,451.4375 Q644.1406,451.4375 644.375,451.7031 Q644.6094,451.9531 644.6094,452.5625 L644.6094,454.0156 Q644.6094,454.625 644.375,454.8906 Q644.1406,455.1563 643.7656,455.1563 Q643.4219,455.1563 643.2188,454.9531 Q643.0156,454.7656 642.9063,454.25 Q642.8594,453.8906 642.6719,453.7031 Q642.3438,453.3281 641.7344,453.1094 Q641.125,452.8906 640.5,452.8906 Q639.7344,452.8906 639.0938,453.2188 Q638.4688,453.5469 637.9688,454.2969 Q637.4844,455.0469 637.4844,456.0781 L637.4844,457.1719 Q637.4844,458.4063 638.375,459.2344 Q639.2656,460.0469 640.8594,460.0469 Q641.7969,460.0469 642.4531,459.7969 Q642.8438,459.6406 643.2656,459.2031 Q643.5313,458.9375 643.6719,458.8594 Q643.8281,458.7813 644.0313,458.7813 Q644.3594,458.7813 644.6094,459.0469 Q644.875,459.2969 644.875,459.6406 Q644.875,459.9844 644.5313,460.3906 Q644.0313,460.9688 643.2344,461.2969 Q642.1563,461.75 640.8594,461.75 Q639.3438,461.75 638.1406,461.125 Q637.1563,460.625 636.4688,459.5625 Q635.7813,458.4844 635.7813,457.2031 L635.7813,456.0469 Q635.7813,454.7188 636.3906,453.5781 Q637.0156,452.4219 638.1094,451.8125 Q639.2031,451.1875 640.4375,451.1875 Q641.1719,451.1875 641.8125,451.3594 Q642.4688,451.5156 643.0156,451.875 Z " fill="#000000"/><text fill="#000000" font-family="sans-serif" font-size="14" lengthAdjust="spacing" textLength="116" x="660.75" y="461.7969">RepositoryFactory</text><line style="stroke:#181818;stroke-width:0.5;" x1="545.5" x2="859.5" y1="472" y2="472"/><line style="stroke:#181818;stroke-width:0.5;" x1="545.5" x2="859.5" y1="480" y2="480"/><ellipse cx="555.5" cy="494.8105" fill="#84BE84" rx="3" ry="3" style="stroke:#038048;stroke-width:1.0;"/><text fill="#000000" font-family="sans-serif" font-size="14" lengthAdjust="spacing" textLength="169" x="564.5" y="499.1074">newTransactionalContext()</text><ellipse cx="555.5" cy="513.4316" fill="#84BE84" rx="3" ry="3" style="stroke:#038048;stroke-width:1.0;"/><text fill="#000000" font-family="sans-serif" font-size="14" lengthAdjust="spacing" textLength="253" x="564.5" y="517.7285">jobOffers(autoTx: TransactionalContext)</text><ellipse cx="555.5" cy="532.0527" fill="#84BE84" rx="3" ry="3" style="stroke:#038048;stroke-width:1.0;"/><text fill="#000000" font-family="sans-serif" font-size="14" lengthAdjust="spacing" textLength="290" x="564.5" y="536.3496">jobApplications(autoTx: TransactionalContext)</text></g><!--class JobOfferRepository--><g id="elem_JobOfferRepository"><rect codeLine="41" fill="#F1F1F1" height="103.8633" id="JobOfferRepository" rx="2.5" ry="2.5" style="stroke:#181818;stroke-width:0.5;" width="441" x="682" y="706.5"/><ellipse cx="837.25" cy="722.5" fill="#ADD1B2" rx="11" ry="11" style="stroke:#181818;stroke-width:1.0;"/><path d="M840.0156,718.375 Q840.1719,718.1563 840.3594,718.0469 Q840.5469,717.9375 840.7656,717.9375 Q841.1406,717.9375 841.375,718.2031 Q841.6094,718.4531 841.6094,719.0625 L841.6094,720.5156 Q841.6094,721.125 841.375,721.3906 Q841.1406,721.6563 840.7656,721.6563 Q840.4219,721.6563 840.2188,721.4531 Q840.0156,721.2656 839.9063,720.75 Q839.8594,720.3906 839.6719,720.2031 Q839.3438,719.8281 838.7344,719.6094 Q838.125,719.3906 837.5,719.3906 Q836.7344,719.3906 836.0938,719.7188 Q835.4688,720.0469 834.9688,720.7969 Q834.4844,721.5469 834.4844,722.5781 L834.4844,723.6719 Q834.4844,724.9063 835.375,725.7344 Q836.2656,726.5469 837.8594,726.5469 Q838.7969,726.5469 839.4531,726.2969 Q839.8438,726.1406 840.2656,725.7031 Q840.5313,725.4375 840.6719,725.3594 Q840.8281,725.2813 841.0313,725.2813 Q841.3594,725.2813 841.6094,725.5469 Q841.875,725.7969 841.875,726.1406 Q841.875,726.4844 841.5313,726.8906 Q841.0313,727.4688 840.2344,727.7969 Q839.1563,728.25 837.8594,728.25 Q836.3438,728.25 835.1406,727.625 Q834.1563,727.125 833.4688,726.0625 Q832.7813,724.9844 832.7813,723.7031 L832.7813,722.5469 Q832.7813,721.2188 833.3906,720.0781 Q834.0156,718.9219 835.1094,718.3125 Q836.2031,717.6875 837.4375,717.6875 Q838.1719,717.6875 838.8125,717.8594 Q839.4688,718.0156 840.0156,718.375 Z " fill="#000000"/><text fill="#000000" font-family="sans-serif" font-size="14" lengthAdjust="spacing" textLength="122" x="857.75" y="728.2969">JobOfferRepository</text><line style="stroke:#181818;stroke-width:0.5;" x1="683" x2="1122" y1="738.5" y2="738.5"/><line style="stroke:#181818;stroke-width:0.5;" x1="683" x2="1122" y1="746.5" y2="746.5"/><ellipse cx="693" cy="761.3105" fill="#84BE84" rx="3" ry="3" style="stroke:#038048;stroke-width:1.0;"/><text fill="#000000" font-family="sans-serif" font-size="14" lengthAdjust="spacing" textLength="305" x="702" y="765.6074">findByRef(JobRefCode: ref): Optional&lt;JobOffer&gt;</text><ellipse cx="693" cy="779.9316" fill="#84BE84" rx="3" ry="3" style="stroke:#038048;stroke-width:1.0;"/><text fill="#000000" font-family="sans-serif" font-size="14" lengthAdjust="spacing" textLength="212" x="702" y="784.2285">findAllOffers(): Iterable&lt;JobOffer&gt;</text><ellipse cx="693" cy="798.5527" fill="#84BE84" rx="3" ry="3" style="stroke:#038048;stroke-width:1.0;"/><text fill="#000000" font-family="sans-serif" font-size="14" lengthAdjust="spacing" textLength="415" x="702" y="802.8496">findAllOffersOfCustomer(customer: Customer): Iterable&lt;JobOffer&gt;</text></g><!--class JobOffer--><g id="elem_JobOffer"><rect codeLine="47" fill="#F1F1F1" height="345.9375" id="JobOffer" rx="2.5" ry="2.5" style="stroke:#181818;stroke-width:0.5;" width="227" x="789" y="955"/><ellipse cx="871.25" cy="971" fill="#ADD1B2" rx="11" ry="11" style="stroke:#181818;stroke-width:1.0;"/><path d="M874.0156,966.875 Q874.1719,966.6563 874.3594,966.5469 Q874.5469,966.4375 874.7656,966.4375 Q875.1406,966.4375 875.375,966.7031 Q875.6094,966.9531 875.6094,967.5625 L875.6094,969.0156 Q875.6094,969.625 875.375,969.8906 Q875.1406,970.1563 874.7656,970.1563 Q874.4219,970.1563 874.2188,969.9531 Q874.0156,969.7656 873.9063,969.25 Q873.8594,968.8906 873.6719,968.7031 Q873.3438,968.3281 872.7344,968.1094 Q872.125,967.8906 871.5,967.8906 Q870.7344,967.8906 870.0938,968.2188 Q869.4688,968.5469 868.9688,969.2969 Q868.4844,970.0469 868.4844,971.0781 L868.4844,972.1719 Q868.4844,973.4063 869.375,974.2344 Q870.2656,975.0469 871.8594,975.0469 Q872.7969,975.0469 873.4531,974.7969 Q873.8438,974.6406 874.2656,974.2031 Q874.5313,973.9375 874.6719,973.8594 Q874.8281,973.7813 875.0313,973.7813 Q875.3594,973.7813 875.6094,974.0469 Q875.875,974.2969 875.875,974.6406 Q875.875,974.9844 875.5313,975.3906 Q875.0313,975.9688 874.2344,976.2969 Q873.1563,976.75 871.8594,976.75 Q870.3438,976.75 869.1406,976.125 Q868.1563,975.625 867.4688,974.5625 Q866.7813,973.4844 866.7813,972.2031 L866.7813,971.0469 Q866.7813,969.7188 867.3906,968.5781 Q868.0156,967.4219 869.1094,966.8125 Q870.2031,966.1875 871.4375,966.1875 Q872.1719,966.1875 872.8125,966.3594 Q873.4688,966.5156 874.0156,966.875 Z " fill="#000000"/><text fill="#000000" font-family="sans-serif" font-size="14" lengthAdjust="spacing" textLength="54" x="891.75" y="976.7969">JobOffer</text><line style="stroke:#181818;stroke-width:0.5;" x1="790" x2="1015" y1="987" y2="987"/><rect fill="none" height="6" style="stroke:#C82930;stroke-width:1.0;" width="6" x="797" y="998.8105"/><text fill="#000000" font-family="sans-serif" font-size="14" lengthAdjust="spacing" textLength="86" x="809" y="1006.1074">version: Long</text><rect fill="none" height="6" style="stroke:#C82930;stroke-width:1.0;" width="6" x="797" y="1017.4316"/><text fill="#000000" font-family="sans-serif" font-size="14" lengthAdjust="spacing" textLength="161" x="809" y="1024.7285">jobRefCode: JobRefCode</text><rect fill="none" height="6" style="stroke:#C82930;stroke-width:1.0;" width="6" x="797" y="1036.0527"/><text fill="#000000" font-family="sans-serif" font-size="14" lengthAdjust="spacing" textLength="79" x="809" y="1043.3496">title: JobTitle</text><rect fill="none" height="6" style="stroke:#C82930;stroke-width:1.0;" width="6" x="797" y="1054.6738"/><text fill="#000000" font-family="sans-serif" font-size="14" lengthAdjust="spacing" textLength="145" x="809" y="1061.9707">contract: ContractType</text><rect fill="none" height="6" style="stroke:#C82930;stroke-width:1.0;" width="6" x="797" y="1073.2949"/><text fill="#000000" font-family="sans-serif" font-size="14" lengthAdjust="spacing" textLength="100" x="809" y="1080.5918">mode: JobMode</text><rect fill="none" height="6" style="stroke:#C82930;stroke-width:1.0;" width="6" x="797" y="1091.916"/><text fill="#000000" font-family="sans-serif" font-size="14" lengthAdjust="spacing" textLength="200" x="809" y="1099.2129">vacancies: NumberOfVacancies</text><rect fill="none" height="6" style="stroke:#C82930;stroke-width:1.0;" width="6" x="797" y="1110.5371"/><text fill="#000000" font-family="sans-serif" font-size="14" lengthAdjust="spacing" textLength="170" x="809" y="1117.834">description: JobDescription</text><rect fill="none" height="6" style="stroke:#C82930;stroke-width:1.0;" width="6" x="797" y="1129.1582"/><text fill="#000000" font-family="sans-serif" font-size="14" lengthAdjust="spacing" textLength="111" x="809" y="1136.4551">address: Address</text><rect fill="none" height="6" style="stroke:#C82930;stroke-width:1.0;" width="6" x="797" y="1147.7793"/><text fill="#000000" font-family="sans-serif" font-size="14" lengthAdjust="spacing" textLength="127" x="809" y="1155.0762">customer: Customer</text><line style="stroke:#181818;stroke-width:0.5;" x1="790" x2="1015" y1="1162.5898" y2="1162.5898"/><ellipse cx="800" cy="1177.4004" fill="#84BE84" rx="3" ry="3" style="stroke:#038048;stroke-width:1.0;"/><text fill="#000000" font-family="sans-serif" font-size="14" lengthAdjust="spacing" textLength="168" x="809" y="1181.6973">equals(o: Object): boolean</text><ellipse cx="800" cy="1196.0215" fill="#84BE84" rx="3" ry="3" style="stroke:#038048;stroke-width:1.0;"/><text fill="#000000" font-family="sans-serif" font-size="14" lengthAdjust="spacing" textLength="98" x="809" y="1200.3184">hashCode(): int</text><ellipse cx="800" cy="1214.6426" fill="#84BE84" rx="3" ry="3" style="stroke:#038048;stroke-width:1.0;"/><text fill="#000000" font-family="sans-serif" font-size="14" lengthAdjust="spacing" textLength="201" x="809" y="1218.9395">sameAs(other: Object): boolean</text><ellipse cx="800" cy="1233.2637" fill="#84BE84" rx="3" ry="3" style="stroke:#038048;stroke-width:1.0;"/><text fill="#000000" font-family="sans-serif" font-size="14" lengthAdjust="spacing" textLength="157" x="809" y="1237.5605">reference(): JobRefCode</text><ellipse cx="800" cy="1251.8848" fill="#84BE84" rx="3" ry="3" style="stroke:#038048;stroke-width:1.0;"/><text fill="#000000" font-family="sans-serif" font-size="14" lengthAdjust="spacing" textLength="141" x="809" y="1256.1816">identity(): JobRefCode</text><ellipse cx="800" cy="1270.5059" fill="#84BE84" rx="3" ry="3" style="stroke:#038048;stroke-width:1.0;"/><text fill="#000000" font-family="sans-serif" font-size="14" lengthAdjust="spacing" textLength="136" x="809" y="1274.8027">toDTO(): JobOfferDto</text><ellipse cx="800" cy="1289.127" fill="#84BE84" rx="3" ry="3" style="stroke:#038048;stroke-width:1.0;"/><text fill="#000000" font-family="sans-serif" font-size="14" lengthAdjust="spacing" textLength="104" x="809" y="1293.4238">toString(): String</text></g><!--class JobApplicationRepository--><g id="elem_JobApplicationRepository"><rect codeLine="66" fill="#F1F1F1" height="103.8633" id="JobApplicationRepository" rx="2.5" ry="2.5" style="stroke:#181818;stroke-width:0.5;" width="457" x="7" y="440"/><ellipse cx="151.75" cy="456" fill="#ADD1B2" rx="11" ry="11" style="stroke:#181818;stroke-width:1.0;"/><path d="M154.5156,451.875 Q154.6719,451.6563 154.8594,451.5469 Q155.0469,451.4375 155.2656,451.4375 Q155.6406,451.4375 155.875,451.7031 Q156.1094,451.9531 156.1094,452.5625 L156.1094,454.0156 Q156.1094,454.625 155.875,454.8906 Q155.6406,455.1563 155.2656,455.1563 Q154.9219,455.1563 154.7188,454.9531 Q154.5156,454.7656 154.4063,454.25 Q154.3594,453.8906 154.1719,453.7031 Q153.8438,453.3281 153.2344,453.1094 Q152.625,452.8906 152,452.8906 Q151.2344,452.8906 150.5938,453.2188 Q149.9688,453.5469 149.4688,454.2969 Q148.9844,455.0469 148.9844,456.0781 L148.9844,457.1719 Q148.9844,458.4063 149.875,459.2344 Q150.7656,460.0469 152.3594,460.0469 Q153.2969,460.0469 153.9531,459.7969 Q154.3438,459.6406 154.7656,459.2031 Q155.0313,458.9375 155.1719,458.8594 Q155.3281,458.7813 155.5313,458.7813 Q155.8594,458.7813 156.1094,459.0469 Q156.375,459.2969 156.375,459.6406 Q156.375,459.9844 156.0313,460.3906 Q155.5313,460.9688 154.7344,461.2969 Q153.6563,461.75 152.3594,461.75 Q150.8438,461.75 149.6406,461.125 Q148.6563,460.625 147.9688,459.5625 Q147.2813,458.4844 147.2813,457.2031 L147.2813,456.0469 Q147.2813,454.7188 147.8906,453.5781 Q148.5156,452.4219 149.6094,451.8125 Q150.7031,451.1875 151.9375,451.1875 Q152.6719,451.1875 153.3125,451.3594 Q153.9688,451.5156 154.5156,451.875 Z " fill="#000000"/><text fill="#000000" font-family="sans-serif" font-size="14" lengthAdjust="spacing" textLength="159" x="172.25" y="461.7969">JobApplicationRepository</text><line style="stroke:#181818;stroke-width:0.5;" x1="8" x2="463" y1="472" y2="472"/><line style="stroke:#181818;stroke-width:0.5;" x1="8" x2="463" y1="480" y2="480"/><ellipse cx="18" cy="494.8105" fill="#84BE84" rx="3" ry="3" style="stroke:#038048;stroke-width:1.0;"/><text fill="#000000" font-family="sans-serif" font-size="14" lengthAdjust="spacing" textLength="308" x="27" y="499.1074">findByRef(Integer: ref): Optional&lt;JobApplication&gt;</text><ellipse cx="18" cy="513.4316" fill="#84BE84" rx="3" ry="3" style="stroke:#038048;stroke-width:1.0;"/><text fill="#000000" font-family="sans-serif" font-size="14" lengthAdjust="spacing" textLength="286" x="27" y="517.7285">findAllApplications(): Iterable&lt;JobApplication&gt;</text><ellipse cx="18" cy="532.0527" fill="#84BE84" rx="3" ry="3" style="stroke:#038048;stroke-width:1.0;"/><text fill="#000000" font-family="sans-serif" font-size="14" lengthAdjust="spacing" textLength="431" x="27" y="536.3496">findApplicationsOfJobOffer(JobOffer: offer): Iterable&lt;JobApplication&gt;</text></g><!--class JobApplication--><g id="elem_JobApplication"><rect codeLine="72" fill="#F1F1F1" height="271.4531" id="JobApplication" rx="2.5" ry="2.5" style="stroke:#181818;stroke-width:0.5;" width="274" x="98.5" y="623"/><ellipse cx="185.75" cy="639" fill="#ADD1B2" rx="11" ry="11" style="stroke:#181818;stroke-width:1.0;"/><path d="M188.5156,634.875 Q188.6719,634.6563 188.8594,634.5469 Q189.0469,634.4375 189.2656,634.4375 Q189.6406,634.4375 189.875,634.7031 Q190.1094,634.9531 190.1094,635.5625 L190.1094,637.0156 Q190.1094,637.625 189.875,637.8906 Q189.6406,638.1563 189.2656,638.1563 Q188.9219,638.1563 188.7188,637.9531 Q188.5156,637.7656 188.4063,637.25 Q188.3594,636.8906 188.1719,636.7031 Q187.8438,636.3281 187.2344,636.1094 Q186.625,635.8906 186,635.8906 Q185.2344,635.8906 184.5938,636.2188 Q183.9688,636.5469 183.4688,637.2969 Q182.9844,638.0469 182.9844,639.0781 L182.9844,640.1719 Q182.9844,641.4063 183.875,642.2344 Q184.7656,643.0469 186.3594,643.0469 Q187.2969,643.0469 187.9531,642.7969 Q188.3438,642.6406 188.7656,642.2031 Q189.0313,641.9375 189.1719,641.8594 Q189.3281,641.7813 189.5313,641.7813 Q189.8594,641.7813 190.1094,642.0469 Q190.375,642.2969 190.375,642.6406 Q190.375,642.9844 190.0313,643.3906 Q189.5313,643.9688 188.7344,644.2969 Q187.6563,644.75 186.3594,644.75 Q184.8438,644.75 183.6406,644.125 Q182.6563,643.625 181.9688,642.5625 Q181.2813,641.4844 181.2813,640.2031 L181.2813,639.0469 Q181.2813,637.7188 181.8906,636.5781 Q182.5156,635.4219 183.6094,634.8125 Q184.7031,634.1875 185.9375,634.1875 Q186.6719,634.1875 187.3125,634.3594 Q187.9688,634.5156 188.5156,634.875 Z " fill="#000000"/><text fill="#000000" font-family="sans-serif" font-size="14" lengthAdjust="spacing" textLength="91" x="206.25" y="644.7969">JobApplication</text><line style="stroke:#181818;stroke-width:0.5;" x1="99.5" x2="371.5" y1="655" y2="655"/><rect fill="none" height="6" style="stroke:#C82930;stroke-width:1.0;" width="6" x="106.5" y="666.8105"/><text fill="#000000" font-family="sans-serif" font-size="14" lengthAdjust="spacing" textLength="100" x="118.5" y="674.1074">refcode: Integer</text><rect fill="none" height="6" style="stroke:#C82930;stroke-width:1.0;" width="6" x="106.5" y="685.4316"/><text fill="#000000" font-family="sans-serif" font-size="14" lengthAdjust="spacing" textLength="140" x="118.5" y="692.7285">email:ApplicationEmail</text><rect fill="none" height="6" style="stroke:#C82930;stroke-width:1.0;" width="6" x="106.5" y="704.0527"/><text fill="#000000" font-family="sans-serif" font-size="14" lengthAdjust="spacing" textLength="246" x="118.5" y="711.3496">filesPath: ApplicationAttachedFilesPath</text><rect fill="none" height="6" style="stroke:#C82930;stroke-width:1.0;" width="6" x="106.5" y="722.6738"/><text fill="#000000" font-family="sans-serif" font-size="14" lengthAdjust="spacing" textLength="234" x="118.5" y="729.9707">attachedFile: ApplicationAttachedFile</text><rect fill="none" height="6" style="stroke:#C82930;stroke-width:1.0;" width="6" x="106.5" y="741.2949"/><text fill="#000000" font-family="sans-serif" font-size="14" lengthAdjust="spacing" textLength="141" x="118.5" y="748.5918">state: ApplicationState</text><rect fill="none" height="6" style="stroke:#C82930;stroke-width:1.0;" width="6" x="106.5" y="759.916"/><text fill="#000000" font-family="sans-serif" font-size="14" lengthAdjust="spacing" textLength="99" x="118.5" y="767.2129">ranking: Integer</text><rect fill="none" height="6" style="stroke:#C82930;stroke-width:1.0;" width="6" x="106.5" y="778.5371"/><text fill="#000000" font-family="sans-serif" font-size="14" lengthAdjust="spacing" textLength="110" x="118.5" y="785.834">joboffer: JobOffer</text><rect fill="none" height="6" style="stroke:#C82930;stroke-width:1.0;" width="6" x="106.5" y="797.1582"/><text fill="#000000" font-family="sans-serif" font-size="14" lengthAdjust="spacing" textLength="135" x="118.5" y="804.4551">candidate: Candidate</text><line style="stroke:#181818;stroke-width:0.5;" x1="99.5" x2="371.5" y1="811.9688" y2="811.9688"/><ellipse cx="109.5" cy="826.7793" fill="#84BE84" rx="3" ry="3" style="stroke:#038048;stroke-width:1.0;"/><text fill="#000000" font-family="sans-serif" font-size="14" lengthAdjust="spacing" textLength="201" x="118.5" y="831.0762">sameAs(other: Object): boolean</text><ellipse cx="109.5" cy="845.4004" fill="#84BE84" rx="3" ry="3" style="stroke:#038048;stroke-width:1.0;"/><text fill="#000000" font-family="sans-serif" font-size="14" lengthAdjust="spacing" textLength="107" x="118.5" y="849.6973">identity(): Integer</text><ellipse cx="109.5" cy="864.0215" fill="#84BE84" rx="3" ry="3" style="stroke:#038048;stroke-width:1.0;"/><text fill="#000000" font-family="sans-serif" font-size="14" lengthAdjust="spacing" textLength="159" x="118.5" y="868.3184">toDTO(): ApplicationDTO</text><ellipse cx="109.5" cy="882.6426" fill="#84BE84" rx="3" ry="3" style="stroke:#038048;stroke-width:1.0;"/><text fill="#000000" font-family="sans-serif" font-size="14" lengthAdjust="spacing" textLength="248" x="118.5" y="886.9395">sameOffer(jobOffer: JobOffer): boolean</text></g><!--link CustomerManagerUI to ListSortedApplicantsUI--><g id="link_CustomerManagerUI_ListSortedApplicantsUI"><path codeLine="87" d="M514.15,59 C525.67,59 531.2,59 542.73,59 " fill="none" id="CustomerManagerUI-to-ListSortedApplicantsUI" style="stroke:#181818;stroke-width:1.0;"/><polygon fill="#181818" points="548.73,59,539.73,55,543.73,59,539.73,63,548.73,59" style="stroke:#181818;stroke-width:1.0;"/></g><!--link ListSortedApplicantsUI to ListSortedApplicantsController--><g id="link_ListSortedApplicantsUI_ListSortedApplicantsController"><path codeLine="88" d="M702.5,111.04 C702.5,129.91 702.5,145.64 702.5,165.88 " fill="none" id="ListSortedApplicantsUI-to-ListSortedApplicantsController" style="stroke:#181818;stroke-width:1.0;"/><polygon fill="#181818" points="702.5,171.88,706.5,162.88,702.5,166.88,698.5,162.88,702.5,171.88" style="stroke:#181818;stroke-width:1.0;"/></g><!--link ListSortedApplicantsController to ListJobOfferService--><g id="link_ListSortedApplicantsController_ListJobOfferService"><path codeLine="90" d="M814.99,313.1 C885.93,357 970.0577,409.053 1030.1477,446.233 " fill="none" id="ListSortedApplicantsController-to-ListJobOfferService" style="stroke:#181818;stroke-width:1.0;"/><polygon fill="#181818" points="1035.25,449.39,1029.7012,441.253,1030.9981,446.7592,1025.4919,448.056,1035.25,449.39" style="stroke:#181818;stroke-width:1.0;"/></g><!--reverse link ListJobApplicationService to ListSortedApplicantsController--><g id="link_ListJobApplicationService_ListSortedApplicantsController"><path codeLine="91" d="M472.42,242.5 C484.72,242.5 491.01,242.5 503.31,242.5 " fill="none" id="ListJobApplicationService-backto-ListSortedApplicantsController" style="stroke:#181818;stroke-width:1.0;"/><polygon fill="#181818" points="466.42,242.5,475.42,246.5,471.42,242.5,475.42,238.5,466.42,242.5" style="stroke:#181818;stroke-width:1.0;"/></g><!--link ListSortedApplicantsController to PersistenceContext--><g id="link_ListSortedApplicantsController_PersistenceContext"><path codeLine="92" d="M702.5,313.37 C702.5,323.63 702.5,327.77 702.5,336.79 " fill="none" id="ListSortedApplicantsController-to-PersistenceContext" style="stroke:#181818;stroke-width:1.0;"/><polygon fill="#181818" points="702.5,342.79,706.5,333.79,702.5,337.79,698.5,333.79,702.5,342.79" style="stroke:#181818;stroke-width:1.0;"/></g><!--link PersistenceContext to RepositoryFactory--><g id="link_PersistenceContext_RepositoryFactory"><path codeLine="94" d="M702.5,410.02 C702.5,419.33 702.5,423.7 702.5,433.83 " fill="none" id="PersistenceContext-to-RepositoryFactory" style="stroke:#181818;stroke-width:1.0;"/><polygon fill="#181818" points="702.5,439.83,706.5,430.83,702.5,434.83,698.5,430.83,702.5,439.83" style="stroke:#181818;stroke-width:1.0;"/></g><!--link RepositoryFactory to JobOfferRepository--><g id="link_RepositoryFactory_JobOfferRepository"><path codeLine="96" d="M741.3,544.31 C776.63,591.03 824.891,654.8643 860.191,701.5443 " fill="none" id="RepositoryFactory-to-JobOfferRepository" style="stroke:#181818;stroke-width:1.0;"/><polygon fill="#181818" points="863.81,706.33,861.572,696.7388,860.7942,702.3419,855.191,701.5641,863.81,706.33" style="stroke:#181818;stroke-width:1.0;"/><text fill="#000000" font-family="sans-serif" font-size="13" lengthAdjust="spacing" textLength="44" x="773.5" y="589.0283">create()</text></g><!--reverse link JobApplicationRepository to RepositoryFactory--><g id="link_JobApplicationRepository_RepositoryFactory"><path codeLine="97" d="M470.21,492 C497.37,492 518.61,492 544.46,492 " fill="none" id="JobApplicationRepository-backto-RepositoryFactory" style="stroke:#181818;stroke-width:1.0;"/><polygon fill="#181818" points="464.21,492,473.21,496,469.21,492,473.21,488,464.21,492" style="stroke:#181818;stroke-width:1.0;"/><text fill="#000000" font-family="sans-serif" font-size="13" lengthAdjust="spacing" textLength="44" x="482.25" y="485.0283">create()</text></g><!--link ListJobOfferService to JobOfferRepository--><g id="link_ListJobOfferService_JobOfferRepository"><path codeLine="99" d="M1071.03,534.62 C1035.94,581.03 982.7686,651.344 944.9486,701.364 " fill="none" id="ListJobOfferService-to-JobOfferRepository" style="stroke:#181818;stroke-width:1.0;stroke-dasharray:7.0,7.0;"/><polygon fill="#181818" points="941.33,706.15,949.9486,701.3835,944.3455,702.1617,943.5673,696.5586,941.33,706.15" style="stroke:#181818;stroke-width:1.0;"/></g><!--link JobOfferRepository to JobOffer--><g id="link_JobOfferRepository_JobOffer"><path codeLine="100" d="M902.5,810.6 C902.5,848.37 902.5,896.15 902.5,948.67 " fill="none" id="JobOfferRepository-to-JobOffer" style="stroke:#181818;stroke-width:1.0;stroke-dasharray:7.0,7.0;"/><polygon fill="#181818" points="902.5,954.67,906.5,945.67,902.5,949.67,898.5,945.67,902.5,954.67" style="stroke:#181818;stroke-width:1.0;"/></g><!--link ListJobApplicationService to JobApplicationRepository--><g id="link_ListJobApplicationService_JobApplicationRepository"><path codeLine="101" d="M237.99,285.21 C237.48,327.77 236.7534,387.9204 236.1934,433.6804 " fill="none" id="ListJobApplicationService-to-JobApplicationRepository" style="stroke:#181818;stroke-width:1.0;stroke-dasharray:7.0,7.0;"/><polygon fill="#181818" points="236.12,439.68,240.2298,430.7296,236.1812,434.6804,232.2304,430.6317,236.12,439.68" style="stroke:#181818;stroke-width:1.0;"/></g><!--link JobApplicationRepository to JobApplication--><g id="link_JobApplicationRepository_JobApplication"><path codeLine="102" d="M235.5,544.31 C235.5,567 235.5,588.84 235.5,616.84 " fill="none" id="JobApplicationRepository-to-JobApplication" style="stroke:#181818;stroke-width:1.0;stroke-dasharray:7.0,7.0;"/><polygon fill="#181818" points="235.5,622.84,239.5,613.84,235.5,617.84,231.5,613.84,235.5,622.84" style="stroke:#181818;stroke-width:1.0;"/></g><!--SRC=[bLPDSzem4BtxL-XMCWp9tTDXXf1c9fscP0BfNTXhB2fBL199IAR_lIjRmZAMISe5MVlUxjFkwkDBQSnEfrTNEqw5sLVyCfFLLSQfrfESqOsYLPBKdsI-rqPMeEwfe1jGJtVloLzl-y6qMKfb89_jTfnbw4jR0C7VX9WIvb8O9Ja7bKR1hRtcZ0b7a8_uNQuNHG5gTE6CkLoMyWK_pmfeVNeXT6_AjvJCy4ygzaODas89wfbbu13Inh7EcDWuIoFOQ-Z2QHFC-XaWpLf4I1sJhNDeSQEB1l_LHvawq0PwgnhL4bFYeG4rYAMdtTn4bVYqADZ9sc40USGvpOnKXrPAwF_wSAnANz2T0KNN74v4zJM5AUsfgOqn7Tw68fuq2iXSdwJ77ZtHu7AAqLtu1oIZ0X1PtPdmQjwTU-NZCT1XWxKwRcbc_pn1mCjAKQ5n5fT8kVDtx5LVPpt2xfEhrvJ4u04wpF87dAEwVhQyl8A9_Fhm2CK8CVWtbpasfu82KxJODVvwRMT9CywTxdWo8yX5uVF_FoNfhe0qmfjMUBPbaW8xN8fDCByDbj8kAm0OPdXZMzbHOCdieO29H65kj3hiGa3blTvtNJvJt7uPTaLAVkwhDQX5ySjF1R0STAPOdTZQoqtx7Q1edYlGw6hM34A1lSmTZMC2V_QKun60jLjl8JEOrBMK7AW8G2NLfSs7BHmJ9h1eMi4CwNWWgxCki3z0sTrXVKGoF2Oi1u5PFWm2ZBnPBPorhkoDaHtpqYWyBosY6NLw8NeIzNlw3ZV2ngwbtz2TSwVJh9qDTkwq2bW1PL4SJpu_I9jxurCdNzVG7df5LZUUMv6RXeeodWRuRtR26Gl6GJzGKs8RjOYPCJGh8R_rLdzL1VE318VLXfekQ6bdl5OgVcEzJhNYfZov2Pm1DqdEyjhZt0-JJpTajzN2a46F1Kfn9d3Ur6bxh5DmIVaWM9dUquPC5DkKPZ8TUDaayMaooUMB6605Jvpal9rCd8lJHyT7D0w5QQcHfyT73gQHcv6afvTY4W4XjNT58ZDJWDMsdBuLAVrxA-H4A7Q5qy43eXCmaa1o6OsPH6I4o6GmeHuMVpWDokop_W40]--></g></svg>