<?xml version="1.0" encoding="us-ascii" standalone="no"?><svg xmlns="http://www.w3.org/2000/svg" xmlns:xlink="http://www.w3.org/1999/xlink" contentStyleType="text/css" height="928px" preserveAspectRatio="none" style="width:1623px;height:928px;background:#FFFFFF;" version="1.1" viewBox="0 0 1623 928" width="1623px" zoomAndPan="magnify"><defs/><g><rect fill="#FFFFFF" height="23.291" style="stroke:#181818;stroke-width:1.0;" width="10" x="71.5" y="48.6211"/><rect fill="#FFFFFF" height="9" style="stroke:#181818;stroke-width:1.0;" width="10" x="71.5" y="872.8965"/><rect fill="#FFFFFF" height="75.582" style="stroke:#181818;stroke-width:1.0;" width="10" x="240" y="71.9121"/><rect fill="#FFFFFF" height="75.582" style="stroke:#181818;stroke-width:1.0;" width="10" x="240" y="327.2402"/><rect fill="#FFFFFF" height="75.582" style="stroke:#181818;stroke-width:1.0;" width="10" x="240" y="559.2773"/><rect fill="#FFFFFF" height="75.582" style="stroke:#181818;stroke-width:1.0;" width="10" x="240" y="797.3145"/><rect fill="#FFFFFF" height="31.291" style="stroke:#181818;stroke-width:1.0;" width="10" x="467" y="147.4941"/><rect fill="#FFFFFF" height="31.291" style="stroke:#181818;stroke-width:1.0;" width="10" x="467" y="295.9492"/><rect fill="#FFFFFF" height="31.291" style="stroke:#181818;stroke-width:1.0;" width="10" x="467" y="402.8223"/><rect fill="#FFFFFF" height="31.291" style="stroke:#181818;stroke-width:1.0;" width="10" x="467" y="527.9863"/><rect fill="#FFFFFF" height="31.291" style="stroke:#181818;stroke-width:1.0;" width="10" x="467" y="634.8594"/><rect fill="#FFFFFF" height="31.291" style="stroke:#181818;stroke-width:1.0;" width="10" x="467" y="766.0234"/><rect fill="#FFFFFF" height="42.9365" style="stroke:#181818;stroke-width:1.0;" width="10" x="664.5" y="178.7852"/><rect fill="#FFFFFF" height="31.291" style="stroke:#181818;stroke-width:1.0;" width="10" x="664.5" y="264.6582"/><rect fill="#FFFFFF" height="42.9365" style="stroke:#181818;stroke-width:1.0;" width="10" x="845" y="221.7217"/><rect fill="#FFFFFF" height="31.291" style="stroke:#181818;stroke-width:1.0;" width="10" x="1034" y="434.1133"/><rect fill="#FFFFFF" height="31.291" style="stroke:#181818;stroke-width:1.0;" width="10" x="1034" y="496.6953"/><rect fill="#FFFFFF" height="31.291" style="stroke:#181818;stroke-width:1.0;" width="10" x="1034" y="666.1504"/><rect fill="#FFFFFF" height="34.291" style="stroke:#181818;stroke-width:1.0;" width="10" x="1034" y="731.7324"/><rect fill="#FFFFFF" height="31.291" style="stroke:#181818;stroke-width:1.0;" width="10" x="1261" y="465.4043"/><rect fill="#FFFFFF" height="34.291" style="stroke:#181818;stroke-width:1.0;" width="10" x="1261" y="697.4414"/><line style="stroke:#181818;stroke-width:0.5;stroke-dasharray:5.0,5.0;" x1="76" x2="76" y1="38.6211" y2="890.8965"/><line style="stroke:#181818;stroke-width:0.5;stroke-dasharray:5.0,5.0;" x1="245" x2="245" y1="38.6211" y2="890.8965"/><line style="stroke:#181818;stroke-width:0.5;stroke-dasharray:5.0,5.0;" x1="472" x2="472" y1="38.6211" y2="890.8965"/><line style="stroke:#181818;stroke-width:0.5;stroke-dasharray:5.0,5.0;" x1="669" x2="669" y1="38.6211" y2="890.8965"/><line style="stroke:#181818;stroke-width:0.5;stroke-dasharray:5.0,5.0;" x1="850" x2="850" y1="38.6211" y2="890.8965"/><line style="stroke:#181818;stroke-width:0.5;stroke-dasharray:5.0,5.0;" x1="1039" x2="1039" y1="38.6211" y2="890.8965"/><line style="stroke:#181818;stroke-width:0.5;stroke-dasharray:5.0,5.0;" x1="1266" x2="1266" y1="38.6211" y2="890.8965"/><rect fill="#E2E2F0" height="32.6211" rx="2.5" ry="2.5" style="stroke:#181818;stroke-width:0.5;" width="143" x="5" y="5"/><text fill="#000000" font-family="sans-serif" font-size="14" lengthAdjust="spacing" textLength="129" x="12" y="27.1074">CustomerManagerUI</text><rect fill="#E2E2F0" height="32.6211" rx="2.5" ry="2.5" style="stroke:#181818;stroke-width:0.5;" width="143" x="5" y="889.8965"/><text fill="#000000" font-family="sans-serif" font-size="14" lengthAdjust="spacing" textLength="129" x="12" y="912.0039">CustomerManagerUI</text><rect fill="#E2E2F0" height="32.6211" rx="2.5" ry="2.5" style="stroke:#181818;stroke-width:0.5;" width="174" x="158" y="5"/><text fill="#000000" font-family="sans-serif" font-size="14" lengthAdjust="spacing" textLength="160" x="165" y="27.1074">UpdateJobRequirementUI</text><rect fill="#E2E2F0" height="32.6211" rx="2.5" ry="2.5" style="stroke:#181818;stroke-width:0.5;" width="174" x="158" y="889.8965"/><text fill="#000000" font-family="sans-serif" font-size="14" lengthAdjust="spacing" textLength="160" x="165" y="912.0039">UpdateJobRequirementUI</text><rect fill="#E2E2F0" height="32.6211" rx="2.5" ry="2.5" style="stroke:#181818;stroke-width:0.5;" width="224" x="360" y="5"/><text fill="#000000" font-family="sans-serif" font-size="14" lengthAdjust="spacing" textLength="210" x="367" y="27.1074">UpdateJobRequirementController</text><rect fill="#E2E2F0" height="32.6211" rx="2.5" ry="2.5" style="stroke:#181818;stroke-width:0.5;" width="224" x="360" y="889.8965"/><text fill="#000000" font-family="sans-serif" font-size="14" lengthAdjust="spacing" textLength="210" x="367" y="912.0039">UpdateJobRequirementController</text><rect fill="#E2E2F0" height="32.6211" rx="2.5" ry="2.5" style="stroke:#181818;stroke-width:0.5;" width="151" x="594" y="5"/><text fill="#000000" font-family="sans-serif" font-size="14" lengthAdjust="spacing" textLength="137" x="601" y="27.1074">ManagePluginService</text><rect fill="#E2E2F0" height="32.6211" rx="2.5" ry="2.5" style="stroke:#181818;stroke-width:0.5;" width="151" x="594" y="889.8965"/><text fill="#000000" font-family="sans-serif" font-size="14" lengthAdjust="spacing" textLength="137" x="601" y="912.0039">ManagePluginService</text><rect fill="#E2E2F0" height="32.6211" rx="2.5" ry="2.5" style="stroke:#181818;stroke-width:0.5;" width="190" x="755" y="5"/><text fill="#000000" font-family="sans-serif" font-size="14" lengthAdjust="spacing" textLength="176" x="762" y="27.1074">RegisteredPluginRepository</text><rect fill="#E2E2F0" height="32.6211" rx="2.5" ry="2.5" style="stroke:#181818;stroke-width:0.5;" width="190" x="755" y="889.8965"/><text fill="#000000" font-family="sans-serif" font-size="14" lengthAdjust="spacing" textLength="176" x="762" y="912.0039">RegisteredPluginRepository</text><rect fill="#E2E2F0" height="32.6211" rx="2.5" ry="2.5" style="stroke:#181818;stroke-width:0.5;" width="168" x="955" y="5"/><text fill="#000000" font-family="sans-serif" font-size="14" lengthAdjust="spacing" textLength="154" x="962" y="27.1074">RegisterJobOfferService</text><rect fill="#E2E2F0" height="32.6211" rx="2.5" ry="2.5" style="stroke:#181818;stroke-width:0.5;" width="168" x="955" y="889.8965"/><text fill="#000000" font-family="sans-serif" font-size="14" lengthAdjust="spacing" textLength="154" x="962" y="912.0039">RegisterJobOfferService</text><rect fill="#E2E2F0" height="32.6211" rx="2.5" ry="2.5" style="stroke:#181818;stroke-width:0.5;" width="136" x="1198" y="5"/><text fill="#000000" font-family="sans-serif" font-size="14" lengthAdjust="spacing" textLength="122" x="1205" y="27.1074">JobOfferRepository</text><rect fill="#E2E2F0" height="32.6211" rx="2.5" ry="2.5" style="stroke:#181818;stroke-width:0.5;" width="136" x="1198" y="889.8965"/><text fill="#000000" font-family="sans-serif" font-size="14" lengthAdjust="spacing" textLength="122" x="1205" y="912.0039">JobOfferRepository</text><rect fill="#FFFFFF" height="23.291" style="stroke:#181818;stroke-width:1.0;" width="10" x="71.5" y="48.6211"/><rect fill="#FFFFFF" height="9" style="stroke:#181818;stroke-width:1.0;" width="10" x="71.5" y="872.8965"/><rect fill="#FFFFFF" height="75.582" style="stroke:#181818;stroke-width:1.0;" width="10" x="240" y="71.9121"/><rect fill="#FFFFFF" height="75.582" style="stroke:#181818;stroke-width:1.0;" width="10" x="240" y="327.2402"/><rect fill="#FFFFFF" height="75.582" style="stroke:#181818;stroke-width:1.0;" width="10" x="240" y="559.2773"/><rect fill="#FFFFFF" height="75.582" style="stroke:#181818;stroke-width:1.0;" width="10" x="240" y="797.3145"/><rect fill="#FFFFFF" height="31.291" style="stroke:#181818;stroke-width:1.0;" width="10" x="467" y="147.4941"/><rect fill="#FFFFFF" height="31.291" style="stroke:#181818;stroke-width:1.0;" width="10" x="467" y="295.9492"/><rect fill="#FFFFFF" height="31.291" style="stroke:#181818;stroke-width:1.0;" width="10" x="467" y="402.8223"/><rect fill="#FFFFFF" height="31.291" style="stroke:#181818;stroke-width:1.0;" width="10" x="467" y="527.9863"/><rect fill="#FFFFFF" height="31.291" style="stroke:#181818;stroke-width:1.0;" width="10" x="467" y="634.8594"/><rect fill="#FFFFFF" height="31.291" style="stroke:#181818;stroke-width:1.0;" width="10" x="467" y="766.0234"/><rect fill="#FFFFFF" height="42.9365" style="stroke:#181818;stroke-width:1.0;" width="10" x="664.5" y="178.7852"/><rect fill="#FFFFFF" height="31.291" style="stroke:#181818;stroke-width:1.0;" width="10" x="664.5" y="264.6582"/><rect fill="#FFFFFF" height="42.9365" style="stroke:#181818;stroke-width:1.0;" width="10" x="845" y="221.7217"/><rect fill="#FFFFFF" height="31.291" style="stroke:#181818;stroke-width:1.0;" width="10" x="1034" y="434.1133"/><rect fill="#FFFFFF" height="31.291" style="stroke:#181818;stroke-width:1.0;" width="10" x="1034" y="496.6953"/><rect fill="#FFFFFF" height="31.291" style="stroke:#181818;stroke-width:1.0;" width="10" x="1034" y="666.1504"/><rect fill="#FFFFFF" height="34.291" style="stroke:#181818;stroke-width:1.0;" width="10" x="1034" y="731.7324"/><rect fill="#FFFFFF" height="31.291" style="stroke:#181818;stroke-width:1.0;" width="10" x="1261" y="465.4043"/><rect fill="#FFFFFF" height="34.291" style="stroke:#181818;stroke-width:1.0;" width="10" x="1261" y="697.4414"/><polygon fill="#181818" points="228,67.9121,238,71.9121,228,75.9121,232,71.9121" style="stroke:#181818;stroke-width:1.0;"/><line style="stroke:#181818;stroke-width:1.0;" x1="76.5" x2="234" y1="71.9121" y2="71.9121"/><text fill="#000000" font-family="sans-serif" font-size="13" font-weight="bold" lengthAdjust="spacing" textLength="7" x="83.5" y="66.6494">1</text><text fill="#000000" font-family="sans-serif" font-size="13" lengthAdjust="spacing" textLength="4" x="94.5" y="66.6494">&#160;</text><line style="stroke:#181818;stroke-width:1.0;" x1="250" x2="292" y1="103.2031" y2="103.2031"/><line style="stroke:#181818;stroke-width:1.0;" x1="292" x2="292" y1="103.2031" y2="116.2031"/><line style="stroke:#181818;stroke-width:1.0;" x1="251" x2="292" y1="116.2031" y2="116.2031"/><polygon fill="#181818" points="261,112.2031,251,116.2031,261,120.2031,257,116.2031" style="stroke:#181818;stroke-width:1.0;"/><text fill="#000000" font-family="sans-serif" font-size="13" font-weight="bold" lengthAdjust="spacing" textLength="7" x="257" y="97.9404">2</text><text fill="#000000" font-family="sans-serif" font-size="13" lengthAdjust="spacing" textLength="54" x="268" y="97.9404">doShow()</text><polygon fill="#181818" points="455,143.4941,465,147.4941,455,151.4941,459,147.4941" style="stroke:#181818;stroke-width:1.0;"/><line style="stroke:#181818;stroke-width:1.0;" x1="245" x2="461" y1="147.4941" y2="147.4941"/><text fill="#000000" font-family="sans-serif" font-size="13" font-weight="bold" lengthAdjust="spacing" textLength="7" x="252" y="142.2314">3</text><text fill="#000000" font-family="sans-serif" font-size="13" lengthAdjust="spacing" textLength="69" x="263" y="142.2314">getPlugins()</text><polygon fill="#181818" points="652.5,174.7852,662.5,178.7852,652.5,182.7852,656.5,178.7852" style="stroke:#181818;stroke-width:1.0;"/><line style="stroke:#181818;stroke-width:1.0;" x1="472" x2="658.5" y1="178.7852" y2="178.7852"/><text fill="#000000" font-family="sans-serif" font-size="13" font-weight="bold" lengthAdjust="spacing" textLength="7" x="479" y="173.5225">4</text><text fill="#000000" font-family="sans-serif" font-size="13" lengthAdjust="spacing" textLength="121" x="490" y="173.5225">allJobRequirements()</text><polygon fill="#181818" points="833,217.7217,843,221.7217,833,225.7217,837,221.7217" style="stroke:#181818;stroke-width:1.0;"/><line style="stroke:#181818;stroke-width:1.0;" x1="669.5" x2="839" y1="221.7217" y2="221.7217"/><text fill="#000000" font-family="sans-serif" font-size="13" font-weight="bold" lengthAdjust="spacing" textLength="7" x="676.5" y="216.459">5</text><text fill="#000000" font-family="sans-serif" font-size="13" lengthAdjust="spacing" textLength="136" x="687.5" y="216.459">findAllJobRequirement()</text><path d="M860,191.7852 L860,235.7852 L1141,235.7852 L1141,201.7852 L1131,191.7852 L860,191.7852 " fill="#FEFFDD" style="stroke:#181818;stroke-width:0.5;"/><path d="M1131,191.7852 L1131,201.7852 L1141,201.7852 L1131,191.7852 " fill="#FEFFDD" style="stroke:#181818;stroke-width:0.5;"/><text fill="#000000" font-family="sans-serif" font-size="13" lengthAdjust="spacing" textLength="236" x="866" y="210.8135">The repository class performs a query on</text><text fill="#000000" font-family="sans-serif" font-size="13" lengthAdjust="spacing" textLength="256" x="870" y="228.1045">the database to get the filtered list of plugins</text><polygon fill="#181818" points="685.5,260.6582,675.5,264.6582,685.5,268.6582,681.5,264.6582" style="stroke:#181818;stroke-width:1.0;"/><line style="stroke:#181818;stroke-width:1.0;stroke-dasharray:2.0,2.0;" x1="679.5" x2="849" y1="264.6582" y2="264.6582"/><text fill="#000000" font-family="sans-serif" font-size="13" font-weight="bold" lengthAdjust="spacing" textLength="7" x="691.5" y="259.3955">6</text><text fill="#000000" font-family="sans-serif" font-size="13" lengthAdjust="spacing" textLength="41" x="702.5" y="259.3955">plugins</text><polygon fill="#181818" points="488,291.9492,478,295.9492,488,299.9492,484,295.9492" style="stroke:#181818;stroke-width:1.0;"/><line style="stroke:#181818;stroke-width:1.0;stroke-dasharray:2.0,2.0;" x1="482" x2="668.5" y1="295.9492" y2="295.9492"/><text fill="#000000" font-family="sans-serif" font-size="13" font-weight="bold" lengthAdjust="spacing" textLength="7" x="494" y="290.6865">7</text><text fill="#000000" font-family="sans-serif" font-size="13" lengthAdjust="spacing" textLength="41" x="505" y="290.6865">plugins</text><polygon fill="#181818" points="261,323.2402,251,327.2402,261,331.2402,257,327.2402" style="stroke:#181818;stroke-width:1.0;"/><line style="stroke:#181818;stroke-width:1.0;stroke-dasharray:2.0,2.0;" x1="255" x2="471" y1="327.2402" y2="327.2402"/><text fill="#000000" font-family="sans-serif" font-size="13" font-weight="bold" lengthAdjust="spacing" textLength="7" x="267" y="321.9775">8</text><text fill="#000000" font-family="sans-serif" font-size="13" lengthAdjust="spacing" textLength="41" x="278" y="321.9775">plugins</text><line style="stroke:#181818;stroke-width:1.0;" x1="250" x2="292" y1="358.5313" y2="358.5313"/><line style="stroke:#181818;stroke-width:1.0;" x1="292" x2="292" y1="358.5313" y2="371.5313"/><line style="stroke:#181818;stroke-width:1.0;" x1="251" x2="292" y1="371.5313" y2="371.5313"/><polygon fill="#181818" points="261,367.5313,251,371.5313,261,375.5313,257,371.5313" style="stroke:#181818;stroke-width:1.0;"/><text fill="#000000" font-family="sans-serif" font-size="13" font-weight="bold" lengthAdjust="spacing" textLength="7" x="257" y="353.2686">9</text><text fill="#000000" font-family="sans-serif" font-size="13" lengthAdjust="spacing" textLength="30" x="268" y="353.2686">show</text><polygon fill="#181818" points="455,398.8223,465,402.8223,455,406.8223,459,402.8223" style="stroke:#181818;stroke-width:1.0;"/><line style="stroke:#181818;stroke-width:1.0;" x1="245" x2="461" y1="402.8223" y2="402.8223"/><text fill="#000000" font-family="sans-serif" font-size="13" font-weight="bold" lengthAdjust="spacing" textLength="14" x="252" y="397.5596">10</text><text fill="#000000" font-family="sans-serif" font-size="13" lengthAdjust="spacing" textLength="60" x="270" y="397.5596">getOffers()</text><polygon fill="#181818" points="1022,430.1133,1032,434.1133,1022,438.1133,1026,434.1133" style="stroke:#181818;stroke-width:1.0;"/><line style="stroke:#181818;stroke-width:1.0;" x1="472" x2="1028" y1="434.1133" y2="434.1133"/><text fill="#000000" font-family="sans-serif" font-size="13" font-weight="bold" lengthAdjust="spacing" textLength="14" x="479" y="428.8506">11</text><text fill="#000000" font-family="sans-serif" font-size="13" lengthAdjust="spacing" textLength="60" x="497" y="428.8506">getOffers()</text><polygon fill="#181818" points="1249,461.4043,1259,465.4043,1249,469.4043,1253,465.4043" style="stroke:#181818;stroke-width:1.0;"/><line style="stroke:#181818;stroke-width:1.0;" x1="1039" x2="1255" y1="465.4043" y2="465.4043"/><text fill="#000000" font-family="sans-serif" font-size="13" font-weight="bold" lengthAdjust="spacing" textLength="14" x="1046" y="460.1416">12</text><text fill="#000000" font-family="sans-serif" font-size="13" lengthAdjust="spacing" textLength="77" x="1064" y="460.1416">findAllOffers()</text><polygon fill="#181818" points="1055,492.6953,1045,496.6953,1055,500.6953,1051,496.6953" style="stroke:#181818;stroke-width:1.0;"/><line style="stroke:#181818;stroke-width:1.0;stroke-dasharray:2.0,2.0;" x1="1049" x2="1265" y1="496.6953" y2="496.6953"/><text fill="#000000" font-family="sans-serif" font-size="13" font-weight="bold" lengthAdjust="spacing" textLength="14" x="1061" y="491.4326">13</text><text fill="#000000" font-family="sans-serif" font-size="13" lengthAdjust="spacing" textLength="59" x="1079" y="491.4326">jobOffers()</text><polygon fill="#181818" points="488,523.9863,478,527.9863,488,531.9863,484,527.9863" style="stroke:#181818;stroke-width:1.0;"/><line style="stroke:#181818;stroke-width:1.0;stroke-dasharray:2.0,2.0;" x1="482" x2="1038" y1="527.9863" y2="527.9863"/><text fill="#000000" font-family="sans-serif" font-size="13" font-weight="bold" lengthAdjust="spacing" textLength="14" x="494" y="522.7236">14</text><text fill="#000000" font-family="sans-serif" font-size="13" lengthAdjust="spacing" textLength="51" x="512" y="522.7236">jobOffers</text><polygon fill="#181818" points="261,555.2773,251,559.2773,261,563.2773,257,559.2773" style="stroke:#181818;stroke-width:1.0;"/><line style="stroke:#181818;stroke-width:1.0;stroke-dasharray:2.0,2.0;" x1="255" x2="471" y1="559.2773" y2="559.2773"/><text fill="#000000" font-family="sans-serif" font-size="13" font-weight="bold" lengthAdjust="spacing" textLength="14" x="267" y="554.0146">15</text><text fill="#000000" font-family="sans-serif" font-size="13" lengthAdjust="spacing" textLength="51" x="285" y="554.0146">jobOffers</text><line style="stroke:#181818;stroke-width:1.0;" x1="250" x2="292" y1="590.5684" y2="590.5684"/><line style="stroke:#181818;stroke-width:1.0;" x1="292" x2="292" y1="590.5684" y2="603.5684"/><line style="stroke:#181818;stroke-width:1.0;" x1="251" x2="292" y1="603.5684" y2="603.5684"/><polygon fill="#181818" points="261,599.5684,251,603.5684,261,607.5684,257,603.5684" style="stroke:#181818;stroke-width:1.0;"/><text fill="#000000" font-family="sans-serif" font-size="13" font-weight="bold" lengthAdjust="spacing" textLength="14" x="257" y="585.3057">16</text><text fill="#000000" font-family="sans-serif" font-size="13" lengthAdjust="spacing" textLength="30" x="275" y="585.3057">show</text><polygon fill="#181818" points="455,630.8594,465,634.8594,455,638.8594,459,634.8594" style="stroke:#181818;stroke-width:1.0;"/><line style="stroke:#181818;stroke-width:1.0;" x1="245" x2="461" y1="634.8594" y2="634.8594"/><text fill="#000000" font-family="sans-serif" font-size="13" font-weight="bold" lengthAdjust="spacing" textLength="14" x="252" y="629.5967">17</text><text fill="#000000" font-family="sans-serif" font-size="13" lengthAdjust="spacing" textLength="180" x="270" y="629.5967">updateJobOffer(jobOffer, plugin)</text><polygon fill="#181818" points="1022,662.1504,1032,666.1504,1022,670.1504,1026,666.1504" style="stroke:#181818;stroke-width:1.0;"/><line style="stroke:#181818;stroke-width:1.0;" x1="472" x2="1028" y1="666.1504" y2="666.1504"/><text fill="#000000" font-family="sans-serif" font-size="13" font-weight="bold" lengthAdjust="spacing" textLength="14" x="479" y="660.8877">18</text><text fill="#000000" font-family="sans-serif" font-size="13" lengthAdjust="spacing" textLength="180" x="497" y="660.8877">updateJobOffer(jobOffer, plugin)</text><polygon fill="#181818" points="1249,693.4414,1259,697.4414,1249,701.4414,1253,697.4414" style="stroke:#181818;stroke-width:1.0;"/><line style="stroke:#181818;stroke-width:1.0;" x1="1039" x2="1255" y1="697.4414" y2="697.4414"/><text fill="#000000" font-family="sans-serif" font-size="13" font-weight="bold" lengthAdjust="spacing" textLength="14" x="1046" y="692.1787">19</text><text fill="#000000" font-family="sans-serif" font-size="13" lengthAdjust="spacing" textLength="180" x="1064" y="692.1787">updateJobOffer(jobOffer, plugin)</text><polygon fill="#181818" points="1055,727.7324,1045,731.7324,1055,735.7324,1051,731.7324" style="stroke:#181818;stroke-width:1.0;"/><line style="stroke:#181818;stroke-width:1.0;stroke-dasharray:2.0,2.0;" x1="1049" x2="1265" y1="731.7324" y2="731.7324"/><text fill="#000000" font-family="sans-serif" font-size="13" font-weight="bold" lengthAdjust="spacing" textLength="14" x="1061" y="726.4697">20</text><text fill="#000000" font-family="sans-serif" font-size="13" lengthAdjust="spacing" textLength="44" x="1079" y="726.4697">jobOffer</text><path d="M1276,710.4414 L1276,737.4414 L1616,737.4414 L1616,720.4414 L1606,710.4414 L1276,710.4414 " fill="#FEFFDD" style="stroke:#181818;stroke-width:0.5;"/><path d="M1606,710.4414 L1606,720.4414 L1616,720.4414 L1606,710.4414 " fill="#FEFFDD" style="stroke:#181818;stroke-width:0.5;"/><text fill="#000000" font-family="sans-serif" font-size="13" lengthAdjust="spacing" textLength="319" x="1282" y="729.4697">repository as information expert updates the entry in db</text><polygon fill="#181818" points="488,762.0234,478,766.0234,488,770.0234,484,766.0234" style="stroke:#181818;stroke-width:1.0;"/><line style="stroke:#181818;stroke-width:1.0;stroke-dasharray:2.0,2.0;" x1="482" x2="1038" y1="766.0234" y2="766.0234"/><text fill="#000000" font-family="sans-serif" font-size="13" font-weight="bold" lengthAdjust="spacing" textLength="14" x="494" y="760.7607">21</text><text fill="#000000" font-family="sans-serif" font-size="13" lengthAdjust="spacing" textLength="44" x="512" y="760.7607">jobOffer</text><polygon fill="#181818" points="261,793.3145,251,797.3145,261,801.3145,257,797.3145" style="stroke:#181818;stroke-width:1.0;"/><line style="stroke:#181818;stroke-width:1.0;stroke-dasharray:2.0,2.0;" x1="255" x2="471" y1="797.3145" y2="797.3145"/><text fill="#000000" font-family="sans-serif" font-size="13" font-weight="bold" lengthAdjust="spacing" textLength="14" x="267" y="792.0518">22</text><text fill="#000000" font-family="sans-serif" font-size="13" lengthAdjust="spacing" textLength="44" x="285" y="792.0518">jobOffer</text><line style="stroke:#181818;stroke-width:1.0;" x1="250" x2="292" y1="828.6055" y2="828.6055"/><line style="stroke:#181818;stroke-width:1.0;" x1="292" x2="292" y1="828.6055" y2="841.6055"/><line style="stroke:#181818;stroke-width:1.0;" x1="251" x2="292" y1="841.6055" y2="841.6055"/><polygon fill="#181818" points="261,837.6055,251,841.6055,261,845.6055,257,841.6055" style="stroke:#181818;stroke-width:1.0;"/><text fill="#000000" font-family="sans-serif" font-size="13" font-weight="bold" lengthAdjust="spacing" textLength="14" x="257" y="823.3428">23</text><text fill="#000000" font-family="sans-serif" font-size="13" lengthAdjust="spacing" textLength="30" x="275" y="823.3428">show</text><polygon fill="#181818" points="92.5,868.8965,82.5,872.8965,92.5,876.8965,88.5,872.8965" style="stroke:#181818;stroke-width:1.0;"/><line style="stroke:#181818;stroke-width:1.0;stroke-dasharray:2.0,2.0;" x1="86.5" x2="244" y1="872.8965" y2="872.8965"/><text fill="#000000" font-family="sans-serif" font-size="13" font-weight="bold" lengthAdjust="spacing" textLength="14" x="98.5" y="867.6338">24</text><text fill="#000000" font-family="sans-serif" font-size="13" lengthAdjust="spacing" textLength="4" x="116.5" y="867.6338">&#160;</text><!--SRC=[rLPDKy8m4BttL-GcpeZSEJZZSD8PHmVavYMqsn8dJMgoHVttBWLA2qbj0HLldUp7U_lnabxC4JCx70mooHNcgRmETJgmy9Q32g4V2PuOdWO1pr6hF9s12OAC6nIXo2Y0ZNABEWNpm1LFm4plQjPf5d64UpqRKq9X80M5BLn6Mg7HKX9OrNM5yIJpHAW9c8K8eMOVGo8iWe5evJE6J5k1sdmwtGZpCOx1k59jR9KKr8CGnOB8EehUEs7z6r_r4JGaAasUOFUn7uqDMQGdS_tUk-mOknq2vKW0LpsrbATIW8TbexqotMzmYPbZvaI7IraFQa6h0blwkJRAXKX4_Cj5V6AXejjTJdLABgZIsB2vIfFTY6IEXFCyf-yjS2YvjIm34skJMiOPgPQEjNfH3CcLci1dt093lPnWSHOBMG0nIOXCnonRpJLeAB3l7SGck59eGotT-zvcDnqS6fjzv4usISr1fUqgdaxlbjH-fDQBk- -tfUwvbxinShNMT-7x08dB_ls_LRcBYW-YT70yA0wCVcCRNjSdEzYkt8VNtcP3IYATMl23kdCI-d_AopSEHJ6zJLLNwtlbNEJOWURfHNWG-2dLLt-HAwynjqoevKlCKMZ5u8CUPbppjSNRIpqcFw5ODAkEyi_qUsxoFMFrKk3-pte7EUu5Vm40]--></g></svg>