<?xml version="1.0" encoding="us-ascii" standalone="no"?><svg xmlns="http://www.w3.org/2000/svg" xmlns:xlink="http://www.w3.org/1999/xlink" contentStyleType="text/css" height="539.7px" preserveAspectRatio="none" style="width:927px;height:539px;background:#FFFFFF;" version="1.1" viewBox="0 0 927 539" width="927.5px" zoomAndPan="magnify"><defs/><g><!--class CustomerManagerUI--><g id="elem_CustomerManagerUI"><rect codeLine="3" fill="#F1F1F1" height="46.6348" id="CustomerManagerUI" rx="1.75" ry="1.75" style="stroke:#181818;stroke-width:0.3499999999999999;" width="112.7" x="46.55" y="17.85"/><ellipse cx="57.05" cy="29.05" fill="#ADD1B2" rx="7.7" ry="7.7" style="stroke:#181818;stroke-width:0.6999999999999998;"/><path d="M58.9859,26.1625 Q59.0953,26.0094 59.2266,25.9328 Q59.3578,25.8562 59.5109,25.8562 Q59.7734,25.8562 59.9375,26.0422 Q60.1016,26.2172 60.1016,26.6437 L60.1016,27.6609 Q60.1016,28.0875 59.9375,28.2734 Q59.7734,28.4594 59.5109,28.4594 Q59.2703,28.4594 59.1281,28.3172 Q58.9859,28.1859 58.9094,27.825 Q58.8766,27.5734 58.7453,27.4422 Q58.5156,27.1797 58.0891,27.0266 Q57.6625,26.8734 57.225,26.8734 Q56.6891,26.8734 56.2406,27.1031 Q55.8031,27.3328 55.4531,27.8578 Q55.1141,28.3828 55.1141,29.1047 L55.1141,29.8703 Q55.1141,30.7344 55.7375,31.3141 Q56.3609,31.8828 57.4766,31.8828 Q58.1328,31.8828 58.5922,31.7078 Q58.8656,31.5984 59.1609,31.2922 Q59.3469,31.1062 59.4453,31.0516 Q59.5547,30.9969 59.6969,30.9969 Q59.9266,30.9969 60.1016,31.1828 Q60.2875,31.3578 60.2875,31.5984 Q60.2875,31.8391 60.0469,32.1234 Q59.6969,32.5281 59.1391,32.7578 Q58.3844,33.075 57.4766,33.075 Q56.4156,33.075 55.5734,32.6375 Q54.8844,32.2875 54.4031,31.5437 Q53.9219,30.7891 53.9219,29.8922 L53.9219,29.0828 Q53.9219,28.1531 54.3484,27.3547 Q54.7859,26.5453 55.5516,26.1187 Q56.3172,25.6812 57.1812,25.6812 Q57.6953,25.6812 58.1437,25.8016 Q58.6031,25.9109 58.9859,26.1625 Z " fill="#000000"/><text fill="#000000" font-family="sans-serif" font-size="9.8" lengthAdjust="spacing" textLength="90.3" x="66.85" y="33.1078">CustomerManagerUI</text><line style="stroke:#181818;stroke-width:0.3499999999999999;" x1="47.25" x2="158.55" y1="40.25" y2="40.25"/><line style="stroke:#181818;stroke-width:0.3499999999999999;" x1="47.25" x2="158.55" y1="45.85" y2="45.85"/><ellipse cx="54.25" cy="56.2174" fill="#84BE84" rx="2.1" ry="2.1" style="stroke:#038048;stroke-width:0.6999999999999998;"/><text fill="#000000" font-family="sans-serif" font-size="9.8" lengthAdjust="spacing" textLength="42" x="60.55" y="59.2252">doShow()</text></g><!--class UpdateJobRequirementUI--><g id="elem_UpdateJobRequirementUI"><rect codeLine="7" fill="#F1F1F1" height="46.6348" id="UpdateJobRequirementUI" rx="1.75" ry="1.75" style="stroke:#181818;stroke-width:0.3499999999999999;" width="134.4" x="184.1" y="17.85"/><ellipse cx="194.6" cy="29.05" fill="#ADD1B2" rx="7.7" ry="7.7" style="stroke:#181818;stroke-width:0.6999999999999998;"/><path d="M196.5359,26.1625 Q196.6453,26.0094 196.7766,25.9328 Q196.9078,25.8562 197.0609,25.8562 Q197.3234,25.8562 197.4875,26.0422 Q197.6516,26.2172 197.6516,26.6437 L197.6516,27.6609 Q197.6516,28.0875 197.4875,28.2734 Q197.3234,28.4594 197.0609,28.4594 Q196.8203,28.4594 196.6781,28.3172 Q196.5359,28.1859 196.4594,27.825 Q196.4266,27.5734 196.2953,27.4422 Q196.0656,27.1797 195.6391,27.0266 Q195.2125,26.8734 194.775,26.8734 Q194.2391,26.8734 193.7906,27.1031 Q193.3531,27.3328 193.0031,27.8578 Q192.6641,28.3828 192.6641,29.1047 L192.6641,29.8703 Q192.6641,30.7344 193.2875,31.3141 Q193.9109,31.8828 195.0266,31.8828 Q195.6828,31.8828 196.1422,31.7078 Q196.4156,31.5984 196.7109,31.2922 Q196.8969,31.1062 196.9953,31.0516 Q197.1047,30.9969 197.2469,30.9969 Q197.4766,30.9969 197.6516,31.1828 Q197.8375,31.3578 197.8375,31.5984 Q197.8375,31.8391 197.5969,32.1234 Q197.2469,32.5281 196.6891,32.7578 Q195.9344,33.075 195.0266,33.075 Q193.9656,33.075 193.1234,32.6375 Q192.4344,32.2875 191.9531,31.5437 Q191.4719,30.7891 191.4719,29.8922 L191.4719,29.0828 Q191.4719,28.1531 191.8984,27.3547 Q192.3359,26.5453 193.1016,26.1187 Q193.8672,25.6812 194.7312,25.6812 Q195.2453,25.6812 195.6937,25.8016 Q196.1531,25.9109 196.5359,26.1625 Z " fill="#000000"/><text fill="#000000" font-family="sans-serif" font-size="9.8" lengthAdjust="spacing" textLength="112" x="204.4" y="33.1078">UpdateJobRequirementUI</text><line style="stroke:#181818;stroke-width:0.3499999999999999;" x1="184.8" x2="317.8" y1="40.25" y2="40.25"/><line style="stroke:#181818;stroke-width:0.3499999999999999;" x1="184.8" x2="317.8" y1="45.85" y2="45.85"/><ellipse cx="191.8" cy="56.2174" fill="#84BE84" rx="2.1" ry="2.1" style="stroke:#038048;stroke-width:0.6999999999999998;"/><text fill="#000000" font-family="sans-serif" font-size="9.8" lengthAdjust="spacing" textLength="42" x="198.1" y="59.2252">doShow()</text></g><!--class UpdateJobRequirementController--><g id="elem_UpdateJobRequirementController"><rect codeLine="11" fill="#F1F1F1" height="72.7043" id="UpdateJobRequirementController" rx="1.75" ry="1.75" style="stroke:#181818;stroke-width:0.3499999999999999;" width="169.4" x="343" y="4.9"/><ellipse cx="353.5" cy="16.1" fill="#ADD1B2" rx="7.7" ry="7.7" style="stroke:#181818;stroke-width:0.6999999999999998;"/><path d="M355.4359,13.2125 Q355.5453,13.0594 355.6766,12.9828 Q355.8078,12.9062 355.9609,12.9062 Q356.2234,12.9062 356.3875,13.0922 Q356.5516,13.2672 356.5516,13.6937 L356.5516,14.7109 Q356.5516,15.1375 356.3875,15.3234 Q356.2234,15.5094 355.9609,15.5094 Q355.7203,15.5094 355.5781,15.3672 Q355.4359,15.2359 355.3594,14.875 Q355.3266,14.6234 355.1953,14.4922 Q354.9656,14.2297 354.5391,14.0766 Q354.1125,13.9234 353.675,13.9234 Q353.1391,13.9234 352.6906,14.1531 Q352.2531,14.3828 351.9031,14.9078 Q351.5641,15.4328 351.5641,16.1547 L351.5641,16.9203 Q351.5641,17.7844 352.1875,18.3641 Q352.8109,18.9328 353.9266,18.9328 Q354.5828,18.9328 355.0422,18.7578 Q355.3156,18.6484 355.6109,18.3422 Q355.7969,18.1562 355.8953,18.1016 Q356.0047,18.0469 356.1469,18.0469 Q356.3766,18.0469 356.5516,18.2328 Q356.7375,18.4078 356.7375,18.6484 Q356.7375,18.8891 356.4969,19.1734 Q356.1469,19.5781 355.5891,19.8078 Q354.8344,20.125 353.9266,20.125 Q352.8656,20.125 352.0234,19.6875 Q351.3344,19.3375 350.8531,18.5937 Q350.3719,17.8391 350.3719,16.9422 L350.3719,16.1328 Q350.3719,15.2031 350.7984,14.4047 Q351.2359,13.5953 352.0016,13.1687 Q352.7672,12.7312 353.6312,12.7312 Q354.1453,12.7312 354.5937,12.8516 Q355.0531,12.9609 355.4359,13.2125 Z " fill="#000000"/><text fill="#000000" font-family="sans-serif" font-size="9.8" lengthAdjust="spacing" textLength="147" x="363.3" y="20.1578">UpdateJobRequirementController</text><line style="stroke:#181818;stroke-width:0.3499999999999999;" x1="343.7" x2="511.7" y1="27.3" y2="27.3"/><line style="stroke:#181818;stroke-width:0.3499999999999999;" x1="343.7" x2="511.7" y1="32.9" y2="32.9"/><ellipse cx="350.7" cy="43.2674" fill="#84BE84" rx="2.1" ry="2.1" style="stroke:#038048;stroke-width:0.6999999999999998;"/><text fill="#000000" font-family="sans-serif" font-size="9.8" lengthAdjust="spacing" textLength="53.2" x="357" y="46.2752">getPlugins()</text><ellipse cx="350.7" cy="56.3021" fill="#84BE84" rx="2.1" ry="2.1" style="stroke:#038048;stroke-width:0.6999999999999998;"/><text fill="#000000" font-family="sans-serif" font-size="9.8" lengthAdjust="spacing" textLength="48.3" x="357" y="59.31">getOffers()</text><ellipse cx="350.7" cy="69.3369" fill="#84BE84" rx="2.1" ry="2.1" style="stroke:#038048;stroke-width:0.6999999999999998;"/><text fill="#000000" font-family="sans-serif" font-size="9.8" lengthAdjust="spacing" textLength="143.5" x="357" y="72.3447">updateJobOffer(jobOffer, plugin)</text></g><!--class ManagePluginService--><g id="elem_ManagePluginService"><rect codeLine="17" fill="#F1F1F1" height="46.6348" id="ManagePluginService" rx="1.75" ry="1.75" style="stroke:#181818;stroke-width:0.3499999999999999;" width="118.3" x="368.55" y="126.7"/><ellipse cx="379.05" cy="137.9" fill="#ADD1B2" rx="7.7" ry="7.7" style="stroke:#181818;stroke-width:0.6999999999999998;"/><path d="M380.9859,135.0125 Q381.0953,134.8594 381.2266,134.7828 Q381.3578,134.7062 381.5109,134.7062 Q381.7734,134.7062 381.9375,134.8922 Q382.1016,135.0672 382.1016,135.4937 L382.1016,136.5109 Q382.1016,136.9375 381.9375,137.1234 Q381.7734,137.3094 381.5109,137.3094 Q381.2703,137.3094 381.1281,137.1672 Q380.9859,137.0359 380.9094,136.675 Q380.8766,136.4234 380.7453,136.2922 Q380.5156,136.0297 380.0891,135.8766 Q379.6625,135.7234 379.225,135.7234 Q378.6891,135.7234 378.2406,135.9531 Q377.8031,136.1828 377.4531,136.7078 Q377.1141,137.2328 377.1141,137.9547 L377.1141,138.7203 Q377.1141,139.5844 377.7375,140.1641 Q378.3609,140.7328 379.4766,140.7328 Q380.1328,140.7328 380.5922,140.5578 Q380.8656,140.4484 381.1609,140.1422 Q381.3469,139.9562 381.4453,139.9016 Q381.5547,139.8469 381.6969,139.8469 Q381.9266,139.8469 382.1016,140.0328 Q382.2875,140.2078 382.2875,140.4484 Q382.2875,140.6891 382.0469,140.9734 Q381.6969,141.3781 381.1391,141.6078 Q380.3844,141.925 379.4766,141.925 Q378.4156,141.925 377.5734,141.4875 Q376.8844,141.1375 376.4031,140.3937 Q375.9219,139.6391 375.9219,138.7422 L375.9219,137.9328 Q375.9219,137.0031 376.3484,136.2047 Q376.7859,135.3953 377.5516,134.9687 Q378.3172,134.5312 379.1812,134.5312 Q379.6953,134.5312 380.1437,134.6516 Q380.6031,134.7609 380.9859,135.0125 Z " fill="#000000"/><text fill="#000000" font-family="sans-serif" font-size="9.8" lengthAdjust="spacing" textLength="95.9" x="388.85" y="141.9578">ManagePluginService</text><line style="stroke:#181818;stroke-width:0.3499999999999999;" x1="369.25" x2="486.15" y1="149.1" y2="149.1"/><line style="stroke:#181818;stroke-width:0.3499999999999999;" x1="369.25" x2="486.15" y1="154.7" y2="154.7"/><ellipse cx="376.25" cy="165.0674" fill="#84BE84" rx="2.1" ry="2.1" style="stroke:#038048;stroke-width:0.6999999999999998;"/><text fill="#000000" font-family="sans-serif" font-size="9.8" lengthAdjust="spacing" textLength="93.8" x="382.55" y="168.0752">allJobRequirements()</text></g><!--class RegisteredPluginRepository--><g id="elem_RegisteredPluginRepository"><rect codeLine="21" fill="#F1F1F1" height="85.7391" id="RegisteredPluginRepository" rx="1.75" ry="1.75" style="stroke:#181818;stroke-width:0.3499999999999999;" width="145.6" x="245" y="308"/><ellipse cx="255.5" cy="319.2" fill="#ADD1B2" rx="7.7" ry="7.7" style="stroke:#181818;stroke-width:0.6999999999999998;"/><path d="M257.4359,316.3125 Q257.5453,316.1594 257.6766,316.0828 Q257.8078,316.0062 257.9609,316.0062 Q258.2234,316.0062 258.3875,316.1922 Q258.5516,316.3672 258.5516,316.7937 L258.5516,317.8109 Q258.5516,318.2375 258.3875,318.4234 Q258.2234,318.6094 257.9609,318.6094 Q257.7203,318.6094 257.5781,318.4672 Q257.4359,318.3359 257.3594,317.975 Q257.3266,317.7234 257.1953,317.5922 Q256.9656,317.3297 256.5391,317.1766 Q256.1125,317.0234 255.675,317.0234 Q255.1391,317.0234 254.6906,317.2531 Q254.2531,317.4828 253.9031,318.0078 Q253.5641,318.5328 253.5641,319.2547 L253.5641,320.0203 Q253.5641,320.8844 254.1875,321.4641 Q254.8109,322.0328 255.9266,322.0328 Q256.5828,322.0328 257.0422,321.8578 Q257.3156,321.7484 257.6109,321.4422 Q257.7969,321.2562 257.8953,321.2016 Q258.0047,321.1469 258.1469,321.1469 Q258.3766,321.1469 258.5516,321.3328 Q258.7375,321.5078 258.7375,321.7484 Q258.7375,321.9891 258.4969,322.2734 Q258.1469,322.6781 257.5891,322.9078 Q256.8344,323.225 255.9266,323.225 Q254.8656,323.225 254.0234,322.7875 Q253.3344,322.4375 252.8531,321.6937 Q252.3719,320.9391 252.3719,320.0422 L252.3719,319.2328 Q252.3719,318.3031 252.7984,317.5047 Q253.2359,316.6953 254.0016,316.2687 Q254.7672,315.8312 255.6312,315.8312 Q256.1453,315.8312 256.5937,315.9516 Q257.0531,316.0609 257.4359,316.3125 Z " fill="#000000"/><text fill="#000000" font-family="sans-serif" font-size="9.8" lengthAdjust="spacing" textLength="123.2" x="265.3" y="323.2578">RegisteredPluginRepository</text><line style="stroke:#181818;stroke-width:0.3499999999999999;" x1="245.7" x2="389.9" y1="330.4" y2="330.4"/><line style="stroke:#181818;stroke-width:0.3499999999999999;" x1="245.7" x2="389.9" y1="336" y2="336"/><ellipse cx="252.7" cy="346.3674" fill="#84BE84" rx="2.1" ry="2.1" style="stroke:#038048;stroke-width:0.6999999999999998;"/><text fill="#000000" font-family="sans-serif" font-size="9.8" lengthAdjust="spacing" textLength="37.1" x="259" y="349.3752">findALl()</text><ellipse cx="252.7" cy="359.4021" fill="#84BE84" rx="2.1" ry="2.1" style="stroke:#038048;stroke-width:0.6999999999999998;"/><text fill="#000000" font-family="sans-serif" font-size="9.8" lengthAdjust="spacing" textLength="72.1" x="259" y="362.41">findAllInterview()</text><ellipse cx="252.7" cy="372.4369" fill="#84BE84" rx="2.1" ry="2.1" style="stroke:#038048;stroke-width:0.6999999999999998;"/><text fill="#000000" font-family="sans-serif" font-size="9.8" lengthAdjust="spacing" textLength="105.7" x="259" y="375.4447">findAllJobRequirement()</text><ellipse cx="252.7" cy="385.4717" fill="#84BE84" rx="2.1" ry="2.1" style="stroke:#038048;stroke-width:0.6999999999999998;"/><text fill="#000000" font-family="sans-serif" font-size="9.8" lengthAdjust="spacing" textLength="88.2" x="259" y="388.4795">findWithId(identifier)</text></g><!--class RegisterJobOfferService--><g id="elem_RegisterJobOfferService"><rect codeLine="28" fill="#F1F1F1" height="59.6695" id="RegisterJobOfferService" rx="1.75" ry="1.75" style="stroke:#181818;stroke-width:0.3499999999999999;" width="161.7" x="708.75" y="120.4"/><ellipse cx="733.425" cy="131.6" fill="#ADD1B2" rx="7.7" ry="7.7" style="stroke:#181818;stroke-width:0.6999999999999998;"/><path d="M735.3609,128.7125 Q735.4703,128.5594 735.6016,128.4828 Q735.7328,128.4062 735.8859,128.4062 Q736.1484,128.4062 736.3125,128.5922 Q736.4766,128.7672 736.4766,129.1937 L736.4766,130.2109 Q736.4766,130.6375 736.3125,130.8234 Q736.1484,131.0094 735.8859,131.0094 Q735.6453,131.0094 735.5031,130.8672 Q735.3609,130.7359 735.2844,130.375 Q735.2516,130.1234 735.1203,129.9922 Q734.8906,129.7297 734.4641,129.5766 Q734.0375,129.4234 733.6,129.4234 Q733.0641,129.4234 732.6156,129.6531 Q732.1781,129.8828 731.8281,130.4078 Q731.4891,130.9328 731.4891,131.6547 L731.4891,132.4203 Q731.4891,133.2844 732.1125,133.8641 Q732.7359,134.4328 733.8516,134.4328 Q734.5078,134.4328 734.9672,134.2578 Q735.2406,134.1484 735.5359,133.8422 Q735.7219,133.6562 735.8203,133.6016 Q735.9297,133.5469 736.0719,133.5469 Q736.3016,133.5469 736.4766,133.7328 Q736.6625,133.9078 736.6625,134.1484 Q736.6625,134.3891 736.4219,134.6734 Q736.0719,135.0781 735.5141,135.3078 Q734.7594,135.625 733.8516,135.625 Q732.7906,135.625 731.9484,135.1875 Q731.2594,134.8375 730.7781,134.0937 Q730.2969,133.3391 730.2969,132.4422 L730.2969,131.6328 Q730.2969,130.7031 730.7234,129.9047 Q731.1609,129.0953 731.9266,128.6687 Q732.6922,128.2312 733.5562,128.2312 Q734.0703,128.2312 734.5187,128.3516 Q734.9781,128.4609 735.3609,128.7125 Z " fill="#000000"/><text fill="#000000" font-family="sans-serif" font-size="9.8" lengthAdjust="spacing" textLength="107.8" x="746.375" y="135.6578">RegisterJobOfferService</text><line style="stroke:#181818;stroke-width:0.3499999999999999;" x1="709.45" x2="869.75" y1="142.8" y2="142.8"/><line style="stroke:#181818;stroke-width:0.3499999999999999;" x1="709.45" x2="869.75" y1="148.4" y2="148.4"/><ellipse cx="716.45" cy="158.7674" fill="#84BE84" rx="2.1" ry="2.1" style="stroke:#038048;stroke-width:0.6999999999999998;"/><text fill="#000000" font-family="sans-serif" font-size="9.8" lengthAdjust="spacing" textLength="48.3" x="722.75" y="161.7752">getOffers()</text><ellipse cx="716.45" cy="171.8021" fill="#84BE84" rx="2.1" ry="2.1" style="stroke:#038048;stroke-width:0.6999999999999998;"/><text fill="#000000" font-family="sans-serif" font-size="9.8" lengthAdjust="spacing" textLength="143.5" x="722.75" y="174.81">updateJobOffer(jobOffer, plugin)</text></g><!--class JobOfferRepository--><g id="elem_JobOfferRepository"><rect codeLine="33" fill="#F1F1F1" height="59.6695" id="JobOfferRepository" rx="1.75" ry="1.75" style="stroke:#181818;stroke-width:0.3499999999999999;" width="161.7" x="425.95" y="475.3"/><ellipse cx="461.125" cy="486.5" fill="#ADD1B2" rx="7.7" ry="7.7" style="stroke:#181818;stroke-width:0.6999999999999998;"/><path d="M463.0609,483.6125 Q463.1703,483.4594 463.3016,483.3828 Q463.4328,483.3062 463.5859,483.3062 Q463.8484,483.3062 464.0125,483.4922 Q464.1766,483.6672 464.1766,484.0937 L464.1766,485.1109 Q464.1766,485.5375 464.0125,485.7234 Q463.8484,485.9094 463.5859,485.9094 Q463.3453,485.9094 463.2031,485.7672 Q463.0609,485.6359 462.9844,485.275 Q462.9516,485.0234 462.8203,484.8922 Q462.5906,484.6297 462.1641,484.4766 Q461.7375,484.3234 461.3,484.3234 Q460.7641,484.3234 460.3156,484.5531 Q459.8781,484.7828 459.5281,485.3078 Q459.1891,485.8328 459.1891,486.5547 L459.1891,487.3203 Q459.1891,488.1844 459.8125,488.7641 Q460.4359,489.3328 461.5516,489.3328 Q462.2078,489.3328 462.6672,489.1578 Q462.9406,489.0484 463.2359,488.7422 Q463.4219,488.5562 463.5203,488.5016 Q463.6297,488.4469 463.7719,488.4469 Q464.0016,488.4469 464.1766,488.6328 Q464.3625,488.8078 464.3625,489.0484 Q464.3625,489.2891 464.1219,489.5734 Q463.7719,489.9781 463.2141,490.2078 Q462.4594,490.525 461.5516,490.525 Q460.4906,490.525 459.6484,490.0875 Q458.9594,489.7375 458.4781,488.9937 Q457.9969,488.2391 457.9969,487.3422 L457.9969,486.5328 Q457.9969,485.6031 458.4234,484.8047 Q458.8609,483.9953 459.6266,483.5687 Q460.3922,483.1312 461.2562,483.1312 Q461.7703,483.1312 462.2187,483.2516 Q462.6781,483.3609 463.0609,483.6125 Z " fill="#000000"/><text fill="#000000" font-family="sans-serif" font-size="9.8" lengthAdjust="spacing" textLength="85.4" x="475.475" y="490.5578">JobOfferRepository</text><line style="stroke:#181818;stroke-width:0.3499999999999999;" x1="426.65" x2="586.95" y1="497.7" y2="497.7"/><line style="stroke:#181818;stroke-width:0.3499999999999999;" x1="426.65" x2="586.95" y1="503.3" y2="503.3"/><ellipse cx="433.65" cy="513.6674" fill="#84BE84" rx="2.1" ry="2.1" style="stroke:#038048;stroke-width:0.6999999999999998;"/><text fill="#000000" font-family="sans-serif" font-size="9.8" lengthAdjust="spacing" textLength="60.9" x="439.95" y="516.6752">findAllOffers()</text><ellipse cx="433.65" cy="526.7021" fill="#84BE84" rx="2.1" ry="2.1" style="stroke:#038048;stroke-width:0.6999999999999998;"/><text fill="#000000" font-family="sans-serif" font-size="9.8" lengthAdjust="spacing" textLength="143.5" x="439.95" y="529.71">updateJobOffer(jobOffer, plugin)</text></g><!--class PersistenceContext--><g id="elem_PersistenceContext"><rect codeLine="38" fill="#F1F1F1" height="46.6348" id="PersistenceContext" rx="1.75" ry="1.75" style="stroke:#181818;stroke-width:0.3499999999999999;" width="107.8" x="196" y="200.9"/><ellipse cx="206.5" cy="212.1" fill="#ADD1B2" rx="7.7" ry="7.7" style="stroke:#181818;stroke-width:0.6999999999999998;"/><path d="M208.4359,209.2125 Q208.5453,209.0594 208.6766,208.9828 Q208.8078,208.9062 208.9609,208.9062 Q209.2234,208.9062 209.3875,209.0922 Q209.5516,209.2672 209.5516,209.6937 L209.5516,210.7109 Q209.5516,211.1375 209.3875,211.3234 Q209.2234,211.5094 208.9609,211.5094 Q208.7203,211.5094 208.5781,211.3672 Q208.4359,211.2359 208.3594,210.875 Q208.3266,210.6234 208.1953,210.4922 Q207.9656,210.2297 207.5391,210.0766 Q207.1125,209.9234 206.675,209.9234 Q206.1391,209.9234 205.6906,210.1531 Q205.2531,210.3828 204.9031,210.9078 Q204.5641,211.4328 204.5641,212.1547 L204.5641,212.9203 Q204.5641,213.7844 205.1875,214.3641 Q205.8109,214.9328 206.9266,214.9328 Q207.5828,214.9328 208.0422,214.7578 Q208.3156,214.6484 208.6109,214.3422 Q208.7969,214.1562 208.8953,214.1016 Q209.0047,214.0469 209.1469,214.0469 Q209.3766,214.0469 209.5516,214.2328 Q209.7375,214.4078 209.7375,214.6484 Q209.7375,214.8891 209.4969,215.1734 Q209.1469,215.5781 208.5891,215.8078 Q207.8344,216.125 206.9266,216.125 Q205.8656,216.125 205.0234,215.6875 Q204.3344,215.3375 203.8531,214.5937 Q203.3719,213.8391 203.3719,212.9422 L203.3719,212.1328 Q203.3719,211.2031 203.7984,210.4047 Q204.2359,209.5953 205.0016,209.1687 Q205.7672,208.7312 206.6312,208.7312 Q207.1453,208.7312 207.5937,208.8516 Q208.0531,208.9609 208.4359,209.2125 Z " fill="#000000"/><text fill="#000000" font-family="sans-serif" font-size="9.8" lengthAdjust="spacing" textLength="85.4" x="216.3" y="216.1578">PersistenceContext</text><line style="stroke:#181818;stroke-width:0.3499999999999999;" x1="196.7" x2="303.1" y1="223.3" y2="223.3"/><line style="stroke:#181818;stroke-width:0.3499999999999999;" x1="196.7" x2="303.1" y1="228.9" y2="228.9"/><ellipse cx="203.7" cy="239.2674" fill="#84BE84" rx="2.1" ry="2.1" style="stroke:#038048;stroke-width:0.6999999999999998;"/><text fill="#000000" font-family="sans-serif" font-size="9.8" lengthAdjust="spacing" textLength="58.8" x="210" y="242.2752">repositories()</text></g><!--class RepositoryFactory--><g id="elem_RepositoryFactory"><rect codeLine="42" fill="#F1F1F1" height="124.8434" id="RepositoryFactory" rx="1.75" ry="1.75" style="stroke:#181818;stroke-width:0.3499999999999999;" width="215.6" x="4.9" y="288.4"/><ellipse cx="69.125" cy="299.6" fill="#ADD1B2" rx="7.7" ry="7.7" style="stroke:#181818;stroke-width:0.6999999999999998;"/><path d="M71.0609,296.7125 Q71.1703,296.5594 71.3016,296.4828 Q71.4328,296.4062 71.5859,296.4062 Q71.8484,296.4062 72.0125,296.5922 Q72.1766,296.7672 72.1766,297.1937 L72.1766,298.2109 Q72.1766,298.6375 72.0125,298.8234 Q71.8484,299.0094 71.5859,299.0094 Q71.3453,299.0094 71.2031,298.8672 Q71.0609,298.7359 70.9844,298.375 Q70.9516,298.1234 70.8203,297.9922 Q70.5906,297.7297 70.1641,297.5766 Q69.7375,297.4234 69.3,297.4234 Q68.7641,297.4234 68.3156,297.6531 Q67.8781,297.8828 67.5281,298.4078 Q67.1891,298.9328 67.1891,299.6547 L67.1891,300.4203 Q67.1891,301.2844 67.8125,301.8641 Q68.4359,302.4328 69.5516,302.4328 Q70.2078,302.4328 70.6672,302.2578 Q70.9406,302.1484 71.2359,301.8422 Q71.4219,301.6562 71.5203,301.6016 Q71.6297,301.5469 71.7719,301.5469 Q72.0016,301.5469 72.1766,301.7328 Q72.3625,301.9078 72.3625,302.1484 Q72.3625,302.3891 72.1219,302.6734 Q71.7719,303.0781 71.2141,303.3078 Q70.4594,303.625 69.5516,303.625 Q68.4906,303.625 67.6484,303.1875 Q66.9594,302.8375 66.4781,302.0937 Q65.9969,301.3391 65.9969,300.4422 L65.9969,299.6328 Q65.9969,298.7031 66.4234,297.9047 Q66.8609,297.0953 67.6266,296.6687 Q68.3922,296.2312 69.2562,296.2312 Q69.7703,296.2312 70.2187,296.3516 Q70.6781,296.4609 71.0609,296.7125 Z " fill="#000000"/><text fill="#000000" font-family="sans-serif" font-size="9.8" lengthAdjust="spacing" textLength="81.2" x="83.475" y="303.6578">RepositoryFactory</text><line style="stroke:#181818;stroke-width:0.3499999999999999;" x1="5.6" x2="219.8" y1="310.8" y2="310.8"/><line style="stroke:#181818;stroke-width:0.3499999999999999;" x1="5.6" x2="219.8" y1="316.4" y2="316.4"/><ellipse cx="12.6" cy="326.7674" fill="#84BE84" rx="2.1" ry="2.1" style="stroke:#038048;stroke-width:0.6999999999999998;"/><text fill="#000000" font-family="sans-serif" font-size="9.8" lengthAdjust="spacing" textLength="121.1" x="18.9" y="329.7752">newTransactionalContext();</text><ellipse cx="12.6" cy="339.8021" fill="#84BE84" rx="2.1" ry="2.1" style="stroke:#038048;stroke-width:0.6999999999999998;"/><text fill="#000000" font-family="sans-serif" font-size="9.8" lengthAdjust="spacing" textLength="150.5" x="18.9" y="342.81">users(TransactionalContext var1);</text><ellipse cx="12.6" cy="352.8369" fill="#84BE84" rx="2.1" ry="2.1" style="stroke:#038048;stroke-width:0.6999999999999998;"/><text fill="#000000" font-family="sans-serif" font-size="9.8" lengthAdjust="spacing" textLength="34.3" x="18.9" y="355.8447">users();</text><ellipse cx="12.6" cy="365.8717" fill="#84BE84" rx="2.1" ry="2.1" style="stroke:#038048;stroke-width:0.6999999999999998;"/><text fill="#000000" font-family="sans-serif" font-size="9.8" lengthAdjust="spacing" textLength="174.3" x="18.9" y="368.8795">clientUsers(TransactionalContext var1);</text><ellipse cx="12.6" cy="378.9064" fill="#84BE84" rx="2.1" ry="2.1" style="stroke:#038048;stroke-width:0.6999999999999998;"/><text fill="#000000" font-family="sans-serif" font-size="9.8" lengthAdjust="spacing" textLength="58.1" x="18.9" y="381.9143">clientUsers();</text><ellipse cx="12.6" cy="391.9412" fill="#84BE84" rx="2.1" ry="2.1" style="stroke:#038048;stroke-width:0.6999999999999998;"/><text fill="#000000" font-family="sans-serif" font-size="9.8" lengthAdjust="spacing" textLength="197.4" x="18.9" y="394.949">signupRequests(TransactionalContext var1);</text><ellipse cx="12.6" cy="404.976" fill="#84BE84" rx="2.1" ry="2.1" style="stroke:#038048;stroke-width:0.6999999999999998;"/><text fill="#000000" font-family="sans-serif" font-size="9.8" lengthAdjust="spacing" textLength="81.2" x="18.9" y="407.9838">signupRequests();</text></g><!--class RegisteredPluginDTO--><g id="elem_RegisteredPluginDTO"><rect codeLine="54" fill="#F1F1F1" height="163.9477" id="RegisteredPluginDTO" rx="1.75" ry="1.75" style="stroke:#181818;stroke-width:0.3499999999999999;" width="448.7" x="415.45" y="268.8"/><ellipse cx="588.525" cy="280" fill="#ADD1B2" rx="7.7" ry="7.7" style="stroke:#181818;stroke-width:0.6999999999999998;"/><path d="M590.4609,277.1125 Q590.5703,276.9594 590.7016,276.8828 Q590.8328,276.8062 590.9859,276.8062 Q591.2484,276.8062 591.4125,276.9922 Q591.5766,277.1672 591.5766,277.5937 L591.5766,278.6109 Q591.5766,279.0375 591.4125,279.2234 Q591.2484,279.4094 590.9859,279.4094 Q590.7453,279.4094 590.6031,279.2672 Q590.4609,279.1359 590.3844,278.775 Q590.3516,278.5234 590.2203,278.3922 Q589.9906,278.1297 589.5641,277.9766 Q589.1375,277.8234 588.7,277.8234 Q588.1641,277.8234 587.7156,278.0531 Q587.2781,278.2828 586.9281,278.8078 Q586.5891,279.3328 586.5891,280.0547 L586.5891,280.8203 Q586.5891,281.6844 587.2125,282.2641 Q587.8359,282.8328 588.9516,282.8328 Q589.6078,282.8328 590.0672,282.6578 Q590.3406,282.5484 590.6359,282.2422 Q590.8219,282.0562 590.9203,282.0016 Q591.0297,281.9469 591.1719,281.9469 Q591.4016,281.9469 591.5766,282.1328 Q591.7625,282.3078 591.7625,282.5484 Q591.7625,282.7891 591.5219,283.0734 Q591.1719,283.4781 590.6141,283.7078 Q589.8594,284.025 588.9516,284.025 Q587.8906,284.025 587.0484,283.5875 Q586.3594,283.2375 585.8781,282.4937 Q585.3969,281.7391 585.3969,280.8422 L585.3969,280.0328 Q585.3969,279.1031 585.8234,278.3047 Q586.2609,277.4953 587.0266,277.0687 Q587.7922,276.6312 588.6562,276.6312 Q589.1703,276.6312 589.6187,276.7516 Q590.0781,276.8609 590.4609,277.1125 Z " fill="#000000"/><text fill="#000000" font-family="sans-serif" font-size="9.8" lengthAdjust="spacing" textLength="96.6" x="602.875" y="284.0578">RegisteredPluginDTO</text><line style="stroke:#181818;stroke-width:0.3499999999999999;" x1="416.15" x2="863.45" y1="291.2" y2="291.2"/><rect fill="none" height="4.2" style="stroke:#C82930;stroke-width:0.6999999999999998;" width="4.2" x="421.05" y="299.4674"/><text fill="#000000" font-family="sans-serif" font-size="9.8" lengthAdjust="spacing" textLength="69.3" x="429.45" y="304.5752">fileName: String</text><rect fill="none" height="4.2" style="stroke:#C82930;stroke-width:0.6999999999999998;" width="4.2" x="421.05" y="312.5021"/><text fill="#000000" font-family="sans-serif" font-size="9.8" lengthAdjust="spacing" textLength="83.3" x="429.45" y="317.61">pluginName: String</text><rect fill="none" height="4.2" style="stroke:#C82930;stroke-width:0.6999999999999998;" width="4.2" x="421.05" y="325.5369"/><text fill="#000000" font-family="sans-serif" font-size="9.8" lengthAdjust="spacing" textLength="80.5" x="429.45" y="330.6447">pluginType: String</text><rect fill="none" height="4.2" style="stroke:#C82930;stroke-width:0.6999999999999998;" width="4.2" x="421.05" y="338.5717"/><text fill="#000000" font-family="sans-serif" font-size="9.8" lengthAdjust="spacing" textLength="77" x="429.45" y="343.6795">folderPath: String</text><line style="stroke:#181818;stroke-width:0.3499999999999999;" x1="416.15" x2="863.45" y1="348.9391" y2="348.9391"/><ellipse cx="423.15" cy="359.3064" fill="#84BE84" rx="2.1" ry="2.1" style="stroke:#038048;stroke-width:0.6999999999999998;"/><text fill="#000000" font-family="sans-serif" font-size="9.8" lengthAdjust="spacing" textLength="430.5" x="429.45" y="362.3143">RegisteredPluginDTO(fileName: String, pluginName: String, pluginType: String, folderPath: String)</text><ellipse cx="423.15" cy="372.3412" fill="#84BE84" rx="2.1" ry="2.1" style="stroke:#038048;stroke-width:0.6999999999999998;"/><text fill="#000000" font-family="sans-serif" font-size="9.8" lengthAdjust="spacing" textLength="72.8" x="429.45" y="375.349">toString(): String</text><ellipse cx="423.15" cy="385.376" fill="#84BE84" rx="2.1" ry="2.1" style="stroke:#038048;stroke-width:0.6999999999999998;"/><text fill="#000000" font-family="sans-serif" font-size="9.8" lengthAdjust="spacing" textLength="93.8" x="429.45" y="388.3838">getFileName(): String</text><ellipse cx="423.15" cy="398.4107" fill="#84BE84" rx="2.1" ry="2.1" style="stroke:#038048;stroke-width:0.6999999999999998;"/><text fill="#000000" font-family="sans-serif" font-size="9.8" lengthAdjust="spacing" textLength="101.5" x="429.45" y="401.4186">getFolderPath(): String</text><ellipse cx="423.15" cy="411.4455" fill="#84BE84" rx="2.1" ry="2.1" style="stroke:#038048;stroke-width:0.6999999999999998;"/><text fill="#000000" font-family="sans-serif" font-size="9.8" lengthAdjust="spacing" textLength="105" x="429.45" y="414.4533">getPluginName(): String</text><ellipse cx="423.15" cy="424.4803" fill="#84BE84" rx="2.1" ry="2.1" style="stroke:#038048;stroke-width:0.6999999999999998;"/><text fill="#000000" font-family="sans-serif" font-size="9.8" lengthAdjust="spacing" textLength="102.2" x="429.45" y="427.4881">getPluginType(): String</text></g><!--link CustomerManagerUI to UpdateJobRequirementUI--><g id="link_CustomerManagerUI_UpdateJobRequirementUI"><path codeLine="69" d="M159.418,41.3 C167.615,41.3 171.612,41.3 179.802,41.3 " fill="none" id="CustomerManagerUI-to-UpdateJobRequirementUI" style="stroke:#181818;stroke-width:0.6999999999999998;"/><polygon fill="#181818" points="184.002,41.3,177.702,38.5,180.502,41.3,177.702,44.1,184.002,41.3" style="stroke:#181818;stroke-width:0.6999999999999998;"/></g><!--link ManagePluginService to RegisteredPluginDTO--><g id="link_ManagePluginService_RegisteredPluginDTO"><path codeLine="70" d="M452.032,173.698 C476.784,196.938 513.5523,231.457 550.1693,265.841 " fill="none" id="ManagePluginService-to-RegisteredPluginDTO" style="stroke:#181818;stroke-width:0.6999999999999998;stroke-dasharray:7.0,7.0;"/><polygon fill="#181818" points="553.231,268.716,550.5551,262.3623,550.6796,266.3201,546.7217,266.4446,553.231,268.716" style="stroke:#181818;stroke-width:0.6999999999999998;"/></g><!--link ManagePluginService to RegisteredPluginRepository--><g id="link_ManagePluginService_RegisteredPluginRepository"><path codeLine="71" d="M415.093,173.698 C397.082,206.339 365.6932,263.2187 343.1112,304.1407 " fill="none" id="ManagePluginService-to-RegisteredPluginRepository" style="stroke:#181818;stroke-width:0.6999999999999998;stroke-dasharray:7.0,7.0;"/><polygon fill="#181818" points="341.082,307.818,346.5773,303.6549,342.773,304.7536,341.6743,300.9493,341.082,307.818" style="stroke:#181818;stroke-width:0.6999999999999998;"/></g><!--link RegisterJobOfferService to JobOfferRepository--><g id="link_RegisterJobOfferService_JobOfferRepository"><path codeLine="72" d="M819.427,180.019 C839.846,202.188 865.179,234.619 876.4,268.8 C899.108,337.967 922.712,376.432 876.4,432.6 C840.532,476.098 689.378,493.2658 591.854,500.0208 " fill="none" id="RegisterJobOfferService-to-JobOfferRepository" style="stroke:#181818;stroke-width:0.6999999999999998;stroke-dasharray:7.0,7.0;"/><polygon fill="#181818" points="587.664,500.311,594.1424,502.669,591.1556,500.0692,593.7555,497.0824,587.664,500.311" style="stroke:#181818;stroke-width:0.6999999999999998;"/></g><!--link UpdateJobRequirementUI to UpdateJobRequirementController--><g id="link_UpdateJobRequirementUI_UpdateJobRequirementController"><path codeLine="73" d="M318.829,41.3 C326.837,41.3 330.645,41.3 338.653,41.3 " fill="none" id="UpdateJobRequirementUI-to-UpdateJobRequirementController" style="stroke:#181818;stroke-width:0.6999999999999998;"/><polygon fill="#181818" points="342.853,41.3,336.553,38.5,339.353,41.3,336.553,44.1,342.853,41.3" style="stroke:#181818;stroke-width:0.6999999999999998;"/></g><!--link UpdateJobRequirementController to ManagePluginService--><g id="link_UpdateJobRequirementController_ManagePluginService"><path codeLine="74" d="M427.7,77.777 C427.7,93.898 427.7,108.248 427.7,122.437 " fill="none" id="UpdateJobRequirementController-to-ManagePluginService" style="stroke:#181818;stroke-width:0.6999999999999998;stroke-dasharray:7.0,7.0;"/><polygon fill="#181818" points="427.7,126.637,430.5,120.337,427.7,123.137,424.9,120.337,427.7,126.637" style="stroke:#181818;stroke-width:0.6999999999999998;"/></g><!--link UpdateJobRequirementController to RegisterJobOfferService--><g id="link_UpdateJobRequirementController_RegisterJobOfferService"><path codeLine="75" d="M512.547,67.193 C571.781,84.777 646.3298,106.9124 704.6748,124.2374 " fill="none" id="UpdateJobRequirementController-to-RegisterJobOfferService" style="stroke:#181818;stroke-width:0.6999999999999998;stroke-dasharray:7.0,7.0;"/><polygon fill="#181818" points="708.701,125.433,703.4587,120.9555,705.3458,124.4367,701.8646,126.3238,708.701,125.433" style="stroke:#181818;stroke-width:0.6999999999999998;"/></g><!--link UpdateJobRequirementController to PersistenceContext--><g id="link_UpdateJobRequirementController_PersistenceContext"><path codeLine="76" d="M392.574,77.889 C356.846,114.387 305.5061,166.8397 275.2311,197.7657 " fill="none" id="UpdateJobRequirementController-to-PersistenceContext" style="stroke:#181818;stroke-width:0.6999999999999998;stroke-dasharray:7.0,7.0;"/><polygon fill="#181818" points="272.293,200.767,278.701,198.2238,274.7414,198.2659,274.6993,194.3064,272.293,200.767" style="stroke:#181818;stroke-width:0.6999999999999998;"/></g><!--link PersistenceContext to RepositoryFactory--><g id="link_PersistenceContext_RepositoryFactory"><path codeLine="77" d="M224.735,247.968 C212.205,259.378 199.4901,270.9559 183.7191,285.3199 " fill="none" id="PersistenceContext-to-RepositoryFactory" style="stroke:#181818;stroke-width:0.6999999999999998;"/><polygon fill="#181818" points="180.614,288.148,187.1571,285.9759,183.2016,285.7912,183.3863,281.8358,180.614,288.148" style="stroke:#181818;stroke-width:0.6999999999999998;"/></g><!--link RepositoryFactory to JobOfferRepository--><g id="link_RepositoryFactory_JobOfferRepository"><path codeLine="78" d="M195.937,413.021 C207.816,420.273 220.164,427.049 232.4,432.6 C294.504,460.775 365.6079,478.6394 421.5799,489.8604 " fill="none" id="RepositoryFactory-to-JobOfferRepository" style="stroke:#181818;stroke-width:0.6999999999999998;"/><polygon fill="#181818" points="425.698,490.686,420.0713,486.7023,422.2663,489.998,418.9705,492.193,425.698,490.686" style="stroke:#181818;stroke-width:0.6999999999999998;"/></g><!--link RepositoryFactory to RegisteredPluginRepository--><g id="link_RepositoryFactory_RegisteredPluginRepository"><path codeLine="79" d="M220.661,350.7 C228.753,350.7 232.645,350.7 240.744,350.7 " fill="none" id="RepositoryFactory-to-RegisteredPluginRepository" style="stroke:#181818;stroke-width:0.6999999999999998;"/><polygon fill="#181818" points="244.944,350.7,238.644,347.9,241.444,350.7,238.644,353.5,244.944,350.7" style="stroke:#181818;stroke-width:0.6999999999999998;"/></g><!--SRC=[fLHDJ-Cm4BtxL_X6gj9MNBlIIWY4r1KiLLkqPvDCKgySEsix58JuxsidSPeFfmsGGrg_UJFlZUtCnLxhJ2qNYumHhlEKpKEHBa96b9f5b2IIf0WLItoJAorIa0-4amJaqmg_8soUQIIsUt489kZ3KP-oY6Zu9Puty2-d4bBW-hFy6y6r58o1T7a9w3NB4ygLoNN8Ono3h87S5IhWu6_rvn9dHM93ikoYhBS5-K93S3g4iROLrVIwWOGg3HAYCda3cL1K2_dcycFAe-jxvZmLIyPMN5iPE7JmjbGp-8Vg_IeAQ6Hm6bEG7XUkrKuBtzWOnndeYx6l5bwRBEkPXs3F5bvrLLSw9GgTdNOExaXeVzuHcd8ux2JXoY1KSCAgKi7aHraCvygwyt7m2v5N7Lwz31crbtHaSfDTWuecFC_iOOBIOwfq4WnU13wAT_7oNxdRtMDr9kwPnPJ1RvB24c-rf3nfHykpE1VVlMK3yLYm2EIQw7qhtY9DFIw3hYrtBNnOK_uIzoKdRJajIZYOU3tRJ-2kKZz5gMLEaDQrvxCasuI7PEuqwi_FsS-1IObyqsbkwBwRC9fy_9xGqFYOpqnUVmAWWO4-qC1nTACpaztQzDWVapRGmfZK_YH2VGWN6fq9X9Sub63gcpdL3_htpiixSJR_0G00]--></g></svg>