<?xml version="1.0" encoding="us-ascii" standalone="no"?><svg xmlns="http://www.w3.org/2000/svg" xmlns:xlink="http://www.w3.org/1999/xlink" contentStyleType="text/css" height="1060px" preserveAspectRatio="none" style="width:1411px;height:1060px;background:#FFFFFF;" version="1.1" viewBox="0 0 1411 1060" width="1411px" zoomAndPan="magnify"><defs/><g><!--class CustomerManagerUI--><g id="elem_CustomerManagerUI"><rect codeLine="3" fill="#F1F1F1" height="64.2969" id="CustomerManagerUI" rx="2.5" ry="2.5" style="stroke:#181818;stroke-width:0.5;" width="173" x="435" y="7"/><ellipse cx="450" cy="23" fill="#ADD1B2" rx="11" ry="11" style="stroke:#181818;stroke-width:1.0;"/><path d="M452.9688,28.6406 Q452.3906,28.9375 451.75,29.0781 Q451.1094,29.2344 450.4063,29.2344 Q447.9063,29.2344 446.5781,27.5938 Q445.2656,25.9375 445.2656,22.8125 Q445.2656,19.6875 446.5781,18.0313 Q447.9063,16.375 450.4063,16.375 Q451.1094,16.375 451.75,16.5313 Q452.4063,16.6875 452.9688,16.9844 L452.9688,19.7031 Q452.3438,19.125 451.75,18.8594 Q451.1563,18.5781 450.5313,18.5781 Q449.1875,18.5781 448.5,19.6563 Q447.8125,20.7188 447.8125,22.8125 Q447.8125,24.9063 448.5,25.9844 Q449.1875,27.0469 450.5313,27.0469 Q451.1563,27.0469 451.75,26.7813 Q452.3438,26.5 452.9688,25.9219 L452.9688,28.6406 Z " fill="#000000"/><text fill="#000000" font-family="sans-serif" font-size="14" lengthAdjust="spacing" textLength="141" x="464" y="27.8467">CustomerManagerUI</text><line style="stroke:#181818;stroke-width:0.5;" x1="436" x2="607" y1="39" y2="39"/><line style="stroke:#181818;stroke-width:0.5;" x1="436" x2="607" y1="47" y2="47"/><ellipse cx="446" cy="60.6484" fill="#84BE84" rx="3" ry="3" style="stroke:#038048;stroke-width:1.0;"/><text fill="#000000" font-family="sans-serif" font-size="14" lengthAdjust="spacing" textLength="116" x="455" y="63.9951">getApplications()</text></g><!--class ListApplicationsUI--><g id="elem_ListApplicationsUI"><rect codeLine="7" fill="#F1F1F1" height="80.5938" id="ListApplicationsUI" rx="2.5" ry="2.5" style="stroke:#181818;stroke-width:0.5;" width="223" x="410" y="132"/><ellipse cx="457.75" cy="148" fill="#ADD1B2" rx="11" ry="11" style="stroke:#181818;stroke-width:1.0;"/><path d="M460.7188,153.6406 Q460.1406,153.9375 459.5,154.0781 Q458.8594,154.2344 458.1563,154.2344 Q455.6563,154.2344 454.3281,152.5938 Q453.0156,150.9375 453.0156,147.8125 Q453.0156,144.6875 454.3281,143.0313 Q455.6563,141.375 458.1563,141.375 Q458.8594,141.375 459.5,141.5313 Q460.1563,141.6875 460.7188,141.9844 L460.7188,144.7031 Q460.0938,144.125 459.5,143.8594 Q458.9063,143.5781 458.2813,143.5781 Q456.9375,143.5781 456.25,144.6563 Q455.5625,145.7188 455.5625,147.8125 Q455.5625,149.9063 456.25,150.9844 Q456.9375,152.0469 458.2813,152.0469 Q458.9063,152.0469 459.5,151.7813 Q460.0938,151.5 460.7188,150.9219 L460.7188,153.6406 Z " fill="#000000"/><text fill="#000000" font-family="sans-serif" font-size="14" lengthAdjust="spacing" textLength="119" x="478.25" y="152.8467">ListApplicationsUI</text><line style="stroke:#181818;stroke-width:0.5;" x1="411" x2="632" y1="164" y2="164"/><line style="stroke:#181818;stroke-width:0.5;" x1="411" x2="632" y1="172" y2="172"/><ellipse cx="421" cy="185.6484" fill="#84BE84" rx="3" ry="3" style="stroke:#038048;stroke-width:1.0;"/><text fill="#000000" font-family="sans-serif" font-size="14" lengthAdjust="spacing" textLength="121" x="430" y="188.9951">getJobOpenings()</text><ellipse cx="421" cy="201.9453" fill="#84BE84" rx="3" ry="3" style="stroke:#038048;stroke-width:1.0;"/><text fill="#000000" font-family="sans-serif" font-size="14" lengthAdjust="spacing" textLength="197" x="430" y="205.292">getApplications(jobRefCode)</text></g><!--class ListApplicationsController--><g id="elem_ListApplicationsController"><rect codeLine="12" fill="#F1F1F1" height="80.5938" id="ListApplicationsController" rx="2.5" ry="2.5" style="stroke:#181818;stroke-width:0.5;" width="223" x="530" y="290"/><ellipse cx="553.1" cy="306" fill="#ADD1B2" rx="11" ry="11" style="stroke:#181818;stroke-width:1.0;"/><path d="M556.0688,311.6406 Q555.4906,311.9375 554.85,312.0781 Q554.2094,312.2344 553.5063,312.2344 Q551.0063,312.2344 549.6781,310.5938 Q548.3656,308.9375 548.3656,305.8125 Q548.3656,302.6875 549.6781,301.0313 Q551.0063,299.375 553.5063,299.375 Q554.2094,299.375 554.85,299.5313 Q555.5063,299.6875 556.0688,299.9844 L556.0688,302.7031 Q555.4438,302.125 554.85,301.8594 Q554.2563,301.5781 553.6313,301.5781 Q552.2875,301.5781 551.6,302.6563 Q550.9125,303.7188 550.9125,305.8125 Q550.9125,307.9063 551.6,308.9844 Q552.2875,310.0469 553.6313,310.0469 Q554.2563,310.0469 554.85,309.7813 Q555.4438,309.5 556.0688,308.9219 L556.0688,311.6406 Z " fill="#000000"/><text fill="#000000" font-family="sans-serif" font-size="14" lengthAdjust="spacing" textLength="173" x="568.9" y="310.8467">ListApplicationsController</text><line style="stroke:#181818;stroke-width:0.5;" x1="531" x2="752" y1="322" y2="322"/><line style="stroke:#181818;stroke-width:0.5;" x1="531" x2="752" y1="330" y2="330"/><ellipse cx="541" cy="343.6484" fill="#84BE84" rx="3" ry="3" style="stroke:#038048;stroke-width:1.0;"/><text fill="#000000" font-family="sans-serif" font-size="14" lengthAdjust="spacing" textLength="191" x="550" y="346.9951">getJobOpenings(username)</text><ellipse cx="541" cy="359.9453" fill="#84BE84" rx="3" ry="3" style="stroke:#038048;stroke-width:1.0;"/><text fill="#000000" font-family="sans-serif" font-size="14" lengthAdjust="spacing" textLength="197" x="550" y="363.292">getApplications(jobRefCode)</text></g><!--class PersistenceContext--><g id="elem_PersistenceContext"><rect codeLine="17" fill="#F1F1F1" height="64.2969" id="PersistenceContext" rx="2.5" ry="2.5" style="stroke:#181818;stroke-width:0.5;" width="168" x="594.5" y="529.5"/><ellipse cx="609.5" cy="545.5" fill="#ADD1B2" rx="11" ry="11" style="stroke:#181818;stroke-width:1.0;"/><path d="M612.4688,551.1406 Q611.8906,551.4375 611.25,551.5781 Q610.6094,551.7344 609.9063,551.7344 Q607.4063,551.7344 606.0781,550.0938 Q604.7656,548.4375 604.7656,545.3125 Q604.7656,542.1875 606.0781,540.5313 Q607.4063,538.875 609.9063,538.875 Q610.6094,538.875 611.25,539.0313 Q611.9063,539.1875 612.4688,539.4844 L612.4688,542.2031 Q611.8438,541.625 611.25,541.3594 Q610.6563,541.0781 610.0313,541.0781 Q608.6875,541.0781 608,542.1563 Q607.3125,543.2188 607.3125,545.3125 Q607.3125,547.4063 608,548.4844 Q608.6875,549.5469 610.0313,549.5469 Q610.6563,549.5469 611.25,549.2813 Q611.8438,549 612.4688,548.4219 L612.4688,551.1406 Z " fill="#000000"/><text fill="#000000" font-family="sans-serif" font-size="14" lengthAdjust="spacing" textLength="136" x="623.5" y="550.3467">PersistenceContext</text><line style="stroke:#181818;stroke-width:0.5;" x1="595.5" x2="761.5" y1="561.5" y2="561.5"/><line style="stroke:#181818;stroke-width:0.5;" x1="595.5" x2="761.5" y1="569.5" y2="569.5"/><ellipse cx="605.5" cy="583.1484" fill="#84BE84" rx="3" ry="3" style="stroke:#038048;stroke-width:1.0;"/><text fill="#000000" font-family="sans-serif" font-size="14" lengthAdjust="spacing" textLength="92" x="614.5" y="586.4951">repositories()</text></g><!--class RepositoryFactory--><g id="elem_RepositoryFactory"><rect codeLine="21" fill="#F1F1F1" height="129.4844" id="RepositoryFactory" rx="2.5" ry="2.5" style="stroke:#181818;stroke-width:0.5;" width="329" x="311" y="799"/><ellipse cx="409.25" cy="815" fill="#ADD1B2" rx="11" ry="11" style="stroke:#181818;stroke-width:1.0;"/><path d="M412.2188,820.6406 Q411.6406,820.9375 411,821.0781 Q410.3594,821.2344 409.6563,821.2344 Q407.1563,821.2344 405.8281,819.5938 Q404.5156,817.9375 404.5156,814.8125 Q404.5156,811.6875 405.8281,810.0313 Q407.1563,808.375 409.6563,808.375 Q410.3594,808.375 411,808.5313 Q411.6563,808.6875 412.2188,808.9844 L412.2188,811.7031 Q411.5938,811.125 411,810.8594 Q410.4063,810.5781 409.7813,810.5781 Q408.4375,810.5781 407.75,811.6563 Q407.0625,812.7188 407.0625,814.8125 Q407.0625,816.9063 407.75,817.9844 Q408.4375,819.0469 409.7813,819.0469 Q410.4063,819.0469 411,818.7813 Q411.5938,818.5 412.2188,817.9219 L412.2188,820.6406 Z " fill="#000000"/><text fill="#000000" font-family="sans-serif" font-size="14" lengthAdjust="spacing" textLength="124" x="429.75" y="819.8467">RepositoryFactory</text><line style="stroke:#181818;stroke-width:0.5;" x1="312" x2="639" y1="831" y2="831"/><line style="stroke:#181818;stroke-width:0.5;" x1="312" x2="639" y1="839" y2="839"/><ellipse cx="322" cy="852.6484" fill="#84BE84" rx="3" ry="3" style="stroke:#038048;stroke-width:1.0;"/><text fill="#000000" font-family="sans-serif" font-size="14" lengthAdjust="spacing" textLength="185" x="331" y="855.9951">newTransactionalContext()</text><ellipse cx="322" cy="868.9453" fill="#84BE84" rx="3" ry="3" style="stroke:#038048;stroke-width:1.0;"/><text fill="#000000" font-family="sans-serif" font-size="14" lengthAdjust="spacing" textLength="228" x="331" y="872.292">users(TransactionalContext var1)</text><ellipse cx="322" cy="885.2422" fill="#84BE84" rx="3" ry="3" style="stroke:#038048;stroke-width:1.0;"/><text fill="#000000" font-family="sans-serif" font-size="14" lengthAdjust="spacing" textLength="49" x="331" y="888.5889">users()</text><ellipse cx="322" cy="901.5391" fill="#84BE84" rx="3" ry="3" style="stroke:#038048;stroke-width:1.0;"/><text fill="#000000" font-family="sans-serif" font-size="14" lengthAdjust="spacing" textLength="303" x="331" y="904.8857">signupRequests(TransactionalContext var1)</text><ellipse cx="322" cy="917.8359" fill="#84BE84" rx="3" ry="3" style="stroke:#038048;stroke-width:1.0;"/><text fill="#000000" font-family="sans-serif" font-size="14" lengthAdjust="spacing" textLength="124" x="331" y="921.1826">signupRequests()</text></g><!--class JobOfferRepository--><g id="elem_JobOfferRepository"><rect codeLine="29" fill="#F1F1F1" height="48" id="JobOfferRepository" rx="2.5" ry="2.5" style="stroke:#181818;stroke-width:0.5;" width="160" x="445.5" y="1005"/><ellipse cx="460.5" cy="1021" fill="#ADD1B2" rx="11" ry="11" style="stroke:#181818;stroke-width:1.0;"/><path d="M463.4688,1026.6406 Q462.8906,1026.9375 462.25,1027.0781 Q461.6094,1027.2344 460.9063,1027.2344 Q458.4063,1027.2344 457.0781,1025.5938 Q455.7656,1023.9375 455.7656,1020.8125 Q455.7656,1017.6875 457.0781,1016.0313 Q458.4063,1014.375 460.9063,1014.375 Q461.6094,1014.375 462.25,1014.5313 Q462.9063,1014.6875 463.4688,1014.9844 L463.4688,1017.7031 Q462.8438,1017.125 462.25,1016.8594 Q461.6563,1016.5781 461.0313,1016.5781 Q459.6875,1016.5781 459,1017.6563 Q458.3125,1018.7188 458.3125,1020.8125 Q458.3125,1022.9063 459,1023.9844 Q459.6875,1025.0469 461.0313,1025.0469 Q461.6563,1025.0469 462.25,1024.7813 Q462.8438,1024.5 463.4688,1023.9219 L463.4688,1026.6406 Z " fill="#000000"/><text fill="#000000" font-family="sans-serif" font-size="14" lengthAdjust="spacing" textLength="128" x="474.5" y="1025.8467">JobOfferRepository</text><line style="stroke:#181818;stroke-width:0.5;" x1="446.5" x2="604.5" y1="1037" y2="1037"/><line style="stroke:#181818;stroke-width:0.5;" x1="446.5" x2="604.5" y1="1045" y2="1045"/></g><!--class JobApplicationRepository--><g id="elem_JobApplicationRepository"><rect codeLine="32" fill="#F1F1F1" height="48" id="JobApplicationRepository" rx="2.5" ry="2.5" style="stroke:#181818;stroke-width:0.5;" width="202" x="180.5" y="1005"/><ellipse cx="195.5" cy="1021" fill="#ADD1B2" rx="11" ry="11" style="stroke:#181818;stroke-width:1.0;"/><path d="M198.4688,1026.6406 Q197.8906,1026.9375 197.25,1027.0781 Q196.6094,1027.2344 195.9063,1027.2344 Q193.4063,1027.2344 192.0781,1025.5938 Q190.7656,1023.9375 190.7656,1020.8125 Q190.7656,1017.6875 192.0781,1016.0313 Q193.4063,1014.375 195.9063,1014.375 Q196.6094,1014.375 197.25,1014.5313 Q197.9063,1014.6875 198.4688,1014.9844 L198.4688,1017.7031 Q197.8438,1017.125 197.25,1016.8594 Q196.6563,1016.5781 196.0313,1016.5781 Q194.6875,1016.5781 194,1017.6563 Q193.3125,1018.7188 193.3125,1020.8125 Q193.3125,1022.9063 194,1023.9844 Q194.6875,1025.0469 196.0313,1025.0469 Q196.6563,1025.0469 197.25,1024.7813 Q197.8438,1024.5 198.4688,1023.9219 L198.4688,1026.6406 Z " fill="#000000"/><text fill="#000000" font-family="sans-serif" font-size="14" lengthAdjust="spacing" textLength="170" x="209.5" y="1025.8467">JobApplicationRepository</text><line style="stroke:#181818;stroke-width:0.5;" x1="181.5" x2="381.5" y1="1037" y2="1037"/><line style="stroke:#181818;stroke-width:0.5;" x1="181.5" x2="381.5" y1="1045" y2="1045"/></g><!--class FilteredCustomerListingService--><g id="elem_FilteredCustomerListingService"><rect codeLine="35" fill="#F1F1F1" height="64.2969" id="FilteredCustomerListingService" rx="2.5" ry="2.5" style="stroke:#181818;stroke-width:0.5;" width="509" x="753" y="831.5"/><ellipse cx="896.75" cy="847.5" fill="#ADD1B2" rx="11" ry="11" style="stroke:#181818;stroke-width:1.0;"/><path d="M899.7188,853.1406 Q899.1406,853.4375 898.5,853.5781 Q897.8594,853.7344 897.1563,853.7344 Q894.6563,853.7344 893.3281,852.0938 Q892.0156,850.4375 892.0156,847.3125 Q892.0156,844.1875 893.3281,842.5313 Q894.6563,840.875 897.1563,840.875 Q897.8594,840.875 898.5,841.0313 Q899.1563,841.1875 899.7188,841.4844 L899.7188,844.2031 Q899.0938,843.625 898.5,843.3594 Q897.9063,843.0781 897.2813,843.0781 Q895.9375,843.0781 895.25,844.1563 Q894.5625,845.2188 894.5625,847.3125 Q894.5625,849.4063 895.25,850.4844 Q895.9375,851.5469 897.2813,851.5469 Q897.9063,851.5469 898.5,851.2813 Q899.0938,851 899.7188,850.4219 L899.7188,853.1406 Z " fill="#000000"/><text fill="#000000" font-family="sans-serif" font-size="14" lengthAdjust="spacing" textLength="213" x="917.25" y="852.3467">FilteredCustomerListingService</text><line style="stroke:#181818;stroke-width:0.5;" x1="754" x2="1261" y1="863.5" y2="863.5"/><line style="stroke:#181818;stroke-width:0.5;" x1="754" x2="1261" y1="871.5" y2="871.5"/><ellipse cx="764" cy="885.1484" fill="#84BE84" rx="3" ry="3" style="stroke:#038048;stroke-width:1.0;"/><text fill="#000000" font-family="sans-serif" font-size="14" lengthAdjust="spacing" textLength="483" x="773" y="888.4951">allCustomersOfManager(SystemUser manager) : Iterable&lt;Custome.-&gt;</text></g><!--class ListJobOfferService--><g id="elem_ListJobOfferService"><rect codeLine="39" fill="#F1F1F1" height="64.2969" id="ListJobOfferService" rx="2.5" ry="2.5" style="stroke:#181818;stroke-width:0.5;" width="454" x="532.5" y="705"/><ellipse cx="691.75" cy="721" fill="#ADD1B2" rx="11" ry="11" style="stroke:#181818;stroke-width:1.0;"/><path d="M694.7188,726.6406 Q694.1406,726.9375 693.5,727.0781 Q692.8594,727.2344 692.1563,727.2344 Q689.6563,727.2344 688.3281,725.5938 Q687.0156,723.9375 687.0156,720.8125 Q687.0156,717.6875 688.3281,716.0313 Q689.6563,714.375 692.1563,714.375 Q692.8594,714.375 693.5,714.5313 Q694.1563,714.6875 694.7188,714.9844 L694.7188,717.7031 Q694.0938,717.125 693.5,716.8594 Q692.9063,716.5781 692.2813,716.5781 Q690.9375,716.5781 690.25,717.6563 Q689.5625,718.7188 689.5625,720.8125 Q689.5625,722.9063 690.25,723.9844 Q690.9375,725.0469 692.2813,725.0469 Q692.9063,725.0469 693.5,724.7813 Q694.0938,724.5 694.7188,723.9219 L694.7188,726.6406 Z " fill="#000000"/><text fill="#000000" font-family="sans-serif" font-size="14" lengthAdjust="spacing" textLength="127" x="712.25" y="725.8467">ListJobOfferService</text><line style="stroke:#181818;stroke-width:0.5;" x1="533.5" x2="985.5" y1="737" y2="737"/><line style="stroke:#181818;stroke-width:0.5;" x1="533.5" x2="985.5" y1="745" y2="745"/><ellipse cx="543.5" cy="758.6484" fill="#84BE84" rx="3" ry="3" style="stroke:#038048;stroke-width:1.0;"/><text fill="#000000" font-family="sans-serif" font-size="14" lengthAdjust="spacing" textLength="428" x="552.5" y="761.9951">getJobOffersByUser(Customer customer) : Iterable&lt;JobOffe.-&gt;</text></g><!--class ListJobApplicationService--><g id="elem_ListJobApplicationService"><rect codeLine="43" fill="#F1F1F1" height="64.2969" id="ListJobApplicationService" rx="2.5" ry="2.5" style="stroke:#181818;stroke-width:0.5;" width="427" x="7" y="705"/><ellipse cx="131.75" cy="721" fill="#ADD1B2" rx="11" ry="11" style="stroke:#181818;stroke-width:1.0;"/><path d="M134.7188,726.6406 Q134.1406,726.9375 133.5,727.0781 Q132.8594,727.2344 132.1563,727.2344 Q129.6563,727.2344 128.3281,725.5938 Q127.0156,723.9375 127.0156,720.8125 Q127.0156,717.6875 128.3281,716.0313 Q129.6563,714.375 132.1563,714.375 Q132.8594,714.375 133.5,714.5313 Q134.1563,714.6875 134.7188,714.9844 L134.7188,717.7031 Q134.0938,717.125 133.5,716.8594 Q132.9063,716.5781 132.2813,716.5781 Q130.9375,716.5781 130.25,717.6563 Q129.5625,718.7188 129.5625,720.8125 Q129.5625,722.9063 130.25,723.9844 Q130.9375,725.0469 132.2813,725.0469 Q132.9063,725.0469 133.5,724.7813 Q134.0938,724.5 134.7188,723.9219 L134.7188,726.6406 Z " fill="#000000"/><text fill="#000000" font-family="sans-serif" font-size="14" lengthAdjust="spacing" textLength="169" x="152.25" y="725.8467">ListJobApplicationService</text><line style="stroke:#181818;stroke-width:0.5;" x1="8" x2="433" y1="737" y2="737"/><line style="stroke:#181818;stroke-width:0.5;" x1="8" x2="433" y1="745" y2="745"/><ellipse cx="18" cy="758.6484" fill="#84BE84" rx="3" ry="3" style="stroke:#038048;stroke-width:1.0;"/><text fill="#000000" font-family="sans-serif" font-size="14" lengthAdjust="spacing" textLength="401" x="27" y="761.9951">getApplicationsByOffer(JobOffer offer) : Iterable&lt;JobOffe.-&gt;</text></g><!--class CustomerDTO--><g id="elem_CustomerDTO"><rect codeLine="47" fill="#F1F1F1" height="210.9688" id="CustomerDTO" rx="2.5" ry="2.5" style="stroke:#181818;stroke-width:0.5;" width="228" x="258.5" y="456"/><ellipse cx="318.75" cy="472" fill="#ADD1B2" rx="11" ry="11" style="stroke:#181818;stroke-width:1.0;"/><path d="M321.7188,477.6406 Q321.1406,477.9375 320.5,478.0781 Q319.8594,478.2344 319.1563,478.2344 Q316.6563,478.2344 315.3281,476.5938 Q314.0156,474.9375 314.0156,471.8125 Q314.0156,468.6875 315.3281,467.0313 Q316.6563,465.375 319.1563,465.375 Q319.8594,465.375 320.5,465.5313 Q321.1563,465.6875 321.7188,465.9844 L321.7188,468.7031 Q321.0938,468.125 320.5,467.8594 Q319.9063,467.5781 319.2813,467.5781 Q317.9375,467.5781 317.25,468.6563 Q316.5625,469.7188 316.5625,471.8125 Q316.5625,473.9063 317.25,474.9844 Q317.9375,476.0469 319.2813,476.0469 Q319.9063,476.0469 320.5,475.7813 Q321.0938,475.5 321.7188,474.9219 L321.7188,477.6406 Z " fill="#000000"/><text fill="#000000" font-family="sans-serif" font-size="14" lengthAdjust="spacing" textLength="99" x="339.25" y="476.8467">CustomerDTO</text><line style="stroke:#181818;stroke-width:0.5;" x1="259.5" x2="485.5" y1="488" y2="488"/><rect fill="none" height="6" style="stroke:#C82930;stroke-width:1.0;" width="6" x="266.5" y="498.6484"/><text fill="#000000" font-family="sans-serif" font-size="14" lengthAdjust="spacing" textLength="147" x="278.5" y="504.9951">String customerCode</text><rect fill="none" height="6" style="stroke:#C82930;stroke-width:1.0;" width="6" x="266.5" y="514.9453"/><text fill="#000000" font-family="sans-serif" font-size="14" lengthAdjust="spacing" textLength="150" x="278.5" y="521.292">String customerName</text><rect fill="none" height="6" style="stroke:#C82930;stroke-width:1.0;" width="6" x="266.5" y="531.2422"/><text fill="#000000" font-family="sans-serif" font-size="14" lengthAdjust="spacing" textLength="184" x="278.5" y="537.5889">Address customerAddress</text><rect fill="none" height="6" style="stroke:#C82930;stroke-width:1.0;" width="6" x="266.5" y="547.5391"/><text fill="#000000" font-family="sans-serif" font-size="14" lengthAdjust="spacing" textLength="202" x="278.5" y="553.8857">String customerManagerUser</text><rect fill="none" height="6" style="stroke:#C82930;stroke-width:1.0;" width="6" x="266.5" y="563.8359"/><text fill="#000000" font-family="sans-serif" font-size="14" lengthAdjust="spacing" textLength="142" x="278.5" y="570.1826">String customerUser</text><line style="stroke:#181818;stroke-width:0.5;" x1="259.5" x2="485.5" y1="577.4844" y2="577.4844"/><ellipse cx="269.5" cy="591.1328" fill="#84BE84" rx="3" ry="3" style="stroke:#038048;stroke-width:1.0;"/><text fill="#000000" font-family="sans-serif" font-size="14" lengthAdjust="spacing" textLength="64" x="278.5" y="594.4795">toString()</text><ellipse cx="269.5" cy="607.4297" fill="#84BE84" rx="3" ry="3" style="stroke:#038048;stroke-width:1.0;"/><text fill="#000000" font-family="sans-serif" font-size="14" lengthAdjust="spacing" textLength="138" x="278.5" y="610.7764">getCustomerCode()</text><ellipse cx="269.5" cy="623.7266" fill="#84BE84" rx="3" ry="3" style="stroke:#038048;stroke-width:1.0;"/><text fill="#000000" font-family="sans-serif" font-size="14" lengthAdjust="spacing" textLength="141" x="278.5" y="627.0732">getCustomerName()</text><ellipse cx="269.5" cy="640.0234" fill="#84BE84" rx="3" ry="3" style="stroke:#038048;stroke-width:1.0;"/><text fill="#000000" font-family="sans-serif" font-size="14" lengthAdjust="spacing" textLength="161" x="278.5" y="643.3701">getCustomerManager()</text><ellipse cx="269.5" cy="656.3203" fill="#84BE84" rx="3" ry="3" style="stroke:#038048;stroke-width:1.0;"/><text fill="#000000" font-family="sans-serif" font-size="14" lengthAdjust="spacing" textLength="133" x="278.5" y="659.667">getCustomerUser()</text></g><!--class JobApplicationDTO--><g id="elem_JobApplicationDTO"><rect codeLine="60" fill="#F1F1F1" height="227.2656" id="JobApplicationDTO" rx="2.5" ry="2.5" style="stroke:#181818;stroke-width:0.5;" width="159" x="64" y="448"/><ellipse cx="79" cy="464" fill="#ADD1B2" rx="11" ry="11" style="stroke:#181818;stroke-width:1.0;"/><path d="M81.9688,469.6406 Q81.3906,469.9375 80.75,470.0781 Q80.1094,470.2344 79.4063,470.2344 Q76.9063,470.2344 75.5781,468.5938 Q74.2656,466.9375 74.2656,463.8125 Q74.2656,460.6875 75.5781,459.0313 Q76.9063,457.375 79.4063,457.375 Q80.1094,457.375 80.75,457.5313 Q81.4063,457.6875 81.9688,457.9844 L81.9688,460.7031 Q81.3438,460.125 80.75,459.8594 Q80.1563,459.5781 79.5313,459.5781 Q78.1875,459.5781 77.5,460.6563 Q76.8125,461.7188 76.8125,463.8125 Q76.8125,465.9063 77.5,466.9844 Q78.1875,468.0469 79.5313,468.0469 Q80.1563,468.0469 80.75,467.7813 Q81.3438,467.5 81.9688,466.9219 L81.9688,469.6406 Z " fill="#000000"/><text fill="#000000" font-family="sans-serif" font-size="14" lengthAdjust="spacing" textLength="127" x="93" y="468.8467">JobApplicationDTO</text><line style="stroke:#181818;stroke-width:0.5;" x1="65" x2="222" y1="480" y2="480"/><rect fill="none" height="6" style="stroke:#C82930;stroke-width:1.0;" width="6" x="72" y="490.6484"/><text fill="#000000" font-family="sans-serif" font-size="14" lengthAdjust="spacing" textLength="80" x="84" y="496.9951">String email</text><rect fill="none" height="6" style="stroke:#C82930;stroke-width:1.0;" width="6" x="72" y="506.9453"/><text fill="#000000" font-family="sans-serif" font-size="14" lengthAdjust="spacing" textLength="102" x="84" y="513.292">String filesPath</text><rect fill="none" height="6" style="stroke:#C82930;stroke-width:1.0;" width="6" x="72" y="523.2422"/><text fill="#000000" font-family="sans-serif" font-size="14" lengthAdjust="spacing" textLength="128" x="84" y="529.5889">String attachedFile</text><rect fill="none" height="6" style="stroke:#C82930;stroke-width:1.0;" width="6" x="72" y="539.5391"/><text fill="#000000" font-family="sans-serif" font-size="14" lengthAdjust="spacing" textLength="102" x="84" y="545.8857">int jobRefCode</text><rect fill="none" height="6" style="stroke:#C82930;stroke-width:1.0;" width="6" x="72" y="555.8359"/><text fill="#000000" font-family="sans-serif" font-size="14" lengthAdjust="spacing" textLength="112" x="84" y="562.1826">String candidate</text><line style="stroke:#181818;stroke-width:0.5;" x1="65" x2="222" y1="569.4844" y2="569.4844"/><ellipse cx="75" cy="583.1328" fill="#84BE84" rx="3" ry="3" style="stroke:#038048;stroke-width:1.0;"/><text fill="#000000" font-family="sans-serif" font-size="14" lengthAdjust="spacing" textLength="64" x="84" y="586.4795">toString()</text><ellipse cx="75" cy="599.4297" fill="#84BE84" rx="3" ry="3" style="stroke:#038048;stroke-width:1.0;"/><text fill="#000000" font-family="sans-serif" font-size="14" lengthAdjust="spacing" textLength="69" x="84" y="602.7764">getEmail()</text><ellipse cx="75" cy="615.7266" fill="#84BE84" rx="3" ry="3" style="stroke:#038048;stroke-width:1.0;"/><text fill="#000000" font-family="sans-serif" font-size="14" lengthAdjust="spacing" textLength="95" x="84" y="619.0732">getFilesPath()</text><ellipse cx="75" cy="632.0234" fill="#84BE84" rx="3" ry="3" style="stroke:#038048;stroke-width:1.0;"/><text fill="#000000" font-family="sans-serif" font-size="14" lengthAdjust="spacing" textLength="118" x="84" y="635.3701">getAttachedFile()</text><ellipse cx="75" cy="648.3203" fill="#84BE84" rx="3" ry="3" style="stroke:#038048;stroke-width:1.0;"/><text fill="#000000" font-family="sans-serif" font-size="14" lengthAdjust="spacing" textLength="114" x="84" y="651.667">getJobRefCode()</text><ellipse cx="75" cy="664.6172" fill="#84BE84" rx="3" ry="3" style="stroke:#038048;stroke-width:1.0;"/><text fill="#000000" font-family="sans-serif" font-size="14" lengthAdjust="spacing" textLength="103" x="84" y="667.9639">getCandidate()</text></g><!--class JobOfferDTO--><g id="elem_JobOfferDTO"><rect codeLine="74" fill="#F1F1F1" height="194.6719" id="JobOfferDTO" rx="2.5" ry="2.5" style="stroke:#181818;stroke-width:0.5;" width="194" x="1210.5" y="464"/><ellipse cx="1260.75" cy="480" fill="#ADD1B2" rx="11" ry="11" style="stroke:#181818;stroke-width:1.0;"/><path d="M1263.7188,485.6406 Q1263.1406,485.9375 1262.5,486.0781 Q1261.8594,486.2344 1261.1563,486.2344 Q1258.6563,486.2344 1257.3281,484.5938 Q1256.0156,482.9375 1256.0156,479.8125 Q1256.0156,476.6875 1257.3281,475.0313 Q1258.6563,473.375 1261.1563,473.375 Q1261.8594,473.375 1262.5,473.5313 Q1263.1563,473.6875 1263.7188,473.9844 L1263.7188,476.7031 Q1263.0938,476.125 1262.5,475.8594 Q1261.9063,475.5781 1261.2813,475.5781 Q1259.9375,475.5781 1259.25,476.6563 Q1258.5625,477.7188 1258.5625,479.8125 Q1258.5625,481.9063 1259.25,482.9844 Q1259.9375,484.0469 1261.2813,484.0469 Q1261.9063,484.0469 1262.5,483.7813 Q1263.0938,483.5 1263.7188,482.9219 L1263.7188,485.6406 Z " fill="#000000"/><text fill="#000000" font-family="sans-serif" font-size="14" lengthAdjust="spacing" textLength="85" x="1281.25" y="484.8467">JobOfferDTO</text><line style="stroke:#181818;stroke-width:0.5;" x1="1211.5" x2="1403.5" y1="496" y2="496"/><rect fill="none" height="6" style="stroke:#C82930;stroke-width:1.0;" width="6" x="1218.5" y="506.6484"/><text fill="#000000" font-family="sans-serif" font-size="14" lengthAdjust="spacing" textLength="99" x="1230.5" y="512.9951">String refCode</text><rect fill="none" height="6" style="stroke:#C82930;stroke-width:1.0;" width="6" x="1218.5" y="522.9453"/><text fill="#000000" font-family="sans-serif" font-size="14" lengthAdjust="spacing" textLength="69" x="1230.5" y="529.292">String title</text><rect fill="none" height="6" style="stroke:#C82930;stroke-width:1.0;" width="6" x="1218.5" y="539.2422"/><text fill="#000000" font-family="sans-serif" font-size="14" lengthAdjust="spacing" textLength="104" x="1230.5" y="545.5889">String jobMode</text><rect fill="none" height="6" style="stroke:#C82930;stroke-width:1.0;" width="6" x="1218.5" y="555.5391"/><text fill="#000000" font-family="sans-serif" font-size="14" lengthAdjust="spacing" textLength="168" x="1230.5" y="561.8857">String numberVacancies</text><line style="stroke:#181818;stroke-width:0.5;" x1="1211.5" x2="1403.5" y1="569.1875" y2="569.1875"/><ellipse cx="1221.5" cy="582.8359" fill="#84BE84" rx="3" ry="3" style="stroke:#038048;stroke-width:1.0;"/><text fill="#000000" font-family="sans-serif" font-size="14" lengthAdjust="spacing" textLength="64" x="1230.5" y="586.1826">toString()</text><ellipse cx="1221.5" cy="599.1328" fill="#84BE84" rx="3" ry="3" style="stroke:#038048;stroke-width:1.0;"/><text fill="#000000" font-family="sans-serif" font-size="14" lengthAdjust="spacing" textLength="93" x="1230.5" y="602.4795">getRefCode()</text><ellipse cx="1221.5" cy="615.4297" fill="#84BE84" rx="3" ry="3" style="stroke:#038048;stroke-width:1.0;"/><text fill="#000000" font-family="sans-serif" font-size="14" lengthAdjust="spacing" textLength="62" x="1230.5" y="618.7764">getTitle()</text><ellipse cx="1221.5" cy="631.7266" fill="#84BE84" rx="3" ry="3" style="stroke:#038048;stroke-width:1.0;"/><text fill="#000000" font-family="sans-serif" font-size="14" lengthAdjust="spacing" textLength="93" x="1230.5" y="635.0732">getJobMode()</text><ellipse cx="1221.5" cy="648.0234" fill="#84BE84" rx="3" ry="3" style="stroke:#038048;stroke-width:1.0;"/><text fill="#000000" font-family="sans-serif" font-size="14" lengthAdjust="spacing" textLength="158" x="1230.5" y="651.3701">getNumberVacancies()</text></g><!--class CustomerRepository--><g id="elem_CustomerRepository"><rect fill="#F1F1F1" height="48" id="CustomerRepository" rx="2.5" ry="2.5" style="stroke:#181818;stroke-width:0.5;" width="174" x="654.5" y="1005"/><ellipse cx="669.5" cy="1021" fill="#ADD1B2" rx="11" ry="11" style="stroke:#181818;stroke-width:1.0;"/><path d="M672.4688,1026.6406 Q671.8906,1026.9375 671.25,1027.0781 Q670.6094,1027.2344 669.9063,1027.2344 Q667.4063,1027.2344 666.0781,1025.5938 Q664.7656,1023.9375 664.7656,1020.8125 Q664.7656,1017.6875 666.0781,1016.0313 Q667.4063,1014.375 669.9063,1014.375 Q670.6094,1014.375 671.25,1014.5313 Q671.9063,1014.6875 672.4688,1014.9844 L672.4688,1017.7031 Q671.8438,1017.125 671.25,1016.8594 Q670.6563,1016.5781 670.0313,1016.5781 Q668.6875,1016.5781 668,1017.6563 Q667.3125,1018.7188 667.3125,1020.8125 Q667.3125,1022.9063 668,1023.9844 Q668.6875,1025.0469 670.0313,1025.0469 Q670.6563,1025.0469 671.25,1024.7813 Q671.8438,1024.5 672.4688,1023.9219 L672.4688,1026.6406 Z " fill="#000000"/><text fill="#000000" font-family="sans-serif" font-size="14" lengthAdjust="spacing" textLength="142" x="683.5" y="1025.8467">CustomerRepository</text><line style="stroke:#181818;stroke-width:0.5;" x1="655.5" x2="827.5" y1="1037" y2="1037"/><line style="stroke:#181818;stroke-width:0.5;" x1="655.5" x2="827.5" y1="1045" y2="1045"/></g><!--link CustomerManagerUI to ListApplicationsUI--><g id="link_CustomerManagerUI_ListApplicationsUI"><path codeLine="86" d="M521.5,71.16 C521.5,89.24 521.5,106.19 521.5,125.58 " fill="none" id="CustomerManagerUI-to-ListApplicationsUI" style="stroke:#181818;stroke-width:1.0;stroke-dasharray:7.0,7.0;"/><polygon fill="#181818" points="521.5,131.58,525.5,122.58,521.5,126.58,517.5,122.58,521.5,131.58" style="stroke:#181818;stroke-width:1.0;"/></g><!--link ListApplicationsUI to ListApplicationsController--><g id="link_ListApplicationsUI_ListApplicationsController"><path codeLine="87" d="M552.09,213.27 C570.15,236.74 589.2615,261.5944 607.3015,285.0444 " fill="none" id="ListApplicationsUI-to-ListApplicationsController" style="stroke:#181818;stroke-width:1.0;stroke-dasharray:7.0,7.0;"/><polygon fill="#181818" points="610.96,289.8,608.6427,280.2276,607.9113,285.837,602.3019,285.1056,610.96,289.8" style="stroke:#181818;stroke-width:1.0;"/><text fill="#000000" font-family="sans-serif" font-size="13" lengthAdjust="spacing" textLength="51" x="586.5" y="256.0669">create()</text></g><!--link ListApplicationsUI to CustomerDTO--><g id="link_ListApplicationsUI_CustomerDTO"><path codeLine="88" d="M506.25,213.1 C484.45,269.73 445.7356,370.2806 414.8956,450.3906 " fill="none" id="ListApplicationsUI-to-CustomerDTO" style="stroke:#181818;stroke-width:1.0;stroke-dasharray:7.0,7.0;"/><polygon fill="#181818" points="412.74,455.99,419.7063,449.028,414.5363,451.3238,412.2405,446.1538,412.74,455.99" style="stroke:#181818;stroke-width:1.0;"/></g><!--link ListApplicationsUI to JobOfferDTO--><g id="link_ListApplicationsUI_JobOfferDTO"><path codeLine="89" d="M633.1,201.88 C759.26,236.94 967.97,304.07 1128.5,401 C1157.54,418.53 1181.7287,437.1028 1207.3487,459.6828 " fill="none" id="ListApplicationsUI-to-JobOfferDTO" style="stroke:#181818;stroke-width:1.0;stroke-dasharray:7.0,7.0;"/><polygon fill="#181818" points="1211.85,463.65,1207.7429,454.6984,1208.0989,460.344,1202.4533,460.7001,1211.85,463.65" style="stroke:#181818;stroke-width:1.0;"/></g><!--link ListApplicationsUI to JobApplicationDTO--><g id="link_ListApplicationsUI_JobApplicationDTO"><path codeLine="90" d="M478.49,213.33 C422.37,265.79 321.76,361.52 240.5,448 C234.76,454.11 232.9265,456.0226 227.0965,462.4926 " fill="none" id="ListApplicationsUI-to-JobApplicationDTO" style="stroke:#181818;stroke-width:1.0;stroke-dasharray:7.0,7.0;"/><polygon fill="#181818" points="223.08,466.95,232.0763,462.9416,226.427,463.2355,226.1331,457.5863,223.08,466.95" style="stroke:#181818;stroke-width:1.0;"/></g><!--link ListApplicationsController to PersistenceContext--><g id="link_ListApplicationsController_PersistenceContext"><path codeLine="91" d="M647.9,371.13 C655.16,416.06 665.8931,482.4668 672.5231,523.5068 " fill="none" id="ListApplicationsController-to-PersistenceContext" style="stroke:#181818;stroke-width:1.0;stroke-dasharray:7.0,7.0;"/><polygon fill="#181818" points="673.48,529.43,675.9935,519.9073,672.6826,524.494,668.0959,521.1831,673.48,529.43" style="stroke:#181818;stroke-width:1.0;"/><text fill="#000000" font-family="sans-serif" font-size="13" lengthAdjust="spacing" textLength="85" x="656.5" y="414.0669">repositories()</text></g><!--link ListApplicationsController to CustomerDTO--><g id="link_ListApplicationsController_CustomerDTO"><path codeLine="92" d="M546.63,371.09 C530.48,379.8 514.44,389.81 500.5,401 C480.84,416.78 466.1147,431.4889 449.4947,451.1389 " fill="none" id="ListApplicationsController-to-CustomerDTO" style="stroke:#181818;stroke-width:1.0;stroke-dasharray:7.0,7.0;"/><polygon fill="#181818" points="445.62,455.72,454.4861,451.4315,448.8489,451.9024,448.378,446.2652,445.62,455.72" style="stroke:#181818;stroke-width:1.0;"/></g><!--link ListApplicationsController to JobOfferDTO--><g id="link_ListApplicationsController_JobOfferDTO"><path codeLine="93" d="M753.2,335.69 C868.05,344.36 1048.67,370.42 1183.5,448 C1192.57,453.22 1196.7083,455.6327 1205.4283,462.0527 " fill="none" id="ListApplicationsController-to-JobOfferDTO" style="stroke:#181818;stroke-width:1.0;stroke-dasharray:7.0,7.0;"/><polygon fill="#181818" points="1210.26,465.61,1205.3839,457.0529,1206.2336,462.6456,1200.6409,463.4952,1210.26,465.61" style="stroke:#181818;stroke-width:1.0;"/></g><!--link ListApplicationsController to JobApplicationDTO--><g id="link_ListApplicationsController_JobApplicationDTO"><path codeLine="94" d="M529.71,346.33 C445.04,361.56 328.64,391.38 240.5,448 C234.53,451.83 233.3535,452.3159 227.7435,456.9559 " fill="none" id="ListApplicationsController-to-JobApplicationDTO" style="stroke:#181818;stroke-width:1.0;stroke-dasharray:7.0,7.0;"/><polygon fill="#181818" points="223.12,460.78,232.6046,458.1262,226.9729,457.5933,227.5059,451.9616,223.12,460.78" style="stroke:#181818;stroke-width:1.0;"/></g><!--link ListApplicationsController to FilteredCustomerListingService--><g id="link_ListApplicationsController_FilteredCustomerListingService"><path codeLine="95" d="M753.01,340.52 C799.11,349.53 849.98,367.09 885.5,401 C1009.57,519.47 1012.9993,742.0948 1009.6793,825.2748 " fill="none" id="ListApplicationsController-to-FilteredCustomerListingService" style="stroke:#181818;stroke-width:1.0;stroke-dasharray:7.0,7.0;"/><polygon fill="#181818" points="1009.44,831.27,1013.7958,822.4367,1009.6394,826.274,1005.8021,822.1176,1009.44,831.27" style="stroke:#181818;stroke-width:1.0;"/><text fill="#000000" font-family="sans-serif" font-size="13" lengthAdjust="spacing" textLength="164" x="1003.5" y="566.0669">allCustomersOfManager()</text></g><!--link ListApplicationsController to ListJobOfferService--><g id="link_ListApplicationsController_ListJobOfferService"><path codeLine="96" d="M718.02,371.16 C744.73,390.08 770.34,415.72 779.5,448 C807.03,545.06 795.42,575.37 779.5,675 C777.92,684.9 776.881,689.6891 773.731,699.1191 " fill="none" id="ListApplicationsController-to-ListJobOfferService" style="stroke:#181818;stroke-width:1.0;stroke-dasharray:7.0,7.0;"/><polygon fill="#181818" points="771.83,704.81,778.4754,697.541,773.4142,700.0676,770.8876,695.0063,771.83,704.81" style="stroke:#181818;stroke-width:1.0;"/><text fill="#000000" font-family="sans-serif" font-size="13" lengthAdjust="spacing" textLength="110" x="766.5" y="414.0669">getJobOpenings()</text></g><!--link ListApplicationsController to ListJobApplicationService--><g id="link_ListApplicationsController_ListJobApplicationService"><path codeLine="97" d="M562.97,371.16 C552.27,379.66 542.55,389.58 535.5,401 C471.07,505.31 585.93,584.24 503.5,675 C495.33,684 458.7896,693.7142 409.1796,703.8042 " fill="none" id="ListApplicationsController-to-ListJobApplicationService" style="stroke:#181818;stroke-width:1.0;stroke-dasharray:7.0,7.0;"/><polygon fill="#181818" points="403.3,705,412.9167,707.126,408.1997,704.0035,411.3222,699.2865,403.3,705" style="stroke:#181818;stroke-width:1.0;"/><text fill="#000000" font-family="sans-serif" font-size="13" lengthAdjust="spacing" textLength="108" x="536.5" y="414.0669">getApplications()</text></g><!--link FilteredCustomerListingService to CustomerRepository--><g id="link_FilteredCustomerListingService_CustomerRepository"><path codeLine="98" d="M956.84,895.64 C904.99,927.51 830.7115,973.1579 784.2015,1001.7479 " fill="none" id="FilteredCustomerListingService-to-CustomerRepository" style="stroke:#181818;stroke-width:1.0;stroke-dasharray:7.0,7.0;"/><polygon fill="#181818" points="779.09,1004.89,788.852,1003.5846,783.3496,1002.2716,784.6625,996.7692,779.09,1004.89" style="stroke:#181818;stroke-width:1.0;"/></g><!--link ListJobApplicationService to JobApplicationRepository--><g id="link_ListJobApplicationService_JobApplicationRepository"><path codeLine="99" d="M227.03,769.04 C239.32,827.48 264.4141,946.7987 275.3541,998.7687 " fill="none" id="ListJobApplicationService-to-JobApplicationRepository" style="stroke:#181818;stroke-width:1.0;stroke-dasharray:7.0,7.0;"/><polygon fill="#181818" points="276.59,1004.64,278.6503,995.009,275.56,999.7472,270.8219,996.657,276.59,1004.64" style="stroke:#181818;stroke-width:1.0;"/></g><!--link ListJobOfferService to JobOfferRepository--><g id="link_ListJobOfferService_JobOfferRepository"><path codeLine="100" d="M746.89,769.24 C743.13,778.76 739.07,789.28 735.5,799 C707.03,876.58 733.61,916.24 675.5,975 C656.76,993.95 636.5564,1004.3587 611.5264,1012.1887 " fill="none" id="ListJobOfferService-to-JobOfferRepository" style="stroke:#181818;stroke-width:1.0;stroke-dasharray:7.0,7.0;"/><polygon fill="#181818" points="605.8,1013.98,615.5838,1015.1106,610.572,1012.4872,613.1953,1007.4754,605.8,1013.98" style="stroke:#181818;stroke-width:1.0;"/></g><!--link PersistenceContext to RepositoryFactory--><g id="link_PersistenceContext_RepositoryFactory"><path codeLine="101" d="M654.83,593.56 C633.93,618.93 601.29,653.94 565.5,675 C524.04,699.4 490.42,666.56 461.5,705 C441.7,731.32 442.1141,761.7495 449.6641,792.8395 " fill="none" id="PersistenceContext-to-RepositoryFactory" style="stroke:#181818;stroke-width:1.0;stroke-dasharray:7.0,7.0;"/><polygon fill="#181818" points="451.08,798.67,452.8432,788.9803,449.9001,793.8112,445.0691,790.8681,451.08,798.67" style="stroke:#181818;stroke-width:1.0;"/><text fill="#000000" font-family="sans-serif" font-size="13" lengthAdjust="spacing" textLength="51" x="462.5" y="741.5669">create()</text></g><!--link RepositoryFactory to CustomerRepository--><g id="link_RepositoryFactory_CustomerRepository"><path codeLine="102" d="M579.1,928.18 C623.01,955.17 666.3084,981.7881 698.7484,1001.7281 " fill="none" id="RepositoryFactory-to-CustomerRepository" style="stroke:#181818;stroke-width:1.0;stroke-dasharray:7.0,7.0;"/><polygon fill="#181818" points="703.86,1004.87,698.2873,996.7494,699.6004,1002.2517,694.098,1003.5648,703.86,1004.87" style="stroke:#181818;stroke-width:1.0;"/><text fill="#000000" font-family="sans-serif" font-size="13" lengthAdjust="spacing" textLength="51" x="649.5" y="971.0669">create()</text></g><!--link RepositoryFactory to JobApplicationRepository--><g id="link_RepositoryFactory_JobApplicationRepository"><path codeLine="103" d="M399.94,928.18 C368.02,955.08 337.4272,980.8624 313.7772,1000.8024 " fill="none" id="RepositoryFactory-to-JobApplicationRepository" style="stroke:#181818;stroke-width:1.0;stroke-dasharray:7.0,7.0;"/><polygon fill="#181818" points="309.19,1004.67,318.6491,1001.9268,313.0126,1001.447,313.4924,995.8106,309.19,1004.67" style="stroke:#181818;stroke-width:1.0;"/><text fill="#000000" font-family="sans-serif" font-size="13" lengthAdjust="spacing" textLength="51" x="362.5" y="971.0669">create()</text></g><!--link RepositoryFactory to JobOfferRepository--><g id="link_RepositoryFactory_JobOfferRepository"><path codeLine="104" d="M488.26,928.21 C491.97,943.69 496.42,960.07 501.5,975 C504.92,985.04 507.0181,990.3297 511.3181,999.4797 " fill="none" id="RepositoryFactory-to-JobOfferRepository" style="stroke:#181818;stroke-width:1.0;stroke-dasharray:7.0,7.0;"/><polygon fill="#181818" points="513.87,1004.91,513.6623,995.0633,511.7434,1000.3848,506.4219,998.4659,513.87,1004.91" style="stroke:#181818;stroke-width:1.0;"/><text fill="#000000" font-family="sans-serif" font-size="13" lengthAdjust="spacing" textLength="51" x="502.5" y="971.0669">create()</text></g><!--SRC=[xLZVRzem47vU_Wg_BQY2bgwTjcYQrj8obK6B-D4zc-G0JuxDR8SEJVlVPnC2Jc98zpg5XuBFTz_TTpwVJtsxL6ebW_Fp5SLC9J5jXJm-3ocMiXaHl10uzhpj4dKIgNWCOe0PNe2OFg3Vtfipj01rirfH4c95E9D-m_kJMVI9pErP9Zq-Ure18snXB1mmF_Xi1FCEZ-04O8Sp9JYb89p0YGJ1S0olTp048RKFO24ORFYbKc01Aow9ue90Zk4eas-wE3HVgJg3bud0J6gPzeNf3YjbQgAIlciVhR5eMphRdv8iMB8QmSy4fAgoAoXRaPgypESW3X7hKErTApbkdIwX2WH4MHsOmz1f7eDOan1IufZIR5i-pNULueytEgNnL7D2SIfge00zQ3Gye_1fPz5gViwVT1PopiFkY8rStcuCffzvHE7kHmvzf-r2joWNVTYbShlPklCpluYRlvLEih3k9ay6jed6IkXyxQCqfUSGF-g2DUARA1AWOJBvRksmo2wapeLZDnMV8SNJZVrrwrXnb8GcYf8mEy-YV7iAZMFLLEGFCIRKMiy91Jd4Qcd9i58uN4AaQswR3C8KEbnOcoLc4Ocm0YV5U-Dgl-fcZWuTntAp5_RsVWv4Co-k6rNa9qf1AgAelTPC1daDbiGp4CzOqmbrYocGGVgpZUCGrruqCTYse9U2swB7F7fAejpETVKwMhRdwE8kJQiN1oWKa6RhYB5rDuwfMEazePAlC-z4KCR0qTw3Oc-lW3WLUK7r58EowhyngMZ6mP5EN4dFrNU3yeFzEXH7VmqSyq855plhXvV9E-wZdD2oMOwWVLYMggDQZ6RvpRVglRpf3h_QvkYJ_1hBubDlsNm15ddrJ5VFTFLCLyzqzKnNptJrJ5VFTFLCzn_CT4FpBxpfe8_MXYHdgDswlBYyQhtp9yi4TM66sjUe_J6ukWWkhj7t-maosmtF_phiho-Hv8dGYOjqUWIP9IR2XjV3Qun62LCaXW2PQkdTVSi4w9wjYU0i1gQytlFWeF3-gdbB53A7eSldUU3TmHmdL6cBa4Uw408qdNIR7xm-Pej4bt60W7aThd75Hk-D_m80]--></g></svg>