<?xml version="1.0" encoding="us-ascii" standalone="no"?><svg xmlns="http://www.w3.org/2000/svg" xmlns:xlink="http://www.w3.org/1999/xlink" contentStyleType="text/css" height="378px" preserveAspectRatio="none" style="width:997px;height:378px;background:#FFFFFF;" version="1.1" viewBox="0 0 997 378" width="997.2px" zoomAndPan="magnify"><defs/><g><!--class ExportTemplateUI--><g id="elem_ExportTemplateUI"><rect codeLine="2" fill="#F1F1F1" height="51.1453" id="ExportTemplateUI" rx="1.5" ry="1.5" style="stroke:#181818;stroke-width:0.3;" width="87" x="620.7" y="4.2"/><ellipse cx="630.24" cy="13.8" fill="#ADD1B2" rx="6.6" ry="6.6" style="stroke:#181818;stroke-width:0.6;"/><path d="M631.8994,11.325 Q631.9931,11.1938 632.1056,11.1281 Q632.2181,11.0625 632.3494,11.0625 Q632.5744,11.0625 632.715,11.2219 Q632.8556,11.3719 632.8556,11.7375 L632.8556,12.6094 Q632.8556,12.975 632.715,13.1344 Q632.5744,13.2938 632.3494,13.2938 Q632.1431,13.2938 632.0213,13.1719 Q631.8994,13.0594 631.8338,12.75 Q631.8056,12.5344 631.6931,12.4219 Q631.4963,12.1969 631.1306,12.0656 Q630.765,11.9344 630.39,11.9344 Q629.9306,11.9344 629.5463,12.1313 Q629.1713,12.3281 628.8713,12.7781 Q628.5806,13.2281 628.5806,13.8469 L628.5806,14.5031 Q628.5806,15.2437 629.115,15.7406 Q629.6494,16.2281 630.6056,16.2281 Q631.1681,16.2281 631.5619,16.0781 Q631.7963,15.9844 632.0494,15.7219 Q632.2088,15.5625 632.2931,15.5156 Q632.3869,15.4688 632.5088,15.4688 Q632.7056,15.4688 632.8556,15.6281 Q633.015,15.7781 633.015,15.9844 Q633.015,16.1906 632.8088,16.4344 Q632.5088,16.7813 632.0306,16.9781 Q631.3838,17.25 630.6056,17.25 Q629.6963,17.25 628.9744,16.875 Q628.3838,16.575 627.9713,15.9375 Q627.5588,15.2906 627.5588,14.5219 L627.5588,13.8281 Q627.5588,13.0313 627.9244,12.3469 Q628.2994,11.6531 628.9556,11.2875 Q629.6119,10.9125 630.3525,10.9125 Q630.7931,10.9125 631.1775,11.0156 Q631.5713,11.1094 631.8994,11.325 Z " fill="#000000"/><text fill="#000000" font-family="sans-serif" font-size="8.4" lengthAdjust="spacing" textLength="66.6" x="638.76" y="17.2781">ExportTemplateUI</text><line style="stroke:#181818;stroke-width:0.3;" x1="621.3" x2="707.1" y1="23.4" y2="23.4"/><line style="stroke:#181818;stroke-width:0.3;" x1="621.3" x2="707.1" y1="28.2" y2="28.2"/><ellipse cx="627.3" cy="37.0863" fill="#84BE84" rx="1.8" ry="1.8" style="stroke:#038048;stroke-width:0.6;"/><text fill="#000000" font-family="sans-serif" font-size="8.4" lengthAdjust="spacing" textLength="71.4" x="632.7" y="39.6645">doShow(): boolean</text><ellipse cx="627.3" cy="48.259" fill="#84BE84" rx="1.8" ry="1.8" style="stroke:#038048;stroke-width:0.6;"/><text fill="#000000" font-family="sans-serif" font-size="8.4" lengthAdjust="spacing" textLength="65.4" x="632.7" y="50.8371">headline(): String</text></g><!--class ExportTemplateController--><g id="elem_ExportTemplateController"><rect codeLine="7" fill="#F1F1F1" height="51.1453" id="ExportTemplateController" rx="1.5" ry="1.5" style="stroke:#181818;stroke-width:0.3;" width="304.2" x="512.1" y="91.8"/><ellipse cx="613.35" cy="101.4" fill="#ADD1B2" rx="6.6" ry="6.6" style="stroke:#181818;stroke-width:0.6;"/><path d="M615.0094,98.925 Q615.1031,98.7938 615.2156,98.7281 Q615.3281,98.6625 615.4594,98.6625 Q615.6844,98.6625 615.825,98.8219 Q615.9656,98.9719 615.9656,99.3375 L615.9656,100.2094 Q615.9656,100.575 615.825,100.7344 Q615.6844,100.8938 615.4594,100.8938 Q615.2531,100.8938 615.1313,100.7719 Q615.0094,100.6594 614.9438,100.35 Q614.9156,100.1344 614.8031,100.0219 Q614.6062,99.7969 614.2406,99.6656 Q613.875,99.5344 613.5,99.5344 Q613.0406,99.5344 612.6563,99.7313 Q612.2813,99.9281 611.9812,100.3781 Q611.6906,100.8281 611.6906,101.4469 L611.6906,102.1031 Q611.6906,102.8438 612.225,103.3406 Q612.7594,103.8281 613.7156,103.8281 Q614.2781,103.8281 614.6719,103.6781 Q614.9063,103.5844 615.1594,103.3219 Q615.3188,103.1625 615.4031,103.1156 Q615.4969,103.0688 615.6188,103.0688 Q615.8156,103.0688 615.9656,103.2281 Q616.125,103.3781 616.125,103.5844 Q616.125,103.7906 615.9187,104.0344 Q615.6188,104.3813 615.1406,104.5781 Q614.4938,104.85 613.7156,104.85 Q612.8063,104.85 612.0844,104.475 Q611.4938,104.175 611.0813,103.5375 Q610.6687,102.8906 610.6687,102.1219 L610.6687,101.4281 Q610.6687,100.6313 611.0344,99.9469 Q611.4094,99.2531 612.0656,98.8875 Q612.7219,98.5125 613.4625,98.5125 Q613.9031,98.5125 614.2875,98.6156 Q614.6813,98.7094 615.0094,98.925 Z " fill="#000000"/><text fill="#000000" font-family="sans-serif" font-size="8.4" lengthAdjust="spacing" textLength="96.6" x="625.65" y="104.8781">ExportTemplateController</text><line style="stroke:#181818;stroke-width:0.3;" x1="512.7" x2="815.7" y1="111" y2="111"/><line style="stroke:#181818;stroke-width:0.3;" x1="512.7" x2="815.7" y1="115.8" y2="115.8"/><ellipse cx="518.7" cy="124.6863" fill="#84BE84" rx="1.8" ry="1.8" style="stroke:#038048;stroke-width:0.6;"/><text fill="#000000" font-family="sans-serif" font-size="8.4" lengthAdjust="spacing" textLength="180" x="524.1" y="127.2645">getAllPlugins(): Iterable&lt;RegisteredPluginDTO&gt;</text><ellipse cx="518.7" cy="135.859" fill="#84BE84" rx="1.8" ry="1.8" style="stroke:#038048;stroke-width:0.6;"/><text fill="#000000" font-family="sans-serif" font-size="8.4" lengthAdjust="spacing" textLength="288.6" x="524.1" y="138.4371">generateTemplate(fileName: String, filePath: String, outputPath: String): void</text></g><!--class PluginHandler--><g id="elem_PluginHandler"><rect codeLine="12" fill="#F1F1F1" height="62.318" id="PluginHandler" rx="1.5" ry="1.5" style="stroke:#181818;stroke-width:0.3;" width="339.6" x="653.4" y="289.2"/><ellipse cx="794.25" cy="298.8" fill="#ADD1B2" rx="6.6" ry="6.6" style="stroke:#181818;stroke-width:0.6;"/><path d="M795.9094,296.325 Q796.0031,296.1937 796.1156,296.1281 Q796.2281,296.0625 796.3594,296.0625 Q796.5844,296.0625 796.725,296.2219 Q796.8656,296.3719 796.8656,296.7375 L796.8656,297.6094 Q796.8656,297.975 796.725,298.1344 Q796.5844,298.2938 796.3594,298.2938 Q796.1531,298.2938 796.0313,298.1719 Q795.9094,298.0594 795.8438,297.75 Q795.8156,297.5344 795.7031,297.4219 Q795.5063,297.1969 795.1406,297.0656 Q794.775,296.9344 794.4,296.9344 Q793.9406,296.9344 793.5563,297.1312 Q793.1813,297.3281 792.8813,297.7781 Q792.5906,298.2281 792.5906,298.8469 L792.5906,299.5031 Q792.5906,300.2438 793.125,300.7406 Q793.6594,301.2281 794.6156,301.2281 Q795.1781,301.2281 795.5719,301.0781 Q795.8063,300.9844 796.0594,300.7219 Q796.2188,300.5625 796.3031,300.5156 Q796.3969,300.4688 796.5188,300.4688 Q796.7156,300.4688 796.8656,300.6281 Q797.025,300.7781 797.025,300.9844 Q797.025,301.1906 796.8188,301.4344 Q796.5188,301.7813 796.0406,301.9781 Q795.3938,302.25 794.6156,302.25 Q793.7063,302.25 792.9844,301.875 Q792.3938,301.575 791.9812,300.9375 Q791.5688,300.2906 791.5688,299.5219 L791.5688,298.8281 Q791.5688,298.0313 791.9344,297.3469 Q792.3094,296.6531 792.9656,296.2875 Q793.6219,295.9125 794.3625,295.9125 Q794.8031,295.9125 795.1875,296.0156 Q795.5813,296.1094 795.9094,296.325 Z " fill="#000000"/><text fill="#000000" font-family="sans-serif" font-size="8.4" lengthAdjust="spacing" textLength="52.8" x="806.55" y="302.2781">PluginHandler</text><line style="stroke:#181818;stroke-width:0.3;" x1="654" x2="992.4" y1="308.4" y2="308.4"/><line style="stroke:#181818;stroke-width:0.3;" x1="654" x2="992.4" y1="313.2" y2="313.2"/><ellipse cx="660" cy="322.0863" fill="#84BE84" rx="1.8" ry="1.8" style="stroke:#038048;stroke-width:0.6;"/><text fill="#000000" font-family="sans-serif" font-size="8.4" lengthAdjust="spacing" textLength="324" x="665.4" y="324.6645">registerPlugin(fileName: String, pluginName: String, pluginType: int): RegisteredPlugin</text><ellipse cx="660" cy="333.259" fill="#84BE84" rx="1.8" ry="1.8" style="stroke:#038048;stroke-width:0.6;"/><text fill="#000000" font-family="sans-serif" font-size="8.4" lengthAdjust="spacing" textLength="285.6" x="665.4" y="335.8371">activateTemplateFunction(pluginFilePath: String, outputFolder: String): void</text><ellipse cx="660" cy="344.4316" fill="#84BE84" rx="1.8" ry="1.8" style="stroke:#038048;stroke-width:0.6;"/><text fill="#000000" font-family="sans-serif" font-size="8.4" lengthAdjust="spacing" textLength="301.2" x="665.4" y="347.0098">activateEvaluationFunctions(pluginFilePath: String, candidateInput: String): void</text></g><!--class PersistenceContext--><g id="elem_PersistenceContext"><rect codeLine="18" fill="#F1F1F1" height="39.9727" id="PersistenceContext" rx="1.5" ry="1.5" style="stroke:#181818;stroke-width:0.3;" width="92.4" x="4.2" y="300.3"/><ellipse cx="13.2" cy="309.9" fill="#ADD1B2" rx="6.6" ry="6.6" style="stroke:#181818;stroke-width:0.6;"/><path d="M14.8594,307.425 Q14.9531,307.2938 15.0656,307.2281 Q15.1781,307.1625 15.3094,307.1625 Q15.5344,307.1625 15.675,307.3219 Q15.8156,307.4719 15.8156,307.8375 L15.8156,308.7094 Q15.8156,309.075 15.675,309.2344 Q15.5344,309.3938 15.3094,309.3938 Q15.1031,309.3938 14.9813,309.2719 Q14.8594,309.1594 14.7938,308.85 Q14.7656,308.6344 14.6531,308.5219 Q14.4562,308.2969 14.0906,308.1656 Q13.725,308.0344 13.35,308.0344 Q12.8906,308.0344 12.5063,308.2313 Q12.1313,308.4281 11.8312,308.8781 Q11.5406,309.3281 11.5406,309.9469 L11.5406,310.6031 Q11.5406,311.3438 12.075,311.8406 Q12.6094,312.3281 13.5656,312.3281 Q14.1281,312.3281 14.5219,312.1781 Q14.7563,312.0844 15.0094,311.8219 Q15.1688,311.6625 15.2531,311.6156 Q15.3469,311.5687 15.4688,311.5687 Q15.6656,311.5687 15.8156,311.7281 Q15.975,311.8781 15.975,312.0844 Q15.975,312.2906 15.7687,312.5344 Q15.4688,312.8812 14.9906,313.0781 Q14.3438,313.35 13.5656,313.35 Q12.6563,313.35 11.9344,312.975 Q11.3438,312.675 10.9313,312.0375 Q10.5187,311.3906 10.5187,310.6219 L10.5187,309.9281 Q10.5187,309.1312 10.8844,308.4469 Q11.2594,307.7531 11.9156,307.3875 Q12.5719,307.0125 13.3125,307.0125 Q13.7531,307.0125 14.1375,307.1156 Q14.5313,307.2094 14.8594,307.425 Z " fill="#000000"/><text fill="#000000" font-family="sans-serif" font-size="8.4" lengthAdjust="spacing" textLength="73.2" x="21.6" y="313.3781">PersistenceContext</text><line style="stroke:#181818;stroke-width:0.3;" x1="4.8" x2="96" y1="319.5" y2="319.5"/><line style="stroke:#181818;stroke-width:0.3;" x1="4.8" x2="96" y1="324.3" y2="324.3"/><ellipse cx="10.8" cy="333.1863" fill="#84BE84" rx="1.8" ry="1.8" style="stroke:#038048;stroke-width:0.6;"/><text fill="#000000" font-family="sans-serif" font-size="8.4" lengthAdjust="spacing" textLength="50.4" x="16.2" y="335.7645">repositories()</text></g><!--class RepositoryFactory--><g id="elem_RepositoryFactory"><rect codeLine="22" fill="#F1F1F1" height="107.0086" id="RepositoryFactory" rx="1.5" ry="1.5" style="stroke:#181818;stroke-width:0.3;" width="184.8" x="145.2" y="267"/><ellipse cx="200.25" cy="276.6" fill="#ADD1B2" rx="6.6" ry="6.6" style="stroke:#181818;stroke-width:0.6;"/><path d="M201.9094,274.125 Q202.0031,273.9938 202.1156,273.9281 Q202.2281,273.8625 202.3594,273.8625 Q202.5844,273.8625 202.725,274.0219 Q202.8656,274.1719 202.8656,274.5375 L202.8656,275.4094 Q202.8656,275.775 202.725,275.9344 Q202.5844,276.0938 202.3594,276.0938 Q202.1531,276.0938 202.0313,275.9719 Q201.9094,275.8594 201.8438,275.55 Q201.8156,275.3344 201.7031,275.2219 Q201.5063,274.9969 201.1406,274.8656 Q200.775,274.7344 200.4,274.7344 Q199.9406,274.7344 199.5563,274.9313 Q199.1813,275.1281 198.8813,275.5781 Q198.5906,276.0281 198.5906,276.6469 L198.5906,277.3031 Q198.5906,278.0438 199.125,278.5406 Q199.6594,279.0281 200.6156,279.0281 Q201.1781,279.0281 201.5719,278.8781 Q201.8063,278.7844 202.0594,278.5219 Q202.2188,278.3625 202.3031,278.3156 Q202.3969,278.2688 202.5187,278.2688 Q202.7156,278.2688 202.8656,278.4281 Q203.025,278.5781 203.025,278.7844 Q203.025,278.9906 202.8188,279.2344 Q202.5187,279.5813 202.0406,279.7781 Q201.3937,280.05 200.6156,280.05 Q199.7062,280.05 198.9844,279.675 Q198.3937,279.375 197.9813,278.7375 Q197.5688,278.0906 197.5688,277.3219 L197.5688,276.6281 Q197.5688,275.8313 197.9344,275.1469 Q198.3094,274.4531 198.9656,274.0875 Q199.6219,273.7125 200.3625,273.7125 Q200.8031,273.7125 201.1875,273.8156 Q201.5812,273.9094 201.9094,274.125 Z " fill="#000000"/><text fill="#000000" font-family="sans-serif" font-size="8.4" lengthAdjust="spacing" textLength="69.6" x="212.55" y="280.0781">RepositoryFactory</text><line style="stroke:#181818;stroke-width:0.3;" x1="145.8" x2="329.4" y1="286.2" y2="286.2"/><line style="stroke:#181818;stroke-width:0.3;" x1="145.8" x2="329.4" y1="291" y2="291"/><ellipse cx="151.8" cy="299.8863" fill="#84BE84" rx="1.8" ry="1.8" style="stroke:#038048;stroke-width:0.6;"/><text fill="#000000" font-family="sans-serif" font-size="8.4" lengthAdjust="spacing" textLength="103.8" x="157.2" y="302.4645">newTransactionalContext();</text><ellipse cx="151.8" cy="311.059" fill="#84BE84" rx="1.8" ry="1.8" style="stroke:#038048;stroke-width:0.6;"/><text fill="#000000" font-family="sans-serif" font-size="8.4" lengthAdjust="spacing" textLength="129" x="157.2" y="313.6371">users(TransactionalContext var1);</text><ellipse cx="151.8" cy="322.2316" fill="#84BE84" rx="1.8" ry="1.8" style="stroke:#038048;stroke-width:0.6;"/><text fill="#000000" font-family="sans-serif" font-size="8.4" lengthAdjust="spacing" textLength="29.4" x="157.2" y="324.8098">users();</text><ellipse cx="151.8" cy="333.4043" fill="#84BE84" rx="1.8" ry="1.8" style="stroke:#038048;stroke-width:0.6;"/><text fill="#000000" font-family="sans-serif" font-size="8.4" lengthAdjust="spacing" textLength="149.4" x="157.2" y="335.9824">clientUsers(TransactionalContext var1);</text><ellipse cx="151.8" cy="344.577" fill="#84BE84" rx="1.8" ry="1.8" style="stroke:#038048;stroke-width:0.6;"/><text fill="#000000" font-family="sans-serif" font-size="8.4" lengthAdjust="spacing" textLength="49.8" x="157.2" y="347.1551">clientUsers();</text><ellipse cx="151.8" cy="355.7496" fill="#84BE84" rx="1.8" ry="1.8" style="stroke:#038048;stroke-width:0.6;"/><text fill="#000000" font-family="sans-serif" font-size="8.4" lengthAdjust="spacing" textLength="169.2" x="157.2" y="358.3277">signupRequests(TransactionalContext var1);</text><ellipse cx="151.8" cy="366.9223" fill="#84BE84" rx="1.8" ry="1.8" style="stroke:#038048;stroke-width:0.6;"/><text fill="#000000" font-family="sans-serif" font-size="8.4" lengthAdjust="spacing" textLength="69.6" x="157.2" y="369.5004">signupRequests();</text></g><!--class ManagePluginService--><g id="elem_ManagePluginService"><rect codeLine="33" fill="#F1F1F1" height="51.1453" id="ManagePluginService" rx="1.5" ry="1.5" style="stroke:#181818;stroke-width:0.3;" width="187.2" x="570.6" y="179.4"/><ellipse cx="620.55" cy="189" fill="#ADD1B2" rx="6.6" ry="6.6" style="stroke:#181818;stroke-width:0.6;"/><path d="M622.2094,186.525 Q622.3031,186.3937 622.4156,186.3281 Q622.5281,186.2625 622.6594,186.2625 Q622.8844,186.2625 623.025,186.4219 Q623.1656,186.5719 623.1656,186.9375 L623.1656,187.8094 Q623.1656,188.175 623.025,188.3344 Q622.8844,188.4938 622.6594,188.4938 Q622.4531,188.4938 622.3313,188.3719 Q622.2094,188.2594 622.1438,187.95 Q622.1156,187.7344 622.0031,187.6219 Q621.8063,187.3969 621.4406,187.2656 Q621.075,187.1344 620.7,187.1344 Q620.2406,187.1344 619.8562,187.3312 Q619.4812,187.5281 619.1813,187.9781 Q618.8906,188.4281 618.8906,189.0469 L618.8906,189.7031 Q618.8906,190.4438 619.425,190.9406 Q619.9594,191.4281 620.9156,191.4281 Q621.4781,191.4281 621.8719,191.2781 Q622.1062,191.1844 622.3594,190.9219 Q622.5188,190.7625 622.6031,190.7156 Q622.6969,190.6688 622.8188,190.6688 Q623.0156,190.6688 623.1656,190.8281 Q623.325,190.9781 623.325,191.1844 Q623.325,191.3906 623.1188,191.6344 Q622.8188,191.9813 622.3406,192.1781 Q621.6938,192.45 620.9156,192.45 Q620.0063,192.45 619.2844,192.075 Q618.6938,191.775 618.2813,191.1375 Q617.8688,190.4906 617.8688,189.7219 L617.8688,189.0281 Q617.8688,188.2313 618.2344,187.5469 Q618.6094,186.8531 619.2656,186.4875 Q619.9219,186.1125 620.6625,186.1125 Q621.1031,186.1125 621.4875,186.2156 Q621.8813,186.3094 622.2094,186.525 Z " fill="#000000"/><text fill="#000000" font-family="sans-serif" font-size="8.4" lengthAdjust="spacing" textLength="82.2" x="632.85" y="192.4781">ManagePluginService</text><line style="stroke:#181818;stroke-width:0.3;" x1="571.2" x2="757.2" y1="198.6" y2="198.6"/><line style="stroke:#181818;stroke-width:0.3;" x1="571.2" x2="757.2" y1="203.4" y2="203.4"/><ellipse cx="577.2" cy="212.2863" fill="#84BE84" rx="1.8" ry="1.8" style="stroke:#038048;stroke-width:0.6;"/><text fill="#000000" font-family="sans-serif" font-size="8.4" lengthAdjust="spacing" textLength="171.6" x="582.6" y="214.8645">addPlugin(plugin: RegisteredPlugin): boolean</text><ellipse cx="577.2" cy="223.459" fill="#84BE84" rx="1.8" ry="1.8" style="stroke:#038048;stroke-width:0.6;"/><text fill="#000000" font-family="sans-serif" font-size="8.4" lengthAdjust="spacing" textLength="149.4" x="582.6" y="226.0371">allPlugins(): Iterable&lt;RegisteredPlugin&gt;</text></g><!--class RegisteredPluginsRepository--><g id="elem_RegisteredPluginsRepository"><rect codeLine="37" fill="#F1F1F1" height="62.318" id="RegisteredPluginsRepository" rx="1.5" ry="1.5" style="stroke:#181818;stroke-width:0.3;" width="253.8" x="378.3" y="289.2"/><ellipse cx="447.75" cy="298.8" fill="#B4A7E5" rx="6.6" ry="6.6" style="stroke:#181818;stroke-width:0.6;"/><path d="M448.3219,296.7844 L448.3219,300.7781 L449.3531,300.7781 Q449.7188,300.7781 449.8781,300.9188 Q450.0375,301.0594 450.0375,301.2938 Q450.0375,301.5188 449.8781,301.6594 Q449.7188,301.8 449.3531,301.8 L446.2688,301.8 Q445.9031,301.8 445.7438,301.6594 Q445.5844,301.5188 445.5844,301.2844 Q445.5844,301.0594 445.7438,300.9188 Q445.9031,300.7781 446.2688,300.7781 L447.3,300.7781 L447.3,296.7844 L446.2688,296.7844 Q445.9031,296.7844 445.7438,296.6438 Q445.5844,296.5031 445.5844,296.2688 Q445.5844,296.0438 445.7438,295.9031 Q445.9031,295.7625 446.2688,295.7625 L449.3531,295.7625 Q449.7188,295.7625 449.8781,295.9031 Q450.0375,296.0438 450.0375,296.2688 Q450.0375,296.5031 449.8781,296.6438 Q449.7188,296.7844 449.3531,296.7844 L448.3219,296.7844 Z " fill="#000000"/><text fill="#000000" font-family="sans-serif" font-size="8.4" font-style="italic" lengthAdjust="spacing" textLength="109.8" x="460.05" y="302.2781">RegisteredPluginsRepository</text><line style="stroke:#181818;stroke-width:0.3;" x1="378.9" x2="631.5" y1="308.4" y2="308.4"/><line style="stroke:#181818;stroke-width:0.3;" x1="378.9" x2="631.5" y1="313.2" y2="313.2"/><ellipse cx="384.9" cy="322.0863" fill="#84BE84" rx="1.8" ry="1.8" style="stroke:#038048;stroke-width:0.6;"/><text fill="#000000" font-family="sans-serif" font-size="8.4" lengthAdjust="spacing" textLength="238.2" x="390.3" y="324.6645">findByRef(name: PluginFileName): Optional&lt;RegisteredPlugin&gt;</text><ellipse cx="384.9" cy="333.259" fill="#84BE84" rx="1.8" ry="1.8" style="stroke:#038048;stroke-width:0.6;"/><text fill="#000000" font-family="sans-serif" font-size="8.4" lengthAdjust="spacing" textLength="163.8" x="390.3" y="335.8371">findAllPlugins(): Iterable&lt;RegisteredPlugin&gt;</text><ellipse cx="384.9" cy="344.4316" fill="#84BE84" rx="1.8" ry="1.8" style="stroke:#038048;stroke-width:0.6;"/><text fill="#000000" font-family="sans-serif" font-size="8.4" lengthAdjust="spacing" textLength="171.6" x="390.3" y="347.0098">findAllInterview() : Iterable&lt;RegisteredPlugin&gt;</text></g><!--link PersistenceContext to RepositoryFactory--><g id="link_PersistenceContext_RepositoryFactory"><path codeLine="44" d="M96.672,320.4 C111.402,320.4 124.644,320.4 141.444,320.4 " fill="none" id="PersistenceContext-to-RepositoryFactory" style="stroke:#181818;stroke-width:0.6;"/><polygon fill="#181818" points="145.044,320.4,139.644,318,142.044,320.4,139.644,322.8,145.044,320.4" style="stroke:#181818;stroke-width:0.6;"/><text fill="#000000" font-family="sans-serif" font-size="7.8" lengthAdjust="spacing" textLength="26.4" x="107.7" y="316.217">create()</text></g><!--link RepositoryFactory to RegisteredPluginsRepository--><g id="link_RepositoryFactory_RegisteredPluginsRepository"><path codeLine="45" d="M330.066,320.4 C345.63,320.4 358.416,320.4 374.67,320.4 " fill="none" id="RepositoryFactory-to-RegisteredPluginsRepository" style="stroke:#181818;stroke-width:0.6;"/><polygon fill="#181818" points="378.27,320.4,372.87,318,375.27,320.4,372.87,322.8,378.27,320.4" style="stroke:#181818;stroke-width:0.6;"/><text fill="#000000" font-family="sans-serif" font-size="7.8" lengthAdjust="spacing" textLength="26.4" x="340.95" y="316.217">create()</text></g><!--link ExportTemplateUI to ExportTemplateController--><g id="link_ExportTemplateUI_ExportTemplateController"><path codeLine="46" d="M664.2,55.29 C664.2,66.756 664.2,76.71 664.2,88.164 " fill="none" id="ExportTemplateUI-to-ExportTemplateController" style="stroke:#181818;stroke-width:0.6;stroke-dasharray:7.0,7.0;"/><polygon fill="#181818" points="664.2,91.764,666.6,86.364,664.2,88.764,661.8,86.364,664.2,91.764" style="stroke:#181818;stroke-width:0.6;"/></g><!--link ExportTemplateController to ManagePluginService--><g id="link_ExportTemplateController_ManagePluginService"><path codeLine="47" d="M664.2,142.89 C664.2,154.356 664.2,164.31 664.2,175.764 " fill="none" id="ExportTemplateController-to-ManagePluginService" style="stroke:#181818;stroke-width:0.6;stroke-dasharray:7.0,7.0;"/><polygon fill="#181818" points="664.2,179.364,666.6,173.964,664.2,176.364,661.8,173.964,664.2,179.364" style="stroke:#181818;stroke-width:0.6;"/></g><!--link ManagePluginService to PluginHandler--><g id="link_ManagePluginService_PluginHandler"><path codeLine="48" d="M698.898,230.442 C722.838,247.65 751.901,268.5466 777.431,286.9006 " fill="none" id="ManagePluginService-to-PluginHandler" style="stroke:#181818;stroke-width:0.6;stroke-dasharray:7.0,7.0;"/><polygon fill="#181818" points="780.354,289.002,777.3704,283.9012,777.9181,287.2508,774.5685,287.7986,780.354,289.002" style="stroke:#181818;stroke-width:0.6;"/></g><!--link ManagePluginService to RegisteredPluginsRepository--><g id="link_ManagePluginService_RegisteredPluginsRepository"><path codeLine="49" d="M629.502,230.442 C605.562,247.65 576.499,268.5466 550.969,286.9006 " fill="none" id="ManagePluginService-to-RegisteredPluginsRepository" style="stroke:#181818;stroke-width:0.6;stroke-dasharray:7.0,7.0;"/><polygon fill="#181818" points="548.046,289.002,553.8315,287.7986,550.4819,287.2508,551.0296,283.9012,548.046,289.002" style="stroke:#181818;stroke-width:0.6;"/></g><!--SRC=[bLJDRjim3BxxANHqa6r0hzjGeDiQD8UjGP8-W6enZW2LyYJPRL3qtKTPYkCV9SXyY6EItyT_5efRo-xVActS5bugnHqyBTbxnk8pPq9lzlerdtrbprehuDZJxO4B9H6yTkECnB9LVcHPaI3-gT4PhHIOWOCIt9rIArMN4grdMZem_5d1zpMKqj87YA3zjNsy7G2H31qS-VETLF27ly0nc4_CIrRSxKyINRkgTdqPUMoq5CF8WyC7Zc8Sheb11Ok4pwfLf6JRGqKoYOvSZdFhUU25aqqlhqMD9D6O1vR5cPmMMWamgQo6jFSDLpNtX4TYUvQve098GQ0baeVB5GDZVKPOj8s6DnUgDZTGQIkTDXAelLa7M1_bXmM5Hg_tB9iZl6uDHylRmBYALFdiMo1ZjIK_USg6DTpSZEowpq99GFTq9RXltGcjBB6krl2t1kkkOHa1I1uhvdz33Nvpv2M42TY0QMG1lM6BVHDnH6ANfhEJsCq8lMwlJalrqVsZAGMpunJFsDgU6ZUADJZTIHG_3clOvTZkmAgRBRyJ5CTZ5Ofs8OuXszt_fj718thfasaaq1bZLnESQX7wDXrmzlbsEiNae33Wpz6iXKqDMjJvcexma-FyXV1d3si2qjDwQ6BaMb1g5Btzu19UjBoGL8lx1m00]--></g></svg>