<?xml version="1.0" encoding="us-ascii" standalone="no"?><svg xmlns="http://www.w3.org/2000/svg" xmlns:xlink="http://www.w3.org/1999/xlink" contentStyleType="text/css" height="1657px" preserveAspectRatio="none" style="width:2531px;height:1657px;background:#FFFFFF;" version="1.1" viewBox="0 0 2531 1657" width="2531px" zoomAndPan="magnify"><defs/><g><rect fill="#FFFFFF" height="1462.7266" style="stroke:#181818;stroke-width:1.0;" width="10" x="61.5" y="93.6211"/><rect fill="#FFFFFF" height="1439.4355" style="stroke:#181818;stroke-width:1.0;" width="10" x="227.5" y="116.9121"/><rect fill="#FFFFFF" height="140.1641" style="stroke:#181818;stroke-width:1.0;" width="10" x="401.5" y="148.2031"/><rect fill="#FFFFFF" height="31.291" style="stroke:#181818;stroke-width:1.0;" width="10" x="401.5" y="507.4043"/><rect fill="#FFFFFF" height="31.291" style="stroke:#181818;stroke-width:1.0;" width="10" x="401.5" y="569.9863"/><rect fill="#FFFFFF" height="75.582" style="stroke:#181818;stroke-width:1.0;" width="10" x="401.5" y="757.7324"/><rect fill="#FFFFFF" height="57.582" style="stroke:#181818;stroke-width:1.0;" width="10" x="401.5" y="881.8965"/><rect fill="#FFFFFF" height="47.9219" style="stroke:#181818;stroke-width:1.0;" width="10" x="401.5" y="1204.8066"/><rect fill="#FFFFFF" height="38.291" style="stroke:#181818;stroke-width:1.0;" width="10" x="401.5" y="1518.0566"/><rect fill="#FFFFFF" height="85.582" style="stroke:#181818;stroke-width:1.0;" width="10" x="688.5" y="179.4941"/><rect fill="#FFFFFF" height="31.291" style="stroke:#181818;stroke-width:1.0;" width="10" x="688.5" y="288.3672"/><rect fill="#FFFFFF" height="31.291" style="stroke:#181818;stroke-width:1.0;" width="10" x="688.5" y="350.9492"/><rect fill="#FFFFFF" height="31.291" style="stroke:#181818;stroke-width:1.0;" width="10" x="688.5" y="476.1133"/><rect fill="#FFFFFF" height="31.291" style="stroke:#181818;stroke-width:1.0;" width="10" x="688.5" y="601.2773"/><rect fill="#FFFFFF" height="31.291" style="stroke:#181818;stroke-width:1.0;" width="10" x="688.5" y="726.4414"/><rect fill="#FFFFFF" height="31.291" style="stroke:#181818;stroke-width:1.0;" width="10" x="688.5" y="939.4785"/><rect fill="#FFFFFF" height="31.291" style="stroke:#181818;stroke-width:1.0;" width="10" x="688.5" y="1173.5156"/><rect fill="#FFFFFF" height="31.291" style="stroke:#181818;stroke-width:1.0;" width="10" x="688.5" y="1252.7285"/><rect fill="#FFFFFF" height="31.291" style="stroke:#181818;stroke-width:1.0;" width="10" x="688.5" y="1486.7656"/><rect fill="#FFFFFF" height="31.291" style="stroke:#181818;stroke-width:1.0;" width="10" x="1116.5" y="319.6582"/><rect fill="#FFFFFF" height="31.291" style="stroke:#181818;stroke-width:1.0;" width="10" x="1266.5" y="382.2402"/><rect fill="#FFFFFF" height="31.291" style="stroke:#181818;stroke-width:1.0;" width="10" x="1266.5" y="444.8223"/><rect fill="#FFFFFF" height="31.291" style="stroke:#181818;stroke-width:1.0;" width="10" x="1514.5" y="413.5313"/><rect fill="#FFFFFF" height="101.873" style="stroke:#181818;stroke-width:1.0;" width="10" x="1707.5" y="970.7695"/><rect fill="#FFFFFF" height="38.291" style="stroke:#181818;stroke-width:1.0;" width="10" x="1707.5" y="1135.2246"/><rect fill="#FFFFFF" height="101.873" style="stroke:#181818;stroke-width:1.0;" width="10" x="1707.5" y="1284.0195"/><rect fill="#FFFFFF" height="38.291" style="stroke:#181818;stroke-width:1.0;" width="10" x="1707.5" y="1448.4746"/><rect fill="#FFFFFF" height="31.291" style="stroke:#181818;stroke-width:1.0;" width="10" x="2085.5" y="632.5684"/><rect fill="#FFFFFF" height="31.291" style="stroke:#181818;stroke-width:1.0;" width="10" x="2085.5" y="695.1504"/><rect fill="#FFFFFF" height="62.582" style="stroke:#181818;stroke-width:1.0;" width="10" x="2085.5" y="1072.6426"/><rect fill="#FFFFFF" height="62.582" style="stroke:#181818;stroke-width:1.0;" width="10" x="2085.5" y="1385.8926"/><rect fill="#FFFFFF" height="31.291" style="stroke:#181818;stroke-width:1.0;" width="10" x="2394.5" y="663.8594"/><rect fill="none" height="63.582" style="stroke:#000000;stroke-width:1.5;" width="416" x="573.5" y="194.4941"/><rect fill="none" height="629.1602" style="stroke:#000000;stroke-width:1.5;" width="2212.5" x="311.5" y="896.8965"/><rect fill="none" height="113.1641" style="stroke:#000000;stroke-width:1.5;" width="926.5" x="1587.5" y="1030.0605"/><rect fill="none" height="113.1641" style="stroke:#000000;stroke-width:1.5;" width="926.5" x="1587.5" y="1343.3105"/><line style="stroke:#181818;stroke-width:0.5;stroke-dasharray:5.0,5.0;" x1="66" x2="66" y1="83.6211" y2="1574.3477"/><line style="stroke:#181818;stroke-width:0.5;stroke-dasharray:5.0,5.0;" x1="232" x2="232" y1="83.6211" y2="1574.3477"/><line style="stroke:#181818;stroke-width:0.5;stroke-dasharray:5.0,5.0;" x1="406.5" x2="406.5" y1="83.6211" y2="1574.3477"/><line style="stroke:#181818;stroke-width:0.5;stroke-dasharray:5.0,5.0;" x1="693.5" x2="693.5" y1="83.6211" y2="1574.3477"/><line style="stroke:#181818;stroke-width:0.5;stroke-dasharray:5.0,5.0;" x1="1121" x2="1121" y1="83.6211" y2="1574.3477"/><line style="stroke:#181818;stroke-width:0.5;stroke-dasharray:5.0,5.0;" x1="1271" x2="1271" y1="83.6211" y2="1574.3477"/><line style="stroke:#181818;stroke-width:0.5;stroke-dasharray:5.0,5.0;" x1="1519.5" x2="1519.5" y1="83.6211" y2="1574.3477"/><line style="stroke:#181818;stroke-width:0.5;stroke-dasharray:5.0,5.0;" x1="1712.5" x2="1712.5" y1="83.6211" y2="1574.3477"/><line style="stroke:#181818;stroke-width:0.5;stroke-dasharray:5.0,5.0;" x1="2090.5" x2="2090.5" y1="83.6211" y2="1574.3477"/><line style="stroke:#181818;stroke-width:0.5;stroke-dasharray:5.0,5.0;" x1="2399" x2="2399" y1="83.6211" y2="1574.3477"/><text fill="#000000" font-family="sans-serif" font-size="14" lengthAdjust="spacing" textLength="117" x="5" y="80.1074">CustomerManager</text><ellipse cx="66.5" cy="13.5" fill="#E2E2F0" rx="8" ry="8" style="stroke:#181818;stroke-width:0.5;"/><path d="M66.5,21.5 L66.5,48.5 M53.5,29.5 L79.5,29.5 M66.5,48.5 L53.5,63.5 M66.5,48.5 L79.5,63.5 " fill="none" style="stroke:#181818;stroke-width:0.5;"/><text fill="#000000" font-family="sans-serif" font-size="14" lengthAdjust="spacing" textLength="117" x="5" y="1588.4551">CustomerManager</text><ellipse cx="66.5" cy="1600.4688" fill="#E2E2F0" rx="8" ry="8" style="stroke:#181818;stroke-width:0.5;"/><path d="M66.5,1608.4688 L66.5,1635.4688 M53.5,1616.4688 L79.5,1616.4688 M66.5,1635.4688 L53.5,1650.4688 M66.5,1635.4688 L79.5,1650.4688 " fill="none" style="stroke:#181818;stroke-width:0.5;"/><rect fill="#E2E2F0" height="32.6211" rx="2.5" ry="2.5" style="stroke:#181818;stroke-width:0.5;" width="143" x="161" y="50"/><text fill="#000000" font-family="sans-serif" font-size="14" lengthAdjust="spacing" textLength="129" x="168" y="72.1074">CustomerManagerUI</text><rect fill="#E2E2F0" height="32.6211" rx="2.5" ry="2.5" style="stroke:#181818;stroke-width:0.5;" width="143" x="161" y="1573.3477"/><text fill="#000000" font-family="sans-serif" font-size="14" lengthAdjust="spacing" textLength="129" x="168" y="1595.4551">CustomerManagerUI</text><rect fill="#E2E2F0" height="32.6211" rx="2.5" ry="2.5" style="stroke:#181818;stroke-width:0.5;" width="170" x="321.5" y="50"/><text fill="#000000" font-family="sans-serif" font-size="14" lengthAdjust="spacing" textLength="156" x="328.5" y="72.1074">ChangeJobOfferPhaseUI</text><rect fill="#E2E2F0" height="32.6211" rx="2.5" ry="2.5" style="stroke:#181818;stroke-width:0.5;" width="170" x="321.5" y="1573.3477"/><text fill="#000000" font-family="sans-serif" font-size="14" lengthAdjust="spacing" textLength="156" x="328.5" y="1595.4551">ChangeJobOfferPhaseUI</text><rect fill="#E2E2F0" height="32.6211" rx="2.5" ry="2.5" style="stroke:#181818;stroke-width:0.5;" width="220" x="583.5" y="50"/><text fill="#000000" font-family="sans-serif" font-size="14" lengthAdjust="spacing" textLength="206" x="590.5" y="72.1074">ChangeJobOfferPhaseController</text><rect fill="#E2E2F0" height="32.6211" rx="2.5" ry="2.5" style="stroke:#181818;stroke-width:0.5;" width="220" x="583.5" y="1573.3477"/><text fill="#000000" font-family="sans-serif" font-size="14" lengthAdjust="spacing" textLength="206" x="590.5" y="1595.4551">ChangeJobOfferPhaseController</text><rect fill="#E2E2F0" height="32.6211" rx="2.5" ry="2.5" style="stroke:#181818;stroke-width:0.5;" width="143" x="1050" y="50"/><text fill="#000000" font-family="sans-serif" font-size="14" lengthAdjust="spacing" textLength="129" x="1057" y="72.1074">AuthorizationService</text><rect fill="#E2E2F0" height="32.6211" rx="2.5" ry="2.5" style="stroke:#181818;stroke-width:0.5;" width="143" x="1050" y="1573.3477"/><text fill="#000000" font-family="sans-serif" font-size="14" lengthAdjust="spacing" textLength="129" x="1057" y="1595.4551">AuthorizationService</text><rect fill="#E2E2F0" height="32.6211" rx="2.5" ry="2.5" style="stroke:#181818;stroke-width:0.5;" width="137" x="1203" y="50"/><text fill="#000000" font-family="sans-serif" font-size="14" lengthAdjust="spacing" textLength="123" x="1210" y="72.1074">ListJobOfferService</text><rect fill="#E2E2F0" height="32.6211" rx="2.5" ry="2.5" style="stroke:#181818;stroke-width:0.5;" width="137" x="1203" y="1573.3477"/><text fill="#000000" font-family="sans-serif" font-size="14" lengthAdjust="spacing" textLength="123" x="1210" y="1595.4551">ListJobOfferService</text><rect fill="#E2E2F0" height="32.6211" rx="2.5" ry="2.5" style="stroke:#181818;stroke-width:0.5;" width="136" x="1451.5" y="50"/><text fill="#000000" font-family="sans-serif" font-size="14" lengthAdjust="spacing" textLength="122" x="1458.5" y="72.1074">JobOfferRepository</text><rect fill="#E2E2F0" height="32.6211" rx="2.5" ry="2.5" style="stroke:#181818;stroke-width:0.5;" width="136" x="1451.5" y="1573.3477"/><text fill="#000000" font-family="sans-serif" font-size="14" lengthAdjust="spacing" textLength="122" x="1458.5" y="1595.4551">JobOfferRepository</text><rect fill="#E2E2F0" height="32.6211" rx="2.5" ry="2.5" style="stroke:#181818;stroke-width:0.5;" width="230" x="1597.5" y="50"/><text fill="#000000" font-family="sans-serif" font-size="14" lengthAdjust="spacing" textLength="216" x="1604.5" y="72.1074">RecruitmentProcessPhaseHandler</text><rect fill="#E2E2F0" height="32.6211" rx="2.5" ry="2.5" style="stroke:#181818;stroke-width:0.5;" width="230" x="1597.5" y="1573.3477"/><text fill="#000000" font-family="sans-serif" font-size="14" lengthAdjust="spacing" textLength="216" x="1604.5" y="1595.4551">RecruitmentProcessPhaseHandler</text><rect fill="#E2E2F0" height="32.6211" rx="2.5" ry="2.5" style="stroke:#181818;stroke-width:0.5;" width="258" x="1961.5" y="50"/><text fill="#000000" font-family="sans-serif" font-size="14" lengthAdjust="spacing" textLength="244" x="1968.5" y="72.1074">RecruitmentProcessRepositoryHandler</text><rect fill="#E2E2F0" height="32.6211" rx="2.5" ry="2.5" style="stroke:#181818;stroke-width:0.5;" width="258" x="1961.5" y="1573.3477"/><text fill="#000000" font-family="sans-serif" font-size="14" lengthAdjust="spacing" textLength="244" x="1968.5" y="1595.4551">RecruitmentProcessRepositoryHandler</text><rect fill="#E2E2F0" height="32.6211" rx="2.5" ry="2.5" style="stroke:#181818;stroke-width:0.5;" width="209" x="2295" y="50"/><text fill="#000000" font-family="sans-serif" font-size="14" lengthAdjust="spacing" textLength="195" x="2302" y="72.1074">RecruitmentProcessRepository</text><rect fill="#E2E2F0" height="32.6211" rx="2.5" ry="2.5" style="stroke:#181818;stroke-width:0.5;" width="209" x="2295" y="1573.3477"/><text fill="#000000" font-family="sans-serif" font-size="14" lengthAdjust="spacing" textLength="195" x="2302" y="1595.4551">RecruitmentProcessRepository</text><rect fill="#FFFFFF" height="1462.7266" style="stroke:#181818;stroke-width:1.0;" width="10" x="61.5" y="93.6211"/><rect fill="#FFFFFF" height="1439.4355" style="stroke:#181818;stroke-width:1.0;" width="10" x="227.5" y="116.9121"/><rect fill="#FFFFFF" height="140.1641" style="stroke:#181818;stroke-width:1.0;" width="10" x="401.5" y="148.2031"/><rect fill="#FFFFFF" height="31.291" style="stroke:#181818;stroke-width:1.0;" width="10" x="401.5" y="507.4043"/><rect fill="#FFFFFF" height="31.291" style="stroke:#181818;stroke-width:1.0;" width="10" x="401.5" y="569.9863"/><rect fill="#FFFFFF" height="75.582" style="stroke:#181818;stroke-width:1.0;" width="10" x="401.5" y="757.7324"/><rect fill="#FFFFFF" height="57.582" style="stroke:#181818;stroke-width:1.0;" width="10" x="401.5" y="881.8965"/><rect fill="#FFFFFF" height="47.9219" style="stroke:#181818;stroke-width:1.0;" width="10" x="401.5" y="1204.8066"/><rect fill="#FFFFFF" height="38.291" style="stroke:#181818;stroke-width:1.0;" width="10" x="401.5" y="1518.0566"/><rect fill="#FFFFFF" height="85.582" style="stroke:#181818;stroke-width:1.0;" width="10" x="688.5" y="179.4941"/><rect fill="#FFFFFF" height="31.291" style="stroke:#181818;stroke-width:1.0;" width="10" x="688.5" y="288.3672"/><rect fill="#FFFFFF" height="31.291" style="stroke:#181818;stroke-width:1.0;" width="10" x="688.5" y="350.9492"/><rect fill="#FFFFFF" height="31.291" style="stroke:#181818;stroke-width:1.0;" width="10" x="688.5" y="476.1133"/><rect fill="#FFFFFF" height="31.291" style="stroke:#181818;stroke-width:1.0;" width="10" x="688.5" y="601.2773"/><rect fill="#FFFFFF" height="31.291" style="stroke:#181818;stroke-width:1.0;" width="10" x="688.5" y="726.4414"/><rect fill="#FFFFFF" height="31.291" style="stroke:#181818;stroke-width:1.0;" width="10" x="688.5" y="939.4785"/><rect fill="#FFFFFF" height="31.291" style="stroke:#181818;stroke-width:1.0;" width="10" x="688.5" y="1173.5156"/><rect fill="#FFFFFF" height="31.291" style="stroke:#181818;stroke-width:1.0;" width="10" x="688.5" y="1252.7285"/><rect fill="#FFFFFF" height="31.291" style="stroke:#181818;stroke-width:1.0;" width="10" x="688.5" y="1486.7656"/><rect fill="#FFFFFF" height="31.291" style="stroke:#181818;stroke-width:1.0;" width="10" x="1116.5" y="319.6582"/><rect fill="#FFFFFF" height="31.291" style="stroke:#181818;stroke-width:1.0;" width="10" x="1266.5" y="382.2402"/><rect fill="#FFFFFF" height="31.291" style="stroke:#181818;stroke-width:1.0;" width="10" x="1266.5" y="444.8223"/><rect fill="#FFFFFF" height="31.291" style="stroke:#181818;stroke-width:1.0;" width="10" x="1514.5" y="413.5313"/><rect fill="#FFFFFF" height="101.873" style="stroke:#181818;stroke-width:1.0;" width="10" x="1707.5" y="970.7695"/><rect fill="#FFFFFF" height="38.291" style="stroke:#181818;stroke-width:1.0;" width="10" x="1707.5" y="1135.2246"/><rect fill="#FFFFFF" height="101.873" style="stroke:#181818;stroke-width:1.0;" width="10" x="1707.5" y="1284.0195"/><rect fill="#FFFFFF" height="38.291" style="stroke:#181818;stroke-width:1.0;" width="10" x="1707.5" y="1448.4746"/><rect fill="#FFFFFF" height="31.291" style="stroke:#181818;stroke-width:1.0;" width="10" x="2085.5" y="632.5684"/><rect fill="#FFFFFF" height="31.291" style="stroke:#181818;stroke-width:1.0;" width="10" x="2085.5" y="695.1504"/><rect fill="#FFFFFF" height="62.582" style="stroke:#181818;stroke-width:1.0;" width="10" x="2085.5" y="1072.6426"/><rect fill="#FFFFFF" height="62.582" style="stroke:#181818;stroke-width:1.0;" width="10" x="2085.5" y="1385.8926"/><rect fill="#FFFFFF" height="31.291" style="stroke:#181818;stroke-width:1.0;" width="10" x="2394.5" y="663.8594"/><polygon fill="#181818" points="215.5,112.9121,225.5,116.9121,215.5,120.9121,219.5,116.9121" style="stroke:#181818;stroke-width:1.0;"/><line style="stroke:#181818;stroke-width:1.0;" x1="71.5" x2="221.5" y1="116.9121" y2="116.9121"/><text fill="#000000" font-family="sans-serif" font-size="13" font-weight="bold" lengthAdjust="spacing" textLength="7" x="78.5" y="111.6494">1</text><text fill="#000000" font-family="sans-serif" font-size="13" lengthAdjust="spacing" textLength="126" x="89.5" y="111.6494">change joboffer phase</text><polygon fill="#181818" points="389.5,144.2031,399.5,148.2031,389.5,152.2031,393.5,148.2031" style="stroke:#181818;stroke-width:1.0;"/><line style="stroke:#181818;stroke-width:1.0;" x1="237.5" x2="395.5" y1="148.2031" y2="148.2031"/><text fill="#000000" font-family="sans-serif" font-size="13" font-weight="bold" lengthAdjust="spacing" textLength="7" x="244.5" y="142.9404">2</text><text fill="#000000" font-family="sans-serif" font-size="13" lengthAdjust="spacing" textLength="134" x="255.5" y="142.9404">changeJobOfferPhase()</text><polygon fill="#181818" points="676.5,175.4941,686.5,179.4941,676.5,183.4941,680.5,179.4941" style="stroke:#181818;stroke-width:1.0;"/><line style="stroke:#181818;stroke-width:1.0;" x1="411.5" x2="682.5" y1="179.4941" y2="179.4941"/><text fill="#000000" font-family="sans-serif" font-size="13" font-weight="bold" lengthAdjust="spacing" textLength="7" x="418.5" y="174.2314">3</text><text fill="#000000" font-family="sans-serif" font-size="13" lengthAdjust="spacing" textLength="44" x="429.5" y="174.2314">create()</text><path d="M573.5,194.4941 L984.5,194.4941 L984.5,203.7852 L974.5,213.7852 L573.5,213.7852 L573.5,194.4941 " fill="#EEEEEE" style="stroke:#000000;stroke-width:1.5;"/><rect fill="none" height="63.582" style="stroke:#000000;stroke-width:1.5;" width="416" x="573.5" y="194.4941"/><text fill="#000000" font-family="sans-serif" font-size="13" font-weight="bold" lengthAdjust="spacing" textLength="366" x="588.5" y="209.5225">Repository creation process (team-planning-decisions.md)</text><line style="stroke:#181818;stroke-width:1.0;" x1="698.5" x2="740.5" y1="237.0762" y2="237.0762"/><line style="stroke:#181818;stroke-width:1.0;" x1="740.5" x2="740.5" y1="237.0762" y2="250.0762"/><line style="stroke:#181818;stroke-width:1.0;" x1="699.5" x2="740.5" y1="250.0762" y2="250.0762"/><polygon fill="#181818" points="709.5,246.0762,699.5,250.0762,709.5,254.0762,705.5,250.0762" style="stroke:#181818;stroke-width:1.0;"/><text fill="#000000" font-family="sans-serif" font-size="13" font-weight="bold" lengthAdjust="spacing" textLength="7" x="705.5" y="231.8135">4</text><text fill="#000000" font-family="sans-serif" font-size="13" lengthAdjust="spacing" textLength="75" x="716.5" y="231.8135">repositories()</text><polygon fill="#181818" points="676.5,284.3672,686.5,288.3672,676.5,292.3672,680.5,288.3672" style="stroke:#181818;stroke-width:1.0;"/><line style="stroke:#181818;stroke-width:1.0;" x1="406.5" x2="682.5" y1="288.3672" y2="288.3672"/><text fill="#000000" font-family="sans-serif" font-size="13" font-weight="bold" lengthAdjust="spacing" textLength="7" x="413.5" y="283.1045">5</text><text fill="#000000" font-family="sans-serif" font-size="13" lengthAdjust="spacing" textLength="80" x="424.5" y="283.1045">getJobOffers()</text><polygon fill="#181818" points="1104.5,315.6582,1114.5,319.6582,1104.5,323.6582,1108.5,319.6582" style="stroke:#181818;stroke-width:1.0;"/><line style="stroke:#181818;stroke-width:1.0;" x1="693.5" x2="1110.5" y1="319.6582" y2="319.6582"/><text fill="#000000" font-family="sans-serif" font-size="13" font-weight="bold" lengthAdjust="spacing" textLength="7" x="700.5" y="314.3955">6</text><text fill="#000000" font-family="sans-serif" font-size="13" lengthAdjust="spacing" textLength="388" x="711.5" y="314.3955">loggedinUserWithPermissions(BaseRoles.CUSTOMERMANAGER)</text><polygon fill="#181818" points="709.5,346.9492,699.5,350.9492,709.5,354.9492,705.5,350.9492" style="stroke:#181818;stroke-width:1.0;"/><line style="stroke:#181818;stroke-width:1.0;" x1="703.5" x2="1120.5" y1="350.9492" y2="350.9492"/><text fill="#000000" font-family="sans-serif" font-size="13" font-weight="bold" lengthAdjust="spacing" textLength="7" x="715.5" y="345.6865">7</text><text fill="#000000" font-family="sans-serif" font-size="13" lengthAdjust="spacing" textLength="65" x="726.5" y="345.6865">loggedUser</text><polygon fill="#181818" points="1254.5,378.2402,1264.5,382.2402,1254.5,386.2402,1258.5,382.2402" style="stroke:#181818;stroke-width:1.0;"/><line style="stroke:#181818;stroke-width:1.0;" x1="693.5" x2="1260.5" y1="382.2402" y2="382.2402"/><text fill="#000000" font-family="sans-serif" font-size="13" font-weight="bold" lengthAdjust="spacing" textLength="7" x="700.5" y="376.9775">8</text><text fill="#000000" font-family="sans-serif" font-size="13" lengthAdjust="spacing" textLength="208" x="711.5" y="376.9775">getJobOffersOfManager(loggedUser)</text><polygon fill="#181818" points="1502.5,409.5313,1512.5,413.5313,1502.5,417.5313,1506.5,413.5313" style="stroke:#181818;stroke-width:1.0;"/><line style="stroke:#181818;stroke-width:1.0;" x1="1271.5" x2="1508.5" y1="413.5313" y2="413.5313"/><text fill="#000000" font-family="sans-serif" font-size="13" font-weight="bold" lengthAdjust="spacing" textLength="7" x="1278.5" y="408.2686">9</text><text fill="#000000" font-family="sans-serif" font-size="13" lengthAdjust="spacing" textLength="208" x="1289.5" y="408.2686">getJobOffersOfManager(loggedUser)</text><polygon fill="#181818" points="1287.5,440.8223,1277.5,444.8223,1287.5,448.8223,1283.5,444.8223" style="stroke:#181818;stroke-width:1.0;"/><line style="stroke:#181818;stroke-width:1.0;stroke-dasharray:2.0,2.0;" x1="1281.5" x2="1518.5" y1="444.8223" y2="444.8223"/><text fill="#000000" font-family="sans-serif" font-size="13" font-weight="bold" lengthAdjust="spacing" textLength="14" x="1293.5" y="439.5596">10</text><text fill="#000000" font-family="sans-serif" font-size="13" lengthAdjust="spacing" textLength="51" x="1311.5" y="439.5596">jobOffers</text><polygon fill="#181818" points="709.5,472.1133,699.5,476.1133,709.5,480.1133,705.5,476.1133" style="stroke:#181818;stroke-width:1.0;"/><line style="stroke:#181818;stroke-width:1.0;stroke-dasharray:2.0,2.0;" x1="703.5" x2="1270.5" y1="476.1133" y2="476.1133"/><text fill="#000000" font-family="sans-serif" font-size="13" font-weight="bold" lengthAdjust="spacing" textLength="14" x="715.5" y="470.8506">11</text><text fill="#000000" font-family="sans-serif" font-size="13" lengthAdjust="spacing" textLength="77" x="733.5" y="470.8506">jobOffersDTO</text><polygon fill="#181818" points="422.5,503.4043,412.5,507.4043,422.5,511.4043,418.5,507.4043" style="stroke:#181818;stroke-width:1.0;"/><line style="stroke:#181818;stroke-width:1.0;stroke-dasharray:2.0,2.0;" x1="416.5" x2="692.5" y1="507.4043" y2="507.4043"/><text fill="#000000" font-family="sans-serif" font-size="13" font-weight="bold" lengthAdjust="spacing" textLength="14" x="428.5" y="502.1416">12</text><text fill="#000000" font-family="sans-serif" font-size="13" lengthAdjust="spacing" textLength="77" x="446.5" y="502.1416">jobOffersDTO</text><polygon fill="#181818" points="82.5,534.6953,72.5,538.6953,82.5,542.6953,78.5,538.6953" style="stroke:#181818;stroke-width:1.0;"/><line style="stroke:#181818;stroke-width:1.0;stroke-dasharray:2.0,2.0;" x1="76.5" x2="405.5" y1="538.6953" y2="538.6953"/><text fill="#000000" font-family="sans-serif" font-size="13" font-weight="bold" lengthAdjust="spacing" textLength="14" x="88.5" y="533.4326">13</text><text fill="#000000" font-family="sans-serif" font-size="13" lengthAdjust="spacing" textLength="98" x="106.5" y="533.4326">requests jobOffer</text><polygon fill="#181818" points="389.5,565.9863,399.5,569.9863,389.5,573.9863,393.5,569.9863" style="stroke:#181818;stroke-width:1.0;"/><line style="stroke:#181818;stroke-width:1.0;" x1="71.5" x2="395.5" y1="569.9863" y2="569.9863"/><text fill="#000000" font-family="sans-serif" font-size="13" font-weight="bold" lengthAdjust="spacing" textLength="14" x="78.5" y="564.7236">14</text><text fill="#000000" font-family="sans-serif" font-size="13" lengthAdjust="spacing" textLength="90" x="96.5" y="564.7236">selects jobOffer</text><polygon fill="#181818" points="676.5,597.2773,686.5,601.2773,676.5,605.2773,680.5,601.2773" style="stroke:#181818;stroke-width:1.0;"/><line style="stroke:#181818;stroke-width:1.0;" x1="406.5" x2="682.5" y1="601.2773" y2="601.2773"/><text fill="#000000" font-family="sans-serif" font-size="13" font-weight="bold" lengthAdjust="spacing" textLength="14" x="413.5" y="596.0146">15</text><text fill="#000000" font-family="sans-serif" font-size="13" lengthAdjust="spacing" textLength="240" x="431.5" y="596.0146">getRecruitmentProcess(selectedJobOffer)</text><polygon fill="#181818" points="2073.5,628.5684,2083.5,632.5684,2073.5,636.5684,2077.5,632.5684" style="stroke:#181818;stroke-width:1.0;"/><line style="stroke:#181818;stroke-width:1.0;" x1="693.5" x2="2079.5" y1="632.5684" y2="632.5684"/><text fill="#000000" font-family="sans-serif" font-size="13" font-weight="bold" lengthAdjust="spacing" textLength="14" x="700.5" y="627.3057">16</text><text fill="#000000" font-family="sans-serif" font-size="13" lengthAdjust="spacing" textLength="262" x="718.5" y="627.3057">getRecruitmentProcessByRef(referenceCode)</text><polygon fill="#181818" points="2382.5,659.8594,2392.5,663.8594,2382.5,667.8594,2386.5,663.8594" style="stroke:#181818;stroke-width:1.0;"/><line style="stroke:#181818;stroke-width:1.0;" x1="2090.5" x2="2388.5" y1="663.8594" y2="663.8594"/><text fill="#000000" font-family="sans-serif" font-size="13" font-weight="bold" lengthAdjust="spacing" textLength="14" x="2097.5" y="658.5967">17</text><text fill="#000000" font-family="sans-serif" font-size="13" lengthAdjust="spacing" textLength="262" x="2115.5" y="658.5967">getRecruitmentProcessByRef(referenceCode)</text><polygon fill="#181818" points="2106.5,691.1504,2096.5,695.1504,2106.5,699.1504,2102.5,695.1504" style="stroke:#181818;stroke-width:1.0;"/><line style="stroke:#181818;stroke-width:1.0;stroke-dasharray:2.0,2.0;" x1="2100.5" x2="2398.5" y1="695.1504" y2="695.1504"/><text fill="#000000" font-family="sans-serif" font-size="13" font-weight="bold" lengthAdjust="spacing" textLength="14" x="2112.5" y="689.8877">18</text><text fill="#000000" font-family="sans-serif" font-size="13" lengthAdjust="spacing" textLength="113" x="2130.5" y="689.8877">recruitmentProcess</text><polygon fill="#181818" points="709.5,722.4414,699.5,726.4414,709.5,730.4414,705.5,726.4414" style="stroke:#181818;stroke-width:1.0;"/><line style="stroke:#181818;stroke-width:1.0;stroke-dasharray:2.0,2.0;" x1="703.5" x2="2089.5" y1="726.4414" y2="726.4414"/><text fill="#000000" font-family="sans-serif" font-size="13" font-weight="bold" lengthAdjust="spacing" textLength="14" x="715.5" y="721.1787">19</text><text fill="#000000" font-family="sans-serif" font-size="13" lengthAdjust="spacing" textLength="113" x="733.5" y="721.1787">recruitmentProcess</text><polygon fill="#181818" points="422.5,753.7324,412.5,757.7324,422.5,761.7324,418.5,757.7324" style="stroke:#181818;stroke-width:1.0;"/><line style="stroke:#181818;stroke-width:1.0;stroke-dasharray:2.0,2.0;" x1="416.5" x2="692.5" y1="757.7324" y2="757.7324"/><text fill="#000000" font-family="sans-serif" font-size="13" font-weight="bold" lengthAdjust="spacing" textLength="14" x="428.5" y="752.4697">20</text><text fill="#000000" font-family="sans-serif" font-size="13" lengthAdjust="spacing" textLength="113" x="446.5" y="752.4697">recruitmentProcess</text><line style="stroke:#181818;stroke-width:1.0;" x1="411.5" x2="453.5" y1="789.0234" y2="789.0234"/><line style="stroke:#181818;stroke-width:1.0;" x1="453.5" x2="453.5" y1="789.0234" y2="802.0234"/><line style="stroke:#181818;stroke-width:1.0;" x1="412.5" x2="453.5" y1="802.0234" y2="802.0234"/><polygon fill="#181818" points="422.5,798.0234,412.5,802.0234,422.5,806.0234,418.5,802.0234" style="stroke:#181818;stroke-width:1.0;"/><text fill="#000000" font-family="sans-serif" font-size="13" font-weight="bold" lengthAdjust="spacing" textLength="14" x="418.5" y="783.7607">21</text><text fill="#000000" font-family="sans-serif" font-size="13" lengthAdjust="spacing" textLength="240" x="436.5" y="783.7607">showAllJobOfferPhases(selectedJobOffer)</text><polygon fill="#181818" points="82.5,829.3145,72.5,833.3145,82.5,837.3145,78.5,833.3145" style="stroke:#181818;stroke-width:1.0;"/><line style="stroke:#181818;stroke-width:1.0;stroke-dasharray:2.0,2.0;" x1="76.5" x2="405.5" y1="833.3145" y2="833.3145"/><text fill="#000000" font-family="sans-serif" font-size="13" font-weight="bold" lengthAdjust="spacing" textLength="14" x="88.5" y="828.0518">22</text><text fill="#000000" font-family="sans-serif" font-size="13" lengthAdjust="spacing" textLength="206" x="106.5" y="828.0518">requests recruitmentProcess action</text><polygon fill="#181818" points="389.5,877.8965,399.5,881.8965,389.5,885.8965,393.5,881.8965" style="stroke:#181818;stroke-width:1.0;"/><line style="stroke:#181818;stroke-width:1.0;" x1="71.5" x2="395.5" y1="881.8965" y2="881.8965"/><text fill="#000000" font-family="sans-serif" font-size="13" font-weight="bold" lengthAdjust="spacing" textLength="14" x="78.5" y="867.9883">23</text><text fill="#000000" font-family="sans-serif" font-size="13" lengthAdjust="spacing" textLength="169" x="96.5" y="859.3428">selects if it wants to increase</text><text fill="#000000" font-family="sans-serif" font-size="13" lengthAdjust="spacing" textLength="107" x="96.5" y="876.6338">or decrease phase</text><path d="M311.5,896.8965 L372.5,896.8965 L372.5,906.1875 L362.5,916.1875 L311.5,916.1875 L311.5,896.8965 " fill="#EEEEEE" style="stroke:#000000;stroke-width:1.5;"/><rect fill="none" height="629.1602" style="stroke:#000000;stroke-width:1.5;" width="2212.5" x="311.5" y="896.8965"/><text fill="#000000" font-family="sans-serif" font-size="13" font-weight="bold" lengthAdjust="spacing" textLength="16" x="326.5" y="911.9248">alt</text><text fill="#000000" font-family="sans-serif" font-size="11" font-weight="bold" lengthAdjust="spacing" textLength="102" x="387.5" y="910.7666">[Increment phase]</text><polygon fill="#181818" points="676.5,935.4785,686.5,939.4785,676.5,943.4785,680.5,939.4785" style="stroke:#181818;stroke-width:1.0;"/><line style="stroke:#181818;stroke-width:1.0;" x1="406.5" x2="682.5" y1="939.4785" y2="939.4785"/><text fill="#000000" font-family="sans-serif" font-size="13" font-weight="bold" lengthAdjust="spacing" textLength="14" x="413.5" y="934.2158">24</text><text fill="#000000" font-family="sans-serif" font-size="13" lengthAdjust="spacing" textLength="198" x="431.5" y="934.2158">incrementPhase(selectedJobOffer)</text><polygon fill="#181818" points="1695.5,966.7695,1705.5,970.7695,1695.5,974.7695,1699.5,970.7695" style="stroke:#181818;stroke-width:1.0;"/><line style="stroke:#181818;stroke-width:1.0;" x1="693.5" x2="1701.5" y1="970.7695" y2="970.7695"/><text fill="#000000" font-family="sans-serif" font-size="13" font-weight="bold" lengthAdjust="spacing" textLength="14" x="700.5" y="965.5068">25</text><text fill="#000000" font-family="sans-serif" font-size="13" lengthAdjust="spacing" textLength="198" x="718.5" y="965.5068">incrementPhase(selectedJobOffer)</text><line style="stroke:#181818;stroke-width:1.0;" x1="1717.5" x2="1759.5" y1="1002.0605" y2="1002.0605"/><line style="stroke:#181818;stroke-width:1.0;" x1="1759.5" x2="1759.5" y1="1002.0605" y2="1015.0605"/><line style="stroke:#181818;stroke-width:1.0;" x1="1718.5" x2="1759.5" y1="1015.0605" y2="1015.0605"/><polygon fill="#181818" points="1728.5,1011.0605,1718.5,1015.0605,1728.5,1019.0605,1724.5,1015.0605" style="stroke:#181818;stroke-width:1.0;"/><text fill="#000000" font-family="sans-serif" font-size="13" font-weight="bold" lengthAdjust="spacing" textLength="14" x="1724.5" y="996.7979">26</text><text fill="#000000" font-family="sans-serif" font-size="13" lengthAdjust="spacing" textLength="121" x="1742.5" y="996.7979">checkIfIsLastPhase()</text><path d="M1587.5,1030.0605 L1648.5,1030.0605 L1648.5,1039.3516 L1638.5,1049.3516 L1587.5,1049.3516 L1587.5,1030.0605 " fill="#EEEEEE" style="stroke:#000000;stroke-width:1.5;"/><rect fill="none" height="113.1641" style="stroke:#000000;stroke-width:1.5;" width="926.5" x="1587.5" y="1030.0605"/><text fill="#000000" font-family="sans-serif" font-size="13" font-weight="bold" lengthAdjust="spacing" textLength="16" x="1602.5" y="1045.0889">alt</text><text fill="#000000" font-family="sans-serif" font-size="11" font-weight="bold" lengthAdjust="spacing" textLength="36" x="1663.5" y="1043.9307">[If not]</text><polygon fill="#181818" points="2073.5,1068.6426,2083.5,1072.6426,2073.5,1076.6426,2077.5,1072.6426" style="stroke:#181818;stroke-width:1.0;"/><line style="stroke:#181818;stroke-width:1.0;" x1="1712.5" x2="2079.5" y1="1072.6426" y2="1072.6426"/><text fill="#000000" font-family="sans-serif" font-size="13" font-weight="bold" lengthAdjust="spacing" textLength="14" x="1719.5" y="1067.3799">27</text><text fill="#000000" font-family="sans-serif" font-size="13" lengthAdjust="spacing" textLength="307" x="1737.5" y="1067.3799">updateCurrentPhase(recruitmentProcess, newPhase)</text><polygon fill="#181818" points="2387.5,1099.9336,2397.5,1103.9336,2387.5,1107.9336,2391.5,1103.9336" style="stroke:#181818;stroke-width:1.0;"/><line style="stroke:#181818;stroke-width:1.0;" x1="2095.5" x2="2393.5" y1="1103.9336" y2="1103.9336"/><text fill="#000000" font-family="sans-serif" font-size="13" font-weight="bold" lengthAdjust="spacing" textLength="14" x="2102.5" y="1098.6709">28</text><text fill="#000000" font-family="sans-serif" font-size="13" lengthAdjust="spacing" textLength="34" x="2120.5" y="1098.6709">save()</text><polygon fill="#181818" points="1728.5,1131.2246,1718.5,1135.2246,1728.5,1139.2246,1724.5,1135.2246" style="stroke:#181818;stroke-width:1.0;"/><line style="stroke:#181818;stroke-width:1.0;stroke-dasharray:2.0,2.0;" x1="1722.5" x2="2089.5" y1="1135.2246" y2="1135.2246"/><text fill="#000000" font-family="sans-serif" font-size="13" font-weight="bold" lengthAdjust="spacing" textLength="14" x="1734.5" y="1129.9619">29</text><text fill="#000000" font-family="sans-serif" font-size="13" lengthAdjust="spacing" textLength="104" x="1752.5" y="1129.9619">operationSuccess</text><polygon fill="#181818" points="709.5,1169.5156,699.5,1173.5156,709.5,1177.5156,705.5,1173.5156" style="stroke:#181818;stroke-width:1.0;"/><line style="stroke:#181818;stroke-width:1.0;stroke-dasharray:2.0,2.0;" x1="703.5" x2="1711.5" y1="1173.5156" y2="1173.5156"/><text fill="#000000" font-family="sans-serif" font-size="13" font-weight="bold" lengthAdjust="spacing" textLength="14" x="715.5" y="1168.2529">30</text><text fill="#000000" font-family="sans-serif" font-size="13" lengthAdjust="spacing" textLength="104" x="733.5" y="1168.2529">operationSuccess</text><polygon fill="#181818" points="422.5,1200.8066,412.5,1204.8066,422.5,1208.8066,418.5,1204.8066" style="stroke:#181818;stroke-width:1.0;"/><line style="stroke:#181818;stroke-width:1.0;" x1="416.5" x2="692.5" y1="1204.8066" y2="1204.8066"/><text fill="#000000" font-family="sans-serif" font-size="13" font-weight="bold" lengthAdjust="spacing" textLength="14" x="428.5" y="1199.5439">31</text><text fill="#000000" font-family="sans-serif" font-size="13" lengthAdjust="spacing" textLength="104" x="446.5" y="1199.5439">operationSuccess</text><line style="stroke:#000000;stroke-width:1.0;stroke-dasharray:2.0,2.0;" x1="311.5" x2="2524" y1="1213.8066" y2="1213.8066"/><text fill="#000000" font-family="sans-serif" font-size="11" font-weight="bold" lengthAdjust="spacing" textLength="106" x="316.5" y="1225.6768">[Decrement phase]</text><polygon fill="#181818" points="676.5,1248.7285,686.5,1252.7285,676.5,1256.7285,680.5,1252.7285" style="stroke:#181818;stroke-width:1.0;"/><line style="stroke:#181818;stroke-width:1.0;" x1="406.5" x2="682.5" y1="1252.7285" y2="1252.7285"/><text fill="#000000" font-family="sans-serif" font-size="13" font-weight="bold" lengthAdjust="spacing" textLength="14" x="413.5" y="1247.4658">32</text><text fill="#000000" font-family="sans-serif" font-size="13" lengthAdjust="spacing" textLength="194" x="431.5" y="1247.4658">decreasePhase(selectedJobOffer)</text><polygon fill="#181818" points="1695.5,1280.0195,1705.5,1284.0195,1695.5,1288.0195,1699.5,1284.0195" style="stroke:#181818;stroke-width:1.0;"/><line style="stroke:#181818;stroke-width:1.0;" x1="693.5" x2="1701.5" y1="1284.0195" y2="1284.0195"/><text fill="#000000" font-family="sans-serif" font-size="13" font-weight="bold" lengthAdjust="spacing" textLength="14" x="700.5" y="1278.7568">33</text><text fill="#000000" font-family="sans-serif" font-size="13" lengthAdjust="spacing" textLength="194" x="718.5" y="1278.7568">decreasePhase(selectedJobOffer)</text><line style="stroke:#181818;stroke-width:1.0;" x1="1717.5" x2="1759.5" y1="1315.3105" y2="1315.3105"/><line style="stroke:#181818;stroke-width:1.0;" x1="1759.5" x2="1759.5" y1="1315.3105" y2="1328.3105"/><line style="stroke:#181818;stroke-width:1.0;" x1="1718.5" x2="1759.5" y1="1328.3105" y2="1328.3105"/><polygon fill="#181818" points="1728.5,1324.3105,1718.5,1328.3105,1728.5,1332.3105,1724.5,1328.3105" style="stroke:#181818;stroke-width:1.0;"/><text fill="#000000" font-family="sans-serif" font-size="13" font-weight="bold" lengthAdjust="spacing" textLength="14" x="1724.5" y="1310.0479">34</text><text fill="#000000" font-family="sans-serif" font-size="13" lengthAdjust="spacing" textLength="202" x="1742.5" y="1310.0479">checkIfOperationsHaveBeenMade()</text><path d="M1587.5,1343.3105 L1648.5,1343.3105 L1648.5,1352.6016 L1638.5,1362.6016 L1587.5,1362.6016 L1587.5,1343.3105 " fill="#EEEEEE" style="stroke:#000000;stroke-width:1.5;"/><rect fill="none" height="113.1641" style="stroke:#000000;stroke-width:1.5;" width="926.5" x="1587.5" y="1343.3105"/><text fill="#000000" font-family="sans-serif" font-size="13" font-weight="bold" lengthAdjust="spacing" textLength="16" x="1602.5" y="1358.3389">alt</text><text fill="#000000" font-family="sans-serif" font-size="11" font-weight="bold" lengthAdjust="spacing" textLength="36" x="1663.5" y="1357.1807">[If not]</text><polygon fill="#181818" points="2073.5,1381.8926,2083.5,1385.8926,2073.5,1389.8926,2077.5,1385.8926" style="stroke:#181818;stroke-width:1.0;"/><line style="stroke:#181818;stroke-width:1.0;" x1="1712.5" x2="2079.5" y1="1385.8926" y2="1385.8926"/><text fill="#000000" font-family="sans-serif" font-size="13" font-weight="bold" lengthAdjust="spacing" textLength="14" x="1719.5" y="1380.6299">35</text><text fill="#000000" font-family="sans-serif" font-size="13" lengthAdjust="spacing" textLength="331" x="1737.5" y="1380.6299">updateCurrentPhase(recruitmentProcess, previousPhase)</text><polygon fill="#181818" points="2387.5,1413.1836,2397.5,1417.1836,2387.5,1421.1836,2391.5,1417.1836" style="stroke:#181818;stroke-width:1.0;"/><line style="stroke:#181818;stroke-width:1.0;" x1="2095.5" x2="2393.5" y1="1417.1836" y2="1417.1836"/><text fill="#000000" font-family="sans-serif" font-size="13" font-weight="bold" lengthAdjust="spacing" textLength="14" x="2102.5" y="1411.9209">36</text><text fill="#000000" font-family="sans-serif" font-size="13" lengthAdjust="spacing" textLength="34" x="2120.5" y="1411.9209">save()</text><polygon fill="#181818" points="1728.5,1444.4746,1718.5,1448.4746,1728.5,1452.4746,1724.5,1448.4746" style="stroke:#181818;stroke-width:1.0;"/><line style="stroke:#181818;stroke-width:1.0;stroke-dasharray:2.0,2.0;" x1="1722.5" x2="2089.5" y1="1448.4746" y2="1448.4746"/><text fill="#000000" font-family="sans-serif" font-size="13" font-weight="bold" lengthAdjust="spacing" textLength="14" x="1734.5" y="1443.2119">37</text><text fill="#000000" font-family="sans-serif" font-size="13" lengthAdjust="spacing" textLength="104" x="1752.5" y="1443.2119">operationSuccess</text><polygon fill="#181818" points="709.5,1482.7656,699.5,1486.7656,709.5,1490.7656,705.5,1486.7656" style="stroke:#181818;stroke-width:1.0;"/><line style="stroke:#181818;stroke-width:1.0;stroke-dasharray:2.0,2.0;" x1="703.5" x2="1711.5" y1="1486.7656" y2="1486.7656"/><text fill="#000000" font-family="sans-serif" font-size="13" font-weight="bold" lengthAdjust="spacing" textLength="14" x="715.5" y="1481.5029">38</text><text fill="#000000" font-family="sans-serif" font-size="13" lengthAdjust="spacing" textLength="104" x="733.5" y="1481.5029">operationSuccess</text><polygon fill="#181818" points="422.5,1514.0566,412.5,1518.0566,422.5,1522.0566,418.5,1518.0566" style="stroke:#181818;stroke-width:1.0;"/><line style="stroke:#181818;stroke-width:1.0;stroke-dasharray:2.0,2.0;" x1="416.5" x2="692.5" y1="1518.0566" y2="1518.0566"/><text fill="#000000" font-family="sans-serif" font-size="13" font-weight="bold" lengthAdjust="spacing" textLength="14" x="428.5" y="1512.7939">39</text><text fill="#000000" font-family="sans-serif" font-size="13" lengthAdjust="spacing" textLength="104" x="446.5" y="1512.7939">operationSuccess</text><polygon fill="#181818" points="77.5,1552.3477,67.5,1556.3477,77.5,1560.3477,73.5,1556.3477" style="stroke:#181818;stroke-width:1.0;"/><line style="stroke:#181818;stroke-width:1.0;stroke-dasharray:2.0,2.0;" x1="71.5" x2="405.5" y1="1556.3477" y2="1556.3477"/><text fill="#000000" font-family="sans-serif" font-size="13" font-weight="bold" lengthAdjust="spacing" textLength="14" x="83.5" y="1551.085">40</text><text fill="#000000" font-family="sans-serif" font-size="13" lengthAdjust="spacing" textLength="4" x="101.5" y="1551.085">&#160;</text><!--SRC=[xLd1Sfim4BtxAtGhdgcJUmwTSPnCuqvSPvnaUkb5XZLM2XALX3FfrrT0i049461tqanyYhrYzTxkic-bVDfA6OcBy_Cem5J6ON3cil1SmEyOg0iJZs2Vut0qmh5aD0xNmDNVhcGSpM8XMGXyWIdsrSyHvfAu959kghR7UTcwnTI7Rsozt6o0tssnWFOLCqObPq5GsMaQootZv0-MXD5xu3lYGcd1BH4oTsIovxOLH4mGHUobP5w1osCYGw3oZZCNX4ZHt63gLQ7eImy-y_NM3wHH9ZiiGGjqvJkQVD7ZZIwGcyOGFR4rI_YXAC4zGkfJvrab8J7hpf8TJ3dRxrBwtHcdRiex6LEUBpCxD-zwg8DaTmxAUs73jaqBLOGg7v-pE4A736JELLMXA4iESYJWS9AyA9HGV-A1IuIoYxFG6slkcg5RSECv4WB2qVq3zJB89Oi77Tdt3hqF-zUg2AyPG27dFJFL6bPJGr1m0-Rxu17wA83_879x1pma8asVSwcSh5W0ucpsUF-mN5ol5jFlqw_Ng_6ms6eqZSsgkjf8m28X6SE4d-QoWBmLmYboOkZ1bGfQRbwxZNEWSUpecvIWkjY4L17GHQ8p_We76p0bz0QTCgqt89tKPk0fXszqLK1hiVdmC5lK-1xmrSDoI7IFN-GD4baBkdD93vDJVKv8LKPDUaAAFKhxJcuQ5ff61G41kAQTJZqbg1TL7xMS30vu-NDlICCi9iawMfSlAzWu79JZP82VCG-EtKTjvjpgmpQCMeZtPbnXtGU-DN_Zausi9jRvvjggjhRT2UdfysirzBPo793AVzhsMwWSk_dtQfDPNzwovsaGb0nDxR6NlEZHI0ansa5lUcWDsI0YqRCwRGia6I8qETG9G3yfush7rs_PqRYh7k50eddYC25LE5uFrYkIEysEq_MPw2nM0ux7FKIhU5FIbTOWgMffPwKR7Bk6NQ9YGzRTWljhlfcBMonazLgaX3EfeWsYJ1hDVU6O12IEF1MGMSpvFWdwQ_aPKNXEZUDQG8qjk3MwHn6SumyN0k_gSjHLvLghWqN0inDuxDOA-H5dbw4lH7BPf0grTuLQD3tha0mhlW4TfS-DNYf6LjI6p-NDxHy29NHNS0AvocNqVQbL5rRlHAoMUPsA6zKBBm7e0dl_Zsv577Q4nU93l3x4wqEykZN4DwzUhpdiVWZjTgjNNAJzSxJUE1gD_W80]--></g></svg>