<?xml version="1.0" encoding="us-ascii" standalone="no"?><svg xmlns="http://www.w3.org/2000/svg" xmlns:xlink="http://www.w3.org/1999/xlink" contentStyleType="text/css" height="553px" preserveAspectRatio="none" style="width:671px;height:553px;background:#FFFFFF;" version="1.1" viewBox="0 0 671 553" width="671px" zoomAndPan="magnify"><defs/><g><!--cluster RecruitmentProcessAggregate--><g id="cluster_RecruitmentProcessAggregate"><path d="M117,6.0137 L334,6.0137 A3.75,3.75 0 0 1 336.5,8.5137 L343.5,30.6348 L662,30.6348 A2.5,2.5 0 0 1 664.5,33.1348 L664.5,543.5137 A2.5,2.5 0 0 1 662,546.0137 L117,546.0137 A2.5,2.5 0 0 1 114.5,543.5137 L114.5,8.5137 A2.5,2.5 0 0 1 117,6.0137 " fill="none" style="stroke:#000000;stroke-width:1.5;"/><line style="stroke:#000000;stroke-width:1.5;" x1="114.5" x2="343.5" y1="30.6348" y2="30.6348"/><text fill="#000000" font-family="sans-serif" font-size="14" font-weight="bold" lengthAdjust="spacing" textLength="216" x="118.5" y="23.1211">RecruitmentProcessAggregate</text></g><!--class RecruitmentProcess--><g id="elem_RecruitmentProcess"><rect codeLine="8" fill="#F1F1F1" height="66.6211" id="RecruitmentProcess" rx="2.5" ry="2.5" style="stroke:#181818;stroke-width:0.5;" width="159" x="199" y="43.0137"/><ellipse cx="214" cy="59.0137" fill="#ADD1B2" rx="11" ry="11" style="stroke:#181818;stroke-width:1.0;"/><path d="M212.8594,59.8105 L212.8594,62.3105 L217.1875,62.3105 L217.1875,61.3887 Q217.1875,60.7793 217.4219,60.5137 Q217.6719,60.248 218.0469,60.248 Q218.4219,60.248 218.6563,60.5137 Q218.8906,60.7793 218.8906,61.3887 L218.8906,64.0137 L210.8906,64.0137 Q210.2656,64.0137 210,63.7793 Q209.75,63.5449 209.75,63.1543 Q209.75,62.7793 210.0156,62.5449 Q210.2813,62.3105 210.8906,62.3105 L211.1563,62.3105 L211.1563,55.6543 L210.8906,55.6543 Q210.2656,55.6543 210,55.4199 Q209.75,55.1855 209.75,54.7949 Q209.75,54.4199 210,54.1855 Q210.2656,53.9512 210.8906,53.9512 L218.5156,53.9512 L218.5156,56.5449 Q218.5156,57.1543 218.2813,57.4199 Q218.0625,57.6699 217.6719,57.6699 Q217.2969,57.6699 217.0625,57.4199 Q216.8281,57.1543 216.8281,56.5449 L216.8281,55.6543 L212.8594,55.6543 L212.8594,58.1074 L214.3438,58.1074 Q214.3438,57.4512 214.4688,57.2637 Q214.7344,56.8574 215.2031,56.8574 Q215.5781,56.8574 215.8125,57.123 Q216.0469,57.373 216.0469,57.9824 L216.0469,59.9512 Q216.0469,60.498 215.9219,60.6855 Q215.6563,61.0762 215.2031,61.0762 Q214.7344,61.0762 214.4688,60.6699 Q214.3438,60.4824 214.3438,59.8105 L212.8594,59.8105 Z " fill="#000000"/><text fill="#000000" font-family="sans-serif" font-size="14" lengthAdjust="spacing" textLength="127" x="228" y="64.8105">RecruitmentProcess</text><line style="stroke:#181818;stroke-width:0.5;" x1="200" x2="357" y1="75.0137" y2="75.0137"/><text fill="#000000" font-family="sans-serif" font-size="14" lengthAdjust="spacing" textLength="79" x="205" y="94.1211">&#171;root entity&#187;</text><line style="stroke:#181818;stroke-width:0.5;" x1="200" x2="357" y1="101.6348" y2="101.6348"/></g><!--class CurrentPhase--><g id="elem_CurrentPhase"><rect codeLine="12" fill="#F1F1F1" height="60.582" id="CurrentPhase" rx="2.5" ry="2.5" style="stroke:#181818;stroke-width:0.5;" width="120" x="277.5" y="189.0137"/><ellipse cx="292.5" cy="211.3047" fill="#F04800" rx="11" ry="11" style="stroke:#181818;stroke-width:1.0;"/><path d="M293.0938,214.5703 L295.5625,208.6953 L295.1719,208.6953 Q294.5625,208.6953 294.2969,208.4609 Q294.0313,208.2266 294.0313,207.8359 Q294.0313,207.4609 294.2969,207.2266 Q294.5625,206.9922 295.1719,206.9922 L297.4531,206.9922 Q298.0625,206.9922 298.3281,207.2266 Q298.5938,207.4609 298.5938,207.8359 Q298.5938,208.3047 298.1875,208.5703 Q298,208.6953 297.4063,208.6953 L293.9219,217.0547 L292.2813,217.0547 L288.7969,208.6953 Q288.2031,208.6953 288.0156,208.5703 Q287.6094,208.3047 287.6094,207.8359 Q287.6094,207.4609 287.875,207.2266 Q288.1406,206.9922 288.75,206.9922 L291.0469,206.9922 Q291.6563,206.9922 291.9063,207.2266 Q292.1719,207.4609 292.1719,207.8359 Q292.1719,208.2266 291.9063,208.4609 Q291.6563,208.6953 291.0469,208.6953 L290.6406,208.6953 L293.0938,214.5703 Z " fill="#000000"/><text fill="#000000" font-family="sans-serif" font-size="12" font-style="italic" lengthAdjust="spacing" textLength="83" x="309" y="206.9629">&#171;value Object&#187;</text><text fill="#000000" font-family="sans-serif" font-size="14" lengthAdjust="spacing" textLength="88" x="306.5" y="225.082">CurrentPhase</text><line style="stroke:#181818;stroke-width:0.5;" x1="278.5" x2="396.5" y1="233.5957" y2="233.5957"/><line style="stroke:#181818;stroke-width:0.5;" x1="278.5" x2="396.5" y1="241.5957" y2="241.5957"/></g><!--class AllPhases--><g id="elem_AllPhases"><rect codeLine="13" fill="#F1F1F1" height="60.582" id="AllPhases" rx="2.5" ry="2.5" style="stroke:#181818;stroke-width:0.5;" width="111" x="131" y="189.0137"/><ellipse cx="146" cy="211.3047" fill="#F04800" rx="11" ry="11" style="stroke:#181818;stroke-width:1.0;"/><path d="M146.5938,214.5703 L149.0625,208.6953 L148.6719,208.6953 Q148.0625,208.6953 147.7969,208.4609 Q147.5313,208.2266 147.5313,207.8359 Q147.5313,207.4609 147.7969,207.2266 Q148.0625,206.9922 148.6719,206.9922 L150.9531,206.9922 Q151.5625,206.9922 151.8281,207.2266 Q152.0938,207.4609 152.0938,207.8359 Q152.0938,208.3047 151.6875,208.5703 Q151.5,208.6953 150.9063,208.6953 L147.4219,217.0547 L145.7813,217.0547 L142.2969,208.6953 Q141.7031,208.6953 141.5156,208.5703 Q141.1094,208.3047 141.1094,207.8359 Q141.1094,207.4609 141.375,207.2266 Q141.6406,206.9922 142.25,206.9922 L144.5469,206.9922 Q145.1563,206.9922 145.4063,207.2266 Q145.6719,207.4609 145.6719,207.8359 Q145.6719,208.2266 145.4063,208.4609 Q145.1563,208.6953 144.5469,208.6953 L144.1406,208.6953 L146.5938,214.5703 Z " fill="#000000"/><text fill="#000000" font-family="sans-serif" font-size="12" font-style="italic" lengthAdjust="spacing" textLength="83" x="158" y="206.9629">&#171;value Object&#187;</text><text fill="#000000" font-family="sans-serif" font-size="14" lengthAdjust="spacing" textLength="62" x="168.5" y="225.082">AllPhases</text><line style="stroke:#181818;stroke-width:0.5;" x1="132" x2="241" y1="233.5957" y2="233.5957"/><line style="stroke:#181818;stroke-width:0.5;" x1="132" x2="241" y1="241.5957" y2="241.5957"/></g><!--class RecruitmentPhase--><g id="elem_RecruitmentPhase"><rect codeLine="16" fill="#F1F1F1" height="60.582" id="RecruitmentPhase" rx="2.5" ry="2.5" style="stroke:#181818;stroke-width:0.5;" width="148" x="204.5" y="329.0137"/><ellipse cx="219.5" cy="351.3047" fill="#F04800" rx="11" ry="11" style="stroke:#181818;stroke-width:1.0;"/><path d="M220.0938,354.5703 L222.5625,348.6953 L222.1719,348.6953 Q221.5625,348.6953 221.2969,348.4609 Q221.0313,348.2266 221.0313,347.8359 Q221.0313,347.4609 221.2969,347.2266 Q221.5625,346.9922 222.1719,346.9922 L224.4531,346.9922 Q225.0625,346.9922 225.3281,347.2266 Q225.5938,347.4609 225.5938,347.8359 Q225.5938,348.3047 225.1875,348.5703 Q225,348.6953 224.4063,348.6953 L220.9219,357.0547 L219.2813,357.0547 L215.7969,348.6953 Q215.2031,348.6953 215.0156,348.5703 Q214.6094,348.3047 214.6094,347.8359 Q214.6094,347.4609 214.875,347.2266 Q215.1406,346.9922 215.75,346.9922 L218.0469,346.9922 Q218.6563,346.9922 218.9063,347.2266 Q219.1719,347.4609 219.1719,347.8359 Q219.1719,348.2266 218.9063,348.4609 Q218.6563,348.6953 218.0469,348.6953 L217.6406,348.6953 L220.0938,354.5703 Z " fill="#000000"/><text fill="#000000" font-family="sans-serif" font-size="12" font-style="italic" lengthAdjust="spacing" textLength="83" x="250" y="346.9629">&#171;value Object&#187;</text><text fill="#000000" font-family="sans-serif" font-size="14" lengthAdjust="spacing" textLength="116" x="233.5" y="365.082">RecruitmentPhase</text><line style="stroke:#181818;stroke-width:0.5;" x1="205.5" x2="351.5" y1="373.5957" y2="373.5957"/><line style="stroke:#181818;stroke-width:0.5;" x1="205.5" x2="351.5" y1="381.5957" y2="381.5957"/></g><!--class RecruitmentProcessRefCode--><g id="elem_RecruitmentProcessRefCode"><rect codeLine="17" fill="#F1F1F1" height="60.582" id="RecruitmentProcessRefCode" rx="2.5" ry="2.5" style="stroke:#181818;stroke-width:0.5;" width="215" x="433" y="189.0137"/><ellipse cx="448" cy="211.3047" fill="#F09000" rx="11" ry="11" style="stroke:#181818;stroke-width:1.0;"/><path d="M448.5938,214.5703 L451.0625,208.6953 L450.6719,208.6953 Q450.0625,208.6953 449.7969,208.4609 Q449.5313,208.2266 449.5313,207.8359 Q449.5313,207.4609 449.7969,207.2266 Q450.0625,206.9922 450.6719,206.9922 L452.9531,206.9922 Q453.5625,206.9922 453.8281,207.2266 Q454.0938,207.4609 454.0938,207.8359 Q454.0938,208.3047 453.6875,208.5703 Q453.5,208.6953 452.9063,208.6953 L449.4219,217.0547 L447.7813,217.0547 L444.2969,208.6953 Q443.7031,208.6953 443.5156,208.5703 Q443.1094,208.3047 443.1094,207.8359 Q443.1094,207.4609 443.375,207.2266 Q443.6406,206.9922 444.25,206.9922 L446.5469,206.9922 Q447.1563,206.9922 447.4063,207.2266 Q447.6719,207.4609 447.6719,207.8359 Q447.6719,208.2266 447.4063,208.4609 Q447.1563,208.6953 446.5469,208.6953 L446.1406,208.6953 L448.5938,214.5703 Z " fill="#000000"/><text fill="#000000" font-family="sans-serif" font-size="12" font-style="italic" lengthAdjust="spacing" textLength="134" x="486.5" y="206.9629">&#171;Identifier value Object&#187;</text><text fill="#000000" font-family="sans-serif" font-size="14" lengthAdjust="spacing" textLength="183" x="462" y="225.082">RecruitmentProcessRefCode</text><line style="stroke:#181818;stroke-width:0.5;" x1="434" x2="647" y1="233.5957" y2="233.5957"/><line style="stroke:#181818;stroke-width:0.5;" x1="434" x2="647" y1="241.5957" y2="241.5957"/></g><!--class RecruitmentPhaseName--><g id="elem_RecruitmentPhaseName"><rect codeLine="18" fill="#F1F1F1" height="60.582" id="RecruitmentPhaseName" rx="2.5" ry="2.5" style="stroke:#181818;stroke-width:0.5;" width="184" x="458.5" y="329.0137"/><ellipse cx="473.5" cy="351.3047" fill="#F04800" rx="11" ry="11" style="stroke:#181818;stroke-width:1.0;"/><path d="M474.0938,354.5703 L476.5625,348.6953 L476.1719,348.6953 Q475.5625,348.6953 475.2969,348.4609 Q475.0313,348.2266 475.0313,347.8359 Q475.0313,347.4609 475.2969,347.2266 Q475.5625,346.9922 476.1719,346.9922 L478.4531,346.9922 Q479.0625,346.9922 479.3281,347.2266 Q479.5938,347.4609 479.5938,347.8359 Q479.5938,348.3047 479.1875,348.5703 Q479,348.6953 478.4063,348.6953 L474.9219,357.0547 L473.2813,357.0547 L469.7969,348.6953 Q469.2031,348.6953 469.0156,348.5703 Q468.6094,348.3047 468.6094,347.8359 Q468.6094,347.4609 468.875,347.2266 Q469.1406,346.9922 469.75,346.9922 L472.0469,346.9922 Q472.6563,346.9922 472.9063,347.2266 Q473.1719,347.4609 473.1719,347.8359 Q473.1719,348.2266 472.9063,348.4609 Q472.6563,348.6953 472.0469,348.6953 L471.6406,348.6953 L474.0938,354.5703 Z " fill="#000000"/><text fill="#000000" font-family="sans-serif" font-size="12" font-style="italic" lengthAdjust="spacing" textLength="83" x="522" y="346.9629">&#171;value Object&#187;</text><text fill="#000000" font-family="sans-serif" font-size="14" lengthAdjust="spacing" textLength="152" x="487.5" y="365.082">RecruitmentPhaseName</text><line style="stroke:#181818;stroke-width:0.5;" x1="459.5" x2="641.5" y1="373.5957" y2="373.5957"/><line style="stroke:#181818;stroke-width:0.5;" x1="459.5" x2="641.5" y1="381.5957" y2="381.5957"/></g><!--class RecruitmentPhaseDescription--><g id="elem_RecruitmentPhaseDescription"><rect codeLine="19" fill="#F1F1F1" height="60.582" id="RecruitmentPhaseDescription" rx="2.5" ry="2.5" style="stroke:#181818;stroke-width:0.5;" width="219" x="142" y="469.0137"/><ellipse cx="157" cy="491.3047" fill="#F04800" rx="11" ry="11" style="stroke:#181818;stroke-width:1.0;"/><path d="M157.5938,494.5703 L160.0625,488.6953 L159.6719,488.6953 Q159.0625,488.6953 158.7969,488.4609 Q158.5313,488.2266 158.5313,487.8359 Q158.5313,487.4609 158.7969,487.2266 Q159.0625,486.9922 159.6719,486.9922 L161.9531,486.9922 Q162.5625,486.9922 162.8281,487.2266 Q163.0938,487.4609 163.0938,487.8359 Q163.0938,488.3047 162.6875,488.5703 Q162.5,488.6953 161.9063,488.6953 L158.4219,497.0547 L156.7813,497.0547 L153.2969,488.6953 Q152.7031,488.6953 152.5156,488.5703 Q152.1094,488.3047 152.1094,487.8359 Q152.1094,487.4609 152.375,487.2266 Q152.6406,486.9922 153.25,486.9922 L155.5469,486.9922 Q156.1563,486.9922 156.4063,487.2266 Q156.6719,487.4609 156.6719,487.8359 Q156.6719,488.2266 156.4063,488.4609 Q156.1563,488.6953 155.5469,488.6953 L155.1406,488.6953 L157.5938,494.5703 Z " fill="#000000"/><text fill="#000000" font-family="sans-serif" font-size="12" font-style="italic" lengthAdjust="spacing" textLength="83" x="223" y="486.9629">&#171;value Object&#187;</text><text fill="#000000" font-family="sans-serif" font-size="14" lengthAdjust="spacing" textLength="187" x="171" y="505.082">RecruitmentPhaseDescription</text><line style="stroke:#181818;stroke-width:0.5;" x1="143" x2="360" y1="513.5957" y2="513.5957"/><line style="stroke:#181818;stroke-width:0.5;" x1="143" x2="360" y1="521.5957" y2="521.5957"/></g><!--class RecruitmentPhaseTimeFrame--><g id="elem_RecruitmentPhaseTimeFrame"><rect codeLine="20" fill="#F1F1F1" height="60.582" id="RecruitmentPhaseTimeFrame" rx="2.5" ry="2.5" style="stroke:#181818;stroke-width:0.5;" width="220" x="396.5" y="469.0137"/><ellipse cx="411.5" cy="491.3047" fill="#F04800" rx="11" ry="11" style="stroke:#181818;stroke-width:1.0;"/><path d="M412.0938,494.5703 L414.5625,488.6953 L414.1719,488.6953 Q413.5625,488.6953 413.2969,488.4609 Q413.0313,488.2266 413.0313,487.8359 Q413.0313,487.4609 413.2969,487.2266 Q413.5625,486.9922 414.1719,486.9922 L416.4531,486.9922 Q417.0625,486.9922 417.3281,487.2266 Q417.5938,487.4609 417.5938,487.8359 Q417.5938,488.3047 417.1875,488.5703 Q417,488.6953 416.4063,488.6953 L412.9219,497.0547 L411.2813,497.0547 L407.7969,488.6953 Q407.2031,488.6953 407.0156,488.5703 Q406.6094,488.3047 406.6094,487.8359 Q406.6094,487.4609 406.875,487.2266 Q407.1406,486.9922 407.75,486.9922 L410.0469,486.9922 Q410.6563,486.9922 410.9063,487.2266 Q411.1719,487.4609 411.1719,487.8359 Q411.1719,488.2266 410.9063,488.4609 Q410.6563,488.6953 410.0469,488.6953 L409.6406,488.6953 L412.0938,494.5703 Z " fill="#000000"/><text fill="#000000" font-family="sans-serif" font-size="12" font-style="italic" lengthAdjust="spacing" textLength="83" x="478" y="486.9629">&#171;value Object&#187;</text><text fill="#000000" font-family="sans-serif" font-size="14" lengthAdjust="spacing" textLength="188" x="425.5" y="505.082">RecruitmentPhaseTimeFrame</text><line style="stroke:#181818;stroke-width:0.5;" x1="397.5" x2="615.5" y1="513.5957" y2="513.5957"/><line style="stroke:#181818;stroke-width:0.5;" x1="397.5" x2="615.5" y1="521.5957" y2="521.5957"/></g><!--class JobOffer--><g id="elem_JobOffer"><rect codeLine="2" fill="#F1F1F1" height="66.6211" id="JobOffer" rx="2.5" ry="2.5" style="stroke:#181818;stroke-width:0.5;" width="91" x="7" y="43.0137"/><ellipse cx="24.25" cy="59.0137" fill="#ADD1B2" rx="11" ry="11" style="stroke:#181818;stroke-width:1.0;"/><path d="M23.1094,59.8105 L23.1094,62.3105 L27.4375,62.3105 L27.4375,61.3887 Q27.4375,60.7793 27.6719,60.5137 Q27.9219,60.248 28.2969,60.248 Q28.6719,60.248 28.9063,60.5137 Q29.1406,60.7793 29.1406,61.3887 L29.1406,64.0137 L21.1406,64.0137 Q20.5156,64.0137 20.25,63.7793 Q20,63.5449 20,63.1543 Q20,62.7793 20.2656,62.5449 Q20.5313,62.3105 21.1406,62.3105 L21.4063,62.3105 L21.4063,55.6543 L21.1406,55.6543 Q20.5156,55.6543 20.25,55.4199 Q20,55.1855 20,54.7949 Q20,54.4199 20.25,54.1855 Q20.5156,53.9512 21.1406,53.9512 L28.7656,53.9512 L28.7656,56.5449 Q28.7656,57.1543 28.5313,57.4199 Q28.3125,57.6699 27.9219,57.6699 Q27.5469,57.6699 27.3125,57.4199 Q27.0781,57.1543 27.0781,56.5449 L27.0781,55.6543 L23.1094,55.6543 L23.1094,58.1074 L24.5938,58.1074 Q24.5938,57.4512 24.7188,57.2637 Q24.9844,56.8574 25.4531,56.8574 Q25.8281,56.8574 26.0625,57.123 Q26.2969,57.373 26.2969,57.9824 L26.2969,59.9512 Q26.2969,60.498 26.1719,60.6855 Q25.9063,61.0762 25.4531,61.0762 Q24.9844,61.0762 24.7188,60.6699 Q24.5938,60.4824 24.5938,59.8105 L23.1094,59.8105 Z " fill="#000000"/><text fill="#000000" font-family="sans-serif" font-size="14" lengthAdjust="spacing" textLength="54" x="38.75" y="64.8105">JobOffer</text><line style="stroke:#181818;stroke-width:0.5;" x1="8" x2="97" y1="75.0137" y2="75.0137"/><text fill="#000000" font-family="sans-serif" font-size="14" lengthAdjust="spacing" textLength="79" x="13" y="94.1211">&#171;root entity&#187;</text><line style="stroke:#181818;stroke-width:0.5;" x1="8" x2="97" y1="101.6348" y2="101.6348"/></g><!--link JobOffer to RecruitmentProcess--><g id="link_JobOffer_RecruitmentProcess"><path codeLine="23" d="M98.23,76.5137 C127.13,76.5137 159.24,76.5137 192.98,76.5137 " fill="none" id="JobOffer-to-RecruitmentProcess" style="stroke:#181818;stroke-width:1.0;"/><polygon fill="#181818" points="198.98,76.5137,189.98,72.5137,193.98,76.5137,189.98,80.5137,198.98,76.5137" style="stroke:#181818;stroke-width:1.0;"/><text fill="#000000" font-family="sans-serif" font-size="13" lengthAdjust="spacing" textLength="53" x="122" y="69.542">executes</text><text fill="#000000" font-family="sans-serif" font-size="13" lengthAdjust="spacing" textLength="7" x="106.076" y="72.2407">1</text><text fill="#000000" font-family="sans-serif" font-size="13" lengthAdjust="spacing" textLength="7" x="184.0672" y="72.7638">1</text></g><!--link RecruitmentProcess to CurrentPhase--><g id="link_RecruitmentProcess_CurrentPhase"><path codeLine="25" d="M292.18,110.2137 C302.12,133.9737 315.47,165.8537 325.1,188.8737 " fill="none" id="RecruitmentProcess-CurrentPhase" style="stroke:#181818;stroke-width:1.0;"/><polygon fill="#000000" points="318.4303,154.2715,317.6494,144.7931,312.2273,147.0623,318.4303,154.2715" style="stroke:#000000;stroke-width:1.0;"/><text fill="#000000" font-family="sans-serif" font-size="13" lengthAdjust="spacing" textLength="49" x="325.5" y="155.042">contains</text><text fill="#000000" font-family="sans-serif" font-size="13" lengthAdjust="spacing" textLength="7" x="286.9297" y="131.5527">1</text><text fill="#000000" font-family="sans-serif" font-size="13" lengthAdjust="spacing" textLength="5" x="317.0269" y="177.9025">*</text></g><!--link RecruitmentProcess to AllPhases--><g id="link_RecruitmentProcess_AllPhases"><path codeLine="26" d="M254.15,110.2337 C247.3,119.7237 239.97,130.1837 233.5,140.0137 C223.11,155.8037 212.23,173.8837 203.55,188.7037 " fill="none" id="RecruitmentProcess-AllPhases" style="stroke:#181818;stroke-width:1.0;"/><polygon fill="#000000" points="235.7903,153.8613,243.1621,147.8523,238.2222,144.6669,235.7903,153.8613" style="stroke:#000000;stroke-width:1.0;"/><text fill="#000000" font-family="sans-serif" font-size="13" lengthAdjust="spacing" textLength="49" x="247.5" y="155.042">contains</text><text fill="#000000" font-family="sans-serif" font-size="13" lengthAdjust="spacing" textLength="7" x="242.3633" y="131.5761">1</text><text fill="#000000" font-family="sans-serif" font-size="13" lengthAdjust="spacing" textLength="5" x="201.5509" y="177.6974">*</text></g><!--link CurrentPhase to RecruitmentPhase--><g id="link_CurrentPhase_RecruitmentPhase"><path codeLine="27" d="M324.84,250.1137 C314.89,273.4037 301.09,305.6837 291.14,328.9537 " fill="none" id="CurrentPhase-RecruitmentPhase" style="stroke:#181818;stroke-width:1.0;stroke-dasharray:7.0,7.0;"/><polygon fill="#000000" points="318.4652,285.0616,312.2077,292.2236,317.6125,294.5338,318.4652,285.0616" style="stroke:#000000;stroke-width:1.0;"/><text fill="#000000" font-family="sans-serif" font-size="13" lengthAdjust="spacing" textLength="56" x="325.5" y="295.042">describes</text><text fill="#000000" font-family="sans-serif" font-size="13" lengthAdjust="spacing" textLength="7" x="314.7595" y="271.663">1</text><text fill="#000000" font-family="sans-serif" font-size="13" lengthAdjust="spacing" textLength="7" x="286.1394" y="317.5152">1</text></g><!--link AllPhases to RecruitmentPhase--><g id="link_AllPhases_RecruitmentPhase"><path codeLine="28" d="M198.5,250.3137 C205.2,265.4637 214.25,283.8337 224.5,299.0137 C231.45,309.3037 240.09,319.6337 248.41,328.7237 " fill="none" id="AllPhases-RecruitmentPhase" style="stroke:#181818;stroke-width:1.0;stroke-dasharray:7.0,7.0;"/><polygon fill="#000000" points="226.8151,285.4412,229.1928,294.6497,234.1514,291.4935,226.8151,285.4412" style="stroke:#000000;stroke-width:1.0;"/><text fill="#000000" font-family="sans-serif" font-size="13" lengthAdjust="spacing" textLength="56" x="238.5" y="295.042">describes</text><text fill="#000000" font-family="sans-serif" font-size="13" lengthAdjust="spacing" textLength="7" x="193.0672" y="271.6533">1</text><text fill="#000000" font-family="sans-serif" font-size="13" lengthAdjust="spacing" textLength="7" x="234.4821" y="317.7215">1</text></g><!--link RecruitmentProcess to RecruitmentProcessRefCode--><g id="link_RecruitmentProcess_RecruitmentProcessRefCode"><path codeLine="29" d="M338.94,110.0437 C383.06,133.7837 442.42,165.7337 485.28,188.7937 " fill="none" id="RecruitmentProcess-RecruitmentProcessRefCode" style="stroke:#181818;stroke-width:1.0;"/><polygon fill="#000000" points="425.097,147.2898,431.6694,154.164,434.4548,148.988,425.097,147.2898" style="stroke:#000000;stroke-width:1.0;"/><text fill="#000000" font-family="sans-serif" font-size="13" lengthAdjust="spacing" textLength="51" x="438.5" y="155.042">identifies</text><text fill="#000000" font-family="sans-serif" font-size="13" lengthAdjust="spacing" textLength="7" x="342.0824" y="131.6183">1</text><text fill="#000000" font-family="sans-serif" font-size="13" lengthAdjust="spacing" textLength="7" x="466.169" y="177.806">1</text></g><!--link RecruitmentPhase to RecruitmentPhaseName--><g id="link_RecruitmentPhase_RecruitmentPhaseName"><path codeLine="30" d="M352.83,359.5137 C385.38,359.5137 423.93,359.5137 458.29,359.5137 " fill="none" id="RecruitmentPhase-RecruitmentPhaseName" style="stroke:#181818;stroke-width:1.0;"/><polygon fill="#000000" points="370,347.1592,379.0451,350.0981,379.0451,344.2203,370,347.1592" style="stroke:#000000;stroke-width:1.0;"/><text fill="#000000" font-family="sans-serif" font-size="13" lengthAdjust="spacing" textLength="56" x="384" y="352.542">describes</text><text fill="#000000" font-family="sans-serif" font-size="13" lengthAdjust="spacing" textLength="7" x="360.4914" y="355.7402">1</text><text fill="#000000" font-family="sans-serif" font-size="13" lengthAdjust="spacing" textLength="7" x="443.364" y="355.8674">1</text></g><!--link RecruitmentPhase to RecruitmentPhaseDescription--><g id="link_RecruitmentPhase_RecruitmentPhaseDescription"><path codeLine="31" d="M272.71,390.1137 C268.15,413.4037 261.84,445.6837 257.28,468.9537 " fill="none" id="RecruitmentPhase-RecruitmentPhaseDescription" style="stroke:#181818;stroke-width:1.0;"/><polygon fill="#000000" points="272.4603,424.7523,267.8389,433.0645,273.6073,434.1934,272.4603,424.7523" style="stroke:#000000;stroke-width:1.0;"/><text fill="#000000" font-family="sans-serif" font-size="13" lengthAdjust="spacing" textLength="56" x="280.5" y="435.042">describes</text><text fill="#000000" font-family="sans-serif" font-size="13" lengthAdjust="spacing" textLength="7" x="263.9391" y="411.663">1</text><text fill="#000000" font-family="sans-serif" font-size="13" lengthAdjust="spacing" textLength="7" x="250.7788" y="457.5152">1</text></g><!--link RecruitmentPhase to RecruitmentPhaseTimeFrame--><g id="link_RecruitmentPhase_RecruitmentPhaseTimeFrame"><path codeLine="32" d="M327.41,390.1137 C365.88,413.4037 419.22,445.6837 457.67,468.9537 " fill="none" id="RecruitmentPhase-RecruitmentPhaseTimeFrame" style="stroke:#181818;stroke-width:1.0;"/><polygon fill="#000000" points="406.2225,427.0702,412.4388,434.268,415.4824,429.2394,406.2225,427.0702" style="stroke:#000000;stroke-width:1.0;"/><text fill="#000000" font-family="sans-serif" font-size="13" lengthAdjust="spacing" textLength="56" x="419.5" y="435.042">describes</text><text fill="#000000" font-family="sans-serif" font-size="13" lengthAdjust="spacing" textLength="7" x="329.0663" y="411.663">1</text><text fill="#000000" font-family="sans-serif" font-size="13" lengthAdjust="spacing" textLength="7" x="439.2228" y="457.5152">1</text></g><!--SRC=[dP9VJy8m5CNV-obkweiQPcRYWova2PcOw8CGOdmlvMvKnqhQpcW8tzsk2YkmCMKl-tT_vvpUd65XXFc29paTfIagM17ulVfz9QK1T0DnxBwl2Hap_iuoX0boLGgpiF_7IdBKUf1b2ZDcS4NSyF17-d3GCpbYLDsIdDdnf5IgekTCevq-V-sTfU7DRHXUm0VBIuJHz0svYMDOhJriaESEqPsCR-R7_QVXuKadc2PoLclSXPN6uwmwQohikdVbMjMg8CziSJpCKVeUDLTYQOGiJXTv4GjyK7_8OLUwRHIzfX0eaSrD4BkNXa94GF4JUMbGKq8Q1fn80FIIxhOX0YuBmqIX8UxWwZgqGaxI8UNooZticStS5gVO3VfkRTHUniRLR1eKWTYqnlQvnVn0OziRFqGRtOpxnJbTfMxEhWRv1W00]--></g></svg>