<?xml version="1.0" encoding="us-ascii" standalone="no"?><svg xmlns="http://www.w3.org/2000/svg" xmlns:xlink="http://www.w3.org/1999/xlink" contentStyleType="text/css" height="1098px" preserveAspectRatio="none" style="width:875px;height:1098px;background:#FFFFFF;" version="1.1" viewBox="0 0 875 1098" width="875px" zoomAndPan="magnify"><defs/><g><!--class CustomerManagerUI--><g id="elem_CustomerManagerUI"><rect codeLine="2" fill="#F1F1F1" height="66.6211" id="CustomerManagerUI" rx="2.5" ry="2.5" style="stroke:#181818;stroke-width:0.5;" width="177" x="362.5" y="7"/><ellipse cx="384.7" cy="23" fill="#ADD1B2" rx="11" ry="11" style="stroke:#181818;stroke-width:1.0;"/><path d="M387.4656,18.875 Q387.6219,18.6563 387.8094,18.5469 Q387.9969,18.4375 388.2156,18.4375 Q388.5906,18.4375 388.825,18.7031 Q389.0594,18.9531 389.0594,19.5625 L389.0594,21.0156 Q389.0594,21.625 388.825,21.8906 Q388.5906,22.1563 388.2156,22.1563 Q387.8719,22.1563 387.6688,21.9531 Q387.4656,21.7656 387.3563,21.25 Q387.3094,20.8906 387.1219,20.7031 Q386.7938,20.3281 386.1844,20.1094 Q385.575,19.8906 384.95,19.8906 Q384.1844,19.8906 383.5438,20.2188 Q382.9188,20.5469 382.4188,21.2969 Q381.9344,22.0469 381.9344,23.0781 L381.9344,24.1719 Q381.9344,25.4063 382.825,26.2344 Q383.7156,27.0469 385.3094,27.0469 Q386.2469,27.0469 386.9031,26.7969 Q387.2938,26.6406 387.7156,26.2031 Q387.9813,25.9375 388.1219,25.8594 Q388.2781,25.7813 388.4813,25.7813 Q388.8094,25.7813 389.0594,26.0469 Q389.325,26.2969 389.325,26.6406 Q389.325,26.9844 388.9813,27.3906 Q388.4813,27.9688 387.6844,28.2969 Q386.6063,28.75 385.3094,28.75 Q383.7938,28.75 382.5906,28.125 Q381.6063,27.625 380.9188,26.5625 Q380.2313,25.4844 380.2313,24.2031 L380.2313,23.0469 Q380.2313,21.7188 380.8406,20.5781 Q381.4656,19.4219 382.5594,18.8125 Q383.6531,18.1875 384.8875,18.1875 Q385.6219,18.1875 386.2625,18.3594 Q386.9188,18.5156 387.4656,18.875 Z " fill="#000000"/><text fill="#000000" font-family="sans-serif" font-size="14" lengthAdjust="spacing" textLength="129" x="400.3" y="28.7969">CustomerManagerUI</text><line style="stroke:#181818;stroke-width:0.5;" x1="363.5" x2="538.5" y1="39" y2="39"/><line style="stroke:#181818;stroke-width:0.5;" x1="363.5" x2="538.5" y1="47" y2="47"/><ellipse cx="373.5" cy="61.8105" fill="#84BE84" rx="3" ry="3" style="stroke:#038048;stroke-width:1.0;"/><text fill="#000000" font-family="sans-serif" font-size="14" lengthAdjust="spacing" textLength="151" x="382.5" y="66.1074">changeJobOfferPhase()</text></g><!--class ChangeJobOfferPhaseUI--><g id="elem_ChangeJobOfferPhaseUI"><rect codeLine="7" fill="#F1F1F1" height="48" id="ChangeJobOfferPhaseUI" rx="2.5" ry="2.5" style="stroke:#181818;stroke-width:0.5;" width="188" x="357" y="135"/><ellipse cx="372" cy="151" fill="#ADD1B2" rx="11" ry="11" style="stroke:#181818;stroke-width:1.0;"/><path d="M374.7656,146.875 Q374.9219,146.6563 375.1094,146.5469 Q375.2969,146.4375 375.5156,146.4375 Q375.8906,146.4375 376.125,146.7031 Q376.3594,146.9531 376.3594,147.5625 L376.3594,149.0156 Q376.3594,149.625 376.125,149.8906 Q375.8906,150.1563 375.5156,150.1563 Q375.1719,150.1563 374.9688,149.9531 Q374.7656,149.7656 374.6563,149.25 Q374.6094,148.8906 374.4219,148.7031 Q374.0938,148.3281 373.4844,148.1094 Q372.875,147.8906 372.25,147.8906 Q371.4844,147.8906 370.8438,148.2188 Q370.2188,148.5469 369.7188,149.2969 Q369.2344,150.0469 369.2344,151.0781 L369.2344,152.1719 Q369.2344,153.4063 370.125,154.2344 Q371.0156,155.0469 372.6094,155.0469 Q373.5469,155.0469 374.2031,154.7969 Q374.5938,154.6406 375.0156,154.2031 Q375.2813,153.9375 375.4219,153.8594 Q375.5781,153.7813 375.7813,153.7813 Q376.1094,153.7813 376.3594,154.0469 Q376.625,154.2969 376.625,154.6406 Q376.625,154.9844 376.2813,155.3906 Q375.7813,155.9688 374.9844,156.2969 Q373.9063,156.75 372.6094,156.75 Q371.0938,156.75 369.8906,156.125 Q368.9063,155.625 368.2188,154.5625 Q367.5313,153.4844 367.5313,152.2031 L367.5313,151.0469 Q367.5313,149.7188 368.1406,148.5781 Q368.7656,147.4219 369.8594,146.8125 Q370.9531,146.1875 372.1875,146.1875 Q372.9219,146.1875 373.5625,146.3594 Q374.2188,146.5156 374.7656,146.875 Z " fill="#000000"/><text fill="#000000" font-family="sans-serif" font-size="14" lengthAdjust="spacing" textLength="156" x="386" y="156.7969">ChangeJobOfferPhaseUI</text><line style="stroke:#181818;stroke-width:0.5;" x1="358" x2="544" y1="167" y2="167"/><line style="stroke:#181818;stroke-width:0.5;" x1="358" x2="544" y1="175" y2="175"/></g><!--class ChangeJobOfferPhaseController--><g id="elem_ChangeJobOfferPhaseController"><rect codeLine="11" fill="#F1F1F1" height="103.8633" id="ChangeJobOfferPhaseController" rx="2.5" ry="2.5" style="stroke:#181818;stroke-width:0.5;" width="238" x="332" y="244"/><ellipse cx="347" cy="260" fill="#ADD1B2" rx="11" ry="11" style="stroke:#181818;stroke-width:1.0;"/><path d="M349.7656,255.875 Q349.9219,255.6563 350.1094,255.5469 Q350.2969,255.4375 350.5156,255.4375 Q350.8906,255.4375 351.125,255.7031 Q351.3594,255.9531 351.3594,256.5625 L351.3594,258.0156 Q351.3594,258.625 351.125,258.8906 Q350.8906,259.1563 350.5156,259.1563 Q350.1719,259.1563 349.9688,258.9531 Q349.7656,258.7656 349.6563,258.25 Q349.6094,257.8906 349.4219,257.7031 Q349.0938,257.3281 348.4844,257.1094 Q347.875,256.8906 347.25,256.8906 Q346.4844,256.8906 345.8438,257.2188 Q345.2188,257.5469 344.7188,258.2969 Q344.2344,259.0469 344.2344,260.0781 L344.2344,261.1719 Q344.2344,262.4063 345.125,263.2344 Q346.0156,264.0469 347.6094,264.0469 Q348.5469,264.0469 349.2031,263.7969 Q349.5938,263.6406 350.0156,263.2031 Q350.2813,262.9375 350.4219,262.8594 Q350.5781,262.7813 350.7813,262.7813 Q351.1094,262.7813 351.3594,263.0469 Q351.625,263.2969 351.625,263.6406 Q351.625,263.9844 351.2813,264.3906 Q350.7813,264.9688 349.9844,265.2969 Q348.9063,265.75 347.6094,265.75 Q346.0938,265.75 344.8906,265.125 Q343.9063,264.625 343.2188,263.5625 Q342.5313,262.4844 342.5313,261.2031 L342.5313,260.0469 Q342.5313,258.7188 343.1406,257.5781 Q343.7656,256.4219 344.8594,255.8125 Q345.9531,255.1875 347.1875,255.1875 Q347.9219,255.1875 348.5625,255.3594 Q349.2188,255.5156 349.7656,255.875 Z " fill="#000000"/><text fill="#000000" font-family="sans-serif" font-size="14" lengthAdjust="spacing" textLength="206" x="361" y="265.7969">ChangeJobOfferPhaseController</text><line style="stroke:#181818;stroke-width:0.5;" x1="333" x2="569" y1="276" y2="276"/><line style="stroke:#181818;stroke-width:0.5;" x1="333" x2="569" y1="284" y2="284"/><ellipse cx="343" cy="298.8105" fill="#84BE84" rx="3" ry="3" style="stroke:#038048;stroke-width:1.0;"/><text fill="#000000" font-family="sans-serif" font-size="14" lengthAdjust="spacing" textLength="91" x="352" y="303.1074">getJobOffers()</text><ellipse cx="343" cy="317.4316" fill="#84BE84" rx="3" ry="3" style="stroke:#038048;stroke-width:1.0;"/><text fill="#000000" font-family="sans-serif" font-size="14" lengthAdjust="spacing" textLength="112" x="352" y="321.7285">incrementPhase()</text><ellipse cx="343" cy="336.0527" fill="#84BE84" rx="3" ry="3" style="stroke:#038048;stroke-width:1.0;"/><text fill="#000000" font-family="sans-serif" font-size="14" lengthAdjust="spacing" textLength="109" x="352" y="340.3496">decreasePhase()</text></g><!--class PersistenceContext--><g id="elem_PersistenceContext"><rect codeLine="17" fill="#F1F1F1" height="66.6211" id="PersistenceContext" rx="2.5" ry="2.5" style="stroke:#181818;stroke-width:0.5;" width="154" x="472" y="445.5"/><ellipse cx="487" cy="461.5" fill="#ADD1B2" rx="11" ry="11" style="stroke:#181818;stroke-width:1.0;"/><path d="M489.7656,457.375 Q489.9219,457.1563 490.1094,457.0469 Q490.2969,456.9375 490.5156,456.9375 Q490.8906,456.9375 491.125,457.2031 Q491.3594,457.4531 491.3594,458.0625 L491.3594,459.5156 Q491.3594,460.125 491.125,460.3906 Q490.8906,460.6563 490.5156,460.6563 Q490.1719,460.6563 489.9688,460.4531 Q489.7656,460.2656 489.6563,459.75 Q489.6094,459.3906 489.4219,459.2031 Q489.0938,458.8281 488.4844,458.6094 Q487.875,458.3906 487.25,458.3906 Q486.4844,458.3906 485.8438,458.7188 Q485.2188,459.0469 484.7188,459.7969 Q484.2344,460.5469 484.2344,461.5781 L484.2344,462.6719 Q484.2344,463.9063 485.125,464.7344 Q486.0156,465.5469 487.6094,465.5469 Q488.5469,465.5469 489.2031,465.2969 Q489.5938,465.1406 490.0156,464.7031 Q490.2813,464.4375 490.4219,464.3594 Q490.5781,464.2813 490.7813,464.2813 Q491.1094,464.2813 491.3594,464.5469 Q491.625,464.7969 491.625,465.1406 Q491.625,465.4844 491.2813,465.8906 Q490.7813,466.4688 489.9844,466.7969 Q488.9063,467.25 487.6094,467.25 Q486.0938,467.25 484.8906,466.625 Q483.9063,466.125 483.2188,465.0625 Q482.5313,463.9844 482.5313,462.7031 L482.5313,461.5469 Q482.5313,460.2188 483.1406,459.0781 Q483.7656,457.9219 484.8594,457.3125 Q485.9531,456.6875 487.1875,456.6875 Q487.9219,456.6875 488.5625,456.8594 Q489.2188,457.0156 489.7656,457.375 Z " fill="#000000"/><text fill="#000000" font-family="sans-serif" font-size="14" lengthAdjust="spacing" textLength="122" x="501" y="467.2969">PersistenceContext</text><line style="stroke:#181818;stroke-width:0.5;" x1="473" x2="625" y1="477.5" y2="477.5"/><line style="stroke:#181818;stroke-width:0.5;" x1="473" x2="625" y1="485.5" y2="485.5"/><ellipse cx="483" cy="500.3105" fill="#84BE84" rx="3" ry="3" style="stroke:#038048;stroke-width:1.0;"/><text fill="#000000" font-family="sans-serif" font-size="14" lengthAdjust="spacing" textLength="84" x="492" y="504.6074">repositories()</text></g><!--class RepositoryFactory--><g id="elem_RepositoryFactory"><rect codeLine="21" fill="#F1F1F1" height="178.3477" id="RepositoryFactory" rx="2.5" ry="2.5" style="stroke:#181818;stroke-width:0.5;" width="286" x="423" y="658"/><ellipse cx="503.75" cy="674" fill="#ADD1B2" rx="11" ry="11" style="stroke:#181818;stroke-width:1.0;"/><path d="M506.5156,669.875 Q506.6719,669.6563 506.8594,669.5469 Q507.0469,669.4375 507.2656,669.4375 Q507.6406,669.4375 507.875,669.7031 Q508.1094,669.9531 508.1094,670.5625 L508.1094,672.0156 Q508.1094,672.625 507.875,672.8906 Q507.6406,673.1563 507.2656,673.1563 Q506.9219,673.1563 506.7188,672.9531 Q506.5156,672.7656 506.4063,672.25 Q506.3594,671.8906 506.1719,671.7031 Q505.8438,671.3281 505.2344,671.1094 Q504.625,670.8906 504,670.8906 Q503.2344,670.8906 502.5938,671.2188 Q501.9688,671.5469 501.4688,672.2969 Q500.9844,673.0469 500.9844,674.0781 L500.9844,675.1719 Q500.9844,676.4063 501.875,677.2344 Q502.7656,678.0469 504.3594,678.0469 Q505.2969,678.0469 505.9531,677.7969 Q506.3438,677.6406 506.7656,677.2031 Q507.0313,676.9375 507.1719,676.8594 Q507.3281,676.7813 507.5313,676.7813 Q507.8594,676.7813 508.1094,677.0469 Q508.375,677.2969 508.375,677.6406 Q508.375,677.9844 508.0313,678.3906 Q507.5313,678.9688 506.7344,679.2969 Q505.6563,679.75 504.3594,679.75 Q502.8438,679.75 501.6406,679.125 Q500.6563,678.625 499.9688,677.5625 Q499.2813,676.4844 499.2813,675.2031 L499.2813,674.0469 Q499.2813,672.7188 499.8906,671.5781 Q500.5156,670.4219 501.6094,669.8125 Q502.7031,669.1875 503.9375,669.1875 Q504.6719,669.1875 505.3125,669.3594 Q505.9688,669.5156 506.5156,669.875 Z " fill="#000000"/><text fill="#000000" font-family="sans-serif" font-size="14" lengthAdjust="spacing" textLength="116" x="524.25" y="679.7969">RepositoryFactory</text><line style="stroke:#181818;stroke-width:0.5;" x1="424" x2="708" y1="690" y2="690"/><line style="stroke:#181818;stroke-width:0.5;" x1="424" x2="708" y1="698" y2="698"/><ellipse cx="434" cy="712.8105" fill="#84BE84" rx="3" ry="3" style="stroke:#038048;stroke-width:1.0;"/><text fill="#000000" font-family="sans-serif" font-size="14" lengthAdjust="spacing" textLength="173" x="443" y="717.1074">newTransactionalContext();</text><ellipse cx="434" cy="731.4316" fill="#84BE84" rx="3" ry="3" style="stroke:#038048;stroke-width:1.0;"/><text fill="#000000" font-family="sans-serif" font-size="14" lengthAdjust="spacing" textLength="230" x="443" y="735.7285">users(TransactionalContext autoTx);</text><ellipse cx="434" cy="750.0527" fill="#84BE84" rx="3" ry="3" style="stroke:#038048;stroke-width:1.0;"/><text fill="#000000" font-family="sans-serif" font-size="14" lengthAdjust="spacing" textLength="49" x="443" y="754.3496">users();</text><ellipse cx="434" cy="768.6738" fill="#84BE84" rx="3" ry="3" style="stroke:#038048;stroke-width:1.0;"/><text fill="#000000" font-family="sans-serif" font-size="14" lengthAdjust="spacing" textLength="253" x="443" y="772.9707">jobOffers(TransactionalContext autoTx);</text><ellipse cx="434" cy="787.2949" fill="#84BE84" rx="3" ry="3" style="stroke:#038048;stroke-width:1.0;"/><text fill="#000000" font-family="sans-serif" font-size="14" lengthAdjust="spacing" textLength="72" x="443" y="791.5918">jobOffers();</text><ellipse cx="434" cy="805.916" fill="#84BE84" rx="3" ry="3" style="stroke:#038048;stroke-width:1.0;"/><text fill="#000000" font-family="sans-serif" font-size="14" lengthAdjust="spacing" textLength="260" x="443" y="810.2129">processes(TransactionalContext autoTx);</text><ellipse cx="434" cy="824.5371" fill="#84BE84" rx="3" ry="3" style="stroke:#038048;stroke-width:1.0;"/><text fill="#000000" font-family="sans-serif" font-size="14" lengthAdjust="spacing" textLength="79" x="443" y="828.834">processes();</text></g><!--class AuthorizationService--><g id="elem_AuthorizationService"><rect codeLine="32" fill="#F1F1F1" height="66.6211" id="AuthorizationService" rx="2.5" ry="2.5" style="stroke:#181818;stroke-width:0.5;" width="223" x="645.5" y="561"/><ellipse cx="688.4" cy="577" fill="#ADD1B2" rx="11" ry="11" style="stroke:#181818;stroke-width:1.0;"/><path d="M691.1656,572.875 Q691.3219,572.6563 691.5094,572.5469 Q691.6969,572.4375 691.9156,572.4375 Q692.2906,572.4375 692.525,572.7031 Q692.7594,572.9531 692.7594,573.5625 L692.7594,575.0156 Q692.7594,575.625 692.525,575.8906 Q692.2906,576.1563 691.9156,576.1563 Q691.5719,576.1563 691.3688,575.9531 Q691.1656,575.7656 691.0563,575.25 Q691.0094,574.8906 690.8219,574.7031 Q690.4938,574.3281 689.8844,574.1094 Q689.275,573.8906 688.65,573.8906 Q687.8844,573.8906 687.2438,574.2188 Q686.6188,574.5469 686.1188,575.2969 Q685.6344,576.0469 685.6344,577.0781 L685.6344,578.1719 Q685.6344,579.4063 686.525,580.2344 Q687.4156,581.0469 689.0094,581.0469 Q689.9469,581.0469 690.6031,580.7969 Q690.9938,580.6406 691.4156,580.2031 Q691.6813,579.9375 691.8219,579.8594 Q691.9781,579.7813 692.1813,579.7813 Q692.5094,579.7813 692.7594,580.0469 Q693.025,580.2969 693.025,580.6406 Q693.025,580.9844 692.6813,581.3906 Q692.1813,581.9688 691.3844,582.2969 Q690.3063,582.75 689.0094,582.75 Q687.4938,582.75 686.2906,582.125 Q685.3063,581.625 684.6188,580.5625 Q683.9313,579.4844 683.9313,578.2031 L683.9313,577.0469 Q683.9313,575.7188 684.5406,574.5781 Q685.1656,573.4219 686.2594,572.8125 Q687.3531,572.1875 688.5875,572.1875 Q689.3219,572.1875 689.9625,572.3594 Q690.6188,572.5156 691.1656,572.875 Z " fill="#000000"/><text fill="#000000" font-family="sans-serif" font-size="14" lengthAdjust="spacing" textLength="129" x="708.6" y="582.7969">AuthorizationService</text><line style="stroke:#181818;stroke-width:0.5;" x1="646.5" x2="867.5" y1="593" y2="593"/><line style="stroke:#181818;stroke-width:0.5;" x1="646.5" x2="867.5" y1="601" y2="601"/><ellipse cx="656.5" cy="615.8105" fill="#84BE84" rx="3" ry="3" style="stroke:#038048;stroke-width:1.0;"/><text fill="#000000" font-family="sans-serif" font-size="14" lengthAdjust="spacing" textLength="197" x="665.5" y="620.1074">loggedinUserWithPermissions()</text></g><!--class ListJobOfferService--><g id="elem_ListJobOfferService"><rect codeLine="36" fill="#F1F1F1" height="66.6211" id="ListJobOfferService" rx="2.5" ry="2.5" style="stroke:#181818;stroke-width:0.5;" width="188" x="7" y="866"/><ellipse cx="36.85" cy="882" fill="#ADD1B2" rx="11" ry="11" style="stroke:#181818;stroke-width:1.0;"/><path d="M39.6156,877.875 Q39.7719,877.6563 39.9594,877.5469 Q40.1469,877.4375 40.3656,877.4375 Q40.7406,877.4375 40.975,877.7031 Q41.2094,877.9531 41.2094,878.5625 L41.2094,880.0156 Q41.2094,880.625 40.975,880.8906 Q40.7406,881.1563 40.3656,881.1563 Q40.0219,881.1563 39.8188,880.9531 Q39.6156,880.7656 39.5063,880.25 Q39.4594,879.8906 39.2719,879.7031 Q38.9438,879.3281 38.3344,879.1094 Q37.725,878.8906 37.1,878.8906 Q36.3344,878.8906 35.6938,879.2188 Q35.0688,879.5469 34.5688,880.2969 Q34.0844,881.0469 34.0844,882.0781 L34.0844,883.1719 Q34.0844,884.4063 34.975,885.2344 Q35.8656,886.0469 37.4594,886.0469 Q38.3969,886.0469 39.0531,885.7969 Q39.4438,885.6406 39.8656,885.2031 Q40.1313,884.9375 40.2719,884.8594 Q40.4281,884.7813 40.6313,884.7813 Q40.9594,884.7813 41.2094,885.0469 Q41.475,885.2969 41.475,885.6406 Q41.475,885.9844 41.1313,886.3906 Q40.6313,886.9688 39.8344,887.2969 Q38.7563,887.75 37.4594,887.75 Q35.9438,887.75 34.7406,887.125 Q33.7563,886.625 33.0688,885.5625 Q32.3813,884.4844 32.3813,883.2031 L32.3813,882.0469 Q32.3813,880.7188 32.9906,879.5781 Q33.6156,878.4219 34.7094,877.8125 Q35.8031,877.1875 37.0375,877.1875 Q37.7719,877.1875 38.4125,877.3594 Q39.0688,877.5156 39.6156,877.875 Z " fill="#000000"/><text fill="#000000" font-family="sans-serif" font-size="14" lengthAdjust="spacing" textLength="123" x="54.15" y="887.7969">ListJobOfferService</text><line style="stroke:#181818;stroke-width:0.5;" x1="8" x2="194" y1="898" y2="898"/><line style="stroke:#181818;stroke-width:0.5;" x1="8" x2="194" y1="906" y2="906"/><ellipse cx="18" cy="920.8105" fill="#84BE84" rx="3" ry="3" style="stroke:#038048;stroke-width:1.0;"/><text fill="#000000" font-family="sans-serif" font-size="14" lengthAdjust="spacing" textLength="162" x="27" y="925.1074">getJobOffersOfManager()</text></g><!--class RecruitmentProcessPhaseHandler--><g id="elem_RecruitmentProcessPhaseHandler"><rect codeLine="40" fill="#F1F1F1" height="103.8633" id="RecruitmentProcessPhaseHandler" rx="2.5" ry="2.5" style="stroke:#181818;stroke-width:0.5;" width="248" x="171" y="427"/><ellipse cx="186" cy="443" fill="#ADD1B2" rx="11" ry="11" style="stroke:#181818;stroke-width:1.0;"/><path d="M188.7656,438.875 Q188.9219,438.6563 189.1094,438.5469 Q189.2969,438.4375 189.5156,438.4375 Q189.8906,438.4375 190.125,438.7031 Q190.3594,438.9531 190.3594,439.5625 L190.3594,441.0156 Q190.3594,441.625 190.125,441.8906 Q189.8906,442.1563 189.5156,442.1563 Q189.1719,442.1563 188.9688,441.9531 Q188.7656,441.7656 188.6563,441.25 Q188.6094,440.8906 188.4219,440.7031 Q188.0938,440.3281 187.4844,440.1094 Q186.875,439.8906 186.25,439.8906 Q185.4844,439.8906 184.8438,440.2188 Q184.2188,440.5469 183.7188,441.2969 Q183.2344,442.0469 183.2344,443.0781 L183.2344,444.1719 Q183.2344,445.4063 184.125,446.2344 Q185.0156,447.0469 186.6094,447.0469 Q187.5469,447.0469 188.2031,446.7969 Q188.5938,446.6406 189.0156,446.2031 Q189.2813,445.9375 189.4219,445.8594 Q189.5781,445.7813 189.7813,445.7813 Q190.1094,445.7813 190.3594,446.0469 Q190.625,446.2969 190.625,446.6406 Q190.625,446.9844 190.2813,447.3906 Q189.7813,447.9688 188.9844,448.2969 Q187.9063,448.75 186.6094,448.75 Q185.0938,448.75 183.8906,448.125 Q182.9063,447.625 182.2188,446.5625 Q181.5313,445.4844 181.5313,444.2031 L181.5313,443.0469 Q181.5313,441.7188 182.1406,440.5781 Q182.7656,439.4219 183.8594,438.8125 Q184.9531,438.1875 186.1875,438.1875 Q186.9219,438.1875 187.5625,438.3594 Q188.2188,438.5156 188.7656,438.875 Z " fill="#000000"/><text fill="#000000" font-family="sans-serif" font-size="14" lengthAdjust="spacing" textLength="216" x="200" y="448.7969">RecruitmentProcessPhaseHandler</text><line style="stroke:#181818;stroke-width:0.5;" x1="172" x2="418" y1="459" y2="459"/><line style="stroke:#181818;stroke-width:0.5;" x1="172" x2="418" y1="467" y2="467"/><ellipse cx="182" cy="481.8105" fill="#84BE84" rx="3" ry="3" style="stroke:#038048;stroke-width:1.0;"/><text fill="#000000" font-family="sans-serif" font-size="14" lengthAdjust="spacing" textLength="112" x="191" y="486.1074">incrementPhase()</text><ellipse cx="182" cy="500.4316" fill="#84BE84" rx="3" ry="3" style="stroke:#038048;stroke-width:1.0;"/><text fill="#000000" font-family="sans-serif" font-size="14" lengthAdjust="spacing" textLength="109" x="191" y="504.7285">decreasePhase()</text><ellipse cx="182" cy="519.0527" fill="#84BE84" rx="3" ry="3" style="stroke:#038048;stroke-width:1.0;"/><text fill="#000000" font-family="sans-serif" font-size="14" lengthAdjust="spacing" textLength="142" x="191" y="523.3496">updateCurrentPhase()</text></g><!--class RecruitmentProcessRepositoryHandler--><g id="elem_RecruitmentProcessRepositoryHandler"><rect codeLine="46" fill="#F1F1F1" height="66.6211" id="RecruitmentProcessRepositoryHandler" rx="2.5" ry="2.5" style="stroke:#181818;stroke-width:0.5;" width="276" x="112" y="713.5"/><ellipse cx="127" cy="729.5" fill="#ADD1B2" rx="11" ry="11" style="stroke:#181818;stroke-width:1.0;"/><path d="M129.7656,725.375 Q129.9219,725.1563 130.1094,725.0469 Q130.2969,724.9375 130.5156,724.9375 Q130.8906,724.9375 131.125,725.2031 Q131.3594,725.4531 131.3594,726.0625 L131.3594,727.5156 Q131.3594,728.125 131.125,728.3906 Q130.8906,728.6563 130.5156,728.6563 Q130.1719,728.6563 129.9688,728.4531 Q129.7656,728.2656 129.6563,727.75 Q129.6094,727.3906 129.4219,727.2031 Q129.0938,726.8281 128.4844,726.6094 Q127.875,726.3906 127.25,726.3906 Q126.4844,726.3906 125.8438,726.7188 Q125.2188,727.0469 124.7188,727.7969 Q124.2344,728.5469 124.2344,729.5781 L124.2344,730.6719 Q124.2344,731.9063 125.125,732.7344 Q126.0156,733.5469 127.6094,733.5469 Q128.5469,733.5469 129.2031,733.2969 Q129.5938,733.1406 130.0156,732.7031 Q130.2813,732.4375 130.4219,732.3594 Q130.5781,732.2813 130.7813,732.2813 Q131.1094,732.2813 131.3594,732.5469 Q131.625,732.7969 131.625,733.1406 Q131.625,733.4844 131.2813,733.8906 Q130.7813,734.4688 129.9844,734.7969 Q128.9063,735.25 127.6094,735.25 Q126.0938,735.25 124.8906,734.625 Q123.9063,734.125 123.2188,733.0625 Q122.5313,731.9844 122.5313,730.7031 L122.5313,729.5469 Q122.5313,728.2188 123.1406,727.0781 Q123.7656,725.9219 124.8594,725.3125 Q125.9531,724.6875 127.1875,724.6875 Q127.9219,724.6875 128.5625,724.8594 Q129.2188,725.0156 129.7656,725.375 Z " fill="#000000"/><text fill="#000000" font-family="sans-serif" font-size="14" lengthAdjust="spacing" textLength="244" x="141" y="735.2969">RecruitmentProcessRepositoryHandler</text><line style="stroke:#181818;stroke-width:0.5;" x1="113" x2="387" y1="745.5" y2="745.5"/><line style="stroke:#181818;stroke-width:0.5;" x1="113" x2="387" y1="753.5" y2="753.5"/><ellipse cx="123" cy="768.3105" fill="#84BE84" rx="3" ry="3" style="stroke:#038048;stroke-width:1.0;"/><text fill="#000000" font-family="sans-serif" font-size="14" lengthAdjust="spacing" textLength="195" x="132" y="772.6074">getRecruitmentProcessByRef()</text></g><!--class JobOfferRepository--><g id="elem_JobOfferRepository"><rect codeLine="50" fill="#F1F1F1" height="48" id="JobOfferRepository" rx="2.5" ry="2.5" style="stroke:#181818;stroke-width:0.5;" width="154" x="87" y="1043"/><ellipse cx="102" cy="1059" fill="#ADD1B2" rx="11" ry="11" style="stroke:#181818;stroke-width:1.0;"/><path d="M104.7656,1054.875 Q104.9219,1054.6563 105.1094,1054.5469 Q105.2969,1054.4375 105.5156,1054.4375 Q105.8906,1054.4375 106.125,1054.7031 Q106.3594,1054.9531 106.3594,1055.5625 L106.3594,1057.0156 Q106.3594,1057.625 106.125,1057.8906 Q105.8906,1058.1563 105.5156,1058.1563 Q105.1719,1058.1563 104.9688,1057.9531 Q104.7656,1057.7656 104.6563,1057.25 Q104.6094,1056.8906 104.4219,1056.7031 Q104.0938,1056.3281 103.4844,1056.1094 Q102.875,1055.8906 102.25,1055.8906 Q101.4844,1055.8906 100.8438,1056.2188 Q100.2188,1056.5469 99.7188,1057.2969 Q99.2344,1058.0469 99.2344,1059.0781 L99.2344,1060.1719 Q99.2344,1061.4063 100.125,1062.2344 Q101.0156,1063.0469 102.6094,1063.0469 Q103.5469,1063.0469 104.2031,1062.7969 Q104.5938,1062.6406 105.0156,1062.2031 Q105.2813,1061.9375 105.4219,1061.8594 Q105.5781,1061.7813 105.7813,1061.7813 Q106.1094,1061.7813 106.3594,1062.0469 Q106.625,1062.2969 106.625,1062.6406 Q106.625,1062.9844 106.2813,1063.3906 Q105.7813,1063.9688 104.9844,1064.2969 Q103.9063,1064.75 102.6094,1064.75 Q101.0938,1064.75 99.8906,1064.125 Q98.9063,1063.625 98.2188,1062.5625 Q97.5313,1061.4844 97.5313,1060.2031 L97.5313,1059.0469 Q97.5313,1057.7188 98.1406,1056.5781 Q98.7656,1055.4219 99.8594,1054.8125 Q100.9531,1054.1875 102.1875,1054.1875 Q102.9219,1054.1875 103.5625,1054.3594 Q104.2188,1054.5156 104.7656,1054.875 Z " fill="#000000"/><text fill="#000000" font-family="sans-serif" font-size="14" lengthAdjust="spacing" textLength="122" x="116" y="1064.7969">JobOfferRepository</text><line style="stroke:#181818;stroke-width:0.5;" x1="88" x2="240" y1="1075" y2="1075"/><line style="stroke:#181818;stroke-width:0.5;" x1="88" x2="240" y1="1083" y2="1083"/></g><!--class UserRepository--><g id="elem_UserRepository"><rect codeLine="54" fill="#F1F1F1" height="48" id="UserRepository" rx="2.5" ry="2.5" style="stroke:#181818;stroke-width:0.5;" width="129" x="661.5" y="1043"/><ellipse cx="676.5" cy="1059" fill="#ADD1B2" rx="11" ry="11" style="stroke:#181818;stroke-width:1.0;"/><path d="M679.2656,1054.875 Q679.4219,1054.6563 679.6094,1054.5469 Q679.7969,1054.4375 680.0156,1054.4375 Q680.3906,1054.4375 680.625,1054.7031 Q680.8594,1054.9531 680.8594,1055.5625 L680.8594,1057.0156 Q680.8594,1057.625 680.625,1057.8906 Q680.3906,1058.1563 680.0156,1058.1563 Q679.6719,1058.1563 679.4688,1057.9531 Q679.2656,1057.7656 679.1563,1057.25 Q679.1094,1056.8906 678.9219,1056.7031 Q678.5938,1056.3281 677.9844,1056.1094 Q677.375,1055.8906 676.75,1055.8906 Q675.9844,1055.8906 675.3438,1056.2188 Q674.7188,1056.5469 674.2188,1057.2969 Q673.7344,1058.0469 673.7344,1059.0781 L673.7344,1060.1719 Q673.7344,1061.4063 674.625,1062.2344 Q675.5156,1063.0469 677.1094,1063.0469 Q678.0469,1063.0469 678.7031,1062.7969 Q679.0938,1062.6406 679.5156,1062.2031 Q679.7813,1061.9375 679.9219,1061.8594 Q680.0781,1061.7813 680.2813,1061.7813 Q680.6094,1061.7813 680.8594,1062.0469 Q681.125,1062.2969 681.125,1062.6406 Q681.125,1062.9844 680.7813,1063.3906 Q680.2813,1063.9688 679.4844,1064.2969 Q678.4063,1064.75 677.1094,1064.75 Q675.5938,1064.75 674.3906,1064.125 Q673.4063,1063.625 672.7188,1062.5625 Q672.0313,1061.4844 672.0313,1060.2031 L672.0313,1059.0469 Q672.0313,1057.7188 672.6406,1056.5781 Q673.2656,1055.4219 674.3594,1054.8125 Q675.4531,1054.1875 676.6875,1054.1875 Q677.4219,1054.1875 678.0625,1054.3594 Q678.7188,1054.5156 679.2656,1054.875 Z " fill="#000000"/><text fill="#000000" font-family="sans-serif" font-size="14" lengthAdjust="spacing" textLength="97" x="690.5" y="1064.7969">UserRepository</text><line style="stroke:#181818;stroke-width:0.5;" x1="662.5" x2="789.5" y1="1075" y2="1075"/><line style="stroke:#181818;stroke-width:0.5;" x1="662.5" x2="789.5" y1="1083" y2="1083"/></g><!--class RecruitmentProcessRepository--><g id="elem_RecruitmentProcessRepository"><rect codeLine="58" fill="#F1F1F1" height="48" id="RecruitmentProcessRepository" rx="2.5" ry="2.5" style="stroke:#181818;stroke-width:0.5;" width="227" x="362.5" y="1043"/><ellipse cx="377.5" cy="1059" fill="#ADD1B2" rx="11" ry="11" style="stroke:#181818;stroke-width:1.0;"/><path d="M380.2656,1054.875 Q380.4219,1054.6563 380.6094,1054.5469 Q380.7969,1054.4375 381.0156,1054.4375 Q381.3906,1054.4375 381.625,1054.7031 Q381.8594,1054.9531 381.8594,1055.5625 L381.8594,1057.0156 Q381.8594,1057.625 381.625,1057.8906 Q381.3906,1058.1563 381.0156,1058.1563 Q380.6719,1058.1563 380.4688,1057.9531 Q380.2656,1057.7656 380.1563,1057.25 Q380.1094,1056.8906 379.9219,1056.7031 Q379.5938,1056.3281 378.9844,1056.1094 Q378.375,1055.8906 377.75,1055.8906 Q376.9844,1055.8906 376.3438,1056.2188 Q375.7188,1056.5469 375.2188,1057.2969 Q374.7344,1058.0469 374.7344,1059.0781 L374.7344,1060.1719 Q374.7344,1061.4063 375.625,1062.2344 Q376.5156,1063.0469 378.1094,1063.0469 Q379.0469,1063.0469 379.7031,1062.7969 Q380.0938,1062.6406 380.5156,1062.2031 Q380.7813,1061.9375 380.9219,1061.8594 Q381.0781,1061.7813 381.2813,1061.7813 Q381.6094,1061.7813 381.8594,1062.0469 Q382.125,1062.2969 382.125,1062.6406 Q382.125,1062.9844 381.7813,1063.3906 Q381.2813,1063.9688 380.4844,1064.2969 Q379.4063,1064.75 378.1094,1064.75 Q376.5938,1064.75 375.3906,1064.125 Q374.4063,1063.625 373.7188,1062.5625 Q373.0313,1061.4844 373.0313,1060.2031 L373.0313,1059.0469 Q373.0313,1057.7188 373.6406,1056.5781 Q374.2656,1055.4219 375.3594,1054.8125 Q376.4531,1054.1875 377.6875,1054.1875 Q378.4219,1054.1875 379.0625,1054.3594 Q379.7188,1054.5156 380.2656,1054.875 Z " fill="#000000"/><text fill="#000000" font-family="sans-serif" font-size="14" lengthAdjust="spacing" textLength="195" x="391.5" y="1064.7969">RecruitmentProcessRepository</text><line style="stroke:#181818;stroke-width:0.5;" x1="363.5" x2="588.5" y1="1075" y2="1075"/><line style="stroke:#181818;stroke-width:0.5;" x1="363.5" x2="588.5" y1="1083" y2="1083"/></g><!--link CustomerManagerUI to ChangeJobOfferPhaseUI--><g id="link_CustomerManagerUI_ChangeJobOfferPhaseUI"><path codeLine="62" d="M451,74.26 C451,93.51 451,111.38 451,128.71 " fill="none" id="CustomerManagerUI-to-ChangeJobOfferPhaseUI" style="stroke:#181818;stroke-width:1.0;stroke-dasharray:7.0,7.0;"/><polygon fill="#181818" points="451,134.71,455,125.71,451,129.71,447,125.71,451,134.71" style="stroke:#181818;stroke-width:1.0;"/></g><!--link ChangeJobOfferPhaseUI to ChangeJobOfferPhaseController--><g id="link_ChangeJobOfferPhaseUI_ChangeJobOfferPhaseController"><path codeLine="64" d="M451,183.21 C451,199.87 451,216.97 451,237.86 " fill="none" id="ChangeJobOfferPhaseUI-to-ChangeJobOfferPhaseController" style="stroke:#181818;stroke-width:1.0;stroke-dasharray:7.0,7.0;"/><polygon fill="#181818" points="451,243.86,455,234.86,451,238.86,447,234.86,451,243.86" style="stroke:#181818;stroke-width:1.0;"/></g><!--link ChangeJobOfferPhaseController to PersistenceContext--><g id="link_ChangeJobOfferPhaseController_PersistenceContext"><path codeLine="67" d="M478.82,348.38 C495.68,379.53 513.8322,413.0543 528.4522,440.0443 " fill="none" id="ChangeJobOfferPhaseController-to-PersistenceContext" style="stroke:#181818;stroke-width:1.0;stroke-dasharray:7.0,7.0;"/><polygon fill="#181818" points="531.31,445.32,530.5405,435.5012,528.9285,440.9236,523.5062,439.3116,531.31,445.32" style="stroke:#181818;stroke-width:1.0;"/><text fill="#000000" font-family="sans-serif" font-size="13" lengthAdjust="spacing" textLength="79" x="503" y="393.0283">repositories ()</text></g><!--link ChangeJobOfferPhaseController to AuthorizationService--><g id="link_ChangeJobOfferPhaseController_AuthorizationService"><path codeLine="68" d="M545.83,348.02 C561.3,357.43 576.87,367.58 591,378 C659.23,428.31 710.4489,508.7903 736.7289,555.5203 " fill="none" id="ChangeJobOfferPhaseController-to-AuthorizationService" style="stroke:#181818;stroke-width:1.0;"/><polygon fill="#181818" points="739.67,560.75,738.7448,550.9447,737.2191,556.3919,731.7719,554.8661,739.67,560.75" style="stroke:#181818;stroke-width:1.0;"/></g><!--link ChangeJobOfferPhaseController to ListJobOfferService--><g id="link_ChangeJobOfferPhaseController_ListJobOfferService"><path codeLine="69" d="M331.93,322.29 C270.25,341.26 198.53,373.47 153,427 C43.36,555.92 75.0352,775.8122 92.2652,859.8722 " fill="none" id="ChangeJobOfferPhaseController-to-ListJobOfferService" style="stroke:#181818;stroke-width:1.0;"/><polygon fill="#181818" points="93.47,865.75,95.5813,856.1301,92.466,860.8518,87.7443,857.7365,93.47,865.75" style="stroke:#181818;stroke-width:1.0;"/></g><!--link ChangeJobOfferPhaseController to RecruitmentProcessPhaseHandler--><g id="link_ChangeJobOfferPhaseController_RecruitmentProcessPhaseHandler"><path codeLine="70" d="M406.71,348.38 C385.55,372.94 364.186,397.7142 343.046,422.2542 " fill="none" id="ChangeJobOfferPhaseController-to-RecruitmentProcessPhaseHandler" style="stroke:#181818;stroke-width:1.0;"/><polygon fill="#181818" points="339.13,426.8,348.0346,422.5919,342.3934,423.0118,341.9735,417.3705,339.13,426.8" style="stroke:#181818;stroke-width:1.0;"/></g><!--link ListJobOfferService to JobOfferRepository--><g id="link_ListJobOfferService_JobOfferRepository"><path codeLine="72" d="M113.45,933.2 C125.78,965.6 142.2251,1008.8027 153.0951,1037.3527 " fill="none" id="ListJobOfferService-to-JobOfferRepository" style="stroke:#181818;stroke-width:1.0;stroke-dasharray:7.0,7.0;"/><polygon fill="#181818" points="155.23,1042.96,155.7659,1033.1257,153.4509,1038.2872,148.2894,1035.9723,155.23,1042.96" style="stroke:#181818;stroke-width:1.0;"/></g><!--link RecruitmentProcessPhaseHandler to RecruitmentProcessRepositoryHandler--><g id="link_RecruitmentProcessPhaseHandler_RecruitmentProcessRepositoryHandler"><path codeLine="74" d="M286.32,531.29 C277.23,585.03 264.2203,661.924 256.5303,707.404 " fill="none" id="RecruitmentProcessPhaseHandler-to-RecruitmentProcessRepositoryHandler" style="stroke:#181818;stroke-width:1.0;"/><polygon fill="#181818" points="255.53,713.32,260.9745,705.1128,256.3636,708.39,253.0865,703.7791,255.53,713.32" style="stroke:#181818;stroke-width:1.0;"/></g><!--link RecruitmentProcessRepositoryHandler to RecruitmentProcessRepository--><g id="link_RecruitmentProcessRepositoryHandler_RecruitmentProcessRepository"><path codeLine="76" d="M246.03,780.87 C241.94,829.91 241.54,922.78 287,982 C309.3,1011.05 338.2264,1028.1717 371.6964,1040.8017 " fill="none" id="RecruitmentProcessRepositoryHandler-to-RecruitmentProcessRepository" style="stroke:#181818;stroke-width:1.0;stroke-dasharray:7.0,7.0;"/><polygon fill="#181818" points="377.31,1042.92,370.3018,1036.0001,372.632,1041.1547,367.4774,1043.4849,377.31,1042.92" style="stroke:#181818;stroke-width:1.0;"/><text fill="#000000" font-family="sans-serif" font-size="13" lengthAdjust="spacing" textLength="34" x="288" y="978.0283">save()</text></g><!--link AuthorizationService to UserRepository--><g id="link_AuthorizationService_UserRepository"><path codeLine="78" d="M756.18,628.14 C754.3,694.76 748.93,851.19 737,982 C735.12,1002.65 732.8338,1020.1025 730.3838,1036.9425 " fill="none" id="AuthorizationService-to-UserRepository" style="stroke:#181818;stroke-width:1.0;stroke-dasharray:7.0,7.0;"/><polygon fill="#181818" points="729.52,1042.88,734.7741,1034.5496,730.2399,1037.9321,726.8574,1033.3979,729.52,1042.88" style="stroke:#181818;stroke-width:1.0;"/></g><!--link PersistenceContext to RepositoryFactory--><g id="link_PersistenceContext_RepositoryFactory"><path codeLine="80" d="M551.08,512.62 C553.39,548.62 556.8083,602.0922 559.9883,651.9822 " fill="none" id="PersistenceContext-to-RepositoryFactory" style="stroke:#181818;stroke-width:1.0;"/><polygon fill="#181818" points="560.37,657.97,563.7894,648.7338,560.0519,652.9801,555.8056,649.2427,560.37,657.97" style="stroke:#181818;stroke-width:1.0;"/><text fill="#000000" font-family="sans-serif" font-size="13" lengthAdjust="spacing" textLength="44" x="559" y="600.0283">create()</text></g><!--link RepositoryFactory to JobOfferRepository--><g id="link_RepositoryFactory_JobOfferRepository"><path codeLine="82" d="M488.27,836.02 C443.98,882.95 385.73,939.59 327,982 C293.19,1006.41 256.7516,1025.3341 223.9016,1040.4341 " fill="none" id="RepositoryFactory-to-JobOfferRepository" style="stroke:#181818;stroke-width:1.0;"/><polygon fill="#181818" points="218.45,1042.94,228.2981,1042.8155,222.993,1040.8517,224.9568,1035.5467,218.45,1042.94" style="stroke:#181818;stroke-width:1.0;"/><text fill="#000000" font-family="sans-serif" font-size="13" lengthAdjust="spacing" textLength="44" x="352" y="978.0283">create()</text></g><!--link RepositoryFactory to UserRepository--><g id="link_RepositoryFactory_UserRepository"><path codeLine="83" d="M610.36,836.16 C645.78,906.56 690.2237,994.89 711.7237,1037.63 " fill="none" id="RepositoryFactory-to-UserRepository" style="stroke:#181818;stroke-width:1.0;"/><polygon fill="#181818" points="714.42,1042.99,713.9489,1033.1524,712.1731,1038.5233,706.8022,1036.7475,714.42,1042.99" style="stroke:#181818;stroke-width:1.0;"/><text fill="#000000" font-family="sans-serif" font-size="13" lengthAdjust="spacing" textLength="44" x="684" y="978.0283">create()</text></g><!--link RepositoryFactory to RecruitmentProcessRepository--><g id="link_RepositoryFactory_RecruitmentProcessRepository"><path codeLine="84" d="M541.05,836.16 C521.13,906.56 496.2444,994.4769 484.1444,1037.2169 " fill="none" id="RepositoryFactory-to-RecruitmentProcessRepository" style="stroke:#181818;stroke-width:1.0;"/><polygon fill="#181818" points="482.51,1042.99,488.8103,1035.42,483.872,1038.1791,481.1129,1033.2407,482.51,1042.99" style="stroke:#181818;stroke-width:1.0;"/><text fill="#000000" font-family="sans-serif" font-size="13" lengthAdjust="spacing" textLength="44" x="505" y="978.0283">create()</text></g><!--SRC=[ZLJHJeCm57tlL_JHnMmVC9CbkiIeqMoPMtokvG8rh5tQCZUD_suB50fq35u8j-USUtllkT2CA8MNkT9Y3_ADS9A0t3tZNuJDSqjJmXDu4P-hE0QvJec2cmb2VmZHajW_ByY3YANWMeei0-dI9A0TGXdz8iOubR07hbtM8Xg1YPfl5wpph0sLAGsS5lfmqavSma4efeLae7p6niNFZuJQboDm-DvAmfM9Ci59LkdTJExASvmhMsS8WqcknVRKGTQVN_Kbnv0RT1qwI451AHWdqA1DgBduVQvJquqVOidl88-CWhixpaIIGCJupbJ-mNHg-hfdIXbagtclfjTkP5q9VvghkF9Kk_DKvamNmorBBCRvH7ZacGA77O2x5gWwVOY8XcKkfKSOoDXClvlMbD-7Fvmt4FkAxeQDJilsjdqNZePggO3zVPpD5k5bC-3W3buWDBk7WanlDwr2OAlcs5yeR7eoB3ETBeAE6q4Bc6m4QzXT28MiQ-_QdoX2LvmQJjUpLaYdxx-PBMBG77EioB7u0GTNsFBRlaCeCC2owEw_RuxjLkb2lNywjQI0vJtM1L9d4QuJhdIWfly3]--></g></svg>