<?xml version="1.0" encoding="us-ascii" standalone="no"?><svg xmlns="http://www.w3.org/2000/svg" xmlns:xlink="http://www.w3.org/1999/xlink" contentStyleType="text/css" height="495px" preserveAspectRatio="none" style="width:487px;height:495px;background:#FFFFFF;" version="1.1" viewBox="0 0 487 495" width="487px" zoomAndPan="magnify"><defs/><g><text fill="#000000" font-family="sans-serif" font-size="14" font-weight="bold" lengthAdjust="spacing" textLength="254" x="117.75" y="30.1074">System Sequence Diagram - US 1010</text><rect fill="#FFFFFF" height="269.959" style="stroke:#181818;stroke-width:1.0;" width="10" x="76.5" y="133.2422"/><rect fill="#FFFFFF" height="31.291" style="stroke:#181818;stroke-width:1.0;" width="10" x="435.5" y="156.5332"/><rect fill="#FFFFFF" height="31.291" style="stroke:#181818;stroke-width:1.0;" width="10" x="435.5" y="219.1152"/><rect fill="#FFFFFF" height="121.5039" style="stroke:#181818;stroke-width:1.0;" width="10" x="435.5" y="281.6973"/><rect fill="none" height="98.5039" style="stroke:#000000;stroke-width:1.5;" width="470.5" x="10" y="296.6973"/><line style="stroke:#181818;stroke-width:0.5;stroke-dasharray:5.0,5.0;" x1="81" x2="81" y1="123.2422" y2="412.2012"/><line style="stroke:#181818;stroke-width:0.5;stroke-dasharray:5.0,5.0;" x1="440.5" x2="440.5" y1="123.2422" y2="412.2012"/><text fill="#000000" font-family="sans-serif" font-size="14" lengthAdjust="spacing" textLength="117" x="20" y="119.7285">CustomerManager</text><ellipse cx="81.5" cy="53.1211" fill="#E2E2F0" rx="8" ry="8" style="stroke:#181818;stroke-width:0.5;"/><path d="M81.5,61.1211 L81.5,88.1211 M68.5,69.1211 L94.5,69.1211 M81.5,88.1211 L68.5,103.1211 M81.5,88.1211 L94.5,103.1211 " fill="none" style="stroke:#181818;stroke-width:0.5;"/><text fill="#000000" font-family="sans-serif" font-size="14" lengthAdjust="spacing" textLength="117" x="20" y="426.3086">CustomerManager</text><ellipse cx="81.5" cy="438.3223" fill="#E2E2F0" rx="8" ry="8" style="stroke:#181818;stroke-width:0.5;"/><path d="M81.5,446.3223 L81.5,473.3223 M68.5,454.3223 L94.5,454.3223 M81.5,473.3223 L68.5,488.3223 M81.5,473.3223 L94.5,488.3223 " fill="none" style="stroke:#181818;stroke-width:0.5;"/><rect fill="#E2E2F0" height="32.6211" rx="2.5" ry="2.5" style="stroke:#181818;stroke-width:0.5;" width="60" x="410.5" y="89.6211"/><text fill="#000000" font-family="sans-serif" font-size="14" lengthAdjust="spacing" textLength="46" x="417.5" y="111.7285">System</text><rect fill="#E2E2F0" height="32.6211" rx="2.5" ry="2.5" style="stroke:#181818;stroke-width:0.5;" width="60" x="410.5" y="411.2012"/><text fill="#000000" font-family="sans-serif" font-size="14" lengthAdjust="spacing" textLength="46" x="417.5" y="433.3086">System</text><rect fill="#FFFFFF" height="269.959" style="stroke:#181818;stroke-width:1.0;" width="10" x="76.5" y="133.2422"/><rect fill="#FFFFFF" height="31.291" style="stroke:#181818;stroke-width:1.0;" width="10" x="435.5" y="156.5332"/><rect fill="#FFFFFF" height="31.291" style="stroke:#181818;stroke-width:1.0;" width="10" x="435.5" y="219.1152"/><rect fill="#FFFFFF" height="121.5039" style="stroke:#181818;stroke-width:1.0;" width="10" x="435.5" y="281.6973"/><polygon fill="#181818" points="423.5,152.5332,433.5,156.5332,423.5,160.5332,427.5,156.5332" style="stroke:#181818;stroke-width:1.0;"/><line style="stroke:#181818;stroke-width:1.0;" x1="86.5" x2="429.5" y1="156.5332" y2="156.5332"/><text fill="#000000" font-family="sans-serif" font-size="13" font-weight="bold" lengthAdjust="spacing" textLength="7" x="93.5" y="151.2705">1</text><text fill="#000000" font-family="sans-serif" font-size="13" lengthAdjust="spacing" textLength="257" x="104.5" y="151.2705">Requests to change a phase from a JobOffer</text><polygon fill="#181818" points="97.5,183.8242,87.5,187.8242,97.5,191.8242,93.5,187.8242" style="stroke:#181818;stroke-width:1.0;"/><line style="stroke:#181818;stroke-width:1.0;stroke-dasharray:2.0,2.0;" x1="91.5" x2="439.5" y1="187.8242" y2="187.8242"/><text fill="#000000" font-family="sans-serif" font-size="13" font-weight="bold" lengthAdjust="spacing" textLength="7" x="103.5" y="182.5615">2</text><text fill="#000000" font-family="sans-serif" font-size="13" lengthAdjust="spacing" textLength="288" x="114.5" y="182.5615">Displays all job offers from the Customer Manager</text><polygon fill="#181818" points="423.5,215.1152,433.5,219.1152,423.5,223.1152,427.5,219.1152" style="stroke:#181818;stroke-width:1.0;"/><line style="stroke:#181818;stroke-width:1.0;" x1="86.5" x2="429.5" y1="219.1152" y2="219.1152"/><text fill="#000000" font-family="sans-serif" font-size="13" font-weight="bold" lengthAdjust="spacing" textLength="7" x="93.5" y="213.8525">3</text><text fill="#000000" font-family="sans-serif" font-size="13" lengthAdjust="spacing" textLength="238" x="104.5" y="213.8525">Selects one of them to change the phase</text><polygon fill="#181818" points="97.5,246.4063,87.5,250.4063,97.5,254.4063,93.5,250.4063" style="stroke:#181818;stroke-width:1.0;"/><line style="stroke:#181818;stroke-width:1.0;stroke-dasharray:2.0,2.0;" x1="91.5" x2="439.5" y1="250.4063" y2="250.4063"/><text fill="#000000" font-family="sans-serif" font-size="13" font-weight="bold" lengthAdjust="spacing" textLength="7" x="103.5" y="245.1436">4</text><text fill="#000000" font-family="sans-serif" font-size="13" lengthAdjust="spacing" textLength="289" x="114.5" y="245.1436">Shows the current phase and list of all the phases</text><polygon fill="#181818" points="423.5,277.6973,433.5,281.6973,423.5,285.6973,427.5,281.6973" style="stroke:#181818;stroke-width:1.0;"/><line style="stroke:#181818;stroke-width:1.0;" x1="86.5" x2="429.5" y1="281.6973" y2="281.6973"/><text fill="#000000" font-family="sans-serif" font-size="13" font-weight="bold" lengthAdjust="spacing" textLength="7" x="93.5" y="276.4346">5</text><text fill="#000000" font-family="sans-serif" font-size="13" lengthAdjust="spacing" textLength="267" x="104.5" y="276.4346">Chooses to increment/decrease current phase</text><path d="M10,296.6973 L71,296.6973 L71,305.9883 L61,315.9883 L10,315.9883 L10,296.6973 " fill="#EEEEEE" style="stroke:#000000;stroke-width:1.5;"/><rect fill="none" height="98.5039" style="stroke:#000000;stroke-width:1.5;" width="470.5" x="10" y="296.6973"/><text fill="#000000" font-family="sans-serif" font-size="13" font-weight="bold" lengthAdjust="spacing" textLength="16" x="25" y="311.7256">alt</text><text fill="#000000" font-family="sans-serif" font-size="11" font-weight="bold" lengthAdjust="spacing" textLength="86" x="86" y="310.5674">[If it's possible]</text><polygon fill="#181818" points="97.5,335.2793,87.5,339.2793,97.5,343.2793,93.5,339.2793" style="stroke:#181818;stroke-width:1.0;"/><line style="stroke:#181818;stroke-width:1.0;stroke-dasharray:2.0,2.0;" x1="91.5" x2="434.5" y1="339.2793" y2="339.2793"/><text fill="#000000" font-family="sans-serif" font-size="13" font-weight="bold" lengthAdjust="spacing" textLength="7" x="103.5" y="334.0166">6</text><text fill="#000000" font-family="sans-serif" font-size="13" lengthAdjust="spacing" textLength="303" x="114.5" y="334.0166">Changes current phase and shows operation sucess</text><line style="stroke:#000000;stroke-width:1.0;stroke-dasharray:2.0,2.0;" x1="10" x2="480.5" y1="348.2793" y2="348.2793"/><text fill="#000000" font-family="sans-serif" font-size="11" font-weight="bold" lengthAdjust="spacing" textLength="107" x="15" y="360.1494">[If it's not possible]</text><polygon fill="#181818" points="97.5,383.2012,87.5,387.2012,97.5,391.2012,93.5,387.2012" style="stroke:#181818;stroke-width:1.0;"/><line style="stroke:#181818;stroke-width:1.0;stroke-dasharray:2.0,2.0;" x1="91.5" x2="434.5" y1="387.2012" y2="387.2012"/><text fill="#000000" font-family="sans-serif" font-size="13" font-weight="bold" lengthAdjust="spacing" textLength="7" x="103.5" y="381.9385">7</text><text fill="#000000" font-family="sans-serif" font-size="13" lengthAdjust="spacing" textLength="314" x="114.5" y="381.9385">Doesn't change phase and states why it's not possible</text><!--SRC=[bP11Ry8m38Nl-HM-SUeOrnvsWSicJPDMxGUamT1CITp5xX3_VWwKmG2XSMjg-ttllKadqdCzdVR19XbYU70KfunV0oQ7rTBRTRRH6F4I49ej2qPenZ4izcEeuAE1sUFiqHWx2AKXjfYDTK8PvWCBHSolDjcr_krj5kzyhxXHpvHD_sq5BvRFtb0zZJSrl1SJB0n2u3gRrWWM-iuomYfJrCSBjM-hbQeSzKVWcADIkJD2hPbOkzWos13WargWei5xKUcE7k5WSedd-hTyDnZGgMrAgD95CPv4A81TYFjCDnrjU7ViXfnHgzqtOTCIWcSff9BdLvxlSWqrp3iYFIjMVN8PeqAcIzIlmlb3lN1kWy3p2hnC67fYzct06t5sjD86Nqd3kwJKOxRYAG4F3faD1fqV68dadvm58QU97De_mOZwPzXqsokIg0kQoPWV]--></g></svg>